<svg xmlns="http://www.w3.org/2000/svg" viewBox="0 0 600 480"><defs><style>.cls-1{fill:#fff;}.cls-2{fill:#6678a8;}.cls-3{fill:#65a4c3;}.cls-4,.cls-6{fill:none;}.cls-4{stroke:#b4d9b9;stroke-miterlimit:10;stroke-width:2px;}.cls-5{fill:#b4d9b9;}</style></defs><title>City Of Toyota</title><g id="Layer_2" data-name="Layer 2"><g id="Layer_1-2" data-name="Layer 1"><g id="City_Of_Toyota" data-name="City Of Toyota"><g id="box"><rect class="cls-1" y="1.58" width="600" height="478.42"/></g><g id="Name_of_Stadium" data-name="Name of Stadium"><rect class="cls-2" x="0.08" y="415.93" width="599.49" height="63.79"/><path class="cls-1" d="M193.52,438.6v-4.5h1a5.18,5.18,0,0,0,3.7-1.55,5.27,5.27,0,0,0,1.54-3.73,1.05,1.05,0,0,0-1.05-1.06h-6.29a1.05,1.05,0,0,0-1.05,1.06v9.23a69.06,69.06,0,0,0-10.94-1.58c-2-.15-4.07-.23-6.14-.25V432h1a5.19,5.19,0,0,0,3.71-1.55,5.27,5.27,0,0,0,1.54-3.73,1.05,1.05,0,0,0-1-1.06h-6.29a1.05,1.05,0,0,0-1,1.06v9.51c-2.07,0-4.14.1-6.14.25a69.06,69.06,0,0,0-10.94,1.58V434.1h1a5.19,5.19,0,0,0,3.71-1.55,5.26,5.26,0,0,0,1.53-3.73,1,1,0,0,0-1-1.06h-6.29a1.05,1.05,0,0,0-1.05,1.06v9.78c-4.38,1.32-6.6,3-6.6,5v19c0,1.61,1.42,3,4.23,4.18,4.52,1.86,11.33,2.71,16.24,3,2.08.13,4.22.2,6.36.2s4.27-.07,6.35-.2c4.86-.31,11.71-1.15,16.24-3,2.81-1.17,4.24-2.57,4.24-4.18v-19C200.12,441.6,197.9,439.92,193.52,438.6Zm0-8.73h4a3.14,3.14,0,0,1-3,2.12h-1Zm-19.18-2.11h4a3.1,3.1,0,0,1-.74,1.19,3.16,3.16,0,0,1-2.23.92h-1Zm-19.18,2.11h4a3.22,3.22,0,0,1-.74,1.19,3.13,3.13,0,0,1-2.23.93h-1ZM181,438.62a69.18,69.18,0,0,1,9.3,1.33l-4.65,3.35c-2.16-.3-4.66-.52-7.32-.64Zm-7.7-.3c1.77,0,3.55.05,5.28.14l-2.72,4.12c-1.69,0-3.43,0-5.13,0L168,438.46C169.74,438.37,171.51,438.32,173.29,438.32Zm-7.7.3,2.67,4c-2.67.12-5.16.34-7.32.64L156.29,440A69.18,69.18,0,0,1,165.59,438.62Zm-12,2L158,443.8a18.54,18.54,0,0,0-2.47.67c-.93.34-2.16.9-2.41,1.95-3.55-1.13-4.59-2.28-4.59-2.82S149.64,441.83,153.63,440.64Zm5.72,26.21c-7.84-1.27-10.8-3.25-10.8-4.24v-3.28a13.23,13.23,0,0,0,2.17,1.11,40.93,40.93,0,0,0,8.63,2.2Zm0-6.35a37.79,37.79,0,0,1-7.84-2c-2.18-.89-3-1.75-3-2.2V453a12.5,12.5,0,0,0,2.14,1.1,40.28,40.28,0,0,0,8.66,2.21Zm0-6.32c-7.84-1.28-10.8-3.25-10.8-4.24v-3.26a22.42,22.42,0,0,0,7.21,2.62c1.12.25,2.32.48,3.59.68Zm6.6,13.44c-1.55-.12-3.06-.27-4.51-.46v-4.22c1.45.19,3,.34,4.51.46Zm.12-6.33c-1.6-.12-3.15-.28-4.63-.48v-4.2c2.18.28,4.48.48,6.84.6l-.1.1A7.38,7.38,0,0,0,166.07,461.29Zm-4.63-6.8v-4.21a94.47,94.47,0,0,0,10.8.71v4.22A89.79,89.79,0,0,1,161.44,454.49Zm17.09,13.27c-1.38.07-2.79.11-4.19.13v-3.16a1.05,1.05,0,1,0-2.1,0v3.16c-1.41,0-2.81-.06-4.19-.13v-5.31a5.24,5.24,0,0,1,5.24-5.12,5.17,5.17,0,0,1,3.7,1.55,5.26,5.26,0,0,1,1.54,3.57v5.31Zm6.6-.6c-1.44.19-2.95.34-4.5.46V463.4c1.55-.12,3.06-.27,4.5-.46Zm0-6.35c-1.47.2-3,.36-4.62.48a7.44,7.44,0,0,0-2-3.9l-.19-.18c2.37-.12,4.67-.32,6.84-.6v4.2Zm0-6.33a87.43,87.43,0,0,1-10.79.73V451a94.14,94.14,0,0,0,10.79-.71Zm-11.84-5.6a91.31,91.31,0,0,1-12.74-.85c-1.41-.21-2.75-.45-4-.71l-.19-.1a5.62,5.62,0,0,1-.91-.41c2.78-1.53,11.54-2,14.74-2.11,2-.05,4.15-.05,6.18,0a84,84,0,0,1,9.41.75,17.17,17.17,0,0,1,5.32,1.36,6.56,6.56,0,0,1-1.29.55c-1.19.25-2.46.47-3.79.66A89.76,89.76,0,0,1,173.29,448.88ZM198,462.61c0,1-3,3-10.79,4.24v-4.21a40.82,40.82,0,0,0,8.62-2.2,12.83,12.83,0,0,0,2.17-1.11Zm0-6.33c0,.45-.77,1.31-3,2.2a37.68,37.68,0,0,1-7.83,2v-4.18a40.17,40.17,0,0,0,8.65-2.21A12.14,12.14,0,0,0,198,453Zm0-6.34c0,1-3,3-10.79,4.24V450c3.21-.51,8.08-1.52,10.79-3.3Zm-4.59-3.52c-.25-1.06-1.51-1.63-2.47-2a20.28,20.28,0,0,0-2.41-.65l4.39-3.16c4,1.19,5.08,2.42,5.08,3S197,445.29,193.43,446.42Z"/><path class="cls-1" d="M223.48,453a4.05,4.05,0,0,1-1.34,2.88,4.7,4.7,0,0,1-3.19,1,4.24,4.24,0,0,1-3.41-1.47,6.09,6.09,0,0,1-1.24-4v-.69a6.7,6.7,0,0,1,.58-2.88,4.26,4.26,0,0,1,1.63-1.91,4.5,4.5,0,0,1,2.47-.67,4.58,4.58,0,0,1,3.14,1.05,4.33,4.33,0,0,1,1.37,2.95h-2.32a2.38,2.38,0,0,0-.6-1.59,2.24,2.24,0,0,0-1.59-.49,2,2,0,0,0-1.74.83,4.78,4.78,0,0,0-.59,2.6v.86a5,5,0,0,0,.56,2.68A1.9,1.9,0,0,0,219,455a1.92,1.92,0,0,0,2.21-2Z"/><path class="cls-1" d="M227.46,456.74h-2.31V445.41h2.31Z"/><path class="cls-1" d="M238.08,447.3h-3.44v9.44h-2.32V447.3h-3.4v-1.89h9.16Z"/><path class="cls-1" d="M243.41,450.52l2.34-5.11h2.53l-3.69,7.22v4.11h-2.36v-4.11l-3.69-7.22h2.54Z"/><path class="cls-1" d="M262.49,451.33a6.92,6.92,0,0,1-.58,2.94,4.55,4.55,0,0,1-1.69,2,4.64,4.64,0,0,1-2.5.68,4.69,4.69,0,0,1-2.5-.68,4.46,4.46,0,0,1-1.7-1.93,6.78,6.78,0,0,1-.61-2.89v-.57a6.83,6.83,0,0,1,.6-2.94,4.52,4.52,0,0,1,1.69-2,4.94,4.94,0,0,1,5,0,4.45,4.45,0,0,1,1.69,2,6.83,6.83,0,0,1,.6,2.94Zm-2.35-.51a4.82,4.82,0,0,0-.63-2.71,2.22,2.22,0,0,0-3.61,0,4.71,4.71,0,0,0-.64,2.68v.55a4.9,4.9,0,0,0,.63,2.7,2.07,2.07,0,0,0,1.83,1,2,2,0,0,0,1.79-.93,4.75,4.75,0,0,0,.63-2.69Z"/><path class="cls-1" d="M271,452.11H266.5v4.63h-2.32V445.41h7.32v1.89h-5v2.93H271Z"/><path class="cls-1" d="M284.8,447.3h-3.45v9.44H279V447.3h-3.4v-1.89h9.17Z"/><path class="cls-1" d="M295.14,451.33a6.92,6.92,0,0,1-.58,2.94,4.53,4.53,0,0,1-1.68,2,5,5,0,0,1-5,0,4.46,4.46,0,0,1-1.7-1.93,6.78,6.78,0,0,1-.61-2.89v-.57a6.83,6.83,0,0,1,.6-2.94,4.52,4.52,0,0,1,1.69-2,4.94,4.94,0,0,1,5,0,4.54,4.54,0,0,1,1.7,2,7,7,0,0,1,.59,2.94Zm-2.35-.51a4.82,4.82,0,0,0-.63-2.71,2.22,2.22,0,0,0-3.61,0,4.79,4.79,0,0,0-.64,2.68v.55a4.9,4.9,0,0,0,.63,2.7,2.07,2.07,0,0,0,1.83,1,2,2,0,0,0,1.79-.93,4.75,4.75,0,0,0,.63-2.69Z"/><path class="cls-1" d="M300.38,450.52l2.34-5.11h2.53l-3.69,7.22v4.11H299.2v-4.11l-3.69-7.22h2.54Z"/><path class="cls-1" d="M315.3,451.33a6.92,6.92,0,0,1-.59,2.94,4.46,4.46,0,0,1-1.68,2,4.94,4.94,0,0,1-5,0,4.39,4.39,0,0,1-1.7-1.93,6.5,6.5,0,0,1-.61-2.89v-.57a6.83,6.83,0,0,1,.59-2.94,4.54,4.54,0,0,1,1.7-2,4.64,4.64,0,0,1,2.5-.68,4.69,4.69,0,0,1,2.5.68,4.58,4.58,0,0,1,1.69,2,6.83,6.83,0,0,1,.6,2.94Zm-2.35-.51a4.74,4.74,0,0,0-.64-2.71,2.21,2.21,0,0,0-3.6,0,4.71,4.71,0,0,0-.65,2.68v.55a4.81,4.81,0,0,0,.64,2.7,2,2,0,0,0,1.82,1,2,2,0,0,0,1.79-.93,4.83,4.83,0,0,0,.64-2.69Z"/><path class="cls-1" d="M324.8,447.3h-3.45v9.44H319V447.3h-3.4v-1.89h9.17Z"/><path class="cls-1" d="M331.54,454.41h-4.06l-.78,2.33h-2.46l4.19-11.33h2.14l4.22,11.33h-2.47Zm-3.44-1.89h2.81l-1.41-4.25Z"/><path class="cls-1" d="M345.61,453.77a1.21,1.21,0,0,0-.46-1,6.3,6.3,0,0,0-1.67-.74,12.15,12.15,0,0,1-1.91-.78,3.13,3.13,0,0,1-1.92-2.81,2.78,2.78,0,0,1,.52-1.64,3.32,3.32,0,0,1,1.47-1.12,5.58,5.58,0,0,1,2.16-.41,5.07,5.07,0,0,1,2.15.44,3.52,3.52,0,0,1,1.47,1.24,3.37,3.37,0,0,1,.52,1.83h-2.32a1.54,1.54,0,0,0-.49-1.22,2,2,0,0,0-1.36-.43,2.17,2.17,0,0,0-1.33.36,1.17,1.17,0,0,0-.47,1,1.1,1.1,0,0,0,.56.93,6.52,6.52,0,0,0,1.62.7,7,7,0,0,1,2.88,1.48,3,3,0,0,1,.91,2.21,2.71,2.71,0,0,1-1.11,2.31,4.76,4.76,0,0,1-3,.84,5.7,5.7,0,0,1-2.37-.48,3.75,3.75,0,0,1-1.62-1.31,3.34,3.34,0,0,1-.56-1.93h2.32c0,1.25.75,1.88,2.23,1.88a2.2,2.2,0,0,0,1.29-.34A1.11,1.11,0,0,0,345.61,453.77Z"/><path class="cls-1" d="M358,447.3h-3.45v9.44h-2.32V447.3h-3.4v-1.89H358Z"/><path class="cls-1" d="M364.72,454.41h-4.06l-.77,2.33h-2.47l4.19-11.33h2.15L368,456.74h-2.46Zm-3.43-1.89h2.81l-1.42-4.25Z"/><path class="cls-1" d="M369,456.74V445.41h3.46a5.23,5.23,0,0,1,2.66.67A4.62,4.62,0,0,1,377,448a5.9,5.9,0,0,1,.66,2.82v.52a5.94,5.94,0,0,1-.64,2.81,4.66,4.66,0,0,1-1.82,1.91,5.25,5.25,0,0,1-2.65.68Zm2.32-9.44v7.57h1.12a2.5,2.5,0,0,0,2.08-.9,4,4,0,0,0,.73-2.56v-.6a4.11,4.11,0,0,0-.71-2.62,2.51,2.51,0,0,0-2.08-.89Z"/><path class="cls-1" d="M381.77,456.74h-2.32V445.41h2.32Z"/><path class="cls-1" d="M392.44,445.41v7.46a3.84,3.84,0,0,1-1.16,2.95,4.44,4.44,0,0,1-3.16,1.08,4.51,4.51,0,0,1-3.13-1,3.79,3.79,0,0,1-1.18-2.89v-7.55h2.32v7.48a2.18,2.18,0,0,0,.53,1.62,2,2,0,0,0,1.46.51c1.31,0,2-.69,2-2.07v-7.54Z"/><path class="cls-1" d="M397.37,445.41l2.89,8.22,2.87-8.22h3.05v11.33h-2.33v-3.09l.23-5.35-3,8.44h-1.59l-3-8.44.24,5.35v3.09h-2.32V445.41Z"/></g><path d="M240.44,404.3H239v-6.83l-2.07.71V397l3.29-1.22h.18Z"/><path d="M243.75,400.08l.46-4.29h4.53V397h-3.36l-.24,2a2.71,2.71,0,0,1,1.33-.34,2.34,2.34,0,0,1,1.87.78,3.09,3.09,0,0,1,.67,2.09,2.88,2.88,0,0,1-.74,2.07,2.71,2.71,0,0,1-2,.76,2.83,2.83,0,0,1-1.92-.66,2.41,2.41,0,0,1-.82-1.75h1.36a1.49,1.49,0,0,0,.44.95,1.33,1.33,0,0,0,.94.33,1.19,1.19,0,0,0,1-.47,2,2,0,0,0,.36-1.27,1.77,1.77,0,0,0-.4-1.23,1.38,1.38,0,0,0-1.1-.45,1.81,1.81,0,0,0-.65.1,1.84,1.84,0,0,0-.58.4Z"/><path d="M254.49,398l0,.66a2.24,2.24,0,0,1,1.81-.78,1.74,1.74,0,0,1,1.72,1,2.23,2.23,0,0,1,1.92-1,2,2,0,0,1,1.55.58,2.62,2.62,0,0,1,.52,1.71v4.15h-1.41v-4.11a1.3,1.3,0,0,0-.26-.89,1.19,1.19,0,0,0-.87-.28,1.17,1.17,0,0,0-.78.26,1.35,1.35,0,0,0-.43.68v4.34H256.9v-4.16a1,1,0,0,0-1.13-1.12,1.24,1.24,0,0,0-1.2.7v4.58h-1.41V398Z"/><path d="M263.49,396.34a.77.77,0,0,1,.21-.55.79.79,0,0,1,.59-.21.8.8,0,0,1,.59.21.77.77,0,0,1,.21.55.72.72,0,0,1-.21.53.8.8,0,0,1-.59.21.79.79,0,0,1-.59-.21A.72.72,0,0,1,263.49,396.34Zm1.5,8h-1.41V398H265Z"/><path d="M267.83,398l0,.73a2.23,2.23,0,0,1,1.83-.85c1.3,0,2,.75,2,2.26v4.18h-1.41v-4.1a1.28,1.28,0,0,0-.26-.89,1.08,1.08,0,0,0-.84-.29,1.36,1.36,0,0,0-1.27.78v4.5H266.5V398Z"/><path d="M276.64,402.58a.64.64,0,0,0-.31-.58,3.35,3.35,0,0,0-1-.35,5.48,5.48,0,0,1-1.2-.38,1.62,1.62,0,0,1-1.05-1.49,1.68,1.68,0,0,1,.68-1.37,2.67,2.67,0,0,1,1.74-.55,2.84,2.84,0,0,1,1.82.56,1.8,1.8,0,0,1,.69,1.46h-1.41a.87.87,0,0,0-.3-.68,1.16,1.16,0,0,0-.8-.28,1.29,1.29,0,0,0-.76.22.69.69,0,0,0-.29.58.58.58,0,0,0,.27.51,3.7,3.7,0,0,0,1.1.36,4.88,4.88,0,0,1,1.3.44,1.88,1.88,0,0,1,.71.61,1.6,1.6,0,0,1,.22.86,1.67,1.67,0,0,1-.7,1.39,3,3,0,0,1-1.83.52,3.18,3.18,0,0,1-1.38-.28,2.24,2.24,0,0,1-.94-.77,1.84,1.84,0,0,1-.33-1.05h1.37a1,1,0,0,0,.37.77,1.46,1.46,0,0,0,.92.27,1.44,1.44,0,0,0,.85-.21A.67.67,0,0,0,276.64,402.58Z"/><path d="M287.72,402.34l1-4.36h1.38l-1.71,6.32h-1.16L285.87,400l-1.32,4.34h-1.16L281.68,398h1.37l1,4.31,1.29-4.31h1.06Z"/><path d="M294.77,404.3a2.48,2.48,0,0,1-.16-.59,2.17,2.17,0,0,1-1.64.7,2.23,2.23,0,0,1-1.55-.54,1.76,1.76,0,0,1-.59-1.34,1.8,1.8,0,0,1,.74-1.55,3.6,3.6,0,0,1,2.13-.54h.87V400a1.11,1.11,0,0,0-.28-.78,1,1,0,0,0-.82-.3,1.22,1.22,0,0,0-.79.24.76.76,0,0,0-.31.62H291a1.55,1.55,0,0,1,.34-1,2.31,2.31,0,0,1,.93-.71,3.31,3.31,0,0,1,1.32-.26,2.61,2.61,0,0,1,1.75.56A2,2,0,0,1,296,400v2.85a3.22,3.22,0,0,0,.24,1.36v.1Zm-1.54-1a1.52,1.52,0,0,0,.78-.21,1.35,1.35,0,0,0,.56-.55v-1.19h-.76a2,2,0,0,0-1.18.28.88.88,0,0,0-.39.77.82.82,0,0,0,.27.65A1,1,0,0,0,293.23,403.28Z"/><path d="M299,404.3h-1.41v-9H299Z"/><path d="M302.52,401.59l-.63.65v2.06h-1.41v-9h1.41v5.17l.44-.55,1.74-2h1.69l-2.33,2.63L306,404.3h-1.63Z"/><path class="cls-3" d="M209.32,374.87h-3v8.27h-2v-8.27h-3v-1.65h8Z"/><path class="cls-3" d="M218.37,378.4a6,6,0,0,1-.51,2.57,3.83,3.83,0,0,1-1.47,1.7,4.33,4.33,0,0,1-4.38,0,4,4,0,0,1-1.49-1.69,5.84,5.84,0,0,1-.53-2.53V378a6,6,0,0,1,.52-2.58,3.89,3.89,0,0,1,1.48-1.71,4.3,4.3,0,0,1,4.38,0,3.83,3.83,0,0,1,1.48,1.71,6,6,0,0,1,.52,2.57Zm-2.05-.45a4.19,4.19,0,0,0-.56-2.37,1.94,1.94,0,0,0-3.15,0,4.22,4.22,0,0,0-.57,2.35v.48a4.27,4.27,0,0,0,.56,2.36,1.79,1.79,0,0,0,1.59.84,1.77,1.77,0,0,0,1.57-.81,4.22,4.22,0,0,0,.56-2.35Z"/><path class="cls-3" d="M223,377.69l2.05-4.47h2.22L224,379.54v3.6h-2.07v-3.6l-3.23-6.32h2.23Z"/><path class="cls-3" d="M236,378.4a5.9,5.9,0,0,1-.52,2.57,3.83,3.83,0,0,1-1.47,1.7,4.31,4.31,0,0,1-4.37,0,3.91,3.91,0,0,1-1.49-1.69,6,6,0,0,1-.54-2.53V378a6,6,0,0,1,.53-2.58,3.83,3.83,0,0,1,1.48-1.71,4,4,0,0,1,2.19-.6,4,4,0,0,1,2.18.6,3.77,3.77,0,0,1,1.48,1.71A6,6,0,0,1,236,378ZM234,378a4.19,4.19,0,0,0-.55-2.37,2,2,0,0,0-3.16,0,4.14,4.14,0,0,0-.56,2.35v.48a4.27,4.27,0,0,0,.55,2.36,1.81,1.81,0,0,0,1.6.84,1.79,1.79,0,0,0,1.57-.81,4.23,4.23,0,0,0,.55-2.35Z"/><path class="cls-3" d="M244.32,374.87h-3v8.27h-2v-8.27h-3v-1.65h8Z"/><path class="cls-3" d="M250.22,381.09h-3.55l-.68,2.05h-2.16l3.67-9.92h1.88l3.68,9.92H250.9Zm-3-1.65h2.46l-1.23-3.72Z"/><path class="cls-3" d="M257.65,379.68h-3.8V378.1h3.8Z"/><path class="cls-3" d="M264.46,380.53a1,1,0,0,0-.41-.88,5.23,5.23,0,0,0-1.46-.66,9.81,9.81,0,0,1-1.67-.68,2.74,2.74,0,0,1-1.68-2.46,2.41,2.41,0,0,1,.45-1.43,2.89,2.89,0,0,1,1.29-1,4.75,4.75,0,0,1,1.89-.36,4.33,4.33,0,0,1,1.88.39,2.9,2.9,0,0,1,1.28,1.08,2.83,2.83,0,0,1,.46,1.6h-2a1.34,1.34,0,0,0-.42-1.06,1.78,1.78,0,0,0-1.2-.38,1.88,1.88,0,0,0-1.16.32,1,1,0,0,0-.41.83,1,1,0,0,0,.48.81,5.48,5.48,0,0,0,1.43.61,6.14,6.14,0,0,1,2.52,1.31,2.57,2.57,0,0,1,.79,1.93,2.38,2.38,0,0,1-1,2,4.18,4.18,0,0,1-2.6.73,5,5,0,0,1-2.07-.42,3.27,3.27,0,0,1-1.42-1.14,2.94,2.94,0,0,1-.49-1.69h2c0,1.09.65,1.64,1.95,1.64a1.87,1.87,0,0,0,1.13-.3A1,1,0,0,0,264.46,380.53Z"/><path class="cls-3" d="M275.88,383.14h-2v-4.25h-4v4.25h-2v-9.92h2v4h4v-4h2Z"/><path class="cls-3" d="M279.8,383.14h-2v-9.92h2Z"/><path class="cls-3" d="M290.24,380.53a1,1,0,0,0-.41-.88,5.23,5.23,0,0,0-1.46-.66,9.81,9.81,0,0,1-1.67-.68,2.74,2.74,0,0,1-1.68-2.46,2.41,2.41,0,0,1,.45-1.43,2.89,2.89,0,0,1,1.29-1,4.84,4.84,0,0,1,1.9-.36,4.31,4.31,0,0,1,1.87.39,2.83,2.83,0,0,1,1.74,2.68h-2a1.34,1.34,0,0,0-.42-1.06,1.76,1.76,0,0,0-1.2-.38,1.85,1.85,0,0,0-1.15.32,1,1,0,0,0-.42.83,1,1,0,0,0,.49.81,5.25,5.25,0,0,0,1.42.61,6.14,6.14,0,0,1,2.52,1.31,2.57,2.57,0,0,1,.79,1.93,2.4,2.4,0,0,1-1,2,4.23,4.23,0,0,1-2.61.73,5,5,0,0,1-2.07-.42,3.33,3.33,0,0,1-1.42-1.14,2.94,2.94,0,0,1-.49-1.69h2c0,1.09.64,1.64,1.94,1.64a1.87,1.87,0,0,0,1.13-.3A1,1,0,0,0,290.24,380.53Z"/><path class="cls-3" d="M301.06,374.87h-3v8.27h-2v-8.27h-3v-1.65h8Z"/><path class="cls-3" d="M307,381.09H303.4l-.67,2.05h-2.16l3.66-9.92h1.88l3.69,9.92h-2.16Zm-3-1.65h2.46l-1.24-3.72Z"/><path class="cls-3" d="M317.32,374.87h-3v8.27h-2v-8.27h-3v-1.65h8Z"/><path class="cls-3" d="M320.63,383.14h-2v-9.92h2Z"/><path class="cls-3" d="M330.6,378.4a5.9,5.9,0,0,1-.52,2.57,3.83,3.83,0,0,1-1.47,1.7,4.31,4.31,0,0,1-4.37,0,3.91,3.91,0,0,1-1.49-1.69,6,6,0,0,1-.54-2.53V378a6,6,0,0,1,.53-2.58,3.83,3.83,0,0,1,1.48-1.71,4,4,0,0,1,2.19-.6,4,4,0,0,1,2.18.6,3.83,3.83,0,0,1,1.48,1.71,6,6,0,0,1,.53,2.57Zm-2.06-.45a4.19,4.19,0,0,0-.55-2.37,2,2,0,0,0-3.16,0,4.14,4.14,0,0,0-.56,2.35v.48a4.27,4.27,0,0,0,.55,2.36,1.94,1.94,0,0,0,3.17,0,4.23,4.23,0,0,0,.55-2.35Z"/><path class="cls-3" d="M340.08,383.14h-2l-3.95-6.53v6.53h-2v-9.92h2l4,6.54v-6.54h2Z"/><g id="arrow"><line class="cls-4" x1="271" y1="340.38" x2="271" y2="355.47"/><polygon class="cls-5" points="263.94 351.7 278.06 351.7 270.57 359.25 263.94 351.7"/></g><g id="column_2" data-name="column 2"><rect class="cls-6" x="227.22" y="63.73" width="199.68" height="414.98"/><rect class="cls-3" x="381.76" y="233.49" width="137.28" height="31.44"/><path class="cls-1" d="M427.36,250.51a1,1,0,0,0-.36-.79,4.5,4.5,0,0,0-1.29-.56,6.28,6.28,0,0,1-1.49-.63,2,2,0,0,1-1.06-1.75,1.92,1.92,0,0,1,.76-1.55,3.06,3.06,0,0,1,2-.61,3.31,3.31,0,0,1,1.44.3,2.38,2.38,0,0,1,1,.85,2.21,2.21,0,0,1,.36,1.23h-1.34a1.23,1.23,0,0,0-.38-.95,1.57,1.57,0,0,0-1.09-.35,1.61,1.61,0,0,0-1,.29.93.93,0,0,0-.36.79.86.86,0,0,0,.39.71,4.42,4.42,0,0,0,1.3.56,6.07,6.07,0,0,1,1.45.61,2.35,2.35,0,0,1,.8.8,2,2,0,0,1,.25,1,1.84,1.84,0,0,1-.74,1.55,3.14,3.14,0,0,1-2,.58,3.88,3.88,0,0,1-1.54-.31,2.61,2.61,0,0,1-1.1-.87,2.16,2.16,0,0,1-.39-1.28h1.35a1.25,1.25,0,0,0,.43,1,1.87,1.87,0,0,0,1.25.37,1.67,1.67,0,0,0,1.06-.29A.94.94,0,0,0,427.36,250.51Z"/><path class="cls-1" d="M431,247.36a2,2,0,0,1,1.6-.74c1.22,0,1.85.71,1.86,2.12v3.78H433.2v-3.74a1.13,1.13,0,0,0-.25-.84,1.06,1.06,0,0,0-.76-.25,1.24,1.24,0,0,0-1.16.69v4.14h-1.29V244.3H431Z"/><path class="cls-1" d="M439.28,252a2,2,0,0,1-1.61.68,1.8,1.8,0,0,1-1.42-.55,2.37,2.37,0,0,1-.48-1.6v-3.75h1.29v3.74c0,.73.3,1.1.91,1.1a1.28,1.28,0,0,0,1.27-.68v-4.16h1.29v5.79h-1.22Z"/><path class="cls-1" d="M443.46,245.32v1.41h1v1h-1v3.24a.76.76,0,0,0,.13.48.64.64,0,0,0,.47.14,2.3,2.3,0,0,0,.45-.05v1a3.23,3.23,0,0,1-.85.12c-1,0-1.49-.55-1.49-1.66v-3.28h-.94v-1h.94v-1.41Z"/><path class="cls-1" d="M447.08,245.32v1.41h1v1h-1v3.24a.71.71,0,0,0,.13.48.64.64,0,0,0,.47.14,2.48,2.48,0,0,0,.45-.05v1a3.28,3.28,0,0,1-.85.12c-1,0-1.49-.55-1.49-1.66v-3.28h-1v-1h1v-1.41Z"/><path class="cls-1" d="M450.45,252.52h-1.29V244.3h1.29Z"/><path class="cls-1" d="M454.39,252.63a2.66,2.66,0,0,1-2-.78,2.83,2.83,0,0,1-.76-2.07v-.17a3.56,3.56,0,0,1,.33-1.55,2.59,2.59,0,0,1,.93-1.06,2.49,2.49,0,0,1,1.34-.38,2.25,2.25,0,0,1,1.82.76,3.22,3.22,0,0,1,.64,2.13V250h-3.76a1.73,1.73,0,0,0,.48,1.13,1.39,1.39,0,0,0,1.05.42,1.74,1.74,0,0,0,1.44-.72l.7.67a2.34,2.34,0,0,1-.93.8A2.85,2.85,0,0,1,454.39,252.63Zm-.15-5a1.08,1.08,0,0,0-.86.37,1.94,1.94,0,0,0-.42,1h2.46V249a1.6,1.6,0,0,0-.34-1A1.11,1.11,0,0,0,454.24,247.67Z"/><path class="cls-1" d="M460.53,252.52v-7.79h2.65a3.18,3.18,0,0,1,2,.53,1.86,1.86,0,0,1,.69,1.58,1.72,1.72,0,0,1-.29,1,1.82,1.82,0,0,1-.84.66,1.72,1.72,0,0,1,1,.65,1.86,1.86,0,0,1,.34,1.14,2.06,2.06,0,0,1-.7,1.68,3,3,0,0,1-2,.59Zm1.35-4.51h1.31a1.51,1.51,0,0,0,1-.29,1,1,0,0,0,.36-.81,1,1,0,0,0-.33-.83,1.6,1.6,0,0,0-1-.26h-1.3Zm0,1v2.44h1.49a1.45,1.45,0,0,0,1-.32,1.25,1.25,0,0,0-.88-2.12Z"/><path class="cls-1" d="M470.75,252a2,2,0,0,1-1.61.68,1.8,1.8,0,0,1-1.42-.55,2.37,2.37,0,0,1-.48-1.6v-3.75h1.29v3.74c0,.73.31,1.1.91,1.1a1.28,1.28,0,0,0,1.27-.68v-4.16H472v5.79h-1.21Z"/><path class="cls-1" d="M476.54,251a.61.61,0,0,0-.28-.53,3,3,0,0,0-.95-.32,4.89,4.89,0,0,1-1.1-.36,1.47,1.47,0,0,1-1-1.36,1.55,1.55,0,0,1,.62-1.26,2.86,2.86,0,0,1,3.26,0,1.61,1.61,0,0,1,.64,1.33h-1.29a.8.8,0,0,0-.28-.62,1,1,0,0,0-.73-.25,1.16,1.16,0,0,0-.7.19.64.64,0,0,0-.27.53.55.55,0,0,0,.25.47,3.51,3.51,0,0,0,1,.33,4.87,4.87,0,0,1,1.2.41,1.61,1.61,0,0,1,.64.56,1.41,1.41,0,0,1,.21.79,1.49,1.49,0,0,1-.64,1.26,2.69,2.69,0,0,1-1.69.49,3,3,0,0,1-1.26-.26,2.09,2.09,0,0,1-.86-.71,1.71,1.71,0,0,1-.31-1h1.26a1,1,0,0,0,.34.71,1.4,1.4,0,0,0,.85.24,1.27,1.27,0,0,0,.77-.19A.6.6,0,0,0,476.54,251Z"/><path d="M425.71,221.51a2.15,2.15,0,0,1-.33,1.17,2.28,2.28,0,0,1-.91.8,2.6,2.6,0,0,1,1.06.89,2.29,2.29,0,0,1,.38,1.28,2.37,2.37,0,0,1-.79,1.87,3.59,3.59,0,0,1-4.23,0,2.35,2.35,0,0,1-.79-1.87,2.29,2.29,0,0,1,.37-1.29,2.56,2.56,0,0,1,1.06-.88,2.25,2.25,0,0,1-.9-.8,2.15,2.15,0,0,1-.33-1.17,2.3,2.3,0,0,1,.73-1.81,3.25,3.25,0,0,1,4,0A2.3,2.3,0,0,1,425.71,221.51Zm-1.28,4.07a1.48,1.48,0,0,0-.39-1.07,1.36,1.36,0,0,0-1-.41,1.38,1.38,0,0,0-1,.4,1.53,1.53,0,0,0-.38,1.08,1.43,1.43,0,0,0,.38,1,1.61,1.61,0,0,0,2.09,0A1.45,1.45,0,0,0,424.43,225.58Zm-.19-4a1.36,1.36,0,0,0-.34-1,1.14,1.14,0,0,0-.9-.38,1.15,1.15,0,0,0-.89.36,1.62,1.62,0,0,0,0,2,1.3,1.3,0,0,0,1.8,0A1.4,1.4,0,0,0,424.24,221.56Z"/><path d="M433,224.32a5,5,0,0,1-.71,2.91,2.52,2.52,0,0,1-2.18,1,2.58,2.58,0,0,1-2.17-1,4.8,4.8,0,0,1-.75-2.83v-1.55a4.81,4.81,0,0,1,.72-2.89,3,3,0,0,1,4.36,0,4.68,4.68,0,0,1,.73,2.82Zm-1.48-1.67a3.78,3.78,0,0,0-.34-1.84,1.29,1.29,0,0,0-2.15,0,3.46,3.46,0,0,0-.36,1.73v2a4,4,0,0,0,.35,1.87,1.27,1.27,0,0,0,2.14,0,3.62,3.62,0,0,0,.36-1.78Z"/><path d="M438.91,221.45l0,.69a2.35,2.35,0,0,1,1.9-.82,1.82,1.82,0,0,1,1.81,1,2.33,2.33,0,0,1,2-1,2.08,2.08,0,0,1,1.63.61,2.66,2.66,0,0,1,.54,1.79v4.37h-1.48v-4.32a1.32,1.32,0,0,0-.27-.93,1.19,1.19,0,0,0-.91-.3,1.26,1.26,0,0,0-.83.28,1.41,1.41,0,0,0-.44.71v4.56h-1.48v-4.37a1.06,1.06,0,0,0-1.19-1.18,1.32,1.32,0,0,0-1.26.73v4.82h-1.48v-6.64Z"/><path d="M448.38,219.72a.8.8,0,0,1,.21-.57.83.83,0,0,1,.62-.23.81.81,0,0,1,.62.23.77.77,0,0,1,.22.57.75.75,0,0,1-.22.56.81.81,0,0,1-.62.23.83.83,0,0,1-.62-.23A.78.78,0,0,1,448.38,219.72Zm1.57,8.37h-1.48v-6.64H450Z"/><path d="M452.93,221.45l.05.76a2.37,2.37,0,0,1,1.92-.89c1.37,0,2.07.79,2.09,2.38v4.39h-1.48v-4.31a1.36,1.36,0,0,0-.27-.93,1.15,1.15,0,0,0-.89-.31,1.43,1.43,0,0,0-1.33.82v4.73h-1.48v-6.64Z"/><path d="M462.2,226.28a.67.67,0,0,0-.33-.6,3.31,3.31,0,0,0-1.08-.37,5.48,5.48,0,0,1-1.26-.41,1.69,1.69,0,0,1-1.11-1.56,1.76,1.76,0,0,1,.72-1.44,2.81,2.81,0,0,1,1.83-.58,3,3,0,0,1,1.91.59,1.89,1.89,0,0,1,.73,1.53h-1.48a.91.91,0,0,0-.32-.71,1.16,1.16,0,0,0-.84-.29,1.33,1.33,0,0,0-.8.23.72.72,0,0,0-.31.6.62.62,0,0,0,.29.54,3.9,3.9,0,0,0,1.16.38,5.87,5.87,0,0,1,1.37.46,1.93,1.93,0,0,1,.73.64,1.67,1.67,0,0,1,.24.91,1.76,1.76,0,0,1-.73,1.46,3.13,3.13,0,0,1-1.93.55,3.47,3.47,0,0,1-1.45-.29,2.49,2.49,0,0,1-1-.81,2,2,0,0,1-.35-1.12h1.44a1.06,1.06,0,0,0,.39.82,1.55,1.55,0,0,0,1,.28,1.48,1.48,0,0,0,.89-.22A.68.68,0,0,0,462.2,226.28Z"/><path d="M467.77,224.71a3.86,3.86,0,0,1,.39-1.76,2.71,2.71,0,0,1,1.08-1.21,3,3,0,0,1,1.59-.42,2.88,2.88,0,0,1,2.17.87,3.46,3.46,0,0,1,.9,2.29v.35a4,4,0,0,1-.37,1.76,2.78,2.78,0,0,1-1.07,1.2,3.09,3.09,0,0,1-1.61.42,2.86,2.86,0,0,1-2.24-.93,3.62,3.62,0,0,1-.84-2.5Zm1.48.12a2.63,2.63,0,0,0,.43,1.61,1.45,1.45,0,0,0,2.33,0,3,3,0,0,0,.42-1.72,2.62,2.62,0,0,0-.43-1.6,1.39,1.39,0,0,0-1.17-.59,1.36,1.36,0,0,0-1.15.58A3,3,0,0,0,469.25,224.83Z"/><path d="M476.53,221.45l0,.76a2.38,2.38,0,0,1,1.92-.89c1.38,0,2.07.79,2.1,2.38v4.39h-1.48v-4.31a1.36,1.36,0,0,0-.27-.93,1.15,1.15,0,0,0-.89-.31,1.42,1.42,0,0,0-1.33.82v4.73h-1.48v-6.64Z"/><line class="cls-4" x1="450.4" y1="190.74" x2="450.4" y2="205.83"/><polygon class="cls-5" points="443.34 202.06 457.46 202.06 449.97 209.6 443.34 202.06"/><path class="cls-3" d="M399.43,158.67a3.58,3.58,0,0,1-1.17,2.53,4.13,4.13,0,0,1-2.79.91,3.67,3.67,0,0,1-3-1.28,5.27,5.27,0,0,1-1.09-3.53v-.6a6,6,0,0,1,.5-2.52,3.82,3.82,0,0,1,1.43-1.68,4.46,4.46,0,0,1,4.91.34,3.81,3.81,0,0,1,1.2,2.58h-2a2,2,0,0,0-.53-1.39,1.93,1.93,0,0,0-1.39-.43,1.73,1.73,0,0,0-1.52.73,4.21,4.21,0,0,0-.51,2.27v.75a4.44,4.44,0,0,0,.48,2.35,1.68,1.68,0,0,0,1.53.75,1.69,1.69,0,0,0,1.93-1.78Z"/><path class="cls-3" d="M408.77,162h-2v-4.25h-3.95V162h-2v-9.92h2v4h3.95v-4h2Z"/><path class="cls-3" d="M418,152.06v6.53a3.34,3.34,0,0,1-1,2.58,3.87,3.87,0,0,1-2.76.94,3.94,3.94,0,0,1-2.74-.91,3.33,3.33,0,0,1-1-2.53v-6.61h2v6.55a1.9,1.9,0,0,0,.46,1.42,1.81,1.81,0,0,0,1.28.44c1.14,0,1.72-.6,1.74-1.81v-6.6Z"/><path class="cls-3" d="M419.66,162v-9.92h3.45a4.53,4.53,0,0,1,2.72.69,2.39,2.39,0,0,1,.92,2,2.24,2.24,0,0,1-.37,1.28,2.13,2.13,0,0,1-1,.81,2.09,2.09,0,0,1,1.19.78,2.26,2.26,0,0,1,.44,1.41,2.64,2.64,0,0,1-.91,2.17,4.06,4.06,0,0,1-2.58.75Zm2-5.77h1.5c1,0,1.53-.43,1.53-1.23a1.17,1.17,0,0,0-.38-1,2,2,0,0,0-1.23-.3h-1.42Zm0,1.45v2.68h1.74a1.69,1.69,0,0,0,1.12-.35,1.2,1.2,0,0,0,.4-1,1.24,1.24,0,0,0-1.4-1.38Z"/><path class="cls-3" d="M436,152.06v6.53a3.37,3.37,0,0,1-1,2.58,4.55,4.55,0,0,1-5.5,0,3.33,3.33,0,0,1-1-2.53v-6.61h2v6.55a1.94,1.94,0,0,0,.46,1.42,1.82,1.82,0,0,0,1.29.44c1.14,0,1.72-.6,1.73-1.81v-6.6Z"/><path class="cls-3" d="M448.79,158.67a3.58,3.58,0,0,1-1.17,2.53,4.13,4.13,0,0,1-2.79.91,3.67,3.67,0,0,1-3-1.28,5.32,5.32,0,0,1-1.09-3.53v-.6a6,6,0,0,1,.5-2.52,3.82,3.82,0,0,1,1.43-1.68,4.06,4.06,0,0,1,2.16-.58,4,4,0,0,1,2.75.92,3.81,3.81,0,0,1,1.2,2.58h-2a2,2,0,0,0-.53-1.39,1.93,1.93,0,0,0-1.39-.43,1.7,1.7,0,0,0-1.51.73,4.11,4.11,0,0,0-.52,2.27v.75a4.44,4.44,0,0,0,.48,2.35,1.68,1.68,0,0,0,1.53.75,2,2,0,0,0,1.4-.44,1.93,1.93,0,0,0,.53-1.34Z"/><path class="cls-3" d="M456.05,157.68h-3.9v2.66h4.57V162h-6.6v-9.92h6.59v1.65h-4.56v2.37h3.9Z"/><path class="cls-3" d="M465.92,162h-2l-3.95-6.53V162h-2v-9.92h2l3.95,6.54v-6.54h2Z"/><path class="cls-3" d="M475.1,153.71h-3V162h-2v-8.27h-3v-1.65h8Z"/><path class="cls-3" d="M479.9,158.35h-1.62V162h-2v-9.92h3.65a4.11,4.11,0,0,1,2.69.78,2.69,2.69,0,0,1,.95,2.22,2.75,2.75,0,0,1-1.76,2.77l2.13,4v.1h-2.17Zm-1.62-1.66h1.64a1.66,1.66,0,0,0,1.18-.39,1.4,1.4,0,0,0,.42-1.08,1.49,1.49,0,0,0-.39-1.1,1.65,1.65,0,0,0-1.22-.41h-1.63Z"/><path class="cls-3" d="M490.65,159.93H487.1l-.68,2h-2.16l3.67-9.92h1.88l3.68,9.92h-2.16Zm-3-1.65h2.46l-1.23-3.71Z"/><path class="cls-3" d="M496.57,162h-2v-9.92h2Z"/><path class="cls-3" d="M502.09,158.35h-1.61V162h-2v-9.92h3.66a4.13,4.13,0,0,1,2.69.78,2.71,2.71,0,0,1,.94,2.22,3.08,3.08,0,0,1-.43,1.69,3,3,0,0,1-1.32,1.08l2.13,4v.1h-2.18Zm-1.61-1.66h1.63a1.69,1.69,0,0,0,1.19-.39,1.4,1.4,0,0,0,.42-1.08,1.5,1.5,0,0,0-.4-1.1,1.62,1.62,0,0,0-1.21-.41h-1.63Z"/><path class="cls-3" d="M370,178.72h-2V168.8h2Z"/><path class="cls-3" d="M379.84,178.72h-2l-3.95-6.52v6.52h-2V168.8h2l3.95,6.54V168.8h2Z"/><path class="cls-3" d="M389,170.46h-3v8.26h-2v-8.26h-3V168.8h8Z"/><path class="cls-3" d="M396.1,174.42h-3.9v2.66h4.57v1.64h-6.59V168.8h6.58v1.66H392.2v2.36h3.9Z"/><path class="cls-3" d="M401.61,175.09H400v3.63h-2V168.8h3.66a4.05,4.05,0,0,1,2.69.79,2.71,2.71,0,0,1,.95,2.21,3.05,3.05,0,0,1-.44,1.69,2.87,2.87,0,0,1-1.32,1.08l2.13,4.06v.09h-2.18ZM400,173.44h1.64a1.67,1.67,0,0,0,1.18-.4,1.4,1.4,0,0,0,.42-1.08,1.52,1.52,0,0,0-.39-1.1,1.65,1.65,0,0,0-1.22-.4H400Z"/><path class="cls-3" d="M414.81,178.72h-2l-3.95-6.52v6.52h-2V168.8h2l4,6.54V168.8h2Z"/><path class="cls-3" d="M422.14,176.68h-3.56l-.68,2h-2.15l3.66-9.92h1.88l3.69,9.92h-2.16Zm-3-1.66h2.46l-1.24-3.71Z"/><path class="cls-3" d="M432.5,170.46h-3v8.26h-2v-8.26h-3V168.8h8Z"/><path class="cls-3" d="M435.81,178.72h-2V168.8h2Z"/><path class="cls-3" d="M445.78,174a6,6,0,0,1-.52,2.57,3.88,3.88,0,0,1-1.47,1.7,4,4,0,0,1-2.19.6,4.13,4.13,0,0,1-2.19-.59,3.91,3.91,0,0,1-1.48-1.7,5.78,5.78,0,0,1-.54-2.53v-.49a6,6,0,0,1,.53-2.58,3.94,3.94,0,0,1,1.48-1.71,4.34,4.34,0,0,1,4.37,0,3.94,3.94,0,0,1,1.48,1.71,6,6,0,0,1,.53,2.57Zm-2.06-.45a4.19,4.19,0,0,0-.55-2.37,1.81,1.81,0,0,0-1.59-.81,1.78,1.78,0,0,0-1.57.8,4.08,4.08,0,0,0-.56,2.34V174a4.21,4.21,0,0,0,.55,2.35,1.94,1.94,0,0,0,3.17,0,4.2,4.2,0,0,0,.55-2.35Z"/><path class="cls-3" d="M455.26,178.72h-2l-4-6.52v6.52h-2V168.8h2l4,6.54V168.8h2Z"/><path class="cls-3" d="M462.59,176.68H459l-.68,2H456.2l3.66-9.92h1.88l3.69,9.92h-2.16Zm-3-1.66H462l-1.24-3.71Z"/><path class="cls-3" d="M468.37,177.08h4.31v1.64h-6.33V168.8h2Z"/><path class="cls-3" d="M482.85,176.68H479.3l-.68,2h-2.16l3.67-9.92H482l3.68,9.92h-2.16Zm-3-1.66h2.46l-1.23-3.71Z"/><path class="cls-3" d="M488.77,178.72h-2V168.8h2Z"/><path class="cls-3" d="M494.29,175.09h-1.61v3.63h-2V168.8h3.66a4.07,4.07,0,0,1,2.69.79,2.71,2.71,0,0,1,.94,2.21,3.05,3.05,0,0,1-.43,1.69,2.87,2.87,0,0,1-1.32,1.08l2.13,4.06v.09h-2.18Zm-1.61-1.65h1.63a1.69,1.69,0,0,0,1.19-.4,1.4,1.4,0,0,0,.42-1.08,1.53,1.53,0,0,0-.4-1.1,1.62,1.62,0,0,0-1.21-.4h-1.63Z"/><path class="cls-3" d="M501.51,175.23v3.49h-2V168.8h3.84a4.44,4.44,0,0,1,1.95.41,3,3,0,0,1,1.29,1.16,3.29,3.29,0,0,1,.45,1.72,2.88,2.88,0,0,1-1,2.3,4.1,4.1,0,0,1-2.74.84Zm0-1.66h1.82a1.78,1.78,0,0,0,1.22-.38,1.37,1.37,0,0,0,.43-1.09,1.66,1.66,0,0,0-.43-1.18,1.59,1.59,0,0,0-1.18-.46h-1.86Z"/><path class="cls-3" d="M516.5,174a6.11,6.11,0,0,1-.51,2.57,3.88,3.88,0,0,1-1.47,1.7,4,4,0,0,1-2.19.6,4.13,4.13,0,0,1-2.19-.59,4,4,0,0,1-1.49-1.7,5.78,5.78,0,0,1-.53-2.53v-.49a6,6,0,0,1,.52-2.58,4.16,4.16,0,0,1,5.86-1.71A3.94,3.94,0,0,1,516,171a6,6,0,0,1,.52,2.57Zm-2-.45a4.19,4.19,0,0,0-.56-2.37,1.94,1.94,0,0,0-3.15,0,4.08,4.08,0,0,0-.56,2.34V174a4.21,4.21,0,0,0,.55,2.35,1.8,1.8,0,0,0,1.6.84,1.76,1.76,0,0,0,1.56-.81,4.2,4.2,0,0,0,.56-2.35Z"/><path class="cls-3" d="M521.62,175.09H520v3.63h-2V168.8h3.66a4.07,4.07,0,0,1,2.69.79,2.71,2.71,0,0,1,.94,2.21,3.05,3.05,0,0,1-.43,1.69,2.87,2.87,0,0,1-1.32,1.08l2.13,4.06v.09h-2.18ZM520,173.44h1.63a1.69,1.69,0,0,0,1.19-.4,1.4,1.4,0,0,0,.42-1.08,1.53,1.53,0,0,0-.4-1.1,1.62,1.62,0,0,0-1.21-.4H520Z"/><path class="cls-3" d="M533.89,170.46h-3v8.26h-2v-8.26h-3V168.8h8Z"/><line class="cls-4" x1="450.4" y1="114.03" x2="450.4" y2="129.12"/><polygon class="cls-5" points="443.34 125.35 457.46 125.35 449.97 132.89 443.34 125.35"/><path d="M394.45,99.26v1.18h-.17a2.55,2.55,0,0,0-2.73,2.45,2.26,2.26,0,0,1,1.73-.71,2.15,2.15,0,0,1,1.77.79,3.14,3.14,0,0,1,.64,2,3,3,0,0,1-.75,2.1,2.6,2.6,0,0,1-2,.8,2.55,2.55,0,0,1-2.05-.94,3.72,3.72,0,0,1-.78-2.46V104a5.22,5.22,0,0,1,1.08-3.5,3.84,3.84,0,0,1,3.11-1.27Zm-1.51,4.06a1.52,1.52,0,0,0-.85.26,1.48,1.48,0,0,0-.56.7v.44a2.57,2.57,0,0,0,.39,1.5,1.2,1.2,0,0,0,1,.56,1.17,1.17,0,0,0,1-.48,2,2,0,0,0,.37-1.24,2,2,0,0,0-.37-1.25A1.18,1.18,0,0,0,392.94,103.32Z"/><path d="M402.32,104.23a4.68,4.68,0,0,1-.68,2.76,2.79,2.79,0,0,1-4.14,0,4.52,4.52,0,0,1-.71-2.69v-1.47a4.62,4.62,0,0,1,.68-2.75,2.84,2.84,0,0,1,4.15,0,4.46,4.46,0,0,1,.7,2.67Zm-1.41-1.59a3.58,3.58,0,0,0-.33-1.76,1.23,1.23,0,0,0-2,0,3.31,3.31,0,0,0-.34,1.65v1.93a3.68,3.68,0,0,0,.33,1.77,1.2,1.2,0,0,0,2,0,3.57,3.57,0,0,0,.34-1.69Z"/><path d="M406.39,104.76h-3.05v-1.14h3.05Z"/><path d="M413.07,100.09l-3.37,7.72h-1.48l3.37-7.37h-4.36V99.3h5.84Z"/><path d="M419.7,104.23A4.61,4.61,0,0,1,419,107a2.39,2.39,0,0,1-2.07.93,2.42,2.42,0,0,1-2.06-.91,4.45,4.45,0,0,1-.71-2.69v-1.47a4.62,4.62,0,0,1,.68-2.75,2.84,2.84,0,0,1,4.15,0,4.46,4.46,0,0,1,.69,2.67Zm-1.4-1.59a3.58,3.58,0,0,0-.33-1.76,1.23,1.23,0,0,0-2,0,3.4,3.4,0,0,0-.35,1.65v1.93a3.68,3.68,0,0,0,.33,1.77,1.12,1.12,0,0,0,1,.59,1.08,1.08,0,0,0,1-.54,3.56,3.56,0,0,0,.35-1.69Z"/><path d="M425.32,101.49l0,.66a2.24,2.24,0,0,1,1.81-.78,1.72,1.72,0,0,1,1.72,1,2.22,2.22,0,0,1,1.92-1,1.94,1.94,0,0,1,1.55.58,2.54,2.54,0,0,1,.52,1.7v4.16h-1.41v-4.12a1.28,1.28,0,0,0-.26-.88,1.15,1.15,0,0,0-.86-.28,1.17,1.17,0,0,0-.79.26,1.45,1.45,0,0,0-.43.68v4.34h-1.41v-4.16a1,1,0,0,0-1.13-1.12,1.24,1.24,0,0,0-1.2.7v4.58H424v-6.32Z"/><path d="M434.33,99.85a.71.71,0,0,1,.79-.76.79.79,0,0,1,.59.21.77.77,0,0,1,.21.55.72.72,0,0,1-.21.53.79.79,0,0,1-.59.21.8.8,0,0,1-.59-.21A.76.76,0,0,1,434.33,99.85Zm1.49,8h-1.41v-6.32h1.41Z"/><path d="M438.66,101.49l0,.73a2.26,2.26,0,0,1,1.83-.85c1.31,0,2,.75,2,2.26v4.18h-1.41v-4.1a1.31,1.31,0,0,0-.25-.89,1.12,1.12,0,0,0-.85-.29,1.36,1.36,0,0,0-1.27.78v4.5h-1.4v-6.32Z"/><path d="M447.47,106.09a.64.64,0,0,0-.31-.58,3.25,3.25,0,0,0-1-.35,5,5,0,0,1-1.2-.39,1.6,1.6,0,0,1-1.05-1.49,1.69,1.69,0,0,1,.68-1.36,2.69,2.69,0,0,1,1.74-.55,2.82,2.82,0,0,1,1.82.56,1.78,1.78,0,0,1,.69,1.45H447.4a.9.9,0,0,0-.3-.68,1.16,1.16,0,0,0-.8-.27,1.17,1.17,0,0,0-.75.22.68.68,0,0,0-.3.58.59.59,0,0,0,.27.51,3.8,3.8,0,0,0,1.11.36,5.14,5.14,0,0,1,1.3.44,1.84,1.84,0,0,1,.7.61,1.58,1.58,0,0,1,.23.86,1.66,1.66,0,0,1-.7,1.38,2.93,2.93,0,0,1-1.84.53,3.17,3.17,0,0,1-1.37-.28,2.19,2.19,0,0,1-.94-.77,1.81,1.81,0,0,1-.34-1.06H445a1,1,0,0,0,.38.78,1.44,1.44,0,0,0,.92.27,1.41,1.41,0,0,0,.84-.21A.66.66,0,0,0,447.47,106.09Z"/><path d="M452.78,104.59a3.83,3.83,0,0,1,.36-1.68,2.71,2.71,0,0,1,1-1.14,2.82,2.82,0,0,1,1.51-.4,2.74,2.74,0,0,1,2.07.82,3.28,3.28,0,0,1,.85,2.19v.33a3.76,3.76,0,0,1-.36,1.67,2.69,2.69,0,0,1-1,1.14,2.86,2.86,0,0,1-1.53.4,2.69,2.69,0,0,1-2.13-.89,3.41,3.41,0,0,1-.79-2.37Zm1.4.12a2.62,2.62,0,0,0,.4,1.53,1.4,1.4,0,0,0,2.23,0,2.86,2.86,0,0,0,.39-1.64,2.54,2.54,0,0,0-.4-1.52,1.33,1.33,0,0,0-1.12-.56,1.27,1.27,0,0,0-1.09.55A2.79,2.79,0,0,0,454.18,104.71Z"/><path d="M461.1,101.49l0,.73a2.26,2.26,0,0,1,1.83-.85c1.31,0,2,.75,2,2.26v4.18h-1.4v-4.1a1.31,1.31,0,0,0-.26-.89,1.09,1.09,0,0,0-.85-.29,1.37,1.37,0,0,0-1.27.78v4.5h-1.4v-6.32Z"/><path d="M473.1,107.81a2.18,2.18,0,0,1-.16-.59,2.37,2.37,0,0,1-3.19.16,1.73,1.73,0,0,1-.6-1.34,1.79,1.79,0,0,1,.75-1.55A3.56,3.56,0,0,1,472,104h.86v-.42a1.13,1.13,0,0,0-.27-.79,1.1,1.1,0,0,0-.83-.29,1.26,1.26,0,0,0-.79.24.76.76,0,0,0-.3.62h-1.41a1.55,1.55,0,0,1,.34-1,2.23,2.23,0,0,1,.93-.71,3.26,3.26,0,0,1,1.31-.26,2.63,2.63,0,0,1,1.76.56,2,2,0,0,1,.67,1.57v2.85a3.25,3.25,0,0,0,.24,1.36v.1Zm-1.55-1a1.57,1.57,0,0,0,.79-.2,1.39,1.39,0,0,0,.55-.55v-1.19h-.76a2.06,2.06,0,0,0-1.17.27.9.9,0,0,0-.4.78.83.83,0,0,0,.27.65A1,1,0,0,0,471.55,106.78Z"/><path d="M475.78,99.85a.71.71,0,0,1,.79-.76.79.79,0,0,1,.59.21.77.77,0,0,1,.21.55.72.72,0,0,1-.21.53.79.79,0,0,1-.59.21.8.8,0,0,1-.59-.21A.76.76,0,0,1,475.78,99.85Zm1.49,8h-1.4v-6.32h1.4Z"/><path d="M482.09,102.78a3.64,3.64,0,0,0-.57,0,1.31,1.31,0,0,0-1.31.74v4.33H478.8v-6.32h1.35l0,.7a1.58,1.58,0,0,1,1.42-.82,1.46,1.46,0,0,1,.5.08Z"/><path d="M488.47,104.71a3.78,3.78,0,0,1-.66,2.34,2.28,2.28,0,0,1-3.42.19v3H483v-8.75h1.29l.06.64a2.07,2.07,0,0,1,1.69-.76,2.16,2.16,0,0,1,1.8.86,3.92,3.92,0,0,1,.65,2.39Zm-1.4-.12a2.64,2.64,0,0,0-.38-1.5,1.19,1.19,0,0,0-1.06-.56,1.29,1.29,0,0,0-1.24.72v2.8a1.3,1.3,0,0,0,1.25.74,1.19,1.19,0,0,0,1.05-.55A2.91,2.91,0,0,0,487.07,104.59Z"/><path d="M491.16,107.81h-1.41v-9h1.41Z"/><path d="M496.44,107.81a2.18,2.18,0,0,1-.16-.59,2.37,2.37,0,0,1-3.19.16,1.73,1.73,0,0,1-.6-1.34,1.79,1.79,0,0,1,.75-1.55,3.56,3.56,0,0,1,2.13-.54h.86v-.42a1.13,1.13,0,0,0-.27-.79,1.1,1.1,0,0,0-.83-.29,1.26,1.26,0,0,0-.79.24.76.76,0,0,0-.3.62h-1.41a1.55,1.55,0,0,1,.34-1,2.23,2.23,0,0,1,.93-.71,3.26,3.26,0,0,1,1.31-.26,2.63,2.63,0,0,1,1.76.56,2,2,0,0,1,.67,1.57v2.85a3.25,3.25,0,0,0,.24,1.36v.1Zm-1.55-1a1.57,1.57,0,0,0,.79-.2,1.39,1.39,0,0,0,.55-.55v-1.19h-.76a2.06,2.06,0,0,0-1.17.27.9.9,0,0,0-.4.78.83.83,0,0,0,.27.65A1,1,0,0,0,494.89,106.78Z"/><path d="M500.42,101.49l0,.73a2.26,2.26,0,0,1,1.83-.85c1.31,0,2,.75,2,2.26v4.18h-1.41v-4.1a1.31,1.31,0,0,0-.25-.89,1.12,1.12,0,0,0-.85-.29,1.36,1.36,0,0,0-1.27.78v4.5h-1.4v-6.32Z"/><path d="M508.48,107.92a2.88,2.88,0,0,1-2.17-.85,3.06,3.06,0,0,1-.83-2.26v-.18a3.85,3.85,0,0,1,.36-1.69,2.81,2.81,0,0,1,1-1.16,2.7,2.7,0,0,1,1.46-.41,2.46,2.46,0,0,1,2,.82,3.54,3.54,0,0,1,.69,2.33v.58H506.9a1.84,1.84,0,0,0,.52,1.23,1.51,1.51,0,0,0,1.14.46,1.9,1.9,0,0,0,1.58-.79l.76.73a2.61,2.61,0,0,1-1,.88A3.11,3.11,0,0,1,508.48,107.92Zm-.17-5.41a1.2,1.2,0,0,0-.94.41,2.21,2.21,0,0,0-.45,1.14h2.68V104a1.76,1.76,0,0,0-.37-1.08A1.19,1.19,0,0,0,508.31,102.51Z"/><path class="cls-3" d="M343.57,82.46h-2V78.2h-4v4.26h-2V72.54h2v4h4v-4h2Z"/><path class="cls-3" d="M351,80.41h-3.56l-.67,2h-2.16l3.67-9.92h1.88l3.68,9.92H351.7Zm-3-1.65h2.46L349.24,75Z"/><path class="cls-3" d="M362.79,82.46h-2l-3.95-6.53v6.53h-2V72.54h2l3.95,6.54V72.54h2Z"/><path class="cls-3" d="M370.48,78.16h-3.89v2.66h4.57v1.64h-6.6V72.54h6.58v1.65h-4.55v2.37h3.89Z"/><path class="cls-3" d="M372.35,82.46V72.54h3a4.5,4.5,0,0,1,2.32.59,4.09,4.09,0,0,1,1.6,1.67,5.26,5.26,0,0,1,.57,2.47v.46a5.31,5.31,0,0,1-.56,2.46,4.13,4.13,0,0,1-1.59,1.67,4.74,4.74,0,0,1-2.32.6Zm2-8.27v6.63h1a2.21,2.21,0,0,0,1.82-.79,3.62,3.62,0,0,0,.64-2.24v-.52a3.67,3.67,0,0,0-.62-2.3,2.21,2.21,0,0,0-1.82-.78Z"/><path class="cls-3" d="M386.91,80.41h-3.56l-.68,2h-2.16l3.67-9.92h1.88l3.69,9.92h-2.16Zm-3-1.65h2.46L385.12,75Z"/><path class="cls-3" d="M399.67,80.41h-3.56l-.67,2h-2.16L397,72.54h1.88l3.68,9.92h-2.16Zm-3-1.65h2.46L397.89,75Z"/><path class="cls-3" d="M405.59,82.46h-2V72.54h2Z"/><path class="cls-3" d="M411.11,78.82H409.5v3.64h-2V72.54h3.66a4.15,4.15,0,0,1,2.69.78,2.71,2.71,0,0,1,.94,2.21,3.09,3.09,0,0,1-.43,1.7A3,3,0,0,1,413,78.31l2.13,4v.1H413Zm-1.61-1.65h1.63a1.69,1.69,0,0,0,1.19-.39,1.4,1.4,0,0,0,.41-1.08,1.53,1.53,0,0,0-.39-1.11,1.66,1.66,0,0,0-1.21-.4H409.5Z"/><path class="cls-3" d="M418.33,79v3.5h-2V72.54h3.84a4.31,4.31,0,0,1,2,.41,3,3,0,0,1,1.29,1.16,3.26,3.26,0,0,1,.45,1.71,2.86,2.86,0,0,1-1,2.3,4.1,4.1,0,0,1-2.74.84Zm0-1.65h1.82a1.74,1.74,0,0,0,1.22-.39,1.39,1.39,0,0,0,.43-1.09,1.64,1.64,0,0,0-.43-1.17,1.59,1.59,0,0,0-1.18-.47h-1.86Z"/><path class="cls-3" d="M433.32,77.72a6.08,6.08,0,0,1-.51,2.57,3.83,3.83,0,0,1-1.47,1.7A4.33,4.33,0,0,1,427,82a4,4,0,0,1-1.49-1.69,5.84,5.84,0,0,1-.53-2.53v-.49a6,6,0,0,1,.52-2.58A3.89,3.89,0,0,1,426.94,73a4.3,4.3,0,0,1,4.38,0,3.83,3.83,0,0,1,1.48,1.71,6,6,0,0,1,.52,2.57Zm-2.05-.45a4.28,4.28,0,0,0-.55-2.37,2,2,0,0,0-3.16,0,4.12,4.12,0,0,0-.56,2.35v.48a4.27,4.27,0,0,0,.55,2.36,1.94,1.94,0,0,0,3.17,0,4.31,4.31,0,0,0,.55-2.35Z"/><path class="cls-3" d="M438.44,78.82h-1.61v3.64h-2V72.54h3.66a4.13,4.13,0,0,1,2.69.78,2.71,2.71,0,0,1,.94,2.21,3.09,3.09,0,0,1-.43,1.7,3,3,0,0,1-1.32,1.08l2.13,4v.1h-2.18Zm-1.61-1.65h1.63a1.69,1.69,0,0,0,1.19-.39,1.4,1.4,0,0,0,.42-1.08,1.54,1.54,0,0,0-.4-1.11,1.66,1.66,0,0,0-1.21-.4h-1.63Z"/><path class="cls-3" d="M450.71,74.19h-3v8.27h-2V74.19h-3V72.54h8Z"/><path class="cls-3" d="M452.35,83.31H450.9l3.62-10.77H456Z"/><path class="cls-3" d="M465,82.46h-2l-3.94-6.53v6.53h-2V72.54h2L463,79.08V72.54h2Z"/><path class="cls-3" d="M472.37,80.41h-3.55l-.68,2H466l3.67-9.92h1.88l3.68,9.92h-2.15Zm-3-1.65h2.47L470.59,75Z"/><path class="cls-3" d="M479.78,78.82h-1.62v3.64h-2V72.54h3.66a4.13,4.13,0,0,1,2.69.78,2.71,2.71,0,0,1,.95,2.21,3.09,3.09,0,0,1-.44,1.7,3,3,0,0,1-1.32,1.08l2.13,4v.1h-2.18Zm-1.62-1.65h1.64a1.66,1.66,0,0,0,1.18-.39,1.4,1.4,0,0,0,.42-1.08,1.53,1.53,0,0,0-.39-1.11,1.69,1.69,0,0,0-1.22-.4h-1.63Z"/><path class="cls-3" d="M487.13,82.46h-2V72.54h2Z"/><path class="cls-3" d="M496.42,74.19h-3v8.27h-2V74.19h-3V72.54h8Z"/><path class="cls-3" d="M502.32,80.41h-3.56l-.67,2h-2.16l3.67-9.92h1.88l3.68,9.92H503Zm-3-1.65h2.46L500.54,75Z"/><path class="cls-3" d="M515.09,80.41h-3.56l-.68,2H508.7l3.66-9.92h1.88l3.69,9.92h-2.16Zm-3-1.65h2.46L513.3,75Z"/><path class="cls-3" d="M521,82.46h-2V72.54h2Z"/><path class="cls-3" d="M526.53,78.82h-1.62v3.64h-2V72.54h3.66a4.11,4.11,0,0,1,2.69.78,2.71,2.71,0,0,1,.95,2.21,3.09,3.09,0,0,1-.44,1.7,3,3,0,0,1-1.32,1.08l2.13,4v.1h-2.18Zm-1.62-1.65h1.64a1.66,1.66,0,0,0,1.18-.39,1.4,1.4,0,0,0,.42-1.08,1.53,1.53,0,0,0-.39-1.11,1.69,1.69,0,0,0-1.22-.4h-1.63Z"/><path class="cls-3" d="M533.75,79v3.5h-2V72.54h3.84a4.31,4.31,0,0,1,2,.41,3,3,0,0,1,1.3,1.16,3.26,3.26,0,0,1,.45,1.71,2.86,2.86,0,0,1-1,2.3,4.1,4.1,0,0,1-2.74.84Zm0-1.65h1.81a1.75,1.75,0,0,0,1.23-.39,1.38,1.38,0,0,0,.42-1.09,1.63,1.63,0,0,0-.42-1.17,1.61,1.61,0,0,0-1.18-.47h-1.86Z"/><path class="cls-3" d="M548.74,77.72a6.08,6.08,0,0,1-.51,2.57,4,4,0,0,1-1.47,1.7,4.33,4.33,0,0,1-4.38,0,3.91,3.91,0,0,1-1.49-1.69,5.84,5.84,0,0,1-.53-2.53v-.49a6,6,0,0,1,.52-2.58A3.83,3.83,0,0,1,542.36,73a4.3,4.3,0,0,1,4.38,0,3.89,3.89,0,0,1,1.48,1.71,6,6,0,0,1,.52,2.57Zm-2.06-.45a4.19,4.19,0,0,0-.55-2.37,2,2,0,0,0-3.16,0,4.2,4.2,0,0,0-.56,2.35v.48a4.27,4.27,0,0,0,.56,2.36,1.93,1.93,0,0,0,3.16,0,4.14,4.14,0,0,0,.55-2.35Z"/><path class="cls-3" d="M553.86,78.82h-1.62v3.64h-2V72.54h3.65a4.11,4.11,0,0,1,2.69.78,2.68,2.68,0,0,1,1,2.21,2.75,2.75,0,0,1-1.76,2.78l2.13,4v.1h-2.17Zm-1.62-1.65h1.64a1.66,1.66,0,0,0,1.18-.39,1.4,1.4,0,0,0,.42-1.08,1.53,1.53,0,0,0-.39-1.11,1.69,1.69,0,0,0-1.22-.4h-1.63Z"/><path class="cls-3" d="M566.13,74.19h-3v8.27h-2V74.19h-3V72.54h8Z"/></g><g id="column_1" data-name="column 1"><rect class="cls-6" x="0.29" y="63.73" width="199.68" height="414.98"/><path class="cls-3" d="M56,74.19H53v8.27H51V74.19H48V72.54h8Z"/><path class="cls-3" d="M65.06,77.72a6.08,6.08,0,0,1-.51,2.57A3.83,3.83,0,0,1,63.08,82a4.33,4.33,0,0,1-4.38,0,3.91,3.91,0,0,1-1.49-1.69,5.84,5.84,0,0,1-.53-2.53v-.49a6,6,0,0,1,.52-2.58A3.89,3.89,0,0,1,58.68,73a4.3,4.3,0,0,1,4.38,0,3.83,3.83,0,0,1,1.48,1.71,6,6,0,0,1,.52,2.57ZM63,77.27a4.19,4.19,0,0,0-.56-2.37,1.94,1.94,0,0,0-3.15,0,4.19,4.19,0,0,0-.57,2.35v.48a4.27,4.27,0,0,0,.56,2.36,1.93,1.93,0,0,0,3.16,0A4.22,4.22,0,0,0,63,77.76Z"/><path class="cls-3" d="M69.62,78.48l-1.05,1.14v2.84h-2V72.54h2V77l.89-1.23L72,72.54h2.49L71,77l3.59,5.51H72.15Z"/><path class="cls-3" d="M78.72,77l2-4.47H83l-3.23,6.32v3.6H77.69v-3.6l-3.23-6.32h2.23Z"/><path class="cls-3" d="M91.78,77.72a5.93,5.93,0,0,1-.52,2.57A3.83,3.83,0,0,1,89.79,82a4.31,4.31,0,0,1-4.37,0,3.91,3.91,0,0,1-1.49-1.69,6,6,0,0,1-.54-2.53v-.49a6,6,0,0,1,.53-2.58A3.83,3.83,0,0,1,85.4,73a4,4,0,0,1,2.19-.6,4,4,0,0,1,2.18.6,3.85,3.85,0,0,1,1.49,1.71,6.11,6.11,0,0,1,.52,2.57Zm-2.06-.45a4.19,4.19,0,0,0-.55-2.37,2,2,0,0,0-3.16,0,4.12,4.12,0,0,0-.56,2.35v.48A4.36,4.36,0,0,0,86,80.08a1.81,1.81,0,0,0,1.6.84,1.79,1.79,0,0,0,1.57-.81,4.23,4.23,0,0,0,.55-2.35Z"/><path class="cls-3" d="M101.81,79.85a1.07,1.07,0,0,0-.41-.89,5.59,5.59,0,0,0-1.46-.65,9.81,9.81,0,0,1-1.67-.68,2.75,2.75,0,0,1-1.68-2.46A2.41,2.41,0,0,1,97,73.74a3,3,0,0,1,1.29-1,5,5,0,0,1,1.89-.35,4.48,4.48,0,0,1,1.88.38,3.07,3.07,0,0,1,1.29,1.09,2.9,2.9,0,0,1,.45,1.6h-2a1.34,1.34,0,0,0-.42-1.06,1.78,1.78,0,0,0-1.2-.38,1.82,1.82,0,0,0-1.16.32,1,1,0,0,0-.41.83,1,1,0,0,0,.49.81,5.25,5.25,0,0,0,1.42.61,6.14,6.14,0,0,1,2.52,1.31,2.57,2.57,0,0,1,.79,1.93,2.4,2.4,0,0,1-1,2,4.23,4.23,0,0,1-2.61.73,5,5,0,0,1-2.07-.42A3.33,3.33,0,0,1,96.78,81a2.94,2.94,0,0,1-.49-1.69h2c0,1.09.65,1.64,2,1.64a1.87,1.87,0,0,0,1.13-.3A1,1,0,0,0,101.81,79.85Z"/><path class="cls-3" d="M112.63,74.19h-3v8.27h-2V74.19h-3V72.54h8Z"/><path class="cls-3" d="M118.53,80.41H115l-.67,2h-2.16l3.66-9.92h1.88l3.69,9.92h-2.16Zm-3-1.65H118L116.74,75Z"/><path class="cls-3" d="M128.89,74.19h-3v8.27h-2V74.19h-3V72.54h8Z"/><path class="cls-3" d="M132.2,82.46h-2V72.54h2Z"/><path class="cls-3" d="M142.17,77.72a5.93,5.93,0,0,1-.52,2.57,3.83,3.83,0,0,1-1.47,1.7,4,4,0,0,1-2.19.6,4,4,0,0,1-2.18-.59,3.84,3.84,0,0,1-1.49-1.69,6,6,0,0,1-.54-2.53v-.49a6,6,0,0,1,.53-2.58A3.83,3.83,0,0,1,135.79,73a4.28,4.28,0,0,1,4.37,0,3.83,3.83,0,0,1,1.48,1.71,6,6,0,0,1,.53,2.57Zm-2.06-.45a4.19,4.19,0,0,0-.55-2.37,2,2,0,0,0-3.16,0,4.12,4.12,0,0,0-.56,2.35v.48a4.27,4.27,0,0,0,.55,2.36,1.94,1.94,0,0,0,3.17,0,4.23,4.23,0,0,0,.55-2.35Z"/><path class="cls-3" d="M151.65,82.46h-2l-4-6.53v6.53h-2V72.54h2l4,6.54V72.54h2Z"/><path d="M62.24,107.81H56.56v-1l2.81-3.09a6.76,6.76,0,0,0,.87-1.14,1.89,1.89,0,0,0,.26-.92,1.42,1.42,0,0,0-.34-1,1.18,1.18,0,0,0-.91-.38,1.38,1.38,0,0,0-1.07.42,1.7,1.7,0,0,0-.37,1.16H56.4a2.82,2.82,0,0,1,.35-1.4,2.4,2.4,0,0,1,1-1,3.2,3.2,0,0,1,1.51-.34,2.83,2.83,0,0,1,1.94.62,2.17,2.17,0,0,1,.71,1.72,2.89,2.89,0,0,1-.36,1.33,7.57,7.57,0,0,1-1.17,1.59l-2.06,2.22h3.92Z"/><path d="M67.74,102.18a2.19,2.19,0,0,1,1.75-.81c1.33,0,2,.77,2,2.31v4.13H70.11v-4.08a1.25,1.25,0,0,0-.28-.93,1.14,1.14,0,0,0-.82-.27,1.35,1.35,0,0,0-1.27.76v4.52H66.33v-9h1.41Z"/><path d="M76.23,102.78a3.69,3.69,0,0,0-.58,0,1.29,1.29,0,0,0-1.3.74v4.33H72.94v-6.32h1.35l0,.7a1.58,1.58,0,0,1,1.41-.82,1.41,1.41,0,0,1,.5.08Z"/><path d="M80.63,106.09a.64.64,0,0,0-.31-.58,3.35,3.35,0,0,0-1-.35,5,5,0,0,1-1.2-.39,1.6,1.6,0,0,1-1-1.49,1.69,1.69,0,0,1,.68-1.36,2.69,2.69,0,0,1,1.74-.55,2.82,2.82,0,0,1,1.82.56,1.78,1.78,0,0,1,.69,1.45H80.56a.9.9,0,0,0-.3-.68,1.16,1.16,0,0,0-.8-.27,1.22,1.22,0,0,0-.76.22.69.69,0,0,0-.29.58.59.59,0,0,0,.27.51,3.8,3.8,0,0,0,1.11.36,5.14,5.14,0,0,1,1.3.44,1.84,1.84,0,0,1,.7.61A1.58,1.58,0,0,1,82,106a1.66,1.66,0,0,1-.7,1.38,2.93,2.93,0,0,1-1.84.53,3.21,3.21,0,0,1-1.38-.28,2.22,2.22,0,0,1-.93-.77,1.81,1.81,0,0,1-.34-1.06H78.2a1,1,0,0,0,.37.78,1.49,1.49,0,0,0,.93.27,1.41,1.41,0,0,0,.84-.21A.68.68,0,0,0,80.63,106.09Z"/><path d="M90.87,104.77h1v1.14h-1v1.9H89.46v-1.9H85.82l0-.86,3.64-5.75h1.45Zm-3.61,0h2.2v-3.55l-.1.19Z"/><path d="M96.67,107.81h-1.4V101l-2.07.72v-1.2l3.29-1.22h.18Z"/><path d="M104,101.49l0,.66a2.25,2.25,0,0,1,1.81-.78,1.72,1.72,0,0,1,1.72,1,2.22,2.22,0,0,1,1.93-1A1.93,1.93,0,0,1,111,102a2.54,2.54,0,0,1,.52,1.7v4.16h-1.41v-4.12a1.28,1.28,0,0,0-.26-.88,1.15,1.15,0,0,0-.86-.28,1.19,1.19,0,0,0-.79.26,1.45,1.45,0,0,0-.43.68v4.34h-1.41v-4.16a1,1,0,0,0-1.13-1.12,1.24,1.24,0,0,0-1.2.7v4.58h-1.41v-6.32Z"/><path d="M113,99.85a.71.71,0,0,1,.79-.76.79.79,0,0,1,.59.21.77.77,0,0,1,.21.55.72.72,0,0,1-.21.53.79.79,0,0,1-.59.21.8.8,0,0,1-.59-.21A.76.76,0,0,1,113,99.85Zm1.49,8h-1.41v-6.32h1.41Z"/><path d="M117.31,101.49l0,.73a2.26,2.26,0,0,1,1.83-.85c1.31,0,2,.75,2,2.26v4.18h-1.41v-4.1a1.31,1.31,0,0,0-.25-.89,1.12,1.12,0,0,0-.85-.29,1.37,1.37,0,0,0-1.27.78v4.5H116v-6.32Z"/><path d="M126.12,106.09a.64.64,0,0,0-.31-.58,3.25,3.25,0,0,0-1-.35,5.12,5.12,0,0,1-1.2-.39,1.6,1.6,0,0,1-1-1.49,1.69,1.69,0,0,1,.68-1.36,2.69,2.69,0,0,1,1.74-.55,2.82,2.82,0,0,1,1.82.56,1.78,1.78,0,0,1,.69,1.45h-1.41a.9.9,0,0,0-.3-.68,1.16,1.16,0,0,0-.8-.27,1.17,1.17,0,0,0-.75.22.68.68,0,0,0-.3.58.58.58,0,0,0,.28.51,3.6,3.6,0,0,0,1.1.36,5.14,5.14,0,0,1,1.3.44,1.84,1.84,0,0,1,.7.61,1.58,1.58,0,0,1,.23.86,1.66,1.66,0,0,1-.7,1.38,2.93,2.93,0,0,1-1.84.53,3.17,3.17,0,0,1-1.37-.28,2.19,2.19,0,0,1-.94-.77,1.81,1.81,0,0,1-.34-1.06h1.37a1,1,0,0,0,.38.78,1.44,1.44,0,0,0,.92.27,1.41,1.41,0,0,0,.84-.21A.66.66,0,0,0,126.12,106.09Z"/><path d="M131.43,104.59a3.83,3.83,0,0,1,.36-1.68,2.71,2.71,0,0,1,1-1.14,2.83,2.83,0,0,1,1.52-.4,2.73,2.73,0,0,1,2.06.82,3.28,3.28,0,0,1,.85,2.19v.33a3.76,3.76,0,0,1-.36,1.67,2.69,2.69,0,0,1-1,1.14,2.86,2.86,0,0,1-1.53.4,2.69,2.69,0,0,1-2.13-.89,3.41,3.41,0,0,1-.79-2.37Zm1.4.12a2.62,2.62,0,0,0,.4,1.53,1.4,1.4,0,0,0,2.23,0,2.86,2.86,0,0,0,.39-1.64,2.54,2.54,0,0,0-.4-1.52,1.33,1.33,0,0,0-1.11-.56,1.29,1.29,0,0,0-1.1.55A2.79,2.79,0,0,0,132.83,104.71Z"/><path d="M139.75,101.49l.05.73a2.22,2.22,0,0,1,1.82-.85c1.31,0,2,.75,2,2.26v4.18h-1.4v-4.1a1.31,1.31,0,0,0-.26-.89,1.09,1.09,0,0,0-.85-.29,1.34,1.34,0,0,0-1.26.78v4.5h-1.41v-6.32Z"/><rect class="cls-3" x="31.49" y="151.75" width="137.28" height="31.44"/><path class="cls-1" d="M59.93,156.7l2.23,6,2.23-6h1.73v7.79H64.78v-2.57l.14-3.43-2.29,6h-1l-2.28-6,.13,3.43v2.57H58.18V156.7Z"/><path class="cls-1" d="M70.12,164.6a2.66,2.66,0,0,1-2-.78,2.83,2.83,0,0,1-.76-2.07v-.16A3.5,3.5,0,0,1,67.7,160a2.56,2.56,0,0,1,.93-1.07,2.49,2.49,0,0,1,1.34-.38,2.25,2.25,0,0,1,1.81.76,3.18,3.18,0,0,1,.64,2.14V162H68.67a1.75,1.75,0,0,0,.47,1.14,1.46,1.46,0,0,0,1,.41,1.77,1.77,0,0,0,1.45-.72l.69.67a2.24,2.24,0,0,1-.92.8A2.72,2.72,0,0,1,70.12,164.6Zm-.16-5a1.09,1.09,0,0,0-.86.37,2,2,0,0,0-.41,1.05h2.46V161a1.65,1.65,0,0,0-.35-1A1.08,1.08,0,0,0,70,159.64Z"/><path class="cls-1" d="M73.43,157.2a.68.68,0,0,1,.19-.5.69.69,0,0,1,.53-.2.74.74,0,0,1,.55.2.74.74,0,0,1,0,1,.74.74,0,0,1-.55.19.69.69,0,0,1-.53-.19A.67.67,0,0,1,73.43,157.2Zm1.37,7.29H73.51V158.7H74.8Z"/><path class="cls-1" d="M77.82,157.29v1.41h1v1h-1v3.24a.71.71,0,0,0,.13.48.6.6,0,0,0,.47.15,1.74,1.74,0,0,0,.45-.06v1a3.28,3.28,0,0,1-.85.12c-1,0-1.49-.55-1.49-1.65v-3.29h-.94v-1h.94v-1.41Z"/><path class="cls-1" d="M82.35,164.6a2.67,2.67,0,0,1-2-.78,2.87,2.87,0,0,1-.76-2.07v-.16a3.5,3.5,0,0,1,.33-1.55,2.58,2.58,0,0,1,.94-1.07,2.46,2.46,0,0,1,1.33-.38,2.27,2.27,0,0,1,1.82.76,3.18,3.18,0,0,1,.64,2.14V162H80.9a1.76,1.76,0,0,0,.48,1.14,1.46,1.46,0,0,0,1.05.41,1.74,1.74,0,0,0,1.44-.72l.7.67a2.3,2.3,0,0,1-.92.8A2.79,2.79,0,0,1,82.35,164.6Zm-.15-5a1.09,1.09,0,0,0-.86.37,1.94,1.94,0,0,0-.42,1.05h2.46V161a1.58,1.58,0,0,0-.34-1A1.08,1.08,0,0,0,82.2,159.64Z"/><path class="cls-1" d="M87.28,157.29v1.41h1v1h-1v3.24a.71.71,0,0,0,.13.48.58.58,0,0,0,.46.15,1.74,1.74,0,0,0,.45-.06v1a3.17,3.17,0,0,1-.85.12c-1,0-1.48-.55-1.48-1.65v-3.29H85v-1H86v-1.41Z"/><path class="cls-1" d="M92.5,162.92a.59.59,0,0,0-.28-.53,3,3,0,0,0-1-.32,4.92,4.92,0,0,1-1.1-.35,1.49,1.49,0,0,1-1-1.37,1.55,1.55,0,0,1,.62-1.25,2.45,2.45,0,0,1,1.6-.51,2.57,2.57,0,0,1,1.66.52,1.62,1.62,0,0,1,.64,1.33H92.44a.8.8,0,0,0-.28-.62,1,1,0,0,0-.73-.25,1.1,1.1,0,0,0-.7.2.64.64,0,0,0-.26.53.51.51,0,0,0,.25.46,3.24,3.24,0,0,0,1,.34,4.52,4.52,0,0,1,1.2.4,1.61,1.61,0,0,1,.64.56,1.43,1.43,0,0,1,.21.79,1.52,1.52,0,0,1-.64,1.27,2.75,2.75,0,0,1-1.69.48,2.84,2.84,0,0,1-1.26-.26,2.13,2.13,0,0,1-.86-.7,1.74,1.74,0,0,1-.31-1h1.26a.93.93,0,0,0,.34.71,1.41,1.41,0,0,0,.85.25,1.26,1.26,0,0,0,.77-.2A.6.6,0,0,0,92.5,162.92Z"/><path class="cls-1" d="M98.38,163.93a2,2,0,0,1-1.62.67,1.76,1.76,0,0,1-1.41-.55,2.32,2.32,0,0,1-.49-1.6V158.7h1.3v3.74c0,.73.3,1.1.9,1.1a1.28,1.28,0,0,0,1.27-.68V158.7h1.3v5.79H98.41Z"/><path class="cls-1" d="M109.91,164.49h-1.34L105.12,159v5.53h-1.35V156.7h1.35l3.46,5.55V156.7h1.33Z"/><path class="cls-1" d="M114.81,164.49a1.8,1.8,0,0,1-.15-.54,2.15,2.15,0,0,1-2.92.15,1.58,1.58,0,0,1-.55-1.23,1.65,1.65,0,0,1,.68-1.42,3.32,3.32,0,0,1,2-.49h.79v-.39a1,1,0,0,0-.25-.71,1,1,0,0,0-.76-.28,1.09,1.09,0,0,0-.72.23.67.67,0,0,0-.29.56h-1.29a1.45,1.45,0,0,1,.32-.89,2.08,2.08,0,0,1,.85-.65,2.92,2.92,0,0,1,1.2-.24,2.4,2.4,0,0,1,1.61.52,1.82,1.82,0,0,1,.62,1.43v2.62a2.87,2.87,0,0,0,.22,1.24v.09Zm-1.42-.93a1.49,1.49,0,0,0,.72-.19,1.23,1.23,0,0,0,.51-.5v-1.1h-.7a1.87,1.87,0,0,0-1.08.26.8.8,0,0,0-.36.71.72.72,0,0,0,.25.59A.93.93,0,0,0,113.39,163.56Z"/><path class="cls-1" d="M117,161.55a3.41,3.41,0,0,1,.63-2.15,2,2,0,0,1,1.68-.81,1.88,1.88,0,0,1,1.54.69l.06-.58h1.16v5.62a2.34,2.34,0,0,1-.7,1.8,2.66,2.66,0,0,1-1.9.65,3,3,0,0,1-1.24-.26,2.26,2.26,0,0,1-.91-.69L118,165a1.83,1.83,0,0,0,1.47.72,1.44,1.44,0,0,0,1-.35,1.36,1.36,0,0,0,.37-1V164a1.89,1.89,0,0,1-1.49.63,2,2,0,0,1-1.64-.81A3.49,3.49,0,0,1,117,161.55Zm1.29.12a2.37,2.37,0,0,0,.35,1.37,1.16,1.16,0,0,0,1,.5,1.24,1.24,0,0,0,1.16-.67v-2.55a1.22,1.22,0,0,0-1.15-.66,1.15,1.15,0,0,0-1,.51A2.68,2.68,0,0,0,118.32,161.67Z"/><path class="cls-1" d="M123.19,161.54a3.5,3.5,0,0,1,.33-1.53,2.59,2.59,0,0,1,.94-1,2.7,2.7,0,0,1,1.39-.37,2.51,2.51,0,0,1,1.89.76,3,3,0,0,1,.79,2v.31a3.58,3.58,0,0,1-.32,1.53,2.38,2.38,0,0,1-.94,1,2.62,2.62,0,0,1-1.4.37,2.45,2.45,0,0,1-2-.82,3.1,3.1,0,0,1-.73-2.17Zm1.29.12a2.33,2.33,0,0,0,.37,1.4,1.19,1.19,0,0,0,1,.5,1.17,1.17,0,0,0,1-.51,2.55,2.55,0,0,0,.37-1.51,2.31,2.31,0,0,0-.38-1.39,1.26,1.26,0,0,0-2,0A2.56,2.56,0,0,0,124.48,161.66Z"/><path class="cls-1" d="M131.63,162.63l1.17-3.93h1.38l-2.29,6.67a1.85,1.85,0,0,1-1.78,1.46,2.44,2.44,0,0,1-.62-.09v-1h.24a1,1,0,0,0,1.13-.78l.19-.5-2-5.76h1.39Z"/><path class="cls-1" d="M138.35,164.49a2.25,2.25,0,0,1-.14-.54,2,2,0,0,1-1.51.65,2,2,0,0,1-1.42-.5,1.6,1.6,0,0,1-.54-1.23,1.65,1.65,0,0,1,.68-1.42,3.31,3.31,0,0,1,2-.49h.79v-.39a1,1,0,0,0-.25-.71,1,1,0,0,0-.76-.28,1.13,1.13,0,0,0-.72.23.66.66,0,0,0-.28.56h-1.29a1.44,1.44,0,0,1,.31-.89,2.11,2.11,0,0,1,.86-.65,2.92,2.92,0,0,1,1.2-.24,2.41,2.41,0,0,1,1.61.52,1.86,1.86,0,0,1,.62,1.43v2.62a3,3,0,0,0,.21,1.24v.09Zm-1.41-.93a1.55,1.55,0,0,0,.72-.19,1.27,1.27,0,0,0,.5-.5v-1.1h-.69a1.87,1.87,0,0,0-1.08.26.8.8,0,0,0-.36.71.72.72,0,0,0,.25.59A.93.93,0,0,0,136.94,163.56Z"/><path class="cls-1" d="M78.9,169.86l2.23,6,2.23-6H85.1v7.79H83.76v-2.57l.13-3.44-2.28,6h-1l-2.27-6,.13,3.43v2.57H77.16v-7.79Z"/><path class="cls-1" d="M90,177.65a2.25,2.25,0,0,1-.14-.54,2.16,2.16,0,0,1-2.93.15,1.6,1.6,0,0,1-.54-1.23,1.63,1.63,0,0,1,.68-1.42,3.28,3.28,0,0,1,2-.5h.79v-.38a1,1,0,0,0-.25-.72,1,1,0,0,0-.76-.27,1.19,1.19,0,0,0-.72.22.69.69,0,0,0-.28.57H86.5a1.42,1.42,0,0,1,.31-.89,2,2,0,0,1,.86-.65,2.89,2.89,0,0,1,1.2-.24,2.41,2.41,0,0,1,1.61.51,1.86,1.86,0,0,1,.62,1.44v2.61a3.09,3.09,0,0,0,.21,1.25v.09Zm-1.41-.94a1.54,1.54,0,0,0,.72-.18,1.29,1.29,0,0,0,.5-.51v-1.09h-.69a1.87,1.87,0,0,0-1.08.25.83.83,0,0,0-.36.71.76.76,0,0,0,.25.6A.92.92,0,0,0,88.58,176.71Z"/><path class="cls-1" d="M92.45,170.35a.66.66,0,0,1,.19-.49.67.67,0,0,1,.54-.2.69.69,0,0,1,.54.2.73.73,0,0,1,0,1,.73.73,0,0,1-.54.2.7.7,0,0,1-.54-.2A.66.66,0,0,1,92.45,170.35Zm1.37,7.3H92.53v-5.79h1.29Z"/><path class="cls-1" d="M96.42,171.86l0,.67a2.06,2.06,0,0,1,1.68-.78c1.19,0,1.8.69,1.82,2.07v3.83H98.67V173.9a1.2,1.2,0,0,0-.24-.82,1,1,0,0,0-.77-.26,1.22,1.22,0,0,0-1.16.71v4.12H95.21v-5.79Z"/><path class="cls-1" d="M105.46,176.57H109v1.08h-4.86v-7.79h1.35Z"/><path class="cls-1" d="M109.88,170.35a.66.66,0,0,1,.72-.69.7.7,0,0,1,.55.2.73.73,0,0,1,0,1,.74.74,0,0,1-.55.2.73.73,0,0,1-.54-.2A.69.69,0,0,1,109.88,170.35Zm1.37,7.3H110v-5.79h1.29Z"/><path class="cls-1" d="M113.85,171.86l0,.67a2,2,0,0,1,1.67-.78q1.8,0,1.83,2.07v3.83H116.1V173.9a1.2,1.2,0,0,0-.24-.82,1,1,0,0,0-.77-.26,1.25,1.25,0,0,0-1.17.71v4.12h-1.29v-5.79Z"/><path class="cls-1" d="M121.23,177.76a2.67,2.67,0,0,1-2-.78,2.88,2.88,0,0,1-.76-2.08v-.16a3.53,3.53,0,0,1,.33-1.55,2.62,2.62,0,0,1,.94-1.06,2.46,2.46,0,0,1,1.34-.38,2.23,2.23,0,0,1,1.81.76,3.17,3.17,0,0,1,.64,2.13v.53h-3.76a1.75,1.75,0,0,0,.48,1.13,1.42,1.42,0,0,0,1,.42,1.74,1.74,0,0,0,1.44-.72l.7.66a2.33,2.33,0,0,1-.92.81A2.92,2.92,0,0,1,121.23,177.76Zm-.15-5a1.1,1.1,0,0,0-.86.38,1.94,1.94,0,0,0-.41,1h2.45v-.09a1.54,1.54,0,0,0-.34-1A1.08,1.08,0,0,0,121.08,172.79Z"/><rect class="cls-3" x="31.49" y="189.48" width="137.28" height="31.44"/><path class="cls-1" d="M60.94,194.42l2.23,6,2.23-6h1.74v7.8H65.8v-2.57l.13-3.44-2.29,6h-1l-2.28-6,.14,3.43v2.57H59.2v-7.8Z"/><path class="cls-1" d="M71.13,202.33a2.66,2.66,0,0,1-2-.78,2.83,2.83,0,0,1-.76-2.08v-.16a3.53,3.53,0,0,1,.33-1.55,2.53,2.53,0,0,1,.93-1.06,2.49,2.49,0,0,1,1.34-.38,2.28,2.28,0,0,1,1.82.75,3.27,3.27,0,0,1,.64,2.14v.53H69.68a1.8,1.8,0,0,0,.47,1.13,1.42,1.42,0,0,0,1,.42,1.74,1.74,0,0,0,1.45-.72l.7.66a2.35,2.35,0,0,1-.93.81A2.85,2.85,0,0,1,71.13,202.33Zm-.15-5a1.09,1.09,0,0,0-.86.38,1.94,1.94,0,0,0-.42,1h2.46v-.09a1.54,1.54,0,0,0-.35-1A1.08,1.08,0,0,0,71,197.36Z"/><path class="cls-1" d="M74.44,194.92a.66.66,0,0,1,.73-.69.73.73,0,0,1,.54.19.69.69,0,0,1,.19.5.66.66,0,0,1-.19.49.73.73,0,0,1-.54.2.7.7,0,0,1-.54-.2A.66.66,0,0,1,74.44,194.92Zm1.37,7.3H74.52v-5.79h1.29Z"/><path class="cls-1" d="M78.83,195v1.41h1v1h-1v3.23a.73.73,0,0,0,.13.48.62.62,0,0,0,.47.15,2.3,2.3,0,0,0,.45-.05v1a2.88,2.88,0,0,1-.85.13c-1,0-1.49-.55-1.49-1.66v-3.28H76.6v-1h.94V195Z"/><path class="cls-1" d="M83.37,202.33a2.66,2.66,0,0,1-2-.78,2.84,2.84,0,0,1-.77-2.08v-.16a3.4,3.4,0,0,1,.34-1.55,2.53,2.53,0,0,1,.93-1.06,2.46,2.46,0,0,1,1.34-.38,2.25,2.25,0,0,1,1.81.75,3.22,3.22,0,0,1,.64,2.14v.53H81.92a1.7,1.7,0,0,0,.47,1.13,1.42,1.42,0,0,0,1,.42,1.77,1.77,0,0,0,1.45-.72l.69.66a2.33,2.33,0,0,1-.92.81A2.88,2.88,0,0,1,83.37,202.33Zm-.16-5a1.1,1.1,0,0,0-.86.38,2,2,0,0,0-.41,1H84.4v-.09a1.6,1.6,0,0,0-.35-1A1.08,1.08,0,0,0,83.21,197.36Z"/><path class="cls-1" d="M88.29,195v1.41h1v1h-1v3.23a.67.67,0,0,0,.13.48.6.6,0,0,0,.47.15,2.48,2.48,0,0,0,.45-.05v1a2.93,2.93,0,0,1-.85.13c-1,0-1.49-.55-1.49-1.66v-3.28h-1v-1h1V195Z"/><path class="cls-1" d="M93.51,200.65a.58.58,0,0,0-.28-.53,3,3,0,0,0-.94-.33,4.75,4.75,0,0,1-1.1-.35,1.47,1.47,0,0,1-1-1.36,1.56,1.56,0,0,1,.63-1.26,2.48,2.48,0,0,1,1.59-.5,2.55,2.55,0,0,1,1.66.51,1.64,1.64,0,0,1,.64,1.34H93.45a.81.81,0,0,0-.28-.63,1.08,1.08,0,0,0-.73-.25,1.15,1.15,0,0,0-.69.2.62.62,0,0,0-.27.53.53.53,0,0,0,.25.47,3.29,3.29,0,0,0,1,.33,5.46,5.46,0,0,1,1.19.4,1.78,1.78,0,0,1,.64.56,1.47,1.47,0,0,1,.21.8,1.49,1.49,0,0,1-.64,1.26,2.75,2.75,0,0,1-1.68.49,2.92,2.92,0,0,1-1.26-.26,2,2,0,0,1-.86-.71,1.65,1.65,0,0,1-.31-1h1.25a.89.89,0,0,0,.35.71,1.29,1.29,0,0,0,.84.25,1.32,1.32,0,0,0,.78-.19A.62.62,0,0,0,93.51,200.65Z"/><path class="cls-1" d="M99.39,201.65a2,2,0,0,1-1.62.68,1.79,1.79,0,0,1-1.41-.55,2.37,2.37,0,0,1-.48-1.6v-3.75h1.29v3.73c0,.74.3,1.11.91,1.11a1.29,1.29,0,0,0,1.27-.68v-4.16h1.29v5.79H99.42Z"/><path class="cls-1" d="M106.53,194.42l2.23,6,2.23-6h1.73v7.8h-1.33v-2.57l.13-3.44-2.29,6h-1l-2.28-6,.14,3.43v2.57h-1.34v-7.8Z"/><path class="cls-1" d="M114.19,194.92a.69.69,0,0,1,.19-.5.71.71,0,0,1,.54-.19.73.73,0,0,1,.54.19.69.69,0,0,1,.19.5.66.66,0,0,1-.19.49.73.73,0,0,1-.54.2.72.72,0,0,1-.54-.2A.66.66,0,0,1,114.19,194.92Zm1.37,7.3h-1.29v-5.79h1.29Z"/><path class="cls-1" d="M118.83,199.74l-.57.59v1.89H117V194h1.29v4.74l.4-.51,1.59-1.8h1.55l-2.13,2.41,2.36,3.38h-1.49Z"/><path class="cls-1" d="M126.08,202.22a1.8,1.8,0,0,1-.15-.54,2,2,0,0,1-1.51.65,2,2,0,0,1-1.41-.5,1.58,1.58,0,0,1-.55-1.23,1.64,1.64,0,0,1,.69-1.42,3.26,3.26,0,0,1,1.95-.5h.79v-.38a1,1,0,0,0-.25-.72,1,1,0,0,0-.76-.27,1.12,1.12,0,0,0-.72.22.69.69,0,0,0-.28.57h-1.29a1.42,1.42,0,0,1,.31-.89,2,2,0,0,1,.85-.65,2.92,2.92,0,0,1,1.2-.24,2.39,2.39,0,0,1,1.61.51,1.83,1.83,0,0,1,.62,1.44v2.61a2.92,2.92,0,0,0,.22,1.25v.09Zm-1.42-.94a1.48,1.48,0,0,0,.72-.18,1.25,1.25,0,0,0,.51-.51V199.5h-.7a1.86,1.86,0,0,0-1.07.25.81.81,0,0,0-.37.71.79.79,0,0,0,.25.6A1,1,0,0,0,124.66,201.28Z"/><path class="cls-1" d="M133.58,200.43l.92-4h1.26l-1.57,5.79h-1.06l-1.24-4-1.21,4h-1.06l-1.57-5.79h1.26l.93,3.95,1.18-3.95h1Z"/><path class="cls-1" d="M140.05,202.22a2.71,2.71,0,0,1-.15-.54,2,2,0,0,1-1.5.65,2.05,2.05,0,0,1-1.42-.5,1.6,1.6,0,0,1-.54-1.23,1.63,1.63,0,0,1,.68-1.42,3.26,3.26,0,0,1,1.95-.5h.79v-.38a1,1,0,0,0-.25-.72,1,1,0,0,0-.76-.27,1.12,1.12,0,0,0-.72.22.69.69,0,0,0-.28.57h-1.29a1.42,1.42,0,0,1,.31-.89,2,2,0,0,1,.85-.65,2.94,2.94,0,0,1,1.21-.24,2.41,2.41,0,0,1,1.61.51,1.82,1.82,0,0,1,.61,1.44v2.61a3.08,3.08,0,0,0,.22,1.25v.09Zm-1.41-.94a1.47,1.47,0,0,0,.71-.18,1.25,1.25,0,0,0,.51-.51V199.5h-.69a1.87,1.87,0,0,0-1.08.25.83.83,0,0,0-.36.71.78.78,0,0,0,.24.6A1,1,0,0,0,138.64,201.28Z"/><path class="cls-1" d="M92,214.29h3.51v1.09H90.64v-7.8H92Z"/><path class="cls-1" d="M96.4,208.08a.68.68,0,0,1,.19-.5.72.72,0,0,1,.54-.2.73.73,0,0,1,.54.2.68.68,0,0,1,.19.5.66.66,0,0,1-.19.49.73.73,0,0,1-.54.19.71.71,0,0,1-.54-.19A.66.66,0,0,1,96.4,208.08Zm1.37,7.3H96.48v-5.8h1.29Z"/><path class="cls-1" d="M100.37,209.58l0,.67a2.08,2.08,0,0,1,1.68-.77c1.19,0,1.8.69,1.82,2.07v3.83h-1.29v-3.76a1.22,1.22,0,0,0-.23-.81,1,1,0,0,0-.78-.27,1.24,1.24,0,0,0-1.16.71v4.13H99.16v-5.8Z"/><path class="cls-1" d="M107.76,215.48a2.66,2.66,0,0,1-2-.78,2.83,2.83,0,0,1-.76-2.07v-.16a3.5,3.5,0,0,1,.33-1.55,2.47,2.47,0,0,1,.93-1.06,2.41,2.41,0,0,1,1.34-.38,2.28,2.28,0,0,1,1.82.75,3.25,3.25,0,0,1,.64,2.14v.52h-3.76a1.8,1.8,0,0,0,.47,1.14,1.42,1.42,0,0,0,1,.41,1.74,1.74,0,0,0,1.45-.72l.69.67a2.26,2.26,0,0,1-.92.81A2.84,2.84,0,0,1,107.76,215.48Zm-.15-5a1.09,1.09,0,0,0-.86.38,1.91,1.91,0,0,0-.42,1h2.46v-.1a1.53,1.53,0,0,0-.35-1A1,1,0,0,0,107.61,210.52Z"/><rect class="cls-3" x="31.49" y="114.03" width="137.28" height="31.44"/><path class="cls-1" d="M47.63,125.26H49v5.47a2.31,2.31,0,0,1-.7,1.77,2.54,2.54,0,0,1-1.83.66,2.65,2.65,0,0,1-1.87-.61,2.25,2.25,0,0,1-.66-1.72h1.34a1.27,1.27,0,0,0,.31.94,1.17,1.17,0,0,0,.88.31,1.12,1.12,0,0,0,.87-.36,1.46,1.46,0,0,0,.32-1Z"/><path class="cls-1" d="M53.35,130.06h-1.5v3H50.5v-7.79h2.72a3.17,3.17,0,0,1,2.07.6,2.47,2.47,0,0,1,.35,3.07,2.37,2.37,0,0,1-1,.81L56.34,133v.06H54.9Zm-1.5-1.1h1.38a1.52,1.52,0,0,0,1.06-.34,1.2,1.2,0,0,0,.38-1,1.25,1.25,0,0,0-.35-1,1.52,1.52,0,0,0-1.06-.36H51.85Z"/><path class="cls-1" d="M65.27,126.35H62.86v6.7H61.53v-6.7H59.14v-1.09h6.13Z"/><path class="cls-1" d="M64.81,130.11a3.52,3.52,0,0,1,.34-1.54,2.52,2.52,0,0,1,.94-1,2.67,2.67,0,0,1,1.39-.36,2.5,2.5,0,0,1,1.89.75,3,3,0,0,1,.78,2v.31a3.44,3.44,0,0,1-.33,1.53,2.42,2.42,0,0,1-.93,1,2.65,2.65,0,0,1-1.41.37,2.47,2.47,0,0,1-1.94-.81,3.15,3.15,0,0,1-.74-2.18Zm1.3.11a2.4,2.4,0,0,0,.36,1.4,1.22,1.22,0,0,0,1,.5,1.18,1.18,0,0,0,1-.51,2.59,2.59,0,0,0,.36-1.5,2.35,2.35,0,0,0-.37-1.4,1.2,1.2,0,0,0-1-.51,1.18,1.18,0,0,0-1,.5A2.56,2.56,0,0,0,66.11,130.22Z"/><path class="cls-1" d="M73.12,130.57l-.57.59v1.89h-1.3v-8.22h1.3v4.74l.4-.5,1.59-1.81h1.55L74,129.68l2.37,3.37h-1.5Z"/><path class="cls-1" d="M80.36,133.05a2.25,2.25,0,0,1-.14-.54,2,2,0,0,1-1.51.65,2,2,0,0,1-1.42-.5,1.6,1.6,0,0,1-.54-1.23,1.64,1.64,0,0,1,.68-1.42,3.31,3.31,0,0,1,1.95-.49h.79v-.38a1,1,0,0,0-.25-.72,1,1,0,0,0-.76-.27,1.12,1.12,0,0,0-.72.22.67.67,0,0,0-.28.56H76.87a1.44,1.44,0,0,1,.31-.89,2.11,2.11,0,0,1,.86-.65,2.89,2.89,0,0,1,1.2-.23,2.41,2.41,0,0,1,1.61.51,1.86,1.86,0,0,1,.62,1.43v2.62a3,3,0,0,0,.21,1.24v.09ZM79,132.12a1.44,1.44,0,0,0,.72-.19,1.2,1.2,0,0,0,.5-.5v-1.1h-.69a1.87,1.87,0,0,0-1.08.26.8.8,0,0,0-.36.71.76.76,0,0,0,.25.6A1,1,0,0,0,79,132.12Z"/><path class="cls-1" d="M82.82,125.76a.68.68,0,0,1,.19-.5.7.7,0,0,1,.54-.2.73.73,0,0,1,.54.2.68.68,0,0,1,.19.5.67.67,0,0,1-.19.49.73.73,0,0,1-.54.19.7.7,0,0,1-.54-.19A.67.67,0,0,1,82.82,125.76Zm1.37,7.29H82.9v-5.79h1.29Z"/><path class="cls-1" d="M85.35,130.11A3.44,3.44,0,0,1,86,128a2,2,0,0,1,1.65-.81,1.87,1.87,0,0,1,1.48.64v-3h1.29v8.22H89.22l-.06-.6a1.88,1.88,0,0,1-1.55.71,1.94,1.94,0,0,1-1.63-.82A3.56,3.56,0,0,1,85.35,130.11Zm1.3.12a2.47,2.47,0,0,0,.33,1.38,1.1,1.1,0,0,0,1,.49,1.22,1.22,0,0,0,1.16-.71v-2.47a1.2,1.2,0,0,0-1.15-.7,1.09,1.09,0,0,0-1,.5A2.68,2.68,0,0,0,86.65,130.23Z"/><path class="cls-1" d="M91.5,130.11a3.51,3.51,0,0,1,.33-1.54,2.52,2.52,0,0,1,.94-1,2.69,2.69,0,0,1,1.39-.36,2.5,2.5,0,0,1,1.89.75,3,3,0,0,1,.79,2v.31a3.44,3.44,0,0,1-.33,1.53,2.36,2.36,0,0,1-.93,1,2.63,2.63,0,0,1-1.41.37,2.47,2.47,0,0,1-1.94-.81,3.14,3.14,0,0,1-.73-2.18Zm1.29.11a2.4,2.4,0,0,0,.36,1.4,1.22,1.22,0,0,0,1,.5,1.18,1.18,0,0,0,1-.51,2.59,2.59,0,0,0,.37-1.5,2.35,2.35,0,0,0-.38-1.4,1.26,1.26,0,0,0-2,0A2.56,2.56,0,0,0,92.79,130.22Z"/><path class="cls-1" d="M104.81,131.05a1,1,0,0,0-.36-.8,4.5,4.5,0,0,0-1.29-.56,6.28,6.28,0,0,1-1.49-.63,2,2,0,0,1-1.06-1.74,1.94,1.94,0,0,1,.76-1.56,3.12,3.12,0,0,1,2-.61,3.31,3.31,0,0,1,1.44.3,2.34,2.34,0,0,1,1,.86,2.2,2.2,0,0,1,.36,1.22h-1.34a1.23,1.23,0,0,0-.38-1,1.57,1.57,0,0,0-1.09-.35,1.61,1.61,0,0,0-1,.29,1,1,0,0,0-.36.79.87.87,0,0,0,.39.72,4.46,4.46,0,0,0,1.3.55,6.05,6.05,0,0,1,1.45.62,2.33,2.33,0,0,1,.8.79,2.09,2.09,0,0,1,.25,1,1.85,1.85,0,0,1-.74,1.55,3.2,3.2,0,0,1-2,.57,3.72,3.72,0,0,1-1.54-.31,2.61,2.61,0,0,1-1.1-.87,2.13,2.13,0,0,1-.39-1.28h1.35a1.28,1.28,0,0,0,.43,1,1.92,1.92,0,0,0,1.25.36,1.62,1.62,0,0,0,1.06-.29A.93.93,0,0,0,104.81,131.05Z"/><path class="cls-1" d="M108.48,127.89a2,2,0,0,1,1.6-.73c1.23,0,1.85.7,1.86,2.11v3.78h-1.29v-3.73a1.17,1.17,0,0,0-.25-.85,1.06,1.06,0,0,0-.76-.25,1.24,1.24,0,0,0-1.16.7v4.13h-1.29v-8.22h1.29Z"/><path class="cls-1" d="M113.25,125.76a.68.68,0,0,1,.19-.5.83.83,0,0,1,1.08,0,.68.68,0,0,1,.19.5.67.67,0,0,1-.19.49.86.86,0,0,1-1.08,0A.67.67,0,0,1,113.25,125.76Zm1.37,7.29h-1.29v-5.79h1.29Z"/><path class="cls-1" d="M117.23,127.26l0,.67a2.07,2.07,0,0,1,1.68-.77c1.19,0,1.8.69,1.82,2.07v3.82h-1.29V129.3a1.21,1.21,0,0,0-.23-.81,1,1,0,0,0-.78-.27,1.25,1.25,0,0,0-1.16.71v4.12H116v-5.79Z"/><path class="cls-1" d="M124,130.57l-.58.59v1.89h-1.29v-8.22h1.29v4.74l.41-.5,1.58-1.81h1.56l-2.14,2.42,2.36,3.37h-1.49Z"/><path class="cls-1" d="M131.19,133.05a2.71,2.71,0,0,1-.15-.54,2,2,0,0,1-1.5.65,2,2,0,0,1-1.42-.5,1.6,1.6,0,0,1-.54-1.23,1.64,1.64,0,0,1,.68-1.42,3.27,3.27,0,0,1,2-.49H131v-.38a1,1,0,0,0-.25-.72,1,1,0,0,0-.76-.27,1.12,1.12,0,0,0-.72.22.67.67,0,0,0-.28.56H127.7A1.44,1.44,0,0,1,128,128a2.08,2.08,0,0,1,.85-.65,2.94,2.94,0,0,1,1.21-.23,2.41,2.41,0,0,1,1.61.51,1.82,1.82,0,0,1,.61,1.43v2.62a3,3,0,0,0,.22,1.24v.09Zm-1.42-.93a1.39,1.39,0,0,0,.72-.19,1.17,1.17,0,0,0,.51-.5v-1.1h-.69a1.87,1.87,0,0,0-1.08.26.8.8,0,0,0-.36.71.78.78,0,0,0,.24.6A1,1,0,0,0,129.77,132.12Z"/><path class="cls-1" d="M134.84,127.26l0,.67a2,2,0,0,1,1.67-.77q1.8,0,1.83,2.07v3.82h-1.29V129.3a1.15,1.15,0,0,0-.24-.81,1,1,0,0,0-.77-.27,1.24,1.24,0,0,0-1.16.71v4.12h-1.29v-5.79Z"/><path class="cls-1" d="M142.92,131.48a.6.6,0,0,0-.29-.53,3,3,0,0,0-.94-.32,4.92,4.92,0,0,1-1.1-.35,1.5,1.5,0,0,1-1-1.37,1.53,1.53,0,0,1,.63-1.25,2.45,2.45,0,0,1,1.6-.5,2.57,2.57,0,0,1,1.66.51,1.65,1.65,0,0,1,.64,1.33h-1.3a.8.8,0,0,0-.27-.62,1,1,0,0,0-.73-.25,1.16,1.16,0,0,0-.7.2.62.62,0,0,0-.27.53.53.53,0,0,0,.25.46,3.44,3.44,0,0,0,1,.34,4.52,4.52,0,0,1,1.2.4,1.69,1.69,0,0,1,.64.56,1.43,1.43,0,0,1,.21.79,1.55,1.55,0,0,1-.64,1.27,2.75,2.75,0,0,1-1.69.48,3,3,0,0,1-1.26-.25,2.17,2.17,0,0,1-.86-.71,1.74,1.74,0,0,1-.31-1h1.26a.9.9,0,0,0,.34.71,1.38,1.38,0,0,0,.85.25,1.29,1.29,0,0,0,.77-.2A.6.6,0,0,0,142.92,131.48Z"/><path class="cls-1" d="M147.84,133.16a2.67,2.67,0,0,1-2-.78,2.87,2.87,0,0,1-.76-2.07v-.16a3.5,3.5,0,0,1,.33-1.55,2.58,2.58,0,0,1,.94-1.07,2.45,2.45,0,0,1,1.33-.37,2.26,2.26,0,0,1,1.82.75,3.18,3.18,0,0,1,.64,2.14v.52h-3.76a1.76,1.76,0,0,0,.48,1.14,1.46,1.46,0,0,0,1,.41,1.74,1.74,0,0,0,1.44-.72l.7.67a2.3,2.3,0,0,1-.92.8A2.79,2.79,0,0,1,147.84,133.16Zm-.15-5a1.09,1.09,0,0,0-.86.37,1.94,1.94,0,0,0-.42,1.05h2.46v-.1a1.58,1.58,0,0,0-.34-1A1.08,1.08,0,0,0,147.69,128.2Z"/><path class="cls-1" d="M152.35,127.26l0,.67a2,2,0,0,1,1.67-.77q1.8,0,1.83,2.07v3.82H154.6V129.3a1.15,1.15,0,0,0-.24-.81,1,1,0,0,0-.77-.27,1.26,1.26,0,0,0-1.17.71v4.12h-1.29v-5.79Z"/></g><g id="Getting_There_Title" data-name="Getting There Title"><rect class="cls-2" x="0.08" width="599.49" height="64.79"/><path class="cls-1" d="M174,36.83a5.49,5.49,0,0,1-2.43,1.61,10.18,10.18,0,0,1-3.49.58,6.84,6.84,0,0,1-3.52-.89,5.88,5.88,0,0,1-2.34-2.56,9,9,0,0,1-.84-3.95V30.56a9.61,9.61,0,0,1,.78-4,5.85,5.85,0,0,1,2.25-2.62,7.39,7.39,0,0,1,7.75.42A5.65,5.65,0,0,1,174,28.17h-3.1a3.13,3.13,0,0,0-.94-2,3,3,0,0,0-2-.62,2.82,2.82,0,0,0-2.47,1.23,6.42,6.42,0,0,0-.86,3.66v1a6.23,6.23,0,0,0,.92,3.7,3.15,3.15,0,0,0,2.71,1.26,3.48,3.48,0,0,0,2.56-.78V33h-2.9V30.61H174Z"/><path class="cls-1" d="M186.12,32.05H180v4.17h7.18V38.8H176.81V23.21h10.35v2.6H180v3.72h6.12Z"/><path class="cls-1" d="M201.2,25.81h-4.74v13h-3.19v-13H188.6v-2.6h12.6Z"/><path class="cls-1" d="M215.2,25.81h-4.74v13h-3.19v-13H202.6v-2.6h12.6Z"/><path class="cls-1" d="M220.36,38.8h-3.19V23.21h3.19Z"/><path class="cls-1" d="M236.06,38.8h-3.19l-6.2-10.26V38.8h-3.19V23.21h3.19l6.21,10.28V23.21h3.18Z"/><path class="cls-1" d="M251.22,36.83a5.58,5.58,0,0,1-2.44,1.61,10.16,10.16,0,0,1-3.48.58,6.88,6.88,0,0,1-3.53-.89,5.88,5.88,0,0,1-2.34-2.56,9.16,9.16,0,0,1-.84-3.95V30.56a9.61,9.61,0,0,1,.78-4,5.85,5.85,0,0,1,2.25-2.62,7.41,7.41,0,0,1,7.76.42,5.73,5.73,0,0,1,1.84,3.85h-3.11a3.08,3.08,0,0,0-.94-2,3,3,0,0,0-2-.62,2.82,2.82,0,0,0-2.48,1.23,6.59,6.59,0,0,0-.86,3.66v1a6.15,6.15,0,0,0,.93,3.7,3.14,3.14,0,0,0,2.71,1.26,3.5,3.5,0,0,0,2.56-.78V33h-2.9V30.61h6.09Z"/><path class="cls-1" d="M271.09,25.81h-4.74v13h-3.19v-13h-4.68v-2.6h12.61Z"/><path class="cls-1" d="M285.34,31.36a9.46,9.46,0,0,1-.81,4,6.11,6.11,0,0,1-2.31,2.67,6.34,6.34,0,0,1-3.45,1,6.42,6.42,0,0,1-3.43-.94A6.09,6.09,0,0,1,273,35.42a9.23,9.23,0,0,1-.84-4v-.77a9.58,9.58,0,0,1,.82-4.06,6.19,6.19,0,0,1,2.33-2.68,6.76,6.76,0,0,1,6.88,0,6.19,6.19,0,0,1,2.33,2.68,9.4,9.4,0,0,1,.82,4Zm-3.23-.71a6.6,6.6,0,0,0-.87-3.72,3.07,3.07,0,0,0-5,0,6.56,6.56,0,0,0-.88,3.69v.76a6.72,6.72,0,0,0,.87,3.71,2.85,2.85,0,0,0,2.51,1.31,2.81,2.81,0,0,0,2.47-1.27,6.69,6.69,0,0,0,.87-3.7Z"/><path class="cls-1" d="M304.94,25.81H300.2v13H297v-13h-4.68v-2.6h12.6Z"/><path class="cls-1" d="M319.4,38.8h-3.18V32.12H310V38.8h-3.19V23.21H310v6.32h6.22V23.21h3.18Z"/><path class="cls-1" d="M331.75,32.05h-6.12v4.17h7.18V38.8H322.44V23.21h10.35v2.6h-7.16v3.72h6.12Z"/><path class="cls-1" d="M348.35,34.71a1.69,1.69,0,0,0-.64-1.4,8.55,8.55,0,0,0-2.3-1,16,16,0,0,1-2.62-1.07,4.32,4.32,0,0,1-2.64-3.86,3.8,3.8,0,0,1,.71-2.26,4.6,4.6,0,0,1,2-1.54,7.42,7.42,0,0,1,3-.56,6.91,6.91,0,0,1,2.95.6,4.8,4.8,0,0,1,2,1.71,4.5,4.5,0,0,1,.72,2.51h-3.19a2.14,2.14,0,0,0-.67-1.67,2.79,2.79,0,0,0-1.88-.59,2.88,2.88,0,0,0-1.82.5,1.57,1.57,0,0,0-.65,1.31,1.5,1.5,0,0,0,.76,1.27,8.66,8.66,0,0,0,2.24,1,9.7,9.7,0,0,1,4,2,4.09,4.09,0,0,1,1.25,3A3.75,3.75,0,0,1,350,37.86a6.63,6.63,0,0,1-4.1,1.16,7.83,7.83,0,0,1-3.25-.66,5.16,5.16,0,0,1-2.24-1.81,4.66,4.66,0,0,1-.77-2.65h3.2q0,2.58,3.06,2.58a3,3,0,0,0,1.78-.47A1.53,1.53,0,0,0,348.35,34.71Z"/><path class="cls-1" d="M365.55,25.81h-4.74v13h-3.19v-13H353v-2.6h12.6Z"/><path class="cls-1" d="M374.43,35.59h-5.59l-1.07,3.21h-3.39l5.76-15.59h3l5.79,15.59H375.5ZM369.7,33h3.87l-1.95-5.84Z"/><path class="cls-1" d="M380.57,38.8V23.21h4.76a7.15,7.15,0,0,1,3.65.93,6.46,6.46,0,0,1,2.52,2.63,8.19,8.19,0,0,1,.9,3.88v.72a8.24,8.24,0,0,1-.89,3.87,6.38,6.38,0,0,1-2.5,2.62,7.29,7.29,0,0,1-3.65.94Zm3.19-13V36.22h1.54A3.45,3.45,0,0,0,388.16,35a5.63,5.63,0,0,0,1-3.52v-.83a5.7,5.7,0,0,0-1-3.6,3.43,3.43,0,0,0-2.86-1.23Z"/><path class="cls-1" d="M398.16,38.8H395V23.21h3.19Z"/><path class="cls-1" d="M413,23.21V33.48a5.32,5.32,0,0,1-1.58,4.05,7.1,7.1,0,0,1-8.65,0,5.19,5.19,0,0,1-1.63-4V23.21h3.19V33.5a3,3,0,0,0,.73,2.23,2.77,2.77,0,0,0,2,.71c1.8,0,2.71-.95,2.74-2.85V23.21Z"/><path class="cls-1" d="M420.13,23.21l4,11.31,4-11.31h4.19V38.8h-3.2V34.54l.32-7.36L425.19,38.8H423l-4.17-11.6.32,7.34V38.8H416V23.21Z"/></g><polyline class="cls-4" points="100.41 239.34 100.41 340 450.4 340 450.4 279.21"/></g></g></g></svg>