<svg xmlns="http://www.w3.org/2000/svg" viewBox="0 0 599.49 445"><defs><style>.cls-1,.cls-5{fill:none;}.cls-2{fill:#6678a8;}.cls-3{fill:#fff;}.cls-4{fill:#65a4c3;}.cls-5{stroke:#b4d9b9;stroke-miterlimit:10;stroke-width:2px;}.cls-6{fill:#b4d9b9;}</style></defs><title>Fukuoka</title><g id="Layer_2" data-name="Layer 2"><g id="Layer_1-2" data-name="Layer 1"><g id="Fukuoka"><g id="Hanazono"><g id="box"><rect class="cls-1" x="0.22" y="1.86" width="599.04" height="443.14"/></g><g id="Name_of_Stadium" data-name="Name of Stadium"><rect class="cls-2" y="380.76" width="599.49" height="63.76"/><path class="cls-3" d="M190.44,403.42v-4.51h1a5.22,5.22,0,0,0,3.71-1.54,5.28,5.28,0,0,0,1.53-3.74,1,1,0,0,0-1-1.05h-6.29a1,1,0,0,0-1,1.05v9.23a70.24,70.24,0,0,0-10.94-1.58c-2-.15-4.07-.23-6.14-.25V396.8h1a5.26,5.26,0,0,0,5.24-5.28,1,1,0,0,0-1-1h-6.29a1,1,0,0,0-1.05,1V401c-2.07,0-4.14.1-6.15.25a70.24,70.24,0,0,0-10.94,1.58v-3.95h1.05a5.22,5.22,0,0,0,3.71-1.54,5.28,5.28,0,0,0,1.53-3.74,1,1,0,0,0-1-1.05H151a1,1,0,0,0-1.05,1.05v9.79c-4.38,1.31-6.6,3-6.6,5v19c0,1.61,1.42,3,4.23,4.17,4.52,1.87,11.33,2.71,16.24,3,2.08.13,4.22.2,6.36.2s4.27-.07,6.35-.2c4.86-.31,11.71-1.15,16.24-3,2.81-1.16,4.24-2.56,4.24-4.17v-19C197,406.41,194.82,404.73,190.44,403.42Zm0-8.73h4a3.18,3.18,0,0,1-.74,1.18,3.13,3.13,0,0,1-2.23.93h-1Zm-19.18-2.11h4a3.18,3.18,0,0,1-.74,1.18,3.13,3.13,0,0,1-2.23.93h-1Zm-19.19,2.11h4a3.32,3.32,0,0,1-.74,1.18,3.13,3.13,0,0,1-2.23.93h-1.05Zm25.84,8.75a67.71,67.71,0,0,1,9.3,1.32l-4.65,3.35c-2.16-.3-4.66-.52-7.32-.64Zm-7.7-.31c1.77,0,3.54.05,5.28.14l-2.72,4.12c-1.69,0-3.44,0-5.13,0l-2.72-4.12C166.66,403.18,168.43,403.13,170.21,403.13Zm-7.7.31,2.67,4c-2.67.12-5.16.34-7.32.64l-4.65-3.35A67.48,67.48,0,0,1,162.51,403.44Zm-12,2,4.39,3.16a19.16,19.16,0,0,0-2.48.67c-.93.33-2.15.89-2.4,2-3.55-1.14-4.59-2.28-4.59-2.82S146.56,406.64,150.55,405.45Zm5.72,26.2c-7.84-1.28-10.8-3.25-10.8-4.24v-3.28a13.23,13.23,0,0,0,2.17,1.11,40.93,40.93,0,0,0,8.63,2.2Zm0-6.35a37.79,37.79,0,0,1-7.84-2c-2.18-.89-3-1.74-3-2.2v-3.27a13.25,13.25,0,0,0,2.14,1.11,40.33,40.33,0,0,0,8.66,2.2Zm0-6.32c-7.84-1.27-10.8-3.24-10.8-4.23v-3.26a22.67,22.67,0,0,0,7.21,2.62c1.12.25,2.32.48,3.59.67Zm6.6,13.44c-1.55-.12-3.06-.27-4.51-.46v-4.22c1.45.19,3,.34,4.51.46Zm.12-6.33c-1.6-.12-3.15-.28-4.63-.48v-4.19c2.17.27,4.48.47,6.84.59l-.1.1A7.38,7.38,0,0,0,163,426.09Zm-4.63-6.8v-4.21a94.41,94.41,0,0,0,10.8.72V420A91.69,91.69,0,0,1,158.36,419.29Zm17.09,13.26c-1.38.08-2.79.12-4.19.13v-3.16a1,1,0,0,0-2.1,0v3.16c-1.41,0-2.81-.05-4.19-.13v-5.3a5.23,5.23,0,0,1,5.24-5.11,5.16,5.16,0,0,1,3.7,1.54,5.3,5.3,0,0,1,1.54,3.57v5.3Zm6.6-.59c-1.44.19-3,.34-4.51.46V428.2c1.56-.12,3.07-.27,4.51-.46Zm0-6.35c-1.48.2-3,.36-4.62.48a7.44,7.44,0,0,0-2-3.9l-.19-.18c2.37-.12,4.67-.32,6.84-.59v4.19Zm0-6.32a91.52,91.52,0,0,1-10.79.73V415.8a94.23,94.23,0,0,0,10.79-.72Zm-11.84-5.6a91.25,91.25,0,0,1-12.74-.86c-1.41-.2-2.75-.44-4-.71a1.11,1.11,0,0,0-.19-.09,5.92,5.92,0,0,1-.91-.42c2.78-1.52,11.54-2,14.74-2.1,2-.06,4.15-.06,6.17,0a84,84,0,0,1,9.42.75,16.85,16.85,0,0,1,5.32,1.36,8.11,8.11,0,0,1-1.29.55c-1.19.25-2.46.47-3.79.66A91.25,91.25,0,0,1,170.21,413.69Zm24.73,13.72c0,1-2.95,3-10.79,4.24v-4.21a41,41,0,0,0,8.62-2.2,12.83,12.83,0,0,0,2.17-1.11Zm0-6.33c0,.46-.77,1.31-3,2.2a37.85,37.85,0,0,1-7.83,2v-4.18a40.38,40.38,0,0,0,8.65-2.2,12.84,12.84,0,0,0,2.14-1.11Zm0-6.33c0,1-2.95,3-10.79,4.23v-4.19c3.21-.51,8.08-1.52,10.79-3.3Zm-4.59-3.52c-.25-1.07-1.51-1.63-2.47-2a18.53,18.53,0,0,0-2.41-.65l4.39-3.16c4,1.19,5.08,2.41,5.08,3S193.9,410.1,190.35,411.23Z"/><path class="cls-3" d="M215.94,416.92h-4.45v4.63h-2.32V410.22h7.33v1.89h-5V415h4.45Z"/><path class="cls-3" d="M226.36,410.22v7.46a3.83,3.83,0,0,1-1.15,2.94,5.18,5.18,0,0,1-6.29,0,3.75,3.75,0,0,1-1.18-2.88v-7.55h2.32v7.48a2.14,2.14,0,0,0,.53,1.62,2,2,0,0,0,1.46.51c1.3,0,2-.69,2-2.07v-7.54Z"/><path class="cls-3" d="M231.79,417l-1.21,1.31v3.24h-2.32V410.22h2.32v5.13l1-1.41,2.87-3.72h2.85l-4,5,4.12,6.3h-2.76Z"/><path class="cls-3" d="M246.82,410.22v7.46a3.83,3.83,0,0,1-1.15,2.94,4.44,4.44,0,0,1-3.16,1.08,4.51,4.51,0,0,1-3.13-1.05,3.78,3.78,0,0,1-1.18-2.88v-7.55h2.32v7.48a2.18,2.18,0,0,0,.53,1.62,2,2,0,0,0,1.46.51c1.31,0,2-.69,2-2.07v-7.54Z"/><path class="cls-3" d="M258,416.14a6.9,6.9,0,0,1-.59,2.93A4.46,4.46,0,0,1,255.7,421a5,5,0,0,1-5,0,4.42,4.42,0,0,1-1.7-1.94,6.5,6.5,0,0,1-.61-2.89v-.56a7,7,0,0,1,.59-2.94,4.54,4.54,0,0,1,1.7-2,4.94,4.94,0,0,1,5,0,4.52,4.52,0,0,1,1.69,2,6.75,6.75,0,0,1,.6,2.93Zm-2.35-.52a4.7,4.7,0,0,0-.64-2.7,2.21,2.21,0,0,0-3.6,0,4.68,4.68,0,0,0-.65,2.68v.55a4.86,4.86,0,0,0,.64,2.69,2.2,2.2,0,0,0,3.61,0,4.85,4.85,0,0,0,.64-2.69Z"/><path class="cls-3" d="M263.18,417,262,418.31v3.24h-2.32V410.22H262v5.13l1-1.41,2.87-3.72h2.85l-4,5,4.12,6.3h-2.76Z"/><path class="cls-3" d="M276.05,419.21H272l-.78,2.34h-2.46l4.19-11.33h2.14l4.22,11.33h-2.47Zm-3.44-1.89h2.81L274,413.08Z"/><path class="cls-3" d="M293.45,421.55h-2.32v-4.86h-4.52v4.86h-2.32V410.22h2.32v4.59h4.52v-4.59h2.32Z"/><path class="cls-3" d="M302,419.21H297.9l-.78,2.34h-2.46l4.19-11.33H301l4.21,11.33h-2.47Zm-3.44-1.89h2.82l-1.42-4.24Z"/><path class="cls-3" d="M309.78,417l-1.2,1.31v3.24h-2.32V410.22h2.32v5.13l1-1.41,2.86-3.72h2.85l-4,5,4.11,6.3h-2.76Z"/><path class="cls-3" d="M322.66,419.21h-4.07l-.77,2.34h-2.47l4.19-11.33h2.15l4.21,11.33h-2.46Zm-3.44-1.89H322l-1.41-4.24Z"/><path class="cls-3" d="M334.5,412.11h-3.45v9.44h-2.32v-9.44h-3.4v-1.89h9.17Z"/><path class="cls-3" d="M341.24,419.21h-4.06l-.78,2.34h-2.46l4.19-11.33h2.15l4.21,11.33H342Zm-3.44-1.89h2.82l-1.42-4.24Z"/><path class="cls-3" d="M354.69,421.55h-2.32l-4.51-7.46v7.46h-2.32V410.22h2.32l4.52,7.47v-7.47h2.31Z"/><path class="cls-3" d="M366,416.14a6.9,6.9,0,0,1-.59,2.93,4.46,4.46,0,0,1-1.68,1.95,4.61,4.61,0,0,1-2.51.68,4.7,4.7,0,0,1-2.5-.67,4.48,4.48,0,0,1-1.7-1.94,6.78,6.78,0,0,1-.61-2.89v-.56a6.8,6.8,0,0,1,.6-2.94,4.52,4.52,0,0,1,1.69-2,4.94,4.94,0,0,1,5,0,4.54,4.54,0,0,1,1.7,2,6.9,6.9,0,0,1,.6,2.93Zm-2.35-.52a4.78,4.78,0,0,0-.64-2.7,2.05,2.05,0,0,0-1.81-.93,2.08,2.08,0,0,0-1.8.92,4.77,4.77,0,0,0-.64,2.68v.55a4.78,4.78,0,0,0,.64,2.69,2.2,2.2,0,0,0,3.61,0,4.85,4.85,0,0,0,.64-2.69Z"/><path class="cls-3" d="M370.67,410.22l2.89,8.21,2.87-8.21h3.05v11.33h-2.33v-3.1l.23-5.35-3,8.45h-1.6l-3-8.44.23,5.34v3.1h-2.32V410.22Z"/><path class="cls-3" d="M390.75,416.14a6.9,6.9,0,0,1-.59,2.93,4.46,4.46,0,0,1-1.68,1.95,4.61,4.61,0,0,1-2.51.68,4.7,4.7,0,0,1-2.5-.67,4.48,4.48,0,0,1-1.7-1.94,6.78,6.78,0,0,1-.61-2.89v-.56a6.8,6.8,0,0,1,.6-2.94,4.52,4.52,0,0,1,1.69-2,4.94,4.94,0,0,1,5,0,4.54,4.54,0,0,1,1.7,2,6.9,6.9,0,0,1,.6,2.93Zm-2.35-.52a4.78,4.78,0,0,0-.64-2.7A2.05,2.05,0,0,0,386,412a2.08,2.08,0,0,0-1.8.92,4.77,4.77,0,0,0-.64,2.68v.55a4.78,4.78,0,0,0,.64,2.69,2.2,2.2,0,0,0,3.61,0,4.85,4.85,0,0,0,.64-2.69Z"/><path class="cls-3" d="M396.6,417.4h-1.85v4.15h-2.32V410.22h4.18a4.69,4.69,0,0,1,3.08.89,3.11,3.11,0,0,1,1.08,2.53,3.5,3.5,0,0,1-.5,1.93,3.43,3.43,0,0,1-1.51,1.24l2.43,4.63v.11h-2.48Zm-1.85-1.89h1.87a1.9,1.9,0,0,0,1.35-.45,1.6,1.6,0,0,0,.48-1.23,1.7,1.7,0,0,0-.45-1.26,1.87,1.87,0,0,0-1.39-.46h-1.86Z"/><path class="cls-3" d="M405,421.55h-2.32V410.22H405Z"/><path class="cls-3" d="M416.92,418.58a1.21,1.21,0,0,0-.46-1,6,6,0,0,0-1.67-.75,11.86,11.86,0,0,1-1.91-.77,3.14,3.14,0,0,1-1.92-2.81,2.77,2.77,0,0,1,.51-1.64,3.51,3.51,0,0,1,1.48-1.13,5.69,5.69,0,0,1,2.16-.4,5.1,5.1,0,0,1,2.15.44,3.37,3.37,0,0,1,1.46,1.24,3.26,3.26,0,0,1,.53,1.82h-2.32a1.55,1.55,0,0,0-.49-1.21,2,2,0,0,0-1.37-.43,2.14,2.14,0,0,0-1.32.36,1.16,1.16,0,0,0-.47,1,1.09,1.09,0,0,0,.55.92,6.26,6.26,0,0,0,1.63.7,7,7,0,0,1,2.88,1.49,3,3,0,0,1,.91,2.21,2.74,2.74,0,0,1-1.11,2.31,4.87,4.87,0,0,1-3,.83,5.7,5.7,0,0,1-2.37-.48,3.7,3.7,0,0,1-1.63-1.31,3.39,3.39,0,0,1-.56-1.93h2.33c0,1.25.74,1.88,2.23,1.88a2.13,2.13,0,0,0,1.29-.34A1.12,1.12,0,0,0,416.92,418.58Z"/><path class="cls-3" d="M429.28,412.11h-3.44v9.44h-2.32v-9.44h-3.4v-1.89h9.16Z"/><path class="cls-3" d="M436,419.21H432l-.77,2.34h-2.46l4.19-11.33h2.14l4.22,11.33h-2.47Zm-3.44-1.89h2.81L434,413.08Z"/><path class="cls-3" d="M440.33,421.55V410.22h3.46a5.19,5.19,0,0,1,2.65.67,4.74,4.74,0,0,1,1.83,1.91,5.93,5.93,0,0,1,.66,2.82v.53a6,6,0,0,1-.65,2.81,4.57,4.57,0,0,1-1.82,1.9,5.34,5.34,0,0,1-2.65.69Zm2.31-9.44v7.56h1.12a2.52,2.52,0,0,0,2.08-.89,4.06,4.06,0,0,0,.74-2.56v-.6a4.15,4.15,0,0,0-.71-2.62,2.5,2.5,0,0,0-2.08-.89Z"/><path class="cls-3" d="M453.08,421.55h-2.32V410.22h2.32Z"/><path class="cls-3" d="M463.74,410.22v7.46a3.83,3.83,0,0,1-1.15,2.94,5.18,5.18,0,0,1-6.29,0,3.75,3.75,0,0,1-1.18-2.88v-7.55h2.32v7.48a2.18,2.18,0,0,0,.52,1.62,2.05,2.05,0,0,0,1.47.51c1.3,0,2-.69,2-2.07v-7.54Z"/><path class="cls-3" d="M468.67,410.22l2.89,8.21,2.88-8.21h3v11.33h-2.32v-3.1l.23-5.35-3,8.45h-1.59l-3-8.44.23,5.34v3.1h-2.32V410.22Z"/></g><g id="column_2" data-name="column 2"><rect class="cls-1" x="366.14" y="63.69" width="199.68" height="380.82"/><path d="M365.5,104.14h-1.41V97.87l-2.07.66v-1.1l3.3-1.12h.18Z"/><path d="M372.86,99a2.26,2.26,0,0,1,1.75-.74c1.33,0,2,.7,2,2.11v3.79h-1.41V100.4a1.09,1.09,0,0,0-.28-.85,1.24,1.24,0,0,0-.82-.25,1.39,1.39,0,0,0-1.27.7v4.14h-1.41V95.91h1.41Z"/><path d="M381.35,99.53a3.69,3.69,0,0,0-.58,0,1.3,1.3,0,0,0-1.3.69v4h-1.41v-5.8h1.35l0,.65a1.62,1.62,0,0,1,1.42-.75,1.37,1.37,0,0,1,.49.07Z"/><path d="M385.48,100.27l.46-3.93h4.53v1.12h-3.36l-.23,1.87A2.74,2.74,0,0,1,388.2,99a2.45,2.45,0,0,1,1.87.71,2.69,2.69,0,0,1,.67,1.92,2.45,2.45,0,0,1-.74,1.89,2.82,2.82,0,0,1-2,.71,3,3,0,0,1-1.93-.61,2.14,2.14,0,0,1-.82-1.6h1.36a1.35,1.35,0,0,0,.44.87,1.41,1.41,0,0,0,.94.3,1.24,1.24,0,0,0,1-.43,1.74,1.74,0,0,0,.36-1.17,1.52,1.52,0,0,0-.4-1.12,1.43,1.43,0,0,0-1.1-.42,2.08,2.08,0,0,0-.65.09,2.21,2.21,0,0,0-.58.37Z"/><path d="M397.35,100.86a4,4,0,0,1-.68,2.53,2.95,2.95,0,0,1-4.13,0,3.81,3.81,0,0,1-.71-2.47V99.6a3.94,3.94,0,0,1,.68-2.53,2.5,2.5,0,0,1,2.08-.84,2.54,2.54,0,0,1,2.06.82,3.82,3.82,0,0,1,.7,2.46Zm-1.41-1.46a3.16,3.16,0,0,0-.32-1.61,1.14,1.14,0,0,0-1-.51,1.15,1.15,0,0,0-1,.48,2.85,2.85,0,0,0-.34,1.52V101a3.16,3.16,0,0,0,.33,1.63,1.13,1.13,0,0,0,1,.54,1.12,1.12,0,0,0,1-.5,2.92,2.92,0,0,0,.34-1.55Z"/><path d="M403,98.34l0,.61a2.31,2.31,0,0,1,1.8-.71,1.76,1.76,0,0,1,1.73.89,2.25,2.25,0,0,1,1.92-.89,2,2,0,0,1,1.54.53,2.16,2.16,0,0,1,.52,1.56v3.81h-1.4v-3.77a1.07,1.07,0,0,0-.27-.81,1.19,1.19,0,0,0-.86-.26,1.19,1.19,0,0,0-1.21.87v4h-1.41v-3.81c0-.69-.4-1-1.13-1a1.26,1.26,0,0,0-1.2.64v4.2h-1.41v-5.8Z"/><path d="M412,96.84a.66.66,0,0,1,.21-.5.83.83,0,0,1,.59-.2.84.84,0,0,1,.59.2.69.69,0,0,1,0,1,.84.84,0,0,1-.59.19.82.82,0,0,1-.59-.19A.65.65,0,0,1,412,96.84Zm1.5,7.3h-1.41v-5.8h1.41Z"/><path d="M416.31,98.34l0,.67a2.34,2.34,0,0,1,1.82-.77c1.31,0,2,.69,2,2.07v3.83h-1.41v-3.75a1.15,1.15,0,0,0-.26-.82,1.11,1.11,0,0,0-.84-.27,1.37,1.37,0,0,0-1.27.72v4.12H415v-5.8Z"/><path d="M425.12,102.57a.58.58,0,0,0-.31-.53,3.75,3.75,0,0,0-1-.33,5.59,5.59,0,0,1-1.2-.35,1.44,1.44,0,0,1-.37-2.62,2.8,2.8,0,0,1,1.74-.5,3,3,0,0,1,1.81.51,1.58,1.58,0,0,1,.7,1.34h-1.41a.8.8,0,0,0-.3-.63,1.2,1.2,0,0,0-.8-.25,1.36,1.36,0,0,0-.76.2.62.62,0,0,0-.29.53.53.53,0,0,0,.27.47,3.94,3.94,0,0,0,1.1.33,5.61,5.61,0,0,1,1.3.4,1.86,1.86,0,0,1,.7.56,1.32,1.32,0,0,1,.23.8,1.46,1.46,0,0,1-.7,1.26,3.13,3.13,0,0,1-1.84.49,3.49,3.49,0,0,1-1.37-.26,2.35,2.35,0,0,1-.94-.7,1.62,1.62,0,0,1-.33-1h1.36a.92.92,0,0,0,.38.71,1.59,1.59,0,0,0,.92.24,1.55,1.55,0,0,0,.85-.19A.6.6,0,0,0,425.12,102.57Z"/><path d="M433.42,101.35h-3.05v-1h3.05Z"/><path d="M443.12,104.14h-5.67v-.89l2.81-2.84a6.78,6.78,0,0,0,.86-1,1.68,1.68,0,0,0,.26-.85,1.17,1.17,0,0,0-1.25-1.24,1.43,1.43,0,0,0-1.06.38,1.46,1.46,0,0,0-.38,1.06h-1.41a2.41,2.41,0,0,1,.35-1.28,2.31,2.31,0,0,1,1-.89,3.38,3.38,0,0,1,1.5-.32,3,3,0,0,1,1.94.57,1.93,1.93,0,0,1,.71,1.58,2.53,2.53,0,0,1-.36,1.23,6.6,6.6,0,0,1-1.17,1.45l-2.06,2h3.92Z"/><path d="M448.63,99a2.25,2.25,0,0,1,1.74-.74c1.34,0,2,.7,2,2.11v3.79H451V100.4a1.09,1.09,0,0,0-.29-.85,1.22,1.22,0,0,0-.82-.25,1.37,1.37,0,0,0-1.26.7v4.14h-1.41V95.91h1.41Z"/><path d="M457.11,99.53a3.64,3.64,0,0,0-.57,0,1.32,1.32,0,0,0-1.31.69v4h-1.41v-5.8h1.35l0,.65a1.62,1.62,0,0,1,1.42-.75,1.47,1.47,0,0,1,.5.07Z"/><path d="M461.51,102.57a.57.57,0,0,0-.3-.53,3.75,3.75,0,0,0-1-.33,5.59,5.59,0,0,1-1.2-.35,1.48,1.48,0,0,1-1.06-1.37,1.5,1.5,0,0,1,.69-1.25,2.79,2.79,0,0,1,1.73-.5,3,3,0,0,1,1.82.51,1.59,1.59,0,0,1,.69,1.34h-1.4a.81.81,0,0,0-.31-.63,1.18,1.18,0,0,0-.8-.25,1.33,1.33,0,0,0-.75.2.61.61,0,0,0-.3.53.53.53,0,0,0,.28.47,3.94,3.94,0,0,0,1.1.33,5.61,5.61,0,0,1,1.3.4,1.86,1.86,0,0,1,.7.56,1.4,1.4,0,0,1,.23.8,1.46,1.46,0,0,1-.7,1.26,3.13,3.13,0,0,1-1.84.49A3.49,3.49,0,0,1,459,104a2.28,2.28,0,0,1-.94-.7,1.64,1.64,0,0,1-.34-1h1.37a.92.92,0,0,0,.38.71,1.59,1.59,0,0,0,.92.24,1.55,1.55,0,0,0,.85-.19A.59.59,0,0,0,461.51,102.57Z"/><path d="M470.81,104.14H469.4V97.87l-2.07.66v-1.1l3.3-1.12h.18Z"/><path d="M479.24,100.86a4,4,0,0,1-.68,2.53,2.5,2.5,0,0,1-2.07.86,2.56,2.56,0,0,1-2.07-.83,3.93,3.93,0,0,1-.71-2.47V99.6a3.94,3.94,0,0,1,.69-2.53,2.5,2.5,0,0,1,2.07-.84,2.55,2.55,0,0,1,2.07.82,3.88,3.88,0,0,1,.7,2.46Zm-1.41-1.46a3.16,3.16,0,0,0-.32-1.61,1.31,1.31,0,0,0-2.05,0,2.85,2.85,0,0,0-.34,1.52V101a3.16,3.16,0,0,0,.33,1.63,1.26,1.26,0,0,0,2,0,3,3,0,0,0,.34-1.55Z"/><path d="M484.85,98.34l0,.61a2.31,2.31,0,0,1,1.8-.71,1.74,1.74,0,0,1,1.72.89,2.28,2.28,0,0,1,1.93-.89,2,2,0,0,1,1.54.53,2.2,2.2,0,0,1,.52,1.56v3.81H491v-3.77a1.07,1.07,0,0,0-.26-.81,1.19,1.19,0,0,0-.86-.26,1.17,1.17,0,0,0-1.21.87v4h-1.4v-3.81c0-.69-.4-1-1.13-1a1.26,1.26,0,0,0-1.2.64v4.2h-1.41v-5.8Z"/><path d="M493.86,96.84a.66.66,0,0,1,.21-.5.81.81,0,0,1,.59-.2.84.84,0,0,1,.59.2.69.69,0,0,1,0,1,.84.84,0,0,1-.59.19.81.81,0,0,1-.59-.19A.65.65,0,0,1,493.86,96.84Zm1.5,7.3H494v-5.8h1.41Z"/><path d="M498.2,98.34l0,.67a2.34,2.34,0,0,1,1.82-.77c1.31,0,2,.69,2,2.07v3.83h-1.41v-3.75a1.15,1.15,0,0,0-.26-.82,1.11,1.11,0,0,0-.84-.27,1.37,1.37,0,0,0-1.27.72v4.12h-1.41v-5.8Z"/><path d="M507,102.57a.58.58,0,0,0-.31-.53,3.75,3.75,0,0,0-1-.33,5.59,5.59,0,0,1-1.2-.35,1.48,1.48,0,0,1-1.06-1.37,1.5,1.5,0,0,1,.69-1.25,2.8,2.8,0,0,1,1.74-.5,3,3,0,0,1,1.81.51,1.59,1.59,0,0,1,.69,1.34h-1.4a.8.8,0,0,0-.3-.63,1.22,1.22,0,0,0-.8-.25,1.34,1.34,0,0,0-.76.2.6.6,0,0,0-.29.53.53.53,0,0,0,.27.47,3.94,3.94,0,0,0,1.1.33,5.61,5.61,0,0,1,1.3.4,1.86,1.86,0,0,1,.7.56,1.32,1.32,0,0,1,.23.8,1.46,1.46,0,0,1-.7,1.26,3.13,3.13,0,0,1-1.84.49,3.49,3.49,0,0,1-1.37-.26,2.28,2.28,0,0,1-.94-.7,1.64,1.64,0,0,1-.34-1h1.37a.92.92,0,0,0,.38.71,1.59,1.59,0,0,0,.92.24,1.55,1.55,0,0,0,.85-.19A.6.6,0,0,0,507,102.57Z"/><path d="M512.31,101.19a3.27,3.27,0,0,1,.36-1.54,2.67,2.67,0,0,1,1-1.05,3.13,3.13,0,0,1,1.52-.36,2.74,2.74,0,0,1,2.91,2.76v.3a3.2,3.2,0,0,1-.36,1.53,2.41,2.41,0,0,1-1,1,3,3,0,0,1-1.53.37,2.81,2.81,0,0,1-2.12-.82,3,3,0,0,1-.8-2.18Zm1.41.11a2.16,2.16,0,0,0,.4,1.4,1.46,1.46,0,0,0,2.22,0,2.43,2.43,0,0,0,.4-1.51,2.17,2.17,0,0,0-.41-1.39,1.44,1.44,0,0,0-2.21,0A2.39,2.39,0,0,0,513.72,101.3Z"/><path d="M520.64,98.34l0,.67a2.34,2.34,0,0,1,1.82-.77c1.31,0,2,.69,2,2.07v3.83h-1.41v-3.75a1.15,1.15,0,0,0-.26-.82,1.11,1.11,0,0,0-.84-.27,1.37,1.37,0,0,0-1.27.72v4.12h-1.41v-5.8Z"/><path d="M532.63,104.14a2.09,2.09,0,0,1-.16-.54,2.28,2.28,0,0,1-1.64.65,2.36,2.36,0,0,1-1.55-.5,1.55,1.55,0,0,1-.59-1.23,1.61,1.61,0,0,1,.74-1.42,3.85,3.85,0,0,1,2.13-.5h.87v-.38a.94.94,0,0,0-.28-.72,1.11,1.11,0,0,0-.82-.27,1.28,1.28,0,0,0-.79.22.67.67,0,0,0-.31.57h-1.41a1.39,1.39,0,0,1,.34-.9,2.39,2.39,0,0,1,.93-.65,3.69,3.69,0,0,1,1.32-.23,2.76,2.76,0,0,1,1.75.51,1.75,1.75,0,0,1,.67,1.44v2.61a2.75,2.75,0,0,0,.24,1.25v.09Zm-1.54-.93a1.73,1.73,0,0,0,.78-.19,1.39,1.39,0,0,0,.56-.51v-1.09h-.76a2.2,2.2,0,0,0-1.18.25.81.81,0,0,0-.39.71.74.74,0,0,0,.27.6A1.07,1.07,0,0,0,531.09,103.21Z"/><path d="M535.31,96.84a.66.66,0,0,1,.21-.5.83.83,0,0,1,.59-.2.84.84,0,0,1,.59.2.69.69,0,0,1,0,1,.84.84,0,0,1-.59.19.82.82,0,0,1-.59-.19A.65.65,0,0,1,535.31,96.84Zm1.5,7.3H535.4v-5.8h1.41Z"/><path d="M541.62,99.53a3.48,3.48,0,0,0-.57,0,1.3,1.3,0,0,0-1.3.69v4h-1.41v-5.8h1.34l0,.65a1.61,1.61,0,0,1,1.41-.75,1.43,1.43,0,0,1,.5.07Z"/><path d="M548,101.3a3.23,3.23,0,0,1-.66,2.15,2.41,2.41,0,0,1-3.42.17v2.75h-1.41v-8h1.3l.06.59a2.14,2.14,0,0,1,1.68-.69,2.18,2.18,0,0,1,1.8.79,3.31,3.31,0,0,1,.65,2.19Zm-1.4-.11a2.28,2.28,0,0,0-.37-1.38,1.25,1.25,0,0,0-1.07-.51,1.31,1.31,0,0,0-1.24.66v2.58a1.32,1.32,0,0,0,1.25.67,1.25,1.25,0,0,0,1.05-.5A2.45,2.45,0,0,0,546.6,101.19Z"/><path d="M550.69,104.14h-1.4V95.91h1.4Z"/><path d="M556,104.14a2.09,2.09,0,0,1-.16-.54,2.28,2.28,0,0,1-1.64.65,2.36,2.36,0,0,1-1.55-.5,1.55,1.55,0,0,1-.59-1.23,1.61,1.61,0,0,1,.74-1.42,3.85,3.85,0,0,1,2.13-.5h.87v-.38a1,1,0,0,0-.28-.72,1.11,1.11,0,0,0-.82-.27,1.28,1.28,0,0,0-.79.22.67.67,0,0,0-.31.57h-1.41a1.39,1.39,0,0,1,.34-.9,2.39,2.39,0,0,1,.93-.65,3.69,3.69,0,0,1,1.32-.23,2.76,2.76,0,0,1,1.75.51,1.75,1.75,0,0,1,.67,1.44v2.61a2.75,2.75,0,0,0,.24,1.25v.09Zm-1.54-.93a1.73,1.73,0,0,0,.78-.19,1.39,1.39,0,0,0,.56-.51v-1.09H555a2.2,2.2,0,0,0-1.18.25.81.81,0,0,0-.39.71.74.74,0,0,0,.27.6A1.07,1.07,0,0,0,554.43,103.21Z"/><path d="M560,98.34l0,.67a2.34,2.34,0,0,1,1.82-.77c1.31,0,2,.69,2,2.07v3.83h-1.41v-3.75a1.15,1.15,0,0,0-.26-.82,1.11,1.11,0,0,0-.84-.27A1.37,1.37,0,0,0,560,100v4.12h-1.41v-5.8Z"/><path d="M568,104.25a3.06,3.06,0,0,1-2.17-.78,2.73,2.73,0,0,1-.83-2.08v-.16a3.28,3.28,0,0,1,.36-1.55,2.6,2.6,0,0,1,1-1.06,2.79,2.79,0,0,1,1.46-.38,2.59,2.59,0,0,1,2,.75,3.08,3.08,0,0,1,.7,2.14v.53h-4.1a1.69,1.69,0,0,0,.52,1.13,1.61,1.61,0,0,0,1.14.42,2,2,0,0,0,1.58-.72l.76.67a2.52,2.52,0,0,1-1,.8A3.38,3.38,0,0,1,568,104.25Zm-.17-5a1.24,1.24,0,0,0-.93.38,1.89,1.89,0,0,0-.46,1h2.69v-.09a1.5,1.5,0,0,0-.38-1A1.21,1.21,0,0,0,567.84,99.28Z"/><path class="cls-4" d="M359.21,80.88h-2V77h-4v3.9h-2v-9.1h2v3.69h4V71.78h2Z"/><path class="cls-4" d="M366.66,79H363.1l-.67,1.88h-2.16l3.66-9.1h1.88l3.69,9.1h-2.16Zm-3-1.51h2.46l-1.23-3.41Z"/><path class="cls-4" d="M378.42,80.88h-2l-3.95-6v6h-2v-9.1h2l3.95,6v-6h2Z"/><path class="cls-4" d="M386.12,76.94h-3.9v2.43h4.58v1.51h-6.6v-9.1h6.58V73.3h-4.56v2.17h3.9Z"/><path class="cls-4" d="M388,80.88v-9.1h3a4.9,4.9,0,0,1,2.32.54,4,4,0,0,1,1.6,1.54,4.46,4.46,0,0,1,.57,2.26v.42A4.54,4.54,0,0,1,395,78.8a3.91,3.91,0,0,1-1.59,1.53,4.93,4.93,0,0,1-2.32.55Zm2-7.58v6.07h1a2.28,2.28,0,0,0,1.81-.71,3.1,3.1,0,0,0,.65-2.06v-.48a3.16,3.16,0,0,0-.62-2.11A2.32,2.32,0,0,0,391,73.3Z"/><path class="cls-4" d="M402.54,79H399l-.68,1.88h-2.16l3.67-9.1h1.88l3.68,9.1h-2.15Zm-3-1.51H402l-1.24-3.41Z"/><path class="cls-4" d="M415.31,79h-3.56l-.67,1.88h-2.16l3.67-9.1h1.87l3.69,9.1H416Zm-3-1.51h2.46l-1.23-3.41Z"/><path class="cls-4" d="M421.23,80.88h-2v-9.1h2Z"/><path class="cls-4" d="M426.75,77.55h-1.62v3.33h-2v-9.1h3.65a4.4,4.4,0,0,1,2.7.72,2.39,2.39,0,0,1,.94,2,2.62,2.62,0,0,1-.43,1.55,2.83,2.83,0,0,1-1.33,1l2.13,3.72v.09H428.6ZM425.13,76h1.64a1.8,1.8,0,0,0,1.19-.36,1.26,1.26,0,0,0,.41-1,1.31,1.31,0,0,0-.39-1,1.73,1.73,0,0,0-1.22-.37h-1.63Z"/><path class="cls-4" d="M434,77.67v3.21h-2v-9.1h3.85a4.81,4.81,0,0,1,1.95.37A2.92,2.92,0,0,1,439,73.22a2.8,2.8,0,0,1,.45,1.57,2.53,2.53,0,0,1-1,2.11,4.31,4.31,0,0,1-2.74.77Zm0-1.52h1.82A1.83,1.83,0,0,0,437,75.8a1.22,1.22,0,0,0,.42-1,1.46,1.46,0,0,0-.42-1.08,1.66,1.66,0,0,0-1.18-.42H434Z"/><path class="cls-4" d="M449,76.54a5.15,5.15,0,0,1-.51,2.35A3.66,3.66,0,0,1,447,80.46a4.64,4.64,0,0,1-4.38,0,3.71,3.71,0,0,1-1.49-1.55,5,5,0,0,1-.53-2.33v-.44a5.11,5.11,0,0,1,.52-2.37,3.75,3.75,0,0,1,1.48-1.57,4.64,4.64,0,0,1,4.38,0,3.68,3.68,0,0,1,1.48,1.57,5.09,5.09,0,0,1,.52,2.36Zm-2-.42a3.58,3.58,0,0,0-.56-2.17,2,2,0,0,0-3.15,0,3.6,3.6,0,0,0-.57,2.15v.45a3.65,3.65,0,0,0,.56,2.16,2,2,0,0,0,3.16,0,3.66,3.66,0,0,0,.56-2.16Z"/><path class="cls-4" d="M454.08,77.55h-1.61v3.33h-2v-9.1h3.66a4.37,4.37,0,0,1,2.69.72,2.39,2.39,0,0,1,.94,2,2.62,2.62,0,0,1-.43,1.55,2.85,2.85,0,0,1-1.32,1l2.13,3.72v.09h-2.18ZM452.47,76h1.63a1.78,1.78,0,0,0,1.19-.36,1.23,1.23,0,0,0,.42-1,1.32,1.32,0,0,0-.4-1,1.7,1.7,0,0,0-1.21-.37h-1.63Z"/><path class="cls-4" d="M466.35,73.3h-3v7.58h-2V73.3h-3V71.78h8Z"/><path class="cls-4" d="M468,81.66h-1.45l3.62-9.88h1.46Z"/><path class="cls-4" d="M480.68,80.88h-2l-3.94-6v6h-2v-9.1h2l4,6v-6h2Z"/><path class="cls-4" d="M488,79h-3.55l-.68,1.88h-2.16l3.67-9.1h1.88l3.68,9.1H488.7Zm-3-1.51h2.46l-1.23-3.41Z"/><path class="cls-4" d="M495.42,77.55H493.8v3.33h-2v-9.1h3.66a4.37,4.37,0,0,1,2.69.72,2.4,2.4,0,0,1,.95,2,2.63,2.63,0,0,1-.44,1.55,2.85,2.85,0,0,1-1.32,1l2.13,3.72v.09h-2.18ZM493.8,76h1.64a1.75,1.75,0,0,0,1.18-.36,1.23,1.23,0,0,0,.42-1,1.28,1.28,0,0,0-.4-1,1.7,1.7,0,0,0-1.21-.37H493.8Z"/><path class="cls-4" d="M502.77,80.88h-2v-9.1h2Z"/><path class="cls-4" d="M512.06,73.3h-3v7.58h-2V73.3h-3V71.78h8Z"/><path class="cls-4" d="M518,79H514.4l-.67,1.88h-2.16l3.67-9.1h1.88l3.68,9.1h-2.16Zm-3-1.51h2.46l-1.23-3.41Z"/><path class="cls-4" d="M530.73,79h-3.56l-.68,1.88h-2.15l3.66-9.1h1.88l3.69,9.1h-2.16Zm-3-1.51h2.46l-1.24-3.41Z"/><path class="cls-4" d="M536.64,80.88h-2v-9.1h2Z"/><path class="cls-4" d="M542.17,77.55h-1.62v3.33h-2v-9.1h3.66a4.37,4.37,0,0,1,2.69.72,2.4,2.4,0,0,1,1,2,2.63,2.63,0,0,1-.44,1.55,2.85,2.85,0,0,1-1.32,1l2.13,3.72v.09H544ZM540.55,76h1.64a1.75,1.75,0,0,0,1.18-.36,1.23,1.23,0,0,0,.42-1,1.28,1.28,0,0,0-.4-1,1.69,1.69,0,0,0-1.21-.37h-1.63Z"/><path class="cls-4" d="M549.39,77.67v3.21h-2v-9.1h3.84a4.74,4.74,0,0,1,1.95.37,3,3,0,0,1,1.3,1.07,2.8,2.8,0,0,1,.45,1.57,2.53,2.53,0,0,1-1,2.11,4.31,4.31,0,0,1-2.74.77Zm0-1.52h1.81a1.84,1.84,0,0,0,1.23-.35,1.22,1.22,0,0,0,.42-1,1.43,1.43,0,0,0-.43-1.08,1.62,1.62,0,0,0-1.17-.42h-1.86Z"/><path class="cls-4" d="M564.38,76.54a5.15,5.15,0,0,1-.51,2.35,3.74,3.74,0,0,1-1.48,1.57,4.62,4.62,0,0,1-4.37,0,3.71,3.71,0,0,1-1.49-1.55,5.1,5.1,0,0,1-.54-2.33v-.44a5.11,5.11,0,0,1,.53-2.37A3.68,3.68,0,0,1,558,72.2a4.29,4.29,0,0,1,2.19-.55,4.23,4.23,0,0,1,2.18.55,3.71,3.71,0,0,1,1.49,1.57,5.22,5.22,0,0,1,.52,2.36Zm-2.06-.42a3.58,3.58,0,0,0-.55-2.17,2,2,0,0,0-3.16,0,3.53,3.53,0,0,0-.56,2.15v.45a3.73,3.73,0,0,0,.55,2.16,2,2,0,0,0,3.17,0,3.66,3.66,0,0,0,.55-2.16Z"/><path class="cls-4" d="M569.5,77.55h-1.62v3.33h-2v-9.1h3.66a4.37,4.37,0,0,1,2.69.72,2.4,2.4,0,0,1,.95,2,2.63,2.63,0,0,1-.44,1.55,2.85,2.85,0,0,1-1.32,1l2.13,3.72v.09h-2.18ZM567.88,76h1.64a1.75,1.75,0,0,0,1.18-.36,1.23,1.23,0,0,0,.42-1,1.31,1.31,0,0,0-.39-1,1.73,1.73,0,0,0-1.22-.37h-1.63Z"/><path class="cls-4" d="M581.76,73.3h-3v7.58h-2V73.3h-3V71.78h8Z"/></g><g id="column_1" data-name="column 1"><rect class="cls-1" x="2.21" y="63.69" width="199.68" height="380.82"/><path class="cls-4" d="M57.93,74.15h-3v8.26h-2V74.15h-3V72.5h8Z"/><path class="cls-4" d="M67,77.68a6.08,6.08,0,0,1-.51,2.57A4,4,0,0,1,65,82a4.06,4.06,0,0,1-2.2.6A4.12,4.12,0,0,1,60.62,82a3.93,3.93,0,0,1-1.49-1.7,5.78,5.78,0,0,1-.53-2.53v-.49a6,6,0,0,1,.52-2.57A3.83,3.83,0,0,1,60.6,73,4.3,4.3,0,0,1,65,73a3.89,3.89,0,0,1,1.48,1.71A6,6,0,0,1,67,77.24Zm-2-.45a4.19,4.19,0,0,0-.56-2.37,2,2,0,0,0-3.16,0,4.2,4.2,0,0,0-.56,2.35v.48A4.27,4.27,0,0,0,61.21,80a1.81,1.81,0,0,0,1.59.83,1.77,1.77,0,0,0,1.57-.8,4.24,4.24,0,0,0,.56-2.36Z"/><path class="cls-4" d="M71.54,78.44l-1.06,1.14v2.83h-2V72.5h2V77l.9-1.23,2.51-3.26h2.49l-3.5,4.4,3.6,5.51H74.07Z"/><path class="cls-4" d="M80.64,77l2-4.46h2.22l-3.24,6.32v3.59H79.61V78.82L76.38,72.5h2.23Z"/><path class="cls-4" d="M93.7,77.68a5.93,5.93,0,0,1-.52,2.57A3.88,3.88,0,0,1,91.71,82a4,4,0,0,1-2.19.6A4.07,4.07,0,0,1,87.34,82a3.87,3.87,0,0,1-1.49-1.7,5.92,5.92,0,0,1-.54-2.53v-.49a6,6,0,0,1,.53-2.57A3.83,3.83,0,0,1,87.32,73a4.28,4.28,0,0,1,4.37,0,3.83,3.83,0,0,1,1.48,1.71,6,6,0,0,1,.53,2.57Zm-2.06-.45a4.19,4.19,0,0,0-.55-2.37,2,2,0,0,0-3.16,0,4.12,4.12,0,0,0-.56,2.35v.48A4.27,4.27,0,0,0,87.92,80a1.81,1.81,0,0,0,1.6.83,1.78,1.78,0,0,0,1.57-.8,4.24,4.24,0,0,0,.55-2.36Z"/><path class="cls-4" d="M103.73,79.81a1.07,1.07,0,0,0-.41-.89,5.59,5.59,0,0,0-1.46-.65,10.71,10.71,0,0,1-1.67-.68,2.75,2.75,0,0,1-1.68-2.46A2.41,2.41,0,0,1,99,73.7a2.89,2.89,0,0,1,1.29-1,4.75,4.75,0,0,1,1.89-.36,4.33,4.33,0,0,1,1.88.39,3,3,0,0,1,1.28,1.08,2.83,2.83,0,0,1,.46,1.6h-2a1.34,1.34,0,0,0-.42-1.06,1.78,1.78,0,0,0-1.2-.38,1.82,1.82,0,0,0-1.16.32,1,1,0,0,0-.41.83A1,1,0,0,0,101,76a5.48,5.48,0,0,0,1.43.61,6.27,6.27,0,0,1,2.52,1.3,2.61,2.61,0,0,1,.79,1.94,2.38,2.38,0,0,1-1,2,4.18,4.18,0,0,1-2.6.73,5,5,0,0,1-2.07-.42A3.22,3.22,0,0,1,98.7,81a2.92,2.92,0,0,1-.49-1.69h2q0,1.65,2,1.65a1.87,1.87,0,0,0,1.13-.3A1,1,0,0,0,103.73,79.81Z"/><path class="cls-4" d="M114.54,74.15h-3v8.26h-2V74.15h-3V72.5h8Z"/><path class="cls-4" d="M120.45,80.37h-3.56l-.68,2h-2.15l3.66-9.91h1.88l3.69,9.91h-2.16Zm-3-1.65h2.46L118.66,75Z"/><path class="cls-4" d="M130.81,74.15h-3v8.26h-2V74.15h-3V72.5h8Z"/><path class="cls-4" d="M134.12,82.41h-2V72.5h2Z"/><path class="cls-4" d="M144.09,77.68a5.93,5.93,0,0,1-.52,2.57A3.88,3.88,0,0,1,142.1,82a4,4,0,0,1-2.19.6,4.13,4.13,0,0,1-2.19-.59,3.91,3.91,0,0,1-1.48-1.7,5.78,5.78,0,0,1-.54-2.53v-.49a6,6,0,0,1,.53-2.57A3.83,3.83,0,0,1,137.71,73a4.28,4.28,0,0,1,4.37,0,3.83,3.83,0,0,1,1.48,1.71,6,6,0,0,1,.53,2.57ZM142,77.23a4.19,4.19,0,0,0-.55-2.37,2,2,0,0,0-3.16,0,4.12,4.12,0,0,0-.56,2.35v.48a4.27,4.27,0,0,0,.55,2.36,1.81,1.81,0,0,0,1.6.83,1.78,1.78,0,0,0,1.57-.8,4.24,4.24,0,0,0,.55-2.36Z"/><path class="cls-4" d="M153.57,82.41h-2l-3.95-6.52v6.52h-2V72.5h2l4,6.54V72.5h2Z"/><path d="M58.86,103.54l.46-4.29h4.53v1.23H60.49l-.24,2a2.58,2.58,0,0,1,1.33-.34,2.34,2.34,0,0,1,1.87.78,3.05,3.05,0,0,1,.67,2.09,2.86,2.86,0,0,1-.74,2.06,2.71,2.71,0,0,1-2,.77,2.83,2.83,0,0,1-1.92-.66,2.41,2.41,0,0,1-.82-1.75H60a1.49,1.49,0,0,0,.44,1,1.38,1.38,0,0,0,.94.33,1.21,1.21,0,0,0,1-.47,2,2,0,0,0,.36-1.27,1.77,1.77,0,0,0-.4-1.23,1.4,1.4,0,0,0-1.1-.46,1.8,1.8,0,0,0-.65.11,1.84,1.84,0,0,0-.58.4Z"/><path d="M69.66,102.12a2.22,2.22,0,0,1,1.75-.8c1.33,0,2,.77,2,2.3v4.13H72v-4.07a1.25,1.25,0,0,0-.28-.93,1.15,1.15,0,0,0-.83-.27,1.35,1.35,0,0,0-1.26.76v4.51H68.25v-9h1.41Z"/><path d="M78.15,102.73a3.68,3.68,0,0,0-.58,0,1.29,1.29,0,0,0-1.3.75v4.32H74.86v-6.31H76.2l0,.7a1.58,1.58,0,0,1,1.41-.82,1.41,1.41,0,0,1,.5.08Z"/><path d="M82.55,106a.63.63,0,0,0-.31-.58,3.35,3.35,0,0,0-1-.35,5,5,0,0,1-1.2-.39A1.61,1.61,0,0,1,79,103.23a1.66,1.66,0,0,1,.68-1.36,2.69,2.69,0,0,1,1.74-.55,2.84,2.84,0,0,1,1.82.56,1.78,1.78,0,0,1,.69,1.45H82.48a.88.88,0,0,0-.3-.68,1.16,1.16,0,0,0-.8-.27,1.22,1.22,0,0,0-.76.22.68.68,0,0,0-.29.57.58.58,0,0,0,.27.51,3.94,3.94,0,0,0,1.1.37,4.88,4.88,0,0,1,1.3.44,1.86,1.86,0,0,1,.71.6,1.61,1.61,0,0,1,.23.87,1.65,1.65,0,0,1-.71,1.38,3,3,0,0,1-1.83.53,3.33,3.33,0,0,1-1.38-.28,2.4,2.4,0,0,1-.94-.77,1.87,1.87,0,0,1-.33-1.06h1.37a1,1,0,0,0,.37.77,1.46,1.46,0,0,0,.92.28,1.42,1.42,0,0,0,.85-.22A.67.67,0,0,0,82.55,106Z"/><path d="M91.84,107.75h-1.4v-6.83l-2.07.71v-1.19l3.29-1.22h.18Z"/><path d="M96.4,102.85h.86a1.52,1.52,0,0,0,1-.33,1.25,1.25,0,0,0,.38-1,1.32,1.32,0,0,0-.32-.94,1.27,1.27,0,0,0-1-.34,1.37,1.37,0,0,0-.94.33,1.12,1.12,0,0,0-.36.86H94.68a2.18,2.18,0,0,1,.35-1.19,2.3,2.3,0,0,1,1-.83,3.11,3.11,0,0,1,1.38-.3,2.9,2.9,0,0,1,2,.63,2.24,2.24,0,0,1,.73,1.78,1.79,1.79,0,0,1-.37,1.08,2.22,2.22,0,0,1-.93.76,2.14,2.14,0,0,1,1.06.75,2.1,2.1,0,0,1,.36,1.23,2.29,2.29,0,0,1-.78,1.82,3,3,0,0,1-2,.68,3,3,0,0,1-2-.66,2.14,2.14,0,0,1-.78-1.74H96a1.17,1.17,0,0,0,.37.91,1.4,1.4,0,0,0,1,.36,1.44,1.44,0,0,0,1-.36,1.31,1.31,0,0,0,.38-1,1.33,1.33,0,0,0-.4-1,1.63,1.63,0,0,0-1.17-.37H96.4Z"/><path d="M105.89,101.44l0,.65a2.26,2.26,0,0,1,1.81-.77,1.72,1.72,0,0,1,1.72,1,2.22,2.22,0,0,1,1.92-1,1.94,1.94,0,0,1,1.55.58,2.54,2.54,0,0,1,.52,1.7v4.15H112v-4.11a1.28,1.28,0,0,0-.26-.88,1.13,1.13,0,0,0-.86-.28,1.17,1.17,0,0,0-.79.26,1.38,1.38,0,0,0-.43.68v4.33H108.3v-4.16a1,1,0,0,0-1.13-1.11,1.25,1.25,0,0,0-1.2.69v4.58h-1.41v-6.31Z"/><path d="M114.9,99.79a.76.76,0,0,1,.2-.54.8.8,0,0,1,.59-.21.79.79,0,0,1,.59.21.76.76,0,0,1,.21.54.73.73,0,0,1-.21.54.79.79,0,0,1-.59.21.8.8,0,0,1-.59-.21A.72.72,0,0,1,114.9,99.79Zm1.49,8H115v-6.31h1.41Z"/><path d="M119.23,101.44l0,.73a2.24,2.24,0,0,1,1.83-.85c1.3,0,2,.75,2,2.26v4.17h-1.41v-4.09a1.31,1.31,0,0,0-.25-.89,1.12,1.12,0,0,0-.85-.29,1.36,1.36,0,0,0-1.27.78v4.49H117.9v-6.31Z"/><path d="M128,106a.63.63,0,0,0-.31-.58,3.35,3.35,0,0,0-1-.35,5,5,0,0,1-1.2-.39,1.61,1.61,0,0,1-1-1.49,1.69,1.69,0,0,1,.68-1.36,2.69,2.69,0,0,1,1.74-.55,2.82,2.82,0,0,1,1.82.56,1.78,1.78,0,0,1,.69,1.45H128a.88.88,0,0,0-.3-.68,1.16,1.16,0,0,0-.8-.27,1.22,1.22,0,0,0-.76.22.68.68,0,0,0-.29.57.58.58,0,0,0,.27.51,4,4,0,0,0,1.11.37,5.14,5.14,0,0,1,1.3.44,1.9,1.9,0,0,1,.7.6,1.61,1.61,0,0,1,.23.87,1.66,1.66,0,0,1-.7,1.38,3,3,0,0,1-1.84.53,3.37,3.37,0,0,1-1.38-.28,2.3,2.3,0,0,1-.93-.77,1.81,1.81,0,0,1-.34-1.06h1.37a1,1,0,0,0,.37.77,1.49,1.49,0,0,0,.93.28,1.4,1.4,0,0,0,.84-.22A.67.67,0,0,0,128,106Z"/><path d="M133.34,104.54a3.84,3.84,0,0,1,.37-1.68,2.65,2.65,0,0,1,1-1.14,2.82,2.82,0,0,1,1.51-.4,2.7,2.7,0,0,1,2.06.82,3.24,3.24,0,0,1,.86,2.18v.34a3.76,3.76,0,0,1-.35,1.67,2.61,2.61,0,0,1-1,1.13,2.87,2.87,0,0,1-1.53.41,2.73,2.73,0,0,1-2.13-.89,3.46,3.46,0,0,1-.8-2.38Zm1.41.12a2.57,2.57,0,0,0,.4,1.52,1.31,1.31,0,0,0,1.12.56,1.29,1.29,0,0,0,1.11-.57,2.84,2.84,0,0,0,.39-1.63,2.47,2.47,0,0,0-.41-1.52,1.37,1.37,0,0,0-2.2,0A2.79,2.79,0,0,0,134.75,104.66Z"/><path d="M141.67,101.44l0,.73a2.26,2.26,0,0,1,1.83-.85c1.31,0,2,.75,2,2.26v4.17h-1.4v-4.09a1.31,1.31,0,0,0-.26-.89,1.12,1.12,0,0,0-.85-.29,1.37,1.37,0,0,0-1.27.78v4.49h-1.4v-6.31Z"/><rect class="cls-4" x="33.41" y="151.68" width="137.28" height="31.42"/><path class="cls-3" d="M60.05,161.11H56.94v3.3H55.59v-7.79h4.92v1.09H56.94V160h3.11Z"/><path class="cls-3" d="M64.81,163.84a2,2,0,0,1-1.61.68,1.77,1.77,0,0,1-1.42-.56,2.32,2.32,0,0,1-.48-1.59v-3.75h1.29v3.73c0,.74.3,1.11.91,1.11a1.28,1.28,0,0,0,1.27-.68v-4.16h1.29v5.79H64.84Z"/><path class="cls-3" d="M69.24,161.93l-.57.59v1.89H67.38v-8.22h1.29v4.74l.4-.51,1.59-1.8h1.55L70.08,161l2.36,3.38H71Z"/><path class="cls-3" d="M76.54,163.84a2,2,0,0,1-1.62.68,1.77,1.77,0,0,1-1.41-.56,2.28,2.28,0,0,1-.49-1.59v-3.75h1.3v3.73q0,1.11.9,1.11a1.28,1.28,0,0,0,1.27-.68v-4.16h1.3v5.79H76.57Z"/><path class="cls-3" d="M78.86,161.46a3.44,3.44,0,0,1,.33-1.53,2.47,2.47,0,0,1,.94-1.05,2.62,2.62,0,0,1,1.4-.37,2.46,2.46,0,0,1,1.88.76,3,3,0,0,1,.79,2v.3a3.58,3.58,0,0,1-.32,1.53,2.46,2.46,0,0,1-.94,1.05,2.68,2.68,0,0,1-1.4.37,2.5,2.5,0,0,1-2-.82,3.11,3.11,0,0,1-.73-2.17Zm1.29.11a2.29,2.29,0,0,0,.37,1.4,1.18,1.18,0,0,0,1,.51,1.16,1.16,0,0,0,1-.52,2.52,2.52,0,0,0,.37-1.5,2.31,2.31,0,0,0-.38-1.39,1.19,1.19,0,0,0-1-.51,1.17,1.17,0,0,0-1,.5A2.53,2.53,0,0,0,80.15,161.57Z"/><path class="cls-3" d="M87.16,161.93l-.57.59v1.89H85.3v-8.22h1.29v4.74l.4-.51,1.59-1.8h1.55L88,161l2.36,3.38H88.87Z"/><path class="cls-3" d="M94.41,164.41a1.8,1.8,0,0,1-.15-.54,2.15,2.15,0,0,1-2.92.15,1.58,1.58,0,0,1-.55-1.23,1.65,1.65,0,0,1,.68-1.42,3.32,3.32,0,0,1,2-.5h.79v-.38a1,1,0,0,0-.25-.72,1,1,0,0,0-.76-.27,1.14,1.14,0,0,0-.72.22.7.7,0,0,0-.29.57H90.91a1.43,1.43,0,0,1,.32-.89,2.08,2.08,0,0,1,.85-.65,2.92,2.92,0,0,1,1.2-.24,2.39,2.39,0,0,1,1.61.51,1.83,1.83,0,0,1,.62,1.44v2.61a2.92,2.92,0,0,0,.22,1.25v.09ZM93,163.47a1.48,1.48,0,0,0,.72-.18,1.39,1.39,0,0,0,.51-.51v-1.09h-.7a2,2,0,0,0-1.08.25.83.83,0,0,0-.36.71.76.76,0,0,0,.25.6A.92.92,0,0,0,93,163.47Z"/><path class="cls-3" d="M101.44,156.62l2.23,6,2.23-6h1.73v7.79h-1.34v-2.57l.14-3.43-2.29,6h-1l-2.28-6,.13,3.43v2.57H99.7v-7.79Z"/><path class="cls-3" d="M112.58,163.84a2,2,0,0,1-1.62.68,1.77,1.77,0,0,1-1.41-.56,2.32,2.32,0,0,1-.48-1.59v-3.75h1.29v3.73c0,.74.3,1.11.91,1.11a1.29,1.29,0,0,0,1.27-.68v-4.16h1.29v5.79h-1.22Z"/><path class="cls-3" d="M116.34,158.62l0,.67a2,2,0,0,1,1.67-.78q1.8,0,1.83,2.07v3.83h-1.29v-3.75a1.2,1.2,0,0,0-.24-.82,1,1,0,0,0-.77-.26,1.25,1.25,0,0,0-1.17.71v4.12h-1.29v-5.79Z"/><path class="cls-3" d="M121.2,157.12a.71.71,0,0,1,.18-.5.73.73,0,0,1,.54-.2.74.74,0,0,1,.55.2.74.74,0,0,1,0,1,.74.74,0,0,1-.55.19.73.73,0,0,1-.54-.19A.71.71,0,0,1,121.2,157.12Zm1.37,7.29h-1.29v-5.79h1.29Z"/><path class="cls-3" d="M126.33,163.48a1.18,1.18,0,0,0,.81-.29,1,1,0,0,0,.34-.7h1.21a1.87,1.87,0,0,1-.33,1,2.19,2.19,0,0,1-.85.74,2.58,2.58,0,0,1-1.16.28,2.46,2.46,0,0,1-1.91-.79,3.13,3.13,0,0,1-.71-2.17v-.14a3.05,3.05,0,0,1,.7-2.11,2.43,2.43,0,0,1,1.91-.8,2.29,2.29,0,0,1,1.67.61,2.11,2.11,0,0,1,.68,1.58h-1.21a1.21,1.21,0,0,0-.34-.82,1.06,1.06,0,0,0-.81-.32,1.13,1.13,0,0,0-1,.45,2.31,2.31,0,0,0-.35,1.39v.21a2.36,2.36,0,0,0,.34,1.41A1.14,1.14,0,0,0,126.33,163.48Z"/><path class="cls-3" d="M129.67,157.12a.68.68,0,0,1,.19-.5.7.7,0,0,1,.54-.2.73.73,0,0,1,.54.2.68.68,0,0,1,.19.5.67.67,0,0,1-.19.49.73.73,0,0,1-.54.19.7.7,0,0,1-.54-.19A.67.67,0,0,1,129.67,157.12Zm1.37,7.29h-1.29v-5.79H131Z"/><path class="cls-3" d="M137.48,161.57a3.45,3.45,0,0,1-.61,2.15,1.93,1.93,0,0,1-1.62.8,2,2,0,0,1-1.52-.63v2.74h-1.29v-8h1.19l.06.59a1.9,1.9,0,0,1,1.54-.7,2,2,0,0,1,1.65.79,3.56,3.56,0,0,1,.6,2.19Zm-1.29-.11a2.37,2.37,0,0,0-.34-1.37,1.11,1.11,0,0,0-1-.51,1.19,1.19,0,0,0-1.14.66v2.56a1.21,1.21,0,0,0,1.15.68,1.14,1.14,0,0,0,1-.5A2.72,2.72,0,0,0,136.19,161.46Z"/><path class="cls-3" d="M142,164.41a1.8,1.8,0,0,1-.15-.54,2.15,2.15,0,0,1-2.92.15,1.58,1.58,0,0,1-.55-1.23,1.65,1.65,0,0,1,.68-1.42,3.3,3.3,0,0,1,2-.5h.8v-.38a1,1,0,0,0-.25-.72,1,1,0,0,0-.76-.27,1.2,1.2,0,0,0-.73.22.72.72,0,0,0-.28.57h-1.29a1.48,1.48,0,0,1,.31-.89,2.11,2.11,0,0,1,.86-.65,2.92,2.92,0,0,1,1.2-.24,2.41,2.41,0,0,1,1.61.51,1.83,1.83,0,0,1,.62,1.44v2.61a3.09,3.09,0,0,0,.21,1.25v.09Zm-1.42-.94a1.54,1.54,0,0,0,.72-.18,1.39,1.39,0,0,0,.51-.51v-1.09h-.7a2,2,0,0,0-1.08.25.83.83,0,0,0-.36.71.76.76,0,0,0,.25.6A.92.92,0,0,0,140.59,163.47Z"/><path class="cls-3" d="M145.83,164.41h-1.29v-8.22h1.29Z"/><path class="cls-3" d="M58.74,175.55a1,1,0,0,0-.36-.79,4.5,4.5,0,0,0-1.29-.56,6.46,6.46,0,0,1-1.49-.63,2,2,0,0,1-1.06-1.75,1.92,1.92,0,0,1,.77-1.55,3,3,0,0,1,2-.61,3.37,3.37,0,0,1,1.44.3,2.42,2.42,0,0,1,1,.85,2.21,2.21,0,0,1,.36,1.23H58.74a1.2,1.2,0,0,0-.38-.95,1.54,1.54,0,0,0-1.08-.35,1.66,1.66,0,0,0-1,.29.93.93,0,0,0-.36.79.86.86,0,0,0,.39.71,4.55,4.55,0,0,0,1.3.56,6.07,6.07,0,0,1,1.45.61,2.35,2.35,0,0,1,.8.8,2,2,0,0,1,.26,1,1.85,1.85,0,0,1-.75,1.55,3.2,3.2,0,0,1-2,.58,3.72,3.72,0,0,1-1.54-.32,2.56,2.56,0,0,1-1.09-.86,2.19,2.19,0,0,1-.39-1.29h1.34a1.23,1.23,0,0,0,.44,1,1.89,1.89,0,0,0,1.24.37,1.67,1.67,0,0,0,1.06-.29A.94.94,0,0,0,58.74,175.55Z"/><path class="cls-3" d="M64.62,177a2,2,0,0,1-1.61.68,1.77,1.77,0,0,1-1.42-.56,2.32,2.32,0,0,1-.48-1.59v-3.75H62.4v3.73c0,.74.3,1.11.91,1.11a1.28,1.28,0,0,0,1.27-.68v-4.16h1.29v5.79H64.65Z"/><path class="cls-3" d="M72.23,174.72a3.49,3.49,0,0,1-.6,2.15,1.94,1.94,0,0,1-1.64.8,1.86,1.86,0,0,1-1.57-.74l-.07.63H67.18v-8.22h1.29v3a1.87,1.87,0,0,1,1.51-.67,2,2,0,0,1,1.65.79,3.55,3.55,0,0,1,.6,2.2Zm-1.29-.11a2.45,2.45,0,0,0-.33-1.41,1.08,1.08,0,0,0-1-.47,1.19,1.19,0,0,0-1.18.74v2.38a1.22,1.22,0,0,0,1.19.76,1.08,1.08,0,0,0,.94-.46,2.4,2.4,0,0,0,.34-1.37Z"/><path class="cls-3" d="M78.36,175.77l.92-4h1.25L79,177.56H77.9l-1.23-4-1.21,4H74.4l-1.57-5.79h1.26l.92,3.95,1.18-3.95h1Z"/><path class="cls-3" d="M84.83,177.56a2.71,2.71,0,0,1-.15-.54,2,2,0,0,1-1.51.65,2,2,0,0,1-1.41-.5,1.61,1.61,0,0,1-.55-1.23,1.64,1.64,0,0,1,.69-1.42,3.26,3.26,0,0,1,1.95-.5h.79v-.38a1,1,0,0,0-.25-.72,1,1,0,0,0-.76-.27,1.19,1.19,0,0,0-.72.22.69.69,0,0,0-.28.57H81.34a1.42,1.42,0,0,1,.31-.89,2,2,0,0,1,.85-.65,2.94,2.94,0,0,1,1.21-.24,2.41,2.41,0,0,1,1.61.51,1.82,1.82,0,0,1,.61,1.44v2.61a2.92,2.92,0,0,0,.22,1.25v.09Zm-1.42-.94a1.39,1.39,0,0,0,.72-.19,1.17,1.17,0,0,0,.51-.5v-1.09H84a1.87,1.87,0,0,0-1.08.25.83.83,0,0,0-.36.71.78.78,0,0,0,.24.6A1,1,0,0,0,83.41,176.62Z"/><path class="cls-3" d="M89.29,175.7l1.17-3.93h1.38l-2.28,6.67a1.87,1.87,0,0,1-1.79,1.46,2.49,2.49,0,0,1-.62-.1v-1l.24,0a1.26,1.26,0,0,0,.74-.18,1.24,1.24,0,0,0,.39-.61l.19-.49-2-5.76h1.39Z"/><path class="cls-3" d="M95.31,174.39a8.29,8.29,0,0,1,.33-2.35,6.3,6.3,0,0,1,1-2A3.84,3.84,0,0,1,98,168.83l.25.76A4,4,0,0,0,97,171.34a7.9,7.9,0,0,0-.51,2.69v.46a8.63,8.63,0,0,0,.46,2.89,4.24,4.24,0,0,0,1.27,1.93L98,180a3.89,3.89,0,0,1-1.36-1.24,6.39,6.39,0,0,1-1-2A8.5,8.5,0,0,1,95.31,174.39Z"/><path class="cls-3" d="M101.43,174.19l-.88.94v2.43H99.21v-7.79h1.34v3.65l.75-.92,2.26-2.73h1.63l-2.88,3.45,3,4.34h-1.59Z"/><path class="cls-3" d="M109.3,177a2,2,0,0,1-1.61.68,1.77,1.77,0,0,1-1.42-.56,2.32,2.32,0,0,1-.48-1.59v-3.75h1.29v3.73c0,.74.3,1.11.91,1.11a1.28,1.28,0,0,0,1.27-.68v-4.16h1.29v5.79h-1.21Z"/><path class="cls-3" d="M113.73,175.08l-.57.59v1.89h-1.29v-8.22h1.29v4.74l.4-.51,1.59-1.8h1.55l-2.13,2.41,2.36,3.38h-1.49Z"/><path class="cls-3" d="M117.3,174.61a3.44,3.44,0,0,1,.34-1.53,2.41,2.41,0,0,1,.94-1.05,2.58,2.58,0,0,1,1.39-.37,2.47,2.47,0,0,1,1.89.76,3,3,0,0,1,.78,2v.3a3.44,3.44,0,0,1-.33,1.53,2.5,2.5,0,0,1-.93,1.05,2.74,2.74,0,0,1-1.41.37,2.48,2.48,0,0,1-1.94-.82,3.13,3.13,0,0,1-.74-2.18Zm1.3.11a2.36,2.36,0,0,0,.36,1.4,1.2,1.2,0,0,0,1,.51,1.16,1.16,0,0,0,1-.52,2.59,2.59,0,0,0,.36-1.5,2.31,2.31,0,0,0-.37-1.39,1.2,1.2,0,0,0-1-.51,1.16,1.16,0,0,0-1,.5A2.53,2.53,0,0,0,118.6,174.72Z"/><path class="cls-3" d="M127.92,176.48h3.51v1.08h-4.85v-7.79h1.34Z"/><path class="cls-3" d="M132.34,170.27a.68.68,0,0,1,.19-.5.7.7,0,0,1,.54-.2.73.73,0,0,1,.54.2.68.68,0,0,1,.19.5.65.65,0,0,1-.19.48.69.69,0,0,1-.54.2.67.67,0,0,1-.54-.2A.65.65,0,0,1,132.34,170.27Zm1.37,7.29h-1.29v-5.79h1.29Z"/><path class="cls-3" d="M136.31,171.77l0,.67a2.06,2.06,0,0,1,1.67-.78q1.8,0,1.83,2.07v3.83h-1.29v-3.75a1.2,1.2,0,0,0-.24-.82,1,1,0,0,0-.77-.26,1.22,1.22,0,0,0-1.16.71v4.12H135.1v-5.79Z"/><path class="cls-3" d="M143.7,177.67a2.66,2.66,0,0,1-2-.78,2.83,2.83,0,0,1-.76-2.08v-.16a3.56,3.56,0,0,1,.33-1.55,2.59,2.59,0,0,1,.93-1.06,2.49,2.49,0,0,1,1.34-.38,2.22,2.22,0,0,1,1.81.76,3.17,3.17,0,0,1,.64,2.13v.53h-3.75a1.8,1.8,0,0,0,.47,1.13,1.42,1.42,0,0,0,1.05.42,1.75,1.75,0,0,0,1.45-.72l.69.66a2.26,2.26,0,0,1-.92.81A2.85,2.85,0,0,1,143.7,177.67Zm-.16-5a1.06,1.06,0,0,0-.85.37,1.94,1.94,0,0,0-.42,1h2.46V174a1.54,1.54,0,0,0-.35-1A1.08,1.08,0,0,0,143.54,172.71Z"/><path class="cls-3" d="M149.5,174.48a8,8,0,0,1-.33,2.29,6.27,6.27,0,0,1-1,2,3.9,3.9,0,0,1-1.38,1.26l-.25-.73a4.08,4.08,0,0,0,1.26-1.89,8.52,8.52,0,0,0,.46-2.92v-.12a8.61,8.61,0,0,0-.4-2.71,4.85,4.85,0,0,0-1.16-2l-.16-.15.25-.73a3.76,3.76,0,0,1,1.32,1.18,6.52,6.52,0,0,1,1,1.89,8.3,8.3,0,0,1,.38,2.16Z"/><rect class="cls-4" x="33.41" y="113.97" width="137.28" height="31.42"/><path class="cls-3" d="M49.55,125.2h1.34v5.46a2.36,2.36,0,0,1-.7,1.78,2.57,2.57,0,0,1-1.83.65,2.63,2.63,0,0,1-1.87-.61,2.22,2.22,0,0,1-.66-1.71h1.34a1.26,1.26,0,0,0,.31.93,1.17,1.17,0,0,0,.88.31,1.09,1.09,0,0,0,.86-.36,1.42,1.42,0,0,0,.33-1Z"/><path class="cls-3" d="M55.26,130H53.77v3H52.42V125.2h2.72a3.19,3.19,0,0,1,2.07.6,2.16,2.16,0,0,1,.73,1.75,2.21,2.21,0,0,1-.38,1.31,2.43,2.43,0,0,1-1,.81l1.73,3.25V133H56.81Zm-1.49-1.09h1.38a1.54,1.54,0,0,0,1.06-.35,1.21,1.21,0,0,0,.38-.94,1.31,1.31,0,0,0-.35-1,1.47,1.47,0,0,0-1.06-.35H53.77Z"/><path class="cls-3" d="M67.19,126.29H64.78V133H63.45v-6.7H61.06V125.2h6.13Z"/><path class="cls-3" d="M66.73,130a3.52,3.52,0,0,1,.34-1.54,2.44,2.44,0,0,1,.94-1,2.58,2.58,0,0,1,1.39-.37,2.5,2.5,0,0,1,1.89.75,3,3,0,0,1,.78,2v.3a3.44,3.44,0,0,1-.33,1.53,2.42,2.42,0,0,1-.93,1,2.65,2.65,0,0,1-1.41.37,2.51,2.51,0,0,1-2-.81,3.19,3.19,0,0,1-.73-2.18Zm1.3.11a2.38,2.38,0,0,0,.36,1.4,1.2,1.2,0,0,0,1,.51,1.18,1.18,0,0,0,1-.52,2.59,2.59,0,0,0,.36-1.5,2.29,2.29,0,0,0-.37-1.39,1.18,1.18,0,0,0-1-.52,1.16,1.16,0,0,0-1,.51A2.53,2.53,0,0,0,68,130.15Z"/><path class="cls-3" d="M75,130.5l-.58.6V133H73.17v-8.22h1.29v4.74l.41-.51,1.59-1.8H78l-2.14,2.41L78.24,133h-1.5Z"/><path class="cls-3" d="M82.28,133a2.25,2.25,0,0,1-.14-.54,2.19,2.19,0,0,1-2.93.15,1.63,1.63,0,0,1-.54-1.23,1.65,1.65,0,0,1,.68-1.43,3.29,3.29,0,0,1,2-.49h.79v-.38a1,1,0,0,0-.25-.72,1,1,0,0,0-.76-.27,1.12,1.12,0,0,0-.72.22.69.69,0,0,0-.28.57H78.79a1.42,1.42,0,0,1,.31-.89,2,2,0,0,1,.86-.65,2.89,2.89,0,0,1,1.2-.24,2.41,2.41,0,0,1,1.61.51,1.82,1.82,0,0,1,.61,1.44v2.61a3.11,3.11,0,0,0,.22,1.25V133Zm-1.41-.94a1.44,1.44,0,0,0,.72-.19,1.2,1.2,0,0,0,.5-.5v-1.09H81.4a1.87,1.87,0,0,0-1.08.25.81.81,0,0,0-.36.71.76.76,0,0,0,.25.6A.92.92,0,0,0,80.87,132.05Z"/><path class="cls-3" d="M84.74,125.69a.66.66,0,0,1,.19-.49.67.67,0,0,1,.54-.2.69.69,0,0,1,.54.2.73.73,0,0,1,0,1,.73.73,0,0,1-.54.2.7.7,0,0,1-.54-.2A.66.66,0,0,1,84.74,125.69Zm1.37,7.3H84.82V127.2h1.29Z"/><path class="cls-3" d="M87.27,130.05a3.47,3.47,0,0,1,.62-2.15,2,2,0,0,1,1.65-.81,1.87,1.87,0,0,1,1.48.64v-3h1.29V133H91.14l-.06-.6a1.9,1.9,0,0,1-1.55.7,1.94,1.94,0,0,1-1.63-.82A3.53,3.53,0,0,1,87.27,130.05Zm1.29.11a2.47,2.47,0,0,0,.34,1.38,1.1,1.1,0,0,0,1,.49,1.21,1.21,0,0,0,1.16-.71v-2.47a1.21,1.21,0,0,0-1.15-.7,1.1,1.1,0,0,0-1,.51A2.73,2.73,0,0,0,88.56,130.16Z"/><path class="cls-3" d="M93.42,130a3.51,3.51,0,0,1,.33-1.54,2.44,2.44,0,0,1,.94-1,2.58,2.58,0,0,1,1.39-.37,2.5,2.5,0,0,1,1.89.75,3,3,0,0,1,.78,2v.3a3.44,3.44,0,0,1-.33,1.53,2.42,2.42,0,0,1-.93,1,2.65,2.65,0,0,1-1.41.37,2.47,2.47,0,0,1-1.94-.81,3.14,3.14,0,0,1-.73-2.18Zm1.29.11a2.38,2.38,0,0,0,.36,1.4,1.2,1.2,0,0,0,1,.51,1.18,1.18,0,0,0,1-.52,2.59,2.59,0,0,0,.36-1.5,2.29,2.29,0,0,0-.37-1.39,1.25,1.25,0,0,0-2,0A2.53,2.53,0,0,0,94.71,130.15Z"/><path class="cls-3" d="M106.73,131a.93.93,0,0,0-.36-.79,4.24,4.24,0,0,0-1.29-.56,6.28,6.28,0,0,1-1.49-.63,2,2,0,0,1-1.06-1.75,1.92,1.92,0,0,1,.76-1.55,3.06,3.06,0,0,1,2-.61,3.31,3.31,0,0,1,1.44.3,2.38,2.38,0,0,1,1,.85,2.21,2.21,0,0,1,.36,1.23h-1.34a1.26,1.26,0,0,0-.38-1,2,2,0,0,0-2.11-.06,1,1,0,0,0-.36.8.86.86,0,0,0,.39.71,4.42,4.42,0,0,0,1.3.56,6.07,6.07,0,0,1,1.45.61,2.33,2.33,0,0,1,.8.79,2.09,2.09,0,0,1,.25,1.05,1.85,1.85,0,0,1-.74,1.55,3.2,3.2,0,0,1-2,.57,3.72,3.72,0,0,1-1.54-.31,2.67,2.67,0,0,1-1.1-.86,2.19,2.19,0,0,1-.39-1.29h1.35a1.27,1.27,0,0,0,.43,1,1.92,1.92,0,0,0,1.25.36,1.68,1.68,0,0,0,1.06-.28A1,1,0,0,0,106.73,131Z"/><path class="cls-3" d="M110.4,127.83a2,2,0,0,1,1.6-.74c1.22,0,1.85.7,1.86,2.11V133h-1.29v-3.74a1.17,1.17,0,0,0-.25-.85,1.1,1.1,0,0,0-.76-.25,1.25,1.25,0,0,0-1.16.7V133h-1.29v-8.22h1.29Z"/><path class="cls-3" d="M115.17,125.69a.66.66,0,0,1,.19-.49.83.83,0,0,1,1.08,0,.73.73,0,0,1,0,1,.83.83,0,0,1-1.08,0A.66.66,0,0,1,115.17,125.69Zm1.37,7.3h-1.29V127.2h1.29Z"/><path class="cls-3" d="M119.14,127.2l0,.67a2.08,2.08,0,0,1,1.68-.78c1.19,0,1.8.69,1.82,2.07V133h-1.29v-3.75a1.25,1.25,0,0,0-.23-.82,1,1,0,0,0-.78-.27,1.23,1.23,0,0,0-1.16.72V133h-1.29V127.2Z"/><path class="cls-3" d="M125.87,130.5l-.58.6V133H124v-8.22h1.29v4.74l.41-.51,1.58-1.8h1.56l-2.14,2.41,2.36,3.38h-1.49Z"/><path class="cls-3" d="M133.11,133a2.71,2.71,0,0,1-.15-.54,2,2,0,0,1-1.5.64,2,2,0,0,1-1.42-.49,1.63,1.63,0,0,1-.54-1.23,1.65,1.65,0,0,1,.68-1.43,3.27,3.27,0,0,1,1.95-.49h.79v-.38a1,1,0,0,0-.25-.72,1,1,0,0,0-.76-.27,1.12,1.12,0,0,0-.72.22.69.69,0,0,0-.28.57h-1.29a1.42,1.42,0,0,1,.31-.89,2,2,0,0,1,.85-.65,2.94,2.94,0,0,1,1.21-.24,2.41,2.41,0,0,1,1.61.51,1.82,1.82,0,0,1,.61,1.44v2.61a3.11,3.11,0,0,0,.22,1.25V133Zm-1.42-.94a1.39,1.39,0,0,0,.72-.19,1.17,1.17,0,0,0,.51-.5v-1.09h-.69a1.87,1.87,0,0,0-1.08.25.81.81,0,0,0-.36.71.78.78,0,0,0,.24.6A1,1,0,0,0,131.69,132.05Z"/><path class="cls-3" d="M136.76,127.2l0,.67a2,2,0,0,1,1.67-.78q1.8,0,1.83,2.07V133H139v-3.75a1.2,1.2,0,0,0-.24-.82,1,1,0,0,0-.77-.27,1.23,1.23,0,0,0-1.16.72V133h-1.29V127.2Z"/><path class="cls-3" d="M144.84,131.41a.6.6,0,0,0-.29-.53,3.12,3.12,0,0,0-.94-.32,4.92,4.92,0,0,1-1.1-.35,1.49,1.49,0,0,1-1-1.37,1.56,1.56,0,0,1,.63-1.25,2.51,2.51,0,0,1,1.6-.5,2.57,2.57,0,0,1,1.66.51,1.67,1.67,0,0,1,.64,1.34h-1.29a.84.84,0,0,0-.28-.63,1.09,1.09,0,0,0-.73-.25,1.16,1.16,0,0,0-.7.2.62.62,0,0,0-.27.53.55.55,0,0,0,.25.47,3.51,3.51,0,0,0,1,.33,4.91,4.91,0,0,1,1.2.4,1.78,1.78,0,0,1,.64.56,1.43,1.43,0,0,1,.21.79,1.54,1.54,0,0,1-.64,1.27,2.75,2.75,0,0,1-1.69.48,3,3,0,0,1-1.26-.25,2.09,2.09,0,0,1-.86-.71,1.72,1.72,0,0,1-.31-1h1.26a.92.92,0,0,0,.34.71,1.34,1.34,0,0,0,.85.25,1.26,1.26,0,0,0,.77-.2A.6.6,0,0,0,144.84,131.41Z"/><path class="cls-3" d="M149.76,133.09a2.67,2.67,0,0,1-2-.78,2.85,2.85,0,0,1-.76-2.07v-.16a3.53,3.53,0,0,1,.33-1.55,2.55,2.55,0,0,1,.94-1.06,2.46,2.46,0,0,1,1.33-.38,2.26,2.26,0,0,1,1.82.75,3.22,3.22,0,0,1,.64,2.14v.52h-3.76a1.76,1.76,0,0,0,.48,1.14,1.42,1.42,0,0,0,1.05.42,1.75,1.75,0,0,0,1.44-.73l.7.67a2.33,2.33,0,0,1-.92.81A2.92,2.92,0,0,1,149.76,133.09Zm-.15-5a1.09,1.09,0,0,0-.86.38,1.94,1.94,0,0,0-.42,1h2.46v-.09a1.54,1.54,0,0,0-.34-1A1.08,1.08,0,0,0,149.61,128.13Z"/><path class="cls-3" d="M154.27,127.2l0,.67a2,2,0,0,1,1.67-.78q1.8,0,1.83,2.07V133h-1.29v-3.75a1.2,1.2,0,0,0-.24-.82,1,1,0,0,0-.77-.27,1.26,1.26,0,0,0-1.17.72V133h-1.29V127.2Z"/></g><g id="Getting_There_Title" data-name="Getting There Title"><rect class="cls-2" width="599.49" height="64.75"/><path class="cls-3" d="M173.91,36.81a5.49,5.49,0,0,1-2.43,1.61A10.18,10.18,0,0,1,168,39a6.84,6.84,0,0,1-3.52-.88,5.88,5.88,0,0,1-2.34-2.56,9.16,9.16,0,0,1-.85-3.95V30.54a9.52,9.52,0,0,1,.79-4,5.77,5.77,0,0,1,2.25-2.61,7.39,7.39,0,0,1,7.75.42,5.62,5.62,0,0,1,1.84,3.84h-3.1a3.1,3.1,0,0,0-.94-1.95,3,3,0,0,0-2-.62,2.81,2.81,0,0,0-2.47,1.23,6.42,6.42,0,0,0-.86,3.66v1a6.16,6.16,0,0,0,.92,3.7,3.15,3.15,0,0,0,2.71,1.26,3.48,3.48,0,0,0,2.56-.78V33h-2.9V30.59h6.09Z"/><path class="cls-3" d="M186,32h-6.12V36.2h7.18v2.58H176.73V23.2h10.35v2.6h-7.16v3.71H186Z"/><path class="cls-3" d="M201.12,25.8h-4.74v13h-3.19v-13h-4.67V23.2h12.6Z"/><path class="cls-3" d="M215.12,25.8h-4.74v13h-3.19v-13h-4.67V23.2h12.6Z"/><path class="cls-3" d="M220.28,38.78h-3.19V23.2h3.19Z"/><path class="cls-3" d="M236,38.78h-3.19l-6.2-10.25V38.78H223.4V23.2h3.19l6.21,10.27V23.2H236Z"/><path class="cls-3" d="M251.14,36.81a5.58,5.58,0,0,1-2.44,1.61,10.16,10.16,0,0,1-3.48.57,6.88,6.88,0,0,1-3.53-.88,5.88,5.88,0,0,1-2.34-2.56,9.16,9.16,0,0,1-.84-3.95V30.54a9.67,9.67,0,0,1,.78-4,5.77,5.77,0,0,1,2.25-2.61,7.41,7.41,0,0,1,7.76.42,5.66,5.66,0,0,1,1.84,3.84H248a3.05,3.05,0,0,0-.94-1.95,2.94,2.94,0,0,0-2-.62,2.82,2.82,0,0,0-2.48,1.23,6.59,6.59,0,0,0-.86,3.66v1a6.15,6.15,0,0,0,.93,3.7,3.14,3.14,0,0,0,2.71,1.26,3.5,3.5,0,0,0,2.56-.78V33h-2.9V30.59h6.09Z"/><path class="cls-3" d="M271,25.8h-4.74v13h-3.19v-13H258.4V23.2H271Z"/><path class="cls-3" d="M285.26,31.34a9.61,9.61,0,0,1-.8,4,6.12,6.12,0,0,1-2.32,2.67,6.33,6.33,0,0,1-3.45.94,6.42,6.42,0,0,1-3.43-.93,6.15,6.15,0,0,1-2.34-2.66,9.23,9.23,0,0,1-.84-4v-.77a9.36,9.36,0,0,1,.83-4.05,6.19,6.19,0,0,1,2.32-2.69,6.83,6.83,0,0,1,6.88,0,6.21,6.21,0,0,1,2.33,2.69,9.34,9.34,0,0,1,.82,4Zm-3.23-.7a6.61,6.61,0,0,0-.87-3.73,3.06,3.06,0,0,0-5,0,6.52,6.52,0,0,0-.89,3.68v.76a6.63,6.63,0,0,0,.88,3.71,2.82,2.82,0,0,0,2.5,1.31,2.8,2.8,0,0,0,2.47-1.27A6.65,6.65,0,0,0,282,31.4Z"/><path class="cls-3" d="M304.87,25.8h-4.74v13h-3.19v-13h-4.68V23.2h12.61Z"/><path class="cls-3" d="M319.33,38.78h-3.19V32.1h-6.22v6.68h-3.19V23.2h3.19v6.31h6.22V23.2h3.19Z"/><path class="cls-3" d="M331.67,32h-6.12V36.2h7.19v2.58H322.36V23.2h10.36v2.6h-7.17v3.71h6.12Z"/><path class="cls-3" d="M348.27,34.69a1.63,1.63,0,0,0-.64-1.39,8.11,8.11,0,0,0-2.29-1,16.2,16.2,0,0,1-2.63-1.07,4.3,4.3,0,0,1-2.63-3.86,3.78,3.78,0,0,1,.7-2.25,4.62,4.62,0,0,1,2-1.55,7.63,7.63,0,0,1,3-.55,7,7,0,0,1,3,.6,4.69,4.69,0,0,1,2,1.71,4.46,4.46,0,0,1,.72,2.5h-3.19a2.08,2.08,0,0,0-.67-1.66,2.7,2.7,0,0,0-1.88-.6,2.94,2.94,0,0,0-1.82.5,1.58,1.58,0,0,0-.65,1.31,1.51,1.51,0,0,0,.76,1.27,8.45,8.45,0,0,0,2.24,1,9.69,9.69,0,0,1,4,2,4.09,4.09,0,0,1,1.24,3A3.75,3.75,0,0,1,350,37.84,6.6,6.6,0,0,1,345.86,39a7.8,7.8,0,0,1-3.25-.65,5.1,5.1,0,0,1-2.24-1.81,4.59,4.59,0,0,1-.77-2.65h3.2q0,2.58,3.06,2.58a2.93,2.93,0,0,0,1.77-.47A1.5,1.5,0,0,0,348.27,34.69Z"/><path class="cls-3" d="M365.48,25.8h-4.74v13h-3.19v-13h-4.68V23.2h12.61Z"/><path class="cls-3" d="M374.35,35.57h-5.59l-1.06,3.21h-3.39l5.76-15.58H373l5.79,15.58h-3.39ZM369.62,33h3.87l-1.95-5.83Z"/><path class="cls-3" d="M380.49,38.78V23.2h4.76a7.25,7.25,0,0,1,3.65.92,6.42,6.42,0,0,1,2.52,2.64,8.19,8.19,0,0,1,.9,3.88v.71a8.12,8.12,0,0,1-.89,3.87,6.38,6.38,0,0,1-2.5,2.62,7.28,7.28,0,0,1-3.64.94Zm3.19-13V36.2h1.54A3.45,3.45,0,0,0,388.08,35a5.55,5.55,0,0,0,1-3.52v-.82a5.66,5.66,0,0,0-1-3.6,3.43,3.43,0,0,0-2.86-1.23Z"/><path class="cls-3" d="M398.08,38.78h-3.19V23.2h3.19Z"/><path class="cls-3" d="M413,23.2V33.46a5.27,5.27,0,0,1-1.59,4A6.11,6.11,0,0,1,407,39a6.18,6.18,0,0,1-4.31-1.44,5.18,5.18,0,0,1-1.62-4V23.2h3.18V33.48a3,3,0,0,0,.73,2.23,2.79,2.79,0,0,0,2,.71q2.68,0,2.73-2.85V23.2Z"/><path class="cls-3" d="M420.05,23.2l4,11.3,4-11.3h4.19V38.78H429V34.52l.32-7.35-4.18,11.61h-2.19l-4.16-11.6.32,7.34v4.26h-3.19V23.2Z"/></g><g id="arrow"><line class="cls-5" x1="278.92" y1="224.33" x2="278.92" y2="239.41"/><polygon class="cls-6" points="272.32 235.64 285.53 235.64 278.52 243.18 272.32 235.64"/></g><polyline class="cls-5" points="90.32 198.78 90.48 223.95 469.75 223.95 469.75 119.63"/></g><path d="M248,363l.46-4.31H253v1.24h-3.36l-.23,2a2.55,2.55,0,0,1,1.32-.34,2.36,2.36,0,0,1,1.88.78,3.15,3.15,0,0,1,.67,2.1,2.84,2.84,0,0,1-.75,2.07,2.69,2.69,0,0,1-2,.77,2.8,2.8,0,0,1-1.92-.66,2.42,2.42,0,0,1-.83-1.76h1.36a1.54,1.54,0,0,0,.44.95,1.35,1.35,0,0,0,.94.33,1.17,1.17,0,0,0,1-.47,2,2,0,0,0,.37-1.27,1.85,1.85,0,0,0-.4-1.24,1.42,1.42,0,0,0-1.11-.45,1.52,1.52,0,0,0-1.22.5Z"/><path d="M258.75,360.85l0,.66a2.23,2.23,0,0,1,1.8-.78,1.74,1.74,0,0,1,1.73,1,2.2,2.2,0,0,1,1.92-1,2,2,0,0,1,1.55.58,2.59,2.59,0,0,1,.52,1.71v4.17H264.9v-4.13a1.28,1.28,0,0,0-.26-.88,1.15,1.15,0,0,0-.87-.28,1.12,1.12,0,0,0-.78.26,1.31,1.31,0,0,0-.43.68v4.35h-1.41V363A1,1,0,0,0,260,361.9a1.22,1.22,0,0,0-1.2.7v4.59h-1.41v-6.34Z"/><path d="M267.76,359.2a.71.71,0,0,1,.79-.76.79.79,0,0,1,.59.21.81.81,0,0,1,0,1.09.79.79,0,0,1-.59.21.71.71,0,0,1-.79-.75Zm1.49,8h-1.41v-6.34h1.41Z"/><path d="M272.09,360.85l0,.73a2.26,2.26,0,0,1,1.83-.85c1.31,0,2,.76,2,2.27v4.19h-1.41v-4.11a1.31,1.31,0,0,0-.26-.89,1,1,0,0,0-.84-.29,1.37,1.37,0,0,0-1.28.78v4.51h-1.4v-6.34Z"/><path d="M280.91,365.47a.66.66,0,0,0-.31-.58,3.35,3.35,0,0,0-1-.35,5,5,0,0,1-1.2-.39,1.61,1.61,0,0,1-1.06-1.5,1.7,1.7,0,0,1,.69-1.37,2.65,2.65,0,0,1,1.74-.55,2.8,2.8,0,0,1,1.81.56,1.79,1.79,0,0,1,.7,1.46h-1.41a.88.88,0,0,0-.3-.68,1.16,1.16,0,0,0-.8-.27,1.27,1.27,0,0,0-.76.21.69.69,0,0,0-.29.59.6.6,0,0,0,.27.51,3.7,3.7,0,0,0,1.1.36,5.41,5.41,0,0,1,1.3.44,1.79,1.79,0,0,1,.7.62,1.47,1.47,0,0,1,.23.86,1.65,1.65,0,0,1-.7,1.39,3,3,0,0,1-1.84.53,3.17,3.17,0,0,1-1.37-.28,2.33,2.33,0,0,1-.94-.77,1.91,1.91,0,0,1-.34-1.07h1.37a1,1,0,0,0,.38.78,1.76,1.76,0,0,0,1.77.06A.67.67,0,0,0,280.91,365.47Z"/><path d="M292,365.23l1-4.38h1.37l-1.71,6.34h-1.16l-1.34-4.35-1.33,4.35h-1.16L286,360.85h1.37l1,4.33,1.28-4.33h1.06Z"/><path d="M299.05,367.19a2.34,2.34,0,0,1-.16-.59,2.17,2.17,0,0,1-1.65.71,2.21,2.21,0,0,1-1.54-.54,1.77,1.77,0,0,1-.6-1.35,1.8,1.8,0,0,1,.75-1.56,3.6,3.6,0,0,1,2.13-.54h.86v-.42a1.13,1.13,0,0,0-.27-.79,1.06,1.06,0,0,0-.83-.29,1.26,1.26,0,0,0-.79.24.76.76,0,0,0-.3.62h-1.41a1.58,1.58,0,0,1,.34-1,2.31,2.31,0,0,1,.93-.71,3.26,3.26,0,0,1,1.31-.26,2.63,2.63,0,0,1,1.76.56,2,2,0,0,1,.67,1.58v2.86a3.22,3.22,0,0,0,.24,1.36v.1Zm-1.55-1a1.58,1.58,0,0,0,.79-.21,1.27,1.27,0,0,0,.55-.55v-1.2h-.75a2.07,2.07,0,0,0-1.18.28.88.88,0,0,0-.4.78.83.83,0,0,0,.27.65A1,1,0,0,0,297.5,366.17Z"/><path d="M303.23,367.19h-1.41v-9h1.41Z"/><path d="M306.8,364.47l-.63.65v2.07h-1.41v-9h1.41v5.2l.44-.56,1.74-2H310l-2.33,2.64,2.58,3.7h-1.63Z"/><path class="cls-4" d="M152.75,345.94h-2v-4.27h-4v4.27h-2V336h2v4h4v-4h2Z"/><path class="cls-4" d="M156.68,345.94h-2V336h2Z"/><path class="cls-4" d="M166.35,344.68a3.47,3.47,0,0,1-1.55,1,6.54,6.54,0,0,1-2.22.37,4.31,4.31,0,0,1-2.24-.57,3.72,3.72,0,0,1-1.49-1.64,5.81,5.81,0,0,1-.54-2.52v-.68a6.15,6.15,0,0,1,.5-2.58,3.64,3.64,0,0,1,1.44-1.67,4,4,0,0,1,2.19-.58,4.1,4.1,0,0,1,2.74.84,3.64,3.64,0,0,1,1.17,2.46h-2a2,2,0,0,0-.6-1.25,1.94,1.94,0,0,0-1.28-.4,1.82,1.82,0,0,0-1.58.79,4.17,4.17,0,0,0-.54,2.34v.64a4,4,0,0,0,.59,2.37,2,2,0,0,0,1.72.8,2.22,2.22,0,0,0,1.63-.5v-1.71h-1.85V340.7h3.88Z"/><path class="cls-4" d="M173.56,343.89H170l-.68,2.05h-2.16l3.67-10h1.88l3.69,10h-2.16Zm-3-1.67H173l-1.24-3.73Z"/><path class="cls-4" d="M182.42,343.33a1.07,1.07,0,0,0-.4-.9,5.27,5.27,0,0,0-1.46-.65,10.21,10.21,0,0,1-1.67-.69,2.76,2.76,0,0,1-1.68-2.47,2.44,2.44,0,0,1,.45-1.44,3,3,0,0,1,1.29-1,4.93,4.93,0,0,1,1.89-.35,4.51,4.51,0,0,1,1.88.38,3,3,0,0,1,1.28,1.1,2.83,2.83,0,0,1,.46,1.6h-2a1.35,1.35,0,0,0-.43-1.07,1.73,1.73,0,0,0-1.19-.38,1.88,1.88,0,0,0-1.16.32,1,1,0,0,0-.41.84,1,1,0,0,0,.48.82,5.68,5.68,0,0,0,1.43.61,6.14,6.14,0,0,1,2.52,1.31,2.61,2.61,0,0,1,.79,1.94,2.4,2.4,0,0,1-1,2,4.18,4.18,0,0,1-2.6.74,5,5,0,0,1-2.07-.42,3.33,3.33,0,0,1-1.43-1.16,3,3,0,0,1-.49-1.7h2q0,1.65,1.95,1.65a1.87,1.87,0,0,0,1.13-.29A1,1,0,0,0,182.42,343.33Z"/><path class="cls-4" d="M193.85,345.94h-2v-4.27h-4v4.27h-2V336h2v4h4v-4h2Z"/><path class="cls-4" d="M197.78,345.94h-2V336h2Z"/><path class="cls-4" d="M211.13,345.94h-2v-4.27h-4v4.27h-2V336h2v4h4v-4h2Z"/><path class="cls-4" d="M215.06,345.94h-2V336h2Z"/><path class="cls-4" d="M220.59,342.29H219v3.65h-2V336h3.66a4.11,4.11,0,0,1,2.69.78,2.72,2.72,0,0,1,1,2.23,2.75,2.75,0,0,1-1.76,2.78l2.13,4.07v.1h-2.17ZM219,340.63h1.64a1.66,1.66,0,0,0,1.18-.39,1.44,1.44,0,0,0,.42-1.09,1.53,1.53,0,0,0-.39-1.11,1.65,1.65,0,0,0-1.22-.4H219Z"/><path class="cls-4" d="M231.34,343.89h-3.55l-.68,2.05H225l3.67-10h1.88l3.69,10H232Zm-3-1.67h2.47l-1.24-3.73Z"/><path class="cls-4" d="M243.06,341.18a6.12,6.12,0,0,1-.52,2.58,3.86,3.86,0,0,1-1.47,1.71,4,4,0,0,1-2.19.61,4,4,0,0,1-2.19-.6,3.93,3.93,0,0,1-1.49-1.7,5.85,5.85,0,0,1-.53-2.54v-.49a6,6,0,0,1,.52-2.59,3.91,3.91,0,0,1,1.48-1.72,4.3,4.3,0,0,1,4.38,0,3.91,3.91,0,0,1,1.48,1.72,6,6,0,0,1,.53,2.58Zm-2.06-.45a4.23,4.23,0,0,0-.56-2.38,1.79,1.79,0,0,0-1.58-.81,1.77,1.77,0,0,0-1.57.8,4.23,4.23,0,0,0-.57,2.36v.48a4.28,4.28,0,0,0,.56,2.37,1.8,1.8,0,0,0,1.6.84,1.76,1.76,0,0,0,1.56-.81,4.26,4.26,0,0,0,.56-2.36Z"/><path class="cls-4" d="M251.07,341.94,250,343.09v2.85h-2V336h2v4.51l.89-1.24,2.51-3.27h2.5l-3.5,4.42,3.6,5.54H253.6Z"/><path class="cls-4" d="M264.66,341.18a6,6,0,0,1-.52,2.58,3.86,3.86,0,0,1-1.47,1.71,4,4,0,0,1-2.19.61,4,4,0,0,1-2.19-.6,3.93,3.93,0,0,1-1.49-1.7,5.85,5.85,0,0,1-.53-2.54v-.49a6,6,0,0,1,.52-2.59,4,4,0,0,1,1.48-1.72,4.3,4.3,0,0,1,4.38,0,3.91,3.91,0,0,1,1.48,1.72,6,6,0,0,1,.53,2.58Zm-2.06-.45a4.23,4.23,0,0,0-.55-2.38,1.81,1.81,0,0,0-1.59-.81,1.78,1.78,0,0,0-1.57.8,4.15,4.15,0,0,0-.56,2.36v.48a4.28,4.28,0,0,0,.55,2.37,1.94,1.94,0,0,0,3.17,0,4.26,4.26,0,0,0,.55-2.36Z"/><path class="cls-4" d="M272.06,341.62h-3.9v2.67h4.57v1.65h-6.6V336h6.59v1.66h-4.56V340h3.9Z"/><path class="cls-4" d="M281.94,345.94h-2l-4-6.56v6.56h-2V336h2l4,6.56V336h2Z"/><path class="cls-4" d="M289.32,345.94h-2V336h2Z"/><path class="cls-4" d="M299,344.68a3.47,3.47,0,0,1-1.55,1,6.54,6.54,0,0,1-2.22.37,4.31,4.31,0,0,1-2.24-.57,3.72,3.72,0,0,1-1.49-1.64,5.81,5.81,0,0,1-.54-2.52v-.68a6.15,6.15,0,0,1,.5-2.58,3.68,3.68,0,0,1,1.43-1.67,4.69,4.69,0,0,1,4.94.26,3.64,3.64,0,0,1,1.17,2.46h-2a2,2,0,0,0-.59-1.25,1.94,1.94,0,0,0-1.28-.4,1.82,1.82,0,0,0-1.58.79,4.17,4.17,0,0,0-.54,2.34v.64a4,4,0,0,0,.59,2.37,2,2,0,0,0,1.72.8,2.22,2.22,0,0,0,1.63-.5v-1.71h-1.85V340.7H299Z"/><path class="cls-4" d="M302.79,345.94h-2V336h2Z"/><path class="cls-4" d="M308.32,342.29H306.7v3.65h-2V336h3.66a4.16,4.16,0,0,1,2.7.78A2.75,2.75,0,0,1,312,339a3.11,3.11,0,0,1-.43,1.7,3,3,0,0,1-1.33,1.08l2.14,4.07v.1h-2.18Zm-1.62-1.66h1.64a1.66,1.66,0,0,0,1.18-.39,1.44,1.44,0,0,0,.42-1.09,1.53,1.53,0,0,0-.39-1.11,1.65,1.65,0,0,0-1.22-.4H306.7Z"/><path class="cls-4" d="M321,336v6.56a3.37,3.37,0,0,1-1,2.58,3.85,3.85,0,0,1-2.76,1,3.89,3.89,0,0,1-2.74-.93,3.29,3.29,0,0,1-1-2.54V336h2v6.57a2,2,0,0,0,.46,1.43,1.78,1.78,0,0,0,1.29.45c1.14,0,1.72-.61,1.74-1.82V336Z"/><path class="cls-4" d="M330.37,342.62a3.53,3.53,0,0,1-1.18,2.53,4.05,4.05,0,0,1-2.79.93,3.7,3.7,0,0,1-3-1.29,5.35,5.35,0,0,1-1.08-3.54v-.61a6,6,0,0,1,.5-2.54,3.76,3.76,0,0,1,1.43-1.68,4,4,0,0,1,2.16-.58,4,4,0,0,1,2.75.92,3.84,3.84,0,0,1,1.2,2.6h-2a2.06,2.06,0,0,0-.53-1.4,2,2,0,0,0-1.39-.44,1.72,1.72,0,0,0-1.52.74,4.21,4.21,0,0,0-.52,2.28v.75a4.44,4.44,0,0,0,.49,2.36,1.68,1.68,0,0,0,1.52.75,2,2,0,0,0,1.41-.44,2,2,0,0,0,.53-1.34Z"/><path class="cls-4" d="M339.72,345.94h-2v-4.27h-4v4.27h-2V336h2v4h4v-4h2Z"/><path class="cls-4" d="M343.65,345.94h-2V336h2Z"/><path class="cls-4" d="M349,345.94V336h3.45a4.53,4.53,0,0,1,2.72.69,2.38,2.38,0,0,1,.93,2,2.3,2.3,0,0,1-.38,1.29,2.09,2.09,0,0,1-1,.81,2.09,2.09,0,0,1,1.19.78,2.29,2.29,0,0,1,.44,1.42,2.64,2.64,0,0,1-.91,2.18,4,4,0,0,1-2.58.75Zm2-5.79h1.5c1,0,1.54-.43,1.54-1.24a1.13,1.13,0,0,0-.39-1,2,2,0,0,0-1.23-.3H351Zm0,1.45v2.69h1.74a1.67,1.67,0,0,0,1.12-.35,1.17,1.17,0,0,0,.4-.95,1.25,1.25,0,0,0-1.4-1.39Z"/><path class="cls-4" d="M365.28,336v6.56a3.37,3.37,0,0,1-1,2.58,4.49,4.49,0,0,1-5.51,0,3.32,3.32,0,0,1-1-2.54V336h2v6.57a1.92,1.92,0,0,0,.46,1.43,1.77,1.77,0,0,0,1.28.45c1.14,0,1.72-.61,1.74-1.82V336Z"/><path class="cls-4" d="M372.05,343.33a1.08,1.08,0,0,0-.41-.9,5.27,5.27,0,0,0-1.46-.65,10.61,10.61,0,0,1-1.67-.69,2.76,2.76,0,0,1-1.68-2.47,2.44,2.44,0,0,1,.45-1.44,3,3,0,0,1,1.3-1,4.93,4.93,0,0,1,1.89-.35,4.51,4.51,0,0,1,1.88.38,3.07,3.07,0,0,1,1.28,1.1,2.91,2.91,0,0,1,.46,1.6h-2a1.38,1.38,0,0,0-.43-1.07,1.76,1.76,0,0,0-1.2-.38,1.85,1.85,0,0,0-1.15.32,1,1,0,0,0-.42.84,1,1,0,0,0,.49.82,5.58,5.58,0,0,0,1.42.61,6.08,6.08,0,0,1,2.52,1.31,2.62,2.62,0,0,1,.8,1.94,2.43,2.43,0,0,1-1,2,4.23,4.23,0,0,1-2.61.74,5,5,0,0,1-2.07-.42A3.3,3.3,0,0,1,367,344.5a3,3,0,0,1-.49-1.7h2q0,1.65,1.95,1.65a1.85,1.85,0,0,0,1.13-.29A1,1,0,0,0,372.05,343.33Z"/><path class="cls-4" d="M384,343.33a1.08,1.08,0,0,0-.41-.9,5.27,5.27,0,0,0-1.46-.65,10.61,10.61,0,0,1-1.67-.69,2.76,2.76,0,0,1-1.68-2.47,2.44,2.44,0,0,1,.45-1.44,3,3,0,0,1,1.29-1,4.93,4.93,0,0,1,1.89-.35,4.48,4.48,0,0,1,1.88.38,3.09,3.09,0,0,1,1.29,1.1,2.9,2.9,0,0,1,.45,1.6h-2a1.38,1.38,0,0,0-.42-1.07,1.78,1.78,0,0,0-1.2-.38,1.88,1.88,0,0,0-1.16.32,1,1,0,0,0-.41.84,1,1,0,0,0,.48.82,5.85,5.85,0,0,0,1.43.61,6.14,6.14,0,0,1,2.52,1.31,2.61,2.61,0,0,1,.79,1.94,2.42,2.42,0,0,1-1,2,4.23,4.23,0,0,1-2.61.74,5,5,0,0,1-2.07-.42A3.24,3.24,0,0,1,379,344.5a3,3,0,0,1-.49-1.7h2q0,1.65,2,1.65a1.87,1.87,0,0,0,1.13-.29A1,1,0,0,0,384,343.33Z"/><path class="cls-4" d="M394.84,337.64h-3v8.3h-2v-8.3h-3V336h8Z"/><path class="cls-4" d="M403.9,341.18a6.12,6.12,0,0,1-.51,2.58,3.93,3.93,0,0,1-3.67,2.32,4,4,0,0,1-2.19-.6,4,4,0,0,1-1.49-1.7,5.85,5.85,0,0,1-.53-2.54v-.49a6,6,0,0,1,.53-2.59,3.85,3.85,0,0,1,1.48-1.72,4.28,4.28,0,0,1,4.37,0,3.93,3.93,0,0,1,1.49,1.72,6.12,6.12,0,0,1,.52,2.58Zm-2.06-.45a4.23,4.23,0,0,0-.55-2.38,1.81,1.81,0,0,0-1.58-.81,1.79,1.79,0,0,0-1.58.8,4.15,4.15,0,0,0-.56,2.36v.48a4.28,4.28,0,0,0,.55,2.37,1.94,1.94,0,0,0,3.17,0,4.26,4.26,0,0,0,.55-2.36Z"/><path class="cls-4" d="M407.4,342.43v3.51h-2V336h3.84a4.31,4.31,0,0,1,1.95.41,3,3,0,0,1,1.29,1.16,3.23,3.23,0,0,1,.46,1.72,2.87,2.87,0,0,1-1,2.31,4.08,4.08,0,0,1-2.75.85Zm0-1.66h1.82a1.78,1.78,0,0,0,1.23-.39,1.39,1.39,0,0,0,.42-1.09,1.64,1.64,0,0,0-.43-1.19,1.57,1.57,0,0,0-1.18-.46H407.4Z"/><g id="arrow_2" data-name="arrow 2"><line class="cls-5" x1="278.64" y1="306.79" x2="278.64" y2="324.47"/><polygon class="cls-6" points="271.58 320.68 285.7 320.68 278.21 328.26 271.58 320.68"/></g><path d="M242.4,293.28l.46-4.31h4.53v1.23H244l-.23,2.05a2.55,2.55,0,0,1,1.32-.34,2.35,2.35,0,0,1,1.87.77,3.14,3.14,0,0,1,.67,2.11,2.86,2.86,0,0,1-.74,2.07,2.69,2.69,0,0,1-2,.77A2.8,2.8,0,0,1,243,297a2.42,2.42,0,0,1-.82-1.75h1.36a1.49,1.49,0,0,0,.44,1,1.33,1.33,0,0,0,.94.33,1.19,1.19,0,0,0,1-.47,2,2,0,0,0,.36-1.28,1.77,1.77,0,0,0-.4-1.23,1.39,1.39,0,0,0-1.1-.46,1.8,1.8,0,0,0-.65.11,2,2,0,0,0-.58.4Z"/><path d="M253.14,291.17l0,.66a2.27,2.27,0,0,1,1.81-.78,1.74,1.74,0,0,1,1.73,1,2.19,2.19,0,0,1,1.92-1,2,2,0,0,1,1.55.58,2.64,2.64,0,0,1,.52,1.71v4.17H259.3v-4.13a1.27,1.27,0,0,0-.26-.88,1.15,1.15,0,0,0-.87-.28,1.12,1.12,0,0,0-.78.26,1.31,1.31,0,0,0-.43.68v4.35h-1.4v-4.17a1,1,0,0,0-1.14-1.12,1.25,1.25,0,0,0-1.2.69v4.6h-1.4v-6.34Z"/><path d="M262.16,289.52a.76.76,0,0,1,.2-.55.9.9,0,0,1,1.18,0,.77.77,0,0,1,.21.55.72.72,0,0,1-.21.53.9.9,0,0,1-1.18,0A.72.72,0,0,1,262.16,289.52Zm1.49,8h-1.41v-6.34h1.41Z"/><path d="M266.49,291.17l0,.73a2.26,2.26,0,0,1,1.83-.85c1.31,0,2,.75,2,2.27v4.19H269V293.4a1.31,1.31,0,0,0-.26-.89,1.07,1.07,0,0,0-.85-.29,1.37,1.37,0,0,0-1.27.78v4.51h-1.41v-6.34Z"/><path d="M275.31,295.79a.65.65,0,0,0-.31-.58,3.1,3.1,0,0,0-1-.35,6,6,0,0,1-1.2-.39,1.62,1.62,0,0,1-1.06-1.5,1.69,1.69,0,0,1,.69-1.37,2.65,2.65,0,0,1,1.74-.55,2.8,2.8,0,0,1,1.81.56,1.78,1.78,0,0,1,.7,1.46h-1.41a.88.88,0,0,0-.3-.68,1.16,1.16,0,0,0-.8-.27,1.27,1.27,0,0,0-.76.21.68.68,0,0,0-.29.58.58.58,0,0,0,.27.51,3.64,3.64,0,0,0,1.1.37,5,5,0,0,1,1.3.44,1.85,1.85,0,0,1,.7.61,1.53,1.53,0,0,1,.23.87,1.65,1.65,0,0,1-.7,1.39,3,3,0,0,1-1.84.53,3.17,3.17,0,0,1-1.37-.28,2.27,2.27,0,0,1-.94-.78,1.86,1.86,0,0,1-.34-1.06h1.37a1,1,0,0,0,.38.78,1.76,1.76,0,0,0,1.77.06A.67.67,0,0,0,275.31,295.79Z"/><path d="M280.61,294.28a3.7,3.7,0,0,1,.37-1.68,2.66,2.66,0,0,1,1-1.15,2.85,2.85,0,0,1,1.52-.4,2.71,2.71,0,0,1,2.07.83,3.28,3.28,0,0,1,.85,2.19v.33a3.77,3.77,0,0,1-.36,1.68,2.72,2.72,0,0,1-1,1.15,2.86,2.86,0,0,1-1.53.4,2.73,2.73,0,0,1-2.13-.89,3.49,3.49,0,0,1-.8-2.39Zm1.41.12a2.64,2.64,0,0,0,.4,1.54,1.4,1.4,0,0,0,2.23,0,2.92,2.92,0,0,0,.39-1.65,2.47,2.47,0,0,0-.41-1.52,1.35,1.35,0,0,0-2.2,0A2.79,2.79,0,0,0,282,294.4Z"/><path d="M289,291.17l0,.73a2.22,2.22,0,0,1,1.82-.85c1.31,0,2,.75,2,2.27v4.19H291.4V293.4a1.31,1.31,0,0,0-.26-.89,1,1,0,0,0-.84-.29A1.35,1.35,0,0,0,289,293v4.51h-1.41v-6.34Z"/><path d="M302.71,294.4a3.84,3.84,0,0,1-.66,2.36,2.11,2.11,0,0,1-1.79.87,2.05,2.05,0,0,1-1.72-.8l-.07.68H297.2v-9h1.41v3.28a2,2,0,0,1,1.64-.73,2.16,2.16,0,0,1,1.8.86,3.9,3.9,0,0,1,.66,2.41Zm-1.41-.12a2.73,2.73,0,0,0-.36-1.55,1.2,1.2,0,0,0-1.05-.51,1.29,1.29,0,0,0-1.28.81v2.61a1.32,1.32,0,0,0,1.3.83,1.19,1.19,0,0,0,1-.5,2.66,2.66,0,0,0,.37-1.51Z"/><path d="M307.69,296.89a2.19,2.19,0,0,1-1.77.74,1.93,1.93,0,0,1-1.54-.6,2.61,2.61,0,0,1-.53-1.75v-4.11h1.41v4.09c0,.81.33,1.21,1,1.21a1.39,1.39,0,0,0,1.39-.75v-4.55h1.41v6.34h-1.33Z"/><path d="M314,295.79a.63.63,0,0,0-.31-.58,3,3,0,0,0-1-.35,6,6,0,0,1-1.2-.39,1.62,1.62,0,0,1-1-1.5,1.7,1.7,0,0,1,.68-1.37,2.69,2.69,0,0,1,1.74-.55,2.82,2.82,0,0,1,1.82.56,1.8,1.8,0,0,1,.69,1.46h-1.41a.88.88,0,0,0-.3-.68,1.16,1.16,0,0,0-.8-.27,1.29,1.29,0,0,0-.76.21.71.71,0,0,0-.29.58.58.58,0,0,0,.27.51,3.73,3.73,0,0,0,1.11.37,5.14,5.14,0,0,1,1.3.44,1.93,1.93,0,0,1,.7.61,1.61,1.61,0,0,1,.23.87,1.68,1.68,0,0,1-.7,1.39,3,3,0,0,1-1.84.53,3.21,3.21,0,0,1-1.38-.28,2.24,2.24,0,0,1-.93-.78,1.78,1.78,0,0,1-.34-1.06h1.37a1,1,0,0,0,.37.78,1.49,1.49,0,0,0,.93.27,1.41,1.41,0,0,0,.84-.21A.65.65,0,0,0,314,295.79Z"/><path class="cls-4" d="M169.12,257.66h-3.9v4.07h-2v-10h6.42v1.66h-4.39V256h3.9Z"/><path class="cls-4" d="M178.24,251.77v6.56a3.41,3.41,0,0,1-1,2.59,4.53,4.53,0,0,1-5.51,0,3.35,3.35,0,0,1-1-2.54v-6.64h2v6.57a1.91,1.91,0,0,0,.46,1.43,1.77,1.77,0,0,0,1.28.45c1.15,0,1.72-.61,1.74-1.82v-6.63Z"/><path class="cls-4" d="M183,257.74l-1.06,1.15v2.84h-2v-10h2v4.52l.9-1.24,2.51-3.28h2.49l-3.5,4.43,3.6,5.53h-2.41Z"/><path class="cls-4" d="M196.15,251.77v6.56a3.38,3.38,0,0,1-1,2.59,3.87,3.87,0,0,1-2.76.95,3.93,3.93,0,0,1-2.74-.92,3.35,3.35,0,0,1-1-2.54v-6.64h2v6.57a1.91,1.91,0,0,0,.47,1.43,1.75,1.75,0,0,0,1.28.45c1.14,0,1.72-.61,1.74-1.82v-6.63Z"/><path class="cls-4" d="M205.91,257a6.12,6.12,0,0,1-.51,2.58,3.9,3.9,0,0,1-3.67,2.31,4,4,0,0,1-2.19-.6,3.94,3.94,0,0,1-1.49-1.7,5.82,5.82,0,0,1-.53-2.54v-.49A6.17,6.17,0,0,1,198,254a3.93,3.93,0,0,1,1.49-1.72,4.28,4.28,0,0,1,4.37,0,3.85,3.85,0,0,1,1.48,1.72,6,6,0,0,1,.53,2.58Zm-2.06-.46a4.25,4.25,0,0,0-.55-2.38,2,2,0,0,0-3.16,0,4.15,4.15,0,0,0-.56,2.36V257a4.27,4.27,0,0,0,.55,2.36,1.93,1.93,0,0,0,3.17,0,4.3,4.3,0,0,0,.55-2.37Z"/><path class="cls-4" d="M210.47,257.74l-1.06,1.15v2.84h-2v-10h2v4.52l.9-1.24,2.51-3.28h2.49l-3.5,4.43,3.6,5.53H213Z"/><path class="cls-4" d="M221.74,259.68h-3.56l-.68,2.05h-2.15l3.66-10h1.88l3.69,10h-2.16Zm-3-1.66h2.46L220,254.29Z"/><path class="cls-4" d="M232,257.74,231,258.89v2.84h-2v-10h2v4.52l.89-1.24,2.51-3.28h2.5l-3.5,4.43,3.6,5.53h-2.41Z"/><path class="cls-4" d="M245.2,251.77v6.56a3.41,3.41,0,0,1-1,2.59,3.89,3.89,0,0,1-2.76.95,3.93,3.93,0,0,1-2.74-.92,3.32,3.32,0,0,1-1-2.54v-6.64h2v6.57a2,2,0,0,0,.46,1.43,1.78,1.78,0,0,0,1.29.45c1.14,0,1.72-.61,1.74-1.82v-6.63Z"/><path class="cls-4" d="M250,257.74l-1,1.15v2.84h-2v-10h2v4.52l.89-1.24,2.51-3.28h2.49l-3.49,4.43,3.6,5.53h-2.42Z"/><path class="cls-4" d="M263.54,257a6.12,6.12,0,0,1-.51,2.58,4,4,0,0,1-1.47,1.71,4.06,4.06,0,0,1-2.2.6,4,4,0,0,1-2.18-.6,3.88,3.88,0,0,1-1.49-1.7,6,6,0,0,1-.54-2.54v-.49a6,6,0,0,1,.53-2.59,3.91,3.91,0,0,1,1.48-1.72,4.3,4.3,0,0,1,4.38,0A4,4,0,0,1,263,254a6,6,0,0,1,.52,2.58Zm-2.05-.46a4.25,4.25,0,0,0-.56-2.38,2,2,0,0,0-3.16,0,4.15,4.15,0,0,0-.56,2.36V257a4.27,4.27,0,0,0,.55,2.36,1.8,1.8,0,0,0,1.6.85,1.78,1.78,0,0,0,1.57-.81,4.3,4.3,0,0,0,.56-2.37Z"/><path class="cls-4" d="M268.43,257.68a10.42,10.42,0,0,1,.41-3,7.72,7.72,0,0,1,1.22-2.51,4.61,4.61,0,0,1,1.74-1.52l.38,1.07a4.76,4.76,0,0,0-1.54,2.29,10.65,10.65,0,0,0-.56,3.61v.21a11.08,11.08,0,0,0,.55,3.63,4.9,4.9,0,0,0,1.55,2.32l-.38,1.05a4.56,4.56,0,0,1-1.71-1.48,7.76,7.76,0,0,1-1.22-2.44,10.21,10.21,0,0,1-.44-2.89Z"/><path class="cls-4" d="M278.89,259.68h-3.56l-.67,2.05H272.5l3.67-10h1.88l3.68,10h-2.15Zm-3-1.66h2.46l-1.23-3.73Z"/><path class="cls-4" d="M284.81,261.73h-2v-10h2Z"/><path class="cls-4" d="M290.34,258.08h-1.62v3.65h-2v-10h3.66a4.16,4.16,0,0,1,2.7.78,2.75,2.75,0,0,1,.94,2.23,3.09,3.09,0,0,1-.43,1.7,3,3,0,0,1-1.33,1.08l2.14,4.08v.09h-2.18Zm-1.62-1.66h1.64a1.66,1.66,0,0,0,1.18-.39,1.42,1.42,0,0,0,.42-1.09,1.53,1.53,0,0,0-.39-1.11,1.69,1.69,0,0,0-1.22-.4h-1.63Z"/><path class="cls-4" d="M297.56,258.22v3.51h-2v-10h3.84a4.44,4.44,0,0,1,1.95.41,3,3,0,0,1,1.3,1.17,3.27,3.27,0,0,1,.45,1.72,2.9,2.9,0,0,1-1,2.31,4.13,4.13,0,0,1-2.75.84Zm0-1.66h1.82a1.83,1.83,0,0,0,1.23-.38,1.43,1.43,0,0,0,.42-1.1,1.62,1.62,0,0,0-.43-1.18,1.58,1.58,0,0,0-1.18-.47h-1.86Z"/><path class="cls-4" d="M312.56,257a6.12,6.12,0,0,1-.51,2.58,3.91,3.91,0,0,1-1.47,1.71,4.3,4.3,0,0,1-4.38,0,3.88,3.88,0,0,1-1.49-1.7,6,6,0,0,1-.54-2.54v-.49a6,6,0,0,1,.53-2.59,3.91,3.91,0,0,1,1.48-1.72,4.3,4.3,0,0,1,4.38,0A3.91,3.91,0,0,1,312,254a6,6,0,0,1,.52,2.58Zm-2.05-.46a4.25,4.25,0,0,0-.56-2.38,2,2,0,0,0-3.16,0,4.24,4.24,0,0,0-.56,2.36V257a4.27,4.27,0,0,0,.56,2.36,1.92,1.92,0,0,0,3.16,0,4.3,4.3,0,0,0,.56-2.37Z"/><path class="cls-4" d="M317.68,258.08h-1.61v3.65h-2v-10h3.66a4.13,4.13,0,0,1,2.69.78,2.75,2.75,0,0,1,.95,2.23,3.09,3.09,0,0,1-.44,1.7,2.93,2.93,0,0,1-1.32,1.08l2.13,4.08v.09h-2.18Zm-1.61-1.66h1.63a1.69,1.69,0,0,0,1.19-.39,1.42,1.42,0,0,0,.42-1.09,1.5,1.5,0,0,0-.4-1.11,1.66,1.66,0,0,0-1.21-.4h-1.63Z"/><path class="cls-4" d="M330,253.43h-3v8.3h-2v-8.3h-3v-1.66h8Z"/><path class="cls-4" d="M334.35,257.84a10.23,10.23,0,0,1-.43,3,8.29,8.29,0,0,1-1.27,2.52,4.63,4.63,0,0,1-1.77,1.51l-.38-1.05a4.75,4.75,0,0,0,1.52-2.26,10.75,10.75,0,0,0,.58-3.51v-.36a10.73,10.73,0,0,0-.56-3.61,5,5,0,0,0-1.54-2.34l.38-1.05a4.51,4.51,0,0,1,1.74,1.47,8,8,0,0,1,1.26,2.47,9.86,9.86,0,0,1,.47,2.92Z"/><path class="cls-4" d="M344.56,259.12a1.08,1.08,0,0,0-.41-.9,5.59,5.59,0,0,0-1.46-.65,10.71,10.71,0,0,1-1.67-.68,2.77,2.77,0,0,1-1.68-2.47,2.42,2.42,0,0,1,.45-1.44,2.84,2.84,0,0,1,1.29-1,4.75,4.75,0,0,1,1.89-.36,4.33,4.33,0,0,1,1.88.39,3.07,3.07,0,0,1,1.29,1.09,2.9,2.9,0,0,1,.45,1.6h-2a1.34,1.34,0,0,0-.42-1.06,1.73,1.73,0,0,0-1.2-.38,1.88,1.88,0,0,0-1.16.31,1,1,0,0,0-.41.84,1,1,0,0,0,.48.82,5.48,5.48,0,0,0,1.43.61,6.27,6.27,0,0,1,2.52,1.31,2.61,2.61,0,0,1,.79,1.94,2.41,2.41,0,0,1-1,2,4.23,4.23,0,0,1-2.61.74,5,5,0,0,1-2.07-.42,3.24,3.24,0,0,1-1.42-1.16,2.92,2.92,0,0,1-.49-1.69h2q0,1.65,1.95,1.65a1.87,1.87,0,0,0,1.13-.3A1,1,0,0,0,344.56,259.12Z"/><path class="cls-4" d="M355.38,253.43h-3v8.3h-2v-8.3h-3v-1.66h8Z"/><path class="cls-4" d="M361.29,259.68h-3.56l-.68,2.05h-2.16l3.67-10h1.88l3.69,10H362Zm-3-1.66h2.46l-1.24-3.73Z"/><path class="cls-4" d="M371.65,253.43h-3v8.3h-2v-8.3h-3v-1.66h8Z"/><path class="cls-4" d="M375,261.73h-2v-10h2Z"/><path class="cls-4" d="M384.94,257a6,6,0,0,1-.52,2.58,3.91,3.91,0,0,1-1.47,1.71,4.3,4.3,0,0,1-4.38,0,3.94,3.94,0,0,1-1.49-1.7,5.82,5.82,0,0,1-.53-2.54v-.49a6,6,0,0,1,.52-2.59,3.93,3.93,0,0,1,1.49-1.72,4,4,0,0,1,2.18-.6,4,4,0,0,1,2.19.6,3.91,3.91,0,0,1,1.48,1.72,6,6,0,0,1,.53,2.58Zm-2.06-.46a4.25,4.25,0,0,0-.55-2.38,2,2,0,0,0-3.16,0,4.15,4.15,0,0,0-.56,2.36V257a4.27,4.27,0,0,0,.55,2.36,1.93,1.93,0,0,0,3.17,0,4.3,4.3,0,0,0,.55-2.37Z"/><path class="cls-4" d="M394.42,261.73h-2l-3.95-6.55v6.55h-2v-10h2l4,6.57v-6.57h2Z"/><path class="cls-2" d="M195.1,274.82a1,1,0,0,0-.36-.8,4.55,4.55,0,0,0-1.31-.56,6.37,6.37,0,0,1-1.5-.63,2,2,0,0,1-1.07-1.75,1.92,1.92,0,0,1,.77-1.56,3.1,3.1,0,0,1,2-.61,3.4,3.4,0,0,1,1.46.3,2.38,2.38,0,0,1,1,.85,2.15,2.15,0,0,1,.37,1.24H195.1a1.24,1.24,0,0,0-.38-1,1.6,1.6,0,0,0-1.1-.35,1.64,1.64,0,0,0-1,.28,1,1,0,0,0-.37.8.85.85,0,0,0,.4.72,4.51,4.51,0,0,0,1.31.56,6,6,0,0,1,1.46.61,2.3,2.3,0,0,1,.81.8,2,2,0,0,1,.26,1.05,1.85,1.85,0,0,1-.75,1.55,3.2,3.2,0,0,1-2,.58,3.78,3.78,0,0,1-1.56-.31,2.64,2.64,0,0,1-1.11-.87,2.19,2.19,0,0,1-.39-1.29H192a1.24,1.24,0,0,0,.44,1,1.93,1.93,0,0,0,1.26.37,1.71,1.71,0,0,0,1.07-.29A1,1,0,0,0,195.1,274.82Z"/><path class="cls-2" d="M198.81,271.66a2,2,0,0,1,1.62-.75q1.86,0,1.89,2.13v3.79H201v-3.75a1.17,1.17,0,0,0-.26-.85A1.09,1.09,0,0,0,200,272a1.28,1.28,0,0,0-1.18.7v4.15h-1.3v-8.25h1.3Z"/><path class="cls-2" d="M207.16,276.26a2,2,0,0,1-1.64.68,1.8,1.8,0,0,1-1.43-.55,2.37,2.37,0,0,1-.49-1.6V271h1.31v3.75c0,.74.31,1.11.92,1.11a1.28,1.28,0,0,0,1.28-.69V271h1.31v5.81h-1.23Z"/><path class="cls-2" d="M211.38,269.61V271h1v1h-1v3.24a.76.76,0,0,0,.13.48.63.63,0,0,0,.48.15,2.3,2.3,0,0,0,.45-.05v1a3.3,3.3,0,0,1-.86.12c-1,0-1.5-.55-1.5-1.66V272h-1v-1h1v-1.41Z"/><path class="cls-2" d="M215,269.61V271h1v1h-1v3.24a.71.71,0,0,0,.13.48.62.62,0,0,0,.47.15,2.49,2.49,0,0,0,.46-.05v1a3.36,3.36,0,0,1-.86.12c-1,0-1.5-.55-1.5-1.66V272h-1v-1h1v-1.41Z"/><path class="cls-2" d="M218.45,276.83h-1.3v-8.25h1.3Z"/><path class="cls-2" d="M222.43,276.94a2.69,2.69,0,0,1-2-.78,2.86,2.86,0,0,1-.77-2.08v-.16a3.57,3.57,0,0,1,.33-1.56,2.57,2.57,0,0,1,1-1.06,2.42,2.42,0,0,1,1.35-.39,2.32,2.32,0,0,1,1.84.76,3.22,3.22,0,0,1,.64,2.14v.53H221a1.72,1.72,0,0,0,.49,1.14,1.43,1.43,0,0,0,1.06.42,1.77,1.77,0,0,0,1.46-.73l.7.67a2.29,2.29,0,0,1-.93.81A3,3,0,0,1,222.43,276.94Zm-.15-5a1.11,1.11,0,0,0-.87.38,1.94,1.94,0,0,0-.42,1h2.48v-.09a1.54,1.54,0,0,0-.35-1A1.05,1.05,0,0,0,222.28,272Z"/><path class="cls-2" d="M233.61,274a3.49,3.49,0,0,1-.6,2.15,2,2,0,0,1-1.66.8,1.88,1.88,0,0,1-1.59-.74l-.07.63h-1.18v-8.25h1.31v3a1.89,1.89,0,0,1,1.52-.67,2,2,0,0,1,1.67.79,3.6,3.6,0,0,1,.6,2.21Zm-1.3-.12a2.45,2.45,0,0,0-.33-1.41,1.12,1.12,0,0,0-1-.48,1.2,1.2,0,0,0-1.19.74v2.4a1.23,1.23,0,0,0,1.2.76,1.1,1.1,0,0,0,.94-.46,2.33,2.33,0,0,0,.35-1.38Z"/><path class="cls-2" d="M238.23,276.26a2,2,0,0,1-1.64.68,1.8,1.8,0,0,1-1.43-.55,2.37,2.37,0,0,1-.48-1.6V271H236v3.75c0,.74.31,1.11.92,1.11a1.28,1.28,0,0,0,1.28-.69V271h1.31v5.81h-1.23Z"/><path class="cls-2" d="M244.08,275.25a.6.6,0,0,0-.29-.53,3,3,0,0,0-.95-.32,5,5,0,0,1-1.12-.35,1.49,1.49,0,0,1-1-1.37,1.55,1.55,0,0,1,.63-1.26,2.48,2.48,0,0,1,1.61-.51,2.64,2.64,0,0,1,1.69.52,1.65,1.65,0,0,1,.64,1.34H244a.81.81,0,0,0-.28-.63,1,1,0,0,0-.74-.25,1.18,1.18,0,0,0-.7.2.62.62,0,0,0-.27.53.53.53,0,0,0,.25.47,3.49,3.49,0,0,0,1,.33,5,5,0,0,1,1.21.41,1.65,1.65,0,0,1,.65.56,1.43,1.43,0,0,1,.21.79,1.51,1.51,0,0,1-.65,1.27,2.72,2.72,0,0,1-1.7.49,3.08,3.08,0,0,1-1.28-.26,2,2,0,0,1-.86-.71,1.66,1.66,0,0,1-.32-1h1.27a.92.92,0,0,0,.35.71,1.65,1.65,0,0,0,1.64.06A.62.62,0,0,0,244.08,275.25Z"/><path class="cls-2" d="M252.71,276.83a1.8,1.8,0,0,1-.15-.54,2.2,2.2,0,0,1-3,.15,1.61,1.61,0,0,1-.55-1.23,1.66,1.66,0,0,1,.69-1.43,3.35,3.35,0,0,1,2-.5h.8v-.38a1,1,0,0,0-.25-.72,1,1,0,0,0-.76-.27,1.16,1.16,0,0,0-.74.22.69.69,0,0,0-.28.57h-1.31a1.48,1.48,0,0,1,.32-.9,2.2,2.2,0,0,1,.86-.65,3,3,0,0,1,1.22-.24,2.42,2.42,0,0,1,1.63.52,1.83,1.83,0,0,1,.62,1.44v2.62a2.92,2.92,0,0,0,.22,1.25v.09Zm-1.44-.94a1.55,1.55,0,0,0,.73-.18,1.25,1.25,0,0,0,.51-.51v-1.1h-.7a1.9,1.9,0,0,0-1.09.26.81.81,0,0,0-.36.71.76.76,0,0,0,.25.6A.94.94,0,0,0,251.27,275.89Z"/><path class="cls-2" d="M257.16,275.18l1.22-4.16h1.35l-2,5.81h-1.13l-2-5.81h1.35Z"/><path class="cls-2" d="M263.94,276.83a1.8,1.8,0,0,1-.15-.54,2.06,2.06,0,0,1-1.53.65,2,2,0,0,1-1.42-.5,1.59,1.59,0,0,1-.56-1.23,1.66,1.66,0,0,1,.69-1.43,3.36,3.36,0,0,1,2-.5h.8v-.38a1,1,0,0,0-.26-.72,1,1,0,0,0-.76-.27,1.12,1.12,0,0,0-.73.22.68.68,0,0,0-.29.57h-1.3a1.47,1.47,0,0,1,.31-.9,2.2,2.2,0,0,1,.86-.65,3,3,0,0,1,1.22-.24,2.42,2.42,0,0,1,1.63.52,1.83,1.83,0,0,1,.62,1.44v2.62a2.92,2.92,0,0,0,.22,1.25v.09Zm-1.44-.94a1.55,1.55,0,0,0,.73-.18,1.34,1.34,0,0,0,.52-.51v-1.1H263a1.93,1.93,0,0,0-1.09.26.81.81,0,0,0-.36.71.76.76,0,0,0,.25.6A.94.94,0,0,0,262.5,275.89Z"/><path class="cls-2" d="M266.42,269.51a.69.69,0,0,1,.19-.5.74.74,0,0,1,.55-.2.72.72,0,0,1,.54.2.7.7,0,0,1,.2.5.66.66,0,0,1-.2.49.72.72,0,0,1-.54.2.74.74,0,0,1-.55-.2A.66.66,0,0,1,266.42,269.51Zm1.39,7.32H266.5V271h1.31Z"/><path class="cls-2" d="M270.61,276.83h-1.3v-8.25h1.3Z"/><path class="cls-2" d="M275.51,276.83a1.8,1.8,0,0,1-.15-.54,2.2,2.2,0,0,1-3,.15,1.61,1.61,0,0,1-.55-1.23,1.66,1.66,0,0,1,.69-1.43,3.35,3.35,0,0,1,2-.5h.8v-.38a.91.91,0,0,0-1-1,1.15,1.15,0,0,0-.73.22.69.69,0,0,0-.28.57H272a1.48,1.48,0,0,1,.32-.9,2.2,2.2,0,0,1,.86-.65,3,3,0,0,1,1.22-.24,2.42,2.42,0,0,1,1.63.52,1.83,1.83,0,0,1,.62,1.44v2.62a2.92,2.92,0,0,0,.22,1.25v.09Zm-1.44-.94a1.55,1.55,0,0,0,.73-.18,1.25,1.25,0,0,0,.51-.51v-1.1h-.7a1.9,1.9,0,0,0-1.09.26.81.81,0,0,0-.36.71.76.76,0,0,0,.25.6A.92.92,0,0,0,274.07,275.89Z"/><path class="cls-2" d="M283.09,274a3.43,3.43,0,0,1-.61,2.15,2,2,0,0,1-1.66.8,1.88,1.88,0,0,1-1.59-.74l-.06.63H278v-8.25h1.31v3a1.91,1.91,0,0,1,1.52-.67,2,2,0,0,1,1.67.79,3.6,3.6,0,0,1,.61,2.21Zm-1.31-.12a2.45,2.45,0,0,0-.33-1.41,1.11,1.11,0,0,0-1-.48,1.22,1.22,0,0,0-1.19.74v2.4a1.23,1.23,0,0,0,1.2.76,1.12,1.12,0,0,0,.95-.46,2.41,2.41,0,0,0,.34-1.38Z"/><path class="cls-2" d="M285.57,276.83h-1.31v-8.25h1.31Z"/><path class="cls-2" d="M289.55,276.94a2.69,2.69,0,0,1-2-.78,2.82,2.82,0,0,1-.77-2.08v-.16a3.57,3.57,0,0,1,.33-1.56,2.62,2.62,0,0,1,.94-1.06,2.48,2.48,0,0,1,1.36-.39,2.29,2.29,0,0,1,1.83.76,3.22,3.22,0,0,1,.65,2.14v.53h-3.8a1.76,1.76,0,0,0,.48,1.14,1.45,1.45,0,0,0,1.06.42,1.74,1.74,0,0,0,1.46-.73l.71.67a2.29,2.29,0,0,1-.93.81A3,3,0,0,1,289.55,276.94Zm-.16-5a1.09,1.09,0,0,0-.86.38,1.87,1.87,0,0,0-.43,1h2.49v-.09a1.54,1.54,0,0,0-.35-1A1.07,1.07,0,0,0,289.39,272Z"/><path class="cls-2" d="M295.39,273.87a3.51,3.51,0,0,1,.33-1.54,2.62,2.62,0,0,1,.95-1.05,2.74,2.74,0,0,1,1.41-.37,2.55,2.55,0,0,1,1.91.76,3,3,0,0,1,.79,2V274a3.44,3.44,0,0,1-.33,1.53,2.48,2.48,0,0,1-.95,1.05,2.66,2.66,0,0,1-1.42.37,2.49,2.49,0,0,1-2-.82,3.08,3.08,0,0,1-.74-2.18Zm1.3.12a2.4,2.4,0,0,0,.37,1.4,1.2,1.2,0,0,0,1,.51,1.18,1.18,0,0,0,1-.52,2.53,2.53,0,0,0,.37-1.51,2.31,2.31,0,0,0-.38-1.39,1.27,1.27,0,0,0-2,0A2.54,2.54,0,0,0,296.69,274Z"/><path class="cls-2" d="M303.11,271l0,.67a2.1,2.1,0,0,1,1.7-.78c1.2,0,1.82.7,1.84,2.08v3.84h-1.3v-3.76a1.2,1.2,0,0,0-.24-.82,1,1,0,0,0-.78-.27,1.26,1.26,0,0,0-1.18.72v4.13h-1.3V271Z"/><path class="cls-2" d="M312,271l0,.61a2.06,2.06,0,0,1,1.67-.72,1.61,1.61,0,0,1,1.6.9,2,2,0,0,1,1.78-.9,1.79,1.79,0,0,1,1.43.54A2.34,2.34,0,0,1,319,273v3.82h-1.3v-3.78a1.15,1.15,0,0,0-.24-.81,1.09,1.09,0,0,0-.81-.26,1.06,1.06,0,0,0-.72.24,1.29,1.29,0,0,0-.4.63v4h-1.31V273a.93.93,0,0,0-1-1,1.17,1.17,0,0,0-1.12.64v4.21h-1.3V271Z"/><path class="cls-2" d="M323.79,276.83a2.71,2.71,0,0,1-.15-.54,2,2,0,0,1-1.52.65,2.08,2.08,0,0,1-1.43-.5,1.58,1.58,0,0,1-.55-1.23,1.66,1.66,0,0,1,.69-1.43,3.35,3.35,0,0,1,2-.5h.8v-.38a1,1,0,0,0-.25-.72,1,1,0,0,0-.77-.27,1.13,1.13,0,0,0-.73.22.69.69,0,0,0-.28.57h-1.31a1.48,1.48,0,0,1,.32-.9,2.2,2.2,0,0,1,.86-.65,3,3,0,0,1,1.22-.24,2.37,2.37,0,0,1,1.62.52,1.81,1.81,0,0,1,.63,1.44v2.62a2.92,2.92,0,0,0,.22,1.25v.09Zm-1.43-.94a1.55,1.55,0,0,0,.73-.18,1.25,1.25,0,0,0,.51-.51v-1.1h-.7a1.88,1.88,0,0,0-1.09.26.8.8,0,0,0-.37.71.79.79,0,0,0,.25.6A1,1,0,0,0,322.36,275.89Z"/><path class="cls-2" d="M327.91,269.61V271h1v1h-1v3.24a.71.71,0,0,0,.13.48.6.6,0,0,0,.47.15,2.49,2.49,0,0,0,.46-.05v1a3.36,3.36,0,0,1-.86.12c-1,0-1.51-.55-1.51-1.66V272h-1v-1h1v-1.41Z"/><path class="cls-2" d="M332.32,275.9a1.18,1.18,0,0,0,.81-.29,1,1,0,0,0,.34-.7h1.23a1.87,1.87,0,0,1-.33,1,2.32,2.32,0,0,1-.86.75,2.64,2.64,0,0,1-1.17.27,2.47,2.47,0,0,1-1.94-.79,3.11,3.11,0,0,1-.71-2.18v-.13a3,3,0,0,1,.71-2.13,2.45,2.45,0,0,1,1.93-.8,2.42,2.42,0,0,1,1.69.61,2.17,2.17,0,0,1,.68,1.59h-1.23a1.16,1.16,0,0,0-.34-.83,1.1,1.1,0,0,0-.81-.32,1.15,1.15,0,0,0-1,.46,2.39,2.39,0,0,0-.35,1.39V274a2.44,2.44,0,0,0,.34,1.41A1.16,1.16,0,0,0,332.32,275.9Z"/><path class="cls-2" d="M337,271.66a2,2,0,0,1,1.61-.75q1.86,0,1.89,2.13v3.79h-1.31v-3.75a1.12,1.12,0,0,0-.26-.85,1.09,1.09,0,0,0-.76-.25,1.25,1.25,0,0,0-1.17.7v4.15h-1.31v-8.25H337Z"/><path class="cls-2" d="M344.29,273.88a3.47,3.47,0,0,1,.62-2.15,2,2,0,0,1,1.67-.82,1.91,1.91,0,0,1,1.5.65v-3h1.3v8.25H348.2l-.06-.6a2,2,0,0,1-1.57.71,2,2,0,0,1-1.65-.82A3.59,3.59,0,0,1,344.29,273.88Zm1.31.12a2.39,2.39,0,0,0,.34,1.38,1.1,1.1,0,0,0,1,.5,1.24,1.24,0,0,0,1.17-.72v-2.48a1.23,1.23,0,0,0-1.16-.7,1.11,1.11,0,0,0-1,.51A2.66,2.66,0,0,0,345.6,274Z"/><path class="cls-2" d="M354.22,276.83a1.8,1.8,0,0,1-.15-.54,2.2,2.2,0,0,1-3,.15,1.58,1.58,0,0,1-.55-1.23,1.66,1.66,0,0,1,.69-1.43,3.35,3.35,0,0,1,2-.5h.8v-.38a.91.91,0,0,0-1-1,1.15,1.15,0,0,0-.73.22.69.69,0,0,0-.28.57h-1.31a1.48,1.48,0,0,1,.32-.9,2.2,2.2,0,0,1,.86-.65,3,3,0,0,1,1.22-.24,2.42,2.42,0,0,1,1.63.52,1.83,1.83,0,0,1,.62,1.44v2.62a2.92,2.92,0,0,0,.22,1.25v.09Zm-1.44-.94a1.55,1.55,0,0,0,.73-.18,1.25,1.25,0,0,0,.51-.51v-1.1h-.7a1.9,1.9,0,0,0-1.09.26.82.82,0,0,0-.37.71.79.79,0,0,0,.25.6A1,1,0,0,0,352.78,275.89Z"/><path class="cls-2" d="M358.73,275l1.18-3.94h1.39L359,277.71a1.87,1.87,0,0,1-1.8,1.47,2.16,2.16,0,0,1-.63-.1v-1h.25a1.28,1.28,0,0,0,.74-.18,1.09,1.09,0,0,0,.39-.6l.19-.5-2-5.78h1.41Z"/><path class="cls-2" d="M365.31,275.25a.6.6,0,0,0-.29-.53,3,3,0,0,0-.95-.32,4.69,4.69,0,0,1-1.11-.35,1.49,1.49,0,0,1-1-1.37,1.55,1.55,0,0,1,.63-1.26,2.48,2.48,0,0,1,1.61-.51,2.64,2.64,0,0,1,1.69.52,1.63,1.63,0,0,1,.64,1.34h-1.31a.81.81,0,0,0-.28-.63,1,1,0,0,0-.74-.25,1.18,1.18,0,0,0-.7.2.62.62,0,0,0-.27.53.55.55,0,0,0,.25.47,3.49,3.49,0,0,0,1,.33,4.82,4.82,0,0,1,1.21.41,1.65,1.65,0,0,1,.65.56,1.43,1.43,0,0,1,.21.79,1.48,1.48,0,0,1-.65,1.27,2.72,2.72,0,0,1-1.7.49,3,3,0,0,1-1.27-.26,2,2,0,0,1-.87-.71,1.66,1.66,0,0,1-.32-1h1.27a.92.92,0,0,0,.35.71,1.65,1.65,0,0,0,1.64.06A.62.62,0,0,0,365.31,275.25Z"/></g></g></g></svg>