<svg xmlns="http://www.w3.org/2000/svg" viewBox="0 0 599.49 480"><defs><style>.cls-1{fill:#fff;}.cls-2{fill:#6678a8;}.cls-3{fill:#65a4c3;}.cls-4,.cls-6{fill:none;}.cls-4{stroke:#b4d9b9;stroke-miterlimit:10;stroke-width:2px;}.cls-5{fill:#b4d9b9;}</style></defs><title>Hanazono</title><g id="Layer_2" data-name="Layer 2"><g id="Layer_1-2" data-name="Layer 1"><g id="Hanazono"><g id="box"><rect class="cls-1" x="0.22" y="1.86" width="599.04" height="478.14"/></g><g id="Name_of_Stadium" data-name="Name of Stadium"><rect class="cls-2" y="416.17" width="599.49" height="63.83"/><path class="cls-1" d="M211.44,438.86v-4.51h1a5.19,5.19,0,0,0,3.71-1.55,5.26,5.26,0,0,0,1.53-3.73,1,1,0,0,0-1-1.06h-6.29a1.05,1.05,0,0,0-1,1.06v9.23a70.24,70.24,0,0,0-10.94-1.58c-2-.15-4.07-.23-6.14-.25v-4.23h1a5.19,5.19,0,0,0,3.71-1.55,5.28,5.28,0,0,0,1.53-3.74,1,1,0,0,0-1-1.05h-6.29a1,1,0,0,0-1.05,1.05v9.52c-2.07,0-4.14.1-6.15.25a70.24,70.24,0,0,0-10.94,1.58v-3.95h1.05a5.19,5.19,0,0,0,3.71-1.55,5.26,5.26,0,0,0,1.53-3.73,1.05,1.05,0,0,0-1-1.06H172a1.05,1.05,0,0,0-1.05,1.06v9.79c-4.38,1.31-6.6,3-6.6,5v19c0,1.61,1.42,3,4.23,4.18,4.52,1.86,11.33,2.71,16.24,3,2.08.13,4.22.2,6.36.2s4.27-.07,6.35-.2c4.86-.31,11.71-1.15,16.24-3,2.81-1.17,4.24-2.57,4.24-4.18v-19C218,441.85,215.82,440.17,211.44,438.86Zm0-8.74h4a3.22,3.22,0,0,1-.74,1.19,3.13,3.13,0,0,1-2.23.93h-1ZM192.26,428h4a3.18,3.18,0,0,1-.74,1.18,3.13,3.13,0,0,1-2.23.93h-1Zm-19.19,2.11h4a3.36,3.36,0,0,1-.74,1.19,3.13,3.13,0,0,1-2.23.93h-1.05Zm25.84,8.76a67.61,67.61,0,0,1,9.3,1.33l-4.65,3.35c-2.16-.31-4.66-.52-7.32-.64Zm-7.7-.3c1.77,0,3.54,0,5.28.14l-2.72,4.11c-1.69,0-3.44,0-5.13,0l-2.72-4.11C187.66,438.62,189.43,438.58,191.21,438.58Zm-7.7.3,2.67,4c-2.67.12-5.16.33-7.32.63l-4.65-3.34A67.39,67.39,0,0,1,183.51,438.88Zm-12,2,4.39,3.16a20.76,20.76,0,0,0-2.48.68c-.93.33-2.15.89-2.4,1.95-3.55-1.14-4.59-2.29-4.59-2.82S167.56,442.09,171.55,440.89Zm5.72,26.23c-7.84-1.27-10.8-3.25-10.8-4.24v-3.29a12.49,12.49,0,0,0,2.17,1.11,40.27,40.27,0,0,0,8.63,2.21Zm0-6.36a37.23,37.23,0,0,1-7.84-2c-2.18-.9-3-1.75-3-2.21v-3.27a12.5,12.5,0,0,0,2.14,1.1,39.69,39.69,0,0,0,8.66,2.21Zm0-6.32c-7.84-1.28-10.8-3.25-10.8-4.24v-3.26a22.67,22.67,0,0,0,7.21,2.62c1.12.25,2.32.48,3.59.68Zm6.6,13.45c-1.55-.12-3.06-.27-4.51-.46v-4.22c1.45.19,3,.34,4.51.46Zm.12-6.33c-1.6-.13-3.15-.29-4.63-.48v-4.2c2.17.28,4.48.48,6.84.59l-.1.11A7.35,7.35,0,0,0,184,461.56Zm-4.63-6.81v-4.21a94.47,94.47,0,0,0,10.8.71v4.23A91.69,91.69,0,0,1,179.36,454.75ZM196.45,468c-1.38.07-2.79.11-4.19.13V465a1.05,1.05,0,1,0-2.1,0v3.17c-1.41,0-2.81-.06-4.19-.13v-5.32a5.23,5.23,0,0,1,8.94-3.57,5.35,5.35,0,0,1,1.54,3.58V468Zm6.6-.6c-1.44.19-3,.34-4.51.46v-4.22c1.56-.12,3.07-.27,4.51-.46Zm0-6.35c-1.48.19-3,.35-4.62.48a7.47,7.47,0,0,0-2-3.91l-.19-.18c2.37-.11,4.67-.31,6.84-.59v4.2Zm0-6.33a91.52,91.52,0,0,1-10.79.73v-4.23a94.29,94.29,0,0,0,10.79-.71Zm-11.84-5.61a89.76,89.76,0,0,1-12.74-.86c-1.41-.2-2.75-.44-4-.7l-.19-.1a6.14,6.14,0,0,1-.91-.41c2.78-1.53,11.54-2,14.74-2.11,2-.06,4.15-.06,6.17,0a84,84,0,0,1,9.42.75,16.85,16.85,0,0,1,5.32,1.36,7.25,7.25,0,0,1-1.29.55c-1.19.25-2.46.47-3.79.66A89.76,89.76,0,0,1,191.21,449.14Zm24.73,13.74c0,1-2.95,3-10.79,4.24V462.9a39.79,39.79,0,0,0,8.62-2.2,12.14,12.14,0,0,0,2.17-1.11Zm0-6.34c0,.46-.77,1.31-3,2.21a37.28,37.28,0,0,1-7.83,2v-4.18a39.74,39.74,0,0,0,8.65-2.21,12.14,12.14,0,0,0,2.14-1.1Zm0-6.34c0,1-2.95,3-10.79,4.24v-4.2c3.21-.51,8.08-1.52,10.79-3.3Zm-4.59-3.52c-.25-1.07-1.51-1.63-2.47-2a18.4,18.4,0,0,0-2.41-.66l4.39-3.16c4,1.2,5.08,2.42,5.08,3S214.9,445.55,211.35,446.68Z"/><path class="cls-1" d="M242.86,457h-2.31v-4.86H236V457h-2.31V445.67H236v4.59h4.53v-4.59h2.31Z"/><path class="cls-1" d="M251.38,454.67h-4.07l-.77,2.34h-2.46l4.18-11.34h2.15L254.62,457h-2.46Zm-3.44-1.89h2.81l-1.41-4.25Z"/><path class="cls-1" d="M264.82,457h-2.31L258,449.54V457h-2.32V445.67H258l4.52,7.47v-7.47h2.31Z"/><path class="cls-1" d="M273.2,454.67h-4.06l-.78,2.34H265.9l4.19-11.34h2.14L276.45,457H274Zm-3.44-1.89h2.81l-1.41-4.25Z"/><path class="cls-1" d="M280,455.13h5.68V457h-8.57v-1.37l5.56-8.08h-5.56v-1.89h8.44V447Z"/><path class="cls-1" d="M296.13,451.59a6.92,6.92,0,0,1-.59,2.94,4.46,4.46,0,0,1-1.68,2,4.59,4.59,0,0,1-2.51.69,4.65,4.65,0,0,1-2.49-.68,4.48,4.48,0,0,1-1.7-1.94,6.5,6.5,0,0,1-.61-2.89v-.56a6.85,6.85,0,0,1,.6-3,4.52,4.52,0,0,1,1.69-2,4.94,4.94,0,0,1,5,0,4.52,4.52,0,0,1,1.69,2,6.83,6.83,0,0,1,.6,2.94Zm-2.35-.51a4.82,4.82,0,0,0-.63-2.71,2.22,2.22,0,0,0-3.61,0,4.63,4.63,0,0,0-.64,2.68v.55a4.9,4.9,0,0,0,.63,2.7,2.21,2.21,0,0,0,3.62,0,5,5,0,0,0,.63-2.7Z"/><path class="cls-1" d="M307,457h-2.32l-4.51-7.47V457h-2.32V445.67h2.32l4.52,7.47v-7.47H307Z"/><path class="cls-1" d="M318.23,451.59a6.92,6.92,0,0,1-.59,2.94,4.46,4.46,0,0,1-1.68,2,4.59,4.59,0,0,1-2.51.69,4.65,4.65,0,0,1-2.49-.68,4.48,4.48,0,0,1-1.7-1.94,6.64,6.64,0,0,1-.61-2.89v-.56a6.85,6.85,0,0,1,.6-3,4.52,4.52,0,0,1,1.69-2,4.94,4.94,0,0,1,5,0,4.52,4.52,0,0,1,1.69,2,6.83,6.83,0,0,1,.6,2.94Zm-2.35-.51a4.82,4.82,0,0,0-.63-2.71,2.22,2.22,0,0,0-3.61,0A4.63,4.63,0,0,0,311,451v.55a4.9,4.9,0,0,0,.63,2.7,2.21,2.21,0,0,0,3.62,0,4.9,4.9,0,0,0,.63-2.7Z"/><path class="cls-1" d="M328,452.86h-1.85V457h-2.31V445.67H328a4.66,4.66,0,0,1,3.07.89,3.11,3.11,0,0,1,1.08,2.53,3.54,3.54,0,0,1-.49,1.94,3.38,3.38,0,0,1-1.52,1.23l2.44,4.64V457h-2.49Zm-1.85-1.9H328a1.91,1.91,0,0,0,1.36-.45,1.63,1.63,0,0,0,.48-1.23,1.72,1.72,0,0,0-.46-1.26,1.84,1.84,0,0,0-1.38-.46h-1.87Z"/><path class="cls-1" d="M342.47,445.67v7.47a3.83,3.83,0,0,1-1.15,2.94,5.14,5.14,0,0,1-6.29,0,3.75,3.75,0,0,1-1.18-2.89v-7.55h2.32v7.48a2.16,2.16,0,0,0,.53,1.63,2,2,0,0,0,1.46.51c1.3,0,2-.69,2-2.08v-7.54Z"/><path class="cls-1" d="M353.28,455.58a4.1,4.1,0,0,1-1.77,1.17,7.36,7.36,0,0,1-2.54.42,5,5,0,0,1-2.56-.65,4.27,4.27,0,0,1-1.7-1.86,6.64,6.64,0,0,1-.62-2.88V451a7,7,0,0,1,.57-2.94,4.25,4.25,0,0,1,1.64-1.9,5.36,5.36,0,0,1,5.64.3,4.15,4.15,0,0,1,1.34,2.8H351a2.24,2.24,0,0,0-.68-1.42,2.15,2.15,0,0,0-1.46-.46,2,2,0,0,0-1.8.9,4.82,4.82,0,0,0-.63,2.67v.72a4.59,4.59,0,0,0,.67,2.7,2.32,2.32,0,0,0,2,.91,2.6,2.6,0,0,0,1.87-.56v-2h-2.11v-1.72h4.43Z"/><path class="cls-1" d="M355.15,457V445.67h3.94a5.11,5.11,0,0,1,3.11.79,2.69,2.69,0,0,1,1.06,2.31,2.52,2.52,0,0,1-.43,1.47,2.34,2.34,0,0,1-1.18.93,2.43,2.43,0,0,1,1.37.88,2.66,2.66,0,0,1,.49,1.62,3,3,0,0,1-1,2.48,4.65,4.65,0,0,1-3,.86Zm2.32-6.59h1.72c1.17,0,1.75-.49,1.75-1.41a1.31,1.31,0,0,0-.44-1.11,2.32,2.32,0,0,0-1.41-.34h-1.62Zm0,1.65v3.06h2a1.94,1.94,0,0,0,1.28-.39,1.38,1.38,0,0,0,.46-1.09,1.42,1.42,0,0,0-1.6-1.58Z"/><path class="cls-1" d="M368.71,450.78l2.34-5.11h2.53l-3.69,7.23V457h-2.36V452.9l-3.69-7.23h2.54Z"/><path class="cls-1" d="M384.39,454a1.19,1.19,0,0,0-.47-1,5.81,5.81,0,0,0-1.67-.75,10.77,10.77,0,0,1-1.9-.78,3.13,3.13,0,0,1-1.92-2.81,2.77,2.77,0,0,1,.51-1.64,3.43,3.43,0,0,1,1.48-1.13,5.51,5.51,0,0,1,2.16-.4,5.1,5.1,0,0,1,2.15.44,3.42,3.42,0,0,1,1.46,1.24,3.25,3.25,0,0,1,.52,1.82h-2.32a1.56,1.56,0,0,0-.48-1.21,2,2,0,0,0-1.37-.43,2.12,2.12,0,0,0-1.32.36,1.13,1.13,0,0,0-.47,1,1.09,1.09,0,0,0,.55.93,6.62,6.62,0,0,0,1.63.7,7,7,0,0,1,2.88,1.48,3,3,0,0,1,.9,2.22,2.76,2.76,0,0,1-1.1,2.31,4.81,4.81,0,0,1-3,.84,5.85,5.85,0,0,1-2.36-.48,3.73,3.73,0,0,1-1.63-1.32,3.39,3.39,0,0,1-.56-1.93h2.33c0,1.25.74,1.88,2.22,1.88a2.13,2.13,0,0,0,1.29-.34A1.11,1.11,0,0,0,384.39,454Z"/><path class="cls-1" d="M396.75,447.56H393.3V457H391v-9.45h-3.4v-1.89h9.16Z"/><path class="cls-1" d="M403.5,454.67h-4.07l-.77,2.34H396.2l4.18-11.34h2.15L406.74,457h-2.46Zm-3.44-1.89h2.81l-1.41-4.25Z"/><path class="cls-1" d="M407.8,457V445.67h3.46a5.19,5.19,0,0,1,2.65.67,4.74,4.74,0,0,1,1.83,1.91,6,6,0,0,1,.66,2.83v.52a5.94,5.94,0,0,1-.65,2.81,4.6,4.6,0,0,1-1.82,1.91,5.23,5.23,0,0,1-2.65.69Zm2.31-9.45v7.57h1.12a2.52,2.52,0,0,0,2.08-.89,4.09,4.09,0,0,0,.74-2.57v-.6a4.15,4.15,0,0,0-.71-2.62,2.52,2.52,0,0,0-2.08-.89Z"/><path class="cls-1" d="M420.55,457h-2.32V445.67h2.32Z"/><path class="cls-1" d="M431.21,445.67v7.47a3.83,3.83,0,0,1-1.16,2.94,5.12,5.12,0,0,1-6.28,0,3.72,3.72,0,0,1-1.18-2.89v-7.55h2.31v7.48a2.2,2.2,0,0,0,.53,1.63,2,2,0,0,0,1.47.51c1.3,0,2-.69,2-2.08v-7.54Z"/><path class="cls-1" d="M436.14,445.67l2.89,8.22,2.87-8.22H445V457h-2.33v-3.1l.23-5.35-3,8.45h-1.59l-3-8.45.23,5.35V457h-2.32V445.67Z"/></g><path d="M246.14,404.53h-1.41V397.7l-2.07.71v-1.2L246,396h.18Z"/><path d="M254.74,404.53h-5.67v-1l2.81-3.09a6.9,6.9,0,0,0,.87-1.14,1.88,1.88,0,0,0,.25-.92,1.39,1.39,0,0,0-.34-1,1.16,1.16,0,0,0-.91-.38,1.36,1.36,0,0,0-1.06.43,1.66,1.66,0,0,0-.38,1.15h-1.4a2.72,2.72,0,0,1,.35-1.4,2.34,2.34,0,0,1,1-1,3.16,3.16,0,0,1,1.5-.34,2.81,2.81,0,0,1,1.94.62,2.17,2.17,0,0,1,.71,1.72,3,3,0,0,1-.35,1.33,7.57,7.57,0,0,1-1.17,1.59l-2.07,2.23h3.92Z"/><path d="M260.18,398.21l.05.66a2.23,2.23,0,0,1,1.8-.78,1.71,1.71,0,0,1,1.72,1,2.22,2.22,0,0,1,1.93-1,1.91,1.91,0,0,1,1.54.58,2.55,2.55,0,0,1,.52,1.71v4.15h-1.41v-4.11a1.26,1.26,0,0,0-.26-.89,1.15,1.15,0,0,0-.86-.28,1.21,1.21,0,0,0-.79.26,1.41,1.41,0,0,0-.42.68v4.34h-1.4v-4.16a1,1,0,0,0-1.13-1.12,1.24,1.24,0,0,0-1.2.7v4.58h-1.41v-6.32Z"/><path d="M269.19,396.57a.73.73,0,0,1,.8-.76.8.8,0,0,1,.59.21.77.77,0,0,1,.21.55.72.72,0,0,1-.21.53.8.8,0,0,1-.59.21.77.77,0,0,1-.59-.21A.72.72,0,0,1,269.19,396.57Zm1.5,8h-1.41v-6.32h1.41Z"/><path d="M273.53,398.21l0,.73a2.22,2.22,0,0,1,1.82-.85c1.31,0,2,.75,2,2.26v4.18H276v-4.1a1.33,1.33,0,0,0-.26-.89,1.08,1.08,0,0,0-.84-.29,1.36,1.36,0,0,0-1.27.78v4.5H272.2v-6.32Z"/><path d="M282.34,402.81a.67.67,0,0,0-.31-.58,3.35,3.35,0,0,0-1-.35,5.48,5.48,0,0,1-1.2-.38,1.61,1.61,0,0,1-1.06-1.49,1.69,1.69,0,0,1,.69-1.37,2.65,2.65,0,0,1,1.74-.55,2.8,2.8,0,0,1,1.81.56,1.8,1.8,0,0,1,.69,1.46h-1.4a.87.87,0,0,0-.3-.68,1.18,1.18,0,0,0-.8-.28,1.27,1.27,0,0,0-.76.22.67.67,0,0,0-.29.58.58.58,0,0,0,.27.51,3.7,3.7,0,0,0,1.1.36,5.41,5.41,0,0,1,1.3.44,1.77,1.77,0,0,1,.7.61,1.53,1.53,0,0,1,.23.87,1.65,1.65,0,0,1-.7,1.38,3,3,0,0,1-1.84.53,3.32,3.32,0,0,1-1.37-.28,2.33,2.33,0,0,1-.94-.77,1.88,1.88,0,0,1-.34-1.06h1.37a1,1,0,0,0,.38.77,1.76,1.76,0,0,0,1.77.06A.67.67,0,0,0,282.34,402.81Z"/><path d="M293.41,402.57l1-4.36h1.37l-1.71,6.32h-1.16l-1.34-4.34-1.32,4.34h-1.16l-1.72-6.32h1.38l1,4.32,1.29-4.32h1.06Z"/><path d="M300.47,404.53a2.48,2.48,0,0,1-.16-.59,2.2,2.2,0,0,1-1.65.71,2.17,2.17,0,0,1-1.54-.55,1.73,1.73,0,0,1-.6-1.34,1.8,1.8,0,0,1,.75-1.55,3.6,3.6,0,0,1,2.13-.54h.86v-.42a1.1,1.1,0,0,0-.27-.78,1.07,1.07,0,0,0-.83-.3,1.26,1.26,0,0,0-.79.24.78.78,0,0,0-.3.62h-1.41a1.55,1.55,0,0,1,.34-1,2.31,2.31,0,0,1,.93-.71,3.26,3.26,0,0,1,1.31-.26,2.63,2.63,0,0,1,1.76.56,2,2,0,0,1,.67,1.57v2.85a3.22,3.22,0,0,0,.24,1.36v.1Zm-1.55-1a1.58,1.58,0,0,0,.79-.21,1.27,1.27,0,0,0,.55-.55v-1.19h-.76a2,2,0,0,0-1.17.28.87.87,0,0,0-.4.77.85.85,0,0,0,.27.66A1,1,0,0,0,298.92,403.51Z"/><path d="M304.64,404.53h-1.4v-9h1.4Z"/><path d="M308.21,401.82l-.62.65v2.06h-1.41v-9h1.41v5.18l.44-.55,1.73-2h1.7l-2.33,2.63,2.57,3.69h-1.62Z"/><path class="cls-3" d="M187.65,383.36h-2V379.1h-4v4.26h-2v-9.93h2v4h4v-4h2Z"/><path class="cls-3" d="M191.58,383.36h-2v-9.93h2Z"/><path class="cls-3" d="M201.25,382.1a3.47,3.47,0,0,1-1.55,1,6.44,6.44,0,0,1-2.21.37,4.35,4.35,0,0,1-2.25-.57,3.73,3.73,0,0,1-1.48-1.63,5.78,5.78,0,0,1-.54-2.52v-.67a6,6,0,0,1,.5-2.57,3.67,3.67,0,0,1,1.43-1.67,4.71,4.71,0,0,1,4.93.27,3.59,3.59,0,0,1,1.17,2.45h-2a2,2,0,0,0-.6-1.25,1.92,1.92,0,0,0-1.28-.39,1.79,1.79,0,0,0-1.57.78,4.19,4.19,0,0,0-.55,2.33v.64a3.93,3.93,0,0,0,.59,2.35,2,2,0,0,0,1.72.8,2.21,2.21,0,0,0,1.63-.49v-1.71h-1.84v-1.51h3.87Z"/><path class="cls-3" d="M208.45,381.31H204.9l-.68,2.05h-2.16l3.67-9.93h1.88l3.68,9.93h-2.15Zm-3-1.65h2.47l-1.24-3.72Z"/><path class="cls-3" d="M217.32,380.75a1.07,1.07,0,0,0-.41-.89,5.59,5.59,0,0,0-1.46-.65,10.71,10.71,0,0,1-1.67-.68,2.75,2.75,0,0,1-1.68-2.46,2.39,2.39,0,0,1,.45-1.43,2.91,2.91,0,0,1,1.29-1,4.84,4.84,0,0,1,1.9-.35,4.31,4.31,0,0,1,1.87.38,3,3,0,0,1,1.29,1.09,2.89,2.89,0,0,1,.45,1.59h-2a1.37,1.37,0,0,0-.42-1.06,1.78,1.78,0,0,0-1.2-.37,1.85,1.85,0,0,0-1.15.31,1,1,0,0,0-.42.84,1,1,0,0,0,.49.81,5.25,5.25,0,0,0,1.42.61,6.27,6.27,0,0,1,2.52,1.3,2.61,2.61,0,0,1,.79,1.94,2.4,2.4,0,0,1-1,2,4.23,4.23,0,0,1-2.61.74,5,5,0,0,1-2.07-.42,3.35,3.35,0,0,1-1.42-1.15,2.94,2.94,0,0,1-.49-1.69h2c0,1.09.64,1.64,1.94,1.64a1.87,1.87,0,0,0,1.13-.3A1,1,0,0,0,217.32,380.75Z"/><path class="cls-3" d="M228.74,383.36h-2V379.1h-4v4.26h-2v-9.93h2v4h4v-4h2Z"/><path class="cls-3" d="M232.67,383.36h-2v-9.93h2Z"/><path class="cls-3" d="M238.22,379.9h-3.81v-1.59h3.81Z"/><path class="cls-3" d="M247.93,383.36h-2V379.1h-4v4.26h-2v-9.93h2v4h4v-4h2Z"/><path class="cls-3" d="M255.38,381.31h-3.56l-.67,2.05H249l3.66-9.93h1.88l3.69,9.93h-2.16Zm-3-1.65h2.46l-1.24-3.72Z"/><path class="cls-3" d="M267.14,383.36h-2l-3.95-6.53v6.53h-2v-9.93h2l3.95,6.55v-6.55h2Z"/><path class="cls-3" d="M274.47,381.31h-3.55l-.68,2.05h-2.16l3.67-9.93h1.88l3.68,9.93h-2.15Zm-3-1.65h2.47l-1.24-3.72Z"/><path class="cls-3" d="M280.38,381.72h5v1.64h-7.5v-1.2l4.87-7.07h-4.87v-1.66h7.39v1.17Z"/><path class="cls-3" d="M294.54,378.62a5.93,5.93,0,0,1-.52,2.57,3.78,3.78,0,0,1-1.47,1.7,4.27,4.27,0,0,1-4.38,0,3.89,3.89,0,0,1-1.48-1.69,5.85,5.85,0,0,1-.54-2.54v-.49a6,6,0,0,1,.53-2.58,3.94,3.94,0,0,1,1.48-1.71,4.34,4.34,0,0,1,4.37,0A3.94,3.94,0,0,1,294,375.6a6,6,0,0,1,.53,2.58Zm-2.06-.45a4.19,4.19,0,0,0-.55-2.37,1.81,1.81,0,0,0-1.59-.81,1.78,1.78,0,0,0-1.57.8,4.1,4.1,0,0,0-.56,2.35v.48a4.27,4.27,0,0,0,.55,2.36,1.94,1.94,0,0,0,3.17,0,4.24,4.24,0,0,0,.55-2.36Z"/><path class="cls-3" d="M304,383.36h-2L298,376.83v6.53h-2v-9.93h2l4,6.55v-6.55h2Z"/><path class="cls-3" d="M313.88,378.62a6.08,6.08,0,0,1-.52,2.57,3.78,3.78,0,0,1-1.47,1.7,4.27,4.27,0,0,1-4.38,0,4,4,0,0,1-1.49-1.69,6,6,0,0,1-.53-2.54v-.49a6.19,6.19,0,0,1,.52-2.58,4,4,0,0,1,1.49-1.71,4.07,4.07,0,0,1,2.18-.59,4.13,4.13,0,0,1,2.19.59,3.94,3.94,0,0,1,1.48,1.71,6,6,0,0,1,.53,2.58Zm-2.06-.45a4.28,4.28,0,0,0-.55-2.37,1.81,1.81,0,0,0-1.59-.81,1.78,1.78,0,0,0-1.57.8,4.1,4.1,0,0,0-.56,2.35v.48a4.27,4.27,0,0,0,.55,2.36,1.94,1.94,0,0,0,3.17,0,4.24,4.24,0,0,0,.55-2.36Z"/><path class="cls-3" d="M323.9,380.75a1.06,1.06,0,0,0-.4-.89,5.59,5.59,0,0,0-1.46-.65,10.31,10.31,0,0,1-1.67-.68,2.75,2.75,0,0,1-1.68-2.46,2.39,2.39,0,0,1,.45-1.43,2.91,2.91,0,0,1,1.29-1,4.75,4.75,0,0,1,1.89-.35,4.36,4.36,0,0,1,1.88.38,3,3,0,0,1,1.28,1.09,2.82,2.82,0,0,1,.46,1.59h-2a1.34,1.34,0,0,0-.43-1.06,1.73,1.73,0,0,0-1.19-.37,1.86,1.86,0,0,0-1.16.31,1,1,0,0,0-.41.84,1,1,0,0,0,.48.81,5.39,5.39,0,0,0,1.42.61,6.25,6.25,0,0,1,2.53,1.3,2.65,2.65,0,0,1,.79,1.94,2.38,2.38,0,0,1-1,2,4.18,4.18,0,0,1-2.6.74,5,5,0,0,1-2.07-.42,3.29,3.29,0,0,1-1.42-1.15,3,3,0,0,1-.5-1.69h2c0,1.09.65,1.64,1.95,1.64a1.87,1.87,0,0,0,1.13-.3A1,1,0,0,0,323.9,380.75Z"/><path class="cls-3" d="M334.72,375.09h-3v8.27h-2v-8.27h-3v-1.66h8Z"/><path class="cls-3" d="M340.63,381.31h-3.56l-.68,2.05h-2.16l3.67-9.93h1.88l3.68,9.93h-2.15Zm-3-1.65h2.46l-1.24-3.72Z"/><path class="cls-3" d="M351,375.09h-3v8.27h-2v-8.27h-3v-1.66h8Z"/><path class="cls-3" d="M354.3,383.36h-2v-9.93h2Z"/><path class="cls-3" d="M364.26,378.62a6.08,6.08,0,0,1-.51,2.57,3.78,3.78,0,0,1-1.47,1.7,4.27,4.27,0,0,1-4.38,0,4,4,0,0,1-1.49-1.69,5.85,5.85,0,0,1-.53-2.54v-.49a6,6,0,0,1,.52-2.58,4,4,0,0,1,1.48-1.71,4.36,4.36,0,0,1,4.38,0,3.94,3.94,0,0,1,1.48,1.71,6,6,0,0,1,.52,2.58Zm-2.05-.45a4.19,4.19,0,0,0-.56-2.37,1.94,1.94,0,0,0-3.15,0,4.17,4.17,0,0,0-.57,2.35v.48a4.27,4.27,0,0,0,.56,2.36,1.8,1.8,0,0,0,1.6.84,1.76,1.76,0,0,0,1.56-.81,4.24,4.24,0,0,0,.56-2.36Z"/><path class="cls-3" d="M373.74,383.36h-2l-3.94-6.53v6.53h-2v-9.93h2l4,6.55v-6.55h2Z"/><g id="arrow"><line class="cls-4" x1="277.1" y1="315.27" x2="277.1" y2="339.95"/><line class="cls-4" x1="277.05" y1="340.58" x2="277.05" y2="355.68"/><polygon class="cls-5" points="269.99 351.9 284.11 351.9 276.62 359.45 269.99 351.9"/></g><g id="column_2" data-name="column 2"><rect class="cls-6" x="357.14" y="63.76" width="199.68" height="415.22"/><rect class="cls-3" x="388.34" y="233.63" width="137.28" height="31.46"/><path class="cls-1" d="M434.54,250.85h-3l-.63,1.82h-1.39l2.92-7.8h1.2l2.93,7.8h-1.4Zm-2.62-1.09h2.24L433,246.52Z"/><path class="cls-1" d="M437.33,245.37a.71.71,0,0,1,.18-.5.73.73,0,0,1,.54-.2.7.7,0,0,1,.54.2.69.69,0,0,1,.2.5.67.67,0,0,1-.74.68.64.64,0,0,1-.72-.68Zm1.37,7.3h-1.29v-5.8h1.29Z"/><path class="cls-1" d="M443.11,248.06a3,3,0,0,0-.52,0,1.18,1.18,0,0,0-1.2.68v4H440.1v-5.8h1.23l0,.65a1.45,1.45,0,0,1,1.3-.76,1.22,1.22,0,0,1,.46.08Z"/><path class="cls-1" d="M449,249.83a3.42,3.42,0,0,1-.61,2.14,1.9,1.9,0,0,1-1.62.8,2,2,0,0,1-1.52-.62v2.74h-1.29v-8h1.19l.06.59a1.9,1.9,0,0,1,1.54-.7,2,2,0,0,1,1.65.79,3.57,3.57,0,0,1,.6,2.2Zm-1.29-.12a2.42,2.42,0,0,0-.34-1.37,1.11,1.11,0,0,0-1-.51,1.19,1.19,0,0,0-1.14.66v2.57a1.2,1.2,0,0,0,1.15.67,1.12,1.12,0,0,0,1-.5A2.69,2.69,0,0,0,447.67,249.71Z"/><path class="cls-1" d="M449.81,249.71a3.37,3.37,0,0,1,.34-1.53,2.4,2.4,0,0,1,.94-1.05,2.65,2.65,0,0,1,1.39-.37,2.5,2.5,0,0,1,1.89.76,3,3,0,0,1,.78,2v.31a3.44,3.44,0,0,1-.33,1.53,2.38,2.38,0,0,1-.94,1,2.59,2.59,0,0,1-1.4.37,2.51,2.51,0,0,1-1.95-.81,3.14,3.14,0,0,1-.73-2.18Zm1.29.12a2.33,2.33,0,0,0,.37,1.4,1.17,1.17,0,0,0,1,.5,1.2,1.2,0,0,0,1-.51,2.61,2.61,0,0,0,.36-1.51,2.41,2.41,0,0,0-.37-1.39,1.27,1.27,0,0,0-2,0A2.64,2.64,0,0,0,451.1,249.83Z"/><path class="cls-1" d="M459.26,248.06a3.08,3.08,0,0,0-.53,0,1.18,1.18,0,0,0-1.19.68v4h-1.29v-5.8h1.23l0,.65a1.44,1.44,0,0,1,1.3-.76,1.17,1.17,0,0,1,.45.08Z"/><path class="cls-1" d="M462,245.46v1.41h1v1h-1v3.24a.71.71,0,0,0,.13.48.58.58,0,0,0,.46.15,1.74,1.74,0,0,0,.45-.06v1a3.23,3.23,0,0,1-.85.12c-1,0-1.48-.55-1.48-1.65v-3.29h-.95v-1h.95v-1.41Z"/><path class="cls-1" d="M466.79,252.67v-7.8h2.65a3.18,3.18,0,0,1,2,.53,1.86,1.86,0,0,1,.68,1.58,1.69,1.69,0,0,1-.28,1,1.84,1.84,0,0,1-.84.67,1.71,1.71,0,0,1,1,.64,1.9,1.9,0,0,1,.34,1.14,2.09,2.09,0,0,1-.7,1.69,3,3,0,0,1-2,.59Zm1.34-4.52h1.32a1.51,1.51,0,0,0,1-.29,1,1,0,0,0,.36-.81,1,1,0,0,0-.33-.83,1.66,1.66,0,0,0-1-.26h-1.31Zm0,1v2.43h1.5a1.45,1.45,0,0,0,1-.31,1.14,1.14,0,0,0,.35-.88,1.11,1.11,0,0,0-1.23-1.24Z"/><path class="cls-1" d="M477,252.1a2,2,0,0,1-1.61.67,1.77,1.77,0,0,1-1.42-.55,2.37,2.37,0,0,1-.48-1.6v-3.75h1.29v3.74c0,.73.3,1.1.91,1.1A1.26,1.26,0,0,0,477,251v-4.16h1.29v5.8H477Z"/><path class="cls-1" d="M482.8,251.09a.6.6,0,0,0-.29-.53,3,3,0,0,0-.94-.32,4.75,4.75,0,0,1-1.1-.35,1.5,1.5,0,0,1-1-1.37,1.53,1.53,0,0,1,.63-1.25,2.45,2.45,0,0,1,1.59-.51,2.53,2.53,0,0,1,1.67.52,1.63,1.63,0,0,1,.64,1.33h-1.3a.8.8,0,0,0-.27-.62,1.05,1.05,0,0,0-.74-.25,1.09,1.09,0,0,0-.69.2.62.62,0,0,0-.27.53.53.53,0,0,0,.25.46,3.44,3.44,0,0,0,1,.34,4.31,4.31,0,0,1,1.19.4,1.65,1.65,0,0,1,.65.56,1.43,1.43,0,0,1,.21.79,1.53,1.53,0,0,1-.65,1.27,2.72,2.72,0,0,1-1.68.48,3,3,0,0,1-1.26-.25,2.17,2.17,0,0,1-.86-.71,1.72,1.72,0,0,1-.31-1h1.26a.9.9,0,0,0,.34.71,1.38,1.38,0,0,0,.85.25,1.29,1.29,0,0,0,.77-.2A.6.6,0,0,0,482.8,251.09Z"/><path d="M431.31,219.23v1.24h-.18a2.91,2.91,0,0,0-2,.69,2.81,2.81,0,0,0-.88,1.89,2.39,2.39,0,0,1,1.82-.75,2.27,2.27,0,0,1,1.85.83,3.29,3.29,0,0,1,.68,2.16,3.09,3.09,0,0,1-.79,2.21,2.75,2.75,0,0,1-2.09.84,2.66,2.66,0,0,1-2.15-1,3.89,3.89,0,0,1-.83-2.59v-.51a5.46,5.46,0,0,1,1.14-3.68,4.07,4.07,0,0,1,3.27-1.34Zm-1.59,4.27a1.49,1.49,0,0,0-.89.28,1.62,1.62,0,0,0-.6.74V225a2.67,2.67,0,0,0,.42,1.58,1.3,1.3,0,0,0,2.11.09,2.06,2.06,0,0,0,.38-1.31,2.11,2.11,0,0,0-.39-1.32A1.23,1.23,0,0,0,429.72,223.5Z"/><path d="M438.4,219.23v1.24h-.18a2.91,2.91,0,0,0-2,.69,2.86,2.86,0,0,0-.88,1.89,2.39,2.39,0,0,1,1.82-.75,2.29,2.29,0,0,1,1.86.83,3.34,3.34,0,0,1,.68,2.16,3.09,3.09,0,0,1-.8,2.21,2.75,2.75,0,0,1-2.09.84,2.67,2.67,0,0,1-2.15-1,3.89,3.89,0,0,1-.83-2.59v-.51a5.46,5.46,0,0,1,1.14-3.68,4.07,4.07,0,0,1,3.27-1.34Zm-1.59,4.27a1.52,1.52,0,0,0-.89.28,1.62,1.62,0,0,0-.6.74V225a2.67,2.67,0,0,0,.42,1.58,1.27,1.27,0,0,0,1.07.59,1.24,1.24,0,0,0,1-.5,2.06,2.06,0,0,0,.39-1.31,2.11,2.11,0,0,0-.39-1.32A1.25,1.25,0,0,0,436.81,223.5Z"/><path d="M445.48,221.57l0,.7a2.34,2.34,0,0,1,1.9-.82,1.83,1.83,0,0,1,1.81,1,2.33,2.33,0,0,1,2-1,2,2,0,0,1,1.62.61,2.66,2.66,0,0,1,.55,1.79v4.37H452V223.9a1.28,1.28,0,0,0-.28-.93,1.16,1.16,0,0,0-.9-.3,1.19,1.19,0,0,0-.83.28,1.5,1.5,0,0,0-.45.71v4.56H448v-4.37a1.06,1.06,0,0,0-1.19-1.18,1.32,1.32,0,0,0-1.26.73v4.82h-1.48v-6.65Z"/><path d="M455,219.85a.81.81,0,0,1,.22-.57.78.78,0,0,1,.62-.23.79.79,0,0,1,.62.23.84.84,0,0,1,0,1.13.83.83,0,0,1-.62.22.76.76,0,0,1-.84-.78Zm1.58,8.37h-1.48v-6.65h1.48Z"/><path d="M459.51,221.57l0,.77a2.38,2.38,0,0,1,1.92-.89c1.38,0,2.08.79,2.1,2.38v4.39h-1.48v-4.31a1.36,1.36,0,0,0-.27-.93,1.12,1.12,0,0,0-.89-.31,1.42,1.42,0,0,0-1.33.82v4.73h-1.48v-6.65Z"/><path d="M468.77,226.41a.66.66,0,0,0-.32-.6,3.31,3.31,0,0,0-1.08-.37,5.42,5.42,0,0,1-1.27-.41,1.7,1.7,0,0,1-1.1-1.56,1.78,1.78,0,0,1,.71-1.44,2.81,2.81,0,0,1,1.83-.58,2.94,2.94,0,0,1,1.91.59,1.86,1.86,0,0,1,.73,1.53H468.7a.93.93,0,0,0-.32-.72,1.2,1.2,0,0,0-.84-.28,1.24,1.24,0,0,0-.79.23.7.7,0,0,0-.31.6.62.62,0,0,0,.29.54,3.81,3.81,0,0,0,1.15.38,5.87,5.87,0,0,1,1.37.46,2.06,2.06,0,0,1,.74.64,1.67,1.67,0,0,1,.24.91,1.75,1.75,0,0,1-.74,1.46,3.11,3.11,0,0,1-1.93.55,3.31,3.31,0,0,1-1.44-.29,2.43,2.43,0,0,1-1-.81,1.92,1.92,0,0,1-.35-1.11h1.43a1.06,1.06,0,0,0,.4.81,1.53,1.53,0,0,0,1,.29,1.48,1.48,0,0,0,.89-.23A.7.7,0,0,0,468.77,226.41Z"/><path d="M474.35,224.84a4,4,0,0,1,.38-1.76,2.84,2.84,0,0,1,1.08-1.21,3.06,3.06,0,0,1,1.6-.42,2.88,2.88,0,0,1,2.17.87,3.39,3.39,0,0,1,.89,2.29V225a4.1,4.1,0,0,1-.37,1.76,2.74,2.74,0,0,1-1.08,1.2,3,3,0,0,1-1.61.42,2.85,2.85,0,0,1-2.23-.93,3.62,3.62,0,0,1-.84-2.5Zm1.48.12a2.7,2.7,0,0,0,.42,1.61,1.35,1.35,0,0,0,1.17.58,1.34,1.34,0,0,0,1.17-.59,3,3,0,0,0,.41-1.72,2.69,2.69,0,0,0-.42-1.6,1.36,1.36,0,0,0-1.17-.59,1.33,1.33,0,0,0-1.15.58A2.87,2.87,0,0,0,475.83,225Z"/><path d="M483.11,221.57l0,.77a2.38,2.38,0,0,1,1.92-.89c1.37,0,2.07.79,2.1,2.38v4.39h-1.49v-4.31a1.36,1.36,0,0,0-.27-.93,1.1,1.1,0,0,0-.88-.31,1.44,1.44,0,0,0-1.34.82v4.73h-1.48v-6.65Z"/><line class="cls-4" x1="453.8" y1="190.85" x2="453.8" y2="205.95"/><polygon class="cls-5" points="446.74 202.17 460.86 202.17 453.37 209.72 446.74 202.17"/><path class="cls-3" d="M386.7,157.33a5.9,5.9,0,0,1-.52,2.57,3.86,3.86,0,0,1-1.47,1.71,4,4,0,0,1-2.19.6,4.13,4.13,0,0,1-2.19-.59,3.91,3.91,0,0,1-1.48-1.7,5.81,5.81,0,0,1-.54-2.53v-.49a6,6,0,0,1,.53-2.58,3.83,3.83,0,0,1,1.48-1.71,4.28,4.28,0,0,1,4.37,0,3.83,3.83,0,0,1,1.48,1.71,6,6,0,0,1,.53,2.57Zm-2.06-.45a4.19,4.19,0,0,0-.55-2.37,2,2,0,0,0-3.16,0,4.14,4.14,0,0,0-.56,2.35v.48a4.25,4.25,0,0,0,.55,2.36,1.94,1.94,0,0,0,3.17,0,4.2,4.2,0,0,0,.55-2.35Z"/><path class="cls-3" d="M393.28,159.47a1.06,1.06,0,0,0-.41-.89,5.23,5.23,0,0,0-1.46-.66,10.81,10.81,0,0,1-1.67-.67,2.76,2.76,0,0,1-1.68-2.47,2.41,2.41,0,0,1,.45-1.43,3,3,0,0,1,1.29-1,5,5,0,0,1,1.89-.35,4.33,4.33,0,0,1,1.88.39,3,3,0,0,1,1.29,1.08,2.9,2.9,0,0,1,.45,1.6h-2a1.34,1.34,0,0,0-.42-1.06,1.78,1.78,0,0,0-1.2-.38,1.88,1.88,0,0,0-1.16.32,1,1,0,0,0-.41.83,1,1,0,0,0,.49.81,5.22,5.22,0,0,0,1.42.62,6.14,6.14,0,0,1,2.52,1.3,2.59,2.59,0,0,1,.79,1.93,2.4,2.4,0,0,1-1,2,4.25,4.25,0,0,1-2.6.73,5,5,0,0,1-2.07-.42,3.28,3.28,0,0,1-1.42-1.15,2.94,2.94,0,0,1-.49-1.69h2c0,1.09.65,1.64,1.95,1.64a2,2,0,0,0,1.13-.29A1,1,0,0,0,393.28,159.47Z"/><path class="cls-3" d="M402.24,160h-3.55l-.68,2h-2.16l3.67-9.92h1.88l3.68,9.92h-2.16Zm-3-1.66h2.46l-1.23-3.71Z"/><path class="cls-3" d="M409.08,158.09,408,159.24v2.83h-2v-9.92h2v4.5l.89-1.24,2.51-3.26h2.5l-3.5,4.41,3.6,5.51h-2.42Z"/><path class="cls-3" d="M420.35,160h-3.56l-.67,2H414l3.66-9.92h1.88l3.69,9.92H421Zm-3-1.66h2.46l-1.24-3.71Z"/><path class="cls-3" d="M429.71,162.07h-2v-9.92h2Z"/><path class="cls-3" d="M439.6,162.07h-2l-3.95-6.53v6.53h-2v-9.92h2l4,6.54v-6.54h2Z"/><path class="cls-3" d="M448.78,153.8h-3v8.27h-2V153.8h-3v-1.65h8Z"/><path class="cls-3" d="M455.86,157.77H452v2.66h4.57v1.64h-6.6v-9.92h6.59v1.65H452v2.37h3.89Z"/><path class="cls-3" d="M461.37,158.44h-1.61v3.63h-2v-9.92h3.66a4.13,4.13,0,0,1,2.69.78,2.71,2.71,0,0,1,.94,2.22,3.08,3.08,0,0,1-.43,1.69,3,3,0,0,1-1.32,1.08L465.4,162v.09h-2.18Zm-1.61-1.66h1.63a1.69,1.69,0,0,0,1.19-.39,1.4,1.4,0,0,0,.42-1.08,1.5,1.5,0,0,0-.4-1.1,1.62,1.62,0,0,0-1.21-.41h-1.63Z"/><path class="cls-3" d="M474.57,162.07h-2l-4-6.53v6.53h-2v-9.92h2l4,6.54v-6.54h2Z"/><path class="cls-3" d="M481.9,160h-3.55l-.68,2h-2.16l3.67-9.92h1.88l3.68,9.92h-2.15Zm-3-1.66h2.46l-1.23-3.71Z"/><path class="cls-3" d="M492.26,153.8h-3v8.27h-2V153.8h-3v-1.65h8Z"/><path class="cls-3" d="M495.57,162.07h-2v-9.92h2Z"/><path class="cls-3" d="M505.54,157.33a6,6,0,0,1-.51,2.57,4,4,0,0,1-1.47,1.71,4.06,4.06,0,0,1-2.2.6,4.12,4.12,0,0,1-2.18-.59,3.93,3.93,0,0,1-1.49-1.7,5.81,5.81,0,0,1-.53-2.53v-.49a6,6,0,0,1,.52-2.58,3.83,3.83,0,0,1,1.48-1.71,4.3,4.3,0,0,1,4.38,0,3.89,3.89,0,0,1,1.48,1.71,6,6,0,0,1,.52,2.57Zm-2.05-.45a4.19,4.19,0,0,0-.56-2.37,2,2,0,0,0-3.16,0,4.22,4.22,0,0,0-.56,2.35v.48a4.24,4.24,0,0,0,.56,2.36,1.93,1.93,0,0,0,3.16,0,4.2,4.2,0,0,0,.56-2.35Z"/><path class="cls-3" d="M515,162.07h-2L509,155.54v6.53h-2v-9.92h2l4,6.54v-6.54h2Z"/><path class="cls-3" d="M522.35,160h-3.56l-.67,2H516l3.67-9.92h1.87l3.69,9.92H523Zm-3-1.66h2.46l-1.23-3.71Z"/><path class="cls-3" d="M528.14,160.43h4.31v1.64h-6.34v-9.92h2Z"/><path class="cls-3" d="M378.88,176.78h-3.55l-.68,2.05h-2.16l3.67-9.93H378l3.68,9.93h-2.15Zm-3-1.66h2.47l-1.24-3.71Z"/><path class="cls-3" d="M384.8,178.83h-2V168.9h2Z"/><path class="cls-3" d="M390.32,175.19h-1.61v3.64h-2V168.9h3.66a4.13,4.13,0,0,1,2.69.78,2.74,2.74,0,0,1,.94,2.22,3.05,3.05,0,0,1-.43,1.69,2.87,2.87,0,0,1-1.32,1.08l2.13,4.06v.1h-2.18Zm-1.61-1.65h1.63a1.65,1.65,0,0,0,1.19-.4,1.4,1.4,0,0,0,.42-1.08,1.53,1.53,0,0,0-.4-1.1,1.62,1.62,0,0,0-1.21-.4h-1.63Z"/><path class="cls-3" d="M397.55,175.33v3.5h-2V168.9h3.84a4.44,4.44,0,0,1,1.95.41,3,3,0,0,1,1.29,1.16,3.19,3.19,0,0,1,.46,1.72,2.86,2.86,0,0,1-1,2.3,4.13,4.13,0,0,1-2.75.84Zm0-1.66h1.81a1.83,1.83,0,0,0,1.23-.38,1.39,1.39,0,0,0,.42-1.09,1.62,1.62,0,0,0-.43-1.18,1.57,1.57,0,0,0-1.18-.46h-1.85Z"/><path class="cls-3" d="M412.54,174.09a6.08,6.08,0,0,1-.52,2.57,3.88,3.88,0,0,1-1.47,1.7,4,4,0,0,1-2.19.6,4.13,4.13,0,0,1-2.19-.59,4,4,0,0,1-1.49-1.69,6,6,0,0,1-.53-2.54v-.49a6.12,6.12,0,0,1,.52-2.58,3.92,3.92,0,0,1,3.67-2.31,4,4,0,0,1,2.19.6,3.94,3.94,0,0,1,1.48,1.71,6,6,0,0,1,.53,2.57Zm-2.06-.45a4.19,4.19,0,0,0-.55-2.37,1.94,1.94,0,0,0-3.16,0,4.08,4.08,0,0,0-.56,2.34v.49a4.27,4.27,0,0,0,.55,2.36,1.94,1.94,0,0,0,3.17,0,4.26,4.26,0,0,0,.55-2.36Z"/><path class="cls-3" d="M417.65,175.19H416v3.64h-2V168.9h3.66a4.13,4.13,0,0,1,2.69.78,2.75,2.75,0,0,1,.95,2.22,3.05,3.05,0,0,1-.44,1.69,2.87,2.87,0,0,1-1.32,1.08l2.13,4.06v.1H419.5ZM416,173.54h1.63a1.65,1.65,0,0,0,1.19-.4,1.4,1.4,0,0,0,.42-1.08,1.49,1.49,0,0,0-.4-1.1,1.62,1.62,0,0,0-1.21-.4H416Z"/><path class="cls-3" d="M429.92,170.56h-3v8.27h-2v-8.27h-3V168.9h8Z"/><path class="cls-3" d="M434.08,174.79a10.71,10.71,0,0,1,.41-3,7.87,7.87,0,0,1,1.22-2.5,4.56,4.56,0,0,1,1.74-1.51l.38,1.06a4.73,4.73,0,0,0-1.54,2.28,10.64,10.64,0,0,0-.55,3.6V175a10.93,10.93,0,0,0,.54,3.61,4.77,4.77,0,0,0,1.55,2.31l-.38,1.05a4.62,4.62,0,0,1-1.71-1.47,7.48,7.48,0,0,1-1.21-2.43,10.57,10.57,0,0,1-.45-2.88Z"/><path class="cls-3" d="M441.14,178.83h-2V168.9h2Z"/><path class="cls-3" d="M450.43,170.56h-3v8.27h-2v-8.27h-3V168.9h8Z"/><path class="cls-3" d="M456.33,176.78h-3.55l-.68,2.05h-2.16l3.67-9.93h1.88l3.68,9.93H457Zm-3-1.66h2.46l-1.23-3.71Z"/><path class="cls-3" d="M462.74,168.9l2.53,7.2,2.52-7.2h2.66v9.93h-2v-2.72l.2-4.68-2.66,7.4h-1.39l-2.65-7.39.2,4.67v2.72h-2V168.9Z"/><path class="cls-3" d="M474.38,178.83h-2V168.9h2Z"/><path class="cls-3" d="M485.27,176.78h-3.56l-.68,2.05h-2.15l3.66-9.93h1.88l3.69,9.93H486Zm-3-1.66h2.46l-1.24-3.71Z"/><path class="cls-3" d="M491.18,178.83h-2V168.9h2Z"/><path class="cls-3" d="M496.71,175.19h-1.62v3.64h-2V168.9h3.66a4.13,4.13,0,0,1,2.69.78,2.75,2.75,0,0,1,.95,2.22,3.05,3.05,0,0,1-.44,1.69,2.87,2.87,0,0,1-1.32,1.08l2.13,4.06v.1h-2.18Zm-1.62-1.65h1.64a1.62,1.62,0,0,0,1.18-.4,1.4,1.4,0,0,0,.42-1.08,1.49,1.49,0,0,0-.4-1.1,1.62,1.62,0,0,0-1.21-.4h-1.63Z"/><path class="cls-3" d="M503.93,175.33v3.5h-2V168.9h3.84a4.44,4.44,0,0,1,1.95.41,3.06,3.06,0,0,1,1.3,1.16,3.27,3.27,0,0,1,.45,1.72,2.86,2.86,0,0,1-1,2.3,4.12,4.12,0,0,1-2.74.84Zm0-1.66h1.81a1.81,1.81,0,0,0,1.23-.38,1.39,1.39,0,0,0,.42-1.09A1.62,1.62,0,0,0,507,171a1.56,1.56,0,0,0-1.17-.46h-1.86Z"/><path class="cls-3" d="M518.92,174.09a5.93,5.93,0,0,1-.52,2.57,3.88,3.88,0,0,1-1.47,1.7,4,4,0,0,1-2.19.6,4.09,4.09,0,0,1-2.18-.59,4,4,0,0,1-1.49-1.69,6,6,0,0,1-.54-2.54v-.49a6,6,0,0,1,.53-2.58,3.94,3.94,0,0,1,1.48-1.71,4,4,0,0,1,2.19-.6,4,4,0,0,1,2.18.6,3.88,3.88,0,0,1,1.48,1.71,6,6,0,0,1,.53,2.57Zm-2.06-.45a4.19,4.19,0,0,0-.55-2.37,1.94,1.94,0,0,0-3.16,0,4.08,4.08,0,0,0-.56,2.34v.49a4.27,4.27,0,0,0,.55,2.36,1.81,1.81,0,0,0,1.6.84,1.79,1.79,0,0,0,1.57-.81,4.26,4.26,0,0,0,.55-2.36Z"/><path class="cls-3" d="M524,175.19h-1.62v3.64h-2V168.9h3.66a4.13,4.13,0,0,1,2.69.78,2.75,2.75,0,0,1,1,2.22,3.05,3.05,0,0,1-.44,1.69,2.87,2.87,0,0,1-1.32,1.08l2.13,4.06v.1h-2.18Zm-1.62-1.65h1.64a1.62,1.62,0,0,0,1.18-.4,1.4,1.4,0,0,0,.42-1.08,1.49,1.49,0,0,0-.4-1.1,1.61,1.61,0,0,0-1.21-.4h-1.63Z"/><path class="cls-3" d="M536.3,170.56h-3v8.27h-2v-8.27h-3V168.9h8Z"/><path class="cls-3" d="M540.7,175a10.1,10.1,0,0,1-.44,3,8.07,8.07,0,0,1-1.27,2.52,4.48,4.48,0,0,1-1.76,1.5l-.38-1.05a4.76,4.76,0,0,0,1.52-2.24,10.69,10.69,0,0,0,.57-3.5v-.36a10.72,10.72,0,0,0-.55-3.6,5,5,0,0,0-1.54-2.33l.38-1a4.52,4.52,0,0,1,1.73,1.46,7.75,7.75,0,0,1,1.27,2.46,10.18,10.18,0,0,1,.47,2.91Z"/><line class="cls-4" x1="453.8" y1="114.09" x2="453.8" y2="129.19"/><polygon class="cls-5" points="446.74 125.42 460.86 125.42 453.37 132.97 446.74 125.42"/><path d="M402.26,100.15l-3.37,7.72h-1.48l3.37-7.37h-4.37V99.36h5.85Z"/><path d="M408.89,104.29a4.68,4.68,0,0,1-.68,2.76,2.77,2.77,0,0,1-4.13,0,4.43,4.43,0,0,1-.71-2.69v-1.48a4.55,4.55,0,0,1,.68-2.75,2.81,2.81,0,0,1,4.14,0,4.37,4.37,0,0,1,.7,2.67Zm-1.41-1.59a3.72,3.72,0,0,0-.32-1.76,1.24,1.24,0,0,0-2.05,0,3.28,3.28,0,0,0-.34,1.65v1.93a3.73,3.73,0,0,0,.33,1.78,1.11,1.11,0,0,0,1,.58,1.09,1.09,0,0,0,1-.54,3.43,3.43,0,0,0,.34-1.69Z"/><path d="M413,104.82h-3v-1.14h3Z"/><path d="M419.35,101.6a2,2,0,0,1-.32,1.12,2.4,2.4,0,0,1-.87.77,2.28,2.28,0,0,1,1,.84,2.16,2.16,0,0,1,.36,1.22,2.25,2.25,0,0,1-.75,1.78,2.93,2.93,0,0,1-2,.66,3,3,0,0,1-2-.66,2.25,2.25,0,0,1-.76-1.78,2.17,2.17,0,0,1,.36-1.23,2.31,2.31,0,0,1,1-.83,2.29,2.29,0,0,1-.86-.77,2,2,0,0,1-.32-1.12,2.2,2.2,0,0,1,.7-1.72,3.08,3.08,0,0,1,3.76,0A2.23,2.23,0,0,1,419.35,101.6Zm-1.23,3.88a1.41,1.41,0,0,0-.37-1,1.31,1.31,0,0,0-1-.39,1.27,1.27,0,0,0-1,.39,1.58,1.58,0,0,0,0,2,1.33,1.33,0,0,0,1,.37,1.35,1.35,0,0,0,1-.36A1.41,1.41,0,0,0,418.12,105.48Zm-.18-3.82a1.35,1.35,0,0,0-.31-.92,1.22,1.22,0,0,0-1.71,0,1.53,1.53,0,0,0,0,1.87,1.09,1.09,0,0,0,.85.34,1.11,1.11,0,0,0,.86-.34A1.32,1.32,0,0,0,417.94,101.66Z"/><path d="M426.28,104.29a4.68,4.68,0,0,1-.68,2.76,2.43,2.43,0,0,1-2.08.94,2.46,2.46,0,0,1-2.06-.91,4.57,4.57,0,0,1-.71-2.69v-1.48a4.55,4.55,0,0,1,.69-2.75,2.81,2.81,0,0,1,4.14,0,4.44,4.44,0,0,1,.7,2.67Zm-1.41-1.59a3.72,3.72,0,0,0-.32-1.76,1.13,1.13,0,0,0-1-.56,1.1,1.1,0,0,0-1,.53,3.28,3.28,0,0,0-.34,1.65v1.93a3.73,3.73,0,0,0,.33,1.78,1.21,1.21,0,0,0,2,0,3.54,3.54,0,0,0,.34-1.69Z"/><path d="M431.89,101.55l0,.66a2.27,2.27,0,0,1,1.81-.78,1.72,1.72,0,0,1,1.72,1,2.22,2.22,0,0,1,1.93-1,1.93,1.93,0,0,1,1.54.58,2.54,2.54,0,0,1,.52,1.7v4.16H438v-4.12a1.24,1.24,0,0,0-.26-.88,1.15,1.15,0,0,0-.86-.28,1.21,1.21,0,0,0-.79.26,1.41,1.41,0,0,0-.42.68v4.34H434.3v-4.16a1,1,0,0,0-1.13-1.12,1.24,1.24,0,0,0-1.2.7v4.58h-1.4v-6.32Z"/><path d="M440.9,99.9a.75.75,0,0,1,.21-.54.77.77,0,0,1,.58-.22.82.82,0,0,1,.6.22.78.78,0,0,1,.2.54.77.77,0,0,1-.2.54.81.81,0,0,1-.6.21.76.76,0,0,1-.58-.21A.73.73,0,0,1,440.9,99.9Zm1.5,8H441v-6.32h1.41Z"/><path d="M445.24,101.55l0,.73a2.22,2.22,0,0,1,1.82-.85c1.31,0,2,.75,2,2.26v4.18h-1.41v-4.1a1.31,1.31,0,0,0-.26-.89,1.08,1.08,0,0,0-.84-.29,1.35,1.35,0,0,0-1.27.78v4.5h-1.41v-6.32Z"/><path d="M454.05,106.15a.66.66,0,0,0-.31-.58,3.35,3.35,0,0,0-1-.35,5,5,0,0,1-1.2-.39,1.59,1.59,0,0,1-1.06-1.48,1.67,1.67,0,0,1,.69-1.37,2.65,2.65,0,0,1,1.74-.55,2.81,2.81,0,0,1,1.81.56,1.78,1.78,0,0,1,.69,1.45H454a.87.87,0,0,0-.31-.68,1.13,1.13,0,0,0-.79-.27,1.2,1.2,0,0,0-.76.22.67.67,0,0,0-.29.58.57.57,0,0,0,.27.5,3.37,3.37,0,0,0,1.1.37,5,5,0,0,1,1.3.44,1.77,1.77,0,0,1,.7.61,1.6,1.6,0,0,1,.23.86,1.67,1.67,0,0,1-.7,1.39,3,3,0,0,1-1.84.53,3.17,3.17,0,0,1-1.37-.29,2.18,2.18,0,0,1-.94-.77,1.85,1.85,0,0,1-.34-1.05h1.37a1,1,0,0,0,.38.77,1.76,1.76,0,0,0,1.77.06A.67.67,0,0,0,454.05,106.15Z"/><path d="M459.35,104.65a3.83,3.83,0,0,1,.36-1.68,2.78,2.78,0,0,1,1-1.14,2.85,2.85,0,0,1,1.52-.4,2.73,2.73,0,0,1,2.06.82,3.28,3.28,0,0,1,.85,2.19v.33a3.76,3.76,0,0,1-.36,1.67,2.69,2.69,0,0,1-1,1.14,2.87,2.87,0,0,1-1.53.41,2.71,2.71,0,0,1-2.13-.9,3.41,3.41,0,0,1-.79-2.37Zm1.41.12a2.55,2.55,0,0,0,.4,1.53,1.27,1.27,0,0,0,1.11.55,1.3,1.3,0,0,0,1.11-.56,2.85,2.85,0,0,0,.4-1.64,2.54,2.54,0,0,0-.41-1.52,1.3,1.3,0,0,0-1.11-.56,1.29,1.29,0,0,0-1.1.55A2.79,2.79,0,0,0,460.76,104.77Z"/><path d="M467.68,101.55l0,.73a2.22,2.22,0,0,1,1.82-.85c1.31,0,2,.75,2,2.26v4.18h-1.41v-4.1a1.31,1.31,0,0,0-.26-.89,1.08,1.08,0,0,0-.84-.29,1.36,1.36,0,0,0-1.27.78v4.5h-1.41v-6.32Z"/><path d="M479.67,107.87a2.48,2.48,0,0,1-.16-.59,2.2,2.2,0,0,1-1.64.71,2.24,2.24,0,0,1-1.55-.55,1.76,1.76,0,0,1-.59-1.34,1.78,1.78,0,0,1,.74-1.55,3.6,3.6,0,0,1,2.13-.54h.86v-.42a1.13,1.13,0,0,0-.27-.79,1.1,1.1,0,0,0-.83-.29,1.21,1.21,0,0,0-.78.24.74.74,0,0,0-.31.62h-1.41a1.55,1.55,0,0,1,.34-1,2.23,2.23,0,0,1,.93-.71,3.11,3.11,0,0,1,1.32-.26,2.63,2.63,0,0,1,1.75.56,2,2,0,0,1,.67,1.57v2.85a3.22,3.22,0,0,0,.24,1.36v.1Zm-1.54-1a1.55,1.55,0,0,0,.78-.21,1.32,1.32,0,0,0,.55-.55V104.9h-.75a2.08,2.08,0,0,0-1.18.27.92.92,0,0,0-.4.78.83.83,0,0,0,.27.65A1.08,1.08,0,0,0,478.13,106.85Z"/><path d="M482.35,99.9a.75.75,0,0,1,.21-.54.78.78,0,0,1,.59-.22.81.81,0,0,1,.59.22.75.75,0,0,1,.21.54.73.73,0,0,1-.21.54.8.8,0,0,1-.59.21.77.77,0,0,1-.59-.21A.73.73,0,0,1,482.35,99.9Zm1.5,8h-1.41v-6.32h1.41Z"/><path d="M488.66,102.84a3.48,3.48,0,0,0-.57,0,1.28,1.28,0,0,0-1.3.74v4.33h-1.41v-6.32h1.34l0,.7a1.58,1.58,0,0,1,1.41-.82,1.41,1.41,0,0,1,.5.08Z"/><path d="M495,104.77a3.78,3.78,0,0,1-.66,2.34,2.26,2.26,0,0,1-3.42.19v3h-1.41v-8.75h1.3l.06.64a2,2,0,0,1,1.68-.76,2.13,2.13,0,0,1,1.8.86,3.86,3.86,0,0,1,.65,2.39Zm-1.4-.12a2.64,2.64,0,0,0-.37-1.5,1.22,1.22,0,0,0-1.07-.56,1.29,1.29,0,0,0-1.24.72v2.81a1.29,1.29,0,0,0,1.25.73,1.19,1.19,0,0,0,1.05-.55A2.91,2.91,0,0,0,493.64,104.65Z"/><path d="M497.73,107.87h-1.4v-9h1.4Z"/><path d="M503,107.87a2.48,2.48,0,0,1-.16-.59,2.2,2.2,0,0,1-1.64.71,2.24,2.24,0,0,1-1.55-.55,1.76,1.76,0,0,1-.59-1.34,1.78,1.78,0,0,1,.74-1.55,3.6,3.6,0,0,1,2.13-.54h.86v-.42a1.13,1.13,0,0,0-.27-.79,1.1,1.1,0,0,0-.83-.29,1.21,1.21,0,0,0-.78.24.74.74,0,0,0-.31.62H499.2a1.55,1.55,0,0,1,.34-1,2.23,2.23,0,0,1,.93-.71,3.11,3.11,0,0,1,1.32-.26,2.63,2.63,0,0,1,1.75.56,2,2,0,0,1,.67,1.57v2.85a3.22,3.22,0,0,0,.24,1.36v.1Zm-1.54-1a1.55,1.55,0,0,0,.78-.21,1.32,1.32,0,0,0,.55-.55V104.9h-.75a2.08,2.08,0,0,0-1.18.27.92.92,0,0,0-.4.78.83.83,0,0,0,.27.65A1.08,1.08,0,0,0,501.47,106.85Z"/><path d="M507,101.55l0,.73a2.22,2.22,0,0,1,1.82-.85c1.31,0,2,.75,2,2.26v4.18h-1.41v-4.1a1.31,1.31,0,0,0-.26-.89,1.08,1.08,0,0,0-.84-.29,1.35,1.35,0,0,0-1.27.78v4.5h-1.41v-6.32Z"/><path d="M515.05,108a2.91,2.91,0,0,1-2.17-.86,3.1,3.1,0,0,1-.83-2.26v-.17a3.86,3.86,0,0,1,.36-1.7,2.81,2.81,0,0,1,1-1.16,2.72,2.72,0,0,1,1.46-.41,2.46,2.46,0,0,1,2,.82,3.54,3.54,0,0,1,.7,2.33v.58h-4.1a1.88,1.88,0,0,0,.52,1.24,1.54,1.54,0,0,0,1.14.45,1.9,1.9,0,0,0,1.58-.79l.76.73a2.54,2.54,0,0,1-1,.88A3.11,3.11,0,0,1,515.05,108Zm-.17-5.42a1.19,1.19,0,0,0-.93.41,2.13,2.13,0,0,0-.46,1.14h2.69V104a1.76,1.76,0,0,0-.38-1.08A1.19,1.19,0,0,0,514.88,102.57Z"/><path class="cls-3" d="M350.21,82.5h-2V78.25h-4V82.5h-2V72.58h2v4h4v-4h2Z"/><path class="cls-3" d="M357.66,80.46H354.1l-.67,2h-2.16l3.66-9.92h1.88l3.69,9.92h-2.16Zm-3-1.66h2.46l-1.24-3.71Z"/><path class="cls-3" d="M369.42,82.5h-2L363.45,76V82.5h-2V72.58h2l3.95,6.54V72.58h2Z"/><path class="cls-3" d="M377.12,78.2h-3.9v2.66h4.58V82.5h-6.6V72.58h6.58v1.65h-4.56V76.6h3.9Z"/><path class="cls-3" d="M379,82.5V72.58h3a4.54,4.54,0,0,1,2.33.59,4.15,4.15,0,0,1,1.6,1.67,5.27,5.27,0,0,1,.57,2.48v.45a5.25,5.25,0,0,1-.56,2.46,4,4,0,0,1-1.6,1.67,4.47,4.47,0,0,1-2.31.6Zm2-8.27v6.63h1a2.19,2.19,0,0,0,1.82-.78,3.59,3.59,0,0,0,.65-2.25v-.52a3.62,3.62,0,0,0-.63-2.3,2.21,2.21,0,0,0-1.82-.78Z"/><path class="cls-3" d="M393.54,80.46H390l-.68,2h-2.16l3.67-9.92h1.88l3.68,9.92h-2.15Zm-3-1.66H393l-1.24-3.71Z"/><path class="cls-3" d="M406.31,80.46h-3.56l-.67,2h-2.16l3.66-9.92h1.88l3.69,9.92H407Zm-3-1.66h2.46l-1.24-3.71Z"/><path class="cls-3" d="M412.23,82.5h-2V72.58h2Z"/><path class="cls-3" d="M417.75,78.87h-1.62V82.5h-2V72.58h3.65a4.16,4.16,0,0,1,2.7.78,2.71,2.71,0,0,1,.94,2.22,2.75,2.75,0,0,1-1.76,2.77l2.13,4.06v.09H419.6Zm-1.62-1.66h1.64a1.66,1.66,0,0,0,1.18-.39,1.4,1.4,0,0,0,.42-1.08,1.51,1.51,0,0,0-.39-1.1,1.65,1.65,0,0,0-1.22-.41h-1.63Z"/><path class="cls-3" d="M425,79V82.5h-2V72.58h3.84a4.38,4.38,0,0,1,2,.41A3,3,0,0,1,430,74.15a3.26,3.26,0,0,1,.45,1.71,2.88,2.88,0,0,1-1,2.31,4.1,4.1,0,0,1-2.74.84Zm0-1.66h1.81A1.79,1.79,0,0,0,428,77a1.41,1.41,0,0,0,.42-1.09A1.65,1.65,0,0,0,428,74.7a1.61,1.61,0,0,0-1.18-.47H425Z"/><path class="cls-3" d="M440,77.77a6.11,6.11,0,0,1-.51,2.57A3.88,3.88,0,0,1,438,82a4.06,4.06,0,0,1-2.2.6,4.12,4.12,0,0,1-2.18-.59,3.93,3.93,0,0,1-1.49-1.7,5.81,5.81,0,0,1-.53-2.53v-.49a6,6,0,0,1,.52-2.58A3.94,3.94,0,0,1,433.58,73a4,4,0,0,1,5.86,1.71,6,6,0,0,1,.52,2.57Zm-2-.45a4.23,4.23,0,0,0-.56-2.38,1.79,1.79,0,0,0-1.58-.81,1.82,1.82,0,0,0-1.58.8,4.31,4.31,0,0,0-.56,2.35v.49a4.21,4.21,0,0,0,.56,2.35,1.93,1.93,0,0,0,3.16,0,4.26,4.26,0,0,0,.56-2.36Z"/><path class="cls-3" d="M445.08,78.87h-1.62V82.5h-2V72.58h3.65a4.16,4.16,0,0,1,2.7.78,2.71,2.71,0,0,1,.94,2.22,3.08,3.08,0,0,1-.43,1.69A3,3,0,0,1,447,78.35l2.13,4.06v.09h-2.17Zm-1.62-1.66h1.64a1.71,1.71,0,0,0,1.19-.39,1.43,1.43,0,0,0,.41-1.08,1.51,1.51,0,0,0-.39-1.1,1.63,1.63,0,0,0-1.22-.41h-1.63Z"/><path class="cls-3" d="M457.35,74.23h-3V82.5h-2V74.23h-3V72.58h8Z"/><path class="cls-3" d="M459,83.36h-1.45l3.62-10.78h1.45Z"/><path class="cls-3" d="M471.68,82.5h-2L465.7,76V82.5h-2V72.58h2l4,6.54V72.58h2Z"/><path class="cls-3" d="M479,80.46h-3.55l-.68,2h-2.16l3.67-9.92h1.88l3.68,9.92h-2.16Zm-3-1.66h2.46l-1.23-3.71Z"/><path class="cls-3" d="M486.42,78.87H484.8V82.5h-2V72.58h3.66a4.13,4.13,0,0,1,2.69.78,2.72,2.72,0,0,1,.95,2.22,3.08,3.08,0,0,1-.44,1.69,3,3,0,0,1-1.32,1.08l2.13,4.06v.09h-2.18Zm-1.62-1.66h1.64a1.66,1.66,0,0,0,1.18-.39,1.4,1.4,0,0,0,.42-1.08,1.47,1.47,0,0,0-.4-1.1,1.62,1.62,0,0,0-1.21-.41H484.8Z"/><path class="cls-3" d="M493.77,82.5h-2V72.58h2Z"/><path class="cls-3" d="M503.06,74.23h-3V82.5h-2V74.23h-3V72.58h8Z"/><path class="cls-3" d="M509,80.46H505.4l-.67,2h-2.16l3.66-9.92h1.88l3.69,9.92h-2.16Zm-3-1.66h2.46l-1.24-3.71Z"/><path class="cls-3" d="M521.73,80.46h-3.56l-.68,2h-2.15L519,72.58h1.88l3.69,9.92h-2.16Zm-3-1.66h2.46l-1.24-3.71Z"/><path class="cls-3" d="M527.64,82.5h-2V72.58h2Z"/><path class="cls-3" d="M533.17,78.87h-1.62V82.5h-2V72.58h3.66a4.13,4.13,0,0,1,2.69.78,2.72,2.72,0,0,1,1,2.22,3.08,3.08,0,0,1-.44,1.69,3,3,0,0,1-1.32,1.08l2.13,4.06v.09H535Zm-1.62-1.66h1.64a1.66,1.66,0,0,0,1.18-.39,1.4,1.4,0,0,0,.42-1.08,1.47,1.47,0,0,0-.4-1.1,1.62,1.62,0,0,0-1.21-.41h-1.63Z"/><path class="cls-3" d="M540.39,79V82.5h-2V72.58h3.84a4.31,4.31,0,0,1,1.95.41,3.06,3.06,0,0,1,1.3,1.16,3.26,3.26,0,0,1,.45,1.71,2.88,2.88,0,0,1-1,2.31,4.12,4.12,0,0,1-2.74.84Zm0-1.66h1.81a1.79,1.79,0,0,0,1.23-.38,1.41,1.41,0,0,0,.42-1.09,1.62,1.62,0,0,0-.43-1.18,1.57,1.57,0,0,0-1.17-.47h-1.86Z"/><path class="cls-3" d="M555.38,77.77a6.11,6.11,0,0,1-.51,2.57,3.91,3.91,0,0,1-3.67,2.3,4.09,4.09,0,0,1-2.18-.59,3.93,3.93,0,0,1-1.49-1.7,6,6,0,0,1-.54-2.53v-.49a6,6,0,0,1,.53-2.58A3.94,3.94,0,0,1,549,73a4,4,0,0,1,2.19-.6,3.92,3.92,0,0,1,3.67,2.31,6.11,6.11,0,0,1,.52,2.57Zm-2.06-.45a4.23,4.23,0,0,0-.55-2.38,2,2,0,0,0-3.16,0,4.14,4.14,0,0,0-.56,2.35v.49a4.3,4.3,0,0,0,.55,2.35,1.94,1.94,0,0,0,3.17,0,4.26,4.26,0,0,0,.55-2.36Z"/><path class="cls-3" d="M560.5,78.87h-1.62V82.5h-2V72.58h3.66a4.13,4.13,0,0,1,2.69.78,2.72,2.72,0,0,1,.95,2.22,3.08,3.08,0,0,1-.44,1.69,3,3,0,0,1-1.32,1.08l2.13,4.06v.09h-2.18Zm-1.62-1.66h1.64a1.66,1.66,0,0,0,1.18-.39,1.4,1.4,0,0,0,.42-1.08,1.47,1.47,0,0,0-.4-1.1,1.61,1.61,0,0,0-1.21-.41h-1.63Z"/><path class="cls-3" d="M572.76,74.23h-3V82.5h-2V74.23h-3V72.58h8Z"/><rect class="cls-3" x="388.34" y="271.53" width="137.28" height="31.46"/><path class="cls-1" d="M438.41,281.21l-.87.94v2.43h-1.35v-7.8h1.35v3.66l.74-.93,2.27-2.73h1.62l-2.87,3.46,3,4.34h-1.6Z"/><path class="cls-1" d="M442.93,277.28a.68.68,0,0,1,.19-.5.7.7,0,0,1,.54-.2.73.73,0,0,1,.54.2.68.68,0,0,1,.19.5.67.67,0,0,1-.19.49.73.73,0,0,1-.54.19.7.7,0,0,1-.54-.19A.67.67,0,0,1,442.93,277.28Zm1.37,7.3H443v-5.8h1.29Z"/><path class="cls-1" d="M446.9,278.78l0,.67a2.08,2.08,0,0,1,1.68-.77c1.19,0,1.8.69,1.82,2.07v3.83h-1.29v-3.76a1.22,1.22,0,0,0-.23-.81,1,1,0,0,0-.78-.27,1.23,1.23,0,0,0-1.16.72v4.12h-1.29v-5.8Z"/><path class="cls-1" d="M453.38,277.38v1.4h1v1h-1V283a.77.77,0,0,0,.12.48.62.62,0,0,0,.47.15,2.3,2.3,0,0,0,.45-.05v1a2.88,2.88,0,0,1-.85.13c-1,0-1.49-.56-1.49-1.66v-3.28h-.94v-1h.94v-1.4Z"/><path class="cls-1" d="M457.91,284.69a2.66,2.66,0,0,1-2-.78,2.83,2.83,0,0,1-.76-2.08v-.16a3.53,3.53,0,0,1,.33-1.55,2.47,2.47,0,0,1,.93-1.06,2.41,2.41,0,0,1,1.34-.38,2.24,2.24,0,0,1,1.81.75,3.2,3.2,0,0,1,.64,2.14v.52h-3.75a1.75,1.75,0,0,0,.47,1.14,1.42,1.42,0,0,0,1.05.42,1.75,1.75,0,0,0,1.45-.73l.69.67a2.26,2.26,0,0,1-.92.81A2.88,2.88,0,0,1,457.91,284.69Zm-.16-5a1.1,1.1,0,0,0-.86.38,2,2,0,0,0-.41,1h2.46V281a1.59,1.59,0,0,0-.35-1A1.05,1.05,0,0,0,457.75,279.72Z"/><path class="cls-1" d="M462.83,277.38v1.4h1v1h-1V283a.76.76,0,0,0,.13.48.6.6,0,0,0,.47.15,2.3,2.3,0,0,0,.45-.05v1a2.88,2.88,0,0,1-.85.13c-1,0-1.49-.56-1.49-1.66v-3.28h-.94v-1h.94v-1.4Z"/><path class="cls-1" d="M468.05,283a.6.6,0,0,0-.28-.53,3.22,3.22,0,0,0-.94-.32,4.75,4.75,0,0,1-1.1-.35,1.47,1.47,0,0,1-1-1.37,1.54,1.54,0,0,1,.63-1.25,2.44,2.44,0,0,1,1.59-.5,2.6,2.6,0,0,1,1.67.51,1.64,1.64,0,0,1,.63,1.33H468a.79.79,0,0,0-.28-.62,1,1,0,0,0-.73-.25,1.15,1.15,0,0,0-.69.2.62.62,0,0,0-.27.53.53.53,0,0,0,.25.47,3.4,3.4,0,0,0,1,.33,4.82,4.82,0,0,1,1.19.4,1.7,1.7,0,0,1,.64.56,1.43,1.43,0,0,1,.21.79,1.5,1.5,0,0,1-.64,1.27,2.75,2.75,0,0,1-1.68.49,3,3,0,0,1-1.26-.26,2,2,0,0,1-.86-.71,1.65,1.65,0,0,1-.31-1h1.25a.92.92,0,0,0,.35.71,1.29,1.29,0,0,0,.84.25,1.32,1.32,0,0,0,.78-.19A.61.61,0,0,0,468.05,283Z"/><path class="cls-1" d="M473.93,284a2,2,0,0,1-1.61.68,1.77,1.77,0,0,1-1.42-.56,2.34,2.34,0,0,1-.48-1.59v-3.76h1.29v3.74c0,.74.3,1.11.91,1.11a1.28,1.28,0,0,0,1.27-.68v-4.17h1.29v5.8H474Z"/><path class="cls-1" d="M421,297.74h-1.35l-3.45-5.53v5.53h-1.34v-7.8h1.34l3.46,5.56v-5.56H421Z"/><path class="cls-1" d="M425.88,297.74a2.25,2.25,0,0,1-.14-.54,2.16,2.16,0,0,1-2.93.15,1.6,1.6,0,0,1-.54-1.23,1.63,1.63,0,0,1,.68-1.42,3.26,3.26,0,0,1,1.95-.5h.79v-.38a1,1,0,0,0-.25-.72,1,1,0,0,0-.76-.27,1.19,1.19,0,0,0-.72.22.69.69,0,0,0-.28.57h-1.29a1.42,1.42,0,0,1,.31-.89,2.06,2.06,0,0,1,.85-.65,3,3,0,0,1,1.21-.24,2.41,2.41,0,0,1,1.61.51,1.82,1.82,0,0,1,.61,1.44v2.61a3,3,0,0,0,.22,1.25v.09Zm-1.41-.93a1.55,1.55,0,0,0,.72-.19,1.27,1.27,0,0,0,.5-.5V295H425a2,2,0,0,0-1.08.25.83.83,0,0,0-.36.72.75.75,0,0,0,.24.59A1,1,0,0,0,424.47,296.81Z"/><path class="cls-1" d="M429.55,292l0,.6a2.06,2.06,0,0,1,1.66-.71,1.58,1.58,0,0,1,1.57.89,2.05,2.05,0,0,1,1.77-.89,1.79,1.79,0,0,1,1.41.53,2.36,2.36,0,0,1,.48,1.56v3.81h-1.29V294a1.15,1.15,0,0,0-.24-.81,1.06,1.06,0,0,0-.79-.25,1.09,1.09,0,0,0-.72.23,1.21,1.21,0,0,0-.39.63v4h-1.29v-3.81a.92.92,0,0,0-1-1,1.12,1.12,0,0,0-1.09.63v4.2h-1.3V292Z"/><path class="cls-1" d="M442.85,294.9a3.49,3.49,0,0,1-.6,2.15,2,2,0,0,1-1.64.8,1.88,1.88,0,0,1-1.58-.73l-.06.62H437.8v-8.22h1.29v3a1.88,1.88,0,0,1,1.51-.66,2,2,0,0,1,1.65.79,3.55,3.55,0,0,1,.6,2.2Zm-1.29-.11a2.45,2.45,0,0,0-.33-1.41,1.08,1.08,0,0,0-1-.47,1.19,1.19,0,0,0-1.18.74V296a1.21,1.21,0,0,0,1.19.76,1.08,1.08,0,0,0,.94-.46,2.4,2.4,0,0,0,.34-1.37Z"/><path class="cls-1" d="M447.36,297.74a2.71,2.71,0,0,1-.15-.54,2,2,0,0,1-1.5.65,2.05,2.05,0,0,1-1.42-.5,1.6,1.6,0,0,1-.54-1.23,1.63,1.63,0,0,1,.68-1.42,3.26,3.26,0,0,1,1.95-.5h.79v-.38a1,1,0,0,0-.25-.72,1,1,0,0,0-.76-.27,1.19,1.19,0,0,0-.72.22.69.69,0,0,0-.28.57h-1.29a1.42,1.42,0,0,1,.31-.89,2,2,0,0,1,.85-.65,3,3,0,0,1,1.21-.24,2.41,2.41,0,0,1,1.61.51,1.82,1.82,0,0,1,.61,1.44v2.61a3,3,0,0,0,.22,1.25v.09Zm-1.41-.93a1.55,1.55,0,0,0,.72-.19,1.27,1.27,0,0,0,.5-.5V295h-.69a2,2,0,0,0-1.08.25.83.83,0,0,0-.36.72.75.75,0,0,0,.24.59A1,1,0,0,0,446,296.81Z"/><path class="cls-1" d="M450.18,298.41h-1l3-8.47h1Z"/><path class="cls-1" d="M460.38,297.74H459l-3.45-5.53v5.53h-1.35v-7.8h1.35l3.46,5.56v-5.56h1.33Z"/><path class="cls-1" d="M465.28,297.74a1.8,1.8,0,0,1-.15-.54,2.15,2.15,0,0,1-2.92.15,1.58,1.58,0,0,1-.55-1.23,1.65,1.65,0,0,1,.68-1.42,3.32,3.32,0,0,1,2-.5h.79v-.38a1,1,0,0,0-.25-.72,1,1,0,0,0-.76-.27,1.14,1.14,0,0,0-.72.22.7.7,0,0,0-.29.57h-1.29a1.43,1.43,0,0,1,.32-.89,2,2,0,0,1,.85-.65,2.92,2.92,0,0,1,1.2-.24,2.39,2.39,0,0,1,1.61.51,1.83,1.83,0,0,1,.62,1.44v2.61a2.89,2.89,0,0,0,.22,1.25v.09Zm-1.42-.93a1.49,1.49,0,0,0,.72-.19,1.36,1.36,0,0,0,.51-.5V295h-.7a2,2,0,0,0-1.08.25.83.83,0,0,0-.36.72.72.72,0,0,0,.25.59A.93.93,0,0,0,463.86,296.81Z"/><path class="cls-1" d="M470.74,293.14a3,3,0,0,0-.53-.05,1.17,1.17,0,0,0-1.19.69v4h-1.29V292H469l0,.65a1.45,1.45,0,0,1,1.3-.76,1.22,1.22,0,0,1,.46.08Z"/><path class="cls-1" d="M474.83,297.74a2.16,2.16,0,0,1-.15-.54,2,2,0,0,1-1.51.65,2,2,0,0,1-1.41-.5,1.61,1.61,0,0,1-.55-1.23,1.64,1.64,0,0,1,.69-1.42,3.26,3.26,0,0,1,2-.5h.79v-.38a1,1,0,0,0-.25-.72,1,1,0,0,0-.76-.27,1.19,1.19,0,0,0-.72.22.69.69,0,0,0-.28.57h-1.29a1.42,1.42,0,0,1,.31-.89,2,2,0,0,1,.85-.65,2.94,2.94,0,0,1,1.21-.24,2.41,2.41,0,0,1,1.61.51,1.86,1.86,0,0,1,.61,1.44v2.61a2.89,2.89,0,0,0,.22,1.25v.09Zm-1.42-.93a1.49,1.49,0,0,0,.72-.19,1.23,1.23,0,0,0,.51-.5V295h-.7a1.94,1.94,0,0,0-1.07.25.84.84,0,0,0-.37.72.75.75,0,0,0,.25.59A1,1,0,0,0,473.41,296.81Z"/><path class="cls-1" d="M481.46,296.66H485v1.08h-4.85v-7.8h1.34Z"/><path class="cls-1" d="M485.88,290.44a.69.69,0,0,1,.19-.5.86.86,0,0,1,1.08,0,.69.69,0,0,1,.19.5.66.66,0,0,1-.19.49.83.83,0,0,1-1.08,0A.66.66,0,0,1,485.88,290.44Zm1.37,7.3H486V292h1.29Z"/><path class="cls-1" d="M489.86,292l0,.67a2.08,2.08,0,0,1,1.68-.78c1.19,0,1.8.69,1.82,2.07v3.83H492.1V294a1.25,1.25,0,0,0-.23-.82,1,1,0,0,0-.78-.26,1.22,1.22,0,0,0-1.16.71v4.12h-1.29V292Z"/><path class="cls-1" d="M497.24,297.85a2.66,2.66,0,0,1-2-.78,2.83,2.83,0,0,1-.76-2.07v-.17a3.56,3.56,0,0,1,.33-1.55,2.53,2.53,0,0,1,.93-1.06,2.49,2.49,0,0,1,1.34-.38,2.24,2.24,0,0,1,1.82.76,3.22,3.22,0,0,1,.64,2.13v.53h-3.76a1.71,1.71,0,0,0,.48,1.13,1.39,1.39,0,0,0,1.05.42,1.74,1.74,0,0,0,1.44-.72l.7.67a2.34,2.34,0,0,1-.93.8A2.85,2.85,0,0,1,497.24,297.85Zm-.15-5a1.09,1.09,0,0,0-.86.38,1.94,1.94,0,0,0-.42,1h2.46v-.09a1.6,1.6,0,0,0-.34-1A1.11,1.11,0,0,0,497.09,292.88Z"/></g><g id="column_1" data-name="column 1"><rect class="cls-6" x="11.21" y="63.76" width="199.68" height="415.22"/><path class="cls-3" d="M66.93,74.23h-3V82.5h-2V74.23h-3V72.58h8Z"/><path class="cls-3" d="M76,77.77a6.11,6.11,0,0,1-.51,2.57A4,4,0,0,1,74,82a4.06,4.06,0,0,1-2.2.6,4.12,4.12,0,0,1-2.18-.59,3.93,3.93,0,0,1-1.49-1.7,5.81,5.81,0,0,1-.53-2.53v-.49a6,6,0,0,1,.52-2.58A3.94,3.94,0,0,1,69.6,73a4,4,0,0,1,5.86,1.71A6,6,0,0,1,76,77.32Zm-2-.45a4.23,4.23,0,0,0-.56-2.38,2,2,0,0,0-3.16,0,4.22,4.22,0,0,0-.56,2.35v.49a4.21,4.21,0,0,0,.56,2.35,1.93,1.93,0,0,0,3.16,0,4.26,4.26,0,0,0,.56-2.36Z"/><path class="cls-3" d="M80.54,78.52l-1.06,1.15V82.5h-2V72.58h2v4.5l.9-1.24,2.5-3.26h2.5L81.88,77l3.6,5.51H83.07Z"/><path class="cls-3" d="M89.64,77.05l2-4.47h2.22L90.67,78.9v3.6H88.61V78.9l-3.23-6.32h2.23Z"/><path class="cls-3" d="M102.7,77.77a6,6,0,0,1-.52,2.57,3.88,3.88,0,0,1-1.47,1.7,4,4,0,0,1-2.19.6,4.07,4.07,0,0,1-2.18-.59,3.87,3.87,0,0,1-1.49-1.7,6,6,0,0,1-.54-2.53v-.49a6,6,0,0,1,.53-2.58A3.94,3.94,0,0,1,96.32,73a4.28,4.28,0,0,1,4.37,0,3.94,3.94,0,0,1,1.48,1.71,6,6,0,0,1,.53,2.57Zm-2.06-.45a4.23,4.23,0,0,0-.55-2.38,2,2,0,0,0-3.16,0,4.14,4.14,0,0,0-.56,2.35v.49a4.21,4.21,0,0,0,.55,2.35,1.94,1.94,0,0,0,3.17,0,4.26,4.26,0,0,0,.55-2.36Z"/><path class="cls-3" d="M112.73,79.9a1.06,1.06,0,0,0-.41-.89,5,5,0,0,0-1.46-.65,10.71,10.71,0,0,1-1.67-.68,2.75,2.75,0,0,1-1.68-2.46,2.42,2.42,0,0,1,.45-1.44,2.89,2.89,0,0,1,1.29-1,4.75,4.75,0,0,1,1.89-.36,4.33,4.33,0,0,1,1.88.39,3,3,0,0,1,1.28,1.08,2.83,2.83,0,0,1,.46,1.6h-2a1.34,1.34,0,0,0-.42-1.06,1.78,1.78,0,0,0-1.2-.38,1.88,1.88,0,0,0-1.16.32,1,1,0,0,0-.41.83A.94.94,0,0,0,110,76a5.45,5.45,0,0,0,1.43.62A6.14,6.14,0,0,1,114,78a2.59,2.59,0,0,1,.79,1.94,2.38,2.38,0,0,1-1,2,4.18,4.18,0,0,1-2.6.73,5,5,0,0,1-2.07-.42,3.22,3.22,0,0,1-1.42-1.15,2.92,2.92,0,0,1-.49-1.69h2c0,1.1.65,1.64,2,1.64a1.87,1.87,0,0,0,1.13-.29A1,1,0,0,0,112.73,79.9Z"/><path class="cls-3" d="M123.54,74.23h-3V82.5h-2V74.23h-3V72.58h8Z"/><path class="cls-3" d="M129.45,80.46h-3.56l-.68,2h-2.15l3.66-9.92h1.88l3.69,9.92h-2.16Zm-3-1.66h2.46l-1.24-3.71Z"/><path class="cls-3" d="M139.81,74.23h-3V82.5h-2V74.23h-3V72.58h8Z"/><path class="cls-3" d="M143.12,82.5h-2V72.58h2Z"/><path class="cls-3" d="M153.09,77.77a6,6,0,0,1-.52,2.57A3.88,3.88,0,0,1,151.1,82a4,4,0,0,1-2.19.6,4.13,4.13,0,0,1-2.19-.59,3.91,3.91,0,0,1-1.48-1.7,5.81,5.81,0,0,1-.54-2.53v-.49a6,6,0,0,1,.53-2.58A3.94,3.94,0,0,1,146.71,73a4,4,0,0,1,2.18-.6,4,4,0,0,1,2.19.6,3.94,3.94,0,0,1,1.48,1.71,6,6,0,0,1,.53,2.57ZM151,77.32a4.23,4.23,0,0,0-.55-2.38,2,2,0,0,0-3.16,0,4.14,4.14,0,0,0-.56,2.35v.49a4.21,4.21,0,0,0,.55,2.35,1.94,1.94,0,0,0,3.17,0A4.26,4.26,0,0,0,151,77.8Z"/><path class="cls-3" d="M162.57,82.5h-2L156.59,76V82.5h-2V72.58h2l3.95,6.54V72.58h2Z"/><path d="M69.11,103H70a1.59,1.59,0,0,0,1-.34,1.25,1.25,0,0,0,.38-1,1.32,1.32,0,0,0-.32-.94,1.28,1.28,0,0,0-1-.34,1.34,1.34,0,0,0-.93.33,1.12,1.12,0,0,0-.36.87H67.39a2.18,2.18,0,0,1,.34-1.2,2.39,2.39,0,0,1,1-.84,3.18,3.18,0,0,1,1.39-.3,2.91,2.91,0,0,1,2,.64,2.26,2.26,0,0,1,.72,1.78,1.84,1.84,0,0,1-.36,1.08,2.22,2.22,0,0,1-.93.76,2,2,0,0,1,1.05.76,2.07,2.07,0,0,1,.37,1.22,2.3,2.3,0,0,1-.78,1.83,3,3,0,0,1-2,.68,3,3,0,0,1-2-.66,2.19,2.19,0,0,1-.77-1.74h1.4a1.19,1.19,0,0,0,.38.91,1.42,1.42,0,0,0,1,.35,1.49,1.49,0,0,0,1-.35,1.32,1.32,0,0,0,.37-1,1.34,1.34,0,0,0-.39-1,1.67,1.67,0,0,0-1.17-.36h-.83Z"/><path d="M78.66,102.24a2.19,2.19,0,0,1,1.75-.81c1.33,0,2,.77,2,2.31v4.13H81v-4.08a1.25,1.25,0,0,0-.28-.93,1.15,1.15,0,0,0-.83-.27,1.35,1.35,0,0,0-1.26.76v4.52H77.25v-9h1.41Z"/><path d="M87.15,102.84a3.69,3.69,0,0,0-.58,0,1.29,1.29,0,0,0-1.3.74v4.33H83.86v-6.32H85.2l0,.7a1.58,1.58,0,0,1,1.41-.82,1.41,1.41,0,0,1,.5.08Z"/><path d="M91.55,106.15a.64.64,0,0,0-.31-.58,3.35,3.35,0,0,0-1-.35,5,5,0,0,1-1.2-.39A1.6,1.6,0,0,1,88,103.35a1.66,1.66,0,0,1,.68-1.37,2.69,2.69,0,0,1,1.74-.55,2.84,2.84,0,0,1,1.82.56,1.78,1.78,0,0,1,.69,1.45H91.48a.9.9,0,0,0-.3-.68,1.16,1.16,0,0,0-.8-.27,1.22,1.22,0,0,0-.76.22.69.69,0,0,0-.29.58.57.57,0,0,0,.27.5,3.37,3.37,0,0,0,1.1.37,4.88,4.88,0,0,1,1.3.44,1.88,1.88,0,0,1,.71.61,1.6,1.6,0,0,1,.23.86,1.68,1.68,0,0,1-.71,1.39,3,3,0,0,1-1.83.53A3.18,3.18,0,0,1,89,107.7a2.24,2.24,0,0,1-.94-.77,1.84,1.84,0,0,1-.33-1.05h1.37a1,1,0,0,0,.37.77,1.46,1.46,0,0,0,.92.27,1.42,1.42,0,0,0,.85-.21A.67.67,0,0,0,91.55,106.15Z"/><path d="M98.66,103h.85a1.55,1.55,0,0,0,1-.34,1.22,1.22,0,0,0,.38-1,1.32,1.32,0,0,0-.31-.94,1.3,1.3,0,0,0-1-.34,1.32,1.32,0,0,0-.93.33,1.1,1.1,0,0,0-.37.87H96.93a2.19,2.19,0,0,1,.35-1.2,2.39,2.39,0,0,1,1-.84,3.11,3.11,0,0,1,1.38-.3,2.92,2.92,0,0,1,2,.64,2.26,2.26,0,0,1,.72,1.78,1.84,1.84,0,0,1-.36,1.08,2.19,2.19,0,0,1-.94.76,2,2,0,0,1,1.06.76,2.07,2.07,0,0,1,.36,1.22,2.3,2.3,0,0,1-.78,1.83,3,3,0,0,1-2,.68,3,3,0,0,1-2-.66,2.17,2.17,0,0,1-.78-1.74h1.41a1.19,1.19,0,0,0,.38.91,1.4,1.4,0,0,0,1,.35,1.46,1.46,0,0,0,1-.35,1.32,1.32,0,0,0,.38-1,1.34,1.34,0,0,0-.39-1,1.72,1.72,0,0,0-1.18-.36h-.82Z"/><path d="M107.59,107.87h-1.41V101l-2.06.71v-1.19l3.29-1.22h.18Z"/><path d="M114.89,101.55l0,.66a2.24,2.24,0,0,1,1.81-.78,1.72,1.72,0,0,1,1.72,1,2.22,2.22,0,0,1,1.92-1,1.94,1.94,0,0,1,1.55.58,2.54,2.54,0,0,1,.52,1.7v4.16H121v-4.12a1.28,1.28,0,0,0-.26-.88,1.4,1.4,0,0,0-1.65,0,1.42,1.42,0,0,0-.43.68v4.34H117.3v-4.16a1,1,0,0,0-1.13-1.12,1.24,1.24,0,0,0-1.2.7v4.58h-1.41v-6.32Z"/><path d="M123.9,99.9a.74.74,0,0,1,.2-.54.81.81,0,0,1,.59-.22.79.79,0,0,1,.59.22.75.75,0,0,1,.21.54.73.73,0,0,1-.21.54.79.79,0,0,1-.59.21.8.8,0,0,1-.59-.21A.72.72,0,0,1,123.9,99.9Zm1.49,8H124v-6.32h1.41Z"/><path d="M128.23,101.55l0,.73a2.24,2.24,0,0,1,1.83-.85c1.3,0,2,.75,2,2.26v4.18h-1.41v-4.1a1.31,1.31,0,0,0-.25-.89,1.12,1.12,0,0,0-.85-.29,1.36,1.36,0,0,0-1.27.78v4.5H126.9v-6.32Z"/><path d="M137,106.15a.64.64,0,0,0-.31-.58,3.35,3.35,0,0,0-1-.35,5,5,0,0,1-1.2-.39,1.6,1.6,0,0,1-1.05-1.48,1.69,1.69,0,0,1,.68-1.37,2.69,2.69,0,0,1,1.74-.55,2.82,2.82,0,0,1,1.82.56,1.78,1.78,0,0,1,.69,1.45H137a.9.9,0,0,0-.3-.68,1.16,1.16,0,0,0-.8-.27,1.22,1.22,0,0,0-.76.22.69.69,0,0,0-.29.58.57.57,0,0,0,.27.5,3.45,3.45,0,0,0,1.11.37,5.14,5.14,0,0,1,1.3.44,1.84,1.84,0,0,1,.7.61,1.6,1.6,0,0,1,.23.86,1.69,1.69,0,0,1-.7,1.39,3,3,0,0,1-1.84.53,3.21,3.21,0,0,1-1.38-.29,2.15,2.15,0,0,1-.93-.77,1.78,1.78,0,0,1-.34-1.05h1.37a1,1,0,0,0,.37.77,1.49,1.49,0,0,0,.93.27,1.41,1.41,0,0,0,.84-.21A.67.67,0,0,0,137,106.15Z"/><path d="M142.34,104.65a3.84,3.84,0,0,1,.37-1.68,2.71,2.71,0,0,1,1-1.14,2.82,2.82,0,0,1,1.51-.4,2.7,2.7,0,0,1,2.06.82,3.24,3.24,0,0,1,.86,2.19v.33a3.76,3.76,0,0,1-.35,1.67,2.69,2.69,0,0,1-1,1.14,2.87,2.87,0,0,1-1.53.41,2.7,2.7,0,0,1-2.13-.9,3.42,3.42,0,0,1-.8-2.37Zm1.41.12a2.62,2.62,0,0,0,.4,1.53,1.4,1.4,0,0,0,2.23,0,2.86,2.86,0,0,0,.39-1.64,2.47,2.47,0,0,0-.41-1.52,1.37,1.37,0,0,0-2.2,0A2.79,2.79,0,0,0,143.75,104.77Z"/><path d="M150.67,101.55l0,.73a2.26,2.26,0,0,1,1.83-.85c1.31,0,2,.75,2,2.26v4.18h-1.4v-4.1a1.31,1.31,0,0,0-.26-.89,1.12,1.12,0,0,0-.85-.29,1.37,1.37,0,0,0-1.27.78v4.5h-1.4v-6.32Z"/><rect class="cls-3" x="42.41" y="151.84" width="137.28" height="31.46"/><path class="cls-1" d="M57.17,160.89a4.81,4.81,0,0,1-.39,2A3,3,0,0,1,54,164.7a3.1,3.1,0,0,1-1.68-.47,3,3,0,0,1-1.13-1.32,4.56,4.56,0,0,1-.41-2v-.44a4.76,4.76,0,0,1,.4-2,3.15,3.15,0,0,1,4.49-1.34,3,3,0,0,1,1.12,1.32,4.64,4.64,0,0,1,.41,2Zm-1.35-.4a3.46,3.46,0,0,0-.48-2,1.6,1.6,0,0,0-1.38-.69,1.57,1.57,0,0,0-1.36.69,3.34,3.34,0,0,0-.51,1.94v.45a3.42,3.42,0,0,0,.5,2,1.72,1.72,0,0,0,2.75,0,3.51,3.51,0,0,0,.48-2Z"/><path class="cls-1" d="M61.61,163a.61.61,0,0,0-.29-.53,3,3,0,0,0-.94-.32,4.75,4.75,0,0,1-1.1-.35,1.47,1.47,0,0,1-1-1.37,1.54,1.54,0,0,1,.63-1.25,2.44,2.44,0,0,1,1.59-.5,2.6,2.6,0,0,1,1.67.51,1.64,1.64,0,0,1,.63,1.33H61.54a.81.81,0,0,0-.27-.62,1.05,1.05,0,0,0-.74-.25,1.15,1.15,0,0,0-.69.2.62.62,0,0,0-.27.53.53.53,0,0,0,.25.47,3.4,3.4,0,0,0,1,.33,4.82,4.82,0,0,1,1.19.4,1.73,1.73,0,0,1,.65.56,1.57,1.57,0,0,1-.44,2.06,2.75,2.75,0,0,1-1.68.49,3,3,0,0,1-1.26-.26,2,2,0,0,1-.86-.71,1.65,1.65,0,0,1-.31-1h1.25a.92.92,0,0,0,.35.71,1.29,1.29,0,0,0,.84.25,1.32,1.32,0,0,0,.78-.19A.62.62,0,0,0,61.61,163Z"/><path class="cls-1" d="M67.43,164.59a2.71,2.71,0,0,1-.15-.54,2,2,0,0,1-1.5.65,2.05,2.05,0,0,1-1.42-.5,1.6,1.6,0,0,1-.54-1.23,1.65,1.65,0,0,1,.68-1.43,3.27,3.27,0,0,1,2-.49h.79v-.38A1,1,0,0,0,67,160a1,1,0,0,0-.76-.27,1.12,1.12,0,0,0-.72.22.69.69,0,0,0-.28.56H63.94a1.46,1.46,0,0,1,.31-.89,2.17,2.17,0,0,1,.85-.65,2.94,2.94,0,0,1,1.21-.23,2.41,2.41,0,0,1,1.61.51,1.82,1.82,0,0,1,.61,1.44v2.61a3.08,3.08,0,0,0,.22,1.25v.09ZM66,163.65a1.39,1.39,0,0,0,.72-.19,1.17,1.17,0,0,0,.51-.5v-1.09h-.69a1.87,1.87,0,0,0-1.08.25.81.81,0,0,0-.36.71.78.78,0,0,0,.24.6A1,1,0,0,0,66,163.65Z"/><path class="cls-1" d="M71.75,162.1l-.57.6v1.89H69.89v-8.23h1.29v4.75l.4-.51,1.59-1.81h1.55l-2.13,2.42L75,164.59H73.46Z"/><path class="cls-1" d="M79,164.59a1.8,1.8,0,0,1-.15-.54,2.15,2.15,0,0,1-2.92.15,1.58,1.58,0,0,1-.55-1.23,1.67,1.67,0,0,1,.68-1.43,3.32,3.32,0,0,1,2-.49h.79v-.38a1,1,0,0,0-.25-.72,1,1,0,0,0-.76-.27,1.09,1.09,0,0,0-.72.22.69.69,0,0,0-.28.56H75.5a1.47,1.47,0,0,1,.32-.89,2.17,2.17,0,0,1,.85-.65,2.92,2.92,0,0,1,1.2-.23,2.39,2.39,0,0,1,1.61.51,1.83,1.83,0,0,1,.62,1.44v2.61a2.92,2.92,0,0,0,.22,1.25v.09Zm-1.42-.94a1.39,1.39,0,0,0,.72-.19,1.17,1.17,0,0,0,.51-.5v-1.09h-.7a1.87,1.87,0,0,0-1.08.25.81.81,0,0,0-.36.71.76.76,0,0,0,.25.6A.92.92,0,0,0,77.58,163.65Z"/><path class="cls-1" d="M86,156.79l2.23,6,2.23-6h1.73v7.8H90.88V162l.14-3.44-2.29,6h-1l-2.28-6,.13,3.44v2.57H84.29v-7.8Z"/><path class="cls-1" d="M97.17,164a2,2,0,0,1-1.62.68,1.77,1.77,0,0,1-1.41-.56,2.34,2.34,0,0,1-.48-1.59v-3.76H95v3.74c0,.74.3,1.11.91,1.11a1.29,1.29,0,0,0,1.27-.68v-4.17h1.29v5.8H97.2Z"/><path class="cls-1" d="M100.93,158.79l0,.67a2.06,2.06,0,0,1,1.67-.77q1.8,0,1.83,2.07v3.83h-1.29v-3.76a1.17,1.17,0,0,0-.24-.81,1,1,0,0,0-.77-.27,1.26,1.26,0,0,0-1.17.71v4.13H99.71v-5.8Z"/><path class="cls-1" d="M105.79,157.29a.71.71,0,0,1,.18-.5.73.73,0,0,1,.54-.2.74.74,0,0,1,.55.2.74.74,0,0,1,0,1,.74.74,0,0,1-.55.19.73.73,0,0,1-.54-.19A.71.71,0,0,1,105.79,157.29Zm1.37,7.3h-1.29v-5.8h1.29Z"/><path class="cls-1" d="M110.92,163.66a1.18,1.18,0,0,0,.81-.29,1,1,0,0,0,.34-.7h1.21a1.87,1.87,0,0,1-.33,1,2.19,2.19,0,0,1-.85.74,2.58,2.58,0,0,1-1.16.28,2.46,2.46,0,0,1-1.91-.79,3.16,3.16,0,0,1-.71-2.18v-.13a3.08,3.08,0,0,1,.7-2.12,2.42,2.42,0,0,1,1.91-.79,2.34,2.34,0,0,1,1.67.6,2.12,2.12,0,0,1,.68,1.58h-1.21a1.25,1.25,0,0,0-.34-.82,1.1,1.1,0,0,0-.81-.32,1.11,1.11,0,0,0-1,.46,2.29,2.29,0,0,0-.35,1.39v.21a2.33,2.33,0,0,0,.34,1.4A1.13,1.13,0,0,0,110.92,163.66Z"/><path class="cls-1" d="M114.26,157.29a.68.68,0,0,1,.19-.5.7.7,0,0,1,.54-.2.73.73,0,0,1,.54.2.68.68,0,0,1,.19.5.67.67,0,0,1-.19.49.73.73,0,0,1-.54.19.7.7,0,0,1-.54-.19A.67.67,0,0,1,114.26,157.29Zm1.37,7.3h-1.29v-5.8h1.29Z"/><path class="cls-1" d="M122.07,161.75a3.45,3.45,0,0,1-.61,2.15,2.08,2.08,0,0,1-3.13.17v2.75H117v-8h1.19l.06.59a1.89,1.89,0,0,1,1.54-.69,2,2,0,0,1,1.65.79,3.52,3.52,0,0,1,.6,2.19Zm-1.29-.11a2.43,2.43,0,0,0-.34-1.38,1.11,1.11,0,0,0-1-.51,1.16,1.16,0,0,0-1.13.66V163a1.19,1.19,0,0,0,1.14.68,1.13,1.13,0,0,0,1-.5A2.72,2.72,0,0,0,120.78,161.64Z"/><path class="cls-1" d="M126.6,164.59a1.8,1.8,0,0,1-.15-.54,2.15,2.15,0,0,1-2.92.15A1.58,1.58,0,0,1,123,163a1.67,1.67,0,0,1,.68-1.43,3.31,3.31,0,0,1,2-.49h.8v-.38a1,1,0,0,0-.25-.72,1,1,0,0,0-.76-.27,1.13,1.13,0,0,0-.73.22.72.72,0,0,0-.28.56H123.1a1.53,1.53,0,0,1,.31-.89,2.2,2.2,0,0,1,.86-.65,2.92,2.92,0,0,1,1.2-.23,2.41,2.41,0,0,1,1.61.51,1.83,1.83,0,0,1,.62,1.44v2.61a3.09,3.09,0,0,0,.21,1.25v.09Zm-1.42-.94a1.44,1.44,0,0,0,.72-.19,1.29,1.29,0,0,0,.51-.5v-1.09h-.7a1.87,1.87,0,0,0-1.08.25.81.81,0,0,0-.36.71.76.76,0,0,0,.25.6A.92.92,0,0,0,125.18,163.65Z"/><path class="cls-1" d="M130.42,164.59h-1.29v-8.23h1.29Z"/><path class="cls-1" d="M138.7,162.58a.93.93,0,0,0-.35-.79,4.17,4.17,0,0,0-1.3-.57,5.69,5.69,0,0,1-1.49-.63,2,2,0,0,1-1.05-1.74,1.91,1.91,0,0,1,.76-1.56,3.12,3.12,0,0,1,2-.61,3.31,3.31,0,0,1,1.44.3,2.37,2.37,0,0,1,1,.86,2.21,2.21,0,0,1,.36,1.23H138.7a1.21,1.21,0,0,0-.38-1,1.54,1.54,0,0,0-1.08-.35,1.66,1.66,0,0,0-1,.29,1,1,0,0,0-.36.79.86.86,0,0,0,.39.72,4.72,4.72,0,0,0,1.3.55,5.88,5.88,0,0,1,1.45.62,2.24,2.24,0,0,1,.8.79,2.1,2.1,0,0,1,.26,1,1.87,1.87,0,0,1-.74,1.55,3.24,3.24,0,0,1-2,.58,3.77,3.77,0,0,1-1.55-.32,2.56,2.56,0,0,1-1.09-.86,2.19,2.19,0,0,1-.39-1.29h1.34a1.27,1.27,0,0,0,.44,1,1.9,1.9,0,0,0,1.25.36,1.64,1.64,0,0,0,1-.28A.92.92,0,0,0,138.7,162.58Z"/><path class="cls-1" d="M144.59,164a2,2,0,0,1-1.62.68,1.8,1.8,0,0,1-1.42-.56,2.34,2.34,0,0,1-.48-1.59v-3.76h1.29v3.74c0,.74.31,1.11.91,1.11a1.28,1.28,0,0,0,1.27-.68v-4.17h1.29v5.8h-1.21Z"/><path class="cls-1" d="M152.19,161.75a3.56,3.56,0,0,1-.59,2.15,2,2,0,0,1-1.65.8,1.86,1.86,0,0,1-1.57-.74l-.07.63h-1.16v-8.23h1.29v3a1.86,1.86,0,0,1,1.5-.66,2,2,0,0,1,1.65.78,3.57,3.57,0,0,1,.6,2.2Zm-1.29-.11a2.5,2.5,0,0,0-.33-1.42,1.1,1.1,0,0,0-.95-.47,1.2,1.2,0,0,0-1.18.74v2.39a1.21,1.21,0,0,0,1.19.76,1.09,1.09,0,0,0,.93-.46,2.33,2.33,0,0,0,.34-1.38Z"/><path class="cls-1" d="M158.32,162.79l.92-4h1.26l-1.57,5.8h-1.06l-1.24-4-1.21,4h-1.06l-1.57-5.8h1.26l.93,4,1.18-4h1Z"/><path class="cls-1" d="M164.8,164.59a1.8,1.8,0,0,1-.15-.54,2,2,0,0,1-1.51.65,2.05,2.05,0,0,1-1.42-.5,1.6,1.6,0,0,1-.54-1.23,1.67,1.67,0,0,1,.68-1.43,3.31,3.31,0,0,1,1.95-.49h.79v-.38a1,1,0,0,0-.25-.72,1,1,0,0,0-.76-.27,1.12,1.12,0,0,0-.72.22.69.69,0,0,0-.28.56H161.3a1.46,1.46,0,0,1,.31-.89,2.2,2.2,0,0,1,.86-.65,2.92,2.92,0,0,1,1.2-.23,2.41,2.41,0,0,1,1.61.51,1.86,1.86,0,0,1,.62,1.44v2.61a3.09,3.09,0,0,0,.21,1.25v.09Zm-1.42-.94a1.44,1.44,0,0,0,.72-.19,1.2,1.2,0,0,0,.5-.5v-1.09h-.69a1.87,1.87,0,0,0-1.08.25.81.81,0,0,0-.36.71.76.76,0,0,0,.25.6A.92.92,0,0,0,163.38,163.65Z"/><path class="cls-1" d="M169.26,162.72l1.17-3.93h1.37l-2.28,6.68a1.87,1.87,0,0,1-1.79,1.46,2.15,2.15,0,0,1-.62-.1v-1l.25,0a1.23,1.23,0,0,0,.73-.18,1.13,1.13,0,0,0,.39-.6l.19-.5-2-5.77H168Z"/><path class="cls-1" d="M72.67,174.58a8.24,8.24,0,0,1,.33-2.35,6.28,6.28,0,0,1,1-2A3.82,3.82,0,0,1,75.31,169l.26.76a3.94,3.94,0,0,0-1.22,1.75,7.67,7.67,0,0,0-.5,2.69v.46a8.35,8.35,0,0,0,.46,2.89,4.2,4.2,0,0,0,1.27,1.94l-.26.72A3.82,3.82,0,0,1,74,179a6.47,6.47,0,0,1-1-2A8.87,8.87,0,0,1,72.67,174.58Z"/><path class="cls-1" d="M81,170l2.23,6,2.23-6h1.73v7.8H85.87v-2.57l.14-3.44-2.29,6h-1l-2.28-6,.13,3.43v2.57H79.28V170Z"/><path class="cls-1" d="M88.68,170.45a.66.66,0,0,1,.73-.69A.73.73,0,0,1,90,170a.69.69,0,0,1,.19.5.66.66,0,0,1-.19.49.73.73,0,0,1-.54.2.7.7,0,0,1-.54-.2A.66.66,0,0,1,88.68,170.45Zm1.37,7.3H88.76V172h1.29Z"/><path class="cls-1" d="M91.21,174.81a3.47,3.47,0,0,1,.62-2.15,2,2,0,0,1,1.65-.81,1.87,1.87,0,0,1,1.48.64v-3h1.29v8.22H95.08l-.06-.6a1.91,1.91,0,0,1-1.55.71,1.94,1.94,0,0,1-1.63-.82A3.58,3.58,0,0,1,91.21,174.81Zm1.29.11a2.47,2.47,0,0,0,.34,1.38,1.11,1.11,0,0,0,1,.5,1.23,1.23,0,0,0,1.16-.71v-2.48a1.2,1.2,0,0,0-1.15-.69,1.09,1.09,0,0,0-1,.5A2.73,2.73,0,0,0,92.5,174.92Z"/><path class="cls-1" d="M97.36,174.8a3.44,3.44,0,0,1,.33-1.53,2.41,2.41,0,0,1,.94-1.05,2.58,2.58,0,0,1,1.39-.37,2.47,2.47,0,0,1,1.89.76,2.94,2.94,0,0,1,.78,2v.3a3.45,3.45,0,0,1-.33,1.54,2.41,2.41,0,0,1-.93,1,2.65,2.65,0,0,1-1.41.37,2.45,2.45,0,0,1-1.94-.82,3.11,3.11,0,0,1-.73-2.17Zm1.29.11a2.36,2.36,0,0,0,.36,1.4,1.2,1.2,0,0,0,1,.51,1.18,1.18,0,0,0,1-.51,2.65,2.65,0,0,0,.36-1.51,2.31,2.31,0,0,0-.37-1.39,1.21,1.21,0,0,0-1-.52,1.18,1.18,0,0,0-1,.51A2.53,2.53,0,0,0,98.65,174.91Z"/><path class="cls-1" d="M107,176.18a.59.59,0,0,0-.28-.53,3,3,0,0,0-.94-.32,4.73,4.73,0,0,1-1.1-.36,1.47,1.47,0,0,1-1-1.36,1.56,1.56,0,0,1,.63-1.26,2.48,2.48,0,0,1,1.59-.5,2.6,2.6,0,0,1,1.67.51,1.66,1.66,0,0,1,.63,1.34H107a.81.81,0,0,0-.28-.63,1.05,1.05,0,0,0-.73-.24,1.15,1.15,0,0,0-.69.19.64.64,0,0,0-.27.53.53.53,0,0,0,.25.47,3.29,3.29,0,0,0,1,.33,4.93,4.93,0,0,1,1.19.41,1.61,1.61,0,0,1,.64.56,1.41,1.41,0,0,1,.21.79,1.52,1.52,0,0,1-.64,1.27,2.74,2.74,0,0,1-1.68.48,3,3,0,0,1-1.26-.26,2,2,0,0,1-.86-.7,1.67,1.67,0,0,1-.31-1h1.25a1,1,0,0,0,.35.71,1.35,1.35,0,0,0,.84.24,1.32,1.32,0,0,0,.78-.19A.62.62,0,0,0,107,176.18Z"/><path class="cls-1" d="M112.89,177.19a2,2,0,0,1-1.62.67,1.76,1.76,0,0,1-1.41-.55,2.37,2.37,0,0,1-.48-1.6V172h1.29v3.74c0,.73.3,1.1.91,1.1a1.29,1.29,0,0,0,1.27-.68V172h1.29v5.79h-1.22Z"/><path class="cls-1" d="M116.8,172v6.31a1.91,1.91,0,0,1-.44,1.35,1.64,1.64,0,0,1-1.28.47,2.61,2.61,0,0,1-.69-.09v-1a1.66,1.66,0,0,0,.46.05c.43,0,.65-.23.66-.7V172Zm-1.4-1.51a.66.66,0,0,1,.73-.69.73.73,0,0,1,.54.19.69.69,0,0,1,.19.5.66.66,0,0,1-.19.49.73.73,0,0,1-.54.2.7.7,0,0,1-.54-.2A.66.66,0,0,1,115.4,170.45Z"/><path class="cls-1" d="M118.18,170.45a.69.69,0,0,1,.19-.5.71.71,0,0,1,.54-.19.73.73,0,0,1,.54.19.69.69,0,0,1,.19.5.66.66,0,0,1-.19.49.73.73,0,0,1-.54.2.72.72,0,0,1-.54-.2A.66.66,0,0,1,118.18,170.45Zm1.37,7.3h-1.29V172h1.29Z"/><path class="cls-1" d="M125.14,176.67h3.51v1.08h-4.86V170h1.35Z"/><path class="cls-1" d="M129.56,170.45a.77.77,0,0,1,1.27-.5.74.74,0,0,1,.19.5.7.7,0,0,1-.19.49.74.74,0,0,1-.55.2.73.73,0,0,1-.54-.2A.69.69,0,0,1,129.56,170.45Zm1.37,7.3h-1.29V172h1.29Z"/><path class="cls-1" d="M133.53,172l0,.67a2,2,0,0,1,1.67-.78q1.8,0,1.83,2.07v3.83h-1.29V174a1.2,1.2,0,0,0-.24-.82,1,1,0,0,0-.77-.26,1.25,1.25,0,0,0-1.17.71v4.12h-1.29V172Z"/><path class="cls-1" d="M140.92,177.86a2.68,2.68,0,0,1-2-.78,2.88,2.88,0,0,1-.76-2.08v-.16a3.43,3.43,0,0,1,.34-1.55,2.53,2.53,0,0,1,.93-1.06,2.46,2.46,0,0,1,1.34-.38,2.23,2.23,0,0,1,1.81.76,3.17,3.17,0,0,1,.64,2.13v.53h-3.76a1.73,1.73,0,0,0,.48,1.13,1.42,1.42,0,0,0,1.05.42,1.74,1.74,0,0,0,1.44-.72l.7.67a2.38,2.38,0,0,1-.92.8A2.91,2.91,0,0,1,140.92,177.86Zm-.16-5a1.1,1.1,0,0,0-.86.38,1.94,1.94,0,0,0-.41,1H142v-.09a1.6,1.6,0,0,0-.35-1A1.08,1.08,0,0,0,140.76,172.89Z"/><path class="cls-1" d="M149.42,174.67a8.28,8.28,0,0,1-.32,2.29,6.67,6.67,0,0,1-1,2,3.93,3.93,0,0,1-1.37,1.25l-.26-.72a4.12,4.12,0,0,0,1.26-1.9,8.48,8.48,0,0,0,.47-2.92v-.12a8.56,8.56,0,0,0-.41-2.71,4.76,4.76,0,0,0-1.15-2l-.17-.14.26-.73a3.72,3.72,0,0,1,1.31,1.18,6.07,6.07,0,0,1,1,1.89,7.91,7.91,0,0,1,.39,2.16Z"/><rect class="cls-3" x="42.41" y="189.59" width="137.28" height="31.46"/><path class="cls-1" d="M92.49,199l-.88.94v2.43H90.26v-7.8h1.35v3.66l.74-.93,2.27-2.73h1.62L93.37,198l3,4.35h-1.6Z"/><path class="cls-1" d="M97,195a.68.68,0,0,1,.19-.5.83.83,0,0,1,1.08,0,.68.68,0,0,1,.19.5.67.67,0,0,1-.19.49.86.86,0,0,1-1.08,0A.67.67,0,0,1,97,195Zm1.37,7.3H97.08v-5.8h1.29Z"/><path class="cls-1" d="M101,196.54l0,.67a2.08,2.08,0,0,1,1.68-.78c1.19,0,1.8.69,1.82,2.08v3.83h-1.29v-3.76a1.21,1.21,0,0,0-.23-.81,1,1,0,0,0-.78-.27,1.24,1.24,0,0,0-1.16.71v4.13H99.76v-5.8Z"/><path class="cls-1" d="M107.45,195.13v1.41h1v1h-1v3.23a.71.71,0,0,0,.13.48.58.58,0,0,0,.46.15,1.74,1.74,0,0,0,.45-.06v1a3.17,3.17,0,0,1-.85.12c-1,0-1.48-.55-1.48-1.65v-3.28h-1v-1h1v-1.41Z"/><path class="cls-1" d="M112,202.44a2.69,2.69,0,0,1-2-.77,2.85,2.85,0,0,1-.76-2.08v-.16a3.5,3.5,0,0,1,.33-1.55,2.56,2.56,0,0,1,.93-1.07,2.49,2.49,0,0,1,1.34-.38,2.25,2.25,0,0,1,1.81.76,3.2,3.2,0,0,1,.64,2.14v.52h-3.75A1.8,1.8,0,0,0,111,201a1.42,1.42,0,0,0,1,.42,1.76,1.76,0,0,0,1.45-.73l.69.67a2.26,2.26,0,0,1-.92.81A2.84,2.84,0,0,1,112,202.44Zm-.16-5a1.06,1.06,0,0,0-.85.37,1.94,1.94,0,0,0-.42,1.05H113v-.1a1.59,1.59,0,0,0-.35-1A1.08,1.08,0,0,0,111.82,197.48Z"/><path class="cls-1" d="M116.9,195.13v1.41h1v1h-1v3.23a.76.76,0,0,0,.13.48.62.62,0,0,0,.47.15,1.74,1.74,0,0,0,.45-.06v1a3.23,3.23,0,0,1-.85.12c-1,0-1.49-.55-1.49-1.65v-3.28h-.94v-1h.94v-1.41Z"/><path class="cls-1" d="M122.13,200.76a.6.6,0,0,0-.29-.53,3,3,0,0,0-.94-.32,4.75,4.75,0,0,1-1.1-.35,1.48,1.48,0,0,1-1-1.37,1.53,1.53,0,0,1,.63-1.25,2.45,2.45,0,0,1,1.59-.51,2.58,2.58,0,0,1,1.67.52,1.64,1.64,0,0,1,.63,1.33h-1.29a.8.8,0,0,0-.27-.62,1.05,1.05,0,0,0-.74-.25,1.09,1.09,0,0,0-.69.2.62.62,0,0,0-.27.53.51.51,0,0,0,.25.46,3.33,3.33,0,0,0,1,.34,4.44,4.44,0,0,1,1.19.4,1.73,1.73,0,0,1,.65.56,1.43,1.43,0,0,1,.21.79,1.52,1.52,0,0,1-.65,1.27,2.74,2.74,0,0,1-1.68.48,3,3,0,0,1-1.26-.25,2,2,0,0,1-.86-.71,1.65,1.65,0,0,1-.31-1h1.25a.94.94,0,0,0,.35.71,1.58,1.58,0,0,0,1.62.05A.6.6,0,0,0,122.13,200.76Z"/><path class="cls-1" d="M128,201.77a2,2,0,0,1-1.61.67,1.77,1.77,0,0,1-1.42-.55,2.36,2.36,0,0,1-.48-1.59v-3.76h1.29v3.74c0,.74.3,1.1.91,1.1a1.26,1.26,0,0,0,1.27-.68v-4.16h1.29v5.8H128Z"/><path class="cls-1" d="M75.06,215.5H73.71L70.27,210v5.53H68.92v-7.8h1.35l3.45,5.56V207.7h1.34Z"/><path class="cls-1" d="M80,215.5a1.8,1.8,0,0,1-.15-.54,2,2,0,0,1-1.51.65,2.05,2.05,0,0,1-1.42-.5,1.6,1.6,0,0,1-.54-1.23,1.65,1.65,0,0,1,.68-1.42,3.3,3.3,0,0,1,2-.5h.79v-.38a1,1,0,0,0-.25-.72,1,1,0,0,0-.76-.27,1.12,1.12,0,0,0-.72.22.69.69,0,0,0-.28.57H76.46a1.47,1.47,0,0,1,.31-.9,2.2,2.2,0,0,1,.86-.65,3.09,3.09,0,0,1,1.2-.23,2.41,2.41,0,0,1,1.61.51,1.83,1.83,0,0,1,.62,1.44v2.61a3.09,3.09,0,0,0,.21,1.25v.09Zm-1.42-.94a1.54,1.54,0,0,0,.72-.18,1.29,1.29,0,0,0,.5-.51v-1.09h-.69A1.87,1.87,0,0,0,78,213a.83.83,0,0,0-.36.71.76.76,0,0,0,.25.6A.92.92,0,0,0,78.54,214.56Z"/><path class="cls-1" d="M83.62,209.71l0,.6a2.08,2.08,0,0,1,1.66-.71,1.56,1.56,0,0,1,1.57.89,2,2,0,0,1,1.77-.89,1.79,1.79,0,0,1,1.41.53,2.34,2.34,0,0,1,.48,1.56v3.81H89.26v-3.77a1.15,1.15,0,0,0-.24-.81,1.26,1.26,0,0,0-1.51,0,1.21,1.21,0,0,0-.39.63v4H85.83v-3.81a.92.92,0,0,0-1-1,1.14,1.14,0,0,0-1.1.64v4.2H82.41v-5.79Z"/><path class="cls-1" d="M96.92,212.66a3.49,3.49,0,0,1-.6,2.15,1.94,1.94,0,0,1-1.64.8,1.85,1.85,0,0,1-1.57-.74l-.07.63H91.87v-8.23h1.29v3a1.89,1.89,0,0,1,1.51-.66,2,2,0,0,1,1.65.79,3.53,3.53,0,0,1,.6,2.2Zm-1.29-.11a2.45,2.45,0,0,0-.33-1.41,1.09,1.09,0,0,0-1-.48,1.21,1.21,0,0,0-1.18.74v2.39a1.21,1.21,0,0,0,1.19.76,1.08,1.08,0,0,0,.94-.46,2.4,2.4,0,0,0,.34-1.37Z"/><path class="cls-1" d="M101.43,215.5a2.25,2.25,0,0,1-.14-.54,2,2,0,0,1-1.51.65,2.05,2.05,0,0,1-1.42-.5,1.6,1.6,0,0,1-.54-1.23,1.65,1.65,0,0,1,.68-1.42,3.3,3.3,0,0,1,2-.5h.79v-.38a1,1,0,0,0-.25-.72,1,1,0,0,0-.76-.27,1.12,1.12,0,0,0-.72.22.69.69,0,0,0-.28.57H97.94a1.47,1.47,0,0,1,.31-.9,2.2,2.2,0,0,1,.86-.65,3.06,3.06,0,0,1,1.2-.23,2.41,2.41,0,0,1,1.61.51,1.86,1.86,0,0,1,.62,1.44v2.61a3.09,3.09,0,0,0,.21,1.25v.09Zm-1.41-.94a1.54,1.54,0,0,0,.72-.18,1.29,1.29,0,0,0,.5-.51v-1.09h-.69a1.87,1.87,0,0,0-1.08.25.83.83,0,0,0-.36.71.76.76,0,0,0,.25.6A.92.92,0,0,0,100,214.56Z"/><path class="cls-1" d="M104.25,216.17h-1l3-8.47h1Z"/><path class="cls-1" d="M114.45,215.5h-1.34L109.66,210v5.53h-1.34v-7.8h1.34l3.46,5.56V207.7h1.33Z"/><path class="cls-1" d="M119.35,215.5a1.8,1.8,0,0,1-.15-.54,2,2,0,0,1-1.51.65,2,2,0,0,1-1.41-.5,1.58,1.58,0,0,1-.55-1.23,1.64,1.64,0,0,1,.69-1.42,3.26,3.26,0,0,1,2-.5h.79v-.38a1,1,0,0,0-.25-.72,1,1,0,0,0-.76-.27,1.11,1.11,0,0,0-.72.22.69.69,0,0,0-.28.57h-1.3a1.48,1.48,0,0,1,.32-.9,2.17,2.17,0,0,1,.85-.65,3.09,3.09,0,0,1,1.2-.23,2.39,2.39,0,0,1,1.61.51,1.83,1.83,0,0,1,.62,1.44v2.61a2.92,2.92,0,0,0,.22,1.25v.09Zm-1.42-.94a1.48,1.48,0,0,0,.72-.18,1.25,1.25,0,0,0,.51-.51v-1.09h-.7a1.9,1.9,0,0,0-1.08.25.83.83,0,0,0-.36.71.79.79,0,0,0,.25.6A.94.94,0,0,0,117.93,214.56Z"/><path class="cls-1" d="M124.81,210.89a4.38,4.38,0,0,0-.52,0,1.18,1.18,0,0,0-1.2.69v4H121.8v-5.79H123l0,.64a1.47,1.47,0,0,1,1.3-.75,1.24,1.24,0,0,1,.46.07Z"/><path class="cls-1" d="M128.9,215.5a2.71,2.71,0,0,1-.15-.54,2,2,0,0,1-1.5.65,2.05,2.05,0,0,1-1.42-.5,1.6,1.6,0,0,1-.54-1.23,1.63,1.63,0,0,1,.68-1.42,3.26,3.26,0,0,1,2-.5h.79v-.38a1,1,0,0,0-.25-.72,1,1,0,0,0-.76-.27,1.12,1.12,0,0,0-.72.22.69.69,0,0,0-.28.57h-1.29a1.47,1.47,0,0,1,.31-.9,2.17,2.17,0,0,1,.85-.65,3.11,3.11,0,0,1,1.21-.23,2.41,2.41,0,0,1,1.61.51,1.82,1.82,0,0,1,.61,1.44v2.61a3.08,3.08,0,0,0,.22,1.25v.09Zm-1.42-.94a1.48,1.48,0,0,0,.72-.18,1.25,1.25,0,0,0,.51-.51v-1.09H128a1.87,1.87,0,0,0-1.08.25.83.83,0,0,0-.36.71.78.78,0,0,0,.24.6A1,1,0,0,0,127.48,214.56Z"/><path class="cls-1" d="M135.53,214.42h3.52v1.08h-4.86v-7.8h1.34Z"/><path class="cls-1" d="M140,208.2a.72.72,0,0,1,.19-.5.73.73,0,0,1,.54-.2.7.7,0,0,1,.54.2.68.68,0,0,1,.19.5.66.66,0,0,1-.19.49.7.7,0,0,1-.54.2.73.73,0,0,1-.54-.2A.7.7,0,0,1,140,208.2Zm1.37,7.3H140v-5.79h1.29Z"/><path class="cls-1" d="M143.93,209.71l0,.67a2.08,2.08,0,0,1,1.68-.78c1.2,0,1.8.69,1.82,2.07v3.83h-1.29v-3.75a1.2,1.2,0,0,0-.23-.82,1,1,0,0,0-.77-.27,1.25,1.25,0,0,0-1.17.72v4.12h-1.29v-5.79Z"/><path class="cls-1" d="M151.31,215.61a2.66,2.66,0,0,1-2-.78,2.83,2.83,0,0,1-.76-2.08v-.16a3.53,3.53,0,0,1,.33-1.55,2.53,2.53,0,0,1,.93-1.06,2.41,2.41,0,0,1,1.34-.38,2.26,2.26,0,0,1,1.82.75,3.27,3.27,0,0,1,.64,2.14V213h-3.76a1.75,1.75,0,0,0,.48,1.13,1.41,1.41,0,0,0,1,.42,1.74,1.74,0,0,0,1.44-.72l.7.67a2.38,2.38,0,0,1-.92.8A2.92,2.92,0,0,1,151.31,215.61Zm-.15-5a1.09,1.09,0,0,0-.86.38,1.94,1.94,0,0,0-.42,1h2.46V212a1.6,1.6,0,0,0-.34-1A1.05,1.05,0,0,0,151.16,210.64Z"/><rect class="cls-3" x="42.41" y="114.09" width="137.28" height="31.46"/><path class="cls-1" d="M58.55,125.33h1.34v5.47a2.35,2.35,0,0,1-.7,1.78,2.54,2.54,0,0,1-1.83.66,2.64,2.64,0,0,1-1.87-.62,2.22,2.22,0,0,1-.66-1.71h1.34a1.26,1.26,0,0,0,.31.93,1.17,1.17,0,0,0,.88.32,1.06,1.06,0,0,0,.86-.37,1.41,1.41,0,0,0,.33-1Z"/><path class="cls-1" d="M64.26,130.13H62.77v3H61.42v-7.8h2.72a3.19,3.19,0,0,1,2.07.61,2.16,2.16,0,0,1,.73,1.75,2.21,2.21,0,0,1-.38,1.31,2.43,2.43,0,0,1-1,.81l1.73,3.25v.07H65.81ZM62.77,129h1.38a1.54,1.54,0,0,0,1.06-.35,1.21,1.21,0,0,0,.38-.94,1.31,1.31,0,0,0-.35-1,1.47,1.47,0,0,0-1.06-.35H62.77Z"/><path class="cls-1" d="M76.19,126.43H73.78v6.7H72.44v-6.7H70.05v-1.1h6.14Z"/><path class="cls-1" d="M75.73,130.18a3.31,3.31,0,0,1,.34-1.53A2.35,2.35,0,0,1,77,127.6a2.58,2.58,0,0,1,1.39-.37,2.5,2.5,0,0,1,1.89.75,3,3,0,0,1,.78,2v.3a3.48,3.48,0,0,1-.33,1.54,2.54,2.54,0,0,1-.93,1,2.65,2.65,0,0,1-1.41.37,2.48,2.48,0,0,1-2-.82,3.16,3.16,0,0,1-.73-2.17Zm1.29.11a2.35,2.35,0,0,0,.37,1.4,1.19,1.19,0,0,0,1,.51,1.18,1.18,0,0,0,1-.51,2.65,2.65,0,0,0,.36-1.51,2.29,2.29,0,0,0-.37-1.39,1.21,1.21,0,0,0-1-.52,1.16,1.16,0,0,0-1,.51A2.53,2.53,0,0,0,77,130.29Z"/><path class="cls-1" d="M84,130.65l-.58.59v1.89H82.17V124.9h1.29v4.75l.41-.51,1.59-1.8H87l-2.14,2.41,2.37,3.38h-1.5Z"/><path class="cls-1" d="M91.28,133.13a2.71,2.71,0,0,1-.15-.54,2,2,0,0,1-1.5.65,2.05,2.05,0,0,1-1.42-.5,1.6,1.6,0,0,1-.54-1.23,1.63,1.63,0,0,1,.68-1.42,3.26,3.26,0,0,1,2-.5h.79v-.38a1,1,0,0,0-.25-.72,1,1,0,0,0-.76-.27,1.12,1.12,0,0,0-.72.22.69.69,0,0,0-.28.57H87.79a1.42,1.42,0,0,1,.31-.89,2.1,2.1,0,0,1,.85-.66,3.11,3.11,0,0,1,1.21-.23,2.41,2.41,0,0,1,1.61.51,1.82,1.82,0,0,1,.61,1.44v2.61A3.08,3.08,0,0,0,92.6,133v.09Zm-1.41-.94a1.54,1.54,0,0,0,.72-.18,1.29,1.29,0,0,0,.5-.51v-1.09H90.4a2,2,0,0,0-1.08.25.83.83,0,0,0-.36.72.78.78,0,0,0,.24.59A1,1,0,0,0,89.87,132.19Z"/><path class="cls-1" d="M93.74,125.83a.68.68,0,0,1,.19-.5.7.7,0,0,1,.54-.2.73.73,0,0,1,.54.2.68.68,0,0,1,.19.5.66.66,0,0,1-.19.49.73.73,0,0,1-.54.2.7.7,0,0,1-.54-.2A.66.66,0,0,1,93.74,125.83Zm1.37,7.3H93.82v-5.79h1.29Z"/><path class="cls-1" d="M96.27,130.19a3.47,3.47,0,0,1,.62-2.15,2,2,0,0,1,1.65-.81,1.87,1.87,0,0,1,1.48.64v-3h1.29v8.23h-1.17l-.06-.6a2,2,0,0,1-3.18-.11A3.58,3.58,0,0,1,96.27,130.19Zm1.29.11a2.47,2.47,0,0,0,.34,1.38,1.11,1.11,0,0,0,1,.5,1.23,1.23,0,0,0,1.16-.71V129a1.21,1.21,0,0,0-1.15-.7,1.1,1.1,0,0,0-1,.51A2.73,2.73,0,0,0,97.56,130.3Z"/><path class="cls-1" d="M102.41,130.18a3.44,3.44,0,0,1,.34-1.53,2.41,2.41,0,0,1,.94-1.05,2.58,2.58,0,0,1,1.39-.37A2.5,2.5,0,0,1,107,128a3,3,0,0,1,.78,2v.3a3.48,3.48,0,0,1-.33,1.54,2.54,2.54,0,0,1-.93,1,2.65,2.65,0,0,1-1.41.37,2.48,2.48,0,0,1-2-.82,3.16,3.16,0,0,1-.73-2.17Zm1.3.11a2.36,2.36,0,0,0,.36,1.4,1.2,1.2,0,0,0,1,.51,1.18,1.18,0,0,0,1-.51,2.65,2.65,0,0,0,.36-1.51,2.29,2.29,0,0,0-.37-1.39,1.21,1.21,0,0,0-1-.52,1.16,1.16,0,0,0-1,.51A2.53,2.53,0,0,0,103.71,130.29Z"/><path class="cls-1" d="M115.73,131.12a1,1,0,0,0-.36-.79,4.24,4.24,0,0,0-1.29-.56,6.28,6.28,0,0,1-1.49-.63,2,2,0,0,1-1.06-1.75,1.91,1.91,0,0,1,.76-1.55,3.06,3.06,0,0,1,2-.61,3.31,3.31,0,0,1,1.44.3,2.44,2.44,0,0,1,1,.85,2.21,2.21,0,0,1,.36,1.23h-1.34a1.24,1.24,0,0,0-.38-1,1.58,1.58,0,0,0-1.09-.34,1.61,1.61,0,0,0-1,.28,1,1,0,0,0-.36.79.86.86,0,0,0,.39.72,4.47,4.47,0,0,0,1.29.56,5.74,5.74,0,0,1,1.45.61,2.3,2.3,0,0,1,.81.8,2,2,0,0,1,.25,1,1.84,1.84,0,0,1-.74,1.55,3.14,3.14,0,0,1-2,.58,3.88,3.88,0,0,1-1.54-.31,2.61,2.61,0,0,1-1.1-.87,2.18,2.18,0,0,1-.39-1.28h1.35a1.25,1.25,0,0,0,.43,1,1.87,1.87,0,0,0,1.25.37,1.62,1.62,0,0,0,1.05-.29A.92.92,0,0,0,115.73,131.12Z"/><path class="cls-1" d="M119.4,128a2,2,0,0,1,1.6-.74c1.22,0,1.85.7,1.86,2.11v3.79h-1.29v-3.74a1.17,1.17,0,0,0-.25-.85,1.1,1.1,0,0,0-.76-.25,1.25,1.25,0,0,0-1.16.7v4.14h-1.29V124.9h1.29Z"/><path class="cls-1" d="M124.17,125.83a.68.68,0,0,1,.19-.5.7.7,0,0,1,.54-.2.73.73,0,0,1,.54.2.68.68,0,0,1,.19.5.66.66,0,0,1-.19.49.73.73,0,0,1-.54.2.7.7,0,0,1-.54-.2A.66.66,0,0,1,124.17,125.83Zm1.37,7.3h-1.29v-5.79h1.29Z"/><path class="cls-1" d="M128.14,127.34l0,.67a2.08,2.08,0,0,1,1.68-.78c1.19,0,1.8.69,1.82,2.07v3.83h-1.29v-3.75a1.25,1.25,0,0,0-.23-.82,1,1,0,0,0-.78-.27,1.23,1.23,0,0,0-1.16.72v4.12h-1.29v-5.79Z"/><path class="cls-1" d="M134.87,130.65l-.58.59v1.89H133V124.9h1.29v4.75l.4-.51,1.59-1.8h1.56l-2.14,2.41,2.36,3.38h-1.49Z"/><path class="cls-1" d="M142.11,133.13a2.16,2.16,0,0,1-.15-.54,2,2,0,0,1-1.51.65,2,2,0,0,1-1.41-.5,1.61,1.61,0,0,1-.55-1.23,1.64,1.64,0,0,1,.69-1.42,3.26,3.26,0,0,1,1.95-.5h.79v-.38a1,1,0,0,0-.25-.72,1,1,0,0,0-.76-.27,1.12,1.12,0,0,0-.72.22.69.69,0,0,0-.28.57h-1.29a1.42,1.42,0,0,1,.31-.89,2.1,2.1,0,0,1,.85-.66,3.11,3.11,0,0,1,1.21-.23,2.41,2.41,0,0,1,1.61.51,1.82,1.82,0,0,1,.61,1.44v2.61a2.92,2.92,0,0,0,.22,1.25v.09Zm-1.42-.94a1.48,1.48,0,0,0,.72-.18,1.25,1.25,0,0,0,.51-.51v-1.09h-.7a1.94,1.94,0,0,0-1.07.25.83.83,0,0,0-.36.72.78.78,0,0,0,.24.59A1,1,0,0,0,140.69,132.19Z"/><path class="cls-1" d="M145.76,127.34l0,.67a2,2,0,0,1,1.67-.78q1.8,0,1.83,2.07v3.83H148v-3.75a1.2,1.2,0,0,0-.24-.82,1,1,0,0,0-.77-.27,1.23,1.23,0,0,0-1.16.72v4.12h-1.29v-5.79Z"/><path class="cls-1" d="M153.84,131.56a.6.6,0,0,0-.29-.53,3,3,0,0,0-.94-.32,4.73,4.73,0,0,1-1.1-.36,1.48,1.48,0,0,1-1-1.36,1.56,1.56,0,0,1,.63-1.26,2.5,2.5,0,0,1,1.59-.5,2.58,2.58,0,0,1,1.67.51,1.66,1.66,0,0,1,.63,1.34h-1.29a.83.83,0,0,0-.27-.63,1.1,1.1,0,0,0-.74-.25,1.15,1.15,0,0,0-.69.2.62.62,0,0,0-.27.53.53.53,0,0,0,.25.47,3.4,3.4,0,0,0,1,.33,5.28,5.28,0,0,1,1.19.4,1.82,1.82,0,0,1,.65.56,1.47,1.47,0,0,1,.21.8,1.5,1.5,0,0,1-.65,1.26,2.66,2.66,0,0,1-1.68.49,3,3,0,0,1-1.26-.26,2,2,0,0,1-.86-.71,1.64,1.64,0,0,1-.31-1h1.26a.88.88,0,0,0,.34.7,1.32,1.32,0,0,0,.85.25,1.29,1.29,0,0,0,.77-.19A.6.6,0,0,0,153.84,131.56Z"/><path class="cls-1" d="M158.76,133.24a2.66,2.66,0,0,1-2-.78,2.83,2.83,0,0,1-.76-2.08v-.16a3.53,3.53,0,0,1,.33-1.55,2.53,2.53,0,0,1,.93-1.06,2.49,2.49,0,0,1,1.34-.38,2.26,2.26,0,0,1,1.82.75,3.27,3.27,0,0,1,.64,2.14v.53h-3.76a1.75,1.75,0,0,0,.48,1.13,1.42,1.42,0,0,0,1.05.42,1.74,1.74,0,0,0,1.44-.72l.7.67a2.38,2.38,0,0,1-.92.8A2.92,2.92,0,0,1,158.76,133.24Zm-.15-5a1.09,1.09,0,0,0-.86.38,1.94,1.94,0,0,0-.42,1h2.46v-.09a1.6,1.6,0,0,0-.34-1A1.05,1.05,0,0,0,158.61,128.27Z"/><path class="cls-1" d="M163.27,127.34l0,.67a2.08,2.08,0,0,1,1.68-.78c1.19,0,1.8.69,1.82,2.07v3.83h-1.29v-3.75a1.2,1.2,0,0,0-.23-.82,1,1,0,0,0-.78-.27,1.24,1.24,0,0,0-1.16.72v4.12h-1.29v-5.79Z"/></g><g id="Getting_There_Title" data-name="Getting There Title"><rect class="cls-2" width="599.49" height="64.82"/><path class="cls-1" d="M173.91,36.85a5.49,5.49,0,0,1-2.43,1.61A9.94,9.94,0,0,1,168,39a6.84,6.84,0,0,1-3.52-.89,5.88,5.88,0,0,1-2.34-2.56,9.17,9.17,0,0,1-.85-4V30.57a9.67,9.67,0,0,1,.79-4,5.77,5.77,0,0,1,2.25-2.61,7.36,7.36,0,0,1,7.75.41,5.67,5.67,0,0,1,1.84,3.86h-3.1a3.16,3.16,0,0,0-.94-2,3,3,0,0,0-2-.62,2.81,2.81,0,0,0-2.47,1.23,6.48,6.48,0,0,0-.86,3.67v1a6.16,6.16,0,0,0,.92,3.7,3.15,3.15,0,0,0,2.71,1.26,3.48,3.48,0,0,0,2.56-.78V33h-2.9V30.63h6.09Z"/><path class="cls-1" d="M186,32.06h-6.12v4.18h7.18v2.58H176.73V23.22h10.35v2.61h-7.16v3.71H186Z"/><path class="cls-1" d="M201.12,25.83h-4.74v13h-3.19v-13h-4.67V23.22h12.6Z"/><path class="cls-1" d="M215.12,25.83h-4.74v13h-3.19v-13h-4.67V23.22h12.6Z"/><path class="cls-1" d="M220.28,38.82h-3.19V23.22h3.19Z"/><path class="cls-1" d="M236,38.82h-3.19l-6.2-10.26V38.82H223.4V23.22h3.19l6.21,10.29V23.22H236Z"/><path class="cls-1" d="M251.14,36.85a5.58,5.58,0,0,1-2.44,1.61,9.93,9.93,0,0,1-3.48.58,6.88,6.88,0,0,1-3.53-.89,5.88,5.88,0,0,1-2.34-2.56,9,9,0,0,1-.84-4V30.57a9.67,9.67,0,0,1,.78-4,5.77,5.77,0,0,1,2.25-2.61A6.39,6.39,0,0,1,245,23a6.46,6.46,0,0,1,4.31,1.32,5.76,5.76,0,0,1,1.84,3.86H248a3.11,3.11,0,0,0-.94-2,3,3,0,0,0-2-.62,2.82,2.82,0,0,0-2.48,1.23,6.65,6.65,0,0,0-.86,3.67v1a6.23,6.23,0,0,0,.92,3.7,3.17,3.17,0,0,0,2.72,1.26,3.5,3.5,0,0,0,2.56-.78V33h-2.9V30.63h6.09Z"/><path class="cls-1" d="M271,25.83h-4.74v13h-3.19v-13H258.4V23.22H271Z"/><path class="cls-1" d="M285.26,31.38a9.49,9.49,0,0,1-.81,4,6.11,6.11,0,0,1-2.31,2.67,6.76,6.76,0,0,1-6.88,0,6.17,6.17,0,0,1-2.34-2.67,9.28,9.28,0,0,1-.84-4v-.77a9.54,9.54,0,0,1,.82-4.05A6.16,6.16,0,0,1,275.23,24a6.76,6.76,0,0,1,6.88,0,6.16,6.16,0,0,1,2.33,2.69,9.34,9.34,0,0,1,.82,4ZM282,30.67a6.63,6.63,0,0,0-.87-3.73,3.07,3.07,0,0,0-5,0,6.56,6.56,0,0,0-.88,3.69v.76a6.66,6.66,0,0,0,.87,3.7,3,3,0,0,0,5,.05,6.69,6.69,0,0,0,.87-3.7Z"/><path class="cls-1" d="M304.86,25.83h-4.74v13h-3.18v-13h-4.68V23.22h12.6Z"/><path class="cls-1" d="M319.32,38.82h-3.19V32.14h-6.21v6.68h-3.19V23.22h3.19v6.32h6.21V23.22h3.19Z"/><path class="cls-1" d="M331.67,32.06h-6.12v4.18h7.18v2.58H322.36V23.22h10.35v2.61h-7.16v3.71h6.12Z"/><path class="cls-1" d="M348.27,34.73a1.65,1.65,0,0,0-.64-1.4,8.4,8.4,0,0,0-2.29-1,15.92,15.92,0,0,1-2.63-1.06,4.33,4.33,0,0,1-2.64-3.87,3.79,3.79,0,0,1,.71-2.25,4.62,4.62,0,0,1,2-1.55,7.6,7.6,0,0,1,3-.56,6.84,6.84,0,0,1,3,.61,4.74,4.74,0,0,1,2,1.7,4.52,4.52,0,0,1,.72,2.51h-3.19a2.08,2.08,0,0,0-.67-1.66,2.72,2.72,0,0,0-1.88-.6,2.94,2.94,0,0,0-1.82.5,1.58,1.58,0,0,0-.65,1.31,1.54,1.54,0,0,0,.76,1.28,8.66,8.66,0,0,0,2.24,1,9.52,9.52,0,0,1,4,2.05,4.09,4.09,0,0,1,1.25,3A3.75,3.75,0,0,1,350,37.88,6.62,6.62,0,0,1,345.86,39a7.88,7.88,0,0,1-3.26-.66,5.13,5.13,0,0,1-2.23-1.81,4.59,4.59,0,0,1-.77-2.65h3.2q0,2.58,3.06,2.58a3,3,0,0,0,1.77-.47A1.5,1.5,0,0,0,348.27,34.73Z"/><path class="cls-1" d="M365.47,25.83h-4.74v13h-3.18v-13h-4.68V23.22h12.6Z"/><path class="cls-1" d="M374.35,35.61h-5.59l-1.07,3.21H364.3l5.76-15.6h3l5.79,15.6h-3.39ZM369.62,33h3.87l-1.95-5.84Z"/><path class="cls-1" d="M380.49,38.82V23.22h4.76a7.15,7.15,0,0,1,3.65.93,6.48,6.48,0,0,1,2.52,2.64,8.19,8.19,0,0,1,.9,3.88v.72a8.24,8.24,0,0,1-.89,3.87,6.38,6.38,0,0,1-2.5,2.62,7.19,7.19,0,0,1-3.65.94Zm3.19-13V36.24h1.54A3.45,3.45,0,0,0,388.08,35a5.64,5.64,0,0,0,1-3.53v-.82a5.71,5.71,0,0,0-1-3.61,3.45,3.45,0,0,0-2.86-1.22Z"/><path class="cls-1" d="M398.08,38.82h-3.19V23.22h3.19Z"/><path class="cls-1" d="M413,23.22V33.5a5.32,5.32,0,0,1-1.58,4,7.1,7.1,0,0,1-8.65,0,5.19,5.19,0,0,1-1.63-4V23.22h3.19v10.3a3,3,0,0,0,.73,2.23,2.77,2.77,0,0,0,2,.71c1.8,0,2.71-1,2.74-2.85V23.22Z"/><path class="cls-1" d="M420.05,23.22l4,11.32,4-11.32h4.19v15.6H429V34.56l.32-7.36-4.18,11.62h-2.19l-4.17-11.61.32,7.35v4.26h-3.19V23.22Z"/></g><polyline class="cls-4" points="111.32 239.48 111.32 340.2 453.32 340.2 453.32 315.27"/></g></g></g></svg>