<svg xmlns="http://www.w3.org/2000/svg" viewBox="0 0 600 405"><defs><style>.cls-1{fill:#fff;}.cls-2{fill:#6678a8;}.cls-3{fill:#65a4c3;}.cls-4{fill:none;stroke:#b4d9b9;stroke-miterlimit:10;stroke-width:2px;}.cls-5{fill:#b4d9b9;}</style></defs><title>Kamaishi</title><g id="Layer_2" data-name="Layer 2"><g id="Layer_1-2" data-name="Layer 1"><g id="Kamaishi"><g id="box"><rect class="cls-1" width="600" height="404.86"/></g><g id="Name_of_Stadium" data-name="Name of Stadium"><rect class="cls-2" x="0.02" y="340.02" width="599.95" height="64.98"/><path class="cls-1" d="M154.55,363.26v-4.52h1a5.19,5.19,0,0,0,3.71-1.55,5.28,5.28,0,0,0,1.53-3.74,1.05,1.05,0,0,0-1.05-1.06H153.5a1.05,1.05,0,0,0-1.05,1.06v9.25a70.24,70.24,0,0,0-10.94-1.58c-2-.15-4.07-.23-6.15-.25v-4.25h1a5.19,5.19,0,0,0,3.71-1.55,5.28,5.28,0,0,0,1.53-3.74,1,1,0,0,0-1-1.06h-6.3a1.05,1.05,0,0,0-1,1.06v9.54c-2.08,0-4.14.1-6.15.25a70.56,70.56,0,0,0-11,1.58v-4h1a5.19,5.19,0,0,0,3.71-1.55,5.29,5.29,0,0,0,1.54-3.74,1.05,1.05,0,0,0-1-1.06h-6.29a1.05,1.05,0,0,0-1,1.06v9.81c-4.39,1.32-6.61,3-6.61,5v19.07c0,1.61,1.43,3,4.24,4.18,4.52,1.88,11.33,2.72,16.25,3,2.08.13,4.22.2,6.35.2s4.28-.07,6.36-.2c4.86-.31,11.71-1.16,16.25-3,2.81-1.16,4.24-2.57,4.24-4.18V368.27C161.16,366.26,158.94,364.58,154.55,363.26Zm0-8.76h4a3.17,3.17,0,0,1-.75,1.19,3.09,3.09,0,0,1-2.22.93h-1Zm-19.19-2.11h4a3.32,3.32,0,0,1-.74,1.18,3.13,3.13,0,0,1-2.23.93h-1Zm-19.19,2.11h4a3.14,3.14,0,0,1-3,2.12h-1ZM142,363.28a69.18,69.18,0,0,1,9.3,1.33L146.67,368c-2.16-.3-4.66-.52-7.32-.64Zm-7.71-.3c1.78,0,3.55,0,5.29.14l-2.72,4.12c-1.69,0-3.44,0-5.13,0L129,363.12C130.77,363,132.54,363,134.31,363Zm-7.7.3,2.67,4.05c-2.66.12-5.16.34-7.32.64l-4.65-3.36A69.18,69.18,0,0,1,126.61,363.28Zm-12,2,4.39,3.17a19,19,0,0,0-2.48.68c-.92.33-2.15.89-2.4,2-3.56-1.14-4.59-2.29-4.59-2.83S110.66,366.5,114.65,365.3Zm5.72,26.29c-7.84-1.28-10.8-3.26-10.8-4.25v-3.29a13.23,13.23,0,0,0,2.17,1.11,39.74,39.74,0,0,0,8.63,2.2Zm0-6.37a37.79,37.79,0,0,1-7.84-2c-2.19-.9-3-1.76-3-2.21v-3.28a12.14,12.14,0,0,0,2.14,1.1,39.13,39.13,0,0,0,8.66,2.21Zm0-6.34c-7.84-1.28-10.8-3.26-10.8-4.25v-3.27a22.64,22.64,0,0,0,7.21,2.63c1.12.25,2.33.48,3.59.68ZM127,392.36c-1.56-.12-3.07-.27-4.51-.46v-4.23c1.44.19,3,.34,4.51.46Zm.11-6.35c-1.6-.12-3.15-.28-4.62-.48v-4.21c2.17.28,4.47.48,6.84.6l-.11.1A7.41,7.41,0,0,0,127.09,386Zm-4.62-6.82V375a94.47,94.47,0,0,0,10.8.71v4.24A91.54,91.54,0,0,1,122.47,379.19Zm17.09,13.31c-1.39.07-2.79.12-4.2.13v-3.17a1,1,0,1,0-2.09,0v3.17c-1.41,0-2.82-.06-4.2-.13v-5.33a5.25,5.25,0,0,1,10.49,0v5.33Zm6.6-.6c-1.44.19-2.95.34-4.51.46v-4.23c1.56-.12,3.07-.27,4.51-.46Zm0-6.37c-1.47.2-3,.36-4.62.48a7.51,7.51,0,0,0-2-3.91l-.19-.18c2.37-.12,4.67-.32,6.84-.6v4.21Zm0-6.34a91.54,91.54,0,0,1-10.8.73v-4.24a94.17,94.17,0,0,0,10.8-.71Zm-11.85-5.62a91.36,91.36,0,0,1-12.74-.86c-1.41-.2-2.75-.44-4-.71l-.19-.1a5.62,5.62,0,0,1-.91-.41c2.78-1.53,11.54-2,14.75-2.11,2-.06,4.15-.06,6.17,0a79.5,79.5,0,0,1,9.42.75,17.06,17.06,0,0,1,5.33,1.36,7,7,0,0,1-1.3.55c-1.19.25-2.46.48-3.79.67A91.3,91.3,0,0,1,134.31,373.57Zm24.75,13.77c0,1-3,3-10.8,4.25v-4.23a39.74,39.74,0,0,0,8.63-2.2,13.23,13.23,0,0,0,2.17-1.11Zm0-6.35c0,.45-.78,1.31-3,2.21a37.79,37.79,0,0,1-7.84,2V381a39.13,39.13,0,0,0,8.66-2.21,12.14,12.14,0,0,0,2.14-1.1Zm0-6.36c0,1-3,3-10.8,4.25v-4.21c3.22-.51,8.09-1.52,10.8-3.31Zm-4.59-3.53c-.25-1.07-1.52-1.64-2.47-2a20.49,20.49,0,0,0-2.42-.65l4.4-3.17c4,1.2,5.08,2.42,5.08,3S158,370,154.47,371.1Z"/><path class="cls-1" d="M181,376.89l-1.2,1.32v3.24h-2.32V370.08h2.32v5.16l1-1.42,2.87-3.74h2.85l-4,5.06,4.12,6.31h-2.76Z"/><path class="cls-1" d="M193.85,379.11h-4.06l-.78,2.34h-2.46l4.19-11.37h2.15l4.21,11.37h-2.46Zm-3.44-1.9h2.82L191.81,373Z"/><path class="cls-1" d="M201.18,370.08l2.89,8.25,2.88-8.25H210v11.37h-2.33v-3.1l.23-5.37-3,8.47h-1.59l-3-8.46.23,5.36v3.1h-2.32V370.08Z"/><path class="cls-1" d="M218.38,379.11h-4.07l-.77,2.34h-2.47l4.19-11.37h2.15l4.21,11.37h-2.46Zm-3.44-1.9h2.81L216.34,373Z"/><path class="cls-1" d="M225.14,381.45h-2.32V370.08h2.32Z"/><path class="cls-1" d="M233.13,378.47a1.22,1.22,0,0,0-.47-1,6.42,6.42,0,0,0-1.67-.75,12.25,12.25,0,0,1-1.91-.77,3.16,3.16,0,0,1-1.91-2.82,2.78,2.78,0,0,1,.51-1.65,3.37,3.37,0,0,1,1.48-1.13,5.51,5.51,0,0,1,2.16-.4,5,5,0,0,1,2.15.44,3.42,3.42,0,0,1,1.46,1.24,3.29,3.29,0,0,1,.52,1.83h-2.31a1.55,1.55,0,0,0-.49-1.21,2,2,0,0,0-1.37-.44,2.12,2.12,0,0,0-1.32.37,1.13,1.13,0,0,0-.47.95,1.09,1.09,0,0,0,.55.93,6.22,6.22,0,0,0,1.63.71,6.88,6.88,0,0,1,2.88,1.49,3,3,0,0,1,.9,2.22,2.73,2.73,0,0,1-1.1,2.31,4.81,4.81,0,0,1-3,.84,5.69,5.69,0,0,1-2.36-.48,3.73,3.73,0,0,1-1.63-1.32,3.39,3.39,0,0,1-.56-1.93h2.33c0,1.25.74,1.88,2.22,1.88a2.13,2.13,0,0,0,1.29-.34A1.11,1.11,0,0,0,233.13,378.47Z"/><path class="cls-1" d="M246.18,381.45h-2.31v-4.87h-4.53v4.87H237V370.08h2.32v4.61h4.53v-4.61h2.31Z"/><path class="cls-1" d="M250.68,381.45h-2.32V370.08h2.32Z"/><path class="cls-1" d="M260.94,377.29h-1.85v4.16h-2.32V370.08H261a4.69,4.69,0,0,1,3.08.9,3.13,3.13,0,0,1,1.08,2.54,3.54,3.54,0,0,1-.5,1.94,3.43,3.43,0,0,1-1.51,1.24l2.44,4.65v.1h-2.49Zm-1.85-1.9H261a1.94,1.94,0,0,0,1.35-.44,1.63,1.63,0,0,0,.48-1.24,1.74,1.74,0,0,0-.45-1.27A1.91,1.91,0,0,0,261,372h-1.86Z"/><path class="cls-1" d="M273.64,376.53h-4.45v3h5.23v1.88h-7.55V370.08h7.53V372h-5.21v2.71h4.45Z"/><path class="cls-1" d="M284.61,377.67a4,4,0,0,1-1.34,2.89,4.68,4.68,0,0,1-3.19,1.05,4.22,4.22,0,0,1-3.4-1.47,6.06,6.06,0,0,1-1.24-4v-.7a6.93,6.93,0,0,1,.57-2.89,4.28,4.28,0,0,1,1.64-1.91,4.47,4.47,0,0,1,2.46-.67,4.57,4.57,0,0,1,3.14,1.05,4.3,4.3,0,0,1,1.38,3h-2.32a2.43,2.43,0,0,0-.61-1.6,2.21,2.21,0,0,0-1.59-.49,2,2,0,0,0-1.73.84,4.78,4.78,0,0,0-.59,2.6v.86a5.09,5.09,0,0,0,.55,2.7,1.94,1.94,0,0,0,1.74.85,2.3,2.3,0,0,0,1.61-.5,2.25,2.25,0,0,0,.6-1.53Z"/><path class="cls-1" d="M295.38,376a6.92,6.92,0,0,1-.58,2.94,4.49,4.49,0,0,1-1.69,1.95,4.56,4.56,0,0,1-2.5.69,4.66,4.66,0,0,1-2.5-.68,4.48,4.48,0,0,1-1.7-1.94,6.68,6.68,0,0,1-.61-2.9v-.56a6.89,6.89,0,0,1,.6-3,4.52,4.52,0,0,1,1.69-2,4.94,4.94,0,0,1,5,0,4.52,4.52,0,0,1,1.69,2,6.88,6.88,0,0,1,.6,2.95Zm-2.35-.52a4.86,4.86,0,0,0-.63-2.72,2.22,2.22,0,0,0-3.61,0,4.75,4.75,0,0,0-.64,2.69V376a4.9,4.9,0,0,0,.63,2.7,2.21,2.21,0,0,0,3.62,0,4.75,4.75,0,0,0,.63-2.69Z"/><path class="cls-1" d="M301.06,378.64l2.55-8.56h2.58l-3.92,11.37h-2.42L296,370.08h2.57Z"/><path class="cls-1" d="M314,376.53h-4.45v3h5.23v1.88h-7.55V370.08h7.53V372h-5.21v2.71H314Z"/><path class="cls-1" d="M320.32,377.29h-1.84v4.16h-2.32V370.08h4.18a4.71,4.71,0,0,1,3.08.9,3.13,3.13,0,0,1,1.08,2.54,3.54,3.54,0,0,1-.5,1.94,3.43,3.43,0,0,1-1.51,1.24l2.43,4.65v.1h-2.49Zm-1.84-1.9h1.87a1.94,1.94,0,0,0,1.35-.44,1.63,1.63,0,0,0,.48-1.24,1.74,1.74,0,0,0-.45-1.27,1.92,1.92,0,0,0-1.39-.46h-1.86Z"/><path class="cls-1" d="M329.77,375.21l2.34-5.13h2.54l-3.7,7.25v4.12H328.6v-4.12l-3.7-7.25h2.54Z"/><path class="cls-1" d="M342.65,370.08l2.89,8.25,2.88-8.25h3v11.37h-2.32v-3.1l.23-5.37-3,8.47h-1.59l-3-8.46.23,5.36v3.1h-2.32V370.08Z"/><path class="cls-1" d="M360.26,376.53h-4.45v3H361v1.88h-7.54V370.08H361V372h-5.21v2.71h4.45Z"/><path class="cls-1" d="M365.42,370.08l2.9,8.25,2.87-8.25h3.05v11.37h-2.33v-3.1l.23-5.37-3,8.47h-1.59l-3-8.46.23,5.36v3.1h-2.32V370.08Z"/><path class="cls-1" d="M385.51,376a6.92,6.92,0,0,1-.59,2.94,4.41,4.41,0,0,1-1.68,1.95,4.62,4.62,0,0,1-2.51.69,4.71,4.71,0,0,1-2.5-.68,4.55,4.55,0,0,1-1.7-1.94,6.83,6.83,0,0,1-.61-2.9v-.56a6.89,6.89,0,0,1,.6-3,4.54,4.54,0,0,1,1.7-2,4.64,4.64,0,0,1,2.5-.68,4.69,4.69,0,0,1,2.5.68,4.52,4.52,0,0,1,1.69,2,6.88,6.88,0,0,1,.6,2.95Zm-2.35-.52a4.86,4.86,0,0,0-.63-2.72,2.22,2.22,0,0,0-3.61,0,4.74,4.74,0,0,0-.65,2.69V376a4.81,4.81,0,0,0,.64,2.7,2.21,2.21,0,0,0,3.62,0,4.92,4.92,0,0,0,.63-2.69Z"/><path class="cls-1" d="M391.36,377.29h-1.85v4.16h-2.32V370.08h4.19a4.66,4.66,0,0,1,3.07.9,3.1,3.1,0,0,1,1.09,2.54,3.54,3.54,0,0,1-.5,1.94,3.43,3.43,0,0,1-1.51,1.24l2.43,4.65v.1h-2.49Zm-1.85-1.9h1.88a1.94,1.94,0,0,0,1.35-.44,1.63,1.63,0,0,0,.48-1.24,1.74,1.74,0,0,0-.45-1.27,1.92,1.92,0,0,0-1.39-.46h-1.87Z"/><path class="cls-1" d="M399.77,381.45h-2.32V370.08h2.32Z"/><path class="cls-1" d="M408.27,379.11H404.2l-.77,2.34H401l4.19-11.37h2.15l4.22,11.37h-2.47Zm-3.44-1.9h2.81L406.23,373Z"/><path class="cls-1" d="M414.89,379.57h4.92v1.88h-7.24V370.08h2.32Z"/><path class="cls-1" d="M430.92,378.47a1.21,1.21,0,0,0-.46-1,6.59,6.59,0,0,0-1.67-.75,11.86,11.86,0,0,1-1.91-.77,3.16,3.16,0,0,1-1.92-2.82,2.78,2.78,0,0,1,.51-1.65,3.43,3.43,0,0,1,1.48-1.13,5.51,5.51,0,0,1,2.16-.4,4.92,4.92,0,0,1,2.15.44,3.45,3.45,0,0,1,1.47,1.24,3.37,3.37,0,0,1,.52,1.83h-2.32a1.52,1.52,0,0,0-.49-1.21,2,2,0,0,0-1.37-.44,2.16,2.16,0,0,0-1.32.37,1.15,1.15,0,0,0-.47.95,1.09,1.09,0,0,0,.55.93,6.22,6.22,0,0,0,1.63.71,6.88,6.88,0,0,1,2.88,1.49,3,3,0,0,1,.91,2.22,2.74,2.74,0,0,1-1.11,2.31,4.78,4.78,0,0,1-3,.84,5.7,5.7,0,0,1-2.37-.48,3.79,3.79,0,0,1-1.63-1.32,3.39,3.39,0,0,1-.56-1.93h2.33c0,1.25.74,1.88,2.23,1.88a2.13,2.13,0,0,0,1.29-.34A1.11,1.11,0,0,0,430.92,378.47Z"/><path class="cls-1" d="M443.29,372h-3.45v9.47h-2.32V372h-3.4v-1.9h9.17Z"/><path class="cls-1" d="M450,379.11H446l-.77,2.34h-2.47l4.19-11.37h2.15l4.22,11.37h-2.47Zm-3.44-1.9h2.81L448,373Z"/><path class="cls-1" d="M454.34,381.45V370.08h3.46a5.24,5.24,0,0,1,2.66.68,4.62,4.62,0,0,1,1.82,1.92,5.94,5.94,0,0,1,.66,2.83V376a6,6,0,0,1-.64,2.82,4.68,4.68,0,0,1-1.82,1.92,5.26,5.26,0,0,1-2.66.68Zm2.32-9.47v7.59h1.12a2.52,2.52,0,0,0,2.08-.9,4,4,0,0,0,.73-2.56v-.61a4.15,4.15,0,0,0-.71-2.62,2.49,2.49,0,0,0-2.08-.9Z"/><path class="cls-1" d="M467.09,381.45h-2.32V370.08h2.32Z"/><path class="cls-1" d="M477.76,370.08v7.49a3.87,3.87,0,0,1-1.15,3,5.18,5.18,0,0,1-6.29,0,3.8,3.8,0,0,1-1.19-2.9v-7.58h2.32v7.51a2.2,2.2,0,0,0,.53,1.63,2,2,0,0,0,1.47.51c1.3,0,2-.69,2-2.08v-7.57Z"/><path class="cls-1" d="M482.69,370.08l2.9,8.25,2.87-8.25h3.05v11.37h-2.33v-3.1l.23-5.37-3,8.47h-1.59l-3-8.46.23,5.36v3.1h-2.32V370.08Z"/></g><path d="M276.54,290.26h-1.41v-6.85l-2.07.71v-1.2l3.3-1.22h.18Z"/><path d="M279.85,286l.46-4.3h4.53V283h-3.36l-.23,2a2.55,2.55,0,0,1,1.32-.34,2.32,2.32,0,0,1,1.87.78,3.07,3.07,0,0,1,.67,2.09,2.82,2.82,0,0,1-.74,2.07,2.65,2.65,0,0,1-2,.77,2.84,2.84,0,0,1-1.93-.66,2.43,2.43,0,0,1-.82-1.76H281a1.49,1.49,0,0,0,.44,1,1.33,1.33,0,0,0,.94.33,1.21,1.21,0,0,0,1-.47,2,2,0,0,0,.36-1.28,1.77,1.77,0,0,0-.4-1.23,1.39,1.39,0,0,0-1.1-.46,1.8,1.8,0,0,0-.65.11,2,2,0,0,0-.58.4Z"/><path d="M290.59,283.92l0,.66a2.27,2.27,0,0,1,1.81-.78,1.75,1.75,0,0,1,1.73,1,2.22,2.22,0,0,1,1.92-1,2,2,0,0,1,1.55.58,2.64,2.64,0,0,1,.52,1.71v4.17h-1.41v-4.13a1.28,1.28,0,0,0-.26-.88,1.15,1.15,0,0,0-.87-.28,1.12,1.12,0,0,0-.78.26,1.31,1.31,0,0,0-.43.68v4.35H293v-4.17a1,1,0,0,0-1.13-1.12,1.25,1.25,0,0,0-1.21.69v4.6h-1.4v-6.34Z"/><path d="M299.6,282.27a.73.73,0,0,1,.21-.54.76.76,0,0,1,.59-.22.77.77,0,0,1,.59.22.8.8,0,0,1,0,1.08.8.8,0,0,1-.59.21.79.79,0,0,1-.59-.21A.73.73,0,0,1,299.6,282.27Zm1.5,8h-1.41v-6.34h1.41Z"/><path d="M303.94,283.92l0,.73a2.29,2.29,0,0,1,1.83-.85c1.31,0,2,.76,2,2.27v4.19h-1.4v-4.11a1.31,1.31,0,0,0-.26-.89,1.07,1.07,0,0,0-.85-.29,1.37,1.37,0,0,0-1.27.78v4.51h-1.41v-6.34Z"/><path d="M312.76,288.53a.67.67,0,0,0-.31-.58,3.35,3.35,0,0,0-1-.35,5.48,5.48,0,0,1-1.2-.38,1.62,1.62,0,0,1-1.06-1.5,1.7,1.7,0,0,1,.69-1.37,2.7,2.7,0,0,1,1.74-.55,2.8,2.8,0,0,1,1.81.56,1.79,1.79,0,0,1,.7,1.46h-1.41a.88.88,0,0,0-.3-.68,1.17,1.17,0,0,0-.8-.27,1.27,1.27,0,0,0-.76.21.68.68,0,0,0-.29.58.58.58,0,0,0,.27.51,3.37,3.37,0,0,0,1.1.37,5,5,0,0,1,1.3.44,1.77,1.77,0,0,1,.7.61,1.53,1.53,0,0,1,.23.87,1.64,1.64,0,0,1-.7,1.38,2.93,2.93,0,0,1-1.84.53,3.17,3.17,0,0,1-1.37-.28,2.25,2.25,0,0,1-.94-.77,1.81,1.81,0,0,1-.34-1.06h1.37a1,1,0,0,0,.38.78,1.46,1.46,0,0,0,.92.27,1.39,1.39,0,0,0,.85-.22A.67.67,0,0,0,312.76,288.53Z"/><path d="M318.06,287a3.84,3.84,0,0,1,.37-1.68,2.66,2.66,0,0,1,1-1.15,3,3,0,0,1,1.52-.4,2.75,2.75,0,0,1,2.07.83,3.28,3.28,0,0,1,.85,2.19v.33a3.77,3.77,0,0,1-.36,1.68,2.69,2.69,0,0,1-1,1.14,2.86,2.86,0,0,1-1.53.4,2.69,2.69,0,0,1-2.13-.89,3.46,3.46,0,0,1-.8-2.38Zm1.41.12a2.62,2.62,0,0,0,.4,1.53,1.31,1.31,0,0,0,1.12.56,1.29,1.29,0,0,0,1.11-.57,2.86,2.86,0,0,0,.39-1.64,2.47,2.47,0,0,0-.41-1.52,1.35,1.35,0,0,0-2.2,0A2.79,2.79,0,0,0,319.47,287.15Z"/><path d="M326.4,283.92l0,.73a2.25,2.25,0,0,1,1.82-.85c1.31,0,2,.76,2,2.27v4.19h-1.41v-4.11a1.31,1.31,0,0,0-.26-.89,1,1,0,0,0-.84-.29,1.36,1.36,0,0,0-1.27.78v4.51h-1.41v-6.34Z"/><path class="cls-3" d="M241.47,265.52l-1.06,1.14v2.85h-2v-9.95h2v4.51l.89-1.24,2.51-3.27h2.5l-3.5,4.42,3.6,5.53H244Z"/><path class="cls-3" d="M252.74,267.46h-3.56l-.68,2.05h-2.16l3.67-9.95h1.88l3.69,9.95h-2.16Zm-3-1.66h2.46L251,262.07Z"/><path class="cls-3" d="M259.15,259.56l2.53,7.21,2.52-7.21h2.66v9.95h-2v-2.72l.2-4.7-2.66,7.42H261l-2.66-7.41.21,4.69v2.72h-2v-9.95Z"/><path class="cls-3" d="M274.2,267.46h-3.56l-.68,2.05H267.8l3.67-9.95h1.88l3.69,9.95h-2.16Zm-3-1.66h2.46l-1.24-3.73Z"/><path class="cls-3" d="M280.11,269.51h-2v-9.95h2Z"/><path class="cls-3" d="M287.1,266.9a1.07,1.07,0,0,0-.4-.9,5.59,5.59,0,0,0-1.46-.65,10.31,10.31,0,0,1-1.67-.68,2.76,2.76,0,0,1-1.68-2.47,2.42,2.42,0,0,1,.45-1.44,2.89,2.89,0,0,1,1.29-1,4.75,4.75,0,0,1,1.89-.36,4.36,4.36,0,0,1,1.88.39,2.92,2.92,0,0,1,1.28,1.09,2.83,2.83,0,0,1,.46,1.6h-2a1.35,1.35,0,0,0-.43-1.07,1.73,1.73,0,0,0-1.19-.38,1.86,1.86,0,0,0-1.16.32,1,1,0,0,0-.41.84,1,1,0,0,0,.48.81,5.71,5.71,0,0,0,1.42.62,6.13,6.13,0,0,1,2.53,1.3,2.61,2.61,0,0,1,.79,1.94,2.4,2.4,0,0,1-1,2,4.18,4.18,0,0,1-2.6.73,5,5,0,0,1-2.07-.42,3.25,3.25,0,0,1-1.43-1.15,3,3,0,0,1-.49-1.69h2c0,1.09.65,1.64,1.95,1.64a2,2,0,0,0,1.13-.29A1,1,0,0,0,287.1,266.9Z"/><path class="cls-3" d="M298.53,269.51h-2v-4.27h-4v4.27h-2v-9.95h2v4h4v-4h2Z"/><path class="cls-3" d="M302.46,269.51h-2v-9.95h2Z"/><path class="cls-3" d="M312.9,266.9a1.08,1.08,0,0,0-.41-.9,5.44,5.44,0,0,0-1.46-.65,10.71,10.71,0,0,1-1.67-.68,2.76,2.76,0,0,1-1.68-2.47,2.42,2.42,0,0,1,.45-1.44,2.86,2.86,0,0,1,1.3-1,4.75,4.75,0,0,1,1.89-.36,4.36,4.36,0,0,1,1.88.39,3,3,0,0,1,1.28,1.09,2.91,2.91,0,0,1,.46,1.6h-2a1.38,1.38,0,0,0-.43-1.07,1.74,1.74,0,0,0-1.2-.38,1.85,1.85,0,0,0-1.15.32,1,1,0,0,0-.42.84,1,1,0,0,0,.49.81,5.55,5.55,0,0,0,1.42.62,6,6,0,0,1,2.52,1.3,2.62,2.62,0,0,1,.8,1.94,2.43,2.43,0,0,1-1,2,4.21,4.21,0,0,1-2.61.73,5,5,0,0,1-2.07-.42,3.28,3.28,0,0,1-1.42-1.15,2.94,2.94,0,0,1-.49-1.69h2c0,1.09.64,1.64,1.94,1.64a1.92,1.92,0,0,0,1.13-.29A1,1,0,0,0,312.9,266.9Z"/><path class="cls-3" d="M323.72,261.22h-3v8.29h-2v-8.29h-3v-1.66h8Z"/><path class="cls-3" d="M329.63,267.46h-3.56l-.67,2.05h-2.16l3.66-9.95h1.88l3.69,9.95h-2.16Zm-3-1.66h2.46l-1.24-3.73Z"/><path class="cls-3" d="M340,261.22h-3v8.29h-2v-8.29h-3v-1.66h8Z"/><path class="cls-3" d="M343.31,269.51h-2v-9.95h2Z"/><path class="cls-3" d="M353.28,264.76a6,6,0,0,1-.51,2.57A3.92,3.92,0,0,1,351.3,269a4.06,4.06,0,0,1-2.2.6,4.12,4.12,0,0,1-2.18-.59,3.93,3.93,0,0,1-1.49-1.7,6,6,0,0,1-.54-2.54v-.49a6.05,6.05,0,0,1,.53-2.59A3.94,3.94,0,0,1,346.9,260a4,4,0,0,1,5.86,1.71,6,6,0,0,1,.52,2.58Zm-2-.45a4.2,4.2,0,0,0-.56-2.38,1.94,1.94,0,0,0-3.16,0,4.12,4.12,0,0,0-.56,2.35v.49a4.27,4.27,0,0,0,.55,2.36,1.81,1.81,0,0,0,1.6.84,1.78,1.78,0,0,0,1.57-.81,4.24,4.24,0,0,0,.56-2.36Z"/><path class="cls-3" d="M362.77,269.51h-2L356.79,263v6.55h-2v-9.95h2l3.95,6.56v-6.56h2Z"/><g id="arrow"><polyline class="cls-4" points="111.2 203.6 111.2 228.68 500.2 228.68 500.2 201.6"/><line class="cls-4" x1="306.19" y1="228.68" x2="306.19" y2="243.81"/><polygon class="cls-5" points="300.08 240.03 312.31 240.03 305.82 247.6 300.08 240.03"/></g><path class="cls-3" d="M455.61,77.74h-3V86h-2V77.74h-3V76.08h8Z"/><path class="cls-3" d="M464.67,81.28a6.12,6.12,0,0,1-.51,2.58,3.86,3.86,0,0,1-1.47,1.71,4.3,4.3,0,0,1-4.38,0,3.91,3.91,0,0,1-1.49-1.69,5.88,5.88,0,0,1-.53-2.54v-.5a6,6,0,0,1,.52-2.58,3.91,3.91,0,0,1,1.48-1.72,4.3,4.3,0,0,1,4.38,0,3.91,3.91,0,0,1,1.48,1.72,6,6,0,0,1,.52,2.58Zm-2.05-.45a4.25,4.25,0,0,0-.56-2.38,1.79,1.79,0,0,0-1.58-.81,1.82,1.82,0,0,0-1.58.8,4.24,4.24,0,0,0-.56,2.36v.48a4.28,4.28,0,0,0,.56,2.37,1.93,1.93,0,0,0,3.16,0,4.26,4.26,0,0,0,.56-2.36Z"/><path class="cls-3" d="M469.23,82l-1.05,1.15V86h-2v-10h2v4.51l.89-1.23,2.51-3.28h2.5l-3.5,4.42,3.6,5.53h-2.42Z"/><path class="cls-3" d="M478.34,80.56l2.05-4.48h2.22l-3.24,6.34V86h-2.06V82.42l-3.23-6.34h2.22Z"/><path class="cls-3" d="M491.4,81.28a6.12,6.12,0,0,1-.51,2.58,3.86,3.86,0,0,1-1.47,1.71,4.3,4.3,0,0,1-4.38,0,3.91,3.91,0,0,1-1.49-1.69,6,6,0,0,1-.54-2.54v-.5a6,6,0,0,1,.53-2.58A3.91,3.91,0,0,1,485,76.54a4.3,4.3,0,0,1,4.38,0,3.91,3.91,0,0,1,1.48,1.72,6,6,0,0,1,.52,2.58Zm-2-.45a4.25,4.25,0,0,0-.56-2.38,2,2,0,0,0-3.16,0,4.24,4.24,0,0,0-.56,2.36v.48a4.28,4.28,0,0,0,.56,2.37,1.93,1.93,0,0,0,3.16,0,4.26,4.26,0,0,0,.56-2.36Z"/><path class="cls-3" d="M501.44,83.42a1.06,1.06,0,0,0-.41-.89,5.23,5.23,0,0,0-1.46-.66,9.81,9.81,0,0,1-1.67-.68,2.75,2.75,0,0,1-1.68-2.46,2.42,2.42,0,0,1,.45-1.44,3,3,0,0,1,1.29-1,4.75,4.75,0,0,1,1.89-.36,4.33,4.33,0,0,1,1.88.39A3.07,3.07,0,0,1,503,77.42a2.9,2.9,0,0,1,.45,1.6h-2A1.34,1.34,0,0,0,501,78a1.73,1.73,0,0,0-1.2-.38,1.82,1.82,0,0,0-1.16.32,1,1,0,0,0-.41.83,1,1,0,0,0,.48.82,5.48,5.48,0,0,0,1.43.61,6.14,6.14,0,0,1,2.52,1.31,2.59,2.59,0,0,1,.79,1.94,2.38,2.38,0,0,1-1,2,4.18,4.18,0,0,1-2.6.74,5,5,0,0,1-2.07-.42,3.29,3.29,0,0,1-1.42-1.15,3,3,0,0,1-.49-1.7h2q0,1.65,1.95,1.65a1.87,1.87,0,0,0,1.13-.3A1,1,0,0,0,501.44,83.42Z"/><path class="cls-3" d="M512.26,77.74h-3V86h-2V77.74h-3V76.08h8Z"/><path class="cls-3" d="M518.17,84h-3.56l-.68,2h-2.16l3.67-10h1.88L521,86h-2.16Zm-3-1.66h2.46l-1.24-3.72Z"/><path class="cls-3" d="M528.53,77.74h-3V86h-2V77.74h-3V76.08h8Z"/><path class="cls-3" d="M531.85,86h-2v-10h2Z"/><path class="cls-3" d="M541.82,81.28a6,6,0,0,1-.52,2.58,3.86,3.86,0,0,1-1.47,1.71,4.3,4.3,0,0,1-4.38,0A4,4,0,0,1,534,83.88a5.88,5.88,0,0,1-.53-2.54v-.5a6,6,0,0,1,.52-2.58,3.93,3.93,0,0,1,1.49-1.72,4,4,0,0,1,2.18-.6,4,4,0,0,1,2.19.6,3.91,3.91,0,0,1,1.48,1.72,6,6,0,0,1,.53,2.58Zm-2.06-.45a4.25,4.25,0,0,0-.55-2.38,2,2,0,0,0-3.16,0,4.15,4.15,0,0,0-.56,2.36v.48a4.28,4.28,0,0,0,.55,2.37,1.94,1.94,0,0,0,3.17,0,4.26,4.26,0,0,0,.55-2.36Z"/><path class="cls-3" d="M551.3,86h-2l-3.95-6.55V86h-2v-10h2l4,6.56V76.08h2Z"/><rect class="cls-3" x="430.95" y="117.7" width="137.34" height="31.53"/><path class="cls-1" d="M448.68,129H450v5.48a2.34,2.34,0,0,1-.69,1.78,2.57,2.57,0,0,1-1.83.66,2.66,2.66,0,0,1-1.88-.61,2.28,2.28,0,0,1-.65-1.72h1.33a1.33,1.33,0,0,0,.31.94,1.22,1.22,0,0,0,.89.31,1.09,1.09,0,0,0,.86-.36,1.48,1.48,0,0,0,.32-1Z"/><path class="cls-1" d="M454.4,133.77h-1.5v3h-1.34V129h2.72a3.14,3.14,0,0,1,2.07.61,2.16,2.16,0,0,1,.72,1.75,2.23,2.23,0,0,1-.37,1.32,2.4,2.4,0,0,1-1.05.81l1.74,3.26v.07H456Zm-1.5-1.1h1.38a1.55,1.55,0,0,0,1.07-.34,1.23,1.23,0,0,0,.38-1,1.31,1.31,0,0,0-.35-1,1.52,1.52,0,0,0-1.06-.36H452.9Z"/><path class="cls-1" d="M466.33,130.05h-2.41v6.73h-1.33v-6.73h-2.4V129h6.14Z"/><path class="cls-1" d="M465.88,133.82a3.51,3.51,0,0,1,.33-1.54,2.47,2.47,0,0,1,.94-1.05,2.62,2.62,0,0,1,1.4-.37,2.5,2.5,0,0,1,1.89.76,3,3,0,0,1,.78,2v.3a3.48,3.48,0,0,1-.33,1.54,2.38,2.38,0,0,1-.94,1,2.59,2.59,0,0,1-1.4.37,2.51,2.51,0,0,1-1.95-.81,3.17,3.17,0,0,1-.73-2.19Zm1.29.11a2.34,2.34,0,0,0,.37,1.41,1.19,1.19,0,0,0,1,.5,1.17,1.17,0,0,0,1-.51,2.57,2.57,0,0,0,.37-1.51,2.35,2.35,0,0,0-.38-1.4,1.26,1.26,0,0,0-2,0A2.56,2.56,0,0,0,467.17,133.93Z"/><path class="cls-1" d="M473.59,131.6a2,2,0,0,1,1.6-.74c1.23,0,1.85.71,1.87,2.12v3.8h-1.3V133a1.15,1.15,0,0,0-.25-.85,1.06,1.06,0,0,0-.76-.25,1.24,1.24,0,0,0-1.16.7v4.15H472.3v-8.25h1.29Z"/><path class="cls-1" d="M478.12,133.82a3.51,3.51,0,0,1,.33-1.54,2.43,2.43,0,0,1,.95-1.05,2.56,2.56,0,0,1,1.39-.37,2.5,2.5,0,0,1,1.89.76,3,3,0,0,1,.78,2v.3a3.48,3.48,0,0,1-.33,1.54,2.38,2.38,0,0,1-.94,1,2.59,2.59,0,0,1-1.4.37,2.51,2.51,0,0,1-1.95-.81,3.17,3.17,0,0,1-.73-2.19Zm1.29.11a2.34,2.34,0,0,0,.37,1.41,1.28,1.28,0,0,0,2,0,2.65,2.65,0,0,0,.36-1.51,2.35,2.35,0,0,0-.37-1.4,1.27,1.27,0,0,0-2,0A2.56,2.56,0,0,0,479.41,133.93Z"/><path class="cls-1" d="M486.43,134.29l-.58.59v1.9h-1.29v-8.25h1.29v4.76l.41-.51,1.59-1.81h1.55l-2.14,2.42,2.37,3.39h-1.5Z"/><path class="cls-1" d="M493.73,136.21a2,2,0,0,1-1.62.67,1.78,1.78,0,0,1-1.42-.55,2.37,2.37,0,0,1-.48-1.6V131h1.29v3.75c0,.73.31,1.1.91,1.1a1.28,1.28,0,0,0,1.27-.68V131H495v5.81h-1.21Z"/><path class="cls-1" d="M503.17,134.76a.93.93,0,0,0-.36-.79,4.2,4.2,0,0,0-1.29-.57,5.89,5.89,0,0,1-1.49-.63A2,2,0,0,1,499,131a1.94,1.94,0,0,1,.76-1.56,3.12,3.12,0,0,1,2-.61,3.39,3.39,0,0,1,1.45.3,2.37,2.37,0,0,1,1,.86,2.21,2.21,0,0,1,.36,1.23h-1.34a1.24,1.24,0,0,0-.38-1,1.55,1.55,0,0,0-1.09-.34,1.61,1.61,0,0,0-1,.28,1,1,0,0,0-.36.8.86.86,0,0,0,.39.71,4.42,4.42,0,0,0,1.3.56,6.05,6.05,0,0,1,1.45.62,2.33,2.33,0,0,1,.8.79,2.1,2.1,0,0,1,.26,1.05,1.88,1.88,0,0,1-.75,1.56,3.2,3.2,0,0,1-2,.57,3.72,3.72,0,0,1-1.54-.31,2.61,2.61,0,0,1-1.1-.87,2.19,2.19,0,0,1-.39-1.29h1.35a1.29,1.29,0,0,0,.43,1,1.92,1.92,0,0,0,1.25.36,1.67,1.67,0,0,0,1.06-.29A.94.94,0,0,0,503.17,134.76Z"/><path class="cls-1" d="M506.84,131.6a2,2,0,0,1,1.6-.74c1.23,0,1.85.71,1.87,2.12v3.8H509V133a1.15,1.15,0,0,0-.26-.85,1,1,0,0,0-.76-.25,1.25,1.25,0,0,0-1.16.7v4.15h-1.29v-8.25h1.29Z"/><path class="cls-1" d="M511.62,129.46a.68.68,0,0,1,.19-.5.7.7,0,0,1,.54-.2.73.73,0,0,1,.54.2.68.68,0,0,1,.19.5.66.66,0,0,1-.19.49.73.73,0,0,1-.54.2.7.7,0,0,1-.54-.2A.66.66,0,0,1,511.62,129.46Zm1.37,7.32H511.7V131H513Z"/><path class="cls-1" d="M515.59,131l0,.67a2.06,2.06,0,0,1,1.68-.78c1.19,0,1.8.69,1.82,2.08v3.84h-1.29V133a1.25,1.25,0,0,0-.23-.82,1,1,0,0,0-.78-.26,1.24,1.24,0,0,0-1.16.71v4.14h-1.29V131Z"/><path class="cls-1" d="M522.32,134.29l-.58.59v1.9h-1.29v-8.25h1.29v4.76l.41-.51,1.59-1.81h1.55l-2.14,2.42,2.37,3.39H524Z"/><path class="cls-1" d="M529.57,136.78a1.79,1.79,0,0,1-.15-.55,2,2,0,0,1-1.51.65,2,2,0,0,1-1.41-.5,1.58,1.58,0,0,1-.55-1.23,1.68,1.68,0,0,1,.68-1.43,3.31,3.31,0,0,1,2-.49h.8v-.38a1.09,1.09,0,0,0-.25-.73,1,1,0,0,0-.76-.27,1.14,1.14,0,0,0-.73.23.69.69,0,0,0-.28.56h-1.29a1.44,1.44,0,0,1,.31-.89,2,2,0,0,1,.86-.65,2.92,2.92,0,0,1,1.2-.24,2.41,2.41,0,0,1,1.61.51,1.85,1.85,0,0,1,.62,1.44v2.62a3,3,0,0,0,.22,1.26v.09Zm-1.42-.94a1.44,1.44,0,0,0,.72-.19,1.32,1.32,0,0,0,.51-.51v-1.09h-.7a1.87,1.87,0,0,0-1.08.25.83.83,0,0,0-.36.72.72.72,0,0,0,.25.59A.93.93,0,0,0,528.15,135.84Z"/><path class="cls-1" d="M533.22,131l0,.67a2,2,0,0,1,1.67-.78c1.2,0,1.81.69,1.83,2.08v3.84h-1.29V133a1.2,1.2,0,0,0-.24-.82,1,1,0,0,0-.77-.26,1.26,1.26,0,0,0-1.17.71v4.14H532V131Z"/><path class="cls-1" d="M541.3,135.2a.6.6,0,0,0-.29-.53,3.18,3.18,0,0,0-.94-.33A4.75,4.75,0,0,1,539,134a1.49,1.49,0,0,1-1-1.37,1.56,1.56,0,0,1,.63-1.26,2.86,2.86,0,0,1,3.26,0,1.63,1.63,0,0,1,.64,1.33h-1.3a.8.8,0,0,0-.27-.62,1,1,0,0,0-.73-.25,1.1,1.1,0,0,0-.7.2.62.62,0,0,0-.27.53.53.53,0,0,0,.25.46,3.17,3.17,0,0,0,1,.34,4.91,4.91,0,0,1,1.2.4,1.87,1.87,0,0,1,.64.56,1.47,1.47,0,0,1,.21.8,1.55,1.55,0,0,1-.64,1.27,2.75,2.75,0,0,1-1.69.48,3,3,0,0,1-1.26-.25,2.17,2.17,0,0,1-.86-.71,1.67,1.67,0,0,1-.31-1h1.26a.92.92,0,0,0,.34.71,1.38,1.38,0,0,0,.85.25,1.26,1.26,0,0,0,.77-.2A.6.6,0,0,0,541.3,135.2Z"/><path class="cls-1" d="M546.23,136.88a2.64,2.64,0,0,1-2-.78,2.84,2.84,0,0,1-.77-2.08v-.16a3.37,3.37,0,0,1,.34-1.55,2.56,2.56,0,0,1,.93-1.07,2.46,2.46,0,0,1,1.34-.38,2.22,2.22,0,0,1,1.81.76,3.2,3.2,0,0,1,.64,2.14v.53h-3.75a1.68,1.68,0,0,0,.47,1.13,1.42,1.42,0,0,0,1,.42,1.77,1.77,0,0,0,1.45-.72l.69.67a2.26,2.26,0,0,1-.92.81A2.87,2.87,0,0,1,546.23,136.88Zm-.16-5a1.09,1.09,0,0,0-.86.37,2,2,0,0,0-.41,1.05h2.46v-.1a1.65,1.65,0,0,0-.35-1A1.08,1.08,0,0,0,546.07,131.91Z"/><path class="cls-1" d="M550.73,131l0,.67a2.06,2.06,0,0,1,1.68-.78c1.19,0,1.8.69,1.82,2.08v3.84H553V133a1.25,1.25,0,0,0-.23-.82,1,1,0,0,0-.78-.26,1.24,1.24,0,0,0-1.16.71v4.14h-1.29V131Z"/><rect class="cls-3" x="430.95" y="155.53" width="137.34" height="31.53"/><path class="cls-1" d="M461.7,166.8H463v5.48a2.34,2.34,0,0,1-.69,1.78,3,3,0,0,1-3.7,0,2.22,2.22,0,0,1-.66-1.71h1.34a1.3,1.3,0,0,0,.3.93,1.18,1.18,0,0,0,.89.32,1.09,1.09,0,0,0,.86-.36,1.51,1.51,0,0,0,.32-1Z"/><path class="cls-1" d="M467.42,171.61h-1.5v3h-1.34V166.8h2.72a3.19,3.19,0,0,1,2.07.6,2.19,2.19,0,0,1,.72,1.76,2.25,2.25,0,0,1-.37,1.32,2.43,2.43,0,0,1-1,.81l1.73,3.26v.06H469Zm-1.5-1.1h1.38a1.55,1.55,0,0,0,1.07-.34,1.23,1.23,0,0,0,.38-.95,1.31,1.31,0,0,0-.35-1,1.52,1.52,0,0,0-1.06-.36h-1.42Z"/><path class="cls-1" d="M476.3,171.24l-.87.94v2.43h-1.35V166.8h1.35v3.66l.74-.92,2.27-2.74h1.62l-2.87,3.46,3,4.35h-1.6Z"/><path class="cls-1" d="M484.26,174.61a1.8,1.8,0,0,1-.15-.54,2,2,0,0,1-1.51.65,2,2,0,0,1-1.42-.5,1.6,1.6,0,0,1-.54-1.23,1.65,1.65,0,0,1,.68-1.43,3.29,3.29,0,0,1,1.95-.49h.79v-.39a1,1,0,0,0-.25-.72,1,1,0,0,0-.76-.27,1.19,1.19,0,0,0-.72.22.69.69,0,0,0-.28.57h-1.29a1.42,1.42,0,0,1,.31-.89,2.1,2.1,0,0,1,.85-.66,3.14,3.14,0,0,1,1.21-.23,2.41,2.41,0,0,1,1.61.51,1.83,1.83,0,0,1,.62,1.44v2.62a3.06,3.06,0,0,0,.21,1.25v.09Zm-1.42-.93a1.55,1.55,0,0,0,.72-.19,1.29,1.29,0,0,0,.5-.51v-1.09h-.69a1.87,1.87,0,0,0-1.08.25.83.83,0,0,0-.36.71.78.78,0,0,0,.24.6A1,1,0,0,0,482.84,173.68Z"/><path class="cls-1" d="M487.92,168.81l0,.6a2.08,2.08,0,0,1,1.66-.71,1.6,1.6,0,0,1,1.58.89,2,2,0,0,1,1.76-.89,1.8,1.8,0,0,1,1.42.53,2.32,2.32,0,0,1,.47,1.57v3.81h-1.29v-3.77a1.2,1.2,0,0,0-.24-.82,1,1,0,0,0-.79-.25,1.08,1.08,0,0,0-.72.24,1.27,1.27,0,0,0-.39.62v4h-1.3v-3.82a.92.92,0,0,0-1-1,1.12,1.12,0,0,0-1.1.64v4.2h-1.29v-5.8Z"/><path class="cls-1" d="M499.62,174.61a1.8,1.8,0,0,1-.15-.54,2,2,0,0,1-1.51.65,2,2,0,0,1-1.42-.5A1.6,1.6,0,0,1,496,173a1.67,1.67,0,0,1,.68-1.43,3.31,3.31,0,0,1,1.95-.49h.8v-.39a1,1,0,0,0-.25-.72,1,1,0,0,0-.76-.27,1.2,1.2,0,0,0-.73.22.72.72,0,0,0-.28.57h-1.29a1.42,1.42,0,0,1,.31-.89,2.13,2.13,0,0,1,.86-.66,3.09,3.09,0,0,1,1.2-.23,2.41,2.41,0,0,1,1.61.51,1.83,1.83,0,0,1,.62,1.44v2.62a2.89,2.89,0,0,0,.22,1.25v.09Zm-1.42-.93a1.55,1.55,0,0,0,.72-.19,1.39,1.39,0,0,0,.51-.51v-1.09h-.7a1.87,1.87,0,0,0-1.08.25.83.83,0,0,0-.36.71.76.76,0,0,0,.25.6A.93.93,0,0,0,498.2,173.68Z"/><path class="cls-1" d="M502.07,167.3a.72.72,0,0,1,.19-.5.73.73,0,0,1,.54-.2.7.7,0,0,1,.54.2.68.68,0,0,1,.19.5.67.67,0,0,1-.19.49.7.7,0,0,1-.54.19.73.73,0,0,1-.54-.19A.71.71,0,0,1,502.07,167.3Zm1.37,7.31h-1.29v-5.8h1.29Z"/><path class="cls-1" d="M508.07,173a.6.6,0,0,0-.28-.54,3.22,3.22,0,0,0-.94-.32,4.75,4.75,0,0,1-1.1-.35,1.48,1.48,0,0,1-1-1.37,1.56,1.56,0,0,1,.63-1.26,2.48,2.48,0,0,1,1.59-.5,2.6,2.6,0,0,1,1.67.51,1.66,1.66,0,0,1,.63,1.34H508a.81.81,0,0,0-.28-.63,1.05,1.05,0,0,0-.73-.24,1.15,1.15,0,0,0-.69.19.64.64,0,0,0-.27.54.51.51,0,0,0,.25.46,3.23,3.23,0,0,0,1,.34,5,5,0,0,1,1.19.4,1.7,1.7,0,0,1,.64.56,1.44,1.44,0,0,1,.21.8,1.52,1.52,0,0,1-.64,1.27,2.74,2.74,0,0,1-1.68.48,2.78,2.78,0,0,1-1.26-.26,2,2,0,0,1-.86-.7,1.68,1.68,0,0,1-.31-1h1.25a.93.93,0,0,0,.35.72,1.35,1.35,0,0,0,.84.25,1.32,1.32,0,0,0,.78-.2A.59.59,0,0,0,508.07,173Z"/><path class="cls-1" d="M511.74,169.44a2,2,0,0,1,1.6-.74c1.23,0,1.85.7,1.87,2.12v3.79h-1.29v-3.74a1.15,1.15,0,0,0-.26-.85,1,1,0,0,0-.76-.25,1.25,1.25,0,0,0-1.16.69v4.15h-1.29v-8.24h1.29Z"/><path class="cls-1" d="M516.52,167.3a.71.71,0,0,1,.18-.5.73.73,0,0,1,.54-.2.74.74,0,0,1,.55.2.74.74,0,0,1,0,1,.74.74,0,0,1-.55.19.73.73,0,0,1-.54-.19A.71.71,0,0,1,516.52,167.3Zm1.37,7.31H516.6v-5.8h1.29Z"/><path class="cls-1" d="M523.47,173.53H527v1.08h-4.86V166.8h1.34Z"/><path class="cls-1" d="M527.9,167.3a.71.71,0,0,1,.18-.5.73.73,0,0,1,.54-.2.74.74,0,0,1,.55.2.74.74,0,0,1,0,1,.74.74,0,0,1-.55.19.73.73,0,0,1-.54-.19A.71.71,0,0,1,527.9,167.3Zm1.37,7.31H528v-5.8h1.29Z"/><path class="cls-1" d="M531.87,168.81l0,.67a2,2,0,0,1,1.67-.78c1.2,0,1.81.69,1.83,2.08v3.83h-1.29v-3.76a1.2,1.2,0,0,0-.24-.82,1,1,0,0,0-.77-.26,1.22,1.22,0,0,0-1.16.71v4.13h-1.3v-5.8Z"/><path class="cls-1" d="M539.26,174.72a2.66,2.66,0,0,1-2-.78,2.83,2.83,0,0,1-.76-2.08v-.16a3.5,3.5,0,0,1,.33-1.55,2.46,2.46,0,0,1,2.27-1.45,2.24,2.24,0,0,1,1.82.76,3.23,3.23,0,0,1,.64,2.14v.52h-3.76a1.76,1.76,0,0,0,.48,1.14,1.39,1.39,0,0,0,1,.42,1.74,1.74,0,0,0,1.45-.72l.7.67a2.45,2.45,0,0,1-.93.81A2.84,2.84,0,0,1,539.26,174.72Zm-.15-5a1.08,1.08,0,0,0-.86.37,1.94,1.94,0,0,0-.42,1h2.46v-.1a1.6,1.6,0,0,0-.34-1A1.11,1.11,0,0,0,539.11,169.75Z"/><path d="M487.53,107.6l.46-4.3h4.54v1.23h-3.37l-.23,2a2.55,2.55,0,0,1,1.32-.34,2.34,2.34,0,0,1,1.88.78,3.09,3.09,0,0,1,.67,2.09,2.87,2.87,0,0,1-.74,2.07,2.69,2.69,0,0,1-2,.77,2.83,2.83,0,0,1-1.92-.66,2.43,2.43,0,0,1-.83-1.75h1.37a1.49,1.49,0,0,0,.44,1,1.33,1.33,0,0,0,.94.33,1.21,1.21,0,0,0,1-.47,2,2,0,0,0,.36-1.28,1.77,1.77,0,0,0-.4-1.23,1.4,1.4,0,0,0-1.1-.45,1.78,1.78,0,0,0-.65.1,1.84,1.84,0,0,0-.58.4Z"/><path d="M498.34,106.18a2.19,2.19,0,0,1,1.75-.81c1.34,0,2,.77,2,2.32v4.14h-1.41v-4.09a1.25,1.25,0,0,0-.28-.93,1.13,1.13,0,0,0-.82-.27,1.35,1.35,0,0,0-1.27.76v4.53h-1.41v-9h1.41Z"/><path d="M506.83,106.79a3.45,3.45,0,0,0-.57-.05,1.3,1.3,0,0,0-1.31.75v4.34h-1.41v-6.34h1.35l0,.71a1.6,1.6,0,0,1,1.42-.83,1.21,1.21,0,0,1,.5.09Z"/><path d="M511.24,110.11a.63.63,0,0,0-.31-.58,3.31,3.31,0,0,0-1-.36,5.48,5.48,0,0,1-1.2-.38,1.63,1.63,0,0,1-1.06-1.5,1.7,1.7,0,0,1,.69-1.37,2.7,2.7,0,0,1,1.74-.55,2.79,2.79,0,0,1,1.82.57,1.78,1.78,0,0,1,.69,1.45h-1.41a.88.88,0,0,0-.3-.68,1.16,1.16,0,0,0-.8-.27,1.22,1.22,0,0,0-.76.22.68.68,0,0,0-.29.58.6.6,0,0,0,.27.51,3.7,3.7,0,0,0,1.1.36,4.88,4.88,0,0,1,1.3.44,1.88,1.88,0,0,1,.71.61,1.61,1.61,0,0,1,.23.87,1.65,1.65,0,0,1-.71,1.38,2.9,2.9,0,0,1-1.83.53,3.18,3.18,0,0,1-1.38-.28,2.24,2.24,0,0,1-.94-.77,1.87,1.87,0,0,1-.33-1.06h1.36a1,1,0,0,0,.38.78,1.46,1.46,0,0,0,.92.27,1.44,1.44,0,0,0,.85-.21A.68.68,0,0,0,511.24,110.11Z"/><path class="cls-3" d="M46.81,86h-2v-10h2Z"/><path class="cls-3" d="M51.78,82l-1.05,1.15V86h-2v-10h2v4.51l.89-1.23,2.51-3.28h2.49L53.13,80.5,56.73,86H54.31Z"/><path class="cls-3" d="M63.42,81.72h-3.9v2.66h4.57V86h-6.6v-10h6.59v1.66H59.52v2.37h3.9Z"/><path class="cls-3" d="M65.28,86v-10h3.45a4.42,4.42,0,0,1,2.72.7,2.37,2.37,0,0,1,.93,2A2.25,2.25,0,0,1,72,80.1a2.12,2.12,0,0,1-1,.81,2.08,2.08,0,0,1,1.2.78,2.28,2.28,0,0,1,.43,1.42,2.65,2.65,0,0,1-.9,2.17,4.1,4.1,0,0,1-2.59.75Zm2-5.78h1.51c1,0,1.53-.43,1.53-1.24A1.14,1.14,0,0,0,70,78a2,2,0,0,0-1.23-.3H67.31Zm0,1.45v2.68h1.74A1.67,1.67,0,0,0,70.17,84a1.18,1.18,0,0,0,.4-1,1.24,1.24,0,0,0-1.4-1.39Z"/><path class="cls-3" d="M81.58,76.08v6.55a3.4,3.4,0,0,1-1,2.59,3.87,3.87,0,0,1-2.76,1,3.93,3.93,0,0,1-2.74-.92,3.34,3.34,0,0,1-1-2.54V76.08h2v6.57a1.92,1.92,0,0,0,.46,1.42,1.78,1.78,0,0,0,1.29.45c1.14,0,1.72-.6,1.74-1.82V76.08Z"/><path class="cls-3" d="M86.33,82l-1,1.15V86h-2v-10h2v4.51l.89-1.23,2.51-3.28h2.49L87.68,80.5,91.28,86H88.86Z"/><path class="cls-3" d="M99.5,76.08v6.55a3.37,3.37,0,0,1-1,2.59,3.87,3.87,0,0,1-2.76,1A4,4,0,0,1,93,85.25a3.33,3.33,0,0,1-1-2.54V76.08h2v6.57a1.88,1.88,0,0,0,.46,1.42,1.77,1.77,0,0,0,1.28.45c1.14,0,1.72-.6,1.74-1.82V76.08Z"/><path class="cls-3" d="M104.81,82.39h-1.62V86h-2v-10h3.66a4.07,4.07,0,0,1,2.69.79,2.72,2.72,0,0,1,.95,2.22,3.11,3.11,0,0,1-.44,1.7,3,3,0,0,1-1.32,1.08l2.13,4.07V86h-2.18Zm-1.62-1.66h1.64a1.66,1.66,0,0,0,1.18-.39,1.44,1.44,0,0,0,.42-1.09,1.49,1.49,0,0,0-.39-1.1,1.65,1.65,0,0,0-1.22-.41h-1.63Z"/><path class="cls-3" d="M118.09,81.28a6.12,6.12,0,0,1-.51,2.58,3.86,3.86,0,0,1-1.47,1.71,4.3,4.3,0,0,1-4.38,0,3.91,3.91,0,0,1-1.49-1.69,5.88,5.88,0,0,1-.53-2.54v-.5a6,6,0,0,1,.52-2.58,3.91,3.91,0,0,1,1.48-1.72,4.3,4.3,0,0,1,4.38,0,3.91,3.91,0,0,1,1.48,1.72,6,6,0,0,1,.52,2.58Zm-2-.45a4.25,4.25,0,0,0-.56-2.38,1.79,1.79,0,0,0-1.58-.81,1.82,1.82,0,0,0-1.58.8,4.24,4.24,0,0,0-.56,2.36v.48a4.28,4.28,0,0,0,.56,2.37,1.93,1.93,0,0,0,3.16,0,4.26,4.26,0,0,0,.56-2.36Z"/><path class="cls-3" d="M128.13,83.42a1.06,1.06,0,0,0-.41-.89,5.23,5.23,0,0,0-1.46-.66,9.81,9.81,0,0,1-1.67-.68,2.75,2.75,0,0,1-1.68-2.46,2.42,2.42,0,0,1,.45-1.44,3,3,0,0,1,1.29-1,4.75,4.75,0,0,1,1.89-.36,4.33,4.33,0,0,1,1.88.39,3.07,3.07,0,0,1,1.29,1.09,2.9,2.9,0,0,1,.45,1.6h-2a1.34,1.34,0,0,0-.42-1.06,1.73,1.73,0,0,0-1.2-.38,1.82,1.82,0,0,0-1.16.32,1,1,0,0,0-.41.83,1,1,0,0,0,.48.82,5.48,5.48,0,0,0,1.43.61,6.14,6.14,0,0,1,2.52,1.31,2.59,2.59,0,0,1,.79,1.94,2.4,2.4,0,0,1-1,2,4.23,4.23,0,0,1-2.61.74,5,5,0,0,1-2.07-.42,3.29,3.29,0,0,1-1.42-1.15,3,3,0,0,1-.49-1.7h2q0,1.65,2,1.65a1.87,1.87,0,0,0,1.13-.3A1,1,0,0,0,128.13,83.42Z"/><path class="cls-3" d="M139,77.74h-3V86h-2V77.74h-3V76.08h8Z"/><path class="cls-3" d="M144.86,84H141.3l-.68,2h-2.16l3.67-10H144l3.69,10h-2.16Zm-3-1.66h2.46l-1.24-3.72Z"/><path class="cls-3" d="M155.22,77.74h-3V86h-2V77.74h-3V76.08h8Z"/><path class="cls-3" d="M158.54,86h-2v-10h2Z"/><path class="cls-3" d="M168.51,81.28a6.12,6.12,0,0,1-.51,2.58,3.94,3.94,0,0,1-1.48,1.71,4.3,4.3,0,0,1-4.38,0,3.89,3.89,0,0,1-1.48-1.69,5.89,5.89,0,0,1-.54-2.54v-.5a6,6,0,0,1,.53-2.58,3.85,3.85,0,0,1,1.48-1.72,4.28,4.28,0,0,1,4.37,0A3.93,3.93,0,0,1,168,78.26a6.12,6.12,0,0,1,.52,2.58Zm-2.06-.45a4.25,4.25,0,0,0-.55-2.38,2,2,0,0,0-3.16,0,4.15,4.15,0,0,0-.56,2.36v.48a4.28,4.28,0,0,0,.55,2.37,1.94,1.94,0,0,0,3.17,0,4.26,4.26,0,0,0,.55-2.36Z"/><path class="cls-3" d="M178,86h-2l-4-6.55V86h-2v-10h2l4,6.56V76.08h2Z"/><path d="M71.74,107.89a2.2,2.2,0,0,1-1.66.75,2.18,2.18,0,0,1-1.77-.79,3.1,3.1,0,0,1-.66-2.07,3.37,3.37,0,0,1,.34-1.53,2.51,2.51,0,0,1,1-1.06,2.67,2.67,0,0,1,1.44-.38,2.41,2.41,0,0,1,2,1,4.07,4.07,0,0,1,.75,2.57v.4a5.28,5.28,0,0,1-1,3.52A3.85,3.85,0,0,1,69,111.49h-.17v-1.18h.21A2.82,2.82,0,0,0,71,109.7,2.56,2.56,0,0,0,71.74,107.89Zm-1.36-.36a1.4,1.4,0,0,0,.8-.25,1.67,1.67,0,0,0,.57-.68v-.55a2.74,2.74,0,0,0-.38-1.52,1.17,1.17,0,0,0-1-.57,1.14,1.14,0,0,0-1,.5,2.17,2.17,0,0,0-.36,1.28,2.09,2.09,0,0,0,.37,1.3A1.17,1.17,0,0,0,70.38,107.53Z"/><path d="M78.93,105.81a2.19,2.19,0,0,1,1.74-.81q2,0,2,2.31v4.14H81.3v-4.09a1.24,1.24,0,0,0-.28-.92,1.11,1.11,0,0,0-.83-.28,1.37,1.37,0,0,0-1.26.76v4.53H77.52v-9h1.41Z"/><path d="M87.42,106.42a2.78,2.78,0,0,0-.58,0,1.29,1.29,0,0,0-1.3.75v4.33H84.13v-6.33h1.35l0,.7a1.58,1.58,0,0,1,1.41-.82,1.37,1.37,0,0,1,.5.08Z"/><path d="M91.82,109.73a.64.64,0,0,0-.31-.58,3.27,3.27,0,0,0-1-.35,5,5,0,0,1-1.2-.39,1.61,1.61,0,0,1-1.06-1.49,1.7,1.7,0,0,1,.68-1.37,2.69,2.69,0,0,1,1.74-.55,2.82,2.82,0,0,1,1.82.56,1.8,1.8,0,0,1,.69,1.46h-1.4a.89.89,0,0,0-.31-.68,1.1,1.1,0,0,0-.8-.28,1.24,1.24,0,0,0-.75.22.69.69,0,0,0-.3.58.57.57,0,0,0,.28.51,3.94,3.94,0,0,0,1.1.37,5.14,5.14,0,0,1,1.3.44,1.77,1.77,0,0,1,.7.61,1.6,1.6,0,0,1,.23.86,1.65,1.65,0,0,1-.7,1.39,3,3,0,0,1-1.84.53,3.17,3.17,0,0,1-1.37-.28,2.27,2.27,0,0,1-.94-.77,1.83,1.83,0,0,1-.34-1.06h1.37a1,1,0,0,0,.38.77,1.46,1.46,0,0,0,.92.27,1.41,1.41,0,0,0,.84-.21A.65.65,0,0,0,91.82,109.73Z"/><path d="M101.12,111.45h-1.4V104.6l-2.07.71v-1.19l3.29-1.22h.18Z"/><path d="M108.82,108.41h1.05v1.14h-1.05v1.9h-1.41v-1.9h-3.65l0-.86,3.65-5.77h1.45Zm-3.62,0h2.21v-3.56l-.1.19Z"/><path d="M115.18,105.12l0,.66A2.24,2.24,0,0,1,117,105a1.72,1.72,0,0,1,1.72,1,2.2,2.2,0,0,1,1.92-1,1.94,1.94,0,0,1,1.55.58,2.55,2.55,0,0,1,.52,1.71v4.16h-1.41v-4.12a1.31,1.31,0,0,0-.26-.89,1.18,1.18,0,0,0-.87-.28,1.17,1.17,0,0,0-.78.26,1.45,1.45,0,0,0-.43.69v4.34h-1.41v-4.17a1,1,0,0,0-1.13-1.12,1.24,1.24,0,0,0-1.2.7v4.59h-1.41v-6.33Z"/><path d="M124.19,103.47a.71.71,0,0,1,.79-.76.79.79,0,0,1,.59.21.77.77,0,0,1,.21.55.72.72,0,0,1-.21.53.76.76,0,0,1-.59.22.77.77,0,0,1-.59-.22A.76.76,0,0,1,124.19,103.47Zm1.49,8h-1.41v-6.33h1.41Z"/><path d="M128.53,105.12l0,.73a2.22,2.22,0,0,1,1.82-.85c1.31,0,2,.75,2,2.26v4.19H131v-4.1a1.34,1.34,0,0,0-.26-.9,1.08,1.08,0,0,0-.84-.29,1.35,1.35,0,0,0-1.27.78v4.51H127.2v-6.33Z"/><path d="M137.34,109.73a.64.64,0,0,0-.31-.58,3.35,3.35,0,0,0-1-.35,5,5,0,0,1-1.2-.39,1.62,1.62,0,0,1-1.06-1.49,1.69,1.69,0,0,1,.69-1.37,2.65,2.65,0,0,1,1.74-.55,2.84,2.84,0,0,1,1.82.56,1.8,1.8,0,0,1,.69,1.46h-1.41a.88.88,0,0,0-.3-.68,1.12,1.12,0,0,0-.8-.28,1.29,1.29,0,0,0-.76.22.71.71,0,0,0-.29.58.58.58,0,0,0,.27.51,3.94,3.94,0,0,0,1.1.37,4.88,4.88,0,0,1,1.3.44,1.88,1.88,0,0,1,.71.61,1.6,1.6,0,0,1,.23.86A1.66,1.66,0,0,1,138,111a3,3,0,0,1-1.83.53,3.18,3.18,0,0,1-1.38-.28,2.4,2.4,0,0,1-.94-.77,1.89,1.89,0,0,1-.33-1.06h1.36a1,1,0,0,0,.38.77,1.46,1.46,0,0,0,.92.27,1.44,1.44,0,0,0,.85-.21A.67.67,0,0,0,137.34,109.73Z"/><path d="M142.65,108.23a3.8,3.8,0,0,1,.36-1.68,2.68,2.68,0,0,1,1-1.15,2.83,2.83,0,0,1,1.52-.4,2.73,2.73,0,0,1,2.06.82,3.24,3.24,0,0,1,.85,2.19v.34a3.76,3.76,0,0,1-.36,1.67,2.66,2.66,0,0,1-1,1.15,2.86,2.86,0,0,1-1.53.4,2.73,2.73,0,0,1-2.13-.89,3.46,3.46,0,0,1-.79-2.38Zm1.4.12a2.62,2.62,0,0,0,.4,1.53,1.3,1.3,0,0,0,1.12.55,1.28,1.28,0,0,0,1.11-.56,2.85,2.85,0,0,0,.4-1.64,2.59,2.59,0,0,0-.41-1.53,1.33,1.33,0,0,0-1.11-.56,1.29,1.29,0,0,0-1.1.55A2.8,2.8,0,0,0,144.05,108.35Z"/><path d="M151,105.12l0,.73a2.23,2.23,0,0,1,1.83-.85c1.3,0,2,.75,2,2.26v4.19h-1.41v-4.1a1.34,1.34,0,0,0-.26-.9,1.08,1.08,0,0,0-.84-.29,1.36,1.36,0,0,0-1.27.78v4.51h-1.41v-6.33Z"/><rect class="cls-3" x="42.46" y="117.7" width="137.34" height="31.53"/><path class="cls-1" d="M53.07,133.4l-.88.94v2.44H50.84V129h1.35v3.67l.74-.93L55.2,129h1.62L54,132.42l3,4.36h-1.6Z"/><path class="cls-1" d="M60.11,136.88a2.66,2.66,0,0,1-2-.78,2.83,2.83,0,0,1-.76-2.08v-.16a3.5,3.5,0,0,1,.33-1.55,2.56,2.56,0,0,1,.93-1.07,2.51,2.51,0,0,1,1.34-.38,2.24,2.24,0,0,1,1.82.76,3.2,3.2,0,0,1,.64,2.14v.53H58.66a1.73,1.73,0,0,0,.48,1.13,1.42,1.42,0,0,0,1,.42,1.74,1.74,0,0,0,1.44-.72l.7.67a2.33,2.33,0,0,1-.92.81A2.92,2.92,0,0,1,60.11,136.88Zm-.15-5a1.08,1.08,0,0,0-.86.37,1.94,1.94,0,0,0-.42,1.05h2.47v-.1a1.65,1.65,0,0,0-.35-1A1.08,1.08,0,0,0,60,131.91Z"/><path class="cls-1" d="M66.65,135.2a.6.6,0,0,0-.29-.53,3.18,3.18,0,0,0-.94-.33,4.75,4.75,0,0,1-1.1-.35,1.47,1.47,0,0,1-1-1.37,1.56,1.56,0,0,1,.63-1.26,2.5,2.5,0,0,1,1.59-.5,2.53,2.53,0,0,1,1.67.52,1.63,1.63,0,0,1,.63,1.33H66.58a.8.8,0,0,0-.27-.62,1.05,1.05,0,0,0-.74-.25,1.09,1.09,0,0,0-.69.2.62.62,0,0,0-.27.53.51.51,0,0,0,.25.46,3.07,3.07,0,0,0,1,.34,4.82,4.82,0,0,1,1.19.4,1.82,1.82,0,0,1,.65.56,1.47,1.47,0,0,1,.21.8,1.53,1.53,0,0,1-.65,1.27,2.74,2.74,0,0,1-1.68.48,3,3,0,0,1-1.26-.25,2.1,2.1,0,0,1-.86-.71,1.67,1.67,0,0,1-.31-1h1.25a1,1,0,0,0,.35.71,1.35,1.35,0,0,0,.84.25,1.32,1.32,0,0,0,.78-.2A.6.6,0,0,0,66.65,135.2Z"/><path class="cls-1" d="M71.57,136.88a2.67,2.67,0,0,1-2-.78,2.83,2.83,0,0,1-.76-2.08v-.16a3.5,3.5,0,0,1,.33-1.55,2.58,2.58,0,0,1,.94-1.07,2.46,2.46,0,0,1,1.34-.38,2.23,2.23,0,0,1,1.81.76,3.2,3.2,0,0,1,.64,2.14v.53H70.12a1.73,1.73,0,0,0,.48,1.13,1.42,1.42,0,0,0,1.05.42,1.74,1.74,0,0,0,1.44-.72l.7.67a2.33,2.33,0,0,1-.92.81A2.92,2.92,0,0,1,71.57,136.88Zm-.15-5a1.09,1.09,0,0,0-.86.37,1.94,1.94,0,0,0-.42,1.05h2.47v-.1a1.65,1.65,0,0,0-.35-1A1.08,1.08,0,0,0,71.42,131.91Z"/><path class="cls-1" d="M76.08,131l0,.67a2,2,0,0,1,1.67-.78c1.2,0,1.81.69,1.83,2.08v3.84H78.33V133a1.2,1.2,0,0,0-.24-.82,1,1,0,0,0-.77-.26,1.24,1.24,0,0,0-1.16.71v4.14h-1.3V131Z"/><path class="cls-1" d="M85.12,135.69h3.51v1.09H83.77V129h1.35Z"/><path class="cls-1" d="M89.54,129.46a.68.68,0,0,1,.19-.5.7.7,0,0,1,.54-.2.73.73,0,0,1,.54.2.68.68,0,0,1,.19.5.66.66,0,0,1-.19.49.73.73,0,0,1-.54.2.7.7,0,0,1-.54-.2A.66.66,0,0,1,89.54,129.46Zm1.37,7.32H89.62V131h1.29Z"/><path class="cls-1" d="M93.52,131l0,.67a2.08,2.08,0,0,1,1.68-.78c1.2,0,1.81.69,1.83,2.08v3.84H95.77V133a1.2,1.2,0,0,0-.24-.82,1,1,0,0,0-.77-.26,1.25,1.25,0,0,0-1.17.71v4.14H92.3V131Z"/><path class="cls-1" d="M100.91,136.88a2.68,2.68,0,0,1-2-.78,2.88,2.88,0,0,1-.76-2.08v-.16a3.5,3.5,0,0,1,.33-1.55,2.65,2.65,0,0,1,.94-1.07,2.46,2.46,0,0,1,1.34-.38,2.23,2.23,0,0,1,1.81.76,3.2,3.2,0,0,1,.64,2.14v.53H99.45a1.73,1.73,0,0,0,.48,1.13,1.42,1.42,0,0,0,1,.42,1.77,1.77,0,0,0,1.45-.72l.69.67a2.33,2.33,0,0,1-.92.81A2.9,2.9,0,0,1,100.91,136.88Zm-.16-5a1.09,1.09,0,0,0-.86.37,1.94,1.94,0,0,0-.41,1.05h2.46v-.1a1.65,1.65,0,0,0-.35-1A1.08,1.08,0,0,0,100.75,131.91Z"/><path class="cls-1" d="M107.23,132.16a3.08,3.08,0,0,0-.53,0,1.2,1.2,0,0,0-1.2.68v4h-1.29V131h1.23l0,.65a1.44,1.44,0,0,1,1.29-.76,1.19,1.19,0,0,1,.46.08Z"/><path class="cls-1" d="M117,136.78h-1.34v-3.47h-3.46v3.47h-1.34V129h1.34v3.25h3.46V129H117Z"/><path class="cls-1" d="M118.49,129.46a.68.68,0,0,1,.19-.5.7.7,0,0,1,.54-.2.73.73,0,0,1,.54.2.68.68,0,0,1,.19.5.66.66,0,0,1-.19.49.73.73,0,0,1-.54.2.7.7,0,0,1-.54-.2A.66.66,0,0,1,118.49,129.46Zm1.37,7.32h-1.29V131h1.29Z"/><path class="cls-1" d="M121,133.83a3.42,3.42,0,0,1,.63-2.16,2,2,0,0,1,1.67-.81,1.9,1.9,0,0,1,1.55.69L125,131h1.16v5.63a2.34,2.34,0,0,1-.7,1.8,2.68,2.68,0,0,1-1.9.66,3,3,0,0,1-1.24-.26,2.23,2.23,0,0,1-.92-.7l.62-.78a1.8,1.8,0,0,0,1.46.71,1.41,1.41,0,0,0,1-.35,1.34,1.34,0,0,0,.37-1v-.39a1.92,1.92,0,0,1-1.49.62,2,2,0,0,1-1.65-.81A3.51,3.51,0,0,1,121,133.83Zm1.29.11a2.33,2.33,0,0,0,.35,1.38,1.14,1.14,0,0,0,1,.5,1.23,1.23,0,0,0,1.16-.68v-2.55a1.22,1.22,0,0,0-1.15-.66,1.15,1.15,0,0,0-1,.51A2.6,2.6,0,0,0,122.33,133.94Z"/><path class="cls-1" d="M128.71,131.6a2,2,0,0,1,1.6-.74c1.23,0,1.85.71,1.87,2.12v3.8h-1.3V133a1.15,1.15,0,0,0-.25-.85,1,1,0,0,0-.76-.25,1.24,1.24,0,0,0-1.16.7v4.15h-1.29v-8.25h1.29Z"/><path class="cls-1" d="M138.53,135l.92-4h1.26l-1.57,5.81h-1.06l-1.24-4-1.21,4h-1.06L133,131h1.25l.94,4,1.18-4h1Z"/><path class="cls-1" d="M145,136.78a1.79,1.79,0,0,1-.15-.55,2.15,2.15,0,0,1-2.92.15,1.58,1.58,0,0,1-.55-1.23,1.68,1.68,0,0,1,.68-1.43,3.31,3.31,0,0,1,2-.49h.8v-.38a1.09,1.09,0,0,0-.25-.73,1,1,0,0,0-.76-.27,1.14,1.14,0,0,0-.73.23.69.69,0,0,0-.28.56h-1.29a1.5,1.5,0,0,1,.31-.89,2,2,0,0,1,.86-.65,2.92,2.92,0,0,1,1.2-.24,2.41,2.41,0,0,1,1.61.51,1.85,1.85,0,0,1,.62,1.44v2.62a3,3,0,0,0,.22,1.26v.09Zm-1.42-.94a1.44,1.44,0,0,0,.72-.19,1.32,1.32,0,0,0,.51-.51v-1.09h-.7a1.87,1.87,0,0,0-1.08.25.83.83,0,0,0-.36.72.72.72,0,0,0,.25.59A.93.93,0,0,0,143.59,135.84Z"/><path class="cls-1" d="M149.47,134.91l1.17-3.94H152l-2.29,6.69a1.86,1.86,0,0,1-1.78,1.46,2.38,2.38,0,0,1-.62-.09v-1l.24,0a1.26,1.26,0,0,0,.74-.18,1.24,1.24,0,0,0,.39-.61l.18-.49-2-5.78h1.4Z"/><path class="cls-1" d="M160.52,133.93a3.49,3.49,0,0,1-.6,2.15,1.93,1.93,0,0,1-1.64.8,1.88,1.88,0,0,1-1.58-.73l-.06.63h-1.17v-8.25h1.29v3a1.84,1.84,0,0,1,1.51-.67,2,2,0,0,1,1.65.79,3.58,3.58,0,0,1,.6,2.21Zm-1.29-.11a2.5,2.5,0,0,0-.33-1.42,1.11,1.11,0,0,0-1-.47,1.21,1.21,0,0,0-1.18.74v2.39a1.21,1.21,0,0,0,1.19.76,1.08,1.08,0,0,0,.94-.46,2.41,2.41,0,0,0,.34-1.38Z"/><path class="cls-1" d="M165.09,136.21a2,2,0,0,1-1.62.67,1.78,1.78,0,0,1-1.42-.55,2.37,2.37,0,0,1-.48-1.6V131h1.29v3.75c0,.73.31,1.1.91,1.1a1.28,1.28,0,0,0,1.27-.68V131h1.29v5.81h-1.21Z"/><path class="cls-1" d="M170.87,135.2a.59.59,0,0,0-.28-.53,3.18,3.18,0,0,0-.94-.33,4.75,4.75,0,0,1-1.1-.35,1.47,1.47,0,0,1-1-1.37,1.56,1.56,0,0,1,.63-1.26,2.48,2.48,0,0,1,1.59-.5,2.55,2.55,0,0,1,1.67.52,1.63,1.63,0,0,1,.63,1.33h-1.29a.77.77,0,0,0-.28-.62,1,1,0,0,0-.73-.25,1.09,1.09,0,0,0-.69.2.62.62,0,0,0-.27.53.51.51,0,0,0,.25.46,3,3,0,0,0,1,.34,5,5,0,0,1,1.19.4,1.91,1.91,0,0,1,.65.56,1.56,1.56,0,0,1,.21.8,1.53,1.53,0,0,1-.65,1.27,2.74,2.74,0,0,1-1.68.48,3,3,0,0,1-1.26-.25,2.1,2.1,0,0,1-.86-.71,1.67,1.67,0,0,1-.31-1h1.25a.93.93,0,0,0,.35.71,1.35,1.35,0,0,0,.84.25,1.32,1.32,0,0,0,.78-.2A.59.59,0,0,0,170.87,135.2Z"/><g id="Getting_There_Title" data-name="Getting There Title"><rect class="cls-2" x="0.02" y="0.33" width="599.95" height="64.98"/><path class="cls-1" d="M174,37.27a5.59,5.59,0,0,1-2.43,1.62,10.22,10.22,0,0,1-3.49.57,6.76,6.76,0,0,1-3.53-.89A5.87,5.87,0,0,1,162.16,36a9,9,0,0,1-.84-4V31a9.77,9.77,0,0,1,.78-4.06,5.81,5.81,0,0,1,2.26-2.62,7.41,7.41,0,0,1,7.76.42A5.67,5.67,0,0,1,174,28.58h-3.1a3.14,3.14,0,0,0-1-2,2.94,2.94,0,0,0-2-.63,2.83,2.83,0,0,0-2.48,1.24,6.53,6.53,0,0,0-.87,3.67v1a6.22,6.22,0,0,0,.93,3.72,3.18,3.18,0,0,0,2.72,1.25,3.55,3.55,0,0,0,2.56-.77V33.4h-2.9V31H174Z"/><path class="cls-1" d="M186.11,32.47H180v4.19h7.2v2.59H176.79V23.61h10.37v2.61H180V30h6.13Z"/><path class="cls-1" d="M201.22,26.22h-4.75v13h-3.19v-13h-4.69V23.61h12.63Z"/><path class="cls-1" d="M215.24,26.22h-4.75v13H207.3v-13h-4.68V23.61h12.62Z"/><path class="cls-1" d="M220.41,39.25h-3.2V23.61h3.2Z"/><path class="cls-1" d="M236.13,39.25h-3.19L226.72,29V39.25h-3.19V23.61h3.19L233,33.92V23.61h3.18Z"/><path class="cls-1" d="M251.31,37.27a5.62,5.62,0,0,1-2.44,1.62,10.18,10.18,0,0,1-3.49.57,6.81,6.81,0,0,1-3.53-.89A5.85,5.85,0,0,1,239.51,36a9,9,0,0,1-.84-4V31a9.77,9.77,0,0,1,.78-4.06,5.81,5.81,0,0,1,2.26-2.62,7.41,7.41,0,0,1,7.76.42,5.67,5.67,0,0,1,1.84,3.86H248.2a3.08,3.08,0,0,0-.94-2,2.94,2.94,0,0,0-2-.63,2.85,2.85,0,0,0-2.49,1.24,6.62,6.62,0,0,0-.86,3.67v1a6.22,6.22,0,0,0,.93,3.72,3.17,3.17,0,0,0,2.71,1.25,3.56,3.56,0,0,0,2.57-.77V33.4h-2.91V31h6.1Z"/><path class="cls-1" d="M271.21,26.22h-4.74v13h-3.2v-13h-4.68V23.61h12.62Z"/><path class="cls-1" d="M285.49,31.78a9.51,9.51,0,0,1-.81,4,6.16,6.16,0,0,1-2.31,2.69,6.38,6.38,0,0,1-9.24-2.66,9.36,9.36,0,0,1-.84-4V31.1a9.48,9.48,0,0,1,.83-4.07,6.09,6.09,0,0,1,2.33-2.69,6.78,6.78,0,0,1,6.89,0A6.16,6.16,0,0,1,284.67,27a9.42,9.42,0,0,1,.82,4Zm-3.23-.71a6.61,6.61,0,0,0-.88-3.73,3.07,3.07,0,0,0-5,0,6.52,6.52,0,0,0-.88,3.7v.76a6.73,6.73,0,0,0,.87,3.72,3,3,0,0,0,5,0,6.66,6.66,0,0,0,.88-3.71Z"/><path class="cls-1" d="M305.13,26.22h-4.75v13h-3.19v-13H292.5V23.61h12.63Z"/><path class="cls-1" d="M319.61,39.25h-3.2v-6.7h-6.22v6.7H307V23.61h3.2V30h6.22V23.61h3.2Z"/><path class="cls-1" d="M332,32.47h-6.14v4.19H333v2.59H322.65V23.61H333v2.61h-7.18V30H332Z"/><path class="cls-1" d="M348.6,35.14a1.66,1.66,0,0,0-.64-1.4,8.5,8.5,0,0,0-2.3-1A16.2,16.2,0,0,1,343,31.64a4.33,4.33,0,0,1-2.64-3.87,3.8,3.8,0,0,1,.71-2.26,4.64,4.64,0,0,1,2-1.56,7.68,7.68,0,0,1,3-.55,7,7,0,0,1,3,.6,4.78,4.78,0,0,1,2,1.72,4.47,4.47,0,0,1,.72,2.51h-3.19a2.11,2.11,0,0,0-.67-1.67,2.75,2.75,0,0,0-1.89-.6,3,3,0,0,0-1.82.5,1.58,1.58,0,0,0-.65,1.32,1.5,1.5,0,0,0,.77,1.27,8.16,8.16,0,0,0,2.24,1,9.75,9.75,0,0,1,4,2.05,4.12,4.12,0,0,1,1.24,3,3.79,3.79,0,0,1-1.52,3.19,6.61,6.61,0,0,1-4.1,1.15,7.88,7.88,0,0,1-3.26-.66A5.16,5.16,0,0,1,340.68,37a4.69,4.69,0,0,1-.77-2.66h3.21c0,1.72,1,2.59,3.06,2.59a3,3,0,0,0,1.78-.47A1.52,1.52,0,0,0,348.6,35.14Z"/><path class="cls-1" d="M365.83,26.22h-4.75v13h-3.19v-13h-4.68V23.61h12.62Z"/><path class="cls-1" d="M374.72,36h-5.6l-1.06,3.23h-3.4l5.77-15.64h3l5.8,15.64h-3.4ZM370,33.41h3.88l-1.95-5.85Z"/><path class="cls-1" d="M380.87,39.25V23.61h4.77a7.22,7.22,0,0,1,3.66.93,6.55,6.55,0,0,1,2.52,2.64,8.24,8.24,0,0,1,.9,3.89v.72a8.25,8.25,0,0,1-.89,3.88,6.37,6.37,0,0,1-2.51,2.63,7.27,7.27,0,0,1-3.65,1Zm3.2-13V36.66h1.54a3.43,3.43,0,0,0,2.86-1.24,5.58,5.58,0,0,0,1-3.53v-.83a5.65,5.65,0,0,0-1-3.61,3.43,3.43,0,0,0-2.86-1.23Z"/><path class="cls-1" d="M398.49,39.25h-3.2V23.61h3.2Z"/><path class="cls-1" d="M413.4,23.61v10.3A5.31,5.31,0,0,1,411.81,38a7.11,7.11,0,0,1-8.66,0,5.18,5.18,0,0,1-1.63-4V23.61h3.19V33.93a3,3,0,0,0,.73,2.24,2.79,2.79,0,0,0,2,.7c1.79,0,2.71-.95,2.73-2.85V23.61Z"/><path class="cls-1" d="M420.5,23.61l4,11.34,4-11.34h4.19V39.25h-3.2V35l.32-7.38-4.19,11.66h-2.19L419.2,27.61l.32,7.36v4.28h-3.2V23.61Z"/></g><rect class="cls-3" x="231.79" y="297.24" width="137.28" height="31.45"/><path class="cls-1" d="M277.39,314.16a.93.93,0,0,0-.36-.79,4.24,4.24,0,0,0-1.29-.56,6,6,0,0,1-1.49-.64,2,2,0,0,1-1.05-1.74,1.88,1.88,0,0,1,.76-1.55,3.06,3.06,0,0,1,2-.61,3.31,3.31,0,0,1,1.44.3,2.35,2.35,0,0,1,1,.85,2.21,2.21,0,0,1,.36,1.23h-1.34a1.21,1.21,0,0,0-.38-1,1.54,1.54,0,0,0-1.08-.34,1.66,1.66,0,0,0-1,.28,1,1,0,0,0-.36.79.86.86,0,0,0,.39.72,4.55,4.55,0,0,0,1.3.56,6.07,6.07,0,0,1,1.45.61,2.42,2.42,0,0,1,.8.79,2.1,2.1,0,0,1,.26,1,1.87,1.87,0,0,1-.74,1.55,3.25,3.25,0,0,1-2,.58,3.72,3.72,0,0,1-1.54-.32,2.56,2.56,0,0,1-1.09-.86,2.19,2.19,0,0,1-.39-1.29h1.34a1.26,1.26,0,0,0,.44,1,1.89,1.89,0,0,0,1.24.37,1.67,1.67,0,0,0,1.06-.29A.94.94,0,0,0,277.39,314.16Z"/><path class="cls-1" d="M281.06,311a2,2,0,0,1,1.6-.74c1.23,0,1.85.7,1.87,2.11v3.79h-1.29v-3.74a1.17,1.17,0,0,0-.26-.85,1.09,1.09,0,0,0-.76-.25,1.26,1.26,0,0,0-1.16.7v4.14h-1.29v-8.23h1.29Z"/><path class="cls-1" d="M289.31,315.6a2,2,0,0,1-1.61.68,1.82,1.82,0,0,1-1.42-.55,2.37,2.37,0,0,1-.48-1.6v-3.75h1.29v3.73c0,.74.31,1.11.91,1.11a1.28,1.28,0,0,0,1.27-.68v-4.16h1.29v5.79h-1.21Z"/><path class="cls-1" d="M293.5,309v1.41h1v1h-1v3.23a.73.73,0,0,0,.12.48.62.62,0,0,0,.47.15,2.3,2.3,0,0,0,.45-.05v1a2.88,2.88,0,0,1-.85.13c-1,0-1.49-.55-1.49-1.66v-3.28h-.94v-1h.94V309Z"/><path class="cls-1" d="M297.11,309v1.41h1v1h-1v3.23a.73.73,0,0,0,.13.48.6.6,0,0,0,.47.15,2.3,2.3,0,0,0,.45-.05v1a2.88,2.88,0,0,1-.85.13c-1,0-1.49-.55-1.49-1.66v-3.28h-.94v-1h.94V309Z"/><path class="cls-1" d="M300.49,316.17H299.2v-8.23h1.29Z"/><path class="cls-1" d="M304.42,316.28a2.67,2.67,0,0,1-2-.78,2.88,2.88,0,0,1-.76-2.08v-.16a3.53,3.53,0,0,1,.33-1.55,2.62,2.62,0,0,1,.94-1.06,2.46,2.46,0,0,1,1.34-.38,2.25,2.25,0,0,1,1.81.75,3.22,3.22,0,0,1,.64,2.14v.53H303a1.75,1.75,0,0,0,.48,1.13,1.42,1.42,0,0,0,1.05.42,1.72,1.72,0,0,0,1.44-.73l.7.67a2.33,2.33,0,0,1-.92.81A2.92,2.92,0,0,1,304.42,316.28Zm-.15-5a1.1,1.1,0,0,0-.86.38,2,2,0,0,0-.42,1h2.46v-.09a1.54,1.54,0,0,0-.34-1A1.05,1.05,0,0,0,304.27,311.31Z"/><path class="cls-1" d="M310.57,316.17v-7.8h2.65a3.21,3.21,0,0,1,2,.53,1.88,1.88,0,0,1,.69,1.58,1.73,1.73,0,0,1-.29,1,1.89,1.89,0,0,1-.84.66,1.72,1.72,0,0,1,1,.65,1.85,1.85,0,0,1,.35,1.13,2.09,2.09,0,0,1-.7,1.69,3.06,3.06,0,0,1-2,.59Zm1.34-4.51h1.32a1.53,1.53,0,0,0,1-.29,1.17,1.17,0,0,0,0-1.65,1.61,1.61,0,0,0-1-.25h-1.31Zm0,1v2.44h1.49a1.45,1.45,0,0,0,1-.32,1.24,1.24,0,0,0-.88-2.12Z"/><path class="cls-1" d="M320.79,315.6a2,2,0,0,1-1.62.68,1.79,1.79,0,0,1-1.41-.55,2.37,2.37,0,0,1-.48-1.6v-3.75h1.29v3.73c0,.74.3,1.11.91,1.11a1.29,1.29,0,0,0,1.27-.68v-4.16H322v5.79h-1.22Z"/><path class="cls-1" d="M326.57,314.6a.58.58,0,0,0-.28-.53,2.91,2.91,0,0,0-.94-.33,4.75,4.75,0,0,1-1.1-.35,1.47,1.47,0,0,1-1-1.36,1.56,1.56,0,0,1,.63-1.26,2.48,2.48,0,0,1,1.59-.5,2.6,2.6,0,0,1,1.67.51,1.66,1.66,0,0,1,.63,1.34h-1.29a.81.81,0,0,0-.28-.63,1.08,1.08,0,0,0-.73-.25,1.15,1.15,0,0,0-.69.2.62.62,0,0,0-.27.53.53.53,0,0,0,.25.47,3.29,3.29,0,0,0,1,.33,5,5,0,0,1,1.19.4,1.78,1.78,0,0,1,.64.56,1.44,1.44,0,0,1,.21.8,1.49,1.49,0,0,1-.64,1.26,2.68,2.68,0,0,1-1.68.49,2.92,2.92,0,0,1-1.26-.26,2,2,0,0,1-.86-.71,1.65,1.65,0,0,1-.31-1h1.25a.89.89,0,0,0,.35.71,1.29,1.29,0,0,0,.84.25,1.32,1.32,0,0,0,.78-.19A.62.62,0,0,0,326.57,314.6Z"/></g></g></g></svg>