<svg xmlns="http://www.w3.org/2000/svg" viewBox="0 0 600.49 480"><defs><style>.cls-1{fill:#fff;}.cls-2{fill:#6678a8;}.cls-3{fill:#65a4c3;}.cls-4,.cls-6{fill:none;}.cls-4{stroke:#b4d9b9;stroke-miterlimit:10;stroke-width:2px;}.cls-5{fill:#b4d9b9;}</style></defs><title>Kobe</title><g id="Layer_2" data-name="Layer 2"><g id="Layer_1-2" data-name="Layer 1"><g id="Kobe"><g id="box"><rect class="cls-1" x="1.22" y="1.86" width="599.04" height="478.14"/></g><g id="Name_of_Stadium" data-name="Name of Stadium"><rect class="cls-2" y="416.17" width="599.49" height="63.83"/><path class="cls-1" d="M228.44,438.86v-4.51h1a5.19,5.19,0,0,0,3.71-1.55,5.26,5.26,0,0,0,1.53-3.73,1,1,0,0,0-1-1.06h-6.29a1.05,1.05,0,0,0-1,1.06v9.23a70.24,70.24,0,0,0-10.94-1.58c-2-.15-4.07-.23-6.14-.25v-4.23h1a5.19,5.19,0,0,0,3.71-1.55,5.28,5.28,0,0,0,1.53-3.74,1,1,0,0,0-1-1.05h-6.29a1,1,0,0,0-1.05,1.05v9.52c-2.07,0-4.14.1-6.15.25a70.24,70.24,0,0,0-10.94,1.58v-3.95h1.05a5.19,5.19,0,0,0,3.71-1.55,5.26,5.26,0,0,0,1.53-3.73,1.05,1.05,0,0,0-1-1.06H189a1.05,1.05,0,0,0-1.05,1.06v9.79c-4.38,1.31-6.61,3-6.61,5v19c0,1.61,1.43,3,4.24,4.18,4.52,1.86,11.33,2.71,16.24,3,2.08.13,4.22.2,6.36.2s4.27-.07,6.35-.2c4.86-.31,11.71-1.15,16.24-3,2.81-1.17,4.24-2.57,4.24-4.18v-19C235,441.85,232.82,440.17,228.44,438.86Zm0-8.74h4a3.22,3.22,0,0,1-.74,1.19,3.13,3.13,0,0,1-2.23.93h-1ZM209.26,428h4a3.18,3.18,0,0,1-.74,1.18,3.13,3.13,0,0,1-2.23.93h-1Zm-19.19,2.11h4a3.36,3.36,0,0,1-.74,1.19,3.13,3.13,0,0,1-2.23.93h-1.05Zm25.84,8.76a67.61,67.61,0,0,1,9.3,1.33l-4.65,3.35c-2.16-.31-4.66-.52-7.32-.64Zm-7.7-.3c1.77,0,3.54,0,5.28.14l-2.72,4.11c-1.69,0-3.44,0-5.13,0l-2.72-4.11C204.66,438.62,206.43,438.58,208.21,438.58Zm-7.7.3,2.67,4c-2.67.12-5.16.33-7.32.63l-4.65-3.34A67.39,67.39,0,0,1,200.51,438.88Zm-12,2,4.39,3.16a20.76,20.76,0,0,0-2.48.68c-.93.33-2.15.89-2.4,1.95-3.55-1.14-4.59-2.29-4.59-2.82S184.56,442.09,188.55,440.89Zm5.72,26.23c-7.84-1.27-10.8-3.25-10.8-4.24v-3.29a12.49,12.49,0,0,0,2.17,1.11,40.27,40.27,0,0,0,8.63,2.21Zm0-6.36a37.23,37.23,0,0,1-7.84-2c-2.18-.9-3-1.75-3-2.21v-3.27a12.5,12.5,0,0,0,2.14,1.1,39.69,39.69,0,0,0,8.66,2.21Zm0-6.32c-7.84-1.28-10.8-3.25-10.8-4.24v-3.26a22.67,22.67,0,0,0,7.21,2.62c1.12.25,2.32.48,3.59.68Zm6.6,13.45c-1.55-.12-3.06-.27-4.51-.46v-4.22c1.45.19,3,.34,4.51.46Zm.12-6.33c-1.6-.13-3.15-.29-4.63-.48v-4.2c2.17.28,4.48.48,6.84.59l-.1.11A7.35,7.35,0,0,0,201,461.56Zm-4.63-6.81v-4.21a94.47,94.47,0,0,0,10.8.71v4.23A91.69,91.69,0,0,1,196.36,454.75ZM213.45,468c-1.38.07-2.79.11-4.19.13V465a1.05,1.05,0,1,0-2.1,0v3.17c-1.41,0-2.81-.06-4.19-.13v-5.32a5.23,5.23,0,0,1,8.94-3.57,5.35,5.35,0,0,1,1.54,3.58V468Zm6.6-.6c-1.44.19-3,.34-4.51.46v-4.22c1.56-.12,3.07-.27,4.51-.46Zm0-6.35c-1.48.19-3,.35-4.62.48a7.47,7.47,0,0,0-2-3.91l-.19-.18c2.37-.11,4.67-.31,6.84-.59v4.2Zm0-6.33a91.52,91.52,0,0,1-10.79.73v-4.23a94.29,94.29,0,0,0,10.79-.71Zm-11.84-5.61a89.65,89.65,0,0,1-12.74-.86c-1.41-.2-2.75-.44-4-.7l-.19-.1a6.14,6.14,0,0,1-.91-.41c2.78-1.53,11.54-2,14.74-2.11,2-.06,4.15-.06,6.17,0a84,84,0,0,1,9.42.75,16.85,16.85,0,0,1,5.32,1.36,7.25,7.25,0,0,1-1.29.55c-1.19.25-2.46.47-3.79.66A89.76,89.76,0,0,1,208.21,449.14Zm24.73,13.74c0,1-2.95,3-10.79,4.24V462.9a39.79,39.79,0,0,0,8.62-2.2,12.14,12.14,0,0,0,2.17-1.11Zm0-6.34c0,.46-.77,1.31-3,2.21a37.28,37.28,0,0,1-7.83,2v-4.18a39.74,39.74,0,0,0,8.65-2.21,12.14,12.14,0,0,0,2.14-1.1Zm0-6.34c0,1-2.95,3-10.79,4.24v-4.2c3.21-.51,8.08-1.52,10.79-3.3Zm-4.59-3.52c-.25-1.07-1.51-1.63-2.47-2a18.4,18.4,0,0,0-2.41-.66l4.39-3.16c4,1.2,5.08,2.42,5.08,3S231.9,445.55,228.35,446.68Z"/><path class="cls-1" d="M253.09,452.46l-1.21,1.31V457h-2.32V445.67h2.32v5.14l1-1.41,2.87-3.73h2.85l-4,5,4.11,6.3H256Z"/><path class="cls-1" d="M268.61,451.59a6.92,6.92,0,0,1-.58,2.94,4.47,4.47,0,0,1-4.19,2.64,4.69,4.69,0,0,1-2.5-.68,4.48,4.48,0,0,1-1.7-1.94,6.78,6.78,0,0,1-.61-2.89v-.56a6.85,6.85,0,0,1,.6-3,4.52,4.52,0,0,1,1.69-2,4.94,4.94,0,0,1,5,0,4.45,4.45,0,0,1,1.69,2,6.83,6.83,0,0,1,.6,2.94Zm-2.35-.51a4.82,4.82,0,0,0-.63-2.71,2.22,2.22,0,0,0-3.61,0,4.71,4.71,0,0,0-.64,2.68v.55a4.9,4.9,0,0,0,.63,2.7,2.07,2.07,0,0,0,1.83,1,2,2,0,0,0,1.79-.92,4.81,4.81,0,0,0,.63-2.7Z"/><path class="cls-1" d="M270.3,457V445.67h3.94a5.15,5.15,0,0,1,3.11.79,2.71,2.71,0,0,1,1,2.31,2.59,2.59,0,0,1-.42,1.47,2.38,2.38,0,0,1-1.18.93,2.41,2.41,0,0,1,1.36.88,2.67,2.67,0,0,1,.5,1.62,3,3,0,0,1-1,2.48,4.63,4.63,0,0,1-2.95.86Zm2.32-6.59h1.71c1.17,0,1.76-.49,1.76-1.41a1.29,1.29,0,0,0-.45-1.11,2.29,2.29,0,0,0-1.4-.34h-1.62Zm0,1.65v3.06h2a1.92,1.92,0,0,0,1.28-.39,1.35,1.35,0,0,0,.46-1.09,1.41,1.41,0,0,0-1.6-1.58Z"/><path class="cls-1" d="M287.17,452.09h-4.45v3h5.22V457H280.4V445.67h7.52v1.89h-5.2v2.7h4.45Z"/><path class="cls-1" d="M296.27,445.67l2.89,8.22,2.88-8.22h3V457h-2.33v-3.1l.24-5.35L300,457h-1.59l-3-8.45.23,5.35V457h-2.32V445.67Z"/><path class="cls-1" d="M309.57,457h-2.32V445.67h2.32Z"/><path class="cls-1" d="M317.55,454a1.18,1.18,0,0,0-.46-1,6,6,0,0,0-1.67-.75,11.26,11.26,0,0,1-1.91-.78,3.13,3.13,0,0,1-1.92-2.81,2.78,2.78,0,0,1,.52-1.64,3.34,3.34,0,0,1,1.47-1.13,5.58,5.58,0,0,1,2.16-.4,5.07,5.07,0,0,1,2.15.44,3.45,3.45,0,0,1,1.47,1.24,3.25,3.25,0,0,1,.52,1.82h-2.32a1.53,1.53,0,0,0-.49-1.21,2,2,0,0,0-1.36-.43,2.17,2.17,0,0,0-1.33.36,1.16,1.16,0,0,0-.47,1,1.1,1.1,0,0,0,.56.93,6.52,6.52,0,0,0,1.62.7A7,7,0,0,1,319,451.8a3,3,0,0,1,.91,2.22,2.74,2.74,0,0,1-1.11,2.31,4.78,4.78,0,0,1-3,.84,5.87,5.87,0,0,1-2.37-.48,3.7,3.7,0,0,1-1.62-1.32,3.32,3.32,0,0,1-.56-1.93h2.32c0,1.25.75,1.88,2.23,1.88a2.13,2.13,0,0,0,1.29-.34A1.11,1.11,0,0,0,317.55,454Z"/><path class="cls-1" d="M327.8,454.67h-4.07L323,457H320.5l4.18-11.34h2.15L331,457h-2.46Zm-3.44-1.89h2.81l-1.41-4.25Z"/><path class="cls-1" d="M335.62,452.46l-1.2,1.31V457H332.1V445.67h2.32v5.14l1-1.41,2.87-3.73h2.85l-4,5,4.11,6.3h-2.76Z"/><path class="cls-1" d="M344.61,457h-2.32V445.67h2.32Z"/><path class="cls-1" d="M356.53,454a1.18,1.18,0,0,0-.46-1,6,6,0,0,0-1.67-.75,10.92,10.92,0,0,1-1.91-.78,3.13,3.13,0,0,1-1.92-2.81,2.72,2.72,0,0,1,.52-1.64,3.34,3.34,0,0,1,1.47-1.13,5.54,5.54,0,0,1,2.16-.4,5.07,5.07,0,0,1,2.15.44,3.45,3.45,0,0,1,1.47,1.24,3.34,3.34,0,0,1,.52,1.82h-2.32a1.53,1.53,0,0,0-.49-1.21,2,2,0,0,0-1.37-.43,2.16,2.16,0,0,0-1.32.36,1.16,1.16,0,0,0-.47,1,1.12,1.12,0,0,0,.55.93,6.62,6.62,0,0,0,1.63.7A7,7,0,0,1,358,451.8a3,3,0,0,1,.91,2.22,2.74,2.74,0,0,1-1.11,2.31,4.78,4.78,0,0,1-3,.84,5.87,5.87,0,0,1-2.37-.48,3.7,3.7,0,0,1-1.62-1.32,3.32,3.32,0,0,1-.56-1.93h2.32c0,1.25.74,1.88,2.23,1.88a2.13,2.13,0,0,0,1.29-.34A1.11,1.11,0,0,0,356.53,454Z"/><path class="cls-1" d="M368.9,447.56h-3.45V457h-2.32v-9.45h-3.4v-1.89h9.17Z"/><path class="cls-1" d="M375.64,454.67h-4.06L370.8,457h-2.46l4.19-11.34h2.15L378.89,457h-2.47Zm-3.44-1.89H375l-1.42-4.25Z"/><path class="cls-1" d="M379.94,457V445.67h3.46a5.19,5.19,0,0,1,2.65.67,4.74,4.74,0,0,1,1.83,1.91,6,6,0,0,1,.66,2.83v.52a5.94,5.94,0,0,1-.65,2.81,4.54,4.54,0,0,1-1.82,1.91,5.21,5.21,0,0,1-2.65.69Zm2.32-9.45v7.57h1.12a2.54,2.54,0,0,0,2.08-.89,4.16,4.16,0,0,0,.73-2.57v-.6a4.15,4.15,0,0,0-.71-2.62,2.52,2.52,0,0,0-2.08-.89Z"/><path class="cls-1" d="M392.69,457h-2.32V445.67h2.32Z"/><path class="cls-1" d="M403.35,445.67v7.47a3.83,3.83,0,0,1-1.15,2.94,4.44,4.44,0,0,1-3.16,1.09,4.49,4.49,0,0,1-3.13-1.06,3.79,3.79,0,0,1-1.18-2.89v-7.55h2.32v7.48a2.16,2.16,0,0,0,.53,1.63,2,2,0,0,0,1.46.51c1.3,0,2-.69,2-2.08v-7.54Z"/><path class="cls-1" d="M408.28,445.67l2.89,8.22,2.88-8.22h3V457h-2.32v-3.1l.23-5.35L412,457h-1.59l-3-8.45.23,5.35V457h-2.32V445.67Z"/></g><path d="M247.07,400.31l.46-4.29h4.53v1.23H248.7l-.23,2a2.65,2.65,0,0,1,1.32-.34,2.36,2.36,0,0,1,1.88.78,3.14,3.14,0,0,1,.66,2.09,2.82,2.82,0,0,1-.74,2.07,2.69,2.69,0,0,1-2,.77,2.79,2.79,0,0,1-1.92-.67,2.38,2.38,0,0,1-.83-1.75h1.36a1.52,1.52,0,0,0,.44.95,1.35,1.35,0,0,0,.94.33,1.19,1.19,0,0,0,1-.46,2,2,0,0,0,.37-1.28,1.82,1.82,0,0,0-.4-1.23,1.42,1.42,0,0,0-1.11-.45,1.72,1.72,0,0,0-.64.1,1.84,1.84,0,0,0-.58.4Z"/><path d="M257.81,398.21l0,.66a2.25,2.25,0,0,1,1.81-.78,1.72,1.72,0,0,1,1.72,1,2.22,2.22,0,0,1,1.93-1,1.93,1.93,0,0,1,1.54.58,2.55,2.55,0,0,1,.52,1.71v4.15H264v-4.11a1.31,1.31,0,0,0-.26-.89,1.15,1.15,0,0,0-.86-.28,1.19,1.19,0,0,0-.79.26,1.41,1.41,0,0,0-.42.68v4.34h-1.41v-4.16a1,1,0,0,0-1.13-1.12,1.26,1.26,0,0,0-1.2.7v4.58h-1.41v-6.32Z"/><path d="M266.82,396.57a.71.71,0,0,1,.79-.76.79.79,0,0,1,.59.21.77.77,0,0,1,.21.55.72.72,0,0,1-.21.53.79.79,0,0,1-.59.21.8.8,0,0,1-.59-.21A.76.76,0,0,1,266.82,396.57Zm1.49,8h-1.4v-6.32h1.4Z"/><path d="M271.15,398.21l0,.73a2.26,2.26,0,0,1,1.83-.85c1.31,0,2,.75,2,2.26v4.18h-1.4v-4.1a1.33,1.33,0,0,0-.26-.89,1.12,1.12,0,0,0-.85-.29,1.37,1.37,0,0,0-1.27.78v4.5h-1.4v-6.32Z"/><path d="M280,402.81a.65.65,0,0,0-.31-.58,3.25,3.25,0,0,0-1-.35,5.86,5.86,0,0,1-1.2-.38,1.61,1.61,0,0,1-1.05-1.49,1.7,1.7,0,0,1,.68-1.37,2.69,2.69,0,0,1,1.74-.55,2.82,2.82,0,0,1,1.82.56,1.8,1.8,0,0,1,.69,1.46h-1.41a.87.87,0,0,0-.3-.68,1.14,1.14,0,0,0-.8-.28,1.24,1.24,0,0,0-.75.22.68.68,0,0,0-.3.58.57.57,0,0,0,.28.51,3.6,3.6,0,0,0,1.1.36,5.58,5.58,0,0,1,1.3.44,1.84,1.84,0,0,1,.7.61,1.61,1.61,0,0,1,.23.87,1.67,1.67,0,0,1-.7,1.38,3,3,0,0,1-1.84.53,3.32,3.32,0,0,1-1.37-.28,2.27,2.27,0,0,1-.94-.77,1.81,1.81,0,0,1-.34-1.06h1.37a1,1,0,0,0,.38.77,1.44,1.44,0,0,0,.92.27,1.41,1.41,0,0,0,.84-.21A.65.65,0,0,0,280,402.81Z"/><path d="M291,402.57l1-4.36h1.37l-1.71,6.32h-1.16l-1.34-4.34-1.32,4.34h-1.16L285,398.21h1.37l1,4.32,1.28-4.32h1.07Z"/><path d="M298.1,404.53a2.08,2.08,0,0,1-.16-.59,2.2,2.2,0,0,1-1.65.71,2.17,2.17,0,0,1-1.54-.55,1.73,1.73,0,0,1-.6-1.34,1.8,1.8,0,0,1,.75-1.55,3.56,3.56,0,0,1,2.13-.54h.86v-.42a1.1,1.1,0,0,0-.27-.78,1.07,1.07,0,0,0-.83-.3,1.26,1.26,0,0,0-.79.24.79.79,0,0,0-.31.62h-1.4a1.55,1.55,0,0,1,.34-1,2.25,2.25,0,0,1,.93-.71,3.26,3.26,0,0,1,1.31-.26,2.65,2.65,0,0,1,1.76.56,2,2,0,0,1,.67,1.57v2.85a3.22,3.22,0,0,0,.24,1.36v.1Zm-1.55-1a1.58,1.58,0,0,0,.79-.21,1.33,1.33,0,0,0,.55-.55v-1.19h-.76a2,2,0,0,0-1.18.28.88.88,0,0,0-.39.77.85.85,0,0,0,.27.66A1,1,0,0,0,296.55,403.51Z"/><path d="M302.27,404.53h-1.41v-9h1.41Z"/><path d="M305.84,401.82l-.63.65v2.06h-1.4v-9h1.4v5.18l.45-.55,1.73-2h1.69l-2.33,2.63,2.58,3.69H307.7Z"/><path class="cls-3" d="M208.15,373.43l2.53,7.2,2.52-7.2h2.66v9.93h-2v-2.71L214,376l-2.66,7.4H210L207.33,376l.2,4.68v2.71h-2v-9.93Z"/><path class="cls-3" d="M219.79,383.36h-2v-9.93h2Z"/><path class="cls-3" d="M226.78,380.75a1.07,1.07,0,0,0-.41-.89,5.59,5.59,0,0,0-1.46-.65,10.71,10.71,0,0,1-1.67-.68,2.75,2.75,0,0,1-1.68-2.46,2.39,2.39,0,0,1,.45-1.43,2.91,2.91,0,0,1,1.29-1,4.82,4.82,0,0,1,1.89-.35,4.33,4.33,0,0,1,1.88.38,3.07,3.07,0,0,1,1.29,1.09,2.89,2.89,0,0,1,.45,1.59h-2a1.37,1.37,0,0,0-.42-1.06,1.78,1.78,0,0,0-1.2-.37,1.88,1.88,0,0,0-1.16.31,1,1,0,0,0-.41.84,1,1,0,0,0,.49.81,5.25,5.25,0,0,0,1.42.61,6.27,6.27,0,0,1,2.52,1.3,2.61,2.61,0,0,1,.79,1.94,2.38,2.38,0,0,1-1,2,4.18,4.18,0,0,1-2.6.74,5,5,0,0,1-2.07-.42,3.35,3.35,0,0,1-1.42-1.15,2.94,2.94,0,0,1-.49-1.69h2c0,1.09.65,1.64,2,1.64a1.87,1.87,0,0,0,1.13-.3A1,1,0,0,0,226.78,380.75Z"/><path class="cls-3" d="M235.74,381.31h-3.55l-.68,2.05h-2.16l3.67-9.93h1.88l3.68,9.93h-2.15Zm-3-1.65h2.47L234,375.94Z"/><path class="cls-3" d="M242.58,379.38l-1.05,1.14v2.84h-2v-9.93h2v4.5l.89-1.23,2.51-3.27h2.5l-3.5,4.41,3.6,5.52h-2.42Z"/><path class="cls-3" d="M250.45,383.36h-2v-9.93h2Z"/><path class="cls-3" d="M258.86,379.38l-1.05,1.14v2.84h-2v-9.93h2v4.5l.89-1.23,2.51-3.27h2.49l-3.49,4.41,3.59,5.52h-2.41Z"/><path class="cls-3" d="M272.45,378.62a6.08,6.08,0,0,1-.52,2.57,3.78,3.78,0,0,1-1.47,1.7,4.27,4.27,0,0,1-4.38,0,4,4,0,0,1-1.49-1.69,6,6,0,0,1-.53-2.54v-.49a6.19,6.19,0,0,1,.52-2.58,4,4,0,0,1,1.49-1.71,4.07,4.07,0,0,1,2.18-.59,4.13,4.13,0,0,1,2.19.59,3.94,3.94,0,0,1,1.48,1.71,6,6,0,0,1,.53,2.58Zm-2.06-.45a4.19,4.19,0,0,0-.55-2.37,1.81,1.81,0,0,0-1.59-.81,1.78,1.78,0,0,0-1.57.8,4.1,4.1,0,0,0-.56,2.35v.48a4.27,4.27,0,0,0,.55,2.36,1.94,1.94,0,0,0,3.17,0,4.24,4.24,0,0,0,.55-2.36Z"/><path class="cls-3" d="M279.84,379.06H276v2.66h4.57v1.64h-6.6v-9.93h6.58v1.66H276v2.37h3.89Z"/><path class="cls-3" d="M289.71,383.36h-2l-3.95-6.53v6.53h-2v-9.93h2l3.95,6.55v-6.55h2Z"/><path class="cls-3" d="M300,380.75a1.07,1.07,0,0,0-.41-.89,5.44,5.44,0,0,0-1.46-.65,10.71,10.71,0,0,1-1.67-.68,2.76,2.76,0,0,1-1.67-2.46,2.39,2.39,0,0,1,.45-1.43,2.91,2.91,0,0,1,1.29-1,4.75,4.75,0,0,1,1.89-.35,4.36,4.36,0,0,1,1.88.38,3,3,0,0,1,1.28,1.09,2.9,2.9,0,0,1,.46,1.59h-2a1.38,1.38,0,0,0-.43-1.06,1.74,1.74,0,0,0-1.2-.37,1.85,1.85,0,0,0-1.15.31,1,1,0,0,0-.41.84,1,1,0,0,0,.48.81,5.25,5.25,0,0,0,1.42.61,6.13,6.13,0,0,1,2.52,1.3,2.62,2.62,0,0,1,.8,1.94,2.41,2.41,0,0,1-1,2,4.21,4.21,0,0,1-2.61.74,5,5,0,0,1-2.06-.42,3.32,3.32,0,0,1-1.43-1.15,3,3,0,0,1-.49-1.69h2c0,1.09.65,1.64,1.94,1.64a1.85,1.85,0,0,0,1.13-.3A1,1,0,0,0,300,380.75Z"/><path class="cls-3" d="M310.86,375.09h-3v8.27h-2v-8.27h-3v-1.66h8Z"/><path class="cls-3" d="M316.76,381.31h-3.55l-.68,2.05h-2.16l3.67-9.93h1.88l3.68,9.93h-2.16Zm-3-1.65h2.46L315,375.94Z"/><path class="cls-3" d="M327.12,375.09h-3v8.27h-2v-8.27h-3v-1.66h8Z"/><path class="cls-3" d="M330.43,383.36h-2v-9.93h2Z"/><path class="cls-3" d="M340.4,378.62a6.08,6.08,0,0,1-.51,2.57,3.9,3.9,0,0,1-1.47,1.7,4.27,4.27,0,0,1-4.38,0,3.91,3.91,0,0,1-1.49-1.69,5.85,5.85,0,0,1-.53-2.54v-.49a6,6,0,0,1,.52-2.58,3.94,3.94,0,0,1,1.48-1.71,4.36,4.36,0,0,1,4.38,0,4,4,0,0,1,1.48,1.71,6,6,0,0,1,.52,2.58Zm-2.06-.45a4.19,4.19,0,0,0-.55-2.37,2,2,0,0,0-3.16,0,4.18,4.18,0,0,0-.56,2.35v.48a4.27,4.27,0,0,0,.56,2.36,1.93,1.93,0,0,0,3.16,0,4.16,4.16,0,0,0,.55-2.36Z"/><path class="cls-3" d="M349.88,383.36h-2l-4-6.53v6.53h-2v-9.93h2l4,6.55v-6.55h2Z"/><g id="arrow"><line class="cls-4" x1="277.05" y1="340.58" x2="277.05" y2="355.68"/><polygon class="cls-5" points="269.99 351.9 284.11 351.9 276.62 359.45 269.99 351.9"/></g><g id="column_2" data-name="column 2"><rect class="cls-6" x="351.14" y="63.76" width="199.68" height="415.22"/><rect class="cls-3" x="382.34" y="233.63" width="137.28" height="31.46"/><path class="cls-1" d="M415,249.77v2.9h-1.34v-7.8h3a3,3,0,0,1,2.06.68,2.31,2.31,0,0,1,.76,1.8,2.23,2.23,0,0,1-.75,1.79,3.14,3.14,0,0,1-2.09.63Zm0-1.09h1.62a1.57,1.57,0,0,0,1.09-.34,1.26,1.26,0,0,0,.38-1,1.37,1.37,0,0,0-.38-1,1.51,1.51,0,0,0-1.06-.39H415Z"/><path class="cls-1" d="M420.13,249.71a3.5,3.5,0,0,1,.33-1.53,2.47,2.47,0,0,1,.94-1.05,2.67,2.67,0,0,1,1.39-.37,2.47,2.47,0,0,1,1.89.76,2.9,2.9,0,0,1,.78,2v.31a3.44,3.44,0,0,1-.33,1.53,2.36,2.36,0,0,1-.93,1,2.65,2.65,0,0,1-1.41.37,2.47,2.47,0,0,1-1.94-.81,3.14,3.14,0,0,1-.73-2.18Zm1.29.12a2.4,2.4,0,0,0,.36,1.4,1.19,1.19,0,0,0,1,.5,1.18,1.18,0,0,0,1-.51,2.61,2.61,0,0,0,.36-1.51,2.33,2.33,0,0,0-.37-1.39,1.26,1.26,0,0,0-2,0A2.56,2.56,0,0,0,421.42,249.83Z"/><path class="cls-1" d="M429.57,248.06a3,3,0,0,0-.52,0,1.19,1.19,0,0,0-1.2.68v4h-1.29v-5.8h1.23l0,.65a1.46,1.46,0,0,1,1.3-.76,1.22,1.22,0,0,1,.46.08Z"/><path class="cls-1" d="M432.27,245.46v1.41h1v1h-1v3.24a.71.71,0,0,0,.13.48.6.6,0,0,0,.47.15,1.8,1.8,0,0,0,.45-.06v1a3.28,3.28,0,0,1-.85.12c-1,0-1.49-.55-1.49-1.65v-3.29h-1v-1h1v-1.41Z"/><path class="cls-1" d="M438.52,252.67h-1.34v-7.8h1.34Z"/><path class="cls-1" d="M443.27,251.09a.59.59,0,0,0-.28-.53,3,3,0,0,0-.94-.32,4.75,4.75,0,0,1-1.1-.35,1.48,1.48,0,0,1-1-1.37,1.53,1.53,0,0,1,.63-1.25,2.43,2.43,0,0,1,1.59-.51,2.55,2.55,0,0,1,1.67.52,1.63,1.63,0,0,1,.63,1.33h-1.29a.77.77,0,0,0-.28-.62,1,1,0,0,0-.73-.25,1.09,1.09,0,0,0-.69.2.62.62,0,0,0-.27.53.51.51,0,0,0,.25.46,3.23,3.23,0,0,0,1,.34,4.56,4.56,0,0,1,1.19.4,1.61,1.61,0,0,1,.64.56,1.43,1.43,0,0,1,.21.79,1.52,1.52,0,0,1-.64,1.27,2.74,2.74,0,0,1-1.68.48,3,3,0,0,1-1.26-.25,2.1,2.1,0,0,1-.86-.71,1.65,1.65,0,0,1-.31-1H441a.91.91,0,0,0,.35.71,1.35,1.35,0,0,0,.84.25,1.32,1.32,0,0,0,.78-.2A.62.62,0,0,0,443.27,251.09Z"/><path class="cls-1" d="M447,252.67h-1.29v-8.23H447Z"/><path class="cls-1" d="M451.88,252.67a1.79,1.79,0,0,1-.15-.55,2,2,0,0,1-1.51.65,2,2,0,0,1-1.41-.49,1.61,1.61,0,0,1-.55-1.24,1.64,1.64,0,0,1,.69-1.42,3.26,3.26,0,0,1,1.95-.5h.79v-.37a1,1,0,0,0-.25-.73,1,1,0,0,0-.76-.27,1.11,1.11,0,0,0-.72.23.66.66,0,0,0-.28.56h-1.3a1.45,1.45,0,0,1,.32-.89,2.08,2.08,0,0,1,.85-.65,2.92,2.92,0,0,1,1.2-.24,2.39,2.39,0,0,1,1.61.51,1.85,1.85,0,0,1,.62,1.44v2.62a3,3,0,0,0,.22,1.25v.09Zm-1.42-.94a1.39,1.39,0,0,0,.72-.19,1.17,1.17,0,0,0,.51-.5V250H451a1.84,1.84,0,0,0-1.07.25.86.86,0,0,0-.12,1.31A1,1,0,0,0,450.46,251.73Z"/><path class="cls-1" d="M455.53,246.87l0,.67a2,2,0,0,1,1.67-.78c1.2,0,1.81.69,1.83,2.08v3.83h-1.29v-3.76a1.2,1.2,0,0,0-.24-.82,1,1,0,0,0-.77-.26,1.26,1.26,0,0,0-1.17.71v4.13h-1.29v-5.8Z"/><path class="cls-1" d="M460.14,249.73a3.5,3.5,0,0,1,.62-2.16,2,2,0,0,1,1.65-.81,1.88,1.88,0,0,1,1.48.65v-3h1.29v8.23H464l-.06-.6a1.91,1.91,0,0,1-1.55.7,1.94,1.94,0,0,1-1.63-.82A3.55,3.55,0,0,1,460.14,249.73Zm1.29.11a2.39,2.39,0,0,0,.34,1.38,1.09,1.09,0,0,0,1,.49,1.21,1.21,0,0,0,1.16-.71v-2.47a1.2,1.2,0,0,0-1.15-.7,1.11,1.11,0,0,0-1,.5A2.76,2.76,0,0,0,461.43,249.84Z"/><path class="cls-1" d="M470.7,251.58h3.52v1.09h-4.86v-7.8h1.34Z"/><path class="cls-1" d="M475.12,245.37a.72.72,0,0,1,.19-.5.73.73,0,0,1,.54-.2.72.72,0,0,1,.54.2.68.68,0,0,1,.19.5.69.69,0,0,1-.19.49.71.71,0,0,1-.54.19.66.66,0,0,1-.73-.68Zm1.37,7.3H475.2v-5.8h1.29Z"/><path class="cls-1" d="M479.1,246.87l0,.67a2.08,2.08,0,0,1,1.68-.78c1.2,0,1.81.69,1.83,2.08v3.83h-1.3v-3.76a1.2,1.2,0,0,0-.23-.82,1,1,0,0,0-.77-.26,1.26,1.26,0,0,0-1.17.71v4.13h-1.29v-5.8Z"/><path class="cls-1" d="M486.48,252.77a2.66,2.66,0,0,1-2-.78,2.83,2.83,0,0,1-.76-2.07v-.16a3.5,3.5,0,0,1,.33-1.55,2.56,2.56,0,0,1,.93-1.07,2.49,2.49,0,0,1,1.34-.38,2.24,2.24,0,0,1,1.82.76,3.23,3.23,0,0,1,.64,2.14v.52H485a1.76,1.76,0,0,0,.48,1.14,1.44,1.44,0,0,0,1.05.41A1.74,1.74,0,0,0,488,251l.7.67a2.33,2.33,0,0,1-.92.81A2.92,2.92,0,0,1,486.48,252.77Zm-.15-5a1.08,1.08,0,0,0-.86.37,1.94,1.94,0,0,0-.42,1h2.46v-.1a1.65,1.65,0,0,0-.34-1A1.08,1.08,0,0,0,486.33,247.81Z"/><path d="M425.71,225h1.1v1.2h-1.1v2h-1.48v-2H420.4l0-.91,3.83-6h1.53Zm-3.8,0h2.32V221.3l-.11.19Z"/><path d="M429.51,223.07h.9a1.67,1.67,0,0,0,1.08-.36,1.25,1.25,0,0,0,.4-1,1.42,1.42,0,0,0-.33-1,1.35,1.35,0,0,0-1-.35,1.43,1.43,0,0,0-1,.35,1.17,1.17,0,0,0-.38.9H427.7a2.3,2.3,0,0,1,.36-1.25,2.41,2.41,0,0,1,1-.88,3.3,3.3,0,0,1,1.46-.32,3,3,0,0,1,2.08.68,2.34,2.34,0,0,1,.76,1.87,1.92,1.92,0,0,1-.38,1.13,2.4,2.4,0,0,1-1,.8,2.24,2.24,0,0,1,1.11.79,2.21,2.21,0,0,1,.38,1.29,2.39,2.39,0,0,1-.82,1.92,3.13,3.13,0,0,1-2.15.71,3.17,3.17,0,0,1-2.1-.68,2.27,2.27,0,0,1-.82-1.84h1.48a1.22,1.22,0,0,0,.4,1,1.45,1.45,0,0,0,1.05.37,1.53,1.53,0,0,0,1.09-.37,1.39,1.39,0,0,0,.39-1.07,1.37,1.37,0,0,0-.41-1.08,1.74,1.74,0,0,0-1.23-.38h-.87Z"/><path d="M439.48,221.57l0,.7a2.34,2.34,0,0,1,1.9-.82,1.83,1.83,0,0,1,1.81,1,2.33,2.33,0,0,1,2-1,2,2,0,0,1,1.62.61,2.66,2.66,0,0,1,.55,1.79v4.37H446V223.9a1.28,1.28,0,0,0-.28-.93,1.16,1.16,0,0,0-.9-.3,1.19,1.19,0,0,0-.83.28,1.5,1.5,0,0,0-.45.71v4.56H442v-4.37a1.06,1.06,0,0,0-1.19-1.18,1.32,1.32,0,0,0-1.26.73v4.82h-1.48v-6.65Z"/><path d="M449,219.85a.81.81,0,0,1,.22-.57.78.78,0,0,1,.62-.23.79.79,0,0,1,.62.23.84.84,0,0,1,0,1.13.83.83,0,0,1-.62.22.76.76,0,0,1-.84-.78Zm1.58,8.37H449v-6.65h1.49Z"/><path d="M453.51,221.57l0,.77a2.38,2.38,0,0,1,1.92-.89c1.38,0,2.07.79,2.1,2.38v4.39h-1.48v-4.31a1.36,1.36,0,0,0-.27-.93,1.12,1.12,0,0,0-.89-.31,1.42,1.42,0,0,0-1.33.82v4.73h-1.48v-6.65Z"/><path d="M462.77,226.41a.66.66,0,0,0-.32-.6,3.31,3.31,0,0,0-1.08-.37,5.42,5.42,0,0,1-1.27-.41,1.7,1.7,0,0,1-1.1-1.56,1.78,1.78,0,0,1,.71-1.44,2.81,2.81,0,0,1,1.83-.58,2.94,2.94,0,0,1,1.91.59,1.86,1.86,0,0,1,.73,1.53H462.7a.93.93,0,0,0-.32-.72,1.2,1.2,0,0,0-.84-.28,1.24,1.24,0,0,0-.79.23.7.7,0,0,0-.31.6.62.62,0,0,0,.29.54,3.81,3.81,0,0,0,1.15.38,5.87,5.87,0,0,1,1.37.46,2.06,2.06,0,0,1,.74.64,1.67,1.67,0,0,1,.24.91,1.75,1.75,0,0,1-.74,1.46,3.11,3.11,0,0,1-1.93.55,3.31,3.31,0,0,1-1.44-.29,2.43,2.43,0,0,1-1-.81,1.92,1.92,0,0,1-.35-1.11h1.43a1.06,1.06,0,0,0,.4.81,1.53,1.53,0,0,0,1,.29,1.48,1.48,0,0,0,.89-.23A.7.7,0,0,0,462.77,226.41Z"/><path d="M468.35,224.84a4,4,0,0,1,.38-1.76,2.84,2.84,0,0,1,1.08-1.21,3.06,3.06,0,0,1,1.6-.42,2.88,2.88,0,0,1,2.17.87,3.39,3.39,0,0,1,.89,2.29V225a4.1,4.1,0,0,1-.37,1.76,2.74,2.74,0,0,1-1.08,1.2,3,3,0,0,1-1.61.42,2.85,2.85,0,0,1-2.23-.93,3.62,3.62,0,0,1-.84-2.5Zm1.48.12a2.7,2.7,0,0,0,.42,1.61,1.35,1.35,0,0,0,1.17.58,1.34,1.34,0,0,0,1.17-.59,3,3,0,0,0,.41-1.72,2.69,2.69,0,0,0-.42-1.6,1.36,1.36,0,0,0-1.17-.59,1.33,1.33,0,0,0-1.15.58A2.87,2.87,0,0,0,469.83,225Z"/><path d="M477.11,221.57l0,.77a2.38,2.38,0,0,1,1.92-.89c1.37,0,2.07.79,2.1,2.38v4.39h-1.49v-4.31a1.36,1.36,0,0,0-.27-.93,1.1,1.1,0,0,0-.88-.31,1.44,1.44,0,0,0-1.34.82v4.73h-1.48v-6.65Z"/><line class="cls-4" x1="447.8" y1="190.85" x2="447.8" y2="205.95"/><polygon class="cls-5" points="440.74 202.17 454.86 202.17 447.37 209.72 440.74 202.17"/><path class="cls-3" d="M437.53,158.09l-1,1.15v2.83h-2v-9.92h2v4.5l.89-1.24,2.51-3.26h2.49l-3.49,4.41,3.59,5.51h-2.41Z"/><path class="cls-3" d="M451.12,157.33a5.9,5.9,0,0,1-.52,2.57,3.86,3.86,0,0,1-1.47,1.71,4,4,0,0,1-2.19.6,4.13,4.13,0,0,1-2.19-.59,3.91,3.91,0,0,1-1.48-1.7,5.81,5.81,0,0,1-.54-2.53v-.49a6,6,0,0,1,.53-2.58,3.83,3.83,0,0,1,1.48-1.71,4.28,4.28,0,0,1,4.37,0,3.83,3.83,0,0,1,1.48,1.71,6,6,0,0,1,.53,2.57Zm-2.06-.45a4.19,4.19,0,0,0-.55-2.37,2,2,0,0,0-3.16,0,4.14,4.14,0,0,0-.56,2.35v.48a4.25,4.25,0,0,0,.55,2.36,1.94,1.94,0,0,0,3.17,0,4.2,4.2,0,0,0,.55-2.35Z"/><path class="cls-3" d="M452.59,162.07v-9.92H456a4.53,4.53,0,0,1,2.72.69,2.39,2.39,0,0,1,.92,2,2.24,2.24,0,0,1-.37,1.28,2.21,2.21,0,0,1-1,.82,2,2,0,0,1,1.19.77,2.28,2.28,0,0,1,.44,1.41,2.64,2.64,0,0,1-.91,2.17,4,4,0,0,1-2.58.75Zm2-5.77h1.5q1.53,0,1.53-1.23a1.17,1.17,0,0,0-.38-1,2,2,0,0,0-1.23-.3h-1.42Zm0,1.45v2.68h1.74a1.69,1.69,0,0,0,1.12-.35,1.19,1.19,0,0,0,.4-1,1.24,1.24,0,0,0-1.4-1.38Z"/><path class="cls-3" d="M467.35,157.77h-3.89v2.66H468v1.64h-6.6v-9.92H468v1.65h-4.55v2.37h3.89Z"/><path class="cls-3" d="M428.72,176.78h-3.56l-.67,2.05h-2.16L426,168.9h1.88l3.69,9.93H429.4Zm-3-1.66h2.46l-1.24-3.71Z"/><path class="cls-3" d="M434.63,178.83h-2V168.9h2Z"/><path class="cls-3" d="M440.16,175.19h-1.62v3.64h-2V168.9h3.66a4.11,4.11,0,0,1,2.69.78,2.72,2.72,0,0,1,.95,2.22,3.05,3.05,0,0,1-.43,1.69,3,3,0,0,1-1.33,1.08l2.13,4.06v.1H442Zm-1.62-1.65h1.64a1.62,1.62,0,0,0,1.18-.4,1.4,1.4,0,0,0,.42-1.08,1.52,1.52,0,0,0-.39-1.1,1.65,1.65,0,0,0-1.22-.4h-1.63Z"/><path class="cls-3" d="M447.38,175.33v3.5h-2V168.9h3.84a4.44,4.44,0,0,1,1.95.41,2.94,2.94,0,0,1,1.3,1.16,3.27,3.27,0,0,1,.45,1.72,2.86,2.86,0,0,1-1,2.3,4.1,4.1,0,0,1-2.74.84Zm0-1.66h1.81a1.79,1.79,0,0,0,1.23-.38,1.39,1.39,0,0,0,.42-1.09,1.65,1.65,0,0,0-.42-1.18,1.6,1.6,0,0,0-1.18-.46h-1.86Z"/><path class="cls-3" d="M462.37,174.09a6.08,6.08,0,0,1-.51,2.57,4,4,0,0,1-1.47,1.7,4.06,4.06,0,0,1-2.2.6,4.12,4.12,0,0,1-2.18-.59,4,4,0,0,1-1.49-1.69,5.85,5.85,0,0,1-.53-2.54v-.49a6,6,0,0,1,.52-2.58,3.94,3.94,0,0,1,1.48-1.71,4,4,0,0,1,5.86,1.71,6,6,0,0,1,.52,2.57Zm-2.05-.45a4.19,4.19,0,0,0-.56-2.37,1.94,1.94,0,0,0-3.16,0,4.16,4.16,0,0,0-.56,2.34v.49a4.27,4.27,0,0,0,.56,2.36,1.93,1.93,0,0,0,3.16,0,4.26,4.26,0,0,0,.56-2.36Z"/><path class="cls-3" d="M467.49,175.19h-1.62v3.64h-2V168.9h3.65a4.16,4.16,0,0,1,2.7.78,2.74,2.74,0,0,1,.94,2.22,3.05,3.05,0,0,1-.43,1.69,2.9,2.9,0,0,1-1.33,1.08l2.13,4.06v.1h-2.17Zm-1.62-1.65h1.64a1.62,1.62,0,0,0,1.18-.4,1.4,1.4,0,0,0,.42-1.08,1.52,1.52,0,0,0-.39-1.1,1.65,1.65,0,0,0-1.22-.4h-1.63Z"/><path class="cls-3" d="M479.76,170.56h-3v8.27h-2v-8.27h-3V168.9h8Z"/><line class="cls-4" x1="447.8" y1="114.09" x2="447.8" y2="129.19"/><polygon class="cls-5" points="440.74 125.42 454.86 125.42 447.37 132.97 440.74 125.42"/><path d="M396.26,100.15l-3.37,7.72h-1.48l3.37-7.37h-4.37V99.36h5.85Z"/><path d="M397.77,103.65l.45-4.29h4.54v1.23h-3.37l-.23,2a2.55,2.55,0,0,1,1.32-.34,2.34,2.34,0,0,1,1.88.78,3.07,3.07,0,0,1,.67,2.09,2.88,2.88,0,0,1-.74,2.07,2.73,2.73,0,0,1-2,.77,2.84,2.84,0,0,1-1.92-.67,2.37,2.37,0,0,1-.82-1.75h1.36a1.49,1.49,0,0,0,.44,1,1.33,1.33,0,0,0,.94.33,1.19,1.19,0,0,0,1-.47,2,2,0,0,0,.36-1.27,1.77,1.77,0,0,0-.4-1.23,1.4,1.4,0,0,0-1.1-.45,1.78,1.78,0,0,0-.65.1,1.84,1.84,0,0,0-.58.4Z"/><path d="M407,104.82h-3v-1.14h3Z"/><path d="M413.35,101.6a2,2,0,0,1-.32,1.12,2.4,2.4,0,0,1-.87.77,2.28,2.28,0,0,1,1,.84,2.16,2.16,0,0,1,.36,1.22,2.25,2.25,0,0,1-.75,1.78,2.93,2.93,0,0,1-2,.66,3,3,0,0,1-2-.66,2.25,2.25,0,0,1-.76-1.78,2.17,2.17,0,0,1,.36-1.23,2.31,2.31,0,0,1,1-.83,2.29,2.29,0,0,1-.86-.77,2,2,0,0,1-.32-1.12,2.2,2.2,0,0,1,.7-1.72,3.08,3.08,0,0,1,3.76,0A2.23,2.23,0,0,1,413.35,101.6Zm-1.23,3.88a1.41,1.41,0,0,0-.37-1,1.31,1.31,0,0,0-1-.39,1.27,1.27,0,0,0-1,.39,1.58,1.58,0,0,0,0,2,1.33,1.33,0,0,0,1,.37,1.35,1.35,0,0,0,1-.36A1.41,1.41,0,0,0,412.12,105.48Zm-.18-3.82a1.35,1.35,0,0,0-.31-.92,1.22,1.22,0,0,0-1.71,0,1.53,1.53,0,0,0,0,1.87,1.09,1.09,0,0,0,.85.34,1.11,1.11,0,0,0,.86-.34A1.32,1.32,0,0,0,411.94,101.66Z"/><path d="M420.28,104.29a4.68,4.68,0,0,1-.68,2.76,2.43,2.43,0,0,1-2.08.94,2.46,2.46,0,0,1-2.06-.91,4.57,4.57,0,0,1-.71-2.69v-1.48a4.55,4.55,0,0,1,.69-2.75,2.81,2.81,0,0,1,4.14,0,4.44,4.44,0,0,1,.7,2.67Zm-1.41-1.59a3.58,3.58,0,0,0-.33-1.76,1.23,1.23,0,0,0-2,0,3.28,3.28,0,0,0-.34,1.65v1.93a3.73,3.73,0,0,0,.33,1.78,1.21,1.21,0,0,0,2,0,3.54,3.54,0,0,0,.34-1.69Z"/><path d="M425.89,101.55l0,.66a2.27,2.27,0,0,1,1.81-.78,1.72,1.72,0,0,1,1.72,1,2.22,2.22,0,0,1,1.93-1,1.93,1.93,0,0,1,1.54.58,2.54,2.54,0,0,1,.52,1.7v4.16H432v-4.12a1.24,1.24,0,0,0-.26-.88,1.15,1.15,0,0,0-.86-.28,1.21,1.21,0,0,0-.79.26,1.41,1.41,0,0,0-.42.68v4.34H428.3v-4.16a1,1,0,0,0-1.13-1.12,1.24,1.24,0,0,0-1.2.7v4.58h-1.4v-6.32Z"/><path d="M434.9,99.9a.75.75,0,0,1,.21-.54.77.77,0,0,1,.58-.22.82.82,0,0,1,.6.22.78.78,0,0,1,.2.54.77.77,0,0,1-.2.54.81.81,0,0,1-.6.21.76.76,0,0,1-.58-.21A.73.73,0,0,1,434.9,99.9Zm1.5,8H435v-6.32h1.41Z"/><path d="M439.24,101.55l0,.73a2.22,2.22,0,0,1,1.82-.85c1.31,0,2,.75,2,2.26v4.18h-1.41v-4.1a1.31,1.31,0,0,0-.26-.89,1.08,1.08,0,0,0-.84-.29,1.35,1.35,0,0,0-1.27.78v4.5h-1.41v-6.32Z"/><path d="M448,106.15a.65.65,0,0,0-.3-.58,3.35,3.35,0,0,0-1-.35,5,5,0,0,1-1.2-.39,1.59,1.59,0,0,1-1.06-1.48,1.67,1.67,0,0,1,.69-1.37,2.65,2.65,0,0,1,1.74-.55,2.81,2.81,0,0,1,1.81.56,1.78,1.78,0,0,1,.69,1.45H448a.87.87,0,0,0-.31-.68,1.13,1.13,0,0,0-.79-.27,1.2,1.2,0,0,0-.76.22.67.67,0,0,0-.29.58.57.57,0,0,0,.27.5,3.37,3.37,0,0,0,1.1.37,5,5,0,0,1,1.3.44,1.77,1.77,0,0,1,.7.61,1.6,1.6,0,0,1,.23.86,1.67,1.67,0,0,1-.7,1.39,3,3,0,0,1-1.84.53,3.17,3.17,0,0,1-1.37-.29,2.18,2.18,0,0,1-.94-.77,1.85,1.85,0,0,1-.34-1.05h1.37a1,1,0,0,0,.38.77,1.76,1.76,0,0,0,1.77.06A.66.66,0,0,0,448,106.15Z"/><path d="M453.35,104.65a3.83,3.83,0,0,1,.36-1.68,2.78,2.78,0,0,1,1-1.14,2.85,2.85,0,0,1,1.52-.4,2.73,2.73,0,0,1,2.06.82,3.28,3.28,0,0,1,.85,2.19v.33a3.76,3.76,0,0,1-.36,1.67,2.69,2.69,0,0,1-1,1.14,2.87,2.87,0,0,1-1.53.41,2.71,2.71,0,0,1-2.13-.9,3.41,3.41,0,0,1-.79-2.37Zm1.41.12a2.55,2.55,0,0,0,.4,1.53,1.27,1.27,0,0,0,1.11.55,1.3,1.3,0,0,0,1.11-.56,2.85,2.85,0,0,0,.4-1.64,2.54,2.54,0,0,0-.41-1.52,1.3,1.3,0,0,0-1.11-.56,1.29,1.29,0,0,0-1.1.55A2.79,2.79,0,0,0,454.76,104.77Z"/><path d="M461.68,101.55l0,.73a2.22,2.22,0,0,1,1.82-.85c1.31,0,2,.75,2,2.26v4.18h-1.41v-4.1a1.31,1.31,0,0,0-.26-.89,1.08,1.08,0,0,0-.84-.29,1.36,1.36,0,0,0-1.27.78v4.5h-1.41v-6.32Z"/><path d="M473.67,107.87a2.48,2.48,0,0,1-.16-.59,2.2,2.2,0,0,1-1.64.71,2.24,2.24,0,0,1-1.55-.55,1.76,1.76,0,0,1-.59-1.34,1.78,1.78,0,0,1,.74-1.55,3.6,3.6,0,0,1,2.13-.54h.86v-.42a1.13,1.13,0,0,0-.27-.79,1.1,1.1,0,0,0-.83-.29,1.21,1.21,0,0,0-.78.24.74.74,0,0,0-.31.62h-1.41a1.55,1.55,0,0,1,.34-1,2.23,2.23,0,0,1,.93-.71,3.11,3.11,0,0,1,1.32-.26,2.63,2.63,0,0,1,1.75.56,2,2,0,0,1,.67,1.57v2.85a3.22,3.22,0,0,0,.24,1.36v.1Zm-1.54-1a1.55,1.55,0,0,0,.78-.21,1.32,1.32,0,0,0,.55-.55V104.9h-.75a2.08,2.08,0,0,0-1.18.27.92.92,0,0,0-.4.78.83.83,0,0,0,.27.65A1.08,1.08,0,0,0,472.13,106.85Z"/><path d="M476.35,99.9a.75.75,0,0,1,.21-.54.78.78,0,0,1,.59-.22.81.81,0,0,1,.59.22.75.75,0,0,1,.21.54.73.73,0,0,1-.21.54.8.8,0,0,1-.59.21.77.77,0,0,1-.59-.21A.73.73,0,0,1,476.35,99.9Zm1.5,8h-1.41v-6.32h1.41Z"/><path d="M482.66,102.84a3.48,3.48,0,0,0-.57,0,1.28,1.28,0,0,0-1.3.74v4.33h-1.41v-6.32h1.34l0,.7a1.58,1.58,0,0,1,1.41-.82,1.41,1.41,0,0,1,.5.08Z"/><path d="M489,104.77a3.78,3.78,0,0,1-.66,2.34,2.26,2.26,0,0,1-3.42.19v3h-1.41v-8.75h1.3l.06.64a2,2,0,0,1,1.68-.76,2.13,2.13,0,0,1,1.8.86,3.86,3.86,0,0,1,.65,2.39Zm-1.4-.12a2.64,2.64,0,0,0-.37-1.5,1.22,1.22,0,0,0-1.07-.56,1.29,1.29,0,0,0-1.24.72v2.81a1.29,1.29,0,0,0,1.25.73,1.19,1.19,0,0,0,1.05-.55A2.91,2.91,0,0,0,487.64,104.65Z"/><path d="M491.73,107.87h-1.4v-9h1.4Z"/><path d="M497,107.87a2.48,2.48,0,0,1-.16-.59,2.2,2.2,0,0,1-1.64.71,2.24,2.24,0,0,1-1.55-.55,1.76,1.76,0,0,1-.59-1.34,1.78,1.78,0,0,1,.74-1.55,3.6,3.6,0,0,1,2.13-.54h.86v-.42a1.13,1.13,0,0,0-.27-.79,1.1,1.1,0,0,0-.83-.29,1.21,1.21,0,0,0-.78.24.74.74,0,0,0-.31.62H493.2a1.55,1.55,0,0,1,.34-1,2.23,2.23,0,0,1,.93-.71,3.11,3.11,0,0,1,1.32-.26,2.63,2.63,0,0,1,1.75.56,2,2,0,0,1,.67,1.57v2.85a3.22,3.22,0,0,0,.24,1.36v.1Zm-1.54-1a1.55,1.55,0,0,0,.78-.21,1.32,1.32,0,0,0,.55-.55V104.9h-.75a2.08,2.08,0,0,0-1.18.27.92.92,0,0,0-.4.78.83.83,0,0,0,.27.65A1.08,1.08,0,0,0,495.47,106.85Z"/><path d="M501,101.55l0,.73a2.22,2.22,0,0,1,1.82-.85c1.31,0,2,.75,2,2.26v4.18h-1.41v-4.1a1.31,1.31,0,0,0-.26-.89,1.08,1.08,0,0,0-.84-.29,1.35,1.35,0,0,0-1.27.78v4.5h-1.41v-6.32Z"/><path d="M509.05,108a2.91,2.91,0,0,1-2.17-.86,3.1,3.1,0,0,1-.83-2.26v-.17a3.86,3.86,0,0,1,.36-1.7,2.81,2.81,0,0,1,1-1.16,2.72,2.72,0,0,1,1.46-.41,2.46,2.46,0,0,1,2,.82,3.54,3.54,0,0,1,.7,2.33v.58h-4.1a1.88,1.88,0,0,0,.52,1.24,1.54,1.54,0,0,0,1.14.45,1.9,1.9,0,0,0,1.58-.79l.76.73a2.54,2.54,0,0,1-1,.88A3.11,3.11,0,0,1,509.05,108Zm-.17-5.42a1.19,1.19,0,0,0-.93.41,2.13,2.13,0,0,0-.46,1.14h2.69V104a1.76,1.76,0,0,0-.38-1.08A1.19,1.19,0,0,0,508.88,102.57Z"/><path class="cls-3" d="M344.21,82.5h-2V78.25h-4V82.5h-2V72.58h2v4h4v-4h2Z"/><path class="cls-3" d="M351.66,80.46H348.1l-.67,2h-2.16l3.66-9.92h1.88l3.69,9.92h-2.16Zm-3-1.66h2.46l-1.24-3.71Z"/><path class="cls-3" d="M363.42,82.5h-2L357.45,76V82.5h-2V72.58h2l3.95,6.54V72.58h2Z"/><path class="cls-3" d="M371.12,78.2h-3.9v2.66h4.57V82.5H365.2V72.58h6.58v1.65h-4.56V76.6h3.9Z"/><path class="cls-3" d="M373,82.5V72.58h3a4.54,4.54,0,0,1,2.33.59,4.15,4.15,0,0,1,1.6,1.67,5.27,5.27,0,0,1,.57,2.48v.45a5.25,5.25,0,0,1-.56,2.46,4,4,0,0,1-1.6,1.67,4.47,4.47,0,0,1-2.31.6Zm2-8.27v6.63h1a2.19,2.19,0,0,0,1.82-.78,3.59,3.59,0,0,0,.65-2.25v-.52a3.62,3.62,0,0,0-.63-2.3,2.21,2.21,0,0,0-1.82-.78Z"/><path class="cls-3" d="M387.54,80.46H384l-.68,2h-2.16l3.67-9.92h1.88l3.68,9.92h-2.15Zm-3-1.66H387l-1.24-3.71Z"/><path class="cls-3" d="M400.31,80.46h-3.56l-.67,2h-2.16l3.66-9.92h1.88l3.69,9.92H401Zm-3-1.66h2.46l-1.24-3.71Z"/><path class="cls-3" d="M406.23,82.5h-2V72.58h2Z"/><path class="cls-3" d="M411.75,78.87h-1.62V82.5h-2V72.58h3.65a4.16,4.16,0,0,1,2.7.78,2.71,2.71,0,0,1,.94,2.22,2.75,2.75,0,0,1-1.76,2.77l2.13,4.06v.09H413.6Zm-1.62-1.66h1.64a1.66,1.66,0,0,0,1.18-.39,1.4,1.4,0,0,0,.42-1.08,1.51,1.51,0,0,0-.39-1.1,1.65,1.65,0,0,0-1.22-.41h-1.63Z"/><path class="cls-3" d="M419,79V82.5h-2V72.58h3.84a4.38,4.38,0,0,1,2,.41A3,3,0,0,1,424,74.15a3.26,3.26,0,0,1,.45,1.71,2.88,2.88,0,0,1-1,2.31,4.1,4.1,0,0,1-2.74.84Zm0-1.66h1.81A1.79,1.79,0,0,0,422,77a1.41,1.41,0,0,0,.42-1.09A1.65,1.65,0,0,0,422,74.7a1.61,1.61,0,0,0-1.18-.47H419Z"/><path class="cls-3" d="M434,77.77a6.11,6.11,0,0,1-.51,2.57A3.88,3.88,0,0,1,432,82a4.06,4.06,0,0,1-2.2.6,4.12,4.12,0,0,1-2.18-.59,3.93,3.93,0,0,1-1.49-1.7,5.81,5.81,0,0,1-.53-2.53v-.49a6,6,0,0,1,.52-2.58A3.94,3.94,0,0,1,427.58,73a4,4,0,0,1,5.86,1.71,6,6,0,0,1,.52,2.57Zm-2-.45a4.23,4.23,0,0,0-.56-2.38,1.79,1.79,0,0,0-1.58-.81,1.82,1.82,0,0,0-1.58.8,4.31,4.31,0,0,0-.56,2.35v.49a4.21,4.21,0,0,0,.56,2.35,1.93,1.93,0,0,0,3.16,0,4.26,4.26,0,0,0,.56-2.36Z"/><path class="cls-3" d="M439.08,78.87h-1.62V82.5h-2V72.58h3.65a4.16,4.16,0,0,1,2.7.78,2.71,2.71,0,0,1,.94,2.22,3.08,3.08,0,0,1-.43,1.69A3,3,0,0,1,441,78.35l2.13,4.06v.09h-2.17Zm-1.62-1.66h1.64a1.71,1.71,0,0,0,1.19-.39,1.43,1.43,0,0,0,.41-1.08,1.51,1.51,0,0,0-.39-1.1,1.65,1.65,0,0,0-1.22-.41h-1.63Z"/><path class="cls-3" d="M451.35,74.23h-3V82.5h-2V74.23h-3V72.58h8Z"/><path class="cls-3" d="M453,83.36h-1.45l3.62-10.78h1.45Z"/><path class="cls-3" d="M465.68,82.5h-2L459.7,76V82.5h-2V72.58h2l4,6.54V72.58h2Z"/><path class="cls-3" d="M473,80.46h-3.55l-.68,2h-2.16l3.67-9.92h1.88l3.68,9.92h-2.16Zm-3-1.66h2.46l-1.23-3.71Z"/><path class="cls-3" d="M480.42,78.87H478.8V82.5h-2V72.58h3.66a4.13,4.13,0,0,1,2.69.78,2.72,2.72,0,0,1,.95,2.22,3.08,3.08,0,0,1-.44,1.69,3,3,0,0,1-1.32,1.08l2.13,4.06v.09h-2.18Zm-1.62-1.66h1.64a1.66,1.66,0,0,0,1.18-.39,1.4,1.4,0,0,0,.42-1.08,1.47,1.47,0,0,0-.4-1.1,1.62,1.62,0,0,0-1.21-.41H478.8Z"/><path class="cls-3" d="M487.77,82.5h-2V72.58h2Z"/><path class="cls-3" d="M497.06,74.23h-3V82.5h-2V74.23h-3V72.58h8Z"/><path class="cls-3" d="M503,80.46H499.4l-.67,2h-2.16l3.66-9.92h1.88l3.69,9.92h-2.16Zm-3-1.66h2.46l-1.24-3.71Z"/><path class="cls-3" d="M515.73,80.46h-3.56l-.68,2h-2.16L513,72.58h1.88l3.69,9.92h-2.16Zm-3-1.66h2.46l-1.24-3.71Z"/><path class="cls-3" d="M521.64,82.5h-2V72.58h2Z"/><path class="cls-3" d="M527.17,78.87h-1.62V82.5h-2V72.58h3.66a4.13,4.13,0,0,1,2.69.78,2.72,2.72,0,0,1,1,2.22,3.08,3.08,0,0,1-.44,1.69,3,3,0,0,1-1.32,1.08l2.13,4.06v.09H529Zm-1.62-1.66h1.64a1.66,1.66,0,0,0,1.18-.39,1.4,1.4,0,0,0,.42-1.08,1.47,1.47,0,0,0-.4-1.1,1.62,1.62,0,0,0-1.21-.41h-1.63Z"/><path class="cls-3" d="M534.39,79V82.5h-2V72.58h3.84a4.31,4.31,0,0,1,1.95.41,3.06,3.06,0,0,1,1.3,1.16,3.26,3.26,0,0,1,.45,1.71,2.88,2.88,0,0,1-1,2.31,4.12,4.12,0,0,1-2.74.84Zm0-1.66h1.81a1.79,1.79,0,0,0,1.23-.38,1.41,1.41,0,0,0,.42-1.09,1.62,1.62,0,0,0-.43-1.18,1.57,1.57,0,0,0-1.17-.47h-1.86Z"/><path class="cls-3" d="M549.38,77.77a6.11,6.11,0,0,1-.51,2.57,3.91,3.91,0,0,1-3.67,2.3,4.09,4.09,0,0,1-2.18-.59,3.93,3.93,0,0,1-1.49-1.7,6,6,0,0,1-.54-2.53v-.49a6,6,0,0,1,.53-2.58A3.94,3.94,0,0,1,543,73a4,4,0,0,1,2.19-.6,3.92,3.92,0,0,1,3.67,2.31,6.11,6.11,0,0,1,.52,2.57Zm-2.06-.45a4.23,4.23,0,0,0-.55-2.38,2,2,0,0,0-3.16,0,4.14,4.14,0,0,0-.56,2.35v.49a4.3,4.3,0,0,0,.55,2.35,1.94,1.94,0,0,0,3.17,0,4.26,4.26,0,0,0,.55-2.36Z"/><path class="cls-3" d="M554.5,78.87h-1.62V82.5h-2V72.58h3.66a4.13,4.13,0,0,1,2.69.78,2.72,2.72,0,0,1,.95,2.22,3.08,3.08,0,0,1-.44,1.69,3,3,0,0,1-1.32,1.08l2.13,4.06v.09h-2.18Zm-1.62-1.66h1.64a1.66,1.66,0,0,0,1.18-.39,1.4,1.4,0,0,0,.42-1.08,1.47,1.47,0,0,0-.4-1.1,1.61,1.61,0,0,0-1.21-.41h-1.63Z"/><path class="cls-3" d="M566.76,74.23h-3V82.5h-2V74.23h-3V72.58h8Z"/><rect class="cls-3" x="382.34" y="271.53" width="137.28" height="31.46"/><path class="cls-1" d="M396,281.21l-.88.94v2.43h-1.34v-7.8h1.34v3.66l.74-.93,2.27-2.73h1.62l-2.87,3.46,3,4.34h-1.6Z"/><path class="cls-1" d="M400.13,281.63a3.51,3.51,0,0,1,.33-1.54,2.52,2.52,0,0,1,.94-1,2.67,2.67,0,0,1,1.39-.36,2.5,2.5,0,0,1,1.89.75,2.9,2.9,0,0,1,.78,2v.31a3.44,3.44,0,0,1-.33,1.53,2.44,2.44,0,0,1-.93,1.05,2.74,2.74,0,0,1-1.41.37,2.48,2.48,0,0,1-1.94-.82,3.12,3.12,0,0,1-.73-2.18Zm1.29.11a2.38,2.38,0,0,0,.36,1.4,1.2,1.2,0,0,0,1,.51,1.16,1.16,0,0,0,1-.52,2.59,2.59,0,0,0,.36-1.5,2.29,2.29,0,0,0-.37-1.39,1.25,1.25,0,0,0-2,0A2.51,2.51,0,0,0,401.42,281.74Z"/><path class="cls-1" d="M411.61,281.74a3.49,3.49,0,0,1-.6,2.15,2,2,0,0,1-1.65.8,1.88,1.88,0,0,1-1.57-.74l-.06.63h-1.17v-8.23h1.29v3a1.86,1.86,0,0,1,1.5-.66,2,2,0,0,1,1.66.78,3.58,3.58,0,0,1,.6,2.21Zm-1.29-.11a2.5,2.5,0,0,0-.33-1.42,1.11,1.11,0,0,0-1-.47,1.21,1.21,0,0,0-1.18.74v2.39a1.22,1.22,0,0,0,1.19.76,1.11,1.11,0,0,0,.94-.46,2.41,2.41,0,0,0,.34-1.38Z"/><path class="cls-1" d="M415.22,284.69a2.66,2.66,0,0,1-2-.78,2.83,2.83,0,0,1-.76-2.08v-.16a3.53,3.53,0,0,1,.33-1.55,2.47,2.47,0,0,1,.93-1.06,2.41,2.41,0,0,1,1.34-.38,2.24,2.24,0,0,1,1.81.75,3.2,3.2,0,0,1,.65,2.14v.52h-3.76a1.8,1.8,0,0,0,.47,1.14,1.42,1.42,0,0,0,1.05.42,1.74,1.74,0,0,0,1.45-.73l.69.67a2.26,2.26,0,0,1-.92.81A2.85,2.85,0,0,1,415.22,284.69Zm-.15-5a1.07,1.07,0,0,0-.86.38,1.91,1.91,0,0,0-.42,1h2.46V281a1.53,1.53,0,0,0-.35-1A1,1,0,0,0,415.07,279.72Z"/><path class="cls-1" d="M423.1,276.78l2.23,6,2.23-6h1.74v7.8H428V282l.13-3.44-2.28,6h-1l-2.28-6,.13,3.44v2.57h-1.34v-7.8Z"/><path class="cls-1" d="M434.24,284a2,2,0,0,1-1.61.68,1.79,1.79,0,0,1-1.42-.56,2.34,2.34,0,0,1-.48-1.59v-3.76H432v3.74c0,.74.31,1.11.91,1.11a1.28,1.28,0,0,0,1.27-.68v-4.17h1.29v5.8h-1.21Z"/><path class="cls-1" d="M438,278.78l0,.67a2.1,2.1,0,0,1,1.68-.77c1.19,0,1.8.69,1.82,2.07v3.83h-1.29v-3.76A1.22,1.22,0,0,0,440,280a1,1,0,0,0-.78-.27,1.23,1.23,0,0,0-1.16.72v4.12h-1.29v-5.8Z"/><path class="cls-1" d="M442.86,277.28a.68.68,0,0,1,.19-.5.83.83,0,0,1,1.08,0,.68.68,0,0,1,.19.5.67.67,0,0,1-.19.49.86.86,0,0,1-1.08,0A.67.67,0,0,1,442.86,277.28Zm1.37,7.3h-1.29v-5.8h1.29Z"/><path class="cls-1" d="M448,283.65a1.16,1.16,0,0,0,.8-.29,1,1,0,0,0,.34-.7h1.22a2,2,0,0,1-.34,1,2.19,2.19,0,0,1-.85.74,2.55,2.55,0,0,1-1.16.28,2.46,2.46,0,0,1-1.91-.79,3.16,3.16,0,0,1-.7-2.18v-.13a3.08,3.08,0,0,1,.7-2.12,2.4,2.4,0,0,1,1.91-.79,2.36,2.36,0,0,1,1.67.6,2.16,2.16,0,0,1,.68,1.58h-1.22a1.2,1.2,0,0,0-.34-.82,1.09,1.09,0,0,0-.8-.32,1.13,1.13,0,0,0-1,.46,2.3,2.3,0,0,0-.34,1.39v.21a2.39,2.39,0,0,0,.33,1.4A1.14,1.14,0,0,0,448,283.65Z"/><path class="cls-1" d="M451.33,277.28a.72.72,0,0,1,.19-.5.73.73,0,0,1,.54-.2.7.7,0,0,1,.54.2.71.71,0,0,1,0,1,.7.7,0,0,1-.54.19.73.73,0,0,1-.54-.19A.71.71,0,0,1,451.33,277.28Zm1.38,7.3h-1.29v-5.8h1.29Z"/><path class="cls-1" d="M459.15,281.74a3.52,3.52,0,0,1-.61,2.15,2.09,2.09,0,0,1-3.14.17v2.75h-1.29v-8h1.19l.05.59a1.91,1.91,0,0,1,1.55-.69,2,2,0,0,1,1.65.79,3.52,3.52,0,0,1,.6,2.19Zm-1.29-.11a2.43,2.43,0,0,0-.34-1.38,1.12,1.12,0,0,0-1-.51,1.19,1.19,0,0,0-1.14.66V283a1.2,1.2,0,0,0,1.15.68,1.11,1.11,0,0,0,1-.5A2.71,2.71,0,0,0,457.86,281.63Z"/><path class="cls-1" d="M463.67,284.58a2.16,2.16,0,0,1-.15-.54,2,2,0,0,1-1.51.65,2,2,0,0,1-1.41-.5,1.61,1.61,0,0,1-.55-1.23,1.66,1.66,0,0,1,.69-1.43,3.27,3.27,0,0,1,1.95-.49h.79v-.38a1,1,0,0,0-.25-.72,1,1,0,0,0-.76-.27,1.12,1.12,0,0,0-.72.22.69.69,0,0,0-.28.57h-1.29a1.47,1.47,0,0,1,.31-.9,2.17,2.17,0,0,1,.85-.65,2.92,2.92,0,0,1,1.2-.23,2.44,2.44,0,0,1,1.62.51,1.86,1.86,0,0,1,.61,1.44v2.61a2.92,2.92,0,0,0,.22,1.25v.09Zm-1.42-.94a1.39,1.39,0,0,0,.72-.19,1.17,1.17,0,0,0,.51-.5v-1.09h-.7a1.86,1.86,0,0,0-1.07.25.8.8,0,0,0-.37.71.79.79,0,0,0,.25.6A1,1,0,0,0,462.25,283.64Z"/><path class="cls-1" d="M467.5,284.58h-1.29v-8.23h1.29Z"/><path class="cls-1" d="M475.78,282.57a.93.93,0,0,0-.36-.79,4.2,4.2,0,0,0-1.29-.57,5.55,5.55,0,0,1-1.49-.63,2,2,0,0,1-1.06-1.74,1.94,1.94,0,0,1,.76-1.56,3.12,3.12,0,0,1,2-.61,3.31,3.31,0,0,1,1.44.3,2.4,2.4,0,0,1,1,.86,2.21,2.21,0,0,1,.36,1.23h-1.34a1.24,1.24,0,0,0-.38-1,1.57,1.57,0,0,0-1.09-.35,1.61,1.61,0,0,0-1,.29,1,1,0,0,0-.36.79.86.86,0,0,0,.39.72,4.46,4.46,0,0,0,1.3.55,6.05,6.05,0,0,1,1.45.62,2.33,2.33,0,0,1,.8.79,2.09,2.09,0,0,1,.25,1.05,1.84,1.84,0,0,1-.74,1.55,3.2,3.2,0,0,1-2,.58,3.72,3.72,0,0,1-1.54-.32,2.59,2.59,0,0,1-1.1-.86,2.19,2.19,0,0,1-.39-1.29h1.35a1.25,1.25,0,0,0,.43,1,1.92,1.92,0,0,0,1.25.37,1.67,1.67,0,0,0,1.06-.29A1,1,0,0,0,475.78,282.57Z"/><path class="cls-1" d="M481.66,284a2,2,0,0,1-1.61.68,1.77,1.77,0,0,1-1.42-.56,2.34,2.34,0,0,1-.48-1.59v-3.76h1.29v3.74c0,.74.3,1.11.91,1.11a1.28,1.28,0,0,0,1.27-.68v-4.17h1.29v5.8h-1.22Z"/><path class="cls-1" d="M489.27,281.74a3.49,3.49,0,0,1-.6,2.15,2,2,0,0,1-1.64.8,1.88,1.88,0,0,1-1.58-.74l-.06.63h-1.17v-8.23h1.29v3a1.88,1.88,0,0,1,1.51-.66,2,2,0,0,1,1.65.78,3.58,3.58,0,0,1,.6,2.21Zm-1.29-.11a2.5,2.5,0,0,0-.33-1.42,1.11,1.11,0,0,0-1-.47,1.21,1.21,0,0,0-1.18.74v2.39a1.22,1.22,0,0,0,1.19.76,1.1,1.1,0,0,0,.94-.46,2.41,2.41,0,0,0,.34-1.38Z"/><path class="cls-1" d="M495.4,282.79l.91-4h1.26l-1.56,5.8h-1.07l-1.23-4-1.21,4h-1.06l-1.58-5.8h1.26l.93,4,1.18-4h1Z"/><path class="cls-1" d="M501.87,284.58a1.8,1.8,0,0,1-.15-.54,2,2,0,0,1-1.51.65,2,2,0,0,1-1.41-.5,1.58,1.58,0,0,1-.55-1.23,1.66,1.66,0,0,1,.69-1.43,3.27,3.27,0,0,1,1.95-.49h.79v-.38a1,1,0,0,0-.25-.72,1,1,0,0,0-.76-.27,1.11,1.11,0,0,0-.72.22.69.69,0,0,0-.28.57h-1.29a1.47,1.47,0,0,1,.31-.9,2.17,2.17,0,0,1,.85-.65,2.92,2.92,0,0,1,1.2-.23,2.39,2.39,0,0,1,1.61.51,1.83,1.83,0,0,1,.62,1.44v2.61a2.92,2.92,0,0,0,.22,1.25v.09Zm-1.42-.94a1.39,1.39,0,0,0,.72-.19,1.17,1.17,0,0,0,.51-.5v-1.09H501a1.84,1.84,0,0,0-1.07.25.8.8,0,0,0-.37.71.79.79,0,0,0,.25.6A1,1,0,0,0,500.45,283.64Z"/><path class="cls-1" d="M506.33,282.71l1.17-3.93h1.38l-2.29,6.68a1.86,1.86,0,0,1-1.78,1.46,2.05,2.05,0,0,1-.62-.1v-1l.24,0a1,1,0,0,0,1.13-.78l.18-.5-2-5.77h1.4Z"/><path class="cls-1" d="M419.39,294.57a8.24,8.24,0,0,1,.33-2.35,6.3,6.3,0,0,1,1-2A3.66,3.66,0,0,1,422,289l.25.76a3.92,3.92,0,0,0-1.21,1.75,7.9,7.9,0,0,0-.51,2.69v.46a8.6,8.6,0,0,0,.45,2.89,4.27,4.27,0,0,0,1.27,1.94l-.25.72a3.66,3.66,0,0,1-1.35-1.23,6.47,6.47,0,0,1-1-2A8.5,8.5,0,0,1,419.39,294.57Z"/><path class="cls-1" d="M425.51,294.37l-.87.94v2.43h-1.35v-7.8h1.35v3.66l.74-.92,2.26-2.74h1.63l-2.88,3.46,3,4.34h-1.59Z"/><path class="cls-1" d="M433.46,297.74a2.16,2.16,0,0,1-.15-.54,2,2,0,0,1-1.51.65,2,2,0,0,1-1.41-.5,1.61,1.61,0,0,1-.55-1.23,1.64,1.64,0,0,1,.69-1.42,3.26,3.26,0,0,1,2-.5h.79v-.38a1,1,0,0,0-.25-.72,1,1,0,0,0-.76-.27,1.19,1.19,0,0,0-.72.22.69.69,0,0,0-.28.57H430a1.42,1.42,0,0,1,.31-.89,2,2,0,0,1,.85-.65,2.92,2.92,0,0,1,1.2-.24,2.44,2.44,0,0,1,1.62.51,1.86,1.86,0,0,1,.61,1.44v2.61a2.89,2.89,0,0,0,.22,1.25v.09Zm-1.42-.93a1.49,1.49,0,0,0,.72-.19,1.23,1.23,0,0,0,.51-.5V295h-.7a1.94,1.94,0,0,0-1.07.25.82.82,0,0,0-.37.72.75.75,0,0,0,.25.59A1,1,0,0,0,432,296.81Z"/><path class="cls-1" d="M435.92,290.44a.77.77,0,0,1,1.27-.5.74.74,0,0,1,.19.5.7.7,0,0,1-.19.49.74.74,0,0,1-.55.2.73.73,0,0,1-.54-.2A.69.69,0,0,1,435.92,290.44Zm1.37,7.3H436V292h1.29Z"/><path class="cls-1" d="M438.47,294.8a3.37,3.37,0,0,1,.63-2.15,2,2,0,0,1,1.67-.81,1.88,1.88,0,0,1,1.54.69l.06-.58h1.16v5.62a2.34,2.34,0,0,1-.7,1.8,2.66,2.66,0,0,1-1.9.66,3,3,0,0,1-1.23-.27,2.23,2.23,0,0,1-.92-.69l.61-.79a1.85,1.85,0,0,0,1.47.72,1.42,1.42,0,0,0,1-.35,1.36,1.36,0,0,0,.37-1v-.39a1.87,1.87,0,0,1-1.48.63,2,2,0,0,1-1.65-.81A3.49,3.49,0,0,1,438.47,294.8Zm1.28.12a2.37,2.37,0,0,0,.35,1.37,1.16,1.16,0,0,0,1,.5,1.25,1.25,0,0,0,1.16-.67v-2.55a1.21,1.21,0,0,0-1.14-.66,1.15,1.15,0,0,0-1,.51A2.64,2.64,0,0,0,439.75,294.92Z"/><path class="cls-1" d="M448.29,297.74a2.25,2.25,0,0,1-.14-.54,2.16,2.16,0,0,1-2.93.15,1.6,1.6,0,0,1-.54-1.23,1.63,1.63,0,0,1,.68-1.42,3.26,3.26,0,0,1,1.95-.5h.79v-.38a1,1,0,0,0-.25-.72,1,1,0,0,0-.76-.27,1.19,1.19,0,0,0-.72.22.69.69,0,0,0-.28.57H444.8a1.42,1.42,0,0,1,.31-.89,2.06,2.06,0,0,1,.85-.65,3,3,0,0,1,1.21-.24,2.41,2.41,0,0,1,1.61.51,1.82,1.82,0,0,1,.61,1.44v2.61a3,3,0,0,0,.22,1.25v.09Zm-1.41-.93a1.55,1.55,0,0,0,.72-.19,1.27,1.27,0,0,0,.5-.5V295h-.69a2,2,0,0,0-1.08.25.83.83,0,0,0-.36.72.75.75,0,0,0,.24.59A1,1,0,0,0,446.88,296.81Z"/><path class="cls-1" d="M451.94,292l0,.67a2.06,2.06,0,0,1,1.68-.78c1.19,0,1.8.69,1.82,2.07v3.83h-1.29V294a1.25,1.25,0,0,0-.23-.82,1,1,0,0,0-.78-.26,1.22,1.22,0,0,0-1.16.71v4.12h-1.29V292Z"/><path class="cls-1" d="M461,296.66h3.51v1.08h-4.86v-7.8H461Z"/><path class="cls-1" d="M465.4,290.44a.77.77,0,0,1,1.27-.5.74.74,0,0,1,.19.5.7.7,0,0,1-.19.49.74.74,0,0,1-.55.2.73.73,0,0,1-.54-.2A.69.69,0,0,1,465.4,290.44Zm1.37,7.3h-1.29V292h1.29Z"/><path class="cls-1" d="M469.37,292l0,.67a2,2,0,0,1,1.67-.78q1.8,0,1.83,2.07v3.83h-1.29V294a1.2,1.2,0,0,0-.24-.82,1,1,0,0,0-.77-.26,1.25,1.25,0,0,0-1.17.71v4.12h-1.29V292Z"/><path class="cls-1" d="M476.76,297.85a2.64,2.64,0,0,1-2-.78A2.83,2.83,0,0,1,474,295v-.17a3.43,3.43,0,0,1,.34-1.55,2.53,2.53,0,0,1,.93-1.06,2.46,2.46,0,0,1,1.34-.38,2.23,2.23,0,0,1,1.81.76,3.17,3.17,0,0,1,.64,2.13v.53H475.3a1.71,1.71,0,0,0,.48,1.13,1.42,1.42,0,0,0,1.05.42,1.77,1.77,0,0,0,1.45-.72l.69.67a2.38,2.38,0,0,1-.92.8A2.88,2.88,0,0,1,476.76,297.85Zm-.16-5a1.1,1.1,0,0,0-.86.38,2,2,0,0,0-.41,1h2.46v-.09a1.6,1.6,0,0,0-.35-1A1.08,1.08,0,0,0,476.6,292.88Z"/><path class="cls-1" d="M482.55,294.66a8.28,8.28,0,0,1-.32,2.29,6.88,6.88,0,0,1-1,2,3.87,3.87,0,0,1-1.38,1.25l-.26-.72a4.05,4.05,0,0,0,1.27-1.9,8.48,8.48,0,0,0,.46-2.92v-.12a8.57,8.57,0,0,0-.4-2.71,4.89,4.89,0,0,0-1.16-2l-.17-.14.26-.73a3.83,3.83,0,0,1,1.32,1.18,6.26,6.26,0,0,1,1,1.89,7.91,7.91,0,0,1,.39,2.16Z"/></g><g id="column_1" data-name="column 1"><rect class="cls-6" x="3.21" y="63.76" width="199.68" height="415.22"/><path class="cls-3" d="M58.93,74.23h-3V82.5h-2V74.23h-3V72.58h8Z"/><path class="cls-3" d="M68,77.77a6.11,6.11,0,0,1-.51,2.57A4,4,0,0,1,66,82a4.06,4.06,0,0,1-2.2.6,4.12,4.12,0,0,1-2.18-.59,3.93,3.93,0,0,1-1.49-1.7,5.81,5.81,0,0,1-.53-2.53v-.49a6,6,0,0,1,.52-2.58A3.94,3.94,0,0,1,61.6,73a4,4,0,0,1,5.86,1.71A6,6,0,0,1,68,77.32Zm-2-.45a4.23,4.23,0,0,0-.56-2.38,2,2,0,0,0-3.16,0,4.22,4.22,0,0,0-.56,2.35v.49a4.21,4.21,0,0,0,.56,2.35,1.93,1.93,0,0,0,3.16,0,4.26,4.26,0,0,0,.56-2.36Z"/><path class="cls-3" d="M72.54,78.52l-1.06,1.15V82.5h-2V72.58h2v4.5l.9-1.24,2.51-3.26h2.49L73.88,77l3.6,5.51H75.07Z"/><path class="cls-3" d="M81.64,77.05l2-4.47h2.22L82.67,78.9v3.6H80.61V78.9l-3.23-6.32h2.23Z"/><path class="cls-3" d="M94.7,77.77a6,6,0,0,1-.52,2.57A3.88,3.88,0,0,1,92.71,82a4,4,0,0,1-2.19.6,4.13,4.13,0,0,1-2.19-.59,3.91,3.91,0,0,1-1.48-1.7,6,6,0,0,1-.54-2.53v-.49a6,6,0,0,1,.53-2.58A3.94,3.94,0,0,1,88.32,73a4.28,4.28,0,0,1,4.37,0,3.94,3.94,0,0,1,1.48,1.71,6,6,0,0,1,.53,2.57Zm-2.06-.45a4.23,4.23,0,0,0-.55-2.38,2,2,0,0,0-3.16,0,4.14,4.14,0,0,0-.56,2.35v.49a4.21,4.21,0,0,0,.55,2.35,1.94,1.94,0,0,0,3.17,0,4.26,4.26,0,0,0,.55-2.36Z"/><path class="cls-3" d="M104.73,79.9a1.06,1.06,0,0,0-.41-.89,5,5,0,0,0-1.46-.65,10.71,10.71,0,0,1-1.67-.68,2.75,2.75,0,0,1-1.68-2.46,2.42,2.42,0,0,1,.45-1.44,2.89,2.89,0,0,1,1.29-1,4.75,4.75,0,0,1,1.89-.36,4.33,4.33,0,0,1,1.88.39,3,3,0,0,1,1.28,1.08,2.83,2.83,0,0,1,.46,1.6h-2a1.34,1.34,0,0,0-.42-1.06,1.78,1.78,0,0,0-1.2-.38,1.88,1.88,0,0,0-1.16.32,1,1,0,0,0-.41.83A.94.94,0,0,0,102,76a5.45,5.45,0,0,0,1.43.62A6.14,6.14,0,0,1,106,78a2.59,2.59,0,0,1,.79,1.94,2.38,2.38,0,0,1-1,2,4.18,4.18,0,0,1-2.6.73,5,5,0,0,1-2.07-.42,3.22,3.22,0,0,1-1.42-1.15,2.92,2.92,0,0,1-.49-1.69h2c0,1.1.65,1.64,2,1.64a1.87,1.87,0,0,0,1.13-.29A1,1,0,0,0,104.73,79.9Z"/><path class="cls-3" d="M115.54,74.23h-3V82.5h-2V74.23h-3V72.58h8Z"/><path class="cls-3" d="M121.45,80.46h-3.56l-.68,2h-2.15l3.66-9.92h1.88l3.69,9.92h-2.16Zm-3-1.66h2.46l-1.24-3.71Z"/><path class="cls-3" d="M131.81,74.23h-3V82.5h-2V74.23h-3V72.58h8Z"/><path class="cls-3" d="M135.12,82.5h-2V72.58h2Z"/><path class="cls-3" d="M145.09,77.77a6,6,0,0,1-.52,2.57A3.88,3.88,0,0,1,143.1,82a4,4,0,0,1-2.19.6,4.13,4.13,0,0,1-2.19-.59,3.91,3.91,0,0,1-1.48-1.7,5.81,5.81,0,0,1-.54-2.53v-.49a6,6,0,0,1,.53-2.58A3.94,3.94,0,0,1,138.71,73a4.28,4.28,0,0,1,4.37,0,3.94,3.94,0,0,1,1.48,1.71,6,6,0,0,1,.53,2.57ZM143,77.32a4.23,4.23,0,0,0-.55-2.38,2,2,0,0,0-3.16,0,4.14,4.14,0,0,0-.56,2.35v.49a4.21,4.21,0,0,0,.55,2.35,1.94,1.94,0,0,0,3.17,0A4.26,4.26,0,0,0,143,77.8Z"/><path class="cls-3" d="M154.57,82.5h-2L148.59,76V82.5h-2V72.58h2l4,6.54V72.58h2Z"/><path d="M61.11,103H62a1.59,1.59,0,0,0,1-.34,1.25,1.25,0,0,0,.38-1,1.32,1.32,0,0,0-.32-.94,1.28,1.28,0,0,0-1-.34,1.34,1.34,0,0,0-.93.33,1.12,1.12,0,0,0-.36.87H59.39a2.18,2.18,0,0,1,.34-1.2,2.39,2.39,0,0,1,1-.84,3.18,3.18,0,0,1,1.39-.3,2.91,2.91,0,0,1,2,.64,2.26,2.26,0,0,1,.72,1.78,1.84,1.84,0,0,1-.36,1.08,2.22,2.22,0,0,1-.93.76,2,2,0,0,1,1.05.76,2.07,2.07,0,0,1,.37,1.22,2.3,2.3,0,0,1-.78,1.83,3,3,0,0,1-2,.68,3,3,0,0,1-2-.66,2.19,2.19,0,0,1-.77-1.74h1.4a1.19,1.19,0,0,0,.38.91,1.42,1.42,0,0,0,1,.35,1.49,1.49,0,0,0,1-.35,1.32,1.32,0,0,0,.37-1,1.34,1.34,0,0,0-.39-1,1.67,1.67,0,0,0-1.17-.36h-.83Z"/><path d="M70.66,102.24a2.19,2.19,0,0,1,1.75-.81c1.33,0,2,.77,2,2.31v4.13H73v-4.08a1.25,1.25,0,0,0-.28-.93,1.15,1.15,0,0,0-.83-.27,1.35,1.35,0,0,0-1.26.76v4.52H69.25v-9h1.41Z"/><path d="M79.15,102.84a3.69,3.69,0,0,0-.58,0,1.29,1.29,0,0,0-1.3.74v4.33H75.86v-6.32H77.2l0,.7a1.58,1.58,0,0,1,1.41-.82,1.41,1.41,0,0,1,.5.08Z"/><path d="M83.55,106.15a.64.64,0,0,0-.31-.58,3.35,3.35,0,0,0-1-.35,5,5,0,0,1-1.2-.39A1.6,1.6,0,0,1,80,103.35a1.66,1.66,0,0,1,.68-1.37,2.69,2.69,0,0,1,1.74-.55,2.84,2.84,0,0,1,1.82.56,1.78,1.78,0,0,1,.69,1.45H83.48a.9.9,0,0,0-.3-.68,1.16,1.16,0,0,0-.8-.27,1.22,1.22,0,0,0-.76.22.69.69,0,0,0-.29.58.57.57,0,0,0,.27.5,3.37,3.37,0,0,0,1.1.37,4.88,4.88,0,0,1,1.3.44,1.88,1.88,0,0,1,.71.61,1.6,1.6,0,0,1,.23.86,1.68,1.68,0,0,1-.71,1.39,3,3,0,0,1-1.83.53A3.18,3.18,0,0,1,81,107.7a2.24,2.24,0,0,1-.94-.77,1.84,1.84,0,0,1-.33-1.05h1.37a1,1,0,0,0,.37.77,1.46,1.46,0,0,0,.92.27,1.42,1.42,0,0,0,.85-.21A.67.67,0,0,0,83.55,106.15Z"/><path d="M92.84,107.87h-1.4V101l-2.07.71v-1.19l3.29-1.22h.18Z"/><path d="M99.77,104.31a2.3,2.3,0,0,1-3.43,0,3.13,3.13,0,0,1-.66-2.07,3.3,3.3,0,0,1,.34-1.52,2.53,2.53,0,0,1,1-1.07,2.76,2.76,0,0,1,1.44-.38,2.43,2.43,0,0,1,2,1,4.07,4.07,0,0,1,.75,2.57v.39a5.28,5.28,0,0,1-1,3.52,3.88,3.88,0,0,1-3.08,1.22H96.9v-1.17h.21a2.82,2.82,0,0,0,1.91-.61A2.56,2.56,0,0,0,99.77,104.31ZM98.41,104a1.41,1.41,0,0,0,.79-.24,1.68,1.68,0,0,0,.58-.68v-.56A2.72,2.72,0,0,0,99.4,101a1.17,1.17,0,0,0-1-.57,1.15,1.15,0,0,0-1,.5,2.17,2.17,0,0,0-.36,1.28,2.06,2.06,0,0,0,.37,1.29A1.13,1.13,0,0,0,98.41,104Z"/><path d="M106.89,101.55l0,.66a2.24,2.24,0,0,1,1.81-.78,1.72,1.72,0,0,1,1.72,1,2.22,2.22,0,0,1,1.92-1,1.94,1.94,0,0,1,1.55.58,2.54,2.54,0,0,1,.52,1.7v4.16H113v-4.12a1.28,1.28,0,0,0-.26-.88,1.4,1.4,0,0,0-1.65,0,1.42,1.42,0,0,0-.43.68v4.34H109.3v-4.16a1,1,0,0,0-1.13-1.12,1.24,1.24,0,0,0-1.2.7v4.58h-1.41v-6.32Z"/><path d="M115.9,99.9a.74.74,0,0,1,.2-.54.81.81,0,0,1,.59-.22.79.79,0,0,1,.59.22.75.75,0,0,1,.21.54.73.73,0,0,1-.21.54.79.79,0,0,1-.59.21.8.8,0,0,1-.59-.21A.72.72,0,0,1,115.9,99.9Zm1.49,8H116v-6.32h1.41Z"/><path d="M120.23,101.55l0,.73a2.24,2.24,0,0,1,1.83-.85c1.3,0,2,.75,2,2.26v4.18h-1.41v-4.1a1.31,1.31,0,0,0-.25-.89,1.12,1.12,0,0,0-.85-.29,1.36,1.36,0,0,0-1.27.78v4.5H118.9v-6.32Z"/><path d="M129,106.15a.64.64,0,0,0-.31-.58,3.35,3.35,0,0,0-1-.35,5,5,0,0,1-1.2-.39,1.6,1.6,0,0,1-1-1.48,1.69,1.69,0,0,1,.68-1.37,2.69,2.69,0,0,1,1.74-.55,2.82,2.82,0,0,1,1.82.56,1.78,1.78,0,0,1,.69,1.45H129a.9.9,0,0,0-.3-.68,1.16,1.16,0,0,0-.8-.27,1.22,1.22,0,0,0-.76.22.69.69,0,0,0-.29.58.57.57,0,0,0,.27.5,3.45,3.45,0,0,0,1.11.37,5.14,5.14,0,0,1,1.3.44,1.92,1.92,0,0,1,.7.61,1.6,1.6,0,0,1,.23.86,1.69,1.69,0,0,1-.7,1.39,3,3,0,0,1-1.84.53,3.21,3.21,0,0,1-1.38-.29,2.15,2.15,0,0,1-.93-.77,1.78,1.78,0,0,1-.34-1.05h1.37a1,1,0,0,0,.37.77,1.49,1.49,0,0,0,.93.27,1.41,1.41,0,0,0,.84-.21A.67.67,0,0,0,129,106.15Z"/><path d="M134.34,104.65a3.84,3.84,0,0,1,.37-1.68,2.65,2.65,0,0,1,1-1.14,2.82,2.82,0,0,1,1.51-.4,2.7,2.7,0,0,1,2.06.82,3.24,3.24,0,0,1,.86,2.19v.33a3.76,3.76,0,0,1-.35,1.67,2.69,2.69,0,0,1-1,1.14,2.87,2.87,0,0,1-1.53.41,2.7,2.7,0,0,1-2.13-.9,3.42,3.42,0,0,1-.8-2.37Zm1.41.12a2.62,2.62,0,0,0,.4,1.53,1.4,1.4,0,0,0,2.23,0,2.86,2.86,0,0,0,.39-1.64,2.47,2.47,0,0,0-.41-1.52,1.37,1.37,0,0,0-2.2,0A2.79,2.79,0,0,0,135.75,104.77Z"/><path d="M142.67,101.55l0,.73a2.26,2.26,0,0,1,1.83-.85c1.31,0,2,.75,2,2.26v4.18h-1.4v-4.1a1.31,1.31,0,0,0-.26-.89,1.12,1.12,0,0,0-.85-.29,1.37,1.37,0,0,0-1.27.78v4.5h-1.4v-6.32Z"/><rect class="cls-3" x="34.41" y="151.84" width="137.28" height="46.16"/><path class="cls-1" d="M48.07,161.22l-.88.94v2.43H45.85v-7.8h1.34v3.66l.75-.93,2.26-2.73h1.63L49,160.25l3,4.34H50.4Z"/><path class="cls-1" d="M52.2,161.64a3.51,3.51,0,0,1,.33-1.54,2.52,2.52,0,0,1,.94-1,2.69,2.69,0,0,1,1.39-.36,2.5,2.5,0,0,1,1.89.75,3,3,0,0,1,.79,2v.31a3.44,3.44,0,0,1-.33,1.53,2.38,2.38,0,0,1-.93,1.05,2.71,2.71,0,0,1-1.4.37,2.48,2.48,0,0,1-2-.82,3.14,3.14,0,0,1-.73-2.18Zm1.29.11a2.38,2.38,0,0,0,.36,1.4,1.2,1.2,0,0,0,1,.51,1.16,1.16,0,0,0,1-.52,2.59,2.59,0,0,0,.37-1.5,2.29,2.29,0,0,0-.38-1.39,1.25,1.25,0,0,0-2,0A2.51,2.51,0,0,0,53.49,161.75Z"/><path class="cls-1" d="M63.68,161.75a3.49,3.49,0,0,1-.6,2.15,2,2,0,0,1-1.64.8,1.88,1.88,0,0,1-1.58-.74l-.06.63H58.63v-8.23h1.29v3a1.86,1.86,0,0,1,1.5-.66,2,2,0,0,1,1.66.78,3.57,3.57,0,0,1,.6,2.2Zm-1.29-.11a2.5,2.5,0,0,0-.33-1.42,1.11,1.11,0,0,0-1-.47,1.21,1.21,0,0,0-1.18.74v2.39a1.22,1.22,0,0,0,1.19.76,1.1,1.1,0,0,0,.94-.46,2.41,2.41,0,0,0,.34-1.38Z"/><path class="cls-1" d="M67.29,164.7a2.66,2.66,0,0,1-2-.78,2.83,2.83,0,0,1-.76-2.08v-.16a3.5,3.5,0,0,1,.33-1.55,2.47,2.47,0,0,1,.93-1.06,2.41,2.41,0,0,1,1.34-.38,2.28,2.28,0,0,1,1.82.75,3.25,3.25,0,0,1,.64,2.14v.52H65.84a1.76,1.76,0,0,0,.48,1.14,1.39,1.39,0,0,0,1.05.42,1.72,1.72,0,0,0,1.44-.73l.7.67a2.29,2.29,0,0,1-.93.81A2.85,2.85,0,0,1,67.29,164.7Zm-.15-5a1.09,1.09,0,0,0-.86.38,1.91,1.91,0,0,0-.42,1h2.46v-.1a1.59,1.59,0,0,0-.34-1A1.08,1.08,0,0,0,67.14,159.73Z"/><path class="cls-1" d="M75.17,156.79l2.24,6,2.22-6h1.74v7.8H80V162l.13-3.44-2.28,6h-1l-2.28-6,.13,3.44v2.57H73.43v-7.8Z"/><path class="cls-1" d="M86.32,164a2,2,0,0,1-1.62.68,1.77,1.77,0,0,1-1.41-.56,2.29,2.29,0,0,1-.49-1.59v-3.76h1.29v3.74c0,.74.31,1.11.91,1.11a1.28,1.28,0,0,0,1.27-.68v-4.17h1.29v5.8H86.35Z"/><path class="cls-1" d="M90.08,158.79l0,.67a2.1,2.1,0,0,1,1.68-.77c1.2,0,1.8.69,1.83,2.07v3.83h-1.3v-3.76a1.17,1.17,0,0,0-.23-.81,1,1,0,0,0-.77-.27,1.25,1.25,0,0,0-1.17.71v4.13H88.86v-5.8Z"/><path class="cls-1" d="M94.93,157.29a.72.72,0,0,1,.19-.5.73.73,0,0,1,.54-.2.72.72,0,0,1,.54.2.68.68,0,0,1,.19.5.67.67,0,0,1-.19.49.71.71,0,0,1-.54.19.73.73,0,0,1-.54-.19A.71.71,0,0,1,94.93,157.29Zm1.37,7.3H95v-5.8H96.3Z"/><path class="cls-1" d="M100.07,163.66a1.16,1.16,0,0,0,.8-.29,1,1,0,0,0,.34-.7h1.22a2,2,0,0,1-.34,1,2.19,2.19,0,0,1-.85.74,2.5,2.5,0,0,1-1.15.28,2.47,2.47,0,0,1-1.92-.79,3.16,3.16,0,0,1-.7-2.18v-.13a3.08,3.08,0,0,1,.7-2.12,2.41,2.41,0,0,1,1.91-.79,2.36,2.36,0,0,1,1.67.6,2.16,2.16,0,0,1,.68,1.58h-1.22a1.24,1.24,0,0,0-.33-.82,1.12,1.12,0,0,0-.81-.32,1.13,1.13,0,0,0-1,.46,2.37,2.37,0,0,0-.34,1.39v.21a2.41,2.41,0,0,0,.33,1.4A1.14,1.14,0,0,0,100.07,163.66Z"/><path class="cls-1" d="M103.41,157.29a.71.71,0,0,1,.18-.5.73.73,0,0,1,.54-.2.74.74,0,0,1,.55.2.74.74,0,0,1,0,1,.74.74,0,0,1-.55.19.73.73,0,0,1-.54-.19A.71.71,0,0,1,103.41,157.29Zm1.37,7.3h-1.29v-5.8h1.29Z"/><path class="cls-1" d="M111.22,161.75a3.52,3.52,0,0,1-.61,2.15,2.09,2.09,0,0,1-3.14.17v2.75h-1.29v-8h1.19l0,.59a1.91,1.91,0,0,1,1.55-.69,2,2,0,0,1,1.65.79,3.52,3.52,0,0,1,.6,2.19Zm-1.29-.11a2.43,2.43,0,0,0-.34-1.38,1.12,1.12,0,0,0-1-.51,1.19,1.19,0,0,0-1.14.66V163a1.21,1.21,0,0,0,1.15.68,1.11,1.11,0,0,0,1-.5A2.63,2.63,0,0,0,109.93,161.64Z"/><path class="cls-1" d="M115.74,164.59a2.71,2.71,0,0,1-.15-.54,2,2,0,0,1-1.51.65,2,2,0,0,1-1.41-.5,1.6,1.6,0,0,1-.54-1.23,1.65,1.65,0,0,1,.68-1.43,3.27,3.27,0,0,1,2-.49h.79v-.38a1,1,0,0,0-.25-.72,1,1,0,0,0-.76-.27,1.12,1.12,0,0,0-.72.22.69.69,0,0,0-.28.56h-1.29a1.46,1.46,0,0,1,.31-.89,2.17,2.17,0,0,1,.85-.65,2.94,2.94,0,0,1,1.21-.23,2.41,2.41,0,0,1,1.61.51,1.82,1.82,0,0,1,.61,1.44v2.61a3.08,3.08,0,0,0,.22,1.25v.09Zm-1.42-.94a1.39,1.39,0,0,0,.72-.19,1.17,1.17,0,0,0,.51-.5v-1.09h-.69a1.87,1.87,0,0,0-1.08.25.81.81,0,0,0-.36.71.78.78,0,0,0,.24.6A1,1,0,0,0,114.32,163.65Z"/><path class="cls-1" d="M119.57,164.59h-1.29v-8.23h1.29Z"/><path class="cls-1" d="M127.85,162.58a.93.93,0,0,0-.36-.79,4.2,4.2,0,0,0-1.29-.57,5.69,5.69,0,0,1-1.49-.63,2,2,0,0,1-1.06-1.74,1.92,1.92,0,0,1,.77-1.56,3.08,3.08,0,0,1,2-.61,3.3,3.3,0,0,1,1.43.3,2.34,2.34,0,0,1,1,.86,2.21,2.21,0,0,1,.36,1.23h-1.34a1.24,1.24,0,0,0-.38-1,1.55,1.55,0,0,0-1.09-.35,1.63,1.63,0,0,0-1,.29,1,1,0,0,0-.36.79.86.86,0,0,0,.39.72,4.46,4.46,0,0,0,1.3.55,6.05,6.05,0,0,1,1.45.62,2.33,2.33,0,0,1,.8.79,2.1,2.1,0,0,1,.26,1,1.85,1.85,0,0,1-.75,1.55,3.2,3.2,0,0,1-2,.58,3.72,3.72,0,0,1-1.54-.32,2.65,2.65,0,0,1-1.1-.86,2.18,2.18,0,0,1-.38-1.29h1.34a1.27,1.27,0,0,0,.43,1,1.92,1.92,0,0,0,1.25.36,1.68,1.68,0,0,0,1.06-.28A1,1,0,0,0,127.85,162.58Z"/><path class="cls-1" d="M133.73,164a2,2,0,0,1-1.61.68,1.77,1.77,0,0,1-1.42-.56,2.34,2.34,0,0,1-.48-1.59v-3.76h1.29v3.74c0,.74.3,1.11.91,1.11a1.28,1.28,0,0,0,1.27-.68v-4.17H135v5.8h-1.22Z"/><path class="cls-1" d="M141.34,161.75a3.49,3.49,0,0,1-.6,2.15,1.94,1.94,0,0,1-1.64.8,1.85,1.85,0,0,1-1.57-.74l-.07.63h-1.17v-8.23h1.29v3a1.89,1.89,0,0,1,1.51-.66,2,2,0,0,1,1.65.78,3.57,3.57,0,0,1,.6,2.2Zm-1.29-.11a2.5,2.5,0,0,0-.33-1.42,1.11,1.11,0,0,0-1-.47,1.21,1.21,0,0,0-1.18.74v2.39a1.22,1.22,0,0,0,1.19.76,1.1,1.1,0,0,0,.94-.46,2.41,2.41,0,0,0,.34-1.38Z"/><path class="cls-1" d="M147.47,162.79l.91-4h1.26l-1.56,5.8H147l-1.23-4-1.21,4h-1.06l-1.57-5.8h1.25l.93,4,1.18-4h1Z"/><path class="cls-1" d="M153.94,164.59a2.16,2.16,0,0,1-.15-.54,2,2,0,0,1-1.51.65,2,2,0,0,1-1.41-.5,1.61,1.61,0,0,1-.55-1.23,1.66,1.66,0,0,1,.69-1.43,3.27,3.27,0,0,1,2-.49h.79v-.38a1,1,0,0,0-.25-.72,1,1,0,0,0-.76-.27,1.12,1.12,0,0,0-.72.22.69.69,0,0,0-.28.56h-1.29a1.46,1.46,0,0,1,.31-.89,2.17,2.17,0,0,1,.85-.65,2.94,2.94,0,0,1,1.21-.23,2.41,2.41,0,0,1,1.61.51,1.82,1.82,0,0,1,.61,1.44v2.61a2.92,2.92,0,0,0,.22,1.25v.09Zm-1.42-.94a1.39,1.39,0,0,0,.72-.19,1.17,1.17,0,0,0,.51-.5v-1.09h-.7a1.86,1.86,0,0,0-1.07.25.81.81,0,0,0-.36.71.78.78,0,0,0,.24.6A1,1,0,0,0,152.52,163.65Z"/><path class="cls-1" d="M158.4,162.72l1.17-3.93H161l-2.28,6.68a1.88,1.88,0,0,1-1.79,1.46,2.1,2.1,0,0,1-.62-.1v-1l.24,0a1,1,0,0,0,1.13-.78l.19-.5-2-5.77h1.39Z"/><path class="cls-1" d="M52,174.58a8.24,8.24,0,0,1,.33-2.35,6.3,6.3,0,0,1,1-2A3.66,3.66,0,0,1,54.61,169l.25.76a3.92,3.92,0,0,0-1.21,1.75,7.9,7.9,0,0,0-.51,2.69v.46a8.6,8.6,0,0,0,.45,2.89,4.27,4.27,0,0,0,1.27,1.94l-.25.72A3.66,3.66,0,0,1,53.26,179a6.47,6.47,0,0,1-1-2A8.5,8.5,0,0,1,52,174.58Z"/><path class="cls-1" d="M59.91,175.74a1,1,0,0,0-.36-.79,4.46,4.46,0,0,0-1.3-.56,6.18,6.18,0,0,1-1.48-.63A2,2,0,0,1,55.71,172a1.88,1.88,0,0,1,.76-1.55,3.06,3.06,0,0,1,2-.61,3.31,3.31,0,0,1,1.44.3,2.35,2.35,0,0,1,1,.85,2.21,2.21,0,0,1,.36,1.23H59.91a1.24,1.24,0,0,0-.38-1,1.58,1.58,0,0,0-1.09-.34,1.61,1.61,0,0,0-1,.28,1,1,0,0,0-.37.8.84.84,0,0,0,.4.71,4.47,4.47,0,0,0,1.29.56,5.9,5.9,0,0,1,1.45.61,2.38,2.38,0,0,1,.81.8,2,2,0,0,1,.25,1,1.87,1.87,0,0,1-.74,1.55,3.18,3.18,0,0,1-2,.58,3.77,3.77,0,0,1-1.55-.31,2.64,2.64,0,0,1-1.09-.87,2.16,2.16,0,0,1-.39-1.28h1.34a1.25,1.25,0,0,0,.44,1,1.87,1.87,0,0,0,1.25.37,1.64,1.64,0,0,0,1-.29A.92.92,0,0,0,59.91,175.74Z"/><path class="cls-1" d="M64.84,177.86a2.66,2.66,0,0,1-2-.78,2.84,2.84,0,0,1-.77-2.08v-.16a3.56,3.56,0,0,1,.34-1.55,2.53,2.53,0,0,1,.93-1.06,2.49,2.49,0,0,1,1.34-.38,2.22,2.22,0,0,1,1.81.76,3.17,3.17,0,0,1,.64,2.13v.53H63.39a1.68,1.68,0,0,0,.47,1.13,1.42,1.42,0,0,0,1,.42,1.77,1.77,0,0,0,1.45-.72l.69.67a2.38,2.38,0,0,1-.92.8A2.88,2.88,0,0,1,64.84,177.86Zm-.16-5a1.1,1.1,0,0,0-.86.38,2,2,0,0,0-.41,1h2.46v-.09a1.6,1.6,0,0,0-.35-1A1.08,1.08,0,0,0,64.68,172.89Z"/><path class="cls-1" d="M68.15,170.45a.77.77,0,0,1,1.27-.5.74.74,0,0,1,.19.5.7.7,0,0,1-.19.49.74.74,0,0,1-.55.2.73.73,0,0,1-.54-.2A.69.69,0,0,1,68.15,170.45Zm1.37,7.3H68.23V172h1.29Z"/><path class="cls-1" d="M74.14,176.18a.59.59,0,0,0-.28-.53,3,3,0,0,0-.94-.32,4.73,4.73,0,0,1-1.1-.36,1.47,1.47,0,0,1-1-1.36,1.56,1.56,0,0,1,.63-1.26,2.5,2.5,0,0,1,1.59-.5,2.6,2.6,0,0,1,1.67.51,1.66,1.66,0,0,1,.63,1.34H74.08a.81.81,0,0,0-.28-.63,1.05,1.05,0,0,0-.73-.24,1.15,1.15,0,0,0-.69.19.64.64,0,0,0-.27.53.53.53,0,0,0,.25.47,3.4,3.4,0,0,0,1,.33,4.78,4.78,0,0,1,1.19.41,1.61,1.61,0,0,1,.64.56,1.41,1.41,0,0,1,.21.79,1.52,1.52,0,0,1-.64,1.27,2.74,2.74,0,0,1-1.68.48,3,3,0,0,1-1.26-.26,2,2,0,0,1-.86-.7,1.67,1.67,0,0,1-.31-1h1.25a1,1,0,0,0,.35.71,1.35,1.35,0,0,0,.84.24,1.32,1.32,0,0,0,.78-.19A.59.59,0,0,0,74.14,176.18Z"/><path class="cls-1" d="M77.81,172.59a2,2,0,0,1,1.6-.74c1.22,0,1.85.71,1.86,2.12v3.78H80V174a1.13,1.13,0,0,0-.25-.84,1.06,1.06,0,0,0-.76-.25,1.24,1.24,0,0,0-1.16.69v4.14H76.52v-8.22h1.29Z"/><path class="cls-1" d="M82.58,170.45a.69.69,0,0,1,.19-.5.86.86,0,0,1,1.08,0,.69.69,0,0,1,.19.5.66.66,0,0,1-.19.49.83.83,0,0,1-1.08,0A.66.66,0,0,1,82.58,170.45Zm1.37,7.3H82.66V172H84Z"/><path class="cls-1" d="M86.55,172l0,.67a2.08,2.08,0,0,1,1.68-.78c1.19,0,1.8.69,1.82,2.07v3.83H88.8V174a1.25,1.25,0,0,0-.23-.82,1,1,0,0,0-.78-.26,1.22,1.22,0,0,0-1.16.71v4.12H85.34V172Z"/><path class="cls-1" d="M93.91,175H91.12v-1.05h2.79Z"/><path class="cls-1" d="M97.63,173.65l1.78-3.7h1.48l-2.59,4.93v2.87H97v-2.87L94.35,170h1.5Z"/><path class="cls-1" d="M104.71,177.75a1.8,1.8,0,0,1-.15-.54,2.15,2.15,0,0,1-2.92.15,1.58,1.58,0,0,1-.55-1.23,1.65,1.65,0,0,1,.68-1.42,3.32,3.32,0,0,1,2-.5h.79v-.38a1,1,0,0,0-.25-.72,1,1,0,0,0-.76-.27,1.14,1.14,0,0,0-.72.22.7.7,0,0,0-.29.57h-1.29a1.43,1.43,0,0,1,.32-.89,2,2,0,0,1,.85-.65,2.92,2.92,0,0,1,1.2-.24,2.41,2.41,0,0,1,1.61.51,1.83,1.83,0,0,1,.62,1.44v2.61a2.89,2.89,0,0,0,.22,1.25v.09Zm-1.42-.93a1.52,1.52,0,0,0,.72-.19,1.39,1.39,0,0,0,.51-.51V175h-.7a2,2,0,0,0-1.08.25.83.83,0,0,0-.36.72.72.72,0,0,0,.25.59A.93.93,0,0,0,103.29,176.82Z"/><path class="cls-1" d="M108.37,172l0,.6a2.09,2.09,0,0,1,1.66-.71,1.6,1.6,0,0,1,1.58.89,2,2,0,0,1,1.76-.89,1.81,1.81,0,0,1,1.42.53,2.34,2.34,0,0,1,.47,1.56v3.81H114V174a1.15,1.15,0,0,0-.24-.81,1,1,0,0,0-.79-.25,1.13,1.13,0,0,0-.72.23,1.28,1.28,0,0,0-.39.63v4h-1.3v-3.81a.92.92,0,0,0-1-1,1.14,1.14,0,0,0-1.1.63v4.2h-1.29V172Z"/><path class="cls-1" d="M120.06,177.75a2.71,2.71,0,0,1-.15-.54,2,2,0,0,1-1.5.65,2.05,2.05,0,0,1-1.42-.5,1.6,1.6,0,0,1-.54-1.23,1.63,1.63,0,0,1,.68-1.42,3.26,3.26,0,0,1,2-.5h.79v-.38a1,1,0,0,0-.25-.72,1,1,0,0,0-.76-.27,1.19,1.19,0,0,0-.72.22.69.69,0,0,0-.28.57h-1.29a1.42,1.42,0,0,1,.31-.89,2,2,0,0,1,.85-.65,2.94,2.94,0,0,1,1.21-.24,2.41,2.41,0,0,1,1.61.51,1.82,1.82,0,0,1,.61,1.44v2.61a3,3,0,0,0,.22,1.25v.09Zm-1.42-.93a1.49,1.49,0,0,0,.72-.19,1.25,1.25,0,0,0,.51-.51V175h-.69a2,2,0,0,0-1.08.25.83.83,0,0,0-.36.72.75.75,0,0,0,.24.59A1,1,0,0,0,118.64,176.82Z"/><path class="cls-1" d="M124.13,170.55V172h1v1h-1v3.24a.76.76,0,0,0,.13.48.64.64,0,0,0,.47.14,1.73,1.73,0,0,0,.45-.05v1a3.23,3.23,0,0,1-.85.12c-1,0-1.49-.55-1.49-1.65v-3.29h-.94v-1h.94v-1.41Z"/><path class="cls-1" d="M128.66,177.86a2.67,2.67,0,0,1-2-.78,2.88,2.88,0,0,1-.76-2.08v-.16a3.56,3.56,0,0,1,.33-1.55,2.55,2.55,0,0,1,.94-1.06,2.46,2.46,0,0,1,1.33-.38,2.24,2.24,0,0,1,1.82.76,3.17,3.17,0,0,1,.64,2.13v.53h-3.76a1.73,1.73,0,0,0,.48,1.13,1.42,1.42,0,0,0,1.05.42,1.74,1.74,0,0,0,1.44-.72l.7.67a2.38,2.38,0,0,1-.92.8A2.92,2.92,0,0,1,128.66,177.86Zm-.15-5a1.1,1.1,0,0,0-.86.38,1.94,1.94,0,0,0-.42,1h2.46v-.09a1.54,1.54,0,0,0-.34-1A1.08,1.08,0,0,0,128.51,172.89Z"/><path class="cls-1" d="M138.12,177.75a1.8,1.8,0,0,1-.15-.54,2,2,0,0,1-1.51.65,2.05,2.05,0,0,1-1.42-.5,1.6,1.6,0,0,1-.54-1.23,1.65,1.65,0,0,1,.68-1.42,3.3,3.3,0,0,1,1.95-.5h.79v-.38a1,1,0,0,0-.25-.72,1,1,0,0,0-.75-.27,1.2,1.2,0,0,0-.73.22.69.69,0,0,0-.28.57h-1.29a1.42,1.42,0,0,1,.31-.89,2,2,0,0,1,.86-.65,2.92,2.92,0,0,1,1.2-.24,2.41,2.41,0,0,1,1.61.51,1.83,1.83,0,0,1,.62,1.44v2.61a3.06,3.06,0,0,0,.21,1.25v.09Zm-1.42-.93a1.55,1.55,0,0,0,.72-.19,1.29,1.29,0,0,0,.5-.51V175h-.69a2,2,0,0,0-1.08.25.83.83,0,0,0-.36.72.72.72,0,0,0,.25.59A.93.93,0,0,0,136.7,176.82Z"/><path class="cls-1" d="M141.77,172l0,.67a2.08,2.08,0,0,1,1.68-.78c1.19,0,1.8.69,1.82,2.07v3.83H144V174a1.25,1.25,0,0,0-.23-.82,1,1,0,0,0-.78-.26,1.22,1.22,0,0,0-1.16.71v4.12h-1.29V172Z"/><path class="cls-1" d="M146.38,174.81a3.47,3.47,0,0,1,.61-2.15,2,2,0,0,1,1.66-.81,1.85,1.85,0,0,1,1.47.64v-3h1.29v8.22h-1.17l-.06-.6a1.91,1.91,0,0,1-1.55.71A2,2,0,0,1,147,177,3.58,3.58,0,0,1,146.38,174.81Zm1.29.11a2.47,2.47,0,0,0,.33,1.38,1.11,1.11,0,0,0,1,.5,1.22,1.22,0,0,0,1.16-.71v-2.48a1.2,1.2,0,0,0-1.15-.69,1.08,1.08,0,0,0-1,.5A2.64,2.64,0,0,0,147.67,174.92Z"/><path class="cls-1" d="M72.88,187.55l-.88.94v2.43H70.66v-7.8H72v3.66l.75-.93L75,183.12h1.63l-2.88,3.45,3,4.35H75.21Z"/><path class="cls-1" d="M80.83,190.92a1.8,1.8,0,0,1-.15-.54,2.18,2.18,0,0,1-2.92.15,1.61,1.61,0,0,1-.55-1.24,1.67,1.67,0,0,1,.68-1.42,3.31,3.31,0,0,1,2-.49h.8V187a1,1,0,0,0-.25-.72,1,1,0,0,0-.76-.28,1.14,1.14,0,0,0-.73.23.7.7,0,0,0-.28.56H77.33a1.45,1.45,0,0,1,.32-.89,2,2,0,0,1,.85-.65,2.92,2.92,0,0,1,1.2-.24,2.36,2.36,0,0,1,1.61.52,1.82,1.82,0,0,1,.62,1.43v2.62a2.92,2.92,0,0,0,.22,1.25v.09ZM79.41,190a1.44,1.44,0,0,0,.72-.19,1.29,1.29,0,0,0,.51-.5V188.2h-.7a1.87,1.87,0,0,0-1.08.25.81.81,0,0,0-.36.71.76.76,0,0,0,.25.6A.92.92,0,0,0,79.41,190Z"/><path class="cls-1" d="M83.28,183.62a.68.68,0,0,1,.19-.5.83.83,0,0,1,1.08,0,.68.68,0,0,1,.19.5.67.67,0,0,1-.19.49.86.86,0,0,1-1.08,0A.67.67,0,0,1,83.28,183.62Zm1.37,7.3H83.36v-5.8h1.29Z"/><path class="cls-1" d="M85.83,188a3.42,3.42,0,0,1,.63-2.16,2,2,0,0,1,1.67-.81,1.87,1.87,0,0,1,1.55.7l.06-.59H90.9v5.62a2.34,2.34,0,0,1-.7,1.8,2.68,2.68,0,0,1-1.9.66,3,3,0,0,1-1.24-.27,2.1,2.1,0,0,1-.91-.69l.61-.78a1.83,1.83,0,0,0,1.46.71,1.45,1.45,0,0,0,1-.35,1.34,1.34,0,0,0,.37-1v-.39a1.88,1.88,0,0,1-1.49.62,2,2,0,0,1-1.65-.81A3.52,3.52,0,0,1,85.83,188Zm1.29.11a2.37,2.37,0,0,0,.35,1.37,1.12,1.12,0,0,0,1,.5,1.24,1.24,0,0,0,1.16-.67v-2.55a1.22,1.22,0,0,0-1.15-.66,1.15,1.15,0,0,0-1,.51A2.68,2.68,0,0,0,87.12,188.09Z"/><path class="cls-1" d="M95.66,190.92a2.16,2.16,0,0,1-.15-.54A2,2,0,0,1,94,191a2,2,0,0,1-1.41-.49,1.74,1.74,0,0,1,.14-2.66,3.27,3.27,0,0,1,2-.49h.79V187a.92.92,0,0,0-1-1,1.13,1.13,0,0,0-.72.23.67.67,0,0,0-.28.56H92.17a1.44,1.44,0,0,1,.31-.89,2.08,2.08,0,0,1,.85-.65,2.94,2.94,0,0,1,1.21-.24,2.36,2.36,0,0,1,1.61.52,1.85,1.85,0,0,1,.61,1.43v2.62a2.92,2.92,0,0,0,.22,1.25v.09ZM94.24,190a1.39,1.39,0,0,0,.72-.19,1.17,1.17,0,0,0,.51-.5V188.2h-.7a1.86,1.86,0,0,0-1.07.25.82.82,0,0,0-.37.71.79.79,0,0,0,.25.6A1,1,0,0,0,94.24,190Z"/><path class="cls-1" d="M99.31,185.12l0,.67A2,2,0,0,1,101,185c1.2,0,1.81.7,1.83,2.08v3.83h-1.29v-3.76a1.15,1.15,0,0,0-.24-.81,1,1,0,0,0-.77-.27,1.24,1.24,0,0,0-1.16.71v4.13h-1.3v-5.8Z"/><path class="cls-1" d="M108.34,189.83h3.52v1.09H107v-7.8h1.34Z"/><path class="cls-1" d="M112.76,183.62a.72.72,0,0,1,.19-.5.73.73,0,0,1,.54-.2.7.7,0,0,1,.54.2.68.68,0,0,1,.19.5.67.67,0,0,1-.19.49.7.7,0,0,1-.54.19.73.73,0,0,1-.54-.19A.71.71,0,0,1,112.76,183.62Zm1.37,7.3h-1.29v-5.8h1.29Z"/><path class="cls-1" d="M116.74,185.12l0,.67a2.08,2.08,0,0,1,1.68-.78c1.2,0,1.8.7,1.83,2.08v3.83H119v-3.76a1.15,1.15,0,0,0-.23-.81,1,1,0,0,0-.77-.27,1.26,1.26,0,0,0-1.17.71v4.13h-1.29v-5.8Z"/><path class="cls-1" d="M124.12,191a2.69,2.69,0,0,1-2-.77,2.85,2.85,0,0,1-.76-2.08V188a3.5,3.5,0,0,1,.33-1.55,2.56,2.56,0,0,1,.93-1.07A2.49,2.49,0,0,1,124,185a2.27,2.27,0,0,1,1.82.76,3.25,3.25,0,0,1,.64,2.14v.52h-3.76a1.76,1.76,0,0,0,.48,1.14,1.39,1.39,0,0,0,1,.42,1.75,1.75,0,0,0,1.44-.73l.7.67a2.33,2.33,0,0,1-.92.81A2.92,2.92,0,0,1,124.12,191Zm-.15-5a1.08,1.08,0,0,0-.86.37,1.94,1.94,0,0,0-.42,1h2.46v-.1a1.65,1.65,0,0,0-.34-1A1.08,1.08,0,0,0,124,186.06Z"/><path class="cls-1" d="M130.65,189.34a.59.59,0,0,0-.28-.53,3,3,0,0,0-1-.32,4.92,4.92,0,0,1-1.1-.35,1.49,1.49,0,0,1-1-1.37,1.55,1.55,0,0,1,.62-1.25,2.45,2.45,0,0,1,1.6-.51,2.55,2.55,0,0,1,1.66.52,1.62,1.62,0,0,1,.64,1.33h-1.29a.77.77,0,0,0-.28-.62,1,1,0,0,0-.73-.25,1.1,1.1,0,0,0-.7.2.64.64,0,0,0-.26.53.51.51,0,0,0,.25.46,3.23,3.23,0,0,0,1,.34,4.56,4.56,0,0,1,1.19.4,1.7,1.7,0,0,1,.64.56,1.43,1.43,0,0,1,.21.79,1.51,1.51,0,0,1-.64,1.27,2.75,2.75,0,0,1-1.69.48,3,3,0,0,1-1.26-.25,2.15,2.15,0,0,1-.86-.71,1.71,1.71,0,0,1-.3-1h1.25a.91.91,0,0,0,.35.71,1.29,1.29,0,0,0,.84.25,1.32,1.32,0,0,0,.78-.2A.62.62,0,0,0,130.65,189.34Z"/><path class="cls-1" d="M135.53,187.83a8,8,0,0,1-.32,2.3,6.59,6.59,0,0,1-1,2,3.81,3.81,0,0,1-1.38,1.26l-.25-.73a4.08,4.08,0,0,0,1.26-1.89,8.56,8.56,0,0,0,.46-2.92v-.12a8.63,8.63,0,0,0-.4-2.72,4.85,4.85,0,0,0-1.16-2l-.16-.15.25-.73a3.83,3.83,0,0,1,1.32,1.18,6.52,6.52,0,0,1,1,1.89,8.3,8.3,0,0,1,.38,2.16Z"/><rect class="cls-3" x="34.41" y="114.09" width="137.28" height="31.46"/><path class="cls-1" d="M50.55,125.33h1.34v5.47a2.35,2.35,0,0,1-.7,1.78,2.54,2.54,0,0,1-1.83.66,2.64,2.64,0,0,1-1.87-.62,2.22,2.22,0,0,1-.66-1.71h1.34a1.26,1.26,0,0,0,.31.93,1.17,1.17,0,0,0,.88.32,1.06,1.06,0,0,0,.86-.37,1.41,1.41,0,0,0,.33-1Z"/><path class="cls-1" d="M56.26,130.13H54.77v3H53.42v-7.8h2.72a3.19,3.19,0,0,1,2.07.61,2.16,2.16,0,0,1,.73,1.75,2.21,2.21,0,0,1-.38,1.31,2.43,2.43,0,0,1-1,.81l1.73,3.25v.07H57.81ZM54.77,129h1.38a1.54,1.54,0,0,0,1.06-.35,1.21,1.21,0,0,0,.38-.94,1.31,1.31,0,0,0-.35-1,1.47,1.47,0,0,0-1.06-.35H54.77Z"/><path class="cls-1" d="M68.19,126.43H65.78v6.7H64.45v-6.7H62.06v-1.1h6.13Z"/><path class="cls-1" d="M67.73,130.18a3.44,3.44,0,0,1,.34-1.53A2.41,2.41,0,0,1,69,127.6a2.58,2.58,0,0,1,1.39-.37,2.5,2.5,0,0,1,1.89.75,3,3,0,0,1,.78,2v.3a3.48,3.48,0,0,1-.33,1.54,2.54,2.54,0,0,1-.93,1,2.65,2.65,0,0,1-1.41.37,2.48,2.48,0,0,1-2-.82,3.16,3.16,0,0,1-.73-2.17Zm1.3.11a2.36,2.36,0,0,0,.36,1.4,1.2,1.2,0,0,0,1,.51,1.18,1.18,0,0,0,1-.51,2.65,2.65,0,0,0,.36-1.51,2.29,2.29,0,0,0-.37-1.39,1.21,1.21,0,0,0-1-.52,1.16,1.16,0,0,0-1,.51A2.53,2.53,0,0,0,69,130.29Z"/><path class="cls-1" d="M76,130.65l-.58.59v1.89H74.17V124.9h1.29v4.75l.41-.51,1.59-1.8H79l-2.14,2.41,2.37,3.38h-1.5Z"/><path class="cls-1" d="M83.28,133.13a2.25,2.25,0,0,1-.14-.54,2.16,2.16,0,0,1-2.93.15,1.6,1.6,0,0,1-.54-1.23,1.63,1.63,0,0,1,.68-1.42,3.28,3.28,0,0,1,2-.5h.79v-.38a1,1,0,0,0-.25-.72,1,1,0,0,0-.76-.27,1.12,1.12,0,0,0-.72.22.69.69,0,0,0-.28.57H79.79a1.42,1.42,0,0,1,.31-.89,2.13,2.13,0,0,1,.86-.66,3.06,3.06,0,0,1,1.2-.23,2.41,2.41,0,0,1,1.61.51,1.82,1.82,0,0,1,.61,1.44v2.61A3.08,3.08,0,0,0,84.6,133v.09Zm-1.41-.94a1.54,1.54,0,0,0,.72-.18,1.29,1.29,0,0,0,.5-.51v-1.09H82.4a2,2,0,0,0-1.08.25.83.83,0,0,0-.36.72.75.75,0,0,0,.25.59A.92.92,0,0,0,81.87,132.19Z"/><path class="cls-1" d="M85.74,125.83a.68.68,0,0,1,.19-.5.7.7,0,0,1,.54-.2.73.73,0,0,1,.54.2.68.68,0,0,1,.19.5.66.66,0,0,1-.19.49.73.73,0,0,1-.54.2.7.7,0,0,1-.54-.2A.66.66,0,0,1,85.74,125.83Zm1.37,7.3H85.82v-5.79h1.29Z"/><path class="cls-1" d="M88.27,130.19a3.47,3.47,0,0,1,.62-2.15,2,2,0,0,1,1.65-.81,1.87,1.87,0,0,1,1.48.64v-3h1.29v8.23H92.14l-.06-.6a1.91,1.91,0,0,1-1.55.71,1.94,1.94,0,0,1-1.63-.82A3.58,3.58,0,0,1,88.27,130.19Zm1.29.11a2.47,2.47,0,0,0,.34,1.38,1.11,1.11,0,0,0,1,.5,1.23,1.23,0,0,0,1.16-.71V129a1.21,1.21,0,0,0-1.15-.7,1.1,1.1,0,0,0-1,.51A2.73,2.73,0,0,0,89.56,130.3Z"/><path class="cls-1" d="M94.42,130.18a3.44,3.44,0,0,1,.33-1.53,2.41,2.41,0,0,1,.94-1.05,2.58,2.58,0,0,1,1.39-.37A2.5,2.5,0,0,1,99,128a3,3,0,0,1,.78,2v.3a3.48,3.48,0,0,1-.33,1.54,2.54,2.54,0,0,1-.93,1,2.65,2.65,0,0,1-1.41.37,2.45,2.45,0,0,1-1.94-.82,3.11,3.11,0,0,1-.73-2.17Zm1.29.11a2.36,2.36,0,0,0,.36,1.4,1.2,1.2,0,0,0,1,.51,1.18,1.18,0,0,0,1-.51,2.65,2.65,0,0,0,.36-1.51,2.29,2.29,0,0,0-.37-1.39,1.21,1.21,0,0,0-1-.52,1.18,1.18,0,0,0-1,.51A2.53,2.53,0,0,0,95.71,130.29Z"/><path class="cls-1" d="M107.73,131.12a1,1,0,0,0-.36-.79,4.24,4.24,0,0,0-1.29-.56,6.28,6.28,0,0,1-1.49-.63,2,2,0,0,1-1.06-1.75,1.91,1.91,0,0,1,.76-1.55,3.06,3.06,0,0,1,2-.61,3.31,3.31,0,0,1,1.44.3,2.38,2.38,0,0,1,1,.85,2.21,2.21,0,0,1,.36,1.23h-1.34a1.24,1.24,0,0,0-.38-1,1.57,1.57,0,0,0-1.09-.34,1.61,1.61,0,0,0-1,.28,1,1,0,0,0-.36.79.86.86,0,0,0,.39.72,4.42,4.42,0,0,0,1.3.56,6.07,6.07,0,0,1,1.45.61,2.35,2.35,0,0,1,.8.8,2,2,0,0,1,.25,1,1.84,1.84,0,0,1-.74,1.55,3.14,3.14,0,0,1-2,.58,3.88,3.88,0,0,1-1.54-.31,2.61,2.61,0,0,1-1.1-.87,2.18,2.18,0,0,1-.39-1.28h1.35a1.25,1.25,0,0,0,.43,1,1.87,1.87,0,0,0,1.25.37,1.67,1.67,0,0,0,1.06-.29A.94.94,0,0,0,107.73,131.12Z"/><path class="cls-1" d="M111.4,128a2,2,0,0,1,1.6-.74c1.22,0,1.85.7,1.86,2.11v3.79h-1.29v-3.74a1.17,1.17,0,0,0-.25-.85,1.1,1.1,0,0,0-.76-.25,1.25,1.25,0,0,0-1.16.7v4.14h-1.29V124.9h1.29Z"/><path class="cls-1" d="M116.17,125.83a.68.68,0,0,1,.19-.5.83.83,0,0,1,1.08,0,.68.68,0,0,1,.19.5.66.66,0,0,1-.19.49.83.83,0,0,1-1.08,0A.66.66,0,0,1,116.17,125.83Zm1.37,7.3h-1.29v-5.79h1.29Z"/><path class="cls-1" d="M120.14,127.34l0,.67a2.08,2.08,0,0,1,1.68-.78c1.19,0,1.8.69,1.82,2.07v3.83h-1.29v-3.75a1.25,1.25,0,0,0-.23-.82,1,1,0,0,0-.78-.27,1.23,1.23,0,0,0-1.16.72v4.12h-1.29v-5.79Z"/><path class="cls-1" d="M126.87,130.65l-.58.59v1.89H125V124.9h1.29v4.75l.41-.51,1.58-1.8h1.56l-2.14,2.41,2.36,3.38h-1.49Z"/><path class="cls-1" d="M134.11,133.13a2.71,2.71,0,0,1-.15-.54,2,2,0,0,1-1.5.65,2.05,2.05,0,0,1-1.42-.5,1.6,1.6,0,0,1-.54-1.23,1.63,1.63,0,0,1,.68-1.42,3.26,3.26,0,0,1,1.95-.5h.79v-.38a1,1,0,0,0-.25-.72,1,1,0,0,0-.76-.27,1.12,1.12,0,0,0-.72.22.69.69,0,0,0-.28.57h-1.29a1.42,1.42,0,0,1,.31-.89,2.1,2.1,0,0,1,.85-.66,3.11,3.11,0,0,1,1.21-.23,2.41,2.41,0,0,1,1.61.51,1.82,1.82,0,0,1,.61,1.44v2.61a3.08,3.08,0,0,0,.22,1.25v.09Zm-1.42-.94a1.48,1.48,0,0,0,.72-.18,1.25,1.25,0,0,0,.51-.51v-1.09h-.69a2,2,0,0,0-1.08.25.83.83,0,0,0-.36.72.78.78,0,0,0,.24.59A1,1,0,0,0,132.69,132.19Z"/><path class="cls-1" d="M137.76,127.34l0,.67a2,2,0,0,1,1.67-.78q1.8,0,1.83,2.07v3.83H140v-3.75a1.2,1.2,0,0,0-.24-.82,1,1,0,0,0-.77-.27,1.23,1.23,0,0,0-1.16.72v4.12h-1.29v-5.79Z"/><path class="cls-1" d="M145.84,131.56a.6.6,0,0,0-.29-.53,2.86,2.86,0,0,0-.94-.32,4.89,4.89,0,0,1-1.1-.36,1.48,1.48,0,0,1-1-1.36,1.56,1.56,0,0,1,.63-1.26,2.51,2.51,0,0,1,1.6-.5,2.57,2.57,0,0,1,1.66.51,1.67,1.67,0,0,1,.64,1.34h-1.29a.84.84,0,0,0-.28-.63,1.09,1.09,0,0,0-.73-.25,1.16,1.16,0,0,0-.7.2.62.62,0,0,0-.27.53.55.55,0,0,0,.25.47,3.51,3.51,0,0,0,1,.33,5.38,5.38,0,0,1,1.2.4,1.87,1.87,0,0,1,.64.56,1.47,1.47,0,0,1,.21.8,1.52,1.52,0,0,1-.64,1.26,2.69,2.69,0,0,1-1.69.49,3,3,0,0,1-1.26-.26,2,2,0,0,1-.86-.71,1.71,1.71,0,0,1-.31-1h1.26a.91.91,0,0,0,.34.7,1.34,1.34,0,0,0,.85.25,1.27,1.27,0,0,0,.77-.19A.6.6,0,0,0,145.84,131.56Z"/><path class="cls-1" d="M150.76,133.24a2.67,2.67,0,0,1-2-.78,2.88,2.88,0,0,1-.76-2.08v-.16a3.53,3.53,0,0,1,.33-1.55,2.55,2.55,0,0,1,.94-1.06,2.46,2.46,0,0,1,1.33-.38,2.26,2.26,0,0,1,1.82.75,3.22,3.22,0,0,1,.64,2.14v.53h-3.76a1.75,1.75,0,0,0,.48,1.13,1.42,1.42,0,0,0,1.05.42,1.74,1.74,0,0,0,1.44-.72l.7.67a2.38,2.38,0,0,1-.92.8A2.92,2.92,0,0,1,150.76,133.24Zm-.15-5a1.09,1.09,0,0,0-.86.38,1.94,1.94,0,0,0-.42,1h2.46v-.09a1.54,1.54,0,0,0-.34-1A1.05,1.05,0,0,0,150.61,128.27Z"/><path class="cls-1" d="M155.27,127.34l0,.67a2,2,0,0,1,1.67-.78q1.8,0,1.83,2.07v3.83h-1.29v-3.75a1.2,1.2,0,0,0-.24-.82,1,1,0,0,0-.77-.27,1.26,1.26,0,0,0-1.17.72v4.12h-1.29v-5.79Z"/></g><g id="Getting_There_Title" data-name="Getting There Title"><rect class="cls-2" x="1" width="599.49" height="64.82"/><path class="cls-1" d="M174.91,36.85a5.49,5.49,0,0,1-2.43,1.61A9.94,9.94,0,0,1,169,39a6.84,6.84,0,0,1-3.52-.89,5.88,5.88,0,0,1-2.34-2.56,9.17,9.17,0,0,1-.85-4V30.57a9.52,9.52,0,0,1,.79-4,5.77,5.77,0,0,1,2.25-2.61,7.36,7.36,0,0,1,7.75.41,5.67,5.67,0,0,1,1.84,3.86h-3.1a3.16,3.16,0,0,0-.94-2,3,3,0,0,0-2-.62,2.81,2.81,0,0,0-2.47,1.23,6.48,6.48,0,0,0-.86,3.67v1a6.16,6.16,0,0,0,.92,3.7,3.15,3.15,0,0,0,2.71,1.26,3.48,3.48,0,0,0,2.56-.78V33h-2.9V30.63h6.09Z"/><path class="cls-1" d="M187,32.06h-6.12v4.18h7.18v2.58H177.73V23.22h10.35v2.61h-7.16v3.71H187Z"/><path class="cls-1" d="M202.12,25.83h-4.74v13h-3.19v-13h-4.67V23.22h12.6Z"/><path class="cls-1" d="M216.12,25.83h-4.74v13h-3.19v-13h-4.67V23.22h12.6Z"/><path class="cls-1" d="M221.28,38.82h-3.19V23.22h3.19Z"/><path class="cls-1" d="M237,38.82h-3.19l-6.21-10.26V38.82H224.4V23.22h3.18l6.22,10.29V23.22H237Z"/><path class="cls-1" d="M252.14,36.85a5.58,5.58,0,0,1-2.44,1.61,9.93,9.93,0,0,1-3.48.58,6.88,6.88,0,0,1-3.53-.89,5.88,5.88,0,0,1-2.34-2.56,9,9,0,0,1-.84-4V30.57a9.67,9.67,0,0,1,.78-4,5.77,5.77,0,0,1,2.25-2.61A6.39,6.39,0,0,1,246,23a6.46,6.46,0,0,1,4.31,1.32,5.76,5.76,0,0,1,1.84,3.86H249a3.11,3.11,0,0,0-.94-2,3,3,0,0,0-2-.62,2.82,2.82,0,0,0-2.48,1.23,6.56,6.56,0,0,0-.86,3.67v1a6.23,6.23,0,0,0,.92,3.7,3.17,3.17,0,0,0,2.72,1.26,3.5,3.5,0,0,0,2.56-.78V33H246V30.63h6.1Z"/><path class="cls-1" d="M272,25.83h-4.74v13h-3.19v-13H259.4V23.22H272Z"/><path class="cls-1" d="M286.26,31.38a9.49,9.49,0,0,1-.81,4,6.11,6.11,0,0,1-2.31,2.67,6.76,6.76,0,0,1-6.88,0,6.17,6.17,0,0,1-2.34-2.67,9.28,9.28,0,0,1-.84-4v-.77a9.54,9.54,0,0,1,.82-4.05A6.16,6.16,0,0,1,276.23,24a6.76,6.76,0,0,1,6.88,0,6.16,6.16,0,0,1,2.33,2.69,9.34,9.34,0,0,1,.82,4ZM283,30.67a6.63,6.63,0,0,0-.87-3.73,3.07,3.07,0,0,0-5,0,6.56,6.56,0,0,0-.88,3.69v.76a6.66,6.66,0,0,0,.87,3.7,3,3,0,0,0,5,.05,6.69,6.69,0,0,0,.87-3.7Z"/><path class="cls-1" d="M305.86,25.83h-4.74v13h-3.18v-13h-4.68V23.22h12.6Z"/><path class="cls-1" d="M320.32,38.82h-3.19V32.14h-6.21v6.68h-3.19V23.22h3.19v6.32h6.21V23.22h3.19Z"/><path class="cls-1" d="M332.67,32.06h-6.12v4.18h7.18v2.58H323.36V23.22h10.35v2.61h-7.16v3.71h6.12Z"/><path class="cls-1" d="M349.27,34.73a1.65,1.65,0,0,0-.64-1.4,8.35,8.35,0,0,0-2.3-1,16.13,16.13,0,0,1-2.62-1.06,4.33,4.33,0,0,1-2.64-3.87,3.79,3.79,0,0,1,.71-2.25,4.62,4.62,0,0,1,2-1.55,7.6,7.6,0,0,1,3-.56,6.84,6.84,0,0,1,3,.61,4.74,4.74,0,0,1,2,1.7,4.52,4.52,0,0,1,.72,2.51h-3.19a2.08,2.08,0,0,0-.67-1.66,2.72,2.72,0,0,0-1.88-.6,2.94,2.94,0,0,0-1.82.5,1.58,1.58,0,0,0-.65,1.31,1.54,1.54,0,0,0,.76,1.28,8.66,8.66,0,0,0,2.24,1,9.52,9.52,0,0,1,4,2.05,4.09,4.09,0,0,1,1.25,3A3.75,3.75,0,0,1,351,37.88,6.62,6.62,0,0,1,346.86,39a7.88,7.88,0,0,1-3.26-.66,5.13,5.13,0,0,1-2.23-1.81,4.59,4.59,0,0,1-.77-2.65h3.19c0,1.72,1,2.58,3.07,2.58a3,3,0,0,0,1.77-.47A1.5,1.5,0,0,0,349.27,34.73Z"/><path class="cls-1" d="M366.47,25.83h-4.74v13h-3.19v-13h-4.67V23.22h12.6Z"/><path class="cls-1" d="M375.35,35.61h-5.59l-1.07,3.21H365.3l5.76-15.6h3l5.79,15.6h-3.39ZM370.62,33h3.87l-1.95-5.84Z"/><path class="cls-1" d="M381.49,38.82V23.22h4.76a7.15,7.15,0,0,1,3.65.93,6.48,6.48,0,0,1,2.52,2.64,8.19,8.19,0,0,1,.9,3.88v.72a8.24,8.24,0,0,1-.89,3.87,6.38,6.38,0,0,1-2.5,2.62,7.19,7.19,0,0,1-3.65.94Zm3.19-13V36.24h1.54A3.45,3.45,0,0,0,389.08,35a5.64,5.64,0,0,0,1-3.53v-.82a5.71,5.71,0,0,0-1-3.61,3.45,3.45,0,0,0-2.86-1.22Z"/><path class="cls-1" d="M399.08,38.82h-3.19V23.22h3.19Z"/><path class="cls-1" d="M414,23.22V33.5a5.32,5.32,0,0,1-1.58,4,7.1,7.1,0,0,1-8.65,0,5.19,5.19,0,0,1-1.63-4V23.22h3.19v10.3a3,3,0,0,0,.73,2.23,2.77,2.77,0,0,0,2,.71c1.8,0,2.71-1,2.74-2.85V23.22Z"/><path class="cls-1" d="M421.05,23.22l4,11.32,4-11.32h4.19v15.6H430V34.56l.32-7.36-4.18,11.62h-2.19l-4.17-11.61.32,7.35v4.26h-3.19V23.22Z"/></g><polyline class="cls-4" points="103.49 239.48 103.49 340.2 448.32 340.2 448.32 315.27"/></g></g></g></svg>