<svg xmlns="http://www.w3.org/2000/svg" viewBox="0 0 599.49 480"><defs><style>.cls-1{fill:#fff;}.cls-2{fill:#6678a8;}.cls-3,.cls-5{fill:none;}.cls-4{fill:#65a4c3;}.cls-5{stroke:#b4d9b9;stroke-miterlimit:10;stroke-width:2px;}.cls-6{fill:#b4d9b9;}</style></defs><title>Kumamoto</title><g id="Layer_2" data-name="Layer 2"><g id="Layer_1-2" data-name="Layer 1"><g id="Kumamoto"><g id="Hanazono"><g id="box"><rect class="cls-1" x="0.22" y="1.86" width="599.04" height="478.14"/></g><g id="Name_of_Stadium" data-name="Name of Stadium"><rect class="cls-2" y="416.17" width="599.49" height="63.83"/><path class="cls-1" d="M229.44,438.86v-4.51h1a5.19,5.19,0,0,0,3.71-1.55,5.26,5.26,0,0,0,1.53-3.73,1,1,0,0,0-1-1.06h-6.29a1.05,1.05,0,0,0-1,1.06v9.23a70.24,70.24,0,0,0-10.94-1.58c-2-.15-4.07-.23-6.14-.25v-4.23h1a5.19,5.19,0,0,0,3.71-1.55,5.28,5.28,0,0,0,1.53-3.74,1,1,0,0,0-1-1.05h-6.29a1,1,0,0,0-1.05,1.05v9.52c-2.07,0-4.14.1-6.15.25a70.24,70.24,0,0,0-10.94,1.58v-3.95h1.05a5.19,5.19,0,0,0,3.71-1.55,5.26,5.26,0,0,0,1.53-3.73,1.05,1.05,0,0,0-1-1.06H190a1.05,1.05,0,0,0-1.05,1.06v9.79c-4.38,1.31-6.6,3-6.6,5v19c0,1.61,1.42,3,4.23,4.18,4.52,1.86,11.33,2.71,16.24,3,2.08.13,4.22.2,6.36.2s4.27-.07,6.35-.2c4.86-.31,11.71-1.15,16.24-3,2.81-1.17,4.24-2.57,4.24-4.18v-19C236,441.85,233.82,440.17,229.44,438.86Zm0-8.74h4a3.22,3.22,0,0,1-.74,1.19,3.13,3.13,0,0,1-2.23.93h-1ZM210.26,428h4a3.18,3.18,0,0,1-.74,1.18,3.13,3.13,0,0,1-2.23.93h-1Zm-19.19,2.11h4a3.36,3.36,0,0,1-.74,1.19,3.13,3.13,0,0,1-2.23.93h-1.05Zm25.84,8.76a67.61,67.61,0,0,1,9.3,1.33l-4.65,3.35c-2.16-.31-4.66-.52-7.32-.64Zm-7.7-.3c1.77,0,3.54,0,5.28.14l-2.72,4.11c-1.69,0-3.44,0-5.13,0l-2.72-4.11C205.66,438.62,207.43,438.58,209.21,438.58Zm-7.7.3,2.67,4c-2.67.12-5.16.33-7.32.63l-4.65-3.34A67.39,67.39,0,0,1,201.51,438.88Zm-12,2,4.39,3.16a20.76,20.76,0,0,0-2.48.68c-.93.33-2.15.89-2.4,1.95-3.55-1.14-4.59-2.29-4.59-2.82S185.56,442.09,189.55,440.89Zm5.72,26.23c-7.84-1.27-10.8-3.25-10.8-4.24v-3.29a12.49,12.49,0,0,0,2.17,1.11,40.27,40.27,0,0,0,8.63,2.21Zm0-6.36a37.23,37.23,0,0,1-7.84-2c-2.18-.9-3-1.75-3-2.21v-3.27a12.5,12.5,0,0,0,2.14,1.1,39.69,39.69,0,0,0,8.66,2.21Zm0-6.32c-7.84-1.28-10.8-3.25-10.8-4.24v-3.26a22.67,22.67,0,0,0,7.21,2.62c1.12.25,2.32.48,3.59.68Zm6.6,13.45c-1.55-.12-3.06-.27-4.51-.46v-4.22c1.45.19,3,.34,4.51.46Zm.12-6.33c-1.6-.13-3.15-.29-4.63-.48v-4.2c2.17.28,4.48.48,6.84.59l-.1.11A7.35,7.35,0,0,0,202,461.56Zm-4.63-6.81v-4.21a94.47,94.47,0,0,0,10.8.71v4.23A91.69,91.69,0,0,1,197.36,454.75ZM214.45,468c-1.38.07-2.79.11-4.19.13V465a1.05,1.05,0,1,0-2.1,0v3.17c-1.41,0-2.81-.06-4.19-.13v-5.32a5.23,5.23,0,0,1,8.94-3.57,5.35,5.35,0,0,1,1.54,3.58V468Zm6.6-.6c-1.44.19-3,.34-4.51.46v-4.22c1.56-.12,3.07-.27,4.51-.46Zm0-6.35c-1.48.19-3,.35-4.62.48a7.47,7.47,0,0,0-2-3.91l-.19-.18c2.37-.11,4.67-.31,6.84-.59v4.2Zm0-6.33a91.52,91.52,0,0,1-10.79.73v-4.23a94.29,94.29,0,0,0,10.79-.71Zm-11.84-5.61a89.76,89.76,0,0,1-12.74-.86c-1.41-.2-2.75-.44-4-.7l-.19-.1a6.14,6.14,0,0,1-.91-.41c2.78-1.53,11.54-2,14.74-2.11,2-.06,4.15-.06,6.17,0a84,84,0,0,1,9.42.75,16.85,16.85,0,0,1,5.32,1.36,7.25,7.25,0,0,1-1.29.55c-1.19.25-2.46.47-3.79.66A89.76,89.76,0,0,1,209.21,449.14Zm24.73,13.74c0,1-2.95,3-10.79,4.24V462.9a39.79,39.79,0,0,0,8.62-2.2,12.14,12.14,0,0,0,2.17-1.11Zm0-6.34c0,.46-.77,1.31-3,2.21a37.28,37.28,0,0,1-7.83,2v-4.18a39.74,39.74,0,0,0,8.65-2.21,12.14,12.14,0,0,0,2.14-1.1Zm0-6.34c0,1-2.95,3-10.79,4.24v-4.2c3.21-.51,8.08-1.52,10.79-3.3Zm-4.59-3.52c-.25-1.07-1.51-1.63-2.47-2a18.4,18.4,0,0,0-2.41-.66l4.39-3.16c4,1.2,5.08,2.42,5.08,3S232.9,445.55,229.35,446.68Z"/><path class="cls-1" d="M253.88,452.46l-1.21,1.31V457h-2.32V445.67h2.32v5.14l1-1.41,2.87-3.73h2.85l-4,5,4.11,6.3h-2.76Z"/><path class="cls-1" d="M268.92,445.67v7.47a3.83,3.83,0,0,1-1.16,2.94,4.44,4.44,0,0,1-3.16,1.09,4.51,4.51,0,0,1-3.13-1.06,3.79,3.79,0,0,1-1.18-2.89v-7.55h2.32v7.48a2.2,2.2,0,0,0,.53,1.63,2,2,0,0,0,1.46.51c1.31,0,2-.69,2-2.08v-7.54Z"/><path class="cls-1" d="M273.85,445.67l2.89,8.22,2.87-8.22h3.05V457h-2.33v-3.1l.23-5.35-3,8.45h-1.59l-3-8.45.24,5.35V457h-2.32V445.67Z"/><path class="cls-1" d="M291,454.67H287L286.2,457h-2.47l4.19-11.34h2.15L294.28,457h-2.47Zm-3.44-1.89h2.82L289,448.53Z"/><path class="cls-1" d="M298.36,445.67l2.89,8.22,2.87-8.22h3.05V457h-2.33v-3.1l.23-5.35L302,457h-1.6l-3-8.45.23,5.35V457h-2.32V445.67Z"/><path class="cls-1" d="M318.43,451.59a6.92,6.92,0,0,1-.58,2.94,4.46,4.46,0,0,1-1.68,2,4.62,4.62,0,0,1-2.51.69,4.69,4.69,0,0,1-2.5-.68,4.48,4.48,0,0,1-1.7-1.94,6.78,6.78,0,0,1-.61-2.89v-.56a6.85,6.85,0,0,1,.6-3,4.52,4.52,0,0,1,1.69-2,4.94,4.94,0,0,1,5,0,4.54,4.54,0,0,1,1.7,2,7,7,0,0,1,.59,2.94Zm-2.34-.51a4.82,4.82,0,0,0-.64-2.71,2.22,2.22,0,0,0-3.61,0,4.79,4.79,0,0,0-.64,2.68v.55a4.81,4.81,0,0,0,.64,2.7,2.2,2.2,0,0,0,3.61,0,4.89,4.89,0,0,0,.64-2.7Z"/><path class="cls-1" d="M327.93,447.56h-3.45V457h-2.31v-9.45h-3.4v-1.89h9.16Z"/><path class="cls-1" d="M338.28,451.59a6.92,6.92,0,0,1-.59,2.94,4.46,4.46,0,0,1-1.68,2,4.59,4.59,0,0,1-2.51.69,4.65,4.65,0,0,1-2.49-.68,4.48,4.48,0,0,1-1.7-1.94,6.64,6.64,0,0,1-.61-2.89v-.56a6.85,6.85,0,0,1,.6-3,4.52,4.52,0,0,1,1.69-2,4.94,4.94,0,0,1,5,0,4.52,4.52,0,0,1,1.69,2,6.83,6.83,0,0,1,.6,2.94Zm-2.35-.51a4.82,4.82,0,0,0-.63-2.71,2.22,2.22,0,0,0-3.61,0,4.63,4.63,0,0,0-.64,2.68v.55a4.9,4.9,0,0,0,.63,2.7,2.21,2.21,0,0,0,3.62,0,4.9,4.9,0,0,0,.63-2.7Z"/><path class="cls-1" d="M349.74,454a1.18,1.18,0,0,0-.46-1,6,6,0,0,0-1.67-.75,10.92,10.92,0,0,1-1.91-.78,3.13,3.13,0,0,1-1.92-2.81,2.72,2.72,0,0,1,.52-1.64,3.34,3.34,0,0,1,1.47-1.13,5.51,5.51,0,0,1,2.16-.4,5.1,5.1,0,0,1,2.15.44,3.37,3.37,0,0,1,1.46,1.24,3.26,3.26,0,0,1,.53,1.82h-2.32a1.53,1.53,0,0,0-.49-1.21,2,2,0,0,0-1.37-.43,2.16,2.16,0,0,0-1.32.36,1.16,1.16,0,0,0-.47,1,1.09,1.09,0,0,0,.55.93,6.62,6.62,0,0,0,1.63.7,7,7,0,0,1,2.88,1.48,3,3,0,0,1,.91,2.22,2.74,2.74,0,0,1-1.11,2.31,4.8,4.8,0,0,1-3,.84,5.87,5.87,0,0,1-2.37-.48,3.79,3.79,0,0,1-1.63-1.32,3.39,3.39,0,0,1-.56-1.93h2.33c0,1.25.74,1.88,2.23,1.88a2.13,2.13,0,0,0,1.29-.34A1.11,1.11,0,0,0,349.74,454Z"/><path class="cls-1" d="M362.1,447.56h-3.44V457h-2.32v-9.45h-3.4v-1.89h9.16Z"/><path class="cls-1" d="M368.85,454.67h-4.06L364,457h-2.46l4.19-11.34h2.14L372.1,457h-2.47Zm-3.44-1.89h2.81l-1.41-4.25Z"/><path class="cls-1" d="M373.15,457V445.67h3.46a5.19,5.19,0,0,1,2.65.67,4.74,4.74,0,0,1,1.83,1.91,6,6,0,0,1,.66,2.83v.52a5.94,5.94,0,0,1-.65,2.81,4.54,4.54,0,0,1-1.82,1.91,5.21,5.21,0,0,1-2.65.69Zm2.32-9.45v7.57h1.12a2.52,2.52,0,0,0,2.07-.89,4.09,4.09,0,0,0,.74-2.57v-.6a4.15,4.15,0,0,0-.71-2.62,2.52,2.52,0,0,0-2.08-.89Z"/><path class="cls-1" d="M385.9,457h-2.32V445.67h2.32Z"/><path class="cls-1" d="M396.56,445.67v7.47a3.83,3.83,0,0,1-1.15,2.94,5.14,5.14,0,0,1-6.29,0,3.75,3.75,0,0,1-1.18-2.89v-7.55h2.32v7.48a2.2,2.2,0,0,0,.52,1.63,2.05,2.05,0,0,0,1.47.51c1.3,0,2-.69,2-2.08v-7.54Z"/><path class="cls-1" d="M401.49,445.67l2.89,8.22,2.88-8.22h3V457H408v-3.1l.24-5.35-3,8.45h-1.59l-3-8.45.23,5.35V457h-2.32V445.67Z"/></g><g id="column_2" data-name="column 2"><rect class="cls-3" x="203.14" y="63.76" width="199.68" height="415.22"/><rect class="cls-4" x="380.34" y="353.63" width="137.28" height="31.46"/><path class="cls-1" d="M445.43,366H443v6.71h-1.33V366H439.3v-1.09h6.13Z"/><path class="cls-1" d="M448.87,372.67a1.79,1.79,0,0,1-.15-.55,2.17,2.17,0,0,1-2.92.16,1.61,1.61,0,0,1-.55-1.24,1.65,1.65,0,0,1,.68-1.42,3.3,3.3,0,0,1,1.95-.5h.8v-.37a1.09,1.09,0,0,0-.25-.73,1,1,0,0,0-.76-.27,1.14,1.14,0,0,0-.73.23.69.69,0,0,0-.28.56h-1.29a1.5,1.5,0,0,1,.31-.89,2.11,2.11,0,0,1,.86-.65,2.92,2.92,0,0,1,1.2-.24,2.41,2.41,0,0,1,1.61.51,1.85,1.85,0,0,1,.62,1.44v2.62a3.13,3.13,0,0,0,.21,1.25v.09Zm-1.42-.94a1.44,1.44,0,0,0,.72-.19,1.29,1.29,0,0,0,.51-.5V370H448a1.87,1.87,0,0,0-1.08.25.8.8,0,0,0-.36.71.76.76,0,0,0,.25.6A1,1,0,0,0,447.45,371.73Z"/><path class="cls-1" d="M453.38,368.78l1.1-1.91h1.43l-1.76,2.86,1.82,2.94h-1.42l-1.15-2-1.14,2h-1.44l1.82-2.94-1.75-2.86h1.42Z"/><path class="cls-1" d="M456.79,365.37a.72.72,0,0,1,.19-.5.73.73,0,0,1,.54-.2.7.7,0,0,1,.54.2.69.69,0,0,1,.2.5.67.67,0,0,1-.74.68.66.66,0,0,1-.73-.68Zm1.38,7.3h-1.3v-5.8h1.3Z"/><path d="M422.72,348.22h-1.47V341l-2.18.75v-1.25l3.46-1.29h.19Z"/><path d="M431.59,344.45a4.88,4.88,0,0,1-.72,2.91,2.92,2.92,0,0,1-4.34,0,4.66,4.66,0,0,1-.75-2.83V343a4.86,4.86,0,0,1,.71-2.89,2.54,2.54,0,0,1,2.19-1,2.58,2.58,0,0,1,2.17.94,4.75,4.75,0,0,1,.74,2.82Zm-1.48-1.67a3.74,3.74,0,0,0-.35-1.84,1.15,1.15,0,0,0-1.08-.59,1.18,1.18,0,0,0-1.07.56,3.69,3.69,0,0,0-.36,1.73v2a4,4,0,0,0,.35,1.87,1.16,1.16,0,0,0,1.09.61,1.15,1.15,0,0,0,1.06-.57,3.87,3.87,0,0,0,.36-1.78Z"/><path d="M437.49,341.57l0,.7a2.36,2.36,0,0,1,1.9-.82,1.83,1.83,0,0,1,1.82,1,2.32,2.32,0,0,1,2-1,2,2,0,0,1,1.62.61,2.66,2.66,0,0,1,.55,1.79v4.37H444V343.9a1.28,1.28,0,0,0-.28-.93,1.17,1.17,0,0,0-.91-.3,1.18,1.18,0,0,0-.82.28,1.5,1.5,0,0,0-.45.71v4.56H440v-4.37a1.06,1.06,0,0,0-1.19-1.18,1.3,1.3,0,0,0-1.26.73v4.82H436.1v-6.65Z"/><path d="M447,339.85a.77.77,0,0,1,.22-.57.78.78,0,0,1,.62-.23.81.81,0,0,1,.62,1.36.84.84,0,0,1-.62.22.81.81,0,0,1-.62-.22A.76.76,0,0,1,447,339.85Zm1.57,8.37h-1.48v-6.65h1.48Z"/><path d="M451.52,341.57l0,.77a2.38,2.38,0,0,1,1.92-.89c1.37,0,2.07.79,2.1,2.38v4.39H454.1v-4.31a1.36,1.36,0,0,0-.27-.93,1.13,1.13,0,0,0-.89-.31,1.45,1.45,0,0,0-1.34.82v4.73h-1.48v-6.65Z"/><path d="M460.78,346.41a.68.68,0,0,0-.32-.6,3.3,3.3,0,0,0-1.09-.37,5.48,5.48,0,0,1-1.26-.41,1.69,1.69,0,0,1-1.11-1.56,1.76,1.76,0,0,1,.72-1.44,2.81,2.81,0,0,1,1.83-.58,2.94,2.94,0,0,1,1.91.59,1.86,1.86,0,0,1,.73,1.53h-1.48a.93.93,0,0,0-.32-.72,1.2,1.2,0,0,0-.84-.28,1.24,1.24,0,0,0-.79.23.7.7,0,0,0-.31.6.61.61,0,0,0,.28.54,4,4,0,0,0,1.16.38,5.87,5.87,0,0,1,1.37.46,2.06,2.06,0,0,1,.74.64,1.67,1.67,0,0,1,.24.91,1.75,1.75,0,0,1-.74,1.46,3.11,3.11,0,0,1-1.93.55,3.31,3.31,0,0,1-1.44-.29,2.36,2.36,0,0,1-1-.81,1.93,1.93,0,0,1-.36-1.11h1.44a1.06,1.06,0,0,0,.4.81,1.53,1.53,0,0,0,1,.29,1.5,1.5,0,0,0,.89-.23A.7.7,0,0,0,460.78,346.41Z"/><path d="M466.36,344.84a4,4,0,0,1,.38-1.76,2.84,2.84,0,0,1,1.08-1.21,3,3,0,0,1,1.6-.42,2.84,2.84,0,0,1,2.16.87,3.35,3.35,0,0,1,.9,2.29V345a4,4,0,0,1-.38,1.76,2.72,2.72,0,0,1-1.07,1.2,3,3,0,0,1-1.61.42,2.84,2.84,0,0,1-2.23-.93,3.62,3.62,0,0,1-.84-2.5Zm1.48.12a2.7,2.7,0,0,0,.42,1.61,1.35,1.35,0,0,0,1.17.58,1.34,1.34,0,0,0,1.17-.59,3,3,0,0,0,.41-1.72,2.62,2.62,0,0,0-.43-1.6,1.33,1.33,0,0,0-1.16-.59,1.36,1.36,0,0,0-1.16.58A2.94,2.94,0,0,0,467.84,345Z"/><path d="M475.11,341.57l.05.77a2.35,2.35,0,0,1,1.92-.89c1.37,0,2.07.79,2.09,2.38v4.39h-1.48v-4.31a1.36,1.36,0,0,0-.27-.93,1.12,1.12,0,0,0-.89-.31,1.43,1.43,0,0,0-1.33.82v4.73h-1.48v-6.65Z"/><path class="cls-4" d="M413.74,304.09l-1.05,1.15v2.83h-2v-9.92h2v4.5l.89-1.24,2.51-3.26h2.49l-3.49,4.41,3.59,5.51h-2.41Z"/><path class="cls-4" d="M426.9,298.15v6.53a3.37,3.37,0,0,1-1,2.58,3.89,3.89,0,0,1-2.76.95,3.93,3.93,0,0,1-2.74-.92,3.33,3.33,0,0,1-1-2.53v-6.61h2v6.55a1.9,1.9,0,0,0,.47,1.42,1.74,1.74,0,0,0,1.28.45c1.14,0,1.72-.61,1.73-1.82v-6.6Z"/><path class="cls-4" d="M431.21,298.15l2.53,7.2,2.52-7.2h2.66v9.92h-2v-2.71l.2-4.68-2.66,7.39H433l-2.65-7.39.2,4.68v2.71h-2v-9.92Z"/><path class="cls-4" d="M446.25,306H442.7l-.68,2h-2.16l3.67-9.92h1.88l3.68,9.92h-2.15Zm-3-1.66h2.47l-1.24-3.71Z"/><path class="cls-4" d="M452.66,298.15l2.53,7.2,2.52-7.2h2.66v9.92h-2v-2.71l.2-4.68-2.66,7.39h-1.39l-2.65-7.39.2,4.68v2.71h-2v-9.92Z"/><path class="cls-4" d="M470.23,303.33a6,6,0,0,1-.51,2.57,4,4,0,0,1-1.47,1.71,4.06,4.06,0,0,1-2.2.6,4.12,4.12,0,0,1-2.18-.59,3.93,3.93,0,0,1-1.49-1.7,6,6,0,0,1-.54-2.53v-.49a6,6,0,0,1,.53-2.58,3.83,3.83,0,0,1,1.48-1.71A4,4,0,0,1,466,298a4,4,0,0,1,2.18.6,3.85,3.85,0,0,1,1.49,1.71,6.11,6.11,0,0,1,.52,2.57Zm-2.06-.45a4.19,4.19,0,0,0-.55-2.37,2,2,0,0,0-3.16,0,4.22,4.22,0,0,0-.56,2.35v.48a4.24,4.24,0,0,0,.56,2.36,1.93,1.93,0,0,0,3.16,0,4.2,4.2,0,0,0,.55-2.35Z"/><path class="cls-4" d="M478.54,299.8h-3v8.27h-2V299.8h-3v-1.65h8Z"/><path class="cls-4" d="M487.59,303.33a6,6,0,0,1-.51,2.57,3.86,3.86,0,0,1-1.47,1.71,4.06,4.06,0,0,1-2.2.6,4.12,4.12,0,0,1-2.18-.59,3.93,3.93,0,0,1-1.49-1.7,5.81,5.81,0,0,1-.53-2.53v-.49a6,6,0,0,1,.52-2.58,3.89,3.89,0,0,1,1.48-1.71,4.3,4.3,0,0,1,4.38,0,3.83,3.83,0,0,1,1.48,1.71,6,6,0,0,1,.52,2.57Zm-2-.45a4.19,4.19,0,0,0-.56-2.37,1.94,1.94,0,0,0-3.15,0,4.22,4.22,0,0,0-.57,2.35v.48a4.24,4.24,0,0,0,.56,2.36,1.93,1.93,0,0,0,3.16,0,4.2,4.2,0,0,0,.56-2.35Z"/><path class="cls-4" d="M426.75,322.78h-3.56l-.67,2.05h-2.16L424,314.9h1.88l3.69,9.93h-2.16Zm-3-1.66h2.46L425,317.41Z"/><path class="cls-4" d="M432.67,324.83h-2V314.9h2Z"/><path class="cls-4" d="M438.19,321.19h-1.62v3.64h-2V314.9h3.65a4.11,4.11,0,0,1,2.69.78,2.72,2.72,0,0,1,.95,2.22,3.05,3.05,0,0,1-.43,1.69,3,3,0,0,1-1.33,1.08l2.13,4.06v.1H440Zm-1.62-1.65h1.64a1.62,1.62,0,0,0,1.18-.4,1.4,1.4,0,0,0,.42-1.08,1.52,1.52,0,0,0-.39-1.1,1.65,1.65,0,0,0-1.22-.4h-1.63Z"/><path class="cls-4" d="M445.41,321.33v3.5h-2V314.9h3.84a4.52,4.52,0,0,1,2,.41,3,3,0,0,1,1.29,1.16,3.27,3.27,0,0,1,.45,1.72,2.86,2.86,0,0,1-1,2.3,4.1,4.1,0,0,1-2.74.84Zm0-1.66h1.81a1.79,1.79,0,0,0,1.23-.38,1.39,1.39,0,0,0,.42-1.09,1.65,1.65,0,0,0-.42-1.18,1.6,1.6,0,0,0-1.18-.46h-1.86Z"/><path class="cls-4" d="M460.4,320.09a6.08,6.08,0,0,1-.51,2.57,4,4,0,0,1-1.47,1.7,4.06,4.06,0,0,1-2.2.6,4.12,4.12,0,0,1-2.18-.59,4,4,0,0,1-1.49-1.69,5.85,5.85,0,0,1-.53-2.54v-.49a6,6,0,0,1,.52-2.58,3.94,3.94,0,0,1,1.48-1.71,4,4,0,0,1,5.86,1.71,6,6,0,0,1,.52,2.57Zm-2-.45a4.19,4.19,0,0,0-.56-2.37,1.94,1.94,0,0,0-3.16,0,4.16,4.16,0,0,0-.56,2.34v.49a4.27,4.27,0,0,0,.56,2.36,1.93,1.93,0,0,0,3.16,0,4.26,4.26,0,0,0,.56-2.36Z"/><path class="cls-4" d="M465.52,321.19H463.9v3.64h-2V314.9h3.65a4.16,4.16,0,0,1,2.7.78,2.74,2.74,0,0,1,.94,2.22,3.05,3.05,0,0,1-.43,1.69,2.85,2.85,0,0,1-1.33,1.08l2.13,4.06v.1h-2.17Zm-1.62-1.65h1.64a1.62,1.62,0,0,0,1.18-.4,1.4,1.4,0,0,0,.42-1.08,1.52,1.52,0,0,0-.39-1.1,1.65,1.65,0,0,0-1.22-.4H463.9Z"/><path class="cls-4" d="M477.79,316.56h-3v8.27h-2v-8.27h-3V314.9h8Z"/><path d="M348.51,107.87H347.1V101l-2.07.71v-1.19l3.3-1.22h.18Z"/><path d="M355.87,102.24a2.19,2.19,0,0,1,1.75-.81c1.33,0,2,.77,2,2.31v4.13h-1.41v-4.08a1.25,1.25,0,0,0-.28-.93,1.14,1.14,0,0,0-.82-.27,1.35,1.35,0,0,0-1.27.76v4.52h-1.41v-9h1.41Z"/><path d="M364.36,102.84a3.69,3.69,0,0,0-.58,0,1.29,1.29,0,0,0-1.3.74v4.33h-1.41v-6.32h1.35l0,.7a1.58,1.58,0,0,1,1.42-.82,1.36,1.36,0,0,1,.49.08Z"/><path d="M372.88,104.83h1.05V106h-1.05v1.9h-1.41V106h-3.65l0-.86,3.64-5.75h1.46Zm-3.62,0h2.21v-3.55l-.11.19Z"/><path d="M375.24,103.65l.45-4.29h4.54v1.23h-3.37l-.23,2a2.55,2.55,0,0,1,1.32-.34,2.34,2.34,0,0,1,1.88.78,3.07,3.07,0,0,1,.67,2.09,2.88,2.88,0,0,1-.74,2.07,2.73,2.73,0,0,1-2,.77,2.84,2.84,0,0,1-1.92-.67,2.37,2.37,0,0,1-.82-1.75h1.36a1.49,1.49,0,0,0,.44,1,1.33,1.33,0,0,0,.94.33,1.19,1.19,0,0,0,1-.47,2,2,0,0,0,.36-1.27,1.77,1.77,0,0,0-.4-1.23,1.4,1.4,0,0,0-1.1-.45,1.78,1.78,0,0,0-.65.1,1.84,1.84,0,0,0-.58.4Z"/><path d="M386,101.55l0,.66a2.23,2.23,0,0,1,1.8-.78,1.74,1.74,0,0,1,1.73,1,2.19,2.19,0,0,1,1.92-1A1.91,1.91,0,0,1,393,102a2.49,2.49,0,0,1,.52,1.7v4.16h-1.41v-4.12a1.24,1.24,0,0,0-.26-.88,1.15,1.15,0,0,0-.86-.28,1.21,1.21,0,0,0-.79.26,1.41,1.41,0,0,0-.42.68v4.34h-1.4v-4.16a1,1,0,0,0-1.13-1.12,1.22,1.22,0,0,0-1.2.7v4.58h-1.41v-6.32Z"/><path d="M395,99.9a.75.75,0,0,1,.21-.54.78.78,0,0,1,.59-.22.81.81,0,0,1,.59.22.75.75,0,0,1,.21.54.73.73,0,0,1-.21.54.8.8,0,0,1-.59.21.77.77,0,0,1-.59-.21A.73.73,0,0,1,395,99.9Zm1.5,8h-1.41v-6.32h1.41Z"/><path d="M399.32,101.55l0,.73a2.22,2.22,0,0,1,1.82-.85c1.31,0,2,.75,2,2.26v4.18h-1.41v-4.1a1.31,1.31,0,0,0-.26-.89,1.08,1.08,0,0,0-.84-.29,1.36,1.36,0,0,0-1.27.78v4.5H398v-6.32Z"/><path d="M408.13,106.15a.66.66,0,0,0-.31-.58,3.35,3.35,0,0,0-1-.35,5,5,0,0,1-1.2-.39,1.61,1.61,0,0,1-1.06-1.48,1.67,1.67,0,0,1,.69-1.37,2.65,2.65,0,0,1,1.74-.55,2.8,2.8,0,0,1,1.81.56,1.76,1.76,0,0,1,.7,1.45h-1.41a.9.9,0,0,0-.3-.68,1.16,1.16,0,0,0-.8-.27,1.22,1.22,0,0,0-.76.22.67.67,0,0,0-.29.58.57.57,0,0,0,.27.5,3.37,3.37,0,0,0,1.1.37,5,5,0,0,1,1.3.44,1.77,1.77,0,0,1,.7.61,1.52,1.52,0,0,1,.23.86,1.67,1.67,0,0,1-.7,1.39A3,3,0,0,1,407,108a3.17,3.17,0,0,1-1.37-.29,2.24,2.24,0,0,1-.94-.77,1.85,1.85,0,0,1-.34-1.05h1.37a1,1,0,0,0,.38.77,1.76,1.76,0,0,0,1.77.06A.67.67,0,0,0,408.13,106.15Z"/><path d="M416.43,104.82h-3.05v-1.14h3.05Z"/><path d="M426.13,107.87h-5.68v-1l2.82-3.09a7.17,7.17,0,0,0,.86-1.14,1.89,1.89,0,0,0,.26-.92,1.38,1.38,0,0,0-.34-1,1.18,1.18,0,0,0-.91-.38,1.34,1.34,0,0,0-1.06.42,1.69,1.69,0,0,0-.38,1.16h-1.41a2.89,2.89,0,0,1,.35-1.41,2.46,2.46,0,0,1,1-1,3.13,3.13,0,0,1,1.5-.35,2.81,2.81,0,0,1,1.94.63,2.16,2.16,0,0,1,.71,1.72,2.89,2.89,0,0,1-.36,1.33,7.23,7.23,0,0,1-1.17,1.59l-2.06,2.22h3.92Z"/><path d="M431.63,102.24a2.21,2.21,0,0,1,1.75-.81c1.34,0,2,.77,2,2.31v4.13H434v-4.08a1.25,1.25,0,0,0-.29-.93,1.13,1.13,0,0,0-.82-.27,1.35,1.35,0,0,0-1.27.76v4.52h-1.4v-9h1.4Z"/><path d="M440.12,102.84a3.64,3.64,0,0,0-.57,0,1.31,1.31,0,0,0-1.31.74v4.33h-1.41v-6.32h1.35l0,.7a1.58,1.58,0,0,1,1.42-.82,1.46,1.46,0,0,1,.5.08Z"/><path d="M444.52,106.15a.64.64,0,0,0-.31-.58,3.27,3.27,0,0,0-1-.35,5,5,0,0,1-1.2-.39,1.59,1.59,0,0,1-1.06-1.48,1.67,1.67,0,0,1,.69-1.37,2.64,2.64,0,0,1,1.73-.55,2.82,2.82,0,0,1,1.82.56,1.78,1.78,0,0,1,.69,1.45h-1.41a.9.9,0,0,0-.3-.68,1.14,1.14,0,0,0-.8-.27,1.17,1.17,0,0,0-.75.22.68.68,0,0,0-.3.58.58.58,0,0,0,.28.5,3.37,3.37,0,0,0,1.1.37,5.14,5.14,0,0,1,1.3.44,1.84,1.84,0,0,1,.7.61,1.6,1.6,0,0,1,.23.86,1.67,1.67,0,0,1-.7,1.39,3,3,0,0,1-1.84.53,3.17,3.17,0,0,1-1.37-.29,2.18,2.18,0,0,1-.94-.77,1.78,1.78,0,0,1-.34-1.05h1.37a1,1,0,0,0,.38.77,1.76,1.76,0,0,0,1.77.06A.66.66,0,0,0,444.52,106.15Z"/><path d="M453.82,107.87h-1.41V101l-2.07.71v-1.19l3.3-1.22h.18Z"/><path d="M462.25,104.29a4.68,4.68,0,0,1-.68,2.76,2.43,2.43,0,0,1-2.08.94,2.46,2.46,0,0,1-2.06-.91,4.57,4.57,0,0,1-.71-2.69v-1.48a4.55,4.55,0,0,1,.69-2.75,2.81,2.81,0,0,1,4.14,0,4.44,4.44,0,0,1,.7,2.67Zm-1.41-1.59a3.72,3.72,0,0,0-.32-1.76,1.13,1.13,0,0,0-1-.56,1.11,1.11,0,0,0-1,.53,3.28,3.28,0,0,0-.34,1.65v1.93a3.73,3.73,0,0,0,.33,1.78,1.21,1.21,0,0,0,2,0,3.54,3.54,0,0,0,.34-1.69Z"/><path d="M467.86,101.55l.05.66a2.23,2.23,0,0,1,1.8-.78,1.72,1.72,0,0,1,1.72,1,2.22,2.22,0,0,1,1.93-1,1.91,1.91,0,0,1,1.54.58,2.54,2.54,0,0,1,.52,1.7v4.16H474v-4.12a1.24,1.24,0,0,0-.26-.88,1.15,1.15,0,0,0-.86-.28,1.21,1.21,0,0,0-.79.26,1.41,1.41,0,0,0-.42.68v4.34h-1.4v-4.16a1,1,0,0,0-1.13-1.12,1.22,1.22,0,0,0-1.2.7v4.58h-1.41v-6.32Z"/><path d="M476.87,99.9a.75.75,0,0,1,.21-.54.77.77,0,0,1,.58-.22.82.82,0,0,1,.6.22.74.74,0,0,1,.2.54.72.72,0,0,1-.2.54.81.81,0,0,1-.6.21.76.76,0,0,1-.58-.21A.73.73,0,0,1,476.87,99.9Zm1.5,8H477v-6.32h1.41Z"/><path d="M481.21,101.55l0,.73a2.22,2.22,0,0,1,1.82-.85c1.31,0,2,.75,2,2.26v4.18h-1.41v-4.1a1.31,1.31,0,0,0-.26-.89,1.08,1.08,0,0,0-.84-.29,1.36,1.36,0,0,0-1.27.78v4.5h-1.41v-6.32Z"/><path d="M490,106.15a.66.66,0,0,0-.31-.58,3.35,3.35,0,0,0-1-.35,5,5,0,0,1-1.2-.39,1.59,1.59,0,0,1-1.06-1.48,1.67,1.67,0,0,1,.69-1.37,2.65,2.65,0,0,1,1.74-.55,2.81,2.81,0,0,1,1.81.56,1.78,1.78,0,0,1,.69,1.45H490a.9.9,0,0,0-.3-.68,1.17,1.17,0,0,0-.8-.27,1.2,1.2,0,0,0-.76.22.67.67,0,0,0-.29.58.57.57,0,0,0,.27.5,3.37,3.37,0,0,0,1.1.37,5,5,0,0,1,1.3.44,1.77,1.77,0,0,1,.7.61,1.6,1.6,0,0,1,.23.86,1.67,1.67,0,0,1-.7,1.39,3,3,0,0,1-1.84.53,3.17,3.17,0,0,1-1.37-.29,2.18,2.18,0,0,1-.94-.77,1.85,1.85,0,0,1-.34-1.05h1.37a1,1,0,0,0,.38.77,1.76,1.76,0,0,0,1.77.06A.67.67,0,0,0,490,106.15Z"/><path d="M495.32,104.65a3.83,3.83,0,0,1,.36-1.68,2.78,2.78,0,0,1,1-1.14,2.85,2.85,0,0,1,1.52-.4,2.73,2.73,0,0,1,2.06.82,3.24,3.24,0,0,1,.85,2.19v.33a3.76,3.76,0,0,1-.36,1.67,2.57,2.57,0,0,1-1,1.14,2.87,2.87,0,0,1-1.53.41,2.69,2.69,0,0,1-2.12-.9,3.37,3.37,0,0,1-.8-2.37Zm1.41.12a2.55,2.55,0,0,0,.4,1.53,1.39,1.39,0,0,0,2.22,0,2.78,2.78,0,0,0,.4-1.64,2.54,2.54,0,0,0-.41-1.52,1.38,1.38,0,0,0-2.21,0A2.79,2.79,0,0,0,496.73,104.77Z"/><path d="M503.65,101.55l0,.73a2.22,2.22,0,0,1,1.82-.85c1.31,0,2,.75,2,2.26v4.18H506.1v-4.1a1.31,1.31,0,0,0-.26-.89,1.08,1.08,0,0,0-.84-.29,1.36,1.36,0,0,0-1.27.78v4.5h-1.41v-6.32Z"/><path d="M515.64,107.87a2.48,2.48,0,0,1-.16-.59,2.18,2.18,0,0,1-1.64.71,2.24,2.24,0,0,1-1.55-.55,1.76,1.76,0,0,1-.59-1.34,1.8,1.8,0,0,1,.74-1.55,3.6,3.6,0,0,1,2.13-.54h.87v-.42a1.14,1.14,0,0,0-.28-.79,1.1,1.1,0,0,0-.83-.29,1.21,1.21,0,0,0-.78.24.74.74,0,0,0-.31.62h-1.41a1.55,1.55,0,0,1,.34-1,2.23,2.23,0,0,1,.93-.71,3.11,3.11,0,0,1,1.32-.26,2.61,2.61,0,0,1,1.75.56,2,2,0,0,1,.67,1.57v2.85a3.22,3.22,0,0,0,.24,1.36v.1Zm-1.54-1a1.55,1.55,0,0,0,.78-.21,1.41,1.41,0,0,0,.56-.55V104.9h-.76a2.1,2.1,0,0,0-1.18.27.91.91,0,0,0-.39.78.86.86,0,0,0,.26.65A1.08,1.08,0,0,0,514.1,106.85Z"/><path d="M518.32,99.9a.75.75,0,0,1,.21-.54.78.78,0,0,1,.59-.22.81.81,0,0,1,.59.22.75.75,0,0,1,.21.54.73.73,0,0,1-.21.54.8.8,0,0,1-.59.21.77.77,0,0,1-.59-.21A.73.73,0,0,1,518.32,99.9Zm1.5,8h-1.41v-6.32h1.41Z"/><path d="M524.63,102.84a3.48,3.48,0,0,0-.57,0,1.28,1.28,0,0,0-1.3.74v4.33h-1.41v-6.32h1.34l0,.7a1.58,1.58,0,0,1,1.41-.82,1.41,1.41,0,0,1,.5.08Z"/><path d="M531,104.77a3.78,3.78,0,0,1-.66,2.34,2.26,2.26,0,0,1-3.42.19v3h-1.41v-8.75h1.3l.06.64a2,2,0,0,1,1.68-.76,2.13,2.13,0,0,1,1.8.86,3.86,3.86,0,0,1,.65,2.39Zm-1.4-.12a2.64,2.64,0,0,0-.37-1.5,1.22,1.22,0,0,0-1.07-.56,1.29,1.29,0,0,0-1.24.72v2.81a1.29,1.29,0,0,0,1.25.73,1.19,1.19,0,0,0,1.05-.55A2.83,2.83,0,0,0,529.61,104.65Z"/><path d="M533.7,107.87h-1.4v-9h1.4Z"/><path d="M539,107.87a2.48,2.48,0,0,1-.16-.59,2.2,2.2,0,0,1-1.64.71,2.24,2.24,0,0,1-1.55-.55,1.76,1.76,0,0,1-.59-1.34,1.78,1.78,0,0,1,.74-1.55,3.6,3.6,0,0,1,2.13-.54h.87v-.42a1.14,1.14,0,0,0-.28-.79,1.1,1.1,0,0,0-.83-.29,1.21,1.21,0,0,0-.78.24.74.74,0,0,0-.31.62h-1.41a1.55,1.55,0,0,1,.34-1,2.23,2.23,0,0,1,.93-.71,3.11,3.11,0,0,1,1.32-.26,2.63,2.63,0,0,1,1.75.56,2,2,0,0,1,.67,1.57v2.85a3.22,3.22,0,0,0,.24,1.36v.1Zm-1.54-1a1.55,1.55,0,0,0,.78-.21,1.41,1.41,0,0,0,.56-.55V104.9H538a2.08,2.08,0,0,0-1.18.27.91.91,0,0,0-.39.78.82.82,0,0,0,.26.65A1.08,1.08,0,0,0,537.44,106.85Z"/><path d="M543,101.55l0,.73a2.22,2.22,0,0,1,1.82-.85c1.31,0,2,.75,2,2.26v4.18h-1.41v-4.1a1.31,1.31,0,0,0-.26-.89,1.08,1.08,0,0,0-.84-.29,1.35,1.35,0,0,0-1.27.78v4.5h-1.41v-6.32Z"/><path d="M551,108a2.91,2.91,0,0,1-2.17-.86,3.1,3.1,0,0,1-.83-2.26v-.17a3.86,3.86,0,0,1,.36-1.7,2.81,2.81,0,0,1,1-1.16,2.72,2.72,0,0,1,1.46-.41,2.46,2.46,0,0,1,2,.82,3.54,3.54,0,0,1,.7,2.33v.58h-4.1a1.93,1.93,0,0,0,.52,1.24,1.54,1.54,0,0,0,1.14.45,1.9,1.9,0,0,0,1.58-.79l.76.73a2.54,2.54,0,0,1-1,.88A3.11,3.11,0,0,1,551,108Zm-.17-5.42a1.19,1.19,0,0,0-.93.41,2.13,2.13,0,0,0-.46,1.14h2.69V104a1.76,1.76,0,0,0-.38-1.08A1.19,1.19,0,0,0,550.85,102.57Z"/><path class="cls-4" d="M342.15,82.5h-2V78.25h-3.95V82.5h-2V72.58h2v4h3.95v-4h2Z"/><path class="cls-4" d="M349.6,80.46h-3.55l-.68,2h-2.16l3.67-9.92h1.88l3.68,9.92h-2.15Zm-3-1.66h2.47l-1.24-3.71Z"/><path class="cls-4" d="M361.37,82.5h-2L355.39,76V82.5h-2V72.58h2l4,6.54V72.58h2Z"/><path class="cls-4" d="M369.06,78.2h-3.89v2.66h4.57V82.5h-6.6V72.58h6.59v1.65h-4.56V76.6h3.89Z"/><path class="cls-4" d="M370.93,82.5V72.58h3a4.5,4.5,0,0,1,2.32.59,4,4,0,0,1,1.6,1.67,5.28,5.28,0,0,1,.58,2.48v.45a5.13,5.13,0,0,1-.57,2.46,4.07,4.07,0,0,1-1.59,1.67,4.53,4.53,0,0,1-2.32.6Zm2-8.27v6.63h1a2.21,2.21,0,0,0,1.82-.78,3.59,3.59,0,0,0,.64-2.25v-.52a3.69,3.69,0,0,0-.62-2.3,2.22,2.22,0,0,0-1.82-.78Z"/><path class="cls-4" d="M385.49,80.46h-3.56l-.67,2H379.1l3.66-9.92h1.88l3.69,9.92h-2.16Zm-3-1.66h2.46l-1.24-3.71Z"/><path class="cls-4" d="M398.25,80.46H394.7l-.68,2h-2.16l3.67-9.92h1.88l3.68,9.92h-2.15Zm-3-1.66h2.47l-1.24-3.71Z"/><path class="cls-4" d="M404.17,82.5h-2V72.58h2Z"/><path class="cls-4" d="M409.69,78.87h-1.61V82.5h-2V72.58h3.66a4.13,4.13,0,0,1,2.69.78,2.72,2.72,0,0,1,1,2.22,3.08,3.08,0,0,1-.44,1.69,3,3,0,0,1-1.32,1.08l2.13,4.06v.09h-2.18Zm-1.61-1.66h1.64a1.68,1.68,0,0,0,1.18-.39,1.4,1.4,0,0,0,.42-1.08,1.47,1.47,0,0,0-.4-1.1,1.62,1.62,0,0,0-1.21-.41h-1.63Z"/><path class="cls-4" d="M416.92,79V82.5h-2V72.58h3.84a4.31,4.31,0,0,1,1.95.41A3,3,0,0,1,422,74.15a3.17,3.17,0,0,1,.46,1.71,2.88,2.88,0,0,1-1,2.31,4.13,4.13,0,0,1-2.75.84Zm0-1.66h1.81A1.83,1.83,0,0,0,420,77a1.41,1.41,0,0,0,.42-1.09A1.62,1.62,0,0,0,420,74.7a1.57,1.57,0,0,0-1.17-.47h-1.86Z"/><path class="cls-4" d="M431.91,77.77a6,6,0,0,1-.52,2.57,3.88,3.88,0,0,1-1.47,1.7,4,4,0,0,1-2.19.6,4.13,4.13,0,0,1-2.19-.59,3.91,3.91,0,0,1-1.48-1.7,5.81,5.81,0,0,1-.54-2.53v-.49a6,6,0,0,1,.53-2.58A3.94,3.94,0,0,1,425.53,73a4.28,4.28,0,0,1,4.37,0,3.94,3.94,0,0,1,1.48,1.71,6,6,0,0,1,.53,2.57Zm-2.06-.45a4.23,4.23,0,0,0-.55-2.38,2,2,0,0,0-3.16,0,4.14,4.14,0,0,0-.56,2.35v.49a4.21,4.21,0,0,0,.55,2.35,1.94,1.94,0,0,0,3.17,0,4.26,4.26,0,0,0,.55-2.36Z"/><path class="cls-4" d="M437,78.87h-1.62V82.5h-2V72.58H437a4.13,4.13,0,0,1,2.69.78,2.72,2.72,0,0,1,.95,2.22,3.08,3.08,0,0,1-.44,1.69,3,3,0,0,1-1.32,1.08l2.13,4.06v.09h-2.18Zm-1.62-1.66h1.64a1.66,1.66,0,0,0,1.18-.39,1.4,1.4,0,0,0,.42-1.08,1.47,1.47,0,0,0-.4-1.1,1.62,1.62,0,0,0-1.21-.41h-1.63Z"/><path class="cls-4" d="M449.29,74.23h-3V82.5h-2V74.23h-3V72.58h8Z"/><path class="cls-4" d="M450.93,83.36h-1.45l3.62-10.78h1.46Z"/><path class="cls-4" d="M463.63,82.5h-2l-4-6.53V82.5h-2V72.58h2l4,6.54V72.58h2Z"/><path class="cls-4" d="M471,80.46H467.4l-.68,2h-2.15l3.66-9.92h1.88l3.69,9.92h-2.16Zm-3-1.66h2.46l-1.24-3.71Z"/><path class="cls-4" d="M478.36,78.87h-1.62V82.5h-2V72.58h3.65a4.16,4.16,0,0,1,2.7.78,2.71,2.71,0,0,1,.94,2.22,3.08,3.08,0,0,1-.43,1.69,3,3,0,0,1-1.33,1.08l2.13,4.06v.09h-2.17Zm-1.62-1.66h1.64a1.66,1.66,0,0,0,1.18-.39,1.4,1.4,0,0,0,.42-1.08,1.51,1.51,0,0,0-.39-1.1,1.65,1.65,0,0,0-1.22-.41h-1.63Z"/><path class="cls-4" d="M485.71,82.5h-2V72.58h2Z"/><path class="cls-4" d="M495,74.23h-3V82.5h-2V74.23h-3V72.58h8Z"/><path class="cls-4" d="M500.9,80.46h-3.55l-.68,2h-2.16l3.67-9.92h1.88l3.68,9.92h-2.15Zm-3-1.66h2.47l-1.24-3.71Z"/><path class="cls-4" d="M513.67,80.46h-3.56l-.67,2h-2.16l3.66-9.92h1.88l3.69,9.92h-2.16Zm-3-1.66h2.46l-1.23-3.71Z"/><path class="cls-4" d="M519.59,82.5h-2V72.58h2Z"/><path class="cls-4" d="M525.11,78.87h-1.62V82.5h-2V72.58h3.65a4.16,4.16,0,0,1,2.7.78,2.71,2.71,0,0,1,.94,2.22,3.08,3.08,0,0,1-.43,1.69A3,3,0,0,1,527,78.35l2.13,4.06v.09H527Zm-1.62-1.66h1.64a1.66,1.66,0,0,0,1.18-.39,1.4,1.4,0,0,0,.42-1.08,1.51,1.51,0,0,0-.39-1.1,1.65,1.65,0,0,0-1.22-.41h-1.63Z"/><path class="cls-4" d="M532.33,79V82.5h-2V72.58h3.84a4.38,4.38,0,0,1,2,.41,3,3,0,0,1,1.29,1.16,3.26,3.26,0,0,1,.45,1.71,2.88,2.88,0,0,1-1,2.31,4.1,4.1,0,0,1-2.74.84Zm0-1.66h1.81a1.79,1.79,0,0,0,1.23-.38,1.41,1.41,0,0,0,.42-1.09,1.65,1.65,0,0,0-.42-1.18,1.61,1.61,0,0,0-1.18-.47h-1.86Z"/><path class="cls-4" d="M547.32,77.77a6.11,6.11,0,0,1-.51,2.57,3.88,3.88,0,0,1-1.47,1.7,4.06,4.06,0,0,1-2.2.6,4.12,4.12,0,0,1-2.18-.59,4,4,0,0,1-1.49-1.7,5.81,5.81,0,0,1-.53-2.53v-.49a6,6,0,0,1,.52-2.58A4.14,4.14,0,0,1,545.32,73a3.94,3.94,0,0,1,1.48,1.71,6,6,0,0,1,.52,2.57Zm-2.05-.45a4.23,4.23,0,0,0-.56-2.38,1.94,1.94,0,0,0-3.15,0,4.22,4.22,0,0,0-.57,2.35v.49a4.21,4.21,0,0,0,.56,2.35,1.93,1.93,0,0,0,3.16,0,4.26,4.26,0,0,0,.56-2.36Z"/><path class="cls-4" d="M552.44,78.87h-1.61V82.5h-2V72.58h3.66a4.15,4.15,0,0,1,2.69.78,2.71,2.71,0,0,1,.94,2.22,3.08,3.08,0,0,1-.43,1.69,3,3,0,0,1-1.32,1.08l2.13,4.06v.09h-2.18Zm-1.61-1.66h1.63a1.69,1.69,0,0,0,1.19-.39,1.4,1.4,0,0,0,.41-1.08,1.51,1.51,0,0,0-.39-1.1,1.62,1.62,0,0,0-1.21-.41h-1.63Z"/><path class="cls-4" d="M564.71,74.23h-3V82.5h-2V74.23h-3V72.58h8Z"/></g><g id="column_1" data-name="column 1"><rect class="cls-3" x="23.21" y="63.76" width="199.68" height="415.22"/><path class="cls-4" d="M78.93,74.23h-3V82.5h-2V74.23h-3V72.58h8Z"/><path class="cls-4" d="M88,77.77a6.11,6.11,0,0,1-.51,2.57A3.88,3.88,0,0,1,86,82a4.06,4.06,0,0,1-2.2.6,4.12,4.12,0,0,1-2.18-.59,3.93,3.93,0,0,1-1.49-1.7,5.81,5.81,0,0,1-.53-2.53v-.49a6,6,0,0,1,.52-2.58A3.94,3.94,0,0,1,81.6,73a4,4,0,0,1,5.86,1.71A6,6,0,0,1,88,77.32Zm-2-.45a4.23,4.23,0,0,0-.56-2.38,2,2,0,0,0-3.16,0,4.22,4.22,0,0,0-.56,2.35v.49a4.21,4.21,0,0,0,.56,2.35,1.93,1.93,0,0,0,3.16,0,4.26,4.26,0,0,0,.56-2.36Z"/><path class="cls-4" d="M92.54,78.52l-1.06,1.15V82.5h-2V72.58h2v4.5l.9-1.24,2.51-3.26h2.49L93.88,77l3.6,5.51H95.07Z"/><path class="cls-4" d="M101.64,77.05l2-4.47h2.22l-3.23,6.32v3.6h-2.07V78.9l-3.23-6.32h2.23Z"/><path class="cls-4" d="M114.7,77.77a6,6,0,0,1-.52,2.57,3.88,3.88,0,0,1-1.47,1.7,4,4,0,0,1-2.19.6,4.07,4.07,0,0,1-2.18-.59,3.87,3.87,0,0,1-1.49-1.7,6,6,0,0,1-.54-2.53v-.49a6,6,0,0,1,.53-2.58A3.94,3.94,0,0,1,108.32,73a4.28,4.28,0,0,1,4.37,0,3.94,3.94,0,0,1,1.48,1.71,6,6,0,0,1,.53,2.57Zm-2.06-.45a4.23,4.23,0,0,0-.55-2.38,2,2,0,0,0-3.16,0,4.14,4.14,0,0,0-.56,2.35v.49a4.21,4.21,0,0,0,.55,2.35,1.94,1.94,0,0,0,3.17,0,4.26,4.26,0,0,0,.55-2.36Z"/><path class="cls-4" d="M124.73,79.9a1.06,1.06,0,0,0-.41-.89,5,5,0,0,0-1.46-.65,10.71,10.71,0,0,1-1.67-.68,2.75,2.75,0,0,1-1.68-2.46,2.42,2.42,0,0,1,.45-1.44,2.89,2.89,0,0,1,1.29-1,4.75,4.75,0,0,1,1.89-.36,4.33,4.33,0,0,1,1.88.39,3,3,0,0,1,1.28,1.08,2.83,2.83,0,0,1,.46,1.6h-2a1.34,1.34,0,0,0-.42-1.06,1.78,1.78,0,0,0-1.2-.38,1.88,1.88,0,0,0-1.16.32,1,1,0,0,0-.41.83A.94.94,0,0,0,122,76a5.45,5.45,0,0,0,1.43.62A6.14,6.14,0,0,1,126,78a2.59,2.59,0,0,1,.79,1.94,2.38,2.38,0,0,1-1,2,4.18,4.18,0,0,1-2.6.73,5,5,0,0,1-2.07-.42,3.22,3.22,0,0,1-1.42-1.15,2.92,2.92,0,0,1-.49-1.69h2c0,1.1.65,1.64,2,1.64a1.87,1.87,0,0,0,1.13-.29A1,1,0,0,0,124.73,79.9Z"/><path class="cls-4" d="M135.54,74.23h-3V82.5h-2V74.23h-3V72.58h8Z"/><path class="cls-4" d="M141.45,80.46h-3.56l-.68,2h-2.15l3.66-9.92h1.88l3.69,9.92h-2.16Zm-3-1.66h2.46l-1.24-3.71Z"/><path class="cls-4" d="M151.81,74.23h-3V82.5h-2V74.23h-3V72.58h8Z"/><path class="cls-4" d="M155.12,82.5h-2V72.58h2Z"/><path class="cls-4" d="M165.09,77.77a6,6,0,0,1-.52,2.57A3.88,3.88,0,0,1,163.1,82a4,4,0,0,1-2.19.6,4.13,4.13,0,0,1-2.19-.59,3.91,3.91,0,0,1-1.48-1.7,5.81,5.81,0,0,1-.54-2.53v-.49a6,6,0,0,1,.53-2.58A3.94,3.94,0,0,1,158.71,73a4,4,0,0,1,2.18-.6,4,4,0,0,1,2.19.6,3.94,3.94,0,0,1,1.48,1.71,6,6,0,0,1,.53,2.57ZM163,77.32a4.23,4.23,0,0,0-.55-2.38,2,2,0,0,0-3.16,0,4.14,4.14,0,0,0-.56,2.35v.49a4.21,4.21,0,0,0,.55,2.35,1.94,1.94,0,0,0,3.17,0A4.26,4.26,0,0,0,163,77.8Z"/><path class="cls-4" d="M174.57,82.5h-2L168.59,76V82.5h-2V72.58h2l3.95,6.54V72.58h2Z"/><path d="M83.86,99.32v1.17h-.17a2.79,2.79,0,0,0-1.89.66A2.73,2.73,0,0,0,81,103a2.26,2.26,0,0,1,1.73-.71,2.15,2.15,0,0,1,1.77.79,3.14,3.14,0,0,1,.64,2,2.94,2.94,0,0,1-.75,2.1,2.61,2.61,0,0,1-2,.81,2.56,2.56,0,0,1-2-.95,3.72,3.72,0,0,1-.78-2.46v-.49a5.22,5.22,0,0,1,1.08-3.5,3.84,3.84,0,0,1,3.11-1.27Zm-1.51,4.06a1.52,1.52,0,0,0-.85.26,1.48,1.48,0,0,0-.56.7v.44a2.57,2.57,0,0,0,.39,1.5,1.2,1.2,0,0,0,1,.56,1.19,1.19,0,0,0,1-.47,2,2,0,0,0,.37-1.25,2,2,0,0,0-.37-1.25A1.18,1.18,0,0,0,82.35,103.38Z"/><path d="M90.66,102.24a2.19,2.19,0,0,1,1.75-.81c1.33,0,2,.77,2,2.31v4.13H93v-4.08a1.25,1.25,0,0,0-.28-.93,1.15,1.15,0,0,0-.83-.27,1.35,1.35,0,0,0-1.26.76v4.52H89.25v-9h1.41Z"/><path d="M99.15,102.84a3.69,3.69,0,0,0-.58,0,1.29,1.29,0,0,0-1.3.74v4.33H95.86v-6.32H97.2l0,.7a1.58,1.58,0,0,1,1.41-.82,1.41,1.41,0,0,1,.5.08Z"/><path d="M103.55,106.15a.64.64,0,0,0-.31-.58,3.35,3.35,0,0,0-1-.35,5,5,0,0,1-1.2-.39,1.6,1.6,0,0,1-1.05-1.48,1.66,1.66,0,0,1,.68-1.37,2.69,2.69,0,0,1,1.74-.55,2.84,2.84,0,0,1,1.82.56,1.78,1.78,0,0,1,.69,1.45h-1.41a.9.9,0,0,0-.3-.68,1.16,1.16,0,0,0-.8-.27,1.22,1.22,0,0,0-.76.22.69.69,0,0,0-.29.58.57.57,0,0,0,.27.5,3.37,3.37,0,0,0,1.1.37,5.1,5.1,0,0,1,1.31.44,1.92,1.92,0,0,1,.7.61,1.6,1.6,0,0,1,.23.86,1.68,1.68,0,0,1-.71,1.39,3,3,0,0,1-1.83.53,3.21,3.21,0,0,1-1.38-.29,2.24,2.24,0,0,1-.94-.77,1.84,1.84,0,0,1-.33-1.05h1.37a1,1,0,0,0,.37.77,1.46,1.46,0,0,0,.92.27,1.42,1.42,0,0,0,.85-.21A.67.67,0,0,0,103.55,106.15Z"/><path d="M110.66,103h.85a1.55,1.55,0,0,0,1-.34,1.22,1.22,0,0,0,.38-1,1.32,1.32,0,0,0-.31-.94,1.3,1.3,0,0,0-1-.34,1.32,1.32,0,0,0-.93.33,1.13,1.13,0,0,0-.37.87h-1.41a2.19,2.19,0,0,1,.35-1.2,2.39,2.39,0,0,1,1-.84,3.11,3.11,0,0,1,1.38-.3,2.92,2.92,0,0,1,2,.64,2.26,2.26,0,0,1,.72,1.78,1.84,1.84,0,0,1-.36,1.08,2.19,2.19,0,0,1-.94.76,2,2,0,0,1,1.06.76,2.07,2.07,0,0,1,.36,1.22,2.3,2.3,0,0,1-.78,1.83,3,3,0,0,1-2,.68,3,3,0,0,1-2-.66,2.17,2.17,0,0,1-.78-1.74h1.41a1.19,1.19,0,0,0,.38.91,1.42,1.42,0,0,0,1,.35,1.46,1.46,0,0,0,1-.35,1.32,1.32,0,0,0,.38-1,1.34,1.34,0,0,0-.39-1,1.72,1.72,0,0,0-1.18-.36h-.82Z"/><path d="M121.27,104.29a4.61,4.61,0,0,1-.68,2.76,2.39,2.39,0,0,1-2.07.94,2.44,2.44,0,0,1-2.06-.91,4.49,4.49,0,0,1-.71-2.69v-1.48a4.62,4.62,0,0,1,.68-2.75,2.82,2.82,0,0,1,4.15,0,4.44,4.44,0,0,1,.69,2.67Zm-1.4-1.59a3.58,3.58,0,0,0-.33-1.76,1.11,1.11,0,0,0-1-.56,1.1,1.1,0,0,0-1,.53,3.27,3.27,0,0,0-.35,1.65v1.93a3.73,3.73,0,0,0,.33,1.78,1.11,1.11,0,0,0,1,.58,1.08,1.08,0,0,0,1-.54,3.53,3.53,0,0,0,.35-1.69Z"/><path d="M126.89,101.55l0,.66a2.24,2.24,0,0,1,1.81-.78,1.72,1.72,0,0,1,1.72,1,2.22,2.22,0,0,1,1.92-1,1.94,1.94,0,0,1,1.55.58,2.54,2.54,0,0,1,.52,1.7v4.16H133v-4.12a1.28,1.28,0,0,0-.26-.88,1.4,1.4,0,0,0-1.65,0,1.42,1.42,0,0,0-.43.68v4.34H129.3v-4.16a1,1,0,0,0-1.13-1.12,1.24,1.24,0,0,0-1.2.7v4.58h-1.41v-6.32Z"/><path d="M135.9,99.9a.78.78,0,0,1,.2-.54.81.81,0,0,1,.59-.22.79.79,0,0,1,.59.22.75.75,0,0,1,.21.54.73.73,0,0,1-.21.54.79.79,0,0,1-.59.21.8.8,0,0,1-.59-.21A.77.77,0,0,1,135.9,99.9Zm1.49,8H136v-6.32h1.41Z"/><path d="M140.23,101.55l0,.73a2.24,2.24,0,0,1,1.83-.85c1.3,0,2,.75,2,2.26v4.18h-1.41v-4.1a1.31,1.31,0,0,0-.25-.89,1.12,1.12,0,0,0-.85-.29,1.36,1.36,0,0,0-1.27.78v4.5H138.9v-6.32Z"/><path d="M149,106.15a.64.64,0,0,0-.31-.58,3.35,3.35,0,0,0-1-.35,5,5,0,0,1-1.2-.39,1.6,1.6,0,0,1-1.05-1.48,1.69,1.69,0,0,1,.68-1.37,2.69,2.69,0,0,1,1.74-.55,2.82,2.82,0,0,1,1.82.56,1.78,1.78,0,0,1,.69,1.45H149a.9.9,0,0,0-.3-.68,1.16,1.16,0,0,0-.8-.27,1.22,1.22,0,0,0-.76.22.69.69,0,0,0-.29.58.57.57,0,0,0,.27.5,3.45,3.45,0,0,0,1.11.37,5.14,5.14,0,0,1,1.3.44,1.84,1.84,0,0,1,.7.61,1.6,1.6,0,0,1,.23.86,1.69,1.69,0,0,1-.7,1.39,3,3,0,0,1-1.84.53,3.21,3.21,0,0,1-1.38-.29,2.15,2.15,0,0,1-.93-.77,1.78,1.78,0,0,1-.34-1.05h1.37a1,1,0,0,0,.37.77,1.49,1.49,0,0,0,.93.27,1.41,1.41,0,0,0,.84-.21A.67.67,0,0,0,149,106.15Z"/><path d="M154.34,104.65a3.84,3.84,0,0,1,.37-1.68,2.71,2.71,0,0,1,1-1.14,2.82,2.82,0,0,1,1.51-.4,2.7,2.7,0,0,1,2.06.82,3.24,3.24,0,0,1,.86,2.19v.33a3.76,3.76,0,0,1-.36,1.67,2.69,2.69,0,0,1-1,1.14,2.87,2.87,0,0,1-1.53.41,2.7,2.7,0,0,1-2.13-.9,3.42,3.42,0,0,1-.8-2.37Zm1.41.12a2.62,2.62,0,0,0,.4,1.53,1.4,1.4,0,0,0,2.23,0,2.86,2.86,0,0,0,.39-1.64,2.47,2.47,0,0,0-.41-1.52,1.37,1.37,0,0,0-2.2,0A2.79,2.79,0,0,0,155.75,104.77Z"/><path d="M162.67,101.55l0,.73a2.26,2.26,0,0,1,1.83-.85c1.31,0,2,.75,2,2.26v4.18h-1.4v-4.1a1.31,1.31,0,0,0-.26-.89,1.12,1.12,0,0,0-.85-.29,1.37,1.37,0,0,0-1.27.78v4.5h-1.4v-6.32Z"/><rect class="cls-4" x="54.41" y="151.84" width="137.28" height="31.46"/><path class="cls-1" d="M73,162.79h1.34v5.47a2.36,2.36,0,0,1-.7,1.78,2.54,2.54,0,0,1-1.83.66,2.64,2.64,0,0,1-1.87-.62,2.22,2.22,0,0,1-.66-1.71h1.34a1.26,1.26,0,0,0,.31.93,1.17,1.17,0,0,0,.88.31,1.12,1.12,0,0,0,.87-.36,1.46,1.46,0,0,0,.32-1Z"/><path class="cls-1" d="M78.71,167.59H77.22v3H75.87v-7.8h2.72a3.14,3.14,0,0,1,2.07.61,2.15,2.15,0,0,1,.73,1.75,2.21,2.21,0,0,1-.38,1.31,2.43,2.43,0,0,1-1,.81l1.73,3.25v.07H80.26Zm-1.49-1.09H78.6a1.54,1.54,0,0,0,1.06-.35,1.21,1.21,0,0,0,.38-.94,1.29,1.29,0,0,0-.35-1,1.52,1.52,0,0,0-1.06-.36H77.22Z"/><path class="cls-1" d="M87.59,167.22l-.88.94v2.43H85.37v-7.8h1.34v3.66l.75-.93,2.26-2.73h1.63l-2.88,3.46,3,4.34H89.92Z"/><path class="cls-1" d="M94.11,168.72l1.17-3.93h1.38l-2.28,6.68a1.88,1.88,0,0,1-1.79,1.46,2.1,2.1,0,0,1-.62-.1v-1l.24,0a1,1,0,0,0,1.13-.78l.19-.5-2-5.77H92.9Z"/><path class="cls-1" d="M100.88,170a2,2,0,0,1-1.61.68,1.77,1.77,0,0,1-1.42-.56,2.34,2.34,0,0,1-.48-1.59v-3.76h1.29v3.74c0,.74.31,1.11.91,1.11a1.28,1.28,0,0,0,1.27-.68v-4.17h1.29v5.8h-1.21Z"/><path class="cls-1" d="M106.67,169a.62.62,0,0,0-.28-.53,3,3,0,0,0-1-.32,4.92,4.92,0,0,1-1.1-.35,1.48,1.48,0,0,1-1-1.37,1.53,1.53,0,0,1,.62-1.25,2.45,2.45,0,0,1,1.6-.5,2.57,2.57,0,0,1,1.66.51,1.65,1.65,0,0,1,.64,1.33h-1.29a.82.82,0,0,0-.28-.62,1,1,0,0,0-.73-.25,1.16,1.16,0,0,0-.7.2.62.62,0,0,0-.27.53.55.55,0,0,0,.25.47,3.51,3.51,0,0,0,1,.33,4.91,4.91,0,0,1,1.2.4,1.78,1.78,0,0,1,.64.56,1.43,1.43,0,0,1,.21.79,1.52,1.52,0,0,1-.64,1.27,2.76,2.76,0,0,1-1.69.49,3,3,0,0,1-1.26-.26,2.09,2.09,0,0,1-.86-.71,1.72,1.72,0,0,1-.31-1h1.26a.92.92,0,0,0,.34.71,1.34,1.34,0,0,0,.85.25,1.27,1.27,0,0,0,.77-.19A.62.62,0,0,0,106.67,169Z"/><path class="cls-1" d="M110.33,165.42a2,2,0,0,1,1.6-.73c1.23,0,1.85.7,1.87,2.11v3.79h-1.29v-3.74a1.17,1.17,0,0,0-.26-.85,1,1,0,0,0-.76-.25,1.25,1.25,0,0,0-1.16.7v4.14H109v-8.23h1.29Z"/><path class="cls-1" d="M118.59,170a2,2,0,0,1-1.62.68,1.8,1.8,0,0,1-1.42-.56,2.34,2.34,0,0,1-.48-1.59v-3.76h1.29v3.74c0,.74.31,1.11.91,1.11a1.28,1.28,0,0,0,1.27-.68v-4.17h1.29v5.8h-1.21Z"/><path class="cls-1" d="M128,168.58a.93.93,0,0,0-.36-.79,4.17,4.17,0,0,0-1.3-.57,5.61,5.61,0,0,1-1.48-.63,2,2,0,0,1-1.06-1.74,1.91,1.91,0,0,1,.76-1.56,3.12,3.12,0,0,1,2-.61,3.31,3.31,0,0,1,1.44.3,2.37,2.37,0,0,1,1,.86,2.14,2.14,0,0,1,.37,1.23H128a1.24,1.24,0,0,0-.38-1,1.59,1.59,0,0,0-1.09-.35,1.61,1.61,0,0,0-1,.29,1,1,0,0,0-.37.79.85.85,0,0,0,.4.72,4.5,4.5,0,0,0,1.29.55,5.72,5.72,0,0,1,1.45.62,2.28,2.28,0,0,1,.81.79,2.09,2.09,0,0,1,.25,1,1.87,1.87,0,0,1-.74,1.55,3.2,3.2,0,0,1-2,.58,3.72,3.72,0,0,1-1.54-.32,2.59,2.59,0,0,1-1.1-.86,2.19,2.19,0,0,1-.39-1.29h1.34a1.27,1.27,0,0,0,.44,1,1.92,1.92,0,0,0,1.25.36,1.63,1.63,0,0,0,1-.28A.93.93,0,0,0,128,168.58Z"/><path class="cls-1" d="M131.7,165.42a2,2,0,0,1,1.6-.73c1.22,0,1.84.7,1.86,2.11v3.79h-1.29v-3.74a1.17,1.17,0,0,0-.26-.85,1,1,0,0,0-.75-.25,1.23,1.23,0,0,0-1.16.7v4.14h-1.29v-8.23h1.29Z"/><path class="cls-1" d="M136.47,163.29a.68.68,0,0,1,.19-.5.7.7,0,0,1,.54-.2.73.73,0,0,1,.54.2.68.68,0,0,1,.19.5.67.67,0,0,1-.19.49.73.73,0,0,1-.54.19.7.7,0,0,1-.54-.19A.67.67,0,0,1,136.47,163.29Zm1.37,7.3h-1.29v-5.8h1.29Z"/><path class="cls-1" d="M140.44,164.79l0,.67a2.06,2.06,0,0,1,1.67-.77q1.8,0,1.83,2.07v3.83h-1.29v-3.76a1.17,1.17,0,0,0-.24-.81,1,1,0,0,0-.77-.27,1.24,1.24,0,0,0-1.16.71v4.13h-1.29v-5.8Z"/><path class="cls-1" d="M147.16,168.1l-.57.6v1.89H145.3v-8.23h1.29v4.75l.4-.51,1.59-1.81h1.55L148,167.21l2.36,3.38h-1.49Z"/><path class="cls-1" d="M154.41,170.59a1.8,1.8,0,0,1-.15-.54,2,2,0,0,1-1.51.65,2,2,0,0,1-1.41-.5,1.58,1.58,0,0,1-.55-1.23,1.67,1.67,0,0,1,.68-1.43,3.32,3.32,0,0,1,2-.49h.79v-.38A1,1,0,0,0,154,166a1,1,0,0,0-.76-.27,1.11,1.11,0,0,0-.72.22.69.69,0,0,0-.28.56h-1.3a1.47,1.47,0,0,1,.32-.89,2.17,2.17,0,0,1,.85-.65,2.92,2.92,0,0,1,1.2-.23,2.39,2.39,0,0,1,1.61.51,1.83,1.83,0,0,1,.62,1.44v2.61a2.92,2.92,0,0,0,.22,1.25v.09Zm-1.42-.94a1.39,1.39,0,0,0,.72-.19,1.17,1.17,0,0,0,.51-.5v-1.09h-.7a1.87,1.87,0,0,0-1.08.25.81.81,0,0,0-.36.71.79.79,0,0,0,.25.6A.94.94,0,0,0,153,169.65Z"/><path class="cls-1" d="M158.06,164.79l0,.67a2.06,2.06,0,0,1,1.67-.77q1.8,0,1.83,2.07v3.83h-1.29v-3.76a1.17,1.17,0,0,0-.24-.81,1,1,0,0,0-.77-.27,1.26,1.26,0,0,0-1.17.71v4.13h-1.29v-5.8Z"/><path class="cls-1" d="M166.14,169a.61.61,0,0,0-.29-.53,3,3,0,0,0-.94-.32,4.75,4.75,0,0,1-1.1-.35,1.47,1.47,0,0,1-1-1.37,1.54,1.54,0,0,1,.63-1.25,2.44,2.44,0,0,1,1.59-.5,2.6,2.6,0,0,1,1.67.51,1.64,1.64,0,0,1,.63,1.33h-1.29a.81.81,0,0,0-.27-.62,1.05,1.05,0,0,0-.74-.25,1.15,1.15,0,0,0-.69.2.62.62,0,0,0-.27.53.53.53,0,0,0,.25.47,3.4,3.4,0,0,0,1,.33,4.82,4.82,0,0,1,1.19.4,1.7,1.7,0,0,1,.64.56,1.43,1.43,0,0,1,.21.79,1.5,1.5,0,0,1-.64,1.27,2.75,2.75,0,0,1-1.68.49,3,3,0,0,1-1.26-.26,2,2,0,0,1-.86-.71,1.65,1.65,0,0,1-.31-1h1.25a.92.92,0,0,0,.35.71,1.29,1.29,0,0,0,.84.25,1.32,1.32,0,0,0,.78-.19A.62.62,0,0,0,166.14,169Z"/><path class="cls-1" d="M171.06,170.7a2.66,2.66,0,0,1-2-.78,2.83,2.83,0,0,1-.76-2.08v-.16a3.5,3.5,0,0,1,.33-1.55,2.47,2.47,0,0,1,.93-1.06,2.41,2.41,0,0,1,1.34-.38,2.28,2.28,0,0,1,1.82.75,3.25,3.25,0,0,1,.64,2.14v.52h-3.76a1.76,1.76,0,0,0,.48,1.14,1.39,1.39,0,0,0,1,.42,1.72,1.72,0,0,0,1.44-.73l.7.67a2.29,2.29,0,0,1-.93.81A2.85,2.85,0,0,1,171.06,170.7Zm-.15-5a1.09,1.09,0,0,0-.86.38,1.91,1.91,0,0,0-.42,1h2.46v-.1a1.59,1.59,0,0,0-.34-1A1.08,1.08,0,0,0,170.91,165.73Z"/><path class="cls-1" d="M175.57,164.79l0,.67a2.1,2.1,0,0,1,1.68-.77c1.19,0,1.8.69,1.82,2.07v3.83h-1.29v-3.76a1.22,1.22,0,0,0-.23-.81,1,1,0,0,0-.78-.27,1.24,1.24,0,0,0-1.16.71v4.13h-1.29v-5.8Z"/><rect class="cls-4" x="54.41" y="188.84" width="137.28" height="31.46"/><path class="cls-1" d="M82.75,199.79h1.34v5.47a2.33,2.33,0,0,1-.7,1.78,2.54,2.54,0,0,1-1.83.66,2.65,2.65,0,0,1-1.87-.62,2.25,2.25,0,0,1-.65-1.71h1.33a1.3,1.3,0,0,0,.31.93,1.17,1.17,0,0,0,.88.31,1.11,1.11,0,0,0,.87-.36,1.46,1.46,0,0,0,.32-1Z"/><path class="cls-1" d="M88.47,204.59H87v3H85.62v-7.8h2.72a3.1,3.1,0,0,1,2.07.61,2.12,2.12,0,0,1,.73,1.75,2.21,2.21,0,0,1-.38,1.31,2.37,2.37,0,0,1-1,.81l1.74,3.25v.07H90ZM87,203.5h1.38a1.52,1.52,0,0,0,1.06-.35,1.18,1.18,0,0,0,.38-.94,1.26,1.26,0,0,0-.35-1,1.49,1.49,0,0,0-1-.36H87Z"/><path class="cls-1" d="M101.26,207.59H99.93v-3.46H96.47v3.46H95.12v-7.8h1.35V203h3.46v-3.25h1.33Z"/><path class="cls-1" d="M102.49,204.64a3.51,3.51,0,0,1,.33-1.54,2.52,2.52,0,0,1,.94-1,2.69,2.69,0,0,1,1.39-.36,2.5,2.5,0,0,1,1.89.75,3,3,0,0,1,.79,2v.31a3.44,3.44,0,0,1-.33,1.53,2.44,2.44,0,0,1-.93,1.05,2.72,2.72,0,0,1-1.41.37,2.48,2.48,0,0,1-1.94-.82,3.14,3.14,0,0,1-.73-2.18Zm1.29.11a2.38,2.38,0,0,0,.36,1.4,1.2,1.2,0,0,0,1,.51,1.16,1.16,0,0,0,1-.52,2.59,2.59,0,0,0,.37-1.5,2.29,2.29,0,0,0-.38-1.39,1.25,1.25,0,0,0-2,0A2.51,2.51,0,0,0,103.78,204.75Z"/><path class="cls-1" d="M110.19,202.42a2,2,0,0,1,1.6-.73c1.23,0,1.85.7,1.87,2.11v3.79h-1.29v-3.74a1.17,1.17,0,0,0-.26-.85,1,1,0,0,0-.76-.25,1.25,1.25,0,0,0-1.16.7v4.14H108.9v-8.23h1.29Z"/><path class="cls-1" d="M115,200.29a.71.71,0,0,1,.18-.5.73.73,0,0,1,.54-.2.74.74,0,0,1,.55.2.74.74,0,0,1,0,1,.74.74,0,0,1-.55.19.73.73,0,0,1-.54-.19A.71.71,0,0,1,115,200.29Zm1.37,7.3h-1.29v-5.8h1.29Z"/><path class="cls-1" d="M122.32,199.79l2.23,6,2.23-6h1.73v7.8h-1.34V205l.14-3.44-2.29,6h-1l-2.28-6,.13,3.44v2.57h-1.33v-7.8Z"/><path class="cls-1" d="M133.41,207.59a2.16,2.16,0,0,1-.15-.54,2,2,0,0,1-1.51.65,2,2,0,0,1-1.41-.5,1.61,1.61,0,0,1-.55-1.23,1.66,1.66,0,0,1,.69-1.43,3.27,3.27,0,0,1,2-.49h.79v-.38A1,1,0,0,0,133,203a1,1,0,0,0-.76-.27,1.12,1.12,0,0,0-.72.22.69.69,0,0,0-.28.56h-1.29a1.46,1.46,0,0,1,.31-.89,2.17,2.17,0,0,1,.85-.65,2.94,2.94,0,0,1,1.21-.23,2.41,2.41,0,0,1,1.61.51,1.82,1.82,0,0,1,.61,1.44v2.61a2.92,2.92,0,0,0,.22,1.25v.09Zm-1.42-.94a1.39,1.39,0,0,0,.72-.19,1.17,1.17,0,0,0,.51-.5v-1.09h-.7a1.86,1.86,0,0,0-1.07.25.81.81,0,0,0-.36.71.78.78,0,0,0,.24.6A1,1,0,0,0,132,206.65Z"/><path class="cls-1" d="M135.87,200.29a.71.71,0,0,1,.18-.5.73.73,0,0,1,.54-.2.74.74,0,0,1,.55.2.74.74,0,0,1,0,1,.74.74,0,0,1-.55.19.73.73,0,0,1-.54-.19A.71.71,0,0,1,135.87,200.29Zm1.37,7.3H136v-5.8h1.29Z"/><path class="cls-1" d="M139.84,201.79l0,.67a2.06,2.06,0,0,1,1.67-.77q1.8,0,1.83,2.07v3.83h-1.29v-3.76a1.17,1.17,0,0,0-.24-.81,1,1,0,0,0-.77-.27,1.26,1.26,0,0,0-1.17.71v4.13h-1.29v-5.8Z"/><path class="cls-1" d="M148.87,206.51h3.51v1.08h-4.85v-7.8h1.34Z"/><path class="cls-1" d="M153.29,200.29a.68.68,0,0,1,.19-.5.83.83,0,0,1,1.08,0,.68.68,0,0,1,.19.5.67.67,0,0,1-.19.49.86.86,0,0,1-1.08,0A.67.67,0,0,1,153.29,200.29Zm1.37,7.3h-1.29v-5.8h1.29Z"/><path class="cls-1" d="M157.27,201.79l0,.67a2.1,2.1,0,0,1,1.68-.77c1.19,0,1.8.69,1.82,2.07v3.83h-1.29v-3.76a1.22,1.22,0,0,0-.23-.81,1,1,0,0,0-.78-.27,1.24,1.24,0,0,0-1.16.71v4.13h-1.29v-5.8Z"/><path class="cls-1" d="M164.65,207.7a2.66,2.66,0,0,1-2-.78,2.83,2.83,0,0,1-.76-2.08v-.16a3.5,3.5,0,0,1,.33-1.55,2.47,2.47,0,0,1,.93-1.06,2.41,2.41,0,0,1,1.34-.38,2.26,2.26,0,0,1,1.82.75,3.25,3.25,0,0,1,.64,2.14v.52H163.2a1.76,1.76,0,0,0,.48,1.14,1.39,1.39,0,0,0,1,.42,1.72,1.72,0,0,0,1.44-.73l.7.67a2.29,2.29,0,0,1-.93.81A2.85,2.85,0,0,1,164.65,207.7Zm-.15-5a1.09,1.09,0,0,0-.86.38,1.91,1.91,0,0,0-.42,1h2.46v-.1a1.59,1.59,0,0,0-.34-1A1.06,1.06,0,0,0,164.5,202.73Z"/><rect class="cls-4" x="54.41" y="114.09" width="137.28" height="31.46"/><path class="cls-1" d="M70.55,125.33h1.34v5.47a2.35,2.35,0,0,1-.7,1.78,2.54,2.54,0,0,1-1.83.66,2.64,2.64,0,0,1-1.87-.62,2.22,2.22,0,0,1-.66-1.71h1.34a1.26,1.26,0,0,0,.31.93,1.17,1.17,0,0,0,.88.32,1.06,1.06,0,0,0,.86-.37,1.41,1.41,0,0,0,.33-1Z"/><path class="cls-1" d="M76.26,130.13H74.77v3H73.42v-7.8h2.72a3.19,3.19,0,0,1,2.07.61,2.16,2.16,0,0,1,.73,1.75,2.21,2.21,0,0,1-.38,1.31,2.43,2.43,0,0,1-1,.81l1.74,3.25v.07H77.81ZM74.77,129h1.38a1.54,1.54,0,0,0,1.06-.35,1.21,1.21,0,0,0,.38-.94,1.31,1.31,0,0,0-.35-1,1.47,1.47,0,0,0-1.06-.35H74.77Z"/><path class="cls-1" d="M88.19,126.43H85.78v6.7H84.44v-6.7H82.05v-1.1h6.14Z"/><path class="cls-1" d="M87.73,130.18a3.31,3.31,0,0,1,.34-1.53A2.35,2.35,0,0,1,89,127.6a2.58,2.58,0,0,1,1.39-.37,2.5,2.5,0,0,1,1.89.75,3,3,0,0,1,.78,2v.3a3.48,3.48,0,0,1-.33,1.54,2.54,2.54,0,0,1-.93,1,2.65,2.65,0,0,1-1.41.37,2.48,2.48,0,0,1-2-.82,3.16,3.16,0,0,1-.73-2.17Zm1.29.11a2.35,2.35,0,0,0,.37,1.4,1.2,1.2,0,0,0,1,.51,1.18,1.18,0,0,0,1-.51,2.65,2.65,0,0,0,.36-1.51,2.29,2.29,0,0,0-.37-1.39,1.21,1.21,0,0,0-1-.52,1.16,1.16,0,0,0-1,.51A2.53,2.53,0,0,0,89,130.29Z"/><path class="cls-1" d="M96,130.65l-.58.59v1.89H94.17V124.9h1.29v4.75l.41-.51,1.59-1.8H99l-2.14,2.41,2.37,3.38h-1.5Z"/><path class="cls-1" d="M103.28,133.13a2.25,2.25,0,0,1-.14-.54,2.16,2.16,0,0,1-2.93.15,1.6,1.6,0,0,1-.54-1.23,1.63,1.63,0,0,1,.68-1.42,3.26,3.26,0,0,1,2-.5h.79v-.38a1,1,0,0,0-.25-.72,1,1,0,0,0-.76-.27,1.12,1.12,0,0,0-.72.22.69.69,0,0,0-.28.57H99.79a1.42,1.42,0,0,1,.31-.89,2.1,2.1,0,0,1,.85-.66,3.14,3.14,0,0,1,1.21-.23,2.41,2.41,0,0,1,1.61.51,1.82,1.82,0,0,1,.61,1.44v2.61a3.08,3.08,0,0,0,.22,1.25v.09Zm-1.41-.94a1.54,1.54,0,0,0,.72-.18,1.29,1.29,0,0,0,.5-.51v-1.09h-.69a2,2,0,0,0-1.08.25.83.83,0,0,0-.36.72.78.78,0,0,0,.24.59A1,1,0,0,0,101.87,132.19Z"/><path class="cls-1" d="M105.74,125.83a.68.68,0,0,1,.19-.5.7.7,0,0,1,.54-.2.73.73,0,0,1,.54.2.68.68,0,0,1,.19.5.66.66,0,0,1-.19.49.73.73,0,0,1-.54.2.7.7,0,0,1-.54-.2A.66.66,0,0,1,105.74,125.83Zm1.37,7.3h-1.29v-5.79h1.29Z"/><path class="cls-1" d="M108.27,130.19a3.47,3.47,0,0,1,.62-2.15,2,2,0,0,1,1.65-.81,1.87,1.87,0,0,1,1.48.64v-3h1.29v8.23h-1.17l-.06-.6a1.91,1.91,0,0,1-1.55.71,1.94,1.94,0,0,1-1.63-.82A3.58,3.58,0,0,1,108.27,130.19Zm1.29.11a2.47,2.47,0,0,0,.34,1.38,1.11,1.11,0,0,0,1,.5,1.23,1.23,0,0,0,1.16-.71V129a1.21,1.21,0,0,0-1.15-.7,1.1,1.1,0,0,0-1,.51A2.73,2.73,0,0,0,109.56,130.3Z"/><path class="cls-1" d="M114.41,130.18a3.44,3.44,0,0,1,.34-1.53,2.41,2.41,0,0,1,.94-1.05,2.58,2.58,0,0,1,1.39-.37A2.5,2.5,0,0,1,119,128a3,3,0,0,1,.78,2v.3a3.48,3.48,0,0,1-.33,1.54,2.54,2.54,0,0,1-.93,1,2.65,2.65,0,0,1-1.41.37,2.48,2.48,0,0,1-2-.82,3.16,3.16,0,0,1-.73-2.17Zm1.3.11a2.36,2.36,0,0,0,.36,1.4,1.2,1.2,0,0,0,1,.51,1.18,1.18,0,0,0,1-.51,2.65,2.65,0,0,0,.36-1.51,2.29,2.29,0,0,0-.37-1.39,1.21,1.21,0,0,0-1-.52,1.16,1.16,0,0,0-1,.51A2.53,2.53,0,0,0,115.71,130.29Z"/><path class="cls-1" d="M127.73,131.12a1,1,0,0,0-.36-.79,4.24,4.24,0,0,0-1.29-.56,6.28,6.28,0,0,1-1.49-.63,2,2,0,0,1-1.06-1.75,1.91,1.91,0,0,1,.76-1.55,3.06,3.06,0,0,1,2-.61,3.31,3.31,0,0,1,1.44.3,2.38,2.38,0,0,1,1,.85,2.21,2.21,0,0,1,.36,1.23h-1.34a1.24,1.24,0,0,0-.38-1,1.58,1.58,0,0,0-1.09-.34,1.61,1.61,0,0,0-1,.28,1,1,0,0,0-.36.79.86.86,0,0,0,.39.72,4.47,4.47,0,0,0,1.29.56,5.74,5.74,0,0,1,1.45.61,2.3,2.3,0,0,1,.81.8,2,2,0,0,1,.25,1,1.84,1.84,0,0,1-.74,1.55,3.14,3.14,0,0,1-2,.58,3.88,3.88,0,0,1-1.54-.31,2.61,2.61,0,0,1-1.1-.87,2.18,2.18,0,0,1-.39-1.28h1.35a1.25,1.25,0,0,0,.43,1,1.87,1.87,0,0,0,1.25.37,1.62,1.62,0,0,0,1.05-.29A.92.92,0,0,0,127.73,131.12Z"/><path class="cls-1" d="M131.4,128a2,2,0,0,1,1.6-.74c1.22,0,1.85.7,1.86,2.11v3.79h-1.29v-3.74a1.17,1.17,0,0,0-.25-.85,1.1,1.1,0,0,0-.76-.25,1.25,1.25,0,0,0-1.16.7v4.14h-1.29V124.9h1.29Z"/><path class="cls-1" d="M136.17,125.83a.68.68,0,0,1,.19-.5.7.7,0,0,1,.54-.2.73.73,0,0,1,.54.2.68.68,0,0,1,.19.5.66.66,0,0,1-.19.49.73.73,0,0,1-.54.2.7.7,0,0,1-.54-.2A.66.66,0,0,1,136.17,125.83Zm1.37,7.3h-1.29v-5.79h1.29Z"/><path class="cls-1" d="M140.14,127.34l0,.67a2.08,2.08,0,0,1,1.68-.78c1.19,0,1.8.69,1.82,2.07v3.83h-1.29v-3.75a1.25,1.25,0,0,0-.23-.82,1,1,0,0,0-.78-.27,1.23,1.23,0,0,0-1.16.72v4.12h-1.29v-5.79Z"/><path class="cls-1" d="M146.87,130.65l-.58.59v1.89H145V124.9h1.29v4.75l.4-.51,1.59-1.8h1.56l-2.14,2.41,2.36,3.38h-1.49Z"/><path class="cls-1" d="M154.11,133.13a2.16,2.16,0,0,1-.15-.54,2,2,0,0,1-1.51.65,2,2,0,0,1-1.41-.5,1.61,1.61,0,0,1-.55-1.23,1.64,1.64,0,0,1,.69-1.42,3.26,3.26,0,0,1,1.95-.5h.79v-.38a1,1,0,0,0-.25-.72,1,1,0,0,0-.76-.27,1.12,1.12,0,0,0-.72.22.69.69,0,0,0-.28.57h-1.29a1.42,1.42,0,0,1,.31-.89,2.1,2.1,0,0,1,.85-.66,3.11,3.11,0,0,1,1.21-.23,2.41,2.41,0,0,1,1.61.51,1.82,1.82,0,0,1,.61,1.44v2.61a2.92,2.92,0,0,0,.22,1.25v.09Zm-1.42-.94a1.48,1.48,0,0,0,.72-.18,1.25,1.25,0,0,0,.51-.51v-1.09h-.7a1.94,1.94,0,0,0-1.07.25.83.83,0,0,0-.36.72.78.78,0,0,0,.24.59A1,1,0,0,0,152.69,132.19Z"/><path class="cls-1" d="M157.76,127.34l0,.67a2,2,0,0,1,1.67-.78q1.8,0,1.83,2.07v3.83H160v-3.75a1.2,1.2,0,0,0-.24-.82,1,1,0,0,0-.77-.27,1.23,1.23,0,0,0-1.16.72v4.12h-1.29v-5.79Z"/><path class="cls-1" d="M165.84,131.56a.6.6,0,0,0-.29-.53,3,3,0,0,0-.94-.32,4.73,4.73,0,0,1-1.1-.36,1.48,1.48,0,0,1-1-1.36,1.56,1.56,0,0,1,.63-1.26,2.5,2.5,0,0,1,1.59-.5,2.58,2.58,0,0,1,1.67.51,1.66,1.66,0,0,1,.63,1.34h-1.29a.83.83,0,0,0-.27-.63,1.1,1.1,0,0,0-.74-.25,1.15,1.15,0,0,0-.69.2.62.62,0,0,0-.27.53.55.55,0,0,0,.25.47,3.4,3.4,0,0,0,1,.33,5.1,5.1,0,0,1,1.19.4,1.82,1.82,0,0,1,.65.56,1.47,1.47,0,0,1,.21.8,1.5,1.5,0,0,1-.65,1.26,2.66,2.66,0,0,1-1.68.49,3,3,0,0,1-1.26-.26,2,2,0,0,1-.86-.71,1.64,1.64,0,0,1-.31-1h1.26a.88.88,0,0,0,.34.7,1.32,1.32,0,0,0,.85.25,1.29,1.29,0,0,0,.77-.19A.6.6,0,0,0,165.84,131.56Z"/><path class="cls-1" d="M170.76,133.24a2.66,2.66,0,0,1-2-.78,2.83,2.83,0,0,1-.76-2.08v-.16a3.53,3.53,0,0,1,.33-1.55,2.47,2.47,0,0,1,2.27-1.44,2.26,2.26,0,0,1,1.82.75,3.27,3.27,0,0,1,.64,2.14v.53h-3.76a1.75,1.75,0,0,0,.48,1.13,1.42,1.42,0,0,0,1.05.42,1.74,1.74,0,0,0,1.44-.72l.7.67a2.38,2.38,0,0,1-.92.8A2.92,2.92,0,0,1,170.76,133.24Zm-.15-5a1.09,1.09,0,0,0-.86.38,1.94,1.94,0,0,0-.42,1h2.46v-.09a1.6,1.6,0,0,0-.34-1A1.05,1.05,0,0,0,170.61,128.27Z"/><path class="cls-1" d="M175.27,127.34l0,.67a2.08,2.08,0,0,1,1.68-.78c1.2,0,1.8.69,1.82,2.07v3.83h-1.29v-3.75a1.2,1.2,0,0,0-.23-.82,1,1,0,0,0-.77-.27,1.25,1.25,0,0,0-1.17.72v4.12h-1.29v-5.79Z"/></g><g id="Getting_There_Title" data-name="Getting There Title"><rect class="cls-2" width="599.49" height="64.82"/><path class="cls-1" d="M173.91,36.85a5.49,5.49,0,0,1-2.43,1.61A9.94,9.94,0,0,1,168,39a6.84,6.84,0,0,1-3.52-.89,5.88,5.88,0,0,1-2.34-2.56,9.17,9.17,0,0,1-.85-4V30.57a9.67,9.67,0,0,1,.79-4,5.77,5.77,0,0,1,2.25-2.61,7.36,7.36,0,0,1,7.75.41,5.67,5.67,0,0,1,1.84,3.86h-3.1a3.16,3.16,0,0,0-.94-2,3,3,0,0,0-2-.62,2.81,2.81,0,0,0-2.47,1.23,6.48,6.48,0,0,0-.86,3.67v1a6.16,6.16,0,0,0,.92,3.7,3.15,3.15,0,0,0,2.71,1.26,3.48,3.48,0,0,0,2.56-.78V33h-2.9V30.63h6.09Z"/><path class="cls-1" d="M186,32.06h-6.12v4.18h7.18v2.58H176.73V23.22h10.35v2.61h-7.16v3.71H186Z"/><path class="cls-1" d="M201.12,25.83h-4.74v13h-3.19v-13h-4.67V23.22h12.6Z"/><path class="cls-1" d="M215.12,25.83h-4.74v13h-3.19v-13h-4.67V23.22h12.6Z"/><path class="cls-1" d="M220.28,38.82h-3.19V23.22h3.19Z"/><path class="cls-1" d="M236,38.82h-3.19l-6.2-10.26V38.82H223.4V23.22h3.19l6.21,10.29V23.22H236Z"/><path class="cls-1" d="M251.14,36.85a5.58,5.58,0,0,1-2.44,1.61,9.93,9.93,0,0,1-3.48.58,6.88,6.88,0,0,1-3.53-.89,5.88,5.88,0,0,1-2.34-2.56,9,9,0,0,1-.84-4V30.57a9.67,9.67,0,0,1,.78-4,5.77,5.77,0,0,1,2.25-2.61A6.39,6.39,0,0,1,245,23a6.46,6.46,0,0,1,4.31,1.32,5.76,5.76,0,0,1,1.84,3.86H248a3.11,3.11,0,0,0-.94-2,3,3,0,0,0-2-.62,2.82,2.82,0,0,0-2.48,1.23,6.65,6.65,0,0,0-.86,3.67v1a6.15,6.15,0,0,0,.93,3.7,3.14,3.14,0,0,0,2.71,1.26,3.5,3.5,0,0,0,2.56-.78V33h-2.9V30.63h6.09Z"/><path class="cls-1" d="M271,25.83h-4.74v13h-3.19v-13H258.4V23.22H271Z"/><path class="cls-1" d="M285.26,31.38a9.49,9.49,0,0,1-.81,4,6.11,6.11,0,0,1-2.31,2.67,6.76,6.76,0,0,1-6.88,0,6.17,6.17,0,0,1-2.34-2.67,9.28,9.28,0,0,1-.84-4v-.77a9.54,9.54,0,0,1,.82-4.05A6.16,6.16,0,0,1,275.23,24a6.76,6.76,0,0,1,6.88,0,6.16,6.16,0,0,1,2.33,2.69,9.34,9.34,0,0,1,.82,4ZM282,30.67a6.63,6.63,0,0,0-.87-3.73,3.07,3.07,0,0,0-5,0,6.56,6.56,0,0,0-.88,3.69v.76a6.66,6.66,0,0,0,.87,3.7,3,3,0,0,0,5,.05,6.69,6.69,0,0,0,.87-3.7Z"/><path class="cls-1" d="M304.86,25.83h-4.74v13h-3.18v-13h-4.68V23.22h12.6Z"/><path class="cls-1" d="M319.32,38.82h-3.18V32.14h-6.22v6.68h-3.19V23.22h3.19v6.32h6.22V23.22h3.18Z"/><path class="cls-1" d="M331.67,32.06h-6.12v4.18h7.18v2.58H322.36V23.22h10.35v2.61h-7.16v3.71h6.12Z"/><path class="cls-1" d="M348.27,34.73a1.65,1.65,0,0,0-.64-1.4,8.4,8.4,0,0,0-2.29-1,15.92,15.92,0,0,1-2.63-1.06,4.33,4.33,0,0,1-2.64-3.87,3.79,3.79,0,0,1,.71-2.25,4.62,4.62,0,0,1,2-1.55,7.6,7.6,0,0,1,3-.56,6.84,6.84,0,0,1,3,.61,4.74,4.74,0,0,1,2,1.7,4.52,4.52,0,0,1,.72,2.51h-3.19a2.08,2.08,0,0,0-.67-1.66,2.72,2.72,0,0,0-1.88-.6,2.94,2.94,0,0,0-1.82.5,1.58,1.58,0,0,0-.65,1.31,1.54,1.54,0,0,0,.76,1.28,8.66,8.66,0,0,0,2.24,1,9.52,9.52,0,0,1,4,2.05,4.09,4.09,0,0,1,1.25,3A3.75,3.75,0,0,1,350,37.88,6.62,6.62,0,0,1,345.86,39a7.88,7.88,0,0,1-3.26-.66,5.13,5.13,0,0,1-2.23-1.81,4.59,4.59,0,0,1-.77-2.65h3.2q0,2.58,3.06,2.58a3,3,0,0,0,1.77-.47A1.5,1.5,0,0,0,348.27,34.73Z"/><path class="cls-1" d="M365.47,25.83h-4.74v13h-3.18v-13h-4.68V23.22h12.6Z"/><path class="cls-1" d="M374.35,35.61h-5.59l-1.07,3.21H364.3l5.76-15.6h3l5.79,15.6h-3.39ZM369.62,33h3.87l-1.95-5.84Z"/><path class="cls-1" d="M380.49,38.82V23.22h4.76a7.15,7.15,0,0,1,3.65.93,6.48,6.48,0,0,1,2.52,2.64,8.19,8.19,0,0,1,.9,3.88v.72a8.24,8.24,0,0,1-.89,3.87,6.38,6.38,0,0,1-2.5,2.62,7.19,7.19,0,0,1-3.65.94Zm3.19-13V36.24h1.54A3.45,3.45,0,0,0,388.08,35a5.64,5.64,0,0,0,1-3.53v-.82a5.71,5.71,0,0,0-1-3.61,3.45,3.45,0,0,0-2.86-1.22Z"/><path class="cls-1" d="M398.08,38.82h-3.19V23.22h3.19Z"/><path class="cls-1" d="M413,23.22V33.5a5.32,5.32,0,0,1-1.59,4,7.1,7.1,0,0,1-8.65,0,5.19,5.19,0,0,1-1.63-4V23.22h3.19v10.3a3,3,0,0,0,.73,2.23,2.79,2.79,0,0,0,2,.71c1.8,0,2.71-1,2.74-2.85V23.22Z"/><path class="cls-1" d="M420.05,23.22l4,11.32,4-11.32h4.19v15.6H429V34.56l.32-7.36-4.18,11.62h-2.19l-4.17-11.61.32,7.35v4.26h-3.19V23.22Z"/></g></g><path class="cls-4" d="M51.38,325.36h-2V321.1h-4v4.26h-2v-9.93h2v4h4v-4h2Z"/><path class="cls-4" d="M55.31,325.36h-2v-9.93h2Z"/><path class="cls-4" d="M60.27,321.38l-1.05,1.14v2.84h-2v-9.93h2v4.5l.89-1.23,2.51-3.27h2.49l-3.49,4.41,3.59,5.52H62.8Z"/><path class="cls-4" d="M71.54,323.31H68l-.68,2.05H65.14l3.67-9.93h1.88l3.69,9.93H72.22Zm-3-1.65H71l-1.24-3.72Z"/><path class="cls-4" d="M78.94,321.72H77.32v3.64h-2v-9.93H79a4.05,4.05,0,0,1,2.69.79,2.71,2.71,0,0,1,1,2.21,3.11,3.11,0,0,1-.44,1.7,3,3,0,0,1-1.32,1.08L83,325.26v.1H80.78Zm-1.62-1.65H79a1.66,1.66,0,0,0,1.18-.39,1.42,1.42,0,0,0,.42-1.08,1.53,1.53,0,0,0-.39-1.11,1.65,1.65,0,0,0-1.22-.4H77.32Z"/><path class="cls-4" d="M86.29,325.36h-2v-9.93h2Z"/><path class="cls-4" d="M96.18,325.36h-2l-4-6.53v6.53h-2v-9.93h2l4,6.55v-6.55h2Z"/><path class="cls-4" d="M106,320.62a6.08,6.08,0,0,1-.51,2.57,3.78,3.78,0,0,1-1.47,1.7,4.27,4.27,0,0,1-4.38,0,4,4,0,0,1-1.49-1.69,5.85,5.85,0,0,1-.53-2.54v-.49a6,6,0,0,1,.52-2.58,4,4,0,0,1,1.48-1.71,4.36,4.36,0,0,1,4.38,0,3.94,3.94,0,0,1,1.48,1.71,6,6,0,0,1,.52,2.58Zm-2-.45a4.19,4.19,0,0,0-.56-2.37,1.94,1.94,0,0,0-3.15,0,4.17,4.17,0,0,0-.57,2.35v.48a4.27,4.27,0,0,0,.56,2.36,1.79,1.79,0,0,0,1.59.84,1.77,1.77,0,0,0,1.57-.81,4.24,4.24,0,0,0,.56-2.36Z"/><path class="cls-4" d="M110.16,315.43l2.53,7.2,2.51-7.2h2.67v9.93h-2v-2.71L116,318l-2.65,7.4H112L109.33,318l.21,4.68v2.71h-2v-9.93Z"/><path class="cls-4" d="M127.72,320.62a6.08,6.08,0,0,1-.51,2.57,3.78,3.78,0,0,1-1.47,1.7,4.27,4.27,0,0,1-4.38,0,4,4,0,0,1-1.49-1.69,5.85,5.85,0,0,1-.53-2.54v-.49a6,6,0,0,1,.52-2.58,4,4,0,0,1,1.48-1.71,4.36,4.36,0,0,1,4.38,0,3.94,3.94,0,0,1,1.48,1.71,6,6,0,0,1,.52,2.58Zm-2-.45a4.28,4.28,0,0,0-.55-2.37,1.81,1.81,0,0,0-1.59-.81,1.78,1.78,0,0,0-1.57.8,4.1,4.1,0,0,0-.56,2.35v.48A4.27,4.27,0,0,0,122,323a1.94,1.94,0,0,0,3.17,0,4.24,4.24,0,0,0,.55-2.36Z"/><path class="cls-4" d="M132.84,321.72h-1.61v3.64h-2v-9.93h3.66a4.07,4.07,0,0,1,2.69.79,2.71,2.71,0,0,1,.95,2.21,3.11,3.11,0,0,1-.44,1.7,3,3,0,0,1-1.32,1.08l2.13,4.05v.1h-2.18Zm-1.61-1.65h1.63a1.69,1.69,0,0,0,1.19-.39,1.42,1.42,0,0,0,.42-1.08,1.5,1.5,0,0,0-.4-1.11,1.62,1.62,0,0,0-1.21-.4h-1.63Z"/><path class="cls-4" d="M140.19,325.36h-2v-9.93h2Z"/><path class="cls-4" d="M150.63,322.75a1.07,1.07,0,0,0-.41-.89,5.59,5.59,0,0,0-1.46-.65,10.71,10.71,0,0,1-1.67-.68,2.75,2.75,0,0,1-1.68-2.46,2.39,2.39,0,0,1,.45-1.43,2.91,2.91,0,0,1,1.29-1,4.84,4.84,0,0,1,1.9-.35,4.31,4.31,0,0,1,1.87.38,3.07,3.07,0,0,1,1.29,1.09,2.89,2.89,0,0,1,.45,1.59h-2a1.37,1.37,0,0,0-.42-1.06,1.78,1.78,0,0,0-1.2-.37,1.88,1.88,0,0,0-1.16.31,1,1,0,0,0-.41.84,1,1,0,0,0,.49.81,5.25,5.25,0,0,0,1.42.61,6.27,6.27,0,0,1,2.52,1.3,2.61,2.61,0,0,1,.79,1.94,2.4,2.4,0,0,1-1,2,4.23,4.23,0,0,1-2.61.74,5,5,0,0,1-2.07-.42,3.35,3.35,0,0,1-1.42-1.15,2.94,2.94,0,0,1-.49-1.69h2c0,1.09.65,1.64,2,1.64a1.87,1.87,0,0,0,1.13-.3A1,1,0,0,0,150.63,322.75Z"/><path class="cls-4" d="M161.45,317.09h-3v8.27h-2v-8.27h-3v-1.66h8Z"/><path class="cls-4" d="M167.35,323.31h-3.56l-.67,2.05H161l3.66-9.93h1.88l3.69,9.93H168Zm-3-1.65h2.46l-1.24-3.72Z"/><path class="cls-4" d="M177.71,317.09h-3v8.27h-2v-8.27h-3v-1.66h8Z"/><path class="cls-4" d="M181,325.36h-2v-9.93h2Z"/><path class="cls-4" d="M191,320.62a5.93,5.93,0,0,1-.52,2.57,3.78,3.78,0,0,1-1.47,1.7,4,4,0,0,1-2.19.61,4,4,0,0,1-2.18-.6,3.84,3.84,0,0,1-1.49-1.69,6,6,0,0,1-.54-2.54v-.49a6,6,0,0,1,.53-2.58,3.94,3.94,0,0,1,1.48-1.71,4.34,4.34,0,0,1,4.37,0,3.94,3.94,0,0,1,1.48,1.71,6,6,0,0,1,.53,2.58Zm-2.06-.45a4.19,4.19,0,0,0-.55-2.37,1.81,1.81,0,0,0-1.58-.81,1.79,1.79,0,0,0-1.58.8,4.1,4.1,0,0,0-.56,2.35v.48a4.27,4.27,0,0,0,.55,2.36,1.94,1.94,0,0,0,3.17,0,4.24,4.24,0,0,0,.55-2.36Z"/><path class="cls-4" d="M200.47,325.36h-2l-3.95-6.53v6.53h-2v-9.93h2l4,6.55v-6.55h2Z"/><g id="arrow"><line class="cls-5" x1="121.62" y1="234" x2="121.92" y2="293.68"/><polygon class="cls-6" points="114.86 289.9 128.99 289.9 121.5 297.45 114.86 289.9"/></g><rect class="cls-4" x="53.28" y="353.63" width="137.28" height="31.46"/><path class="cls-1" d="M118.37,366H116v6.71h-1.33V366h-2.39v-1.09h6.13Z"/><path class="cls-1" d="M121.81,372.67a1.79,1.79,0,0,1-.15-.55,2.17,2.17,0,0,1-2.92.16,1.61,1.61,0,0,1-.55-1.24,1.65,1.65,0,0,1,.68-1.42,3.3,3.3,0,0,1,1.95-.5h.8v-.37a1.09,1.09,0,0,0-.25-.73,1,1,0,0,0-.76-.27,1.14,1.14,0,0,0-.73.23.69.69,0,0,0-.28.56h-1.29a1.5,1.5,0,0,1,.31-.89,2.11,2.11,0,0,1,.86-.65,2.92,2.92,0,0,1,1.2-.24,2.41,2.41,0,0,1,1.61.51,1.85,1.85,0,0,1,.62,1.44v2.62a3.13,3.13,0,0,0,.21,1.25v.09Zm-1.42-.94a1.44,1.44,0,0,0,.72-.19,1.29,1.29,0,0,0,.51-.5V370h-.7a1.87,1.87,0,0,0-1.08.25.8.8,0,0,0-.36.71.76.76,0,0,0,.25.6A1,1,0,0,0,120.39,371.73Z"/><path class="cls-1" d="M126.32,368.78l1.1-1.91h1.43l-1.76,2.86,1.82,2.94h-1.42l-1.15-2-1.14,2h-1.44l1.82-2.94-1.75-2.86h1.42Z"/><path class="cls-1" d="M129.73,365.37a.72.72,0,0,1,.19-.5.73.73,0,0,1,.54-.2.7.7,0,0,1,.54.2.69.69,0,0,1,.2.5.67.67,0,0,1-.74.68.66.66,0,0,1-.73-.68Zm1.38,7.3h-1.3v-5.8h1.3Z"/><path d="M95.66,348.22H94.19V341l-2.18.75v-1.25l3.46-1.29h.19Z"/><path d="M104.53,344.45a4.88,4.88,0,0,1-.72,2.91,2.92,2.92,0,0,1-4.34,0,4.66,4.66,0,0,1-.75-2.83V343a4.79,4.79,0,0,1,.72-2.89,2.51,2.51,0,0,1,2.18-1,2.56,2.56,0,0,1,2.17.94,4.75,4.75,0,0,1,.74,2.82Zm-1.48-1.67a3.74,3.74,0,0,0-.35-1.84,1.15,1.15,0,0,0-1.08-.59,1.18,1.18,0,0,0-1.07.56,3.69,3.69,0,0,0-.36,1.73v2a4,4,0,0,0,.35,1.87,1.16,1.16,0,0,0,1.09.61,1.15,1.15,0,0,0,1.06-.57,3.87,3.87,0,0,0,.36-1.78Z"/><path d="M110.43,341.57l0,.7a2.37,2.37,0,0,1,1.91-.82,1.83,1.83,0,0,1,1.81,1,2.32,2.32,0,0,1,2-1,2,2,0,0,1,1.62.61,2.66,2.66,0,0,1,.55,1.79v4.37H116.9V343.9a1.28,1.28,0,0,0-.28-.93,1.16,1.16,0,0,0-.9-.3,1.19,1.19,0,0,0-.83.28,1.5,1.5,0,0,0-.45.71v4.56H113v-4.37a1.06,1.06,0,0,0-1.19-1.18,1.32,1.32,0,0,0-1.26.73v4.82H109v-6.65Z"/><path d="M119.9,339.85a.77.77,0,0,1,.22-.57.78.78,0,0,1,.62-.23.81.81,0,0,1,.62,1.36.84.84,0,0,1-.62.22.81.81,0,0,1-.62-.22A.76.76,0,0,1,119.9,339.85Zm1.57,8.37H120v-6.65h1.48Z"/><path d="M124.46,341.57l0,.77a2.38,2.38,0,0,1,1.92-.89c1.37,0,2.07.79,2.1,2.38v4.39H127v-4.31a1.36,1.36,0,0,0-.27-.93,1.12,1.12,0,0,0-.89-.31,1.45,1.45,0,0,0-1.34.82v4.73h-1.48v-6.65Z"/><path d="M133.72,346.41a.68.68,0,0,0-.32-.6,3.31,3.31,0,0,0-1.08-.37,5.42,5.42,0,0,1-1.27-.41,1.68,1.68,0,0,1-1.1-1.56,1.75,1.75,0,0,1,.71-1.44,2.81,2.81,0,0,1,1.83-.58,2.94,2.94,0,0,1,1.91.59,1.86,1.86,0,0,1,.73,1.53h-1.48a.93.93,0,0,0-.32-.72,1.2,1.2,0,0,0-.84-.28,1.24,1.24,0,0,0-.79.23.7.7,0,0,0-.31.6.6.6,0,0,0,.29.54,3.81,3.81,0,0,0,1.15.38,5.87,5.87,0,0,1,1.37.46,2.06,2.06,0,0,1,.74.64,1.67,1.67,0,0,1,.24.91,1.75,1.75,0,0,1-.74,1.46,3.11,3.11,0,0,1-1.93.55,3.31,3.31,0,0,1-1.44-.29,2.36,2.36,0,0,1-1-.81,1.92,1.92,0,0,1-.35-1.11h1.43a1.06,1.06,0,0,0,.4.81,1.53,1.53,0,0,0,1,.29,1.5,1.5,0,0,0,.89-.23A.7.7,0,0,0,133.72,346.41Z"/><path d="M139.3,344.84a4,4,0,0,1,.38-1.76,2.84,2.84,0,0,1,1.08-1.21,3,3,0,0,1,1.6-.42,2.84,2.84,0,0,1,2.16.87,3.35,3.35,0,0,1,.9,2.29V345a4,4,0,0,1-.38,1.76,2.72,2.72,0,0,1-1.07,1.2,3,3,0,0,1-1.61.42,2.85,2.85,0,0,1-2.23-.93,3.62,3.62,0,0,1-.84-2.5Zm1.48.12a2.7,2.7,0,0,0,.42,1.61,1.35,1.35,0,0,0,1.17.58,1.34,1.34,0,0,0,1.17-.59,3,3,0,0,0,.41-1.72,2.62,2.62,0,0,0-.43-1.6,1.43,1.43,0,0,0-2.31,0A2.87,2.87,0,0,0,140.78,345Z"/><path d="M148.06,341.57l0,.77a2.38,2.38,0,0,1,1.92-.89c1.37,0,2.07.79,2.09,2.38v4.39h-1.48v-4.31a1.36,1.36,0,0,0-.27-.93,1.1,1.1,0,0,0-.88-.31,1.44,1.44,0,0,0-1.34.82v4.73h-1.48v-6.65Z"/><g id="arrow-2" data-name="arrow"><line class="cls-5" x1="447.75" y1="150" x2="448.05" y2="263.68"/><polygon class="cls-6" points="440.99 259.9 455.11 259.9 447.62 267.45 440.99 259.9"/></g></g></g></g></svg>