<svg xmlns="http://www.w3.org/2000/svg" viewBox="0 0 600 465"><defs><style>.cls-1{fill:#fff;}.cls-2{fill:#6678a8;}.cls-3,.cls-5{fill:none;}.cls-4{fill:#65a4c3;}.cls-5{stroke:#b4d9b9;stroke-miterlimit:10;stroke-width:2px;}.cls-6{fill:#b4d9b9;}</style></defs><title>Oita</title><g id="Layer_2" data-name="Layer 2"><g id="Layer_1-2" data-name="Layer 1"><g id="Oita"><g id="box"><rect class="cls-1" width="600" height="465"/></g><g id="Name_of_Stadium" data-name="Name of Stadium"><rect class="cls-2" x="0.26" y="401.24" width="599.49" height="63.76"/><path class="cls-1" d="M246.69,423.9v-4.5h1.05a5.26,5.26,0,0,0,5.24-5.28,1,1,0,0,0-1-1.05h-6.29a1,1,0,0,0-1,1.05v9.22a70.32,70.32,0,0,0-10.94-1.57c-2-.15-4.08-.23-6.15-.25v-4.23h1.05a5.17,5.17,0,0,0,3.7-1.55A5.27,5.27,0,0,0,233.8,412a1.06,1.06,0,0,0-1.05-1.06h-6.29a1.06,1.06,0,0,0-1.05,1.06v9.51c-2.07,0-4.13.1-6.14.25a70.32,70.32,0,0,0-10.94,1.57V419.4h1a5.17,5.17,0,0,0,3.7-1.55,5.25,5.25,0,0,0,1.54-3.73,1,1,0,0,0-1.05-1.05h-6.29a1,1,0,0,0-1.05,1.05v9.78c-4.38,1.31-6.6,3-6.6,5v19c0,1.61,1.43,3,4.24,4.17,4.52,1.87,11.32,2.71,16.24,3,2.08.13,4.22.2,6.35.2s4.28-.07,6.36-.2c4.86-.31,11.7-1.15,16.24-3,2.81-1.16,4.24-2.56,4.24-4.17v-19C253.3,426.89,251.07,425.21,246.69,423.9Zm0-8.72h4a3.21,3.21,0,0,1-.75,1.18,3.09,3.09,0,0,1-2.22.93h-1.05Zm-19.18-2.11h4a3.21,3.21,0,0,1-.75,1.18,3.09,3.09,0,0,1-2.22.93h-1.05Zm-19.18,2.11h4a3.06,3.06,0,0,1-.74,1.18,3.09,3.09,0,0,1-2.22.93h-1Zm25.83,8.74a69,69,0,0,1,9.3,1.33l-4.65,3.34c-2.16-.3-4.65-.51-7.32-.63Zm-7.7-.3c1.78,0,3.55.05,5.29.14L229,427.87c-1.69,0-3.44,0-5.13,0l-2.72-4.11C222.92,423.67,224.69,423.62,226.46,423.62Zm-7.7.3,2.67,4c-2.66.12-5.16.33-7.32.63l-4.65-3.34A69.18,69.18,0,0,1,218.76,423.92Zm-11.95,2,4.39,3.16a19,19,0,0,0-2.48.68c-.93.33-2.16.89-2.41,2-3.55-1.14-4.58-2.29-4.58-2.82S202.81,427.13,206.81,425.93Zm5.71,26.21c-7.84-1.28-10.79-3.25-10.79-4.24v-3.28a12.83,12.83,0,0,0,2.17,1.11,40.43,40.43,0,0,0,8.62,2.19Zm0-6.35a37.85,37.85,0,0,1-7.83-2c-2.19-.9-3-1.75-3-2.2V438.3a12.14,12.14,0,0,0,2.14,1.1,40.32,40.32,0,0,0,8.65,2.21Zm0-6.32c-7.84-1.28-10.79-3.25-10.79-4.24V432a22.81,22.81,0,0,0,7.21,2.62c1.12.25,2.32.47,3.58.67Zm6.61,13.43c-1.56-.11-3.07-.27-4.51-.46v-4.21c1.44.18,2.95.34,4.51.45Zm.11-6.32c-1.6-.12-3.14-.29-4.62-.48v-4.2c2.17.28,4.47.48,6.84.6l-.11.1A7.38,7.38,0,0,0,219.24,446.58Zm-4.62-6.8v-4.21a94.45,94.45,0,0,0,10.79.71v4.23A91.52,91.52,0,0,1,214.62,439.78ZM231.7,453c-1.38.07-2.78.12-4.19.13V450a1.05,1.05,0,1,0-2.1,0v3.16c-1.4,0-2.81-.06-4.19-.13V447.9a1,1,0,0,1,0-.17,5.24,5.24,0,0,1,10.47,0V453Zm6.61-.6c-1.45.19-2.95.35-4.51.46v-4.22c1.55-.11,3.06-.27,4.51-.45Zm0-6.34c-1.48.19-3,.36-4.63.48a7.37,7.37,0,0,0-2-3.91l-.18-.17c2.36-.12,4.67-.32,6.84-.6v4.2Zm0-6.32a91.69,91.69,0,0,1-10.8.73v-4.23a94.47,94.47,0,0,0,10.8-.71Zm-11.85-5.6a91.11,91.11,0,0,1-12.73-.86c-1.42-.2-2.76-.44-4-.71a.72.72,0,0,0-.2-.09,7,7,0,0,1-.91-.42c2.78-1.52,11.54-2,14.75-2.1,2-.06,4.15-.06,6.17,0a79.32,79.32,0,0,1,9.41.75,17.43,17.43,0,0,1,5.33,1.35,7.18,7.18,0,0,1-1.29.55c-1.19.25-2.47.48-3.8.67A91.15,91.15,0,0,1,226.46,434.18ZM251.2,447.9c0,1-3,3-10.8,4.24v-4.22a40.38,40.38,0,0,0,8.63-2.19,13.23,13.23,0,0,0,2.17-1.11Zm0-6.33c0,.45-.78,1.3-3,2.2a37.79,37.79,0,0,1-7.84,2v-4.18a40.28,40.28,0,0,0,8.66-2.21,12.5,12.5,0,0,0,2.14-1.1Zm0-6.34c0,1-3,3-10.8,4.24v-4.2c3.22-.5,8.09-1.51,10.8-3.29Zm-4.59-3.51c-.25-1.07-1.52-1.64-2.47-2a18.85,18.85,0,0,0-2.41-.66l4.39-3.16c4,1.2,5.08,2.42,5.08,3S250.15,430.59,246.61,431.72Z"/><path class="cls-1" d="M277.13,436.63a6.9,6.9,0,0,1-.59,2.93,4.46,4.46,0,0,1-1.68,1.95,4.94,4.94,0,0,1-5,0,4.46,4.46,0,0,1-1.7-1.93,6.64,6.64,0,0,1-.61-2.89v-.56a6.85,6.85,0,0,1,.6-2.95,4.43,4.43,0,0,1,1.69-1.95,4.94,4.94,0,0,1,5,0,4.43,4.43,0,0,1,1.69,1.95,6.83,6.83,0,0,1,.6,2.94Zm-2.35-.52a4.82,4.82,0,0,0-.63-2.71,2.08,2.08,0,0,0-1.81-.92,2.05,2.05,0,0,0-1.8.91,4.73,4.73,0,0,0-.64,2.68v.56a4.89,4.89,0,0,0,.63,2.69,2.21,2.21,0,0,0,3.62,0,4.74,4.74,0,0,0,.63-2.68Z"/><path class="cls-1" d="M281.28,442H279V430.7h2.32Z"/><path class="cls-1" d="M291.9,432.59h-3.45V442h-2.32v-9.45h-3.4V430.7h9.17Z"/><path class="cls-1" d="M298.64,439.7h-4.06l-.77,2.34h-2.47l4.19-11.34h2.15L301.89,442h-2.47Zm-3.43-1.89H298l-1.42-4.24Z"/><path class="cls-1" d="M312.72,439.06a1.19,1.19,0,0,0-.47-1,5.81,5.81,0,0,0-1.67-.75,12.25,12.25,0,0,1-1.91-.77,3.16,3.16,0,0,1-1.91-2.81,2.75,2.75,0,0,1,.51-1.64,3.37,3.37,0,0,1,1.48-1.13,5.51,5.51,0,0,1,2.16-.4,5,5,0,0,1,2.15.44,3.42,3.42,0,0,1,1.46,1.24,3.23,3.23,0,0,1,.52,1.82h-2.32a1.55,1.55,0,0,0-.48-1.21,2,2,0,0,0-1.37-.43,2.12,2.12,0,0,0-1.32.36,1.13,1.13,0,0,0-.47,1,1.09,1.09,0,0,0,.55.93,6.26,6.26,0,0,0,1.63.7,7.06,7.06,0,0,1,2.88,1.49,3,3,0,0,1,.9,2.21,2.72,2.72,0,0,1-1.1,2.3,4.81,4.81,0,0,1-3,.84,5.69,5.69,0,0,1-2.36-.48A3.71,3.71,0,0,1,307,440.4a3.39,3.39,0,0,1-.56-1.93h2.33c0,1.25.74,1.88,2.22,1.88a2.2,2.2,0,0,0,1.29-.34A1.11,1.11,0,0,0,312.72,439.06Z"/><path class="cls-1" d="M325.08,432.59h-3.45V442h-2.31v-9.45h-3.4V430.7h9.16Z"/><path class="cls-1" d="M331.83,439.7h-4.07L327,442h-2.47l4.19-11.34h2.15L335.07,442h-2.46Zm-3.44-1.89h2.81l-1.41-4.24Z"/><path class="cls-1" d="M336.12,442V430.7h3.47a5.2,5.2,0,0,1,2.65.68,4.68,4.68,0,0,1,1.83,1.91,5.92,5.92,0,0,1,.65,2.82v.52a5.94,5.94,0,0,1-.64,2.81,4.66,4.66,0,0,1-1.82,1.91,5.34,5.34,0,0,1-2.65.69Zm2.32-9.45v7.57h1.12a2.5,2.5,0,0,0,2.08-.9,4,4,0,0,0,.74-2.56v-.6a4.06,4.06,0,0,0-.72-2.61,2.47,2.47,0,0,0-2.07-.9Z"/><path class="cls-1" d="M348.87,442h-2.31V430.7h2.31Z"/><path class="cls-1" d="M359.54,430.7v7.47a3.83,3.83,0,0,1-1.16,2.94,5.16,5.16,0,0,1-6.28,0,3.76,3.76,0,0,1-1.19-2.89V430.7h2.32v7.48a2.2,2.2,0,0,0,.53,1.63,2,2,0,0,0,1.47.51c1.3,0,2-.7,2-2.07V430.7Z"/><path class="cls-1" d="M364.47,430.7l2.89,8.22,2.87-8.22h3V442H371v-3.1l.23-5.35-3,8.45h-1.6l-3-8.44.23,5.34V442h-2.32V430.7Z"/></g><g id="Hanazono"><g id="column_1" data-name="column 1"><rect class="cls-3" x="12.46" y="61.44" width="199.68" height="380.82"/><path class="cls-4" d="M68,71.87H65v8.29H63V71.87H60V70.21H68Z"/><path class="cls-4" d="M77.1,75.41A6.12,6.12,0,0,1,76.59,78a3.94,3.94,0,0,1-1.48,1.71,4.06,4.06,0,0,1-2.2.6,4.13,4.13,0,0,1-2.19-.59,4,4,0,0,1-1.5-1.7,5.88,5.88,0,0,1-.53-2.54V75a6,6,0,0,1,.52-2.58,3.93,3.93,0,0,1,1.49-1.72,4.32,4.32,0,0,1,4.39,0,3.93,3.93,0,0,1,1.49,1.72A6,6,0,0,1,77.1,75ZM75,75a4.23,4.23,0,0,0-.56-2.38,2,2,0,0,0-3.17,0,4.15,4.15,0,0,0-.56,2.36v.48a4.28,4.28,0,0,0,.56,2.37,1.8,1.8,0,0,0,1.6.84,1.78,1.78,0,0,0,1.57-.81A4.18,4.18,0,0,0,75,75.45Z"/><path class="cls-4" d="M81.68,76.17l-1.06,1.15v2.84h-2v-10h2v4.51l.89-1.24L84,70.21h2.51L83,74.63l3.61,5.53H84.22Z"/><path class="cls-4" d="M90.81,74.69l2.06-4.48H95.1l-3.25,6.34v3.61H89.78V76.55l-3.24-6.34h2.23Z"/><path class="cls-4" d="M103.92,75.41A6,6,0,0,1,103.4,78a3.86,3.86,0,0,1-1.47,1.71,4.08,4.08,0,0,1-2.2.6,4.19,4.19,0,0,1-2.2-.59A4,4,0,0,1,96,78a6,6,0,0,1-.54-2.54V75A6,6,0,0,1,96,72.39a3.93,3.93,0,0,1,1.49-1.72,4.32,4.32,0,0,1,4.39,0,3.91,3.91,0,0,1,1.48,1.72,5.83,5.83,0,0,1,.53,2.58ZM101.86,75a4.23,4.23,0,0,0-.56-2.38,2,2,0,0,0-3.17,0,4.15,4.15,0,0,0-.56,2.36v.48a4.28,4.28,0,0,0,.55,2.37,1.83,1.83,0,0,0,1.61.84,1.79,1.79,0,0,0,1.57-.81,4.26,4.26,0,0,0,.56-2.36Z"/><path class="cls-4" d="M114,77.55a1.06,1.06,0,0,0-.41-.89,5.18,5.18,0,0,0-1.47-.66,9.81,9.81,0,0,1-1.67-.68,2.75,2.75,0,0,1-1.69-2.46,2.36,2.36,0,0,1,.46-1.44,3,3,0,0,1,1.29-1,4.8,4.8,0,0,1,1.9-.36,4.44,4.44,0,0,1,1.89.39,3,3,0,0,1,1.28,1.09,2.83,2.83,0,0,1,.46,1.6h-2a1.34,1.34,0,0,0-.42-1.06,1.74,1.74,0,0,0-1.21-.38,1.84,1.84,0,0,0-1.16.32,1,1,0,0,0-.41.83,1,1,0,0,0,.49.82,5.58,5.58,0,0,0,1.42.61,6.18,6.18,0,0,1,2.54,1.31,2.63,2.63,0,0,1,.79,1.94,2.37,2.37,0,0,1-1,2,4.23,4.23,0,0,1-2.61.74,5,5,0,0,1-2.08-.42,3.32,3.32,0,0,1-1.43-1.15,3,3,0,0,1-.49-1.7h2c0,1.1.65,1.65,2,1.65a1.87,1.87,0,0,0,1.13-.3A1,1,0,0,0,114,77.55Z"/><path class="cls-4" d="M124.85,71.87h-3v8.29h-2V71.87h-3V70.21h8Z"/><path class="cls-4" d="M130.77,78.11H127.2l-.68,2h-2.16l3.68-10h1.88l3.7,10h-2.16Zm-3-1.66h2.47L129,72.73Z"/><path class="cls-4" d="M141.17,71.87h-3v8.29h-2V71.87h-3V70.21h8Z"/><path class="cls-4" d="M144.5,80.16h-2v-10h2Z"/><path class="cls-4" d="M154.5,75.41A6.12,6.12,0,0,1,154,78a3.94,3.94,0,0,1-1.48,1.71,4.06,4.06,0,0,1-2.2.6,4.13,4.13,0,0,1-2.19-.59,4,4,0,0,1-1.5-1.7,5.88,5.88,0,0,1-.53-2.54V75a6,6,0,0,1,.52-2.58,3.93,3.93,0,0,1,1.49-1.72,4.32,4.32,0,0,1,4.39,0A3.93,3.93,0,0,1,154,72.39,6,6,0,0,1,154.5,75ZM152.44,75a4.23,4.23,0,0,0-.56-2.38,2,2,0,0,0-3.17,0,4.15,4.15,0,0,0-.56,2.36v.48a4.28,4.28,0,0,0,.56,2.37,1.8,1.8,0,0,0,1.6.84,1.78,1.78,0,0,0,1.57-.81,4.26,4.26,0,0,0,.56-2.36Z"/><path class="cls-4" d="M164,80.16h-2l-4-6.55v6.55h-2v-10h2l4,6.56V70.21h2Z"/><path d="M73.12,97v1.17h-.18a2.83,2.83,0,0,0-1.89.66,2.73,2.73,0,0,0-.84,1.8A2.29,2.29,0,0,1,72,99.87a2.15,2.15,0,0,1,1.76.8,3.15,3.15,0,0,1,.65,2,2.89,2.89,0,0,1-.76,2.09,2.76,2.76,0,0,1-4-.13,3.7,3.7,0,0,1-.79-2.47v-.48a5.22,5.22,0,0,1,1.08-3.5A3.85,3.85,0,0,1,73,97ZM71.61,101a1.5,1.5,0,0,0-.85.26,1.56,1.56,0,0,0-.57.7v.43a2.55,2.55,0,0,0,.4,1.51,1.25,1.25,0,0,0,2,.08,2,2,0,0,0,.36-1.24,2,2,0,0,0-.37-1.26A1.19,1.19,0,0,0,71.61,101Z"/><path d="M79.92,99.87a2.21,2.21,0,0,1,1.74-.8c1.34,0,2,.77,2,2.3v4.13H82.29v-4.07a1.29,1.29,0,0,0-.28-.93,1.17,1.17,0,0,0-.83-.27,1.34,1.34,0,0,0-1.26.76v4.51H78.51v-9h1.41Z"/><path d="M88.4,100.48a3.55,3.55,0,0,0-.57,0,1.3,1.3,0,0,0-1.31.75v4.32h-1.4V99.19h1.34l0,.7a1.6,1.6,0,0,1,1.42-.82,1.41,1.41,0,0,1,.5.08Z"/><path d="M92.81,103.79a.65.65,0,0,0-.31-.58,3.1,3.1,0,0,0-1-.35,5,5,0,0,1-1.2-.39A1.61,1.61,0,0,1,89.21,101a1.67,1.67,0,0,1,.69-1.36,2.65,2.65,0,0,1,1.74-.55,2.81,2.81,0,0,1,1.81.56,1.78,1.78,0,0,1,.69,1.45h-1.4a.88.88,0,0,0-.3-.68,1.17,1.17,0,0,0-.8-.27,1.2,1.2,0,0,0-.76.22.65.65,0,0,0-.29.57.58.58,0,0,0,.27.51,3.94,3.94,0,0,0,1.1.37,5,5,0,0,1,1.3.44,1.7,1.7,0,0,1,.7.61,1.47,1.47,0,0,1,.23.86,1.64,1.64,0,0,1-.7,1.38,3,3,0,0,1-1.84.53,3.32,3.32,0,0,1-1.37-.28,2.33,2.33,0,0,1-.94-.77,1.88,1.88,0,0,1-.34-1.06h1.37a1,1,0,0,0,.38.77,1.76,1.76,0,0,0,1.77.06A.67.67,0,0,0,92.81,103.79Z"/><path d="M99.91,100.6h.86a1.52,1.52,0,0,0,1-.33,1.25,1.25,0,0,0,.38-1,1.32,1.32,0,0,0-.32-.94,1.27,1.27,0,0,0-1-.34,1.37,1.37,0,0,0-.94.33,1.12,1.12,0,0,0-.36.86H98.19A2.18,2.18,0,0,1,98.54,98a2.3,2.3,0,0,1,1-.83,3.11,3.11,0,0,1,1.38-.3,2.86,2.86,0,0,1,2,.64,2.2,2.2,0,0,1,.73,1.77,1.79,1.79,0,0,1-.37,1.08,2.22,2.22,0,0,1-.93.76,2.14,2.14,0,0,1,1.06.75,2.1,2.1,0,0,1,.36,1.23,2.29,2.29,0,0,1-.78,1.82,3,3,0,0,1-2.05.68,3,3,0,0,1-2-.66,2.14,2.14,0,0,1-.78-1.74h1.41a1.17,1.17,0,0,0,.37.91,1.4,1.4,0,0,0,1,.36,1.44,1.44,0,0,0,1-.36,1.31,1.31,0,0,0,.38-1,1.33,1.33,0,0,0-.4-1,1.67,1.67,0,0,0-1.17-.37h-.83Z"/><path d="M110.7,105.5H105v-1l2.81-3.09a7.85,7.85,0,0,0,.87-1.14,1.88,1.88,0,0,0,.25-.92,1.42,1.42,0,0,0-.33-1,1.2,1.2,0,0,0-.92-.38,1.36,1.36,0,0,0-1.06.42,1.67,1.67,0,0,0-.37,1.15h-1.41a2.71,2.71,0,0,1,.35-1.39,2.4,2.4,0,0,1,1-1,3.19,3.19,0,0,1,1.5-.34,2.81,2.81,0,0,1,1.94.62,2.13,2.13,0,0,1,.71,1.72,3,3,0,0,1-.35,1.33,7.54,7.54,0,0,1-1.17,1.58l-2.06,2.23h3.91Z"/><path d="M116.15,99.19l0,.65a2.26,2.26,0,0,1,1.8-.77,1.74,1.74,0,0,1,1.73,1,2.19,2.19,0,0,1,1.92-1,1.91,1.91,0,0,1,1.54.58,2.49,2.49,0,0,1,.52,1.7v4.15h-1.4v-4.11a1.24,1.24,0,0,0-.27-.88,1.11,1.11,0,0,0-.86-.28,1.21,1.21,0,0,0-.79.26,1.36,1.36,0,0,0-.42.68v4.33h-1.4v-4.15a1,1,0,0,0-1.13-1.12,1.23,1.23,0,0,0-1.2.69v4.58h-1.41V99.19Z"/><path d="M125.15,97.54a.76.76,0,0,1,.21-.54.79.79,0,0,1,.59-.21.8.8,0,0,1,.59.21.76.76,0,0,1,.21.54.73.73,0,0,1-.21.54.8.8,0,0,1-.59.21.79.79,0,0,1-.59-.21A.73.73,0,0,1,125.15,97.54Zm1.5,8h-1.41V99.19h1.41Z"/><path d="M129.49,99.19l0,.73a2.22,2.22,0,0,1,1.82-.85c1.31,0,2,.75,2,2.26v4.17h-1.41v-4.09a1.31,1.31,0,0,0-.26-.89,1.08,1.08,0,0,0-.84-.29,1.36,1.36,0,0,0-1.27.78v4.49h-1.41V99.19Z"/><path d="M138.3,103.79a.65.65,0,0,0-.31-.58,3.1,3.1,0,0,0-1-.35,5,5,0,0,1-1.2-.39A1.62,1.62,0,0,1,134.7,101a1.67,1.67,0,0,1,.69-1.36,2.65,2.65,0,0,1,1.74-.55,2.8,2.8,0,0,1,1.81.56,1.76,1.76,0,0,1,.7,1.45h-1.41a.88.88,0,0,0-.3-.68,1.16,1.16,0,0,0-.8-.27,1.22,1.22,0,0,0-.76.22.65.65,0,0,0-.29.57.58.58,0,0,0,.27.51,3.94,3.94,0,0,0,1.1.37,5,5,0,0,1,1.3.44,1.7,1.7,0,0,1,.7.61,1.47,1.47,0,0,1,.23.86,1.64,1.64,0,0,1-.7,1.38,3,3,0,0,1-1.84.53,3.32,3.32,0,0,1-1.37-.28,2.4,2.4,0,0,1-.94-.77,1.87,1.87,0,0,1-.33-1.06h1.36a1,1,0,0,0,.38.77,1.76,1.76,0,0,0,1.77.06A.67.67,0,0,0,138.3,103.79Z"/><path d="M143.6,102.29a3.7,3.7,0,0,1,.37-1.68,2.64,2.64,0,0,1,1-1.14,2.85,2.85,0,0,1,1.52-.4,2.72,2.72,0,0,1,2.06.82,3.23,3.23,0,0,1,.85,2.18v.34a3.76,3.76,0,0,1-.36,1.67,2.49,2.49,0,0,1-1,1.13,2.87,2.87,0,0,1-1.53.41,2.72,2.72,0,0,1-2.12-.89,3.45,3.45,0,0,1-.8-2.37Zm1.41.12a2.5,2.5,0,0,0,.4,1.52,1.3,1.3,0,0,0,1.11.56,1.27,1.27,0,0,0,1.11-.57,2.76,2.76,0,0,0,.4-1.63,2.54,2.54,0,0,0-.41-1.52,1.38,1.38,0,0,0-2.21,0A2.79,2.79,0,0,0,145,102.41Z"/><path d="M151.93,99.19l0,.73a2.23,2.23,0,0,1,1.83-.85c1.3,0,2,.75,2,2.26v4.17h-1.41v-4.09a1.26,1.26,0,0,0-.26-.89,1.08,1.08,0,0,0-.84-.29A1.36,1.36,0,0,0,152,101v4.49H150.6V99.19Z"/><rect class="cls-4" x="43.66" y="149.43" width="137.28" height="31.42"/><path class="cls-1" d="M68.9,160.37h1.34v5.46a2.34,2.34,0,0,1-.69,1.78,2.57,2.57,0,0,1-1.83.66,2.64,2.64,0,0,1-1.87-.62,2.22,2.22,0,0,1-.66-1.71h1.34a1.3,1.3,0,0,0,.3.93,1.2,1.2,0,0,0,.89.32,1.1,1.1,0,0,0,.86-.37,1.45,1.45,0,0,0,.32-1Z"/><path class="cls-1" d="M74.62,165.16h-1.5v3H71.78v-7.79H74.5a3.14,3.14,0,0,1,2.06.6,2.15,2.15,0,0,1,.73,1.75,2.18,2.18,0,0,1-.37,1.31,2.35,2.35,0,0,1-1,.82l1.74,3.24v.07H76.17Zm-1.5-1.09H74.5a1.52,1.52,0,0,0,1.06-.34,1.21,1.21,0,0,0,.39-.95,1.28,1.28,0,0,0-.36-1,1.47,1.47,0,0,0-1-.35H73.12Z"/><path class="cls-1" d="M87.41,168.16H86.07l-3.45-5.53v5.53H81.27v-7.79h1.35l3.46,5.55v-5.55h1.33Z"/><path class="cls-1" d="M88.88,160.87a.68.68,0,0,1,.19-.5.69.69,0,0,1,.53-.2.74.74,0,0,1,.55.2.74.74,0,0,1,0,1,.74.74,0,0,1-.55.19.69.69,0,0,1-.53-.19A.67.67,0,0,1,88.88,160.87Zm1.37,7.29H89v-5.79h1.29Z"/><path class="cls-1" d="M96.69,165.32a3.52,3.52,0,0,1-.61,2.15,2.09,2.09,0,0,1-3.14.17v2.74H91.65v-8h1.19l0,.59a1.89,1.89,0,0,1,1.55-.7,2,2,0,0,1,1.65.79,3.56,3.56,0,0,1,.6,2.19Zm-1.29-.11a2.37,2.37,0,0,0-.34-1.37,1.12,1.12,0,0,0-1-.51,1.19,1.19,0,0,0-1.14.66v2.56a1.2,1.2,0,0,0,1.15.68,1.11,1.11,0,0,0,1-.5A2.63,2.63,0,0,0,95.4,165.21Z"/><path class="cls-1" d="M102.81,165.32a3.51,3.51,0,0,1-.6,2.15,2,2,0,0,1-1.63.8,1.93,1.93,0,0,1-1.51-.63v2.74H97.78v-8H99l0,.59a1.87,1.87,0,0,1,1.55-.7,1.94,1.94,0,0,1,1.64.79,3.56,3.56,0,0,1,.6,2.19Zm-1.28-.11a2.37,2.37,0,0,0-.35-1.37,1.1,1.1,0,0,0-1-.51,1.18,1.18,0,0,0-1.13.66v2.56a1.19,1.19,0,0,0,1.14.68,1.11,1.11,0,0,0,1-.5A2.71,2.71,0,0,0,101.53,165.21Z"/><path class="cls-1" d="M103.66,165.21a3.31,3.31,0,0,1,.34-1.53,2.35,2.35,0,0,1,.94-1.05,2.58,2.58,0,0,1,1.39-.37,2.47,2.47,0,0,1,1.89.76,3,3,0,0,1,.78,2v.3a3.44,3.44,0,0,1-.33,1.53,2.5,2.5,0,0,1-.93,1.05,2.74,2.74,0,0,1-1.41.37,2.51,2.51,0,0,1-2-.82,3.16,3.16,0,0,1-.73-2.17Zm1.29.11a2.38,2.38,0,0,0,.37,1.4,1.19,1.19,0,0,0,1,.51,1.16,1.16,0,0,0,1-.52,2.59,2.59,0,0,0,.36-1.5,2.31,2.31,0,0,0-.37-1.39,1.2,1.2,0,0,0-1-.51,1.16,1.16,0,0,0-1,.5A2.53,2.53,0,0,0,105,165.32Z"/><path class="cls-1" d="M114.68,160.37l2.23,6,2.22-6h1.74v7.79h-1.34v-2.57l.14-3.43-2.29,6h-1l-2.28-6,.13,3.43v2.57h-1.34v-7.79Z"/><path class="cls-1" d="M125.77,168.16a1.8,1.8,0,0,1-.15-.54,2.15,2.15,0,0,1-2.92.15,1.58,1.58,0,0,1-.55-1.23,1.65,1.65,0,0,1,.68-1.42,3.32,3.32,0,0,1,2-.5h.79v-.38a1,1,0,0,0-.25-.72,1,1,0,0,0-.76-.27,1.14,1.14,0,0,0-.72.22.7.7,0,0,0-.29.57h-1.29a1.43,1.43,0,0,1,.32-.89,2.08,2.08,0,0,1,.85-.65,2.92,2.92,0,0,1,1.2-.24,2.39,2.39,0,0,1,1.61.51,1.83,1.83,0,0,1,.62,1.44v2.61a2.92,2.92,0,0,0,.22,1.25v.09Zm-1.42-.94a1.48,1.48,0,0,0,.72-.18,1.32,1.32,0,0,0,.51-.51v-1.09h-.7a2,2,0,0,0-1.08.25.83.83,0,0,0-.36.71.76.76,0,0,0,.25.6A.92.92,0,0,0,124.35,167.22Z"/><path class="cls-1" d="M128.22,160.87a.72.72,0,0,1,.19-.5.73.73,0,0,1,.54-.2.7.7,0,0,1,.54.2.68.68,0,0,1,.19.5.67.67,0,0,1-.19.49.7.7,0,0,1-.54.19.73.73,0,0,1-.54-.19A.71.71,0,0,1,128.22,160.87Zm1.37,7.29H128.3v-5.79h1.29Z"/><path class="cls-1" d="M132.2,162.37l0,.67a2.08,2.08,0,0,1,1.68-.78c1.2,0,1.8.69,1.83,2.07v3.83h-1.3v-3.75a1.2,1.2,0,0,0-.23-.82,1,1,0,0,0-.77-.26,1.25,1.25,0,0,0-1.17.71v4.12H131v-5.79Z"/><path class="cls-1" d="M141.23,167.08h3.51v1.08h-4.86v-7.79h1.35Z"/><path class="cls-1" d="M145.65,160.87a.68.68,0,0,1,.19-.5.7.7,0,0,1,.54-.2.73.73,0,0,1,.54.2.68.68,0,0,1,.19.5.67.67,0,0,1-.19.49.73.73,0,0,1-.54.19.7.7,0,0,1-.54-.19A.67.67,0,0,1,145.65,160.87Zm1.37,7.29h-1.29v-5.79H147Z"/><path class="cls-1" d="M149.62,162.37l0,.67a2.06,2.06,0,0,1,1.68-.78c1.19,0,1.8.69,1.82,2.07v3.83h-1.29v-3.75a1.2,1.2,0,0,0-.24-.82,1,1,0,0,0-.77-.26,1.22,1.22,0,0,0-1.16.71v4.12h-1.29v-5.79Z"/><path class="cls-1" d="M157,168.27a2.66,2.66,0,0,1-2-.78,2.83,2.83,0,0,1-.76-2.08v-.16a3.48,3.48,0,0,1,.33-1.54,2.56,2.56,0,0,1,.93-1.07,2.49,2.49,0,0,1,1.34-.38,2.22,2.22,0,0,1,1.81.76,3.17,3.17,0,0,1,.64,2.13v.53h-3.75a1.8,1.8,0,0,0,.47,1.13,1.42,1.42,0,0,0,1.05.42,1.75,1.75,0,0,0,1.45-.72l.69.66a2.26,2.26,0,0,1-.92.81A2.85,2.85,0,0,1,157,168.27Zm-.16-5a1.06,1.06,0,0,0-.85.37,1.94,1.94,0,0,0-.42,1H158v-.09a1.54,1.54,0,0,0-.35-1A1.08,1.08,0,0,0,156.85,163.31Z"/><rect class="cls-4" x="43.66" y="111.72" width="137.28" height="31.42"/><path class="cls-1" d="M59.8,123h1.34v5.46a2.36,2.36,0,0,1-.69,1.78,2.57,2.57,0,0,1-1.83.65,2.63,2.63,0,0,1-1.87-.61,2.22,2.22,0,0,1-.66-1.71h1.34a1.3,1.3,0,0,0,.3.93,1.19,1.19,0,0,0,.89.31,1.09,1.09,0,0,0,.86-.36,1.42,1.42,0,0,0,.32-1Z"/><path class="cls-1" d="M65.52,127.74H64v3H62.68V123H65.4a3.14,3.14,0,0,1,2.06.6,2.15,2.15,0,0,1,.73,1.75,2.2,2.2,0,0,1-.37,1.31,2.4,2.4,0,0,1-1,.81l1.74,3.25v.07H67.07ZM64,126.65H65.4a1.5,1.5,0,0,0,1.06-.35,1.19,1.19,0,0,0,.39-.94,1.28,1.28,0,0,0-.36-1,1.43,1.43,0,0,0-1-.35H64Z"/><path class="cls-1" d="M77.45,124H75v6.7H73.7V124H71.31V123h6.14Z"/><path class="cls-1" d="M77,127.79a3.44,3.44,0,0,1,.33-1.53,2.47,2.47,0,0,1,.94-1.05,2.62,2.62,0,0,1,1.4-.37,2.53,2.53,0,0,1,1.89.75,3,3,0,0,1,.78,2v.3a3.58,3.58,0,0,1-.32,1.53,2.38,2.38,0,0,1-.94,1,2.59,2.59,0,0,1-1.4.37,2.51,2.51,0,0,1-2-.81,3.14,3.14,0,0,1-.73-2.18Zm1.29.11a2.31,2.31,0,0,0,.37,1.4,1.27,1.27,0,0,0,2,0,2.52,2.52,0,0,0,.37-1.5,2.29,2.29,0,0,0-.38-1.39,1.17,1.17,0,0,0-1-.52,1.18,1.18,0,0,0-1,.51A2.53,2.53,0,0,0,78.28,127.9Z"/><path class="cls-1" d="M85.29,128.25l-.57.6v1.89H83.43v-8.22h1.29v4.74l.4-.51,1.59-1.8h1.55l-2.13,2.41,2.36,3.38H87Z"/><path class="cls-1" d="M92.54,130.74a1.8,1.8,0,0,1-.15-.54,2.18,2.18,0,0,1-2.92.15,1.61,1.61,0,0,1-.55-1.23,1.67,1.67,0,0,1,.68-1.43,3.4,3.4,0,0,1,2-.49h.79v-.38a1,1,0,0,0-.25-.72,1,1,0,0,0-.76-.27,1.11,1.11,0,0,0-.72.22.69.69,0,0,0-.28.57H89a1.43,1.43,0,0,1,.32-.89,2,2,0,0,1,.85-.65,2.92,2.92,0,0,1,1.2-.24,2.39,2.39,0,0,1,1.61.51,1.83,1.83,0,0,1,.62,1.44v2.61a3,3,0,0,0,.22,1.25v.09Zm-1.42-.94a1.39,1.39,0,0,0,.72-.19,1.17,1.17,0,0,0,.51-.5V128h-.7a1.87,1.87,0,0,0-1.08.25.81.81,0,0,0-.36.71.79.79,0,0,0,.25.6A.92.92,0,0,0,91.12,129.8Z"/><path class="cls-1" d="M95,123.44a.67.67,0,0,1,.73-.69.69.69,0,0,1,.54,1.18.7.7,0,0,1-.54.2.73.73,0,0,1-.54-.2A.7.7,0,0,1,95,123.44Zm1.38,7.3h-1.3V125h1.3Z"/><path class="cls-1" d="M97.53,127.8a3.41,3.41,0,0,1,.62-2.15,2,2,0,0,1,1.65-.81,1.84,1.84,0,0,1,1.47.64v-3h1.3v8.22H101.4l-.07-.6a1.88,1.88,0,0,1-1.54.7,2,2,0,0,1-1.64-.81A3.64,3.64,0,0,1,97.53,127.8Zm1.29.11a2.39,2.39,0,0,0,.34,1.38,1.08,1.08,0,0,0,1,.49,1.2,1.2,0,0,0,1.15-.71V126.6a1.2,1.2,0,0,0-1.14-.7,1.11,1.11,0,0,0-1,.5A2.7,2.7,0,0,0,98.82,127.91Z"/><path class="cls-1" d="M103.67,127.79a3.31,3.31,0,0,1,.34-1.53,2.35,2.35,0,0,1,.94-1.05,2.56,2.56,0,0,1,1.39-.37,2.53,2.53,0,0,1,1.89.75,3,3,0,0,1,.78,2v.3a3.44,3.44,0,0,1-.33,1.53,2.38,2.38,0,0,1-.94,1,2.59,2.59,0,0,1-1.4.37,2.51,2.51,0,0,1-1.95-.81,3.14,3.14,0,0,1-.73-2.18Zm1.29.11a2.31,2.31,0,0,0,.37,1.4,1.17,1.17,0,0,0,1,.5,1.2,1.2,0,0,0,1-.51,2.59,2.59,0,0,0,.36-1.5,2.36,2.36,0,0,0-.37-1.39,1.26,1.26,0,0,0-2,0A2.6,2.6,0,0,0,105,127.9Z"/><path class="cls-1" d="M117,128.73a1,1,0,0,0-.35-.79,4.2,4.2,0,0,0-1.3-.56,6,6,0,0,1-1.49-.64,2,2,0,0,1-1-1.74,1.89,1.89,0,0,1,.76-1.55,3.06,3.06,0,0,1,2-.61,3.31,3.31,0,0,1,1.44.3,2.35,2.35,0,0,1,1,.85,2.21,2.21,0,0,1,.36,1.23H117a1.21,1.21,0,0,0-.38-1,1.59,1.59,0,0,0-1.08-.34,1.66,1.66,0,0,0-1,.28,1,1,0,0,0-.36.8.86.86,0,0,0,.39.71,4.69,4.69,0,0,0,1.3.56,5.9,5.9,0,0,1,1.45.61,2.32,2.32,0,0,1,.8.79,2.1,2.1,0,0,1,.26,1,1.88,1.88,0,0,1-.74,1.55,3.24,3.24,0,0,1-2,.57,3.77,3.77,0,0,1-1.55-.31,2.64,2.64,0,0,1-1.09-.86,2.19,2.19,0,0,1-.39-1.29h1.34a1.27,1.27,0,0,0,.44,1,1.9,1.9,0,0,0,1.25.36,1.66,1.66,0,0,0,1-.28A.92.92,0,0,0,117,128.73Z"/><path class="cls-1" d="M120.66,125.58a2,2,0,0,1,1.59-.74c1.23,0,1.85.7,1.87,2.11v3.79h-1.29V127a1.17,1.17,0,0,0-.26-.85,1.07,1.07,0,0,0-.76-.25,1.24,1.24,0,0,0-1.15.7v4.14h-1.3v-8.22h1.3Z"/><path class="cls-1" d="M125.43,123.44a.66.66,0,0,1,.72-.69.7.7,0,0,1,.55.2.73.73,0,0,1,0,1,.74.74,0,0,1-.55.2.73.73,0,0,1-.54-.2A.69.69,0,0,1,125.43,123.44Zm1.37,7.3h-1.29V125h1.29Z"/><path class="cls-1" d="M129.4,125l0,.67a2,2,0,0,1,1.67-.78q1.8,0,1.83,2.07v3.83h-1.29V127a1.2,1.2,0,0,0-.24-.82,1,1,0,0,0-.77-.27,1.26,1.26,0,0,0-1.17.72v4.12h-1.29V125Z"/><path class="cls-1" d="M136.12,128.25l-.57.6v1.89h-1.29v-8.22h1.29v4.74l.4-.51,1.59-1.8h1.55L137,127.36l2.36,3.38h-1.49Z"/><path class="cls-1" d="M143.37,130.74a1.8,1.8,0,0,1-.15-.54,2.18,2.18,0,0,1-2.92.15,1.61,1.61,0,0,1-.55-1.23,1.67,1.67,0,0,1,.68-1.43,3.38,3.38,0,0,1,1.95-.49h.8v-.38a1,1,0,0,0-.25-.72,1,1,0,0,0-.76-.27,1.13,1.13,0,0,0-.73.22.72.72,0,0,0-.28.57h-1.29a1.43,1.43,0,0,1,.32-.89,1.94,1.94,0,0,1,.85-.65,2.92,2.92,0,0,1,1.2-.24,2.41,2.41,0,0,1,1.61.51,1.83,1.83,0,0,1,.62,1.44v2.61a3,3,0,0,0,.22,1.25v.09ZM142,129.8a1.44,1.44,0,0,0,.72-.19,1.29,1.29,0,0,0,.51-.5V128h-.7a1.87,1.87,0,0,0-1.08.25.81.81,0,0,0-.36.71.76.76,0,0,0,.25.6A.92.92,0,0,0,142,129.8Z"/><path class="cls-1" d="M147,125l0,.67a2.08,2.08,0,0,1,1.68-.78q1.8,0,1.83,2.07v3.83h-1.3V127a1.2,1.2,0,0,0-.23-.82,1,1,0,0,0-.77-.27,1.26,1.26,0,0,0-1.17.72v4.12H145.8V125Z"/><path class="cls-1" d="M155.09,129.16a.59.59,0,0,0-.28-.53,3.34,3.34,0,0,0-.94-.32,4.75,4.75,0,0,1-1.1-.35,1.47,1.47,0,0,1-1-1.37,1.56,1.56,0,0,1,.63-1.25,2.48,2.48,0,0,1,1.59-.5,2.55,2.55,0,0,1,1.66.51,1.64,1.64,0,0,1,.64,1.34H155a.81.81,0,0,0-.28-.63,1.08,1.08,0,0,0-.73-.25,1.13,1.13,0,0,0-.69.2.62.62,0,0,0-.27.53.53.53,0,0,0,.25.47,3.29,3.29,0,0,0,1,.33,5,5,0,0,1,1.19.4,1.7,1.7,0,0,1,.64.56,1.43,1.43,0,0,1,.21.79,1.5,1.5,0,0,1-.64,1.27,2.74,2.74,0,0,1-1.68.48,2.92,2.92,0,0,1-1.26-.25,2,2,0,0,1-.86-.71,1.65,1.65,0,0,1-.31-1h1.25a.89.89,0,0,0,.35.71,1.29,1.29,0,0,0,.84.25,1.32,1.32,0,0,0,.78-.2A.62.62,0,0,0,155.09,129.16Z"/><path class="cls-1" d="M160,130.84a2.66,2.66,0,0,1-2-.78,2.79,2.79,0,0,1-.76-2.07v-.16a3.53,3.53,0,0,1,.33-1.55,2.53,2.53,0,0,1,.93-1.06,2.49,2.49,0,0,1,1.34-.38,2.24,2.24,0,0,1,1.81.75,3.22,3.22,0,0,1,.64,2.14v.52h-3.75a1.8,1.8,0,0,0,.47,1.14,1.42,1.42,0,0,0,1.05.41,1.75,1.75,0,0,0,1.45-.72l.69.67a2.26,2.26,0,0,1-.92.81A2.84,2.84,0,0,1,160,130.84Zm-.16-5a1.07,1.07,0,0,0-.85.38,1.94,1.94,0,0,0-.42,1h2.46v-.09a1.54,1.54,0,0,0-.35-1A1.05,1.05,0,0,0,159.86,125.88Z"/><path class="cls-1" d="M164.52,125l0,.67a2.06,2.06,0,0,1,1.67-.78q1.8,0,1.83,2.07v3.83h-1.29V127a1.2,1.2,0,0,0-.24-.82,1,1,0,0,0-.77-.27,1.23,1.23,0,0,0-1.16.72v4.12h-1.29V125Z"/></g><g id="Getting_There_Title" data-name="Getting There Title"><rect class="cls-2" x="0.26" width="599.49" height="64.75"/><path class="cls-1" d="M174.17,36.81a5.58,5.58,0,0,1-2.44,1.61,10.16,10.16,0,0,1-3.48.57,6.88,6.88,0,0,1-3.53-.88,5.88,5.88,0,0,1-2.34-2.56,9.16,9.16,0,0,1-.84-3.95V30.54a9.67,9.67,0,0,1,.78-4,5.77,5.77,0,0,1,2.25-2.61A6.52,6.52,0,0,1,168,23a6.46,6.46,0,0,1,4.31,1.32,5.66,5.66,0,0,1,1.84,3.84h-3.11a3.05,3.05,0,0,0-.94-1.95,2.94,2.94,0,0,0-2-.62,2.84,2.84,0,0,0-2.48,1.23,6.57,6.57,0,0,0-.86,3.65v1a6.15,6.15,0,0,0,.93,3.7,3.14,3.14,0,0,0,2.71,1.26,3.5,3.5,0,0,0,2.56-.78V33h-2.9V30.59h6.09Z"/><path class="cls-1" d="M186.3,32h-6.13V36.2h7.19v2.58H177V23.2h10.35v2.6h-7.17v3.71h6.13Z"/><path class="cls-1" d="M201.38,25.8h-4.74v13h-3.19v-13h-4.68V23.2h12.61Z"/><path class="cls-1" d="M215.38,25.8h-4.74v13h-3.19v-13h-4.68V23.2h12.61Z"/><path class="cls-1" d="M220.54,38.78h-3.19V23.2h3.19Z"/><path class="cls-1" d="M236.24,38.78h-3.19l-6.21-10.25V38.78h-3.19V23.2h3.19l6.22,10.27V23.2h3.18Z"/><path class="cls-1" d="M251.39,36.81A5.49,5.49,0,0,1,249,38.42a10.18,10.18,0,0,1-3.49.57,6.84,6.84,0,0,1-3.52-.88,5.88,5.88,0,0,1-2.34-2.56,9,9,0,0,1-.84-3.95V30.54a9.67,9.67,0,0,1,.78-4,5.77,5.77,0,0,1,2.25-2.61,7.39,7.39,0,0,1,7.75.42,5.62,5.62,0,0,1,1.84,3.84h-3.1a3.1,3.1,0,0,0-.94-1.95,3,3,0,0,0-2-.62,2.82,2.82,0,0,0-2.47,1.23,6.41,6.41,0,0,0-.86,3.65v1a6.23,6.23,0,0,0,.92,3.7,3.15,3.15,0,0,0,2.71,1.26,3.48,3.48,0,0,0,2.56-.78V33h-2.9V30.59h6.09Z"/><path class="cls-1" d="M271.26,25.8h-4.74v13h-3.19v-13h-4.67V23.2h12.6Z"/><path class="cls-1" d="M285.52,31.34a9.46,9.46,0,0,1-.81,4,6.17,6.17,0,0,1-2.31,2.67,6.8,6.8,0,0,1-6.88,0,6.09,6.09,0,0,1-2.34-2.66,9.23,9.23,0,0,1-.84-4v-.77a9.36,9.36,0,0,1,.82-4.05,6.21,6.21,0,0,1,2.33-2.69,6.83,6.83,0,0,1,6.88,0,6.13,6.13,0,0,1,2.32,2.69,9.34,9.34,0,0,1,.83,4Zm-3.23-.7a6.61,6.61,0,0,0-.87-3.73,3.07,3.07,0,0,0-5,0,6.51,6.51,0,0,0-.88,3.68v.76a6.66,6.66,0,0,0,.87,3.7,3,3,0,0,0,5,.05,6.65,6.65,0,0,0,.87-3.69Z"/><path class="cls-1" d="M305.12,25.8h-4.74v13h-3.19v-13h-4.67V23.2h12.6Z"/><path class="cls-1" d="M319.58,38.78h-3.19V32.1h-6.22v6.68H307V23.2h3.18v6.31h6.22V23.2h3.19Z"/><path class="cls-1" d="M331.93,32h-6.12V36.2H333v2.58H322.62V23.2H333v2.6h-7.16v3.71h6.12Z"/><path class="cls-1" d="M348.53,34.69a1.66,1.66,0,0,0-.64-1.39,8.2,8.2,0,0,0-2.3-1A16,16,0,0,1,343,31.2a4.31,4.31,0,0,1-2.64-3.86,3.79,3.79,0,0,1,.71-2.25,4.62,4.62,0,0,1,2-1.55,7.6,7.6,0,0,1,3-.55,6.94,6.94,0,0,1,2.95.6,4.66,4.66,0,0,1,2,1.71,4.46,4.46,0,0,1,.72,2.5h-3.19a2.12,2.12,0,0,0-.67-1.66,2.74,2.74,0,0,0-1.88-.6,2.94,2.94,0,0,0-1.82.5,1.58,1.58,0,0,0-.65,1.31,1.49,1.49,0,0,0,.76,1.27,8.3,8.3,0,0,0,2.24,1,9.7,9.7,0,0,1,4,2,4.1,4.1,0,0,1,1.25,3,3.75,3.75,0,0,1-1.52,3.17,6.63,6.63,0,0,1-4.1,1.15,7.83,7.83,0,0,1-3.25-.65,5.16,5.16,0,0,1-2.24-1.81,4.66,4.66,0,0,1-.77-2.65h3.2q0,2.58,3.06,2.58a3,3,0,0,0,1.78-.47A1.53,1.53,0,0,0,348.53,34.69Z"/><path class="cls-1" d="M365.73,25.8H361v13H357.8v-13h-4.67V23.2h12.6Z"/><path class="cls-1" d="M374.61,35.57H369L368,38.78h-3.39l5.76-15.58h3l5.79,15.58h-3.39ZM369.88,33h3.87l-1.95-5.83Z"/><path class="cls-1" d="M380.75,38.78V23.2h4.76a7.25,7.25,0,0,1,3.65.92,6.46,6.46,0,0,1,2.51,2.64,8.08,8.08,0,0,1,.91,3.88v.71a8.24,8.24,0,0,1-.89,3.87,6.44,6.44,0,0,1-2.5,2.62,7.32,7.32,0,0,1-3.65.94Zm3.19-13V36.2h1.54A3.47,3.47,0,0,0,388.34,35a5.61,5.61,0,0,0,1-3.52v-.82a5.66,5.66,0,0,0-1-3.6,3.44,3.44,0,0,0-2.86-1.23Z"/><path class="cls-1" d="M398.34,38.78h-3.19V23.2h3.19Z"/><path class="cls-1" d="M413.22,23.2V33.46a5.27,5.27,0,0,1-1.59,4A6.08,6.08,0,0,1,407.29,39a6.18,6.18,0,0,1-4.3-1.44,5.16,5.16,0,0,1-1.63-4V23.2h3.19V33.48a3,3,0,0,0,.73,2.23,2.77,2.77,0,0,0,2,.71q2.7,0,2.73-2.85V23.2Z"/><path class="cls-1" d="M420.31,23.2l4,11.3,4-11.3h4.19V38.78h-3.2V34.52l.32-7.35-4.18,11.61h-2.19L419,27.18l.32,7.34v4.26h-3.19V23.2Z"/></g><g id="column_2" data-name="column 2"><rect class="cls-3" x="342.95" y="61.44" width="199.68" height="380.82"/><path class="cls-4" d="M326.06,80.63h-2.22V76.37h-4.33v4.26H317.3V70.68h2.21v4h4.33v-4h2.22Z"/><path class="cls-4" d="M334.2,78.58h-3.89l-.74,2h-2.35l4-9.95h2.06l4,9.95H335Zm-3.29-1.66h2.69l-1.35-3.73Z"/><path class="cls-4" d="M347.07,80.63h-2.22l-4.32-6.55v6.55h-2.22V70.68h2.22l4.33,6.56V70.68h2.21Z"/><path class="cls-4" d="M355.48,76.32h-4.26V79h5v1.65H349V70.68h7.2v1.66h-5v2.37h4.26Z"/><path class="cls-4" d="M357.52,80.63V70.68h3.31a5.41,5.41,0,0,1,2.54.59A4.23,4.23,0,0,1,365.12,73a4.87,4.87,0,0,1,.63,2.48v.46a4.89,4.89,0,0,1-.62,2.46A4.27,4.27,0,0,1,363.39,80a5.29,5.29,0,0,1-2.54.6Zm2.22-8.29V79h1.07a2.51,2.51,0,0,0,2-.78,3.38,3.38,0,0,0,.7-2.25v-.53a3.43,3.43,0,0,0-.68-2.3,2.5,2.5,0,0,0-2-.78Z"/><path class="cls-4" d="M373.44,78.58h-3.89l-.74,2h-2.36l4-9.95h2.05l4,9.95h-2.36Zm-3.29-1.66h2.69l-1.36-3.73Z"/><path class="cls-4" d="M387.39,78.58H383.5l-.73,2h-2.36l4-9.95h2.06l4,9.95h-2.36Zm-3.29-1.66h2.7l-1.36-3.73Z"/><path class="cls-4" d="M393.86,80.63h-2.22V70.68h2.22Z"/><path class="cls-4" d="M399.9,77h-1.77v3.64h-2.21V70.68h4a4.81,4.81,0,0,1,2.94.78,2.64,2.64,0,0,1,1,2.23,2.83,2.83,0,0,1-.47,1.69A3.19,3.19,0,0,1,402,76.47l2.33,4.07v.09h-2.38Zm-1.77-1.66h1.79a1.91,1.91,0,0,0,1.3-.4,1.36,1.36,0,0,0,.46-1.08,1.45,1.45,0,0,0-.44-1.11,1.86,1.86,0,0,0-1.32-.4h-1.79Z"/><path class="cls-4" d="M407.8,77.12v3.51h-2.22V70.68h4.2a5.06,5.06,0,0,1,2.13.41,3.22,3.22,0,0,1,1.42,1.16,3.09,3.09,0,0,1,.49,1.72,2.77,2.77,0,0,1-1.08,2.31,4.78,4.78,0,0,1-3,.84Zm0-1.66h2a2,2,0,0,0,1.34-.38,1.34,1.34,0,0,0,.46-1.09,1.58,1.58,0,0,0-.46-1.19,1.83,1.83,0,0,0-1.29-.46h-2Z"/><path class="cls-4" d="M424.19,75.88a5.7,5.7,0,0,1-.56,2.58A4.09,4.09,0,0,1,422,80.17a5.08,5.08,0,0,1-4.79,0,4.05,4.05,0,0,1-1.63-1.7,5.56,5.56,0,0,1-.58-2.54v-.49a5.57,5.57,0,0,1,.57-2.58,4.08,4.08,0,0,1,1.62-1.72,5.08,5.08,0,0,1,4.79,0,4.06,4.06,0,0,1,1.61,1.72,5.45,5.45,0,0,1,.58,2.58Zm-2.25-.45a3.89,3.89,0,0,0-.61-2.38,2.25,2.25,0,0,0-3.45,0,3.9,3.9,0,0,0-.61,2.35v.49a4.05,4.05,0,0,0,.6,2.37,2,2,0,0,0,1.75.84,2,2,0,0,0,1.71-.81,3.94,3.94,0,0,0,.61-2.37Z"/><path class="cls-4" d="M429.78,77H428v3.64H425.8V70.68h4a4.81,4.81,0,0,1,2.94.78,2.65,2.65,0,0,1,1,2.23,2.84,2.84,0,0,1-.48,1.69,3.19,3.19,0,0,1-1.45,1.09l2.33,4.07v.09H431.8ZM428,75.33h1.79a1.9,1.9,0,0,0,1.29-.4,1.33,1.33,0,0,0,.46-1.08,1.48,1.48,0,0,0-.43-1.11,1.91,1.91,0,0,0-1.33-.4H428Z"/><path class="cls-4" d="M443.19,72.34H439.9v8.29h-2.22V72.34h-3.25V70.68h8.76Z"/><path class="cls-4" d="M445,81.49H443.4l4-10.81H449Z"/><path class="cls-4" d="M458.87,80.63h-2.22l-4.32-6.55v6.55h-2.22V70.68h2.22l4.33,6.56V70.68h2.21Z"/><path class="cls-4" d="M466.88,78.58H463l-.74,2h-2.36l4-9.95H466l4,9.95h-2.36Zm-3.29-1.66h2.69l-1.35-3.73Z"/><path class="cls-4" d="M475,77h-1.77v3.64H471V70.68h4a4.81,4.81,0,0,1,2.94.78,2.65,2.65,0,0,1,1,2.23,2.84,2.84,0,0,1-.48,1.69,3.21,3.21,0,0,1-1.44,1.09l2.33,4.07v.09H477Zm-1.77-1.66H475a1.88,1.88,0,0,0,1.29-.4,1.33,1.33,0,0,0,.46-1.08,1.44,1.44,0,0,0-.43-1.11,1.89,1.89,0,0,0-1.33-.4h-1.78Z"/><path class="cls-4" d="M483,80.63h-2.22V70.68H483Z"/><path class="cls-4" d="M493.17,72.34h-3.3v8.29h-2.22V72.34H484.4V70.68h8.77Z"/><path class="cls-4" d="M499.62,78.58h-3.89l-.73,2h-2.36l4-9.95h2.06l4,9.95h-2.36Zm-3.29-1.66H499l-1.35-3.73Z"/><path class="cls-4" d="M513.58,78.58h-3.89l-.74,2h-2.36l4-9.95h2.06l4,9.95h-2.36Zm-3.29-1.66H513l-1.35-3.73Z"/><path class="cls-4" d="M520.05,80.63h-2.22V70.68h2.22Z"/><path class="cls-4" d="M526.09,77h-1.77v3.64H522.1V70.68h4a4.82,4.82,0,0,1,2.95.78,2.64,2.64,0,0,1,1,2.23,2.84,2.84,0,0,1-.48,1.69,3.15,3.15,0,0,1-1.44,1.09l2.33,4.07v.09h-2.38Zm-1.77-1.66h1.79a1.91,1.91,0,0,0,1.3-.4,1.35,1.35,0,0,0,.45-1.08,1.44,1.44,0,0,0-.43-1.11,1.89,1.89,0,0,0-1.33-.4h-1.78Z"/><path class="cls-4" d="M534,77.12v3.51h-2.21V70.68H536a5.09,5.09,0,0,1,2.13.41,3.19,3.19,0,0,1,1.41,1.16A3.09,3.09,0,0,1,540,74a2.77,2.77,0,0,1-1.08,2.31,4.8,4.8,0,0,1-3,.84Zm0-1.66h2a2,2,0,0,0,1.34-.38,1.34,1.34,0,0,0,.46-1.09,1.59,1.59,0,0,0-.47-1.19,1.82,1.82,0,0,0-1.28-.46h-2Z"/><path class="cls-4" d="M550.38,75.88a5.57,5.57,0,0,1-.57,2.58,4,4,0,0,1-1.6,1.71,5.08,5.08,0,0,1-4.79,0,4.05,4.05,0,0,1-1.63-1.7,5.44,5.44,0,0,1-.58-2.54v-.49a5.57,5.57,0,0,1,.57-2.58,4,4,0,0,1,1.62-1.72,5.06,5.06,0,0,1,4.78,0,4,4,0,0,1,1.62,1.72,5.58,5.58,0,0,1,.58,2.58Zm-2.25-.45a3.89,3.89,0,0,0-.61-2.38,2.25,2.25,0,0,0-3.45,0,3.9,3.9,0,0,0-.61,2.35v.49a4.05,4.05,0,0,0,.6,2.37,2,2,0,0,0,1.75.84,2,2,0,0,0,1.71-.81,4,4,0,0,0,.61-2.37Z"/><path class="cls-4" d="M556,77H554.2v3.64H552V70.68h4a4.81,4.81,0,0,1,2.94.78,2.64,2.64,0,0,1,1,2.23,2.9,2.9,0,0,1-.47,1.69A3.19,3.19,0,0,1,558,76.47l2.33,4.07v.09H558Zm-1.77-1.66H556a1.91,1.91,0,0,0,1.3-.4,1.36,1.36,0,0,0,.46-1.08,1.45,1.45,0,0,0-.44-1.11,1.88,1.88,0,0,0-1.32-.4H554.2Z"/><path class="cls-4" d="M569.38,72.34h-3.29v8.29h-2.22V72.34h-3.26V70.68h8.77Z"/><g id="center_arrow_2" data-name="center arrow 2"><line class="cls-5" x1="442.8" y1="169.35" x2="442.8" y2="184.45"/><polygon class="cls-6" points="435.74 180.67 449.86 180.67 442.37 188.22 435.74 180.67"/></g><g id="oita_airport" data-name="oita airport"><path class="cls-4" d="M406,153.83a6,6,0,0,1-.51,2.57,3.86,3.86,0,0,1-1.47,1.71,4,4,0,0,1-2.19.6,4.13,4.13,0,0,1-2.19-.59,4,4,0,0,1-1.49-1.7,6,6,0,0,1-.53-2.53v-.49a6,6,0,0,1,.52-2.58,3.85,3.85,0,0,1,1.49-1.71,4,4,0,0,1,2.18-.6,4,4,0,0,1,2.19.6,3.83,3.83,0,0,1,1.48,1.71,6,6,0,0,1,.52,2.57Zm-2-.45a4.28,4.28,0,0,0-.55-2.37,2,2,0,0,0-3.16,0,4.14,4.14,0,0,0-.56,2.35v.48a4.25,4.25,0,0,0,.55,2.36,1.94,1.94,0,0,0,3.17,0,4.2,4.2,0,0,0,.55-2.35Z"/><path class="cls-4" d="M409.6,158.57h-2v-9.92h2Z"/><path class="cls-4" d="M418.89,150.3h-3v8.27h-2V150.3h-3v-1.65h8Z"/><path class="cls-4" d="M424.79,156.53h-3.56l-.67,2H418.4l3.66-9.92h1.88l3.69,9.92h-2.16Zm-3-1.66h2.46L423,151.16Z"/><path class="cls-4" d="M437.56,156.53H434l-.68,2h-2.15l3.66-9.92h1.88l3.69,9.92h-2.16Zm-3-1.66H437l-1.24-3.71Z"/><path class="cls-4" d="M443.47,158.57h-2v-9.92h2Z"/><path class="cls-4" d="M449,154.94h-1.62v3.63h-2v-9.92H449a4.13,4.13,0,0,1,2.69.78,2.72,2.72,0,0,1,.95,2.22,3.08,3.08,0,0,1-.44,1.69,3,3,0,0,1-1.32,1.08l2.13,4.06v.09h-2.18Zm-1.62-1.66H449a1.66,1.66,0,0,0,1.18-.39,1.4,1.4,0,0,0,.42-1.08,1.46,1.46,0,0,0-.4-1.1,1.61,1.61,0,0,0-1.21-.41h-1.63Z"/><path class="cls-4" d="M456.22,155.08v3.49h-2v-9.92H458a4.31,4.31,0,0,1,2,.41,3.06,3.06,0,0,1,1.3,1.16,3.26,3.26,0,0,1,.45,1.71,2.85,2.85,0,0,1-1,2.3,4.12,4.12,0,0,1-2.74.85Zm0-1.66H458a1.79,1.79,0,0,0,1.23-.38,1.41,1.41,0,0,0,.42-1.09,1.62,1.62,0,0,0-.43-1.18,1.57,1.57,0,0,0-1.17-.47h-1.86Z"/><path class="cls-4" d="M471.21,153.83a6,6,0,0,1-.51,2.57,3.94,3.94,0,0,1-1.48,1.71,4,4,0,0,1-2.19.6,4.09,4.09,0,0,1-2.18-.59,3.93,3.93,0,0,1-1.49-1.7,6,6,0,0,1-.54-2.53v-.49a6,6,0,0,1,.53-2.58,3.83,3.83,0,0,1,1.48-1.71,4,4,0,0,1,2.19-.6,4,4,0,0,1,2.18.6,3.85,3.85,0,0,1,1.49,1.71,6.11,6.11,0,0,1,.52,2.57Zm-2.06-.45a4.19,4.19,0,0,0-.55-2.37,2,2,0,0,0-3.16,0,4.14,4.14,0,0,0-.56,2.35v.48a4.33,4.33,0,0,0,.55,2.36,1.81,1.81,0,0,0,1.6.84,1.79,1.79,0,0,0,1.57-.81,4.2,4.2,0,0,0,.55-2.35Z"/><path class="cls-4" d="M476.33,154.94h-1.62v3.63h-2v-9.92h3.66a4.13,4.13,0,0,1,2.69.78,2.72,2.72,0,0,1,1,2.22,3.08,3.08,0,0,1-.44,1.69,3,3,0,0,1-1.32,1.08l2.13,4.06v.09h-2.18Zm-1.62-1.66h1.64a1.66,1.66,0,0,0,1.18-.39,1.4,1.4,0,0,0,.42-1.08,1.49,1.49,0,0,0-.39-1.1,1.65,1.65,0,0,0-1.22-.41h-1.63Z"/><path class="cls-4" d="M488.59,150.3h-3v8.27h-2V150.3h-3v-1.65h8Z"/></g><g id="center_arrow" data-name="center arrow"><line class="cls-5" x1="442.8" y1="120.59" x2="442.8" y2="135.69"/><polygon class="cls-6" points="435.74 131.92 449.86 131.92 442.37 139.47 435.74 131.92"/></g><g id="airport_bus" data-name="airport bus"><rect class="cls-4" x="374.16" y="209.13" width="137.28" height="31.46"/><path class="cls-1" d="M420.36,226.35h-3l-.63,1.82h-1.39l2.92-7.8h1.2l2.93,7.8H421Zm-2.62-1.09H420L418.86,222Z"/><path class="cls-1" d="M423.15,220.87a.68.68,0,0,1,.19-.5.69.69,0,0,1,.53-.2.74.74,0,0,1,.55.2.72.72,0,0,1,.19.5.66.66,0,0,1-.74.68.66.66,0,0,1-.72-.68Zm1.37,7.3h-1.29v-5.8h1.29Z"/><path class="cls-1" d="M428.93,223.56a3,3,0,0,0-.52,0,1.19,1.19,0,0,0-1.2.68v4h-1.29v-5.8h1.23l0,.65a1.46,1.46,0,0,1,1.3-.76,1.22,1.22,0,0,1,.46.08Z"/><path class="cls-1" d="M434.78,225.33a3.48,3.48,0,0,1-.6,2.14,1.93,1.93,0,0,1-1.63.8,2,2,0,0,1-1.51-.62v2.74h-1.29v-8h1.18l.06.59a1.9,1.9,0,0,1,1.54-.7,2,2,0,0,1,1.65.79,3.57,3.57,0,0,1,.6,2.2Zm-1.28-.12a2.42,2.42,0,0,0-.35-1.37,1.11,1.11,0,0,0-1-.51A1.17,1.17,0,0,0,431,224v2.57a1.18,1.18,0,0,0,1.14.67,1.1,1.1,0,0,0,1-.5A2.69,2.69,0,0,0,433.5,225.21Z"/><path class="cls-1" d="M435.63,225.21a3.37,3.37,0,0,1,.34-1.53,2.4,2.4,0,0,1,.94-1.05,2.65,2.65,0,0,1,1.39-.37,2.5,2.5,0,0,1,1.89.76,3,3,0,0,1,.78,2v.31a3.44,3.44,0,0,1-.33,1.53,2.38,2.38,0,0,1-.94,1,2.59,2.59,0,0,1-1.4.37,2.51,2.51,0,0,1-1.95-.81,3.19,3.19,0,0,1-.73-2.18Zm1.29.12a2.4,2.4,0,0,0,.37,1.4,1.17,1.17,0,0,0,1,.5,1.19,1.19,0,0,0,1-.51,2.61,2.61,0,0,0,.36-1.51,2.33,2.33,0,0,0-.37-1.39,1.2,1.2,0,0,0-1-.51,1.18,1.18,0,0,0-1,.5A2.56,2.56,0,0,0,436.92,225.33Z"/><path class="cls-1" d="M445.08,223.56a3.08,3.08,0,0,0-.53,0,1.18,1.18,0,0,0-1.19.68v4h-1.29v-5.8h1.23l0,.65a1.44,1.44,0,0,1,1.3-.76,1.17,1.17,0,0,1,.45.08Z"/><path class="cls-1" d="M447.78,221v1.41h1v1h-1v3.24a.71.71,0,0,0,.13.48.58.58,0,0,0,.46.15,1.74,1.74,0,0,0,.45-.06v1a3.17,3.17,0,0,1-.85.12c-1,0-1.48-.55-1.48-1.65v-3.29h-.95v-1h.95V221Z"/><path class="cls-1" d="M452.61,228.17v-7.8h2.65a3.18,3.18,0,0,1,2,.53,1.86,1.86,0,0,1,.69,1.58,1.7,1.7,0,0,1-.29,1,1.84,1.84,0,0,1-.84.67,1.71,1.71,0,0,1,1,.64,1.9,1.9,0,0,1,.34,1.14,2.09,2.09,0,0,1-.7,1.69,3,3,0,0,1-2,.59Zm1.35-4.52h1.31a1.51,1.51,0,0,0,1-.29,1,1,0,0,0,.36-.81,1,1,0,0,0-.33-.83,1.66,1.66,0,0,0-1-.26H454Zm0,1v2.43h1.49a1.45,1.45,0,0,0,1-.31,1.14,1.14,0,0,0,.35-.88,1.11,1.11,0,0,0-1.23-1.24Z"/><path class="cls-1" d="M462.83,227.6a2,2,0,0,1-1.61.67,1.77,1.77,0,0,1-1.42-.55,2.37,2.37,0,0,1-.48-1.6v-3.75h1.29v3.74c0,.73.31,1.1.91,1.1a1.26,1.26,0,0,0,1.27-.68v-4.16h1.29v5.8h-1.21Z"/><path class="cls-1" d="M468.62,226.59a.61.61,0,0,0-.28-.53,3,3,0,0,0-.95-.32,4.92,4.92,0,0,1-1.1-.35,1.49,1.49,0,0,1-1-1.37,1.52,1.52,0,0,1,.62-1.25,2.45,2.45,0,0,1,1.6-.51,2.52,2.52,0,0,1,1.66.52,1.63,1.63,0,0,1,.64,1.33h-1.29a.8.8,0,0,0-.28-.62,1,1,0,0,0-.73-.25,1.1,1.1,0,0,0-.7.2.62.62,0,0,0-.27.53.53.53,0,0,0,.25.46,3.44,3.44,0,0,0,1,.34,4.52,4.52,0,0,1,1.2.4,1.69,1.69,0,0,1,.64.56,1.43,1.43,0,0,1,.21.79,1.55,1.55,0,0,1-.64,1.27,2.75,2.75,0,0,1-1.69.48,3,3,0,0,1-1.26-.25,2.17,2.17,0,0,1-.86-.71,1.72,1.72,0,0,1-.31-1h1.26a.93.93,0,0,0,.34.71,1.41,1.41,0,0,0,.85.25,1.26,1.26,0,0,0,.77-.2A.6.6,0,0,0,468.62,226.59Z"/></g><g id="arrow"><line class="cls-5" x1="298.28" y1="266.08" x2="298.28" y2="281.18"/><polygon class="cls-6" points="291.22 277.4 305.34 277.4 297.86 284.95 291.22 277.4"/></g><path d="M418.39,195.17v1.18h-.18a2.55,2.55,0,0,0-2.73,2.46,2.27,2.27,0,0,1,1.73-.72,2.15,2.15,0,0,1,1.77.79,3.17,3.17,0,0,1,.65,2.05,2.94,2.94,0,0,1-.76,2.1,2.61,2.61,0,0,1-2,.81,2.54,2.54,0,0,1-2-.94,3.7,3.7,0,0,1-.79-2.47V200a5.24,5.24,0,0,1,1.08-3.51,3.85,3.85,0,0,1,3.11-1.27Zm-1.52,4.06a1.46,1.46,0,0,0-.85.27,1.55,1.55,0,0,0-.56.7v.43a2.57,2.57,0,0,0,.39,1.5,1.24,1.24,0,0,0,2,.09,2,2,0,0,0,.37-1.25,2,2,0,0,0-.37-1.25A1.18,1.18,0,0,0,416.87,199.23Z"/><path d="M426.25,200.14a4.74,4.74,0,0,1-.68,2.77,2.78,2.78,0,0,1-4.13,0,4.4,4.4,0,0,1-.71-2.69v-1.47a4.57,4.57,0,0,1,.68-2.76,2.83,2.83,0,0,1,4.14,0,4.49,4.49,0,0,1,.7,2.68Zm-1.41-1.59a3.75,3.75,0,0,0-.32-1.76,1.25,1.25,0,0,0-2,0,3.35,3.35,0,0,0-.34,1.66v1.92a3.73,3.73,0,0,0,.33,1.78,1.21,1.21,0,0,0,2,0,3.43,3.43,0,0,0,.34-1.69Z"/><path d="M431.87,197.4l0,.66a2.23,2.23,0,0,1,1.8-.78,1.74,1.74,0,0,1,1.73,1,2.19,2.19,0,0,1,1.92-1,2,2,0,0,1,1.55.58,2.57,2.57,0,0,1,.51,1.71v4.15H438v-4.11a1.26,1.26,0,0,0-.26-.89,1.15,1.15,0,0,0-.86-.28,1.21,1.21,0,0,0-.79.26,1.41,1.41,0,0,0-.42.68v4.34h-1.4v-4.16a1,1,0,0,0-1.13-1.12,1.24,1.24,0,0,0-1.2.7v4.58h-1.41V197.4Z"/><path d="M440.87,195.76a.77.77,0,0,1,.21-.55.79.79,0,0,1,.59-.21.8.8,0,0,1,.59.21.77.77,0,0,1,.21.55.72.72,0,0,1-.21.53.8.8,0,0,1-.59.21.79.79,0,0,1-.59-.21A.72.72,0,0,1,440.87,195.76Zm1.5,8H441V197.4h1.41Z"/><path d="M445.21,197.4l0,.73a2.22,2.22,0,0,1,1.82-.85c1.31,0,2,.76,2,2.26v4.18h-1.41v-4.1a1.33,1.33,0,0,0-.26-.89,1.08,1.08,0,0,0-.84-.29,1.36,1.36,0,0,0-1.27.78v4.5h-1.41V197.4Z"/><path d="M454,202a.67.67,0,0,0-.31-.58,3.35,3.35,0,0,0-1-.35,5.48,5.48,0,0,1-1.2-.38,1.62,1.62,0,0,1-1.06-1.49,1.69,1.69,0,0,1,.69-1.37,2.65,2.65,0,0,1,1.74-.55,2.8,2.8,0,0,1,1.81.56,1.78,1.78,0,0,1,.7,1.46H454a.87.87,0,0,0-.3-.68,1.16,1.16,0,0,0-.8-.28,1.29,1.29,0,0,0-.76.22.71.71,0,0,0-.29.58.58.58,0,0,0,.27.51,3.7,3.7,0,0,0,1.1.36,5.41,5.41,0,0,1,1.3.44,1.77,1.77,0,0,1,.7.61,1.53,1.53,0,0,1,.23.87,1.64,1.64,0,0,1-.7,1.38,3,3,0,0,1-1.84.53,3.32,3.32,0,0,1-1.37-.28,2.4,2.4,0,0,1-.94-.77,1.87,1.87,0,0,1-.33-1.06h1.36a1,1,0,0,0,.38.77,1.76,1.76,0,0,0,1.77.06A.67.67,0,0,0,454,202Z"/><path d="M459.32,200.5a3.63,3.63,0,0,1,.37-1.67,2.66,2.66,0,0,1,1-1.15,3,3,0,0,1,1.52-.4,2.73,2.73,0,0,1,2.06.83,3.24,3.24,0,0,1,.86,2.18v.33a3.73,3.73,0,0,1-.36,1.67,2.47,2.47,0,0,1-1,1.14,2.87,2.87,0,0,1-1.53.41,2.72,2.72,0,0,1-2.12-.89,3.46,3.46,0,0,1-.8-2.38Zm1.41.12a2.55,2.55,0,0,0,.4,1.53,1.3,1.3,0,0,0,1.11.55,1.26,1.26,0,0,0,1.11-.56,2.78,2.78,0,0,0,.4-1.64,2.56,2.56,0,0,0-.41-1.52,1.38,1.38,0,0,0-2.21,0A2.79,2.79,0,0,0,460.73,200.62Z"/><path d="M467.65,197.4l0,.73a2.22,2.22,0,0,1,1.82-.85c1.31,0,2,.76,2,2.26v4.18H470.1v-4.1a1.33,1.33,0,0,0-.26-.89,1.08,1.08,0,0,0-.84-.29,1.36,1.36,0,0,0-1.27.78v4.5h-1.41V197.4Z"/></g><path d="M343.59,105.5h-1.41V98.65l-2.08.71V98.17l3.31-1.23h.18Z"/><path d="M351,99.85a2.21,2.21,0,0,1,1.75-.81c1.34,0,2,.78,2,2.32v4.14h-1.41v-4.09a1.25,1.25,0,0,0-.28-.93,1.17,1.17,0,0,0-.83-.27A1.35,1.35,0,0,0,351,101v4.53h-1.41v-9H351Z"/><path d="M359.5,100.46a3.69,3.69,0,0,0-.58,0,1.3,1.3,0,0,0-1.31.75v4.33H356.2V99.16h1.35l0,.71A1.6,1.6,0,0,1,359,99a1.18,1.18,0,0,1,.5.09Z"/><path d="M364.9,100.58h.86a1.54,1.54,0,0,0,1-.33,1.25,1.25,0,0,0,.38-1,1.35,1.35,0,0,0-.32-1,1.28,1.28,0,0,0-1-.33,1.32,1.32,0,0,0-.93.33,1.08,1.08,0,0,0-.37.86h-1.42a2.13,2.13,0,0,1,.35-1.19,2.37,2.37,0,0,1,1-.85,3.11,3.11,0,0,1,1.38-.3,3,3,0,0,1,2,.64,2.28,2.28,0,0,1,.72,1.79,1.84,1.84,0,0,1-.36,1.08,2.25,2.25,0,0,1-.94.76,2.11,2.11,0,0,1,1.06.76,2.08,2.08,0,0,1,.36,1.23,2.3,2.3,0,0,1-.78,1.83,3,3,0,0,1-2.06.68,3,3,0,0,1-2-.66,2.17,2.17,0,0,1-.78-1.74h1.42a1.18,1.18,0,0,0,.37.91,1.44,1.44,0,0,0,1,.35,1.49,1.49,0,0,0,1-.35,1.32,1.32,0,0,0,.38-1,1.37,1.37,0,0,0-.4-1,1.7,1.7,0,0,0-1.18-.36h-.83Z"/><path d="M370.42,101.27l.46-4.3h4.55V98.2h-3.38l-.23,2a2.56,2.56,0,0,1,1.33-.34,2.36,2.36,0,0,1,1.88.78,3.1,3.1,0,0,1,.67,2.1,2.9,2.9,0,0,1-.74,2.07,2.74,2.74,0,0,1-2,.77A2.84,2.84,0,0,1,371,105a2.39,2.39,0,0,1-.82-1.75h1.36a1.54,1.54,0,0,0,.44,1,1.37,1.37,0,0,0,1,.33,1.19,1.19,0,0,0,1-.47,2,2,0,0,0,.37-1.27,1.8,1.8,0,0,0-.41-1.24,1.38,1.38,0,0,0-1.1-.45,1.78,1.78,0,0,0-.65.1,1.84,1.84,0,0,0-.58.4Z"/><path d="M381.2,99.16l0,.66a2.26,2.26,0,0,1,1.82-.78,1.73,1.73,0,0,1,1.72,1,2.23,2.23,0,0,1,1.93-1,2,2,0,0,1,1.56.58,2.64,2.64,0,0,1,.52,1.71v4.17h-1.42v-4.12a1.25,1.25,0,0,0-.26-.89,1.12,1.12,0,0,0-.87-.28,1.17,1.17,0,0,0-.78.26,1.31,1.31,0,0,0-.43.68v4.35h-1.41v-4.17a1,1,0,0,0-1.13-1.12,1.25,1.25,0,0,0-1.21.7v4.59h-1.41V99.16Z"/><path d="M390.24,97.51a.75.75,0,0,1,.21-.54.78.78,0,0,1,.59-.22.81.81,0,0,1,.59.22.75.75,0,0,1,.21.54.73.73,0,0,1-.21.54.8.8,0,0,1-.59.21.77.77,0,0,1-.59-.21A.73.73,0,0,1,390.24,97.51Zm1.5,8h-1.41V99.16h1.41Z"/><path d="M394.59,99.16l0,.73a2.29,2.29,0,0,1,1.84-.85c1.31,0,2,.76,2,2.27v4.19h-1.42v-4.11a1.26,1.26,0,0,0-.26-.89,1.08,1.08,0,0,0-.84-.29,1.37,1.37,0,0,0-1.28.78v4.51h-1.41V99.16Z"/><path d="M403.44,103.78a.64.64,0,0,0-.32-.58,3.25,3.25,0,0,0-1-.35,5,5,0,0,1-1.2-.39,1.61,1.61,0,0,1-1.06-1.49,1.72,1.72,0,0,1,.68-1.38,3.12,3.12,0,0,1,3.57,0,1.77,1.77,0,0,1,.7,1.46h-1.41a.9.9,0,0,0-.31-.69,1.16,1.16,0,0,0-.8-.27,1.22,1.22,0,0,0-.76.22.69.69,0,0,0-.29.58.58.58,0,0,0,.27.51,3.69,3.69,0,0,0,1.11.36,5.41,5.41,0,0,1,1.3.44,2,2,0,0,1,.71.61,1.61,1.61,0,0,1,.23.87,1.68,1.68,0,0,1-.71,1.39,3,3,0,0,1-1.84.53,3.33,3.33,0,0,1-1.38-.28,2.27,2.27,0,0,1-.94-.78,1.78,1.78,0,0,1-.34-1.06H401a1,1,0,0,0,.38.78,1.47,1.47,0,0,0,.93.27,1.41,1.41,0,0,0,.84-.21A.66.66,0,0,0,403.44,103.78Z"/><path d="M411.77,102.45h-3.06V101.3h3.06Z"/><path d="M419.64,105.5h-1.41V98.65l-2.08.71V98.17l3.31-1.23h.18Z"/><path d="M427,99.85a2.21,2.21,0,0,1,1.75-.81c1.35,0,2,.78,2.05,2.32v4.14h-1.42v-4.09a1.25,1.25,0,0,0-.28-.93,1.15,1.15,0,0,0-.83-.27A1.35,1.35,0,0,0,427,101v4.53h-1.41v-9H427Z"/><path d="M435.55,100.46a3.69,3.69,0,0,0-.58,0,1.29,1.29,0,0,0-1.3.75v4.33h-1.42V99.16h1.35l0,.71a1.59,1.59,0,0,1,1.42-.83,1.24,1.24,0,0,1,.5.09Z"/><path d="M439.7,101.27l.46-4.3h4.55V98.2h-3.38l-.23,2a2.56,2.56,0,0,1,1.33-.34,2.36,2.36,0,0,1,1.88.78,3.1,3.1,0,0,1,.67,2.1,2.9,2.9,0,0,1-.74,2.07,2.74,2.74,0,0,1-2.05.77,2.79,2.79,0,0,1-1.92-.67,2.4,2.4,0,0,1-.83-1.75h1.36a1.55,1.55,0,0,0,.45,1,1.33,1.33,0,0,0,.94.33,1.19,1.19,0,0,0,1-.47,2,2,0,0,0,.37-1.27,1.85,1.85,0,0,0-.4-1.24,1.42,1.42,0,0,0-1.11-.45,1.78,1.78,0,0,0-.65.1,1.84,1.84,0,0,0-.58.4Z"/><path d="M446.47,101.27l.46-4.3h4.55V98.2h-3.37l-.24,2a2.61,2.61,0,0,1,1.33-.34,2.34,2.34,0,0,1,1.88.78,3.1,3.1,0,0,1,.67,2.1,2.86,2.86,0,0,1-.74,2.07,2.73,2.73,0,0,1-2,.77A2.8,2.8,0,0,1,447,105a2.4,2.4,0,0,1-.83-1.75h1.37a1.49,1.49,0,0,0,.44,1,1.33,1.33,0,0,0,.94.33,1.2,1.2,0,0,0,1-.47,2,2,0,0,0,.36-1.27,1.8,1.8,0,0,0-.4-1.24,1.42,1.42,0,0,0-1.11-.45,1.81,1.81,0,0,0-.65.1,1.84,1.84,0,0,0-.58.4Z"/><path d="M457.25,99.16l0,.66a2.27,2.27,0,0,1,1.82-.78,1.75,1.75,0,0,1,1.73,1,2.22,2.22,0,0,1,1.93-1,2,2,0,0,1,1.55.58,2.59,2.59,0,0,1,.52,1.71v4.17h-1.42v-4.12a1.25,1.25,0,0,0-.26-.89,1.11,1.11,0,0,0-.86-.28,1.17,1.17,0,0,0-.79.26,1.31,1.31,0,0,0-.43.68v4.35h-1.42v-4.17a1,1,0,0,0-1.13-1.12,1.25,1.25,0,0,0-1.21.7v4.59h-1.41V99.16Z"/><path d="M466.29,97.51a.75.75,0,0,1,.21-.54.9.9,0,0,1,1.18,0,.75.75,0,0,1,.21.54.73.73,0,0,1-.21.54.93.93,0,0,1-1.18,0A.73.73,0,0,1,466.29,97.51Zm1.5,8h-1.41V99.16h1.41Z"/><path d="M470.64,99.16l.05.73a2.26,2.26,0,0,1,1.83-.85c1.31,0,2,.76,2,2.27v4.19h-1.41v-4.11a1.31,1.31,0,0,0-.26-.89,1.12,1.12,0,0,0-.85-.29,1.36,1.36,0,0,0-1.27.78v4.51h-1.42V99.16Z"/><path d="M479.49,103.78a.65.65,0,0,0-.31-.58,3.33,3.33,0,0,0-1-.35,5,5,0,0,1-1.2-.39,1.61,1.61,0,0,1-1.06-1.49,1.7,1.7,0,0,1,.69-1.38,2.74,2.74,0,0,1,1.74-.55,2.8,2.8,0,0,1,1.83.57,1.79,1.79,0,0,1,.69,1.46h-1.41a.89.89,0,0,0-.3-.69,1.18,1.18,0,0,0-.81-.27,1.22,1.22,0,0,0-.76.22.69.69,0,0,0-.29.58.58.58,0,0,0,.27.51,3.8,3.8,0,0,0,1.11.36,5.68,5.68,0,0,1,1.31.44,1.93,1.93,0,0,1,.7.61,1.61,1.61,0,0,1,.23.87,1.68,1.68,0,0,1-.71,1.39,3,3,0,0,1-1.84.53,3.37,3.37,0,0,1-1.38-.28,2.27,2.27,0,0,1-.94-.78,1.78,1.78,0,0,1-.34-1.06h1.38a1,1,0,0,0,.37.78,1.49,1.49,0,0,0,.93.27,1.46,1.46,0,0,0,.85-.21A.67.67,0,0,0,479.49,103.78Z"/><path d="M484.81,102.27a3.7,3.7,0,0,1,.37-1.68,2.66,2.66,0,0,1,1-1.14,2.86,2.86,0,0,1,1.52-.41,2.75,2.75,0,0,1,2.07.83,3.24,3.24,0,0,1,.86,2.19v.34a3.76,3.76,0,0,1-.35,1.67,2.65,2.65,0,0,1-1,1.14,2.88,2.88,0,0,1-1.54.41,2.71,2.71,0,0,1-2.13-.9,3.44,3.44,0,0,1-.8-2.38Zm1.41.13a2.55,2.55,0,0,0,.41,1.53,1.28,1.28,0,0,0,1.11.55,1.31,1.31,0,0,0,1.12-.56,2.89,2.89,0,0,0,.4-1.65,2.54,2.54,0,0,0-.41-1.52,1.31,1.31,0,0,0-1.12-.56,1.29,1.29,0,0,0-1.1.55A2.8,2.8,0,0,0,486.22,102.4Z"/><path d="M493.17,99.16l0,.73a2.29,2.29,0,0,1,1.84-.85c1.31,0,2,.76,2,2.27v4.19h-1.42v-4.11a1.26,1.26,0,0,0-.26-.89,1.08,1.08,0,0,0-.84-.29,1.37,1.37,0,0,0-1.28.78v4.51h-1.41V99.16Z"/><path d="M505.21,105.5a2.48,2.48,0,0,1-.16-.59,2.36,2.36,0,0,1-3.2.16,1.73,1.73,0,0,1-.6-1.34,1.8,1.8,0,0,1,.75-1.56,3.62,3.62,0,0,1,2.14-.54H505v-.42a1.14,1.14,0,0,0-.28-.79,1.1,1.1,0,0,0-.83-.29,1.24,1.24,0,0,0-.79.24.74.74,0,0,0-.31.62h-1.41a1.6,1.6,0,0,1,.34-1,2.31,2.31,0,0,1,.93-.71A3.34,3.34,0,0,1,504,99a2.62,2.62,0,0,1,1.76.56,2,2,0,0,1,.68,1.58V104a3.22,3.22,0,0,0,.24,1.36v.1Zm-1.55-1a1.58,1.58,0,0,0,.79-.21,1.41,1.41,0,0,0,.56-.55v-1.2h-.77a2.12,2.12,0,0,0-1.18.28.89.89,0,0,0-.39.78.83.83,0,0,0,.27.65A1,1,0,0,0,503.66,104.48Z"/><path d="M507.9,97.51a.75.75,0,0,1,.21-.54.9.9,0,0,1,1.18,0,.75.75,0,0,1,.21.54.73.73,0,0,1-.21.54.93.93,0,0,1-1.18,0A.73.73,0,0,1,507.9,97.51Zm1.5,8H508V99.16h1.41Z"/><path d="M514.24,100.46a3.69,3.69,0,0,0-.58,0,1.31,1.31,0,0,0-1.31.75v4.33h-1.41V99.16h1.35l0,.71a1.59,1.59,0,0,1,1.41-.83,1.26,1.26,0,0,1,.51.09Z"/><path d="M520.65,102.4a3.78,3.78,0,0,1-.67,2.34,2.1,2.1,0,0,1-1.78.88,2.14,2.14,0,0,1-1.66-.69v3h-1.41V99.16h1.3l.06.65a2.08,2.08,0,0,1,1.69-.77,2.14,2.14,0,0,1,1.81.87,3.85,3.85,0,0,1,.66,2.4Zm-1.41-.13a2.64,2.64,0,0,0-.38-1.5,1.22,1.22,0,0,0-1.07-.56,1.31,1.31,0,0,0-1.25.72v2.81a1.31,1.31,0,0,0,1.26.74,1.22,1.22,0,0,0,1.06-.55A3,3,0,0,0,519.24,102.27Z"/><path d="M523.34,105.5h-1.41v-9h1.41Z"/><path d="M528.64,105.5a2.48,2.48,0,0,1-.16-.59,2.36,2.36,0,0,1-3.2.16,1.73,1.73,0,0,1-.6-1.34,1.8,1.8,0,0,1,.75-1.56,3.62,3.62,0,0,1,2.14-.54h.87v-.42a1.14,1.14,0,0,0-.28-.79,1.1,1.1,0,0,0-.83-.29,1.24,1.24,0,0,0-.79.24.74.74,0,0,0-.31.62h-1.41a1.6,1.6,0,0,1,.34-1,2.31,2.31,0,0,1,.93-.71,3.34,3.34,0,0,1,1.32-.26,2.62,2.62,0,0,1,1.76.56,2,2,0,0,1,.68,1.58V104a3.22,3.22,0,0,0,.24,1.36v.1Zm-1.55-1a1.58,1.58,0,0,0,.79-.21,1.41,1.41,0,0,0,.56-.55v-1.2h-.77a2.12,2.12,0,0,0-1.18.28.89.89,0,0,0-.39.78.83.83,0,0,0,.27.65A1,1,0,0,0,527.09,104.48Z"/><path d="M532.64,99.16l0,.73a2.29,2.29,0,0,1,1.84-.85c1.31,0,2,.76,2,2.27v4.19H535.1v-4.11a1.26,1.26,0,0,0-.26-.89,1.08,1.08,0,0,0-.84-.29,1.37,1.37,0,0,0-1.28.78v4.51h-1.41V99.16Z"/><path d="M540.73,105.62a3,3,0,0,1-2.18-.85,3.1,3.1,0,0,1-.84-2.27v-.18a3.89,3.89,0,0,1,.37-1.7,2.75,2.75,0,0,1,1-1.16,2.68,2.68,0,0,1,1.47-.42,2.45,2.45,0,0,1,2,.83,3.5,3.5,0,0,1,.7,2.34v.57h-4.11a1.89,1.89,0,0,0,.52,1.24,1.54,1.54,0,0,0,1.15.46,1.9,1.9,0,0,0,1.58-.79l.76.73a2.4,2.4,0,0,1-1,.88A3.11,3.11,0,0,1,540.73,105.62Zm-.17-5.43a1.17,1.17,0,0,0-.94.41,2.13,2.13,0,0,0-.46,1.14h2.7v-.11a1.76,1.76,0,0,0-.38-1.08A1.19,1.19,0,0,0,540.56,100.19Z"/></g><g id="middle"><path d="M269.61,387.71l.46-4.31h4.53v1.24h-3.36l-.23,2a2.55,2.55,0,0,1,1.32-.34,2.36,2.36,0,0,1,1.88.78,3.15,3.15,0,0,1,.67,2.1,2.84,2.84,0,0,1-.75,2.07,2.69,2.69,0,0,1-2,.77,2.82,2.82,0,0,1-1.92-.66,2.42,2.42,0,0,1-.83-1.76h1.36a1.54,1.54,0,0,0,.44.95,1.35,1.35,0,0,0,.94.33,1.17,1.17,0,0,0,1-.47,2,2,0,0,0,.37-1.27,1.85,1.85,0,0,0-.4-1.24,1.42,1.42,0,0,0-1.11-.45,1.52,1.52,0,0,0-1.22.5Z"/><path d="M280.36,385.6l0,.66a2.24,2.24,0,0,1,1.81-.78,1.73,1.73,0,0,1,1.72,1,2.2,2.2,0,0,1,1.92-1,1.94,1.94,0,0,1,1.55.58,2.59,2.59,0,0,1,.52,1.71v4.17h-1.41v-4.13a1.28,1.28,0,0,0-.26-.88,1.14,1.14,0,0,0-.87-.28,1.12,1.12,0,0,0-.78.26,1.31,1.31,0,0,0-.43.68v4.35h-1.41v-4.17a1,1,0,0,0-1.13-1.12,1.22,1.22,0,0,0-1.2.7v4.59H279V385.6Z"/><path d="M289.37,384a.76.76,0,0,1,.2-.55.8.8,0,0,1,.59-.21.79.79,0,0,1,.59.21.81.81,0,0,1,0,1.09.79.79,0,0,1-.59.21.8.8,0,0,1-.59-.21A.76.76,0,0,1,289.37,384Zm1.49,8h-1.41V385.6h1.41Z"/><path d="M293.7,385.6l.05.73a2.22,2.22,0,0,1,1.82-.85c1.31,0,2,.76,2,2.27v4.19h-1.41v-4.11a1.31,1.31,0,0,0-.26-.89,1,1,0,0,0-.84-.29,1.35,1.35,0,0,0-1.27.78v4.51h-1.41V385.6Z"/><path d="M302.52,390.22a.64.64,0,0,0-.31-.58,3.35,3.35,0,0,0-1-.35,5,5,0,0,1-1.2-.39,1.61,1.61,0,0,1-1.06-1.5,1.7,1.7,0,0,1,.69-1.37,2.65,2.65,0,0,1,1.74-.55,2.84,2.84,0,0,1,1.82.56,1.81,1.81,0,0,1,.69,1.46h-1.41a.88.88,0,0,0-.3-.68,1.16,1.16,0,0,0-.8-.27,1.29,1.29,0,0,0-.76.21.69.69,0,0,0-.29.59.6.6,0,0,0,.27.51,3.7,3.7,0,0,0,1.1.36,5.41,5.41,0,0,1,1.3.44,1.79,1.79,0,0,1,.7.62,1.47,1.47,0,0,1,.23.86,1.65,1.65,0,0,1-.7,1.39,3,3,0,0,1-1.84.53,3.17,3.17,0,0,1-1.37-.28,2.33,2.33,0,0,1-.94-.77,1.91,1.91,0,0,1-.34-1.07h1.37a1,1,0,0,0,.38.78,1.46,1.46,0,0,0,.92.27,1.44,1.44,0,0,0,.85-.21A.67.67,0,0,0,302.52,390.22Z"/><path d="M313.6,390l1-4.38H316l-1.71,6.34H313.1l-1.35-4.35-1.32,4.35h-1.16l-1.71-6.34h1.37l1,4.33,1.28-4.33h1.06Z"/><path d="M320.66,391.94a2.34,2.34,0,0,1-.16-.59,2.17,2.17,0,0,1-1.65.71,2.21,2.21,0,0,1-1.54-.54,1.77,1.77,0,0,1-.6-1.35,1.8,1.8,0,0,1,.75-1.56,3.6,3.6,0,0,1,2.13-.54h.86v-.42a1.13,1.13,0,0,0-.27-.79,1.06,1.06,0,0,0-.83-.29,1.26,1.26,0,0,0-.79.24.76.76,0,0,0-.3.62h-1.41a1.58,1.58,0,0,1,.34-1,2.31,2.31,0,0,1,.93-.71,3.26,3.26,0,0,1,1.31-.26,2.63,2.63,0,0,1,1.76.56,2,2,0,0,1,.67,1.58v2.86a3.22,3.22,0,0,0,.24,1.36v.1Zm-1.55-1a1.58,1.58,0,0,0,.79-.21,1.27,1.27,0,0,0,.55-.55V389h-.76a2.06,2.06,0,0,0-1.17.28.88.88,0,0,0-.4.78.83.83,0,0,0,.27.65A1,1,0,0,0,319.11,390.92Z"/><path d="M324.84,391.94h-1.41v-9h1.41Z"/><path d="M328.41,389.22l-.63.65v2.07h-1.41v-9h1.41v5.2l.44-.56,1.74-2h1.69l-2.33,2.64,2.58,3.7h-1.63Z"/><path class="cls-4" d="M182.73,365.93a6.12,6.12,0,0,1-.51,2.58,3.92,3.92,0,0,1-1.47,1.71,4.27,4.27,0,0,1-4.38,0,3.87,3.87,0,0,1-1.49-1.7,6,6,0,0,1-.54-2.54v-.49a6,6,0,0,1,.53-2.59,3.91,3.91,0,0,1,1.48-1.72,4.3,4.3,0,0,1,4.38,0,4,4,0,0,1,1.48,1.72,6,6,0,0,1,.52,2.58Zm-2.06-.45a4.23,4.23,0,0,0-.55-2.38,2,2,0,0,0-3.16,0,4.15,4.15,0,0,0-.56,2.36v.48a4.28,4.28,0,0,0,.55,2.37,1.81,1.81,0,0,0,1.6.84,1.79,1.79,0,0,0,1.57-.81,4.18,4.18,0,0,0,.55-2.36Z"/><path class="cls-4" d="M186.37,370.69h-2v-10h2Z"/><path class="cls-4" d="M195.66,362.39h-3v8.3h-2v-8.3h-3v-1.66h8Z"/><path class="cls-4" d="M201.57,368.64H198l-.68,2.05h-2.16l3.67-10h1.88l3.69,10h-2.16Zm-3-1.67H201l-1.24-3.73Z"/><path class="cls-4" d="M213.89,368.08a1.08,1.08,0,0,0-.41-.9,5.27,5.27,0,0,0-1.46-.65,10.21,10.21,0,0,1-1.67-.69,2.76,2.76,0,0,1-1.68-2.47,2.44,2.44,0,0,1,.45-1.44,3,3,0,0,1,1.29-1,4.93,4.93,0,0,1,1.89-.35,4.48,4.48,0,0,1,1.88.38,3.09,3.09,0,0,1,1.29,1.1,2.9,2.9,0,0,1,.45,1.6h-2a1.38,1.38,0,0,0-.42-1.07,1.78,1.78,0,0,0-1.2-.38,1.88,1.88,0,0,0-1.16.32,1,1,0,0,0-.41.84,1,1,0,0,0,.48.82,5.85,5.85,0,0,0,1.43.61,6.14,6.14,0,0,1,2.52,1.31,2.61,2.61,0,0,1,.79,1.94,2.42,2.42,0,0,1-1,2,4.23,4.23,0,0,1-2.61.74,5,5,0,0,1-2.07-.42,3.31,3.31,0,0,1-1.42-1.16,3,3,0,0,1-.49-1.7h2q0,1.65,1.95,1.65a1.87,1.87,0,0,0,1.13-.29A1,1,0,0,0,213.89,368.08Z"/><path class="cls-4" d="M219.33,367.18v3.51h-2v-10h3.84a4.31,4.31,0,0,1,2,.41,3.06,3.06,0,0,1,1.3,1.16,3.32,3.32,0,0,1,.45,1.72,2.87,2.87,0,0,1-1,2.31,4.08,4.08,0,0,1-2.75.85Zm0-1.66h1.81a1.78,1.78,0,0,0,1.23-.39,1.39,1.39,0,0,0,.42-1.09,1.64,1.64,0,0,0-.43-1.19,1.56,1.56,0,0,0-1.17-.46h-1.86Z"/><path class="cls-4" d="M234.32,365.93a6.12,6.12,0,0,1-.51,2.58,3.86,3.86,0,0,1-1.47,1.71,4,4,0,0,1-2.2.61,4,4,0,0,1-2.18-.6,3.93,3.93,0,0,1-1.49-1.7,6,6,0,0,1-.54-2.54v-.49a6,6,0,0,1,.53-2.59,3.91,3.91,0,0,1,1.48-1.72,4.3,4.3,0,0,1,4.38,0,3.91,3.91,0,0,1,1.48,1.72,6,6,0,0,1,.52,2.58Zm-2-.45a4.23,4.23,0,0,0-.56-2.38,2,2,0,0,0-3.16,0,4.24,4.24,0,0,0-.56,2.36v.48a4.28,4.28,0,0,0,.56,2.37,1.93,1.93,0,0,0,3.16,0,4.26,4.26,0,0,0,.56-2.36Z"/><path class="cls-4" d="M239.45,367h-1.62v3.65h-2v-10h3.66a4.13,4.13,0,0,1,2.69.78,2.75,2.75,0,0,1,.95,2.23,3.11,3.11,0,0,1-.44,1.7,3,3,0,0,1-1.32,1.08l2.13,4.07v.1h-2.18Zm-1.62-1.66h1.63a1.69,1.69,0,0,0,1.19-.39,1.44,1.44,0,0,0,.42-1.09,1.5,1.5,0,0,0-.4-1.11,1.62,1.62,0,0,0-1.21-.4h-1.63Z"/><path class="cls-4" d="M251.72,362.39h-3v8.3h-2v-8.3h-3v-1.66h8Z"/><path class="cls-4" d="M257.87,368.08a1.07,1.07,0,0,0-.4-.9,5.23,5.23,0,0,0-1.47-.65,10.61,10.61,0,0,1-1.67-.69,2.74,2.74,0,0,1-1.67-2.47,2.44,2.44,0,0,1,.45-1.44,3,3,0,0,1,1.29-1,4.93,4.93,0,0,1,1.89-.35,4.51,4.51,0,0,1,1.88.38,3,3,0,0,1,1.28,1.1,2.83,2.83,0,0,1,.46,1.6h-2a1.35,1.35,0,0,0-.43-1.07,1.74,1.74,0,0,0-1.2-.38,1.85,1.85,0,0,0-1.15.32,1,1,0,0,0,.07,1.66,5.75,5.75,0,0,0,1.42.61,6.13,6.13,0,0,1,2.53,1.31,2.65,2.65,0,0,1,.79,1.94,2.4,2.4,0,0,1-1,2,4.18,4.18,0,0,1-2.6.74,5,5,0,0,1-2.07-.42,3.34,3.34,0,0,1-1.43-1.16,3,3,0,0,1-.49-1.7h2q0,1.65,1.95,1.65a1.87,1.87,0,0,0,1.13-.29A1,1,0,0,0,257.87,368.08Z"/><path class="cls-4" d="M267.82,366.69l-1.06,1.15v2.85h-2v-10h2v4.51l.89-1.24,2.51-3.27h2.5l-3.5,4.42,3.6,5.54h-2.41Z"/><path class="cls-4" d="M281.41,365.93a6.12,6.12,0,0,1-.51,2.58,3.93,3.93,0,0,1-3.67,2.32,4,4,0,0,1-2.19-.6,4,4,0,0,1-1.49-1.7A5.85,5.85,0,0,1,273,366v-.49a6,6,0,0,1,.53-2.59,3.85,3.85,0,0,1,1.48-1.72,4.28,4.28,0,0,1,4.37,0,3.85,3.85,0,0,1,1.48,1.72,6,6,0,0,1,.53,2.58Zm-2.06-.45a4.23,4.23,0,0,0-.55-2.38,1.81,1.81,0,0,0-1.59-.81,1.78,1.78,0,0,0-1.57.8,4.15,4.15,0,0,0-.56,2.36v.48a4.28,4.28,0,0,0,.55,2.37,1.94,1.94,0,0,0,3.17,0,4.26,4.26,0,0,0,.55-2.36Z"/><path class="cls-4" d="M288.81,366.37h-3.9V369h4.58v1.65h-6.61v-10h6.59v1.66h-4.56v2.37h3.9Z"/><path class="cls-4" d="M298.69,370.69h-2l-4-6.56v6.56h-2v-10h2l4,6.56v-6.56h2Z"/><path class="cls-4" d="M311.93,370.69h-2v-4.27h-4v4.27h-2v-10h2v4h4v-4h2Z"/><path class="cls-4" d="M315.86,370.69h-2v-10h2Z"/><path class="cls-4" d="M325.53,369.43a3.47,3.47,0,0,1-1.55,1,6.46,6.46,0,0,1-2.22.37,4.31,4.31,0,0,1-2.24-.57,3.72,3.72,0,0,1-1.49-1.64,5.67,5.67,0,0,1-.53-2.52v-.68a6.16,6.16,0,0,1,.49-2.58,3.64,3.64,0,0,1,1.44-1.67,4,4,0,0,1,2.19-.58,4.1,4.1,0,0,1,2.74.84,3.64,3.64,0,0,1,1.17,2.46h-2a2,2,0,0,0-.6-1.25,1.94,1.94,0,0,0-1.28-.4,1.79,1.79,0,0,0-1.57.79,4.17,4.17,0,0,0-.55,2.34V366a4,4,0,0,0,.59,2.37,2,2,0,0,0,1.72.8,2.22,2.22,0,0,0,1.63-.5V367h-1.84v-1.52h3.87Z"/><path class="cls-4" d="M332.74,368.64h-3.56l-.68,2.05h-2.16l3.67-10h1.88l3.69,10h-2.16Zm-3-1.67h2.46L331,363.24Z"/><path class="cls-4" d="M341.61,368.08a1.08,1.08,0,0,0-.41-.9,5.27,5.27,0,0,0-1.46-.65,10.61,10.61,0,0,1-1.67-.69,2.76,2.76,0,0,1-1.68-2.47,2.44,2.44,0,0,1,.45-1.44,3,3,0,0,1,1.29-1,4.93,4.93,0,0,1,1.89-.35,4.48,4.48,0,0,1,1.88.38,3.09,3.09,0,0,1,1.29,1.1,2.9,2.9,0,0,1,.45,1.6h-2a1.38,1.38,0,0,0-.42-1.07,1.78,1.78,0,0,0-1.2-.38,1.88,1.88,0,0,0-1.16.32,1,1,0,0,0-.41.84,1,1,0,0,0,.48.82,5.85,5.85,0,0,0,1.43.61,6.14,6.14,0,0,1,2.52,1.31,2.61,2.61,0,0,1,.79,1.94,2.42,2.42,0,0,1-1,2,4.23,4.23,0,0,1-2.61.74,5,5,0,0,1-2.07-.42,3.31,3.31,0,0,1-1.42-1.16,3,3,0,0,1-.49-1.7h2q0,1.65,1.95,1.65a1.87,1.87,0,0,0,1.13-.29A1,1,0,0,0,341.61,368.08Z"/><path class="cls-4" d="M353,370.69h-2v-4.27h-3.95v4.27h-2v-10h2v4H351v-4h2Z"/><path class="cls-4" d="M357,370.69h-2v-10h2Z"/><path class="cls-4" d="M362.3,370.69v-10h3.45a4.48,4.48,0,0,1,2.71.69,2.38,2.38,0,0,1,.93,2,2.29,2.29,0,0,1-.37,1.29,2.12,2.12,0,0,1-1,.81,2.08,2.08,0,0,1,1.2.78,2.28,2.28,0,0,1,.43,1.42,2.67,2.67,0,0,1-.9,2.18,4.1,4.1,0,0,1-2.59.75Zm2-5.79h1.51c1,0,1.53-.43,1.53-1.24a1.13,1.13,0,0,0-.39-1,2,2,0,0,0-1.22-.3h-1.43Zm0,1.45V369h1.74a1.67,1.67,0,0,0,1.12-.35,1.18,1.18,0,0,0,.41-.95,1.25,1.25,0,0,0-1.41-1.39Z"/><path class="cls-4" d="M378.59,360.73v6.56a3.41,3.41,0,0,1-1,2.59,4.49,4.49,0,0,1-5.5,0,3.29,3.29,0,0,1-1-2.54v-6.63h2v6.57a2,2,0,0,0,.46,1.43,1.78,1.78,0,0,0,1.29.45c1.14,0,1.72-.61,1.74-1.82v-6.63Z"/><path class="cls-4" d="M385.36,368.08a1.07,1.07,0,0,0-.4-.9,5.27,5.27,0,0,0-1.46-.65,10.21,10.21,0,0,1-1.67-.69,2.76,2.76,0,0,1-1.68-2.47,2.44,2.44,0,0,1,.45-1.44,3,3,0,0,1,1.29-1,4.93,4.93,0,0,1,1.89-.35,4.51,4.51,0,0,1,1.88.38,3,3,0,0,1,1.28,1.1,2.83,2.83,0,0,1,.46,1.6h-2a1.35,1.35,0,0,0-.43-1.07,1.73,1.73,0,0,0-1.19-.38,1.86,1.86,0,0,0-1.16.32,1,1,0,0,0,.07,1.66,5.68,5.68,0,0,0,1.43.61,6.14,6.14,0,0,1,2.52,1.31,2.61,2.61,0,0,1,.79,1.94,2.4,2.4,0,0,1-1,2,4.18,4.18,0,0,1-2.6.74,5,5,0,0,1-2.07-.42,3.34,3.34,0,0,1-1.43-1.16,3,3,0,0,1-.49-1.7h2q0,1.65,1.95,1.65a1.87,1.87,0,0,0,1.13-.29A1,1,0,0,0,385.36,368.08Z"/><path class="cls-4" d="M397.33,368.08a1.05,1.05,0,0,0-.41-.9,5.13,5.13,0,0,0-1.46-.65,10.61,10.61,0,0,1-1.67-.69,2.74,2.74,0,0,1-1.67-2.47,2.43,2.43,0,0,1,.44-1.44,3.07,3.07,0,0,1,1.3-1,4.93,4.93,0,0,1,1.89-.35,4.51,4.51,0,0,1,1.88.38,3,3,0,0,1,1.28,1.1,2.91,2.91,0,0,1,.46,1.6h-2a1.35,1.35,0,0,0-.43-1.07,1.74,1.74,0,0,0-1.2-.38,1.85,1.85,0,0,0-1.15.32,1,1,0,0,0,.07,1.66,5.75,5.75,0,0,0,1.42.61,6.13,6.13,0,0,1,2.53,1.31,2.65,2.65,0,0,1,.79,1.94,2.4,2.4,0,0,1-1,2,4.2,4.2,0,0,1-2.6.74,5,5,0,0,1-2.07-.42,3.34,3.34,0,0,1-1.43-1.16,3,3,0,0,1-.49-1.7h2q0,1.65,1.95,1.65a1.84,1.84,0,0,0,1.12-.29A1,1,0,0,0,397.33,368.08Z"/><path class="cls-4" d="M408.16,362.39h-3v8.3h-2v-8.3h-3v-1.66h8Z"/><path class="cls-4" d="M417.21,365.93a6.12,6.12,0,0,1-.51,2.58,3.86,3.86,0,0,1-1.47,1.71,4,4,0,0,1-2.2.61,4,4,0,0,1-2.18-.6,3.93,3.93,0,0,1-1.49-1.7,5.85,5.85,0,0,1-.53-2.54v-.49a6,6,0,0,1,.52-2.59,3.91,3.91,0,0,1,1.48-1.72,4.3,4.3,0,0,1,4.38,0,3.91,3.91,0,0,1,1.48,1.72,6,6,0,0,1,.52,2.58Zm-2-.45a4.23,4.23,0,0,0-.56-2.38,2,2,0,0,0-3.16,0,4.24,4.24,0,0,0-.56,2.36v.48a4.28,4.28,0,0,0,.56,2.37,1.93,1.93,0,0,0,3.16,0,4.26,4.26,0,0,0,.56-2.36Z"/><path class="cls-4" d="M420.72,367.18v3.51h-2v-10h3.84a4.31,4.31,0,0,1,2,.41,2.94,2.94,0,0,1,1.3,1.16,3.32,3.32,0,0,1,.45,1.72,2.87,2.87,0,0,1-1,2.31,4,4,0,0,1-2.74.85Zm0-1.66h1.81a1.75,1.75,0,0,0,1.23-.39,1.39,1.39,0,0,0,.42-1.09,1.68,1.68,0,0,0-.42-1.19,1.6,1.6,0,0,0-1.18-.46h-1.86Z"/><g id="arrow_2" data-name="arrow 2"><line class="cls-5" x1="299.42" y1="331.54" x2="299.42" y2="349.22"/><polygon class="cls-6" points="292.36 345.43 306.49 345.43 299 353.01 292.36 345.43"/></g><path d="M263.11,321.34H264a1.52,1.52,0,0,0,1-.34,1.22,1.22,0,0,0,.38-1,1.32,1.32,0,0,0-.32-.94,1.24,1.24,0,0,0-1-.34,1.37,1.37,0,0,0-.94.33,1.12,1.12,0,0,0-.36.87h-1.41a2.18,2.18,0,0,1,.34-1.2,2.34,2.34,0,0,1,1-.84,3.11,3.11,0,0,1,1.38-.31,2.91,2.91,0,0,1,2,.65,2.26,2.26,0,0,1,.72,1.78,1.79,1.79,0,0,1-.37,1.09,2.3,2.3,0,0,1-.93.76,2.06,2.06,0,0,1,1.06.76,2.08,2.08,0,0,1,.36,1.23,2.3,2.3,0,0,1-.78,1.83,3,3,0,0,1-2.05.68,3,3,0,0,1-2-.66,2.16,2.16,0,0,1-.78-1.75h1.41a1.19,1.19,0,0,0,.37.92,1.44,1.44,0,0,0,1,.35,1.48,1.48,0,0,0,1-.35,1.56,1.56,0,0,0,0-2.06,1.67,1.67,0,0,0-1.17-.36h-.83Z"/><path d="M268.61,322l.46-4.31h4.53V319h-3.36L270,321a2.55,2.55,0,0,1,1.32-.35,2.33,2.33,0,0,1,1.87.79,3.1,3.1,0,0,1,.67,2.1,2.86,2.86,0,0,1-.74,2.07,2.69,2.69,0,0,1-2,.77,2.8,2.8,0,0,1-1.93-.67,2.42,2.42,0,0,1-.82-1.75h1.36a1.49,1.49,0,0,0,.44,1,1.33,1.33,0,0,0,.94.33,1.19,1.19,0,0,0,1-.47,2,2,0,0,0,.36-1.28,1.77,1.77,0,0,0-.4-1.23,1.39,1.39,0,0,0-1.1-.46,1.8,1.8,0,0,0-.65.11,2,2,0,0,0-.58.4Z"/><path d="M279.35,319.92l0,.66a2.27,2.27,0,0,1,1.81-.78,1.74,1.74,0,0,1,1.73,1,2.19,2.19,0,0,1,1.92-1,2,2,0,0,1,1.55.58,2.64,2.64,0,0,1,.52,1.71v4.17h-1.41v-4.13a1.28,1.28,0,0,0-.26-.88,1.15,1.15,0,0,0-.87-.28,1.12,1.12,0,0,0-.78.26,1.31,1.31,0,0,0-.43.68v4.35h-1.4v-4.17a1,1,0,0,0-1.14-1.12,1.25,1.25,0,0,0-1.2.69v4.6H278v-6.34Z"/><path d="M288.36,318.27a.77.77,0,0,1,.21-.55.79.79,0,0,1,.59-.22.81.81,0,0,1,.59.22.77.77,0,0,1,.21.55.72.72,0,0,1-.21.53.77.77,0,0,1-.59.22.76.76,0,0,1-.59-.22A.72.72,0,0,1,288.36,318.27Zm1.5,8h-1.41v-6.34h1.41Z"/><path d="M292.7,319.92l0,.73a2.26,2.26,0,0,1,1.83-.85c1.31,0,2,.75,2,2.27v4.19h-1.4v-4.11a1.31,1.31,0,0,0-.26-.89,1.07,1.07,0,0,0-.85-.29,1.37,1.37,0,0,0-1.27.78v4.51h-1.41v-6.34Z"/><path d="M301.52,324.54a.65.65,0,0,0-.31-.58,3.1,3.1,0,0,0-1-.35,5.45,5.45,0,0,1-1.2-.39,1.62,1.62,0,0,1-1.06-1.5,1.69,1.69,0,0,1,.69-1.37,2.64,2.64,0,0,1,1.73-.55,2.82,2.82,0,0,1,1.82.56,1.78,1.78,0,0,1,.7,1.46h-1.41a.88.88,0,0,0-.3-.68,1.18,1.18,0,0,0-.81-.27,1.26,1.26,0,0,0-.75.21.68.68,0,0,0-.29.58.58.58,0,0,0,.27.51,3.64,3.64,0,0,0,1.1.37,5,5,0,0,1,1.3.44,1.85,1.85,0,0,1,.7.61,1.53,1.53,0,0,1,.23.87,1.65,1.65,0,0,1-.7,1.39,3,3,0,0,1-1.84.53,3.17,3.17,0,0,1-1.37-.28,2.27,2.27,0,0,1-.94-.78,1.78,1.78,0,0,1-.34-1.06h1.37a1,1,0,0,0,.38.78,1.76,1.76,0,0,0,1.77.06A.67.67,0,0,0,301.52,324.54Z"/><path d="M306.82,323a3.7,3.7,0,0,1,.37-1.68,2.66,2.66,0,0,1,1-1.15,2.85,2.85,0,0,1,1.52-.4,2.7,2.7,0,0,1,2.06.82,3.29,3.29,0,0,1,.86,2.2v.33a3.77,3.77,0,0,1-.36,1.68,2.64,2.64,0,0,1-1,1.14,2.82,2.82,0,0,1-1.54.41,2.72,2.72,0,0,1-2.12-.89,3.49,3.49,0,0,1-.8-2.39Zm1.41.12a2.56,2.56,0,0,0,.4,1.54,1.3,1.3,0,0,0,1.11.55,1.28,1.28,0,0,0,1.11-.56,2.83,2.83,0,0,0,.4-1.65,2.47,2.47,0,0,0-.41-1.52,1.35,1.35,0,0,0-2.2,0A2.79,2.79,0,0,0,308.23,323.15Z"/><path d="M315.15,319.92l.05.73a2.22,2.22,0,0,1,1.82-.85c1.31,0,2,.75,2,2.27v4.19h-1.41v-4.11a1.31,1.31,0,0,0-.26-.89,1,1,0,0,0-.84-.29,1.35,1.35,0,0,0-1.27.78v4.51h-1.41v-6.34Z"/><path d="M328.91,323.15a3.84,3.84,0,0,1-.65,2.36,2.11,2.11,0,0,1-1.79.87,2.05,2.05,0,0,1-1.72-.8l-.07.68h-1.27v-9h1.4v3.28a2,2,0,0,1,1.65-.73,2.16,2.16,0,0,1,1.8.86,3.9,3.9,0,0,1,.65,2.41ZM327.5,323a2.74,2.74,0,0,0-.35-1.55,1.2,1.2,0,0,0-1-.51,1.31,1.31,0,0,0-1.29.81v2.61a1.34,1.34,0,0,0,1.3.83,1.19,1.19,0,0,0,1-.5,2.58,2.58,0,0,0,.37-1.51Z"/><path d="M333.9,325.64a2.21,2.21,0,0,1-1.77.74,1.93,1.93,0,0,1-1.54-.6,2.61,2.61,0,0,1-.53-1.75v-4.11h1.41V324c0,.81.33,1.21,1,1.21a1.39,1.39,0,0,0,1.39-.75v-4.55h1.41v6.34h-1.33Z"/><path d="M340.21,324.54a.63.63,0,0,0-.31-.58,3.1,3.1,0,0,0-1-.35,5.45,5.45,0,0,1-1.2-.39,1.63,1.63,0,0,1-1.06-1.5,1.69,1.69,0,0,1,.69-1.37,2.67,2.67,0,0,1,1.74-.55,2.84,2.84,0,0,1,1.82.56,1.8,1.8,0,0,1,.69,1.46h-1.41a.88.88,0,0,0-.3-.68,1.16,1.16,0,0,0-.8-.27,1.29,1.29,0,0,0-.76.21.71.71,0,0,0-.29.58.58.58,0,0,0,.27.51,3.64,3.64,0,0,0,1.1.37,5.1,5.1,0,0,1,1.31.44,2,2,0,0,1,.7.61,1.61,1.61,0,0,1,.23.87,1.66,1.66,0,0,1-.71,1.39,3,3,0,0,1-1.83.53,3.18,3.18,0,0,1-1.38-.28,2.34,2.34,0,0,1-.94-.78,1.85,1.85,0,0,1-.33-1.06h1.36a1,1,0,0,0,.38.78,1.46,1.46,0,0,0,.92.27,1.44,1.44,0,0,0,.85-.21A.67.67,0,0,0,340.21,324.54Z"/><path class="cls-4" d="M264.05,300.73a6.12,6.12,0,0,1-.51,2.58,3.91,3.91,0,0,1-1.47,1.71,4.3,4.3,0,0,1-4.38,0,3.88,3.88,0,0,1-1.49-1.7,6,6,0,0,1-.54-2.54v-.49a6,6,0,0,1,.53-2.59,3.91,3.91,0,0,1,1.48-1.72,4.3,4.3,0,0,1,4.38,0,4,4,0,0,1,1.48,1.72,6,6,0,0,1,.52,2.58Zm-2.05-.46a4.25,4.25,0,0,0-.56-2.38,2,2,0,0,0-3.16,0,4.18,4.18,0,0,0-.56,2.36v.49a4.27,4.27,0,0,0,.56,2.36,1.91,1.91,0,0,0,3.16,0,4.24,4.24,0,0,0,.56-2.36Z"/><path class="cls-4" d="M267.69,305.48h-2v-10h2Z"/><path class="cls-4" d="M277,297.18h-3v8.3h-2v-8.3h-3v-1.66h8Z"/><path class="cls-4" d="M282.89,303.43h-3.56l-.68,2.05h-2.16l3.67-10H282l3.69,10h-2.16Zm-3-1.66h2.46L281.1,298Z"/><path class="cls-4" d="M295.21,302.87a1.08,1.08,0,0,0-.41-.9,5.59,5.59,0,0,0-1.46-.65,10.71,10.71,0,0,1-1.67-.68,2.77,2.77,0,0,1-1.68-2.47,2.42,2.42,0,0,1,.45-1.44,2.84,2.84,0,0,1,1.29-1,4.79,4.79,0,0,1,1.89-.36,4.33,4.33,0,0,1,1.88.39,3.07,3.07,0,0,1,1.29,1.09,2.9,2.9,0,0,1,.45,1.6h-2a1.34,1.34,0,0,0-.42-1.06,1.73,1.73,0,0,0-1.2-.38,1.88,1.88,0,0,0-1.16.31,1,1,0,0,0-.41.84,1,1,0,0,0,.48.82,5.48,5.48,0,0,0,1.43.61,6.27,6.27,0,0,1,2.52,1.31,2.61,2.61,0,0,1,.79,1.94,2.41,2.41,0,0,1-1,2,4.23,4.23,0,0,1-2.61.74,5,5,0,0,1-2.07-.42,3.24,3.24,0,0,1-1.42-1.16,2.92,2.92,0,0,1-.49-1.69h2q0,1.65,1.95,1.65a1.87,1.87,0,0,0,1.13-.3A1,1,0,0,0,295.21,302.87Z"/><path class="cls-4" d="M306,297.18h-3v8.3h-2v-8.3h-3v-1.66h8Z"/><path class="cls-4" d="M311.94,303.43h-3.56l-.68,2.05h-2.16l3.67-10h1.88l3.69,10h-2.16Zm-3-1.66h2.46L310.15,298Z"/><path class="cls-4" d="M322.3,297.18h-3v8.3h-2v-8.3h-3v-1.66h8Z"/><path class="cls-4" d="M325.62,305.48h-2v-10h2Z"/><path class="cls-4" d="M335.59,300.73a6,6,0,0,1-.52,2.58A3.91,3.91,0,0,1,333.6,305a4.3,4.3,0,0,1-4.38,0,3.94,3.94,0,0,1-1.49-1.7,5.82,5.82,0,0,1-.53-2.54v-.49a6,6,0,0,1,.52-2.59,3.93,3.93,0,0,1,1.49-1.72,4,4,0,0,1,2.18-.6,4,4,0,0,1,2.19.6,3.91,3.91,0,0,1,1.48,1.72,6,6,0,0,1,.53,2.58Zm-2.06-.46a4.25,4.25,0,0,0-.55-2.38,2,2,0,0,0-3.16,0,4.18,4.18,0,0,0-.56,2.36v.49a4.27,4.27,0,0,0,.55,2.36,1.92,1.92,0,0,0,3.17,0,4.24,4.24,0,0,0,.55-2.36Z"/><path class="cls-4" d="M345.07,305.48h-2l-4-6.55v6.55h-2v-10h2l4,6.57v-6.57h2Z"/></g><polyline id="big_arrow" data-name="big arrow" class="cls-5" points="100.17 209.5 100.17 265.7 443 265.7 443 248.5"/></g></g></g></svg>