<svg xmlns="http://www.w3.org/2000/svg" viewBox="0 0 600 255"><defs><style>.cls-1{fill:#fff;}.cls-2{fill:#6678a8;}.cls-3{fill:#65a4c3;}.cls-4{fill:none;stroke:#b4d9b9;stroke-miterlimit:10;stroke-width:2px;}.cls-5{fill:#b4d9b9;}</style></defs><title>Sapporo</title><g id="Layer_2" data-name="Layer 2"><g id="Layer_1-2" data-name="Layer 1"><g id="Sapporo"><g id="Shizuoka"><g id="box"><rect class="cls-1" width="599.65" height="255"/></g><g id="stadium"><rect class="cls-2" x="446.97" y="91.79" width="152.83" height="154.06"/><path class="cls-1" d="M536.68,140.45v-3.58h.83a4.2,4.2,0,0,0,4.2-4.2.85.85,0,0,0-.84-.84h-5a.84.84,0,0,0-.84.84V140a55.47,55.47,0,0,0-8.76-1.25c-1.61-.12-3.26-.19-4.92-.2v-3.37h.84a4.2,4.2,0,0,0,4.2-4.2.85.85,0,0,0-.84-.84h-5a.84.84,0,0,0-.83.84v7.57c-1.66,0-3.32.08-4.92.2A55.47,55.47,0,0,0,506,140v-3.14h.84a4.18,4.18,0,0,0,4.19-4.2.84.84,0,0,0-.83-.84h-5a.85.85,0,0,0-.84.84v7.78c-3.5,1.05-5.28,2.38-5.28,4v15.12c0,1.28,1.14,2.39,3.39,3.32,3.62,1.48,9.06,2.15,13,2.4,1.66.1,3.37.16,5.08.16s3.42-.06,5.09-.16c3.89-.25,9.37-.91,13-2.4,2.25-.93,3.39-2,3.39-3.32V144.43C542,142.83,540.18,141.5,536.68,140.45Zm0-6.94h3.21a2.55,2.55,0,0,1-2.38,1.68h-.83Zm-15.36-1.68h3.22a2.6,2.6,0,0,1-.6.94,2.48,2.48,0,0,1-1.78.74h-.84ZM506,133.51h3.21a2.45,2.45,0,0,1-.59.94,2.5,2.5,0,0,1-1.78.74H506Zm20.68,7a54.7,54.7,0,0,1,7.44,1.06l-3.72,2.66c-1.73-.24-3.73-.41-5.86-.51Zm-6.17-.24c1.43,0,2.84,0,4.24.11l-2.18,3.27c-1.36,0-2.75,0-4.11,0l-2.18-3.27C517.65,140.27,519.06,140.23,520.48,140.23Zm-6.16.24,2.14,3.21c-2.13.1-4.13.27-5.86.51l-3.72-2.66A54.7,54.7,0,0,1,514.32,140.47Zm-9.57,1.6,3.52,2.51a17.15,17.15,0,0,0-2,.54c-.74.27-1.73.71-1.92,1.55-2.85-.9-3.67-1.81-3.67-2.24S501.55,143,504.75,142.07Zm4.58,20.85c-6.28-1-8.64-2.58-8.64-3.37v-2.61a10.27,10.27,0,0,0,1.73.88,33.28,33.28,0,0,0,6.91,1.75Zm0-5a29.83,29.83,0,0,1-6.27-1.61c-1.75-.71-2.37-1.39-2.37-1.75v-2.6a10.41,10.41,0,0,0,1.71.88,32,32,0,0,0,6.93,1.75Zm0-5c-6.28-1-8.64-2.58-8.64-3.37v-2.59a18.14,18.14,0,0,0,5.77,2.08c.89.2,1.85.38,2.87.54Zm5.28,10.69c-1.24-.09-2.45-.22-3.61-.37v-3.35c1.16.15,2.37.27,3.61.36Zm.1-5c-1.28-.09-2.52-.22-3.71-.38v-3.33c1.74.22,3.59.38,5.48.47l-.09.08A5.79,5.79,0,0,0,514.71,158.49ZM511,153.08v-3.34a76.2,76.2,0,0,0,8.65.56v3.36A73.55,73.55,0,0,1,511,153.08Zm13.68,10.56c-1.11.06-2.23.09-3.36.1v-2.51a.84.84,0,1,0-1.67,0v2.51c-1.13,0-2.25,0-3.36-.1v-4.22a4.2,4.2,0,0,1,8.39,0v4.22Zm5.28-.48c-1.15.15-2.36.28-3.6.37v-3.36c1.24-.09,2.45-.21,3.6-.36Zm0-5c-1.18.16-2.42.29-3.7.38a5.91,5.91,0,0,0-1.62-3.1l-.15-.14c1.89-.09,3.74-.25,5.47-.47v3.33Zm0-5a73.23,73.23,0,0,1-8.64.58V150.3a75.87,75.87,0,0,0,8.64-.56Zm-9.48-4.45a74.26,74.26,0,0,1-10.19-.68c-1.13-.16-2.2-.35-3.19-.57l-.16-.07a4.51,4.51,0,0,1-.73-.33c2.23-1.22,9.24-1.61,11.8-1.68,1.62,0,3.32,0,5,0a67.7,67.7,0,0,1,7.53.6,13.85,13.85,0,0,1,4.26,1.08,6.11,6.11,0,0,1-1,.44c-1,.2-2,.37-3,.53A74.3,74.3,0,0,1,520.48,148.63Zm19.8,10.92c0,.79-2.36,2.35-8.64,3.37v-3.35a33.28,33.28,0,0,0,6.91-1.75,10.67,10.67,0,0,0,1.73-.88Zm0-5c0,.36-.62,1-2.37,1.75a30,30,0,0,1-6.27,1.61v-3.33a32,32,0,0,0,6.93-1.75,10.41,10.41,0,0,0,1.71-.88Zm0-5c0,.79-2.36,2.36-8.64,3.37V149.5c2.58-.4,6.47-1.2,8.64-2.62Zm-3.67-2.8c-.2-.85-1.21-1.3-2-1.57a15.51,15.51,0,0,0-1.93-.51l3.52-2.52c3.19,1,4.06,1.92,4.06,2.36S539.45,145.77,536.61,146.67Z"/><path class="cls-1" d="M495.55,184.27a1.06,1.06,0,0,0-.41-.89,5.42,5.42,0,0,0-1.48-.66A10.11,10.11,0,0,1,492,182a2.77,2.77,0,0,1-1.69-2.47,2.35,2.35,0,0,1,.46-1.43,2.81,2.81,0,0,1,1.3-1,4.85,4.85,0,0,1,1.91-.36,4.45,4.45,0,0,1,1.9.39,3.07,3.07,0,0,1,1.29,1.09,2.83,2.83,0,0,1,.46,1.6h-2.05a1.32,1.32,0,0,0-.43-1.06,1.72,1.72,0,0,0-1.21-.38,1.86,1.86,0,0,0-1.16.31,1,1,0,0,0-.42.84.94.94,0,0,0,.49.81,5.25,5.25,0,0,0,1.44.62,6.18,6.18,0,0,1,2.54,1.31,2.59,2.59,0,0,1,.8,1.94,2.37,2.37,0,0,1-1,2A4.24,4.24,0,0,1,494,187a5,5,0,0,1-2.09-.42,3.35,3.35,0,0,1-1.44-1.15,3,3,0,0,1-.5-1.7H492c0,1.1.65,1.65,2,1.65a1.93,1.93,0,0,0,1.14-.3A1,1,0,0,0,495.55,184.27Z"/><path class="cls-1" d="M504.6,184.83H501l-.68,2h-2.18l3.7-9.95h1.9l3.72,9.95h-2.18Zm-3-1.66h2.49l-1.25-3.73Z"/><path class="cls-1" d="M510.45,183.38v3.5H508.4v-9.95h3.88a4.56,4.56,0,0,1,2,.41,3,3,0,0,1,1.3,1.16,3.23,3.23,0,0,1,.46,1.72,2.85,2.85,0,0,1-1,2.31,4.19,4.19,0,0,1-2.77.85Zm0-1.67h1.83a1.79,1.79,0,0,0,1.24-.38,1.39,1.39,0,0,0,.42-1.09,1.66,1.66,0,0,0-.43-1.19,1.6,1.6,0,0,0-1.19-.46h-1.87Z"/><path class="cls-1" d="M519.47,183.38v3.5h-2.05v-9.95h3.88a4.56,4.56,0,0,1,2,.41,3,3,0,0,1,1.3,1.16,3.23,3.23,0,0,1,.46,1.72,2.85,2.85,0,0,1-1,2.31,4.19,4.19,0,0,1-2.77.85Zm0-1.67h1.83a1.79,1.79,0,0,0,1.24-.38,1.39,1.39,0,0,0,.42-1.09,1.66,1.66,0,0,0-.43-1.19,1.6,1.6,0,0,0-1.19-.46h-1.87Z"/><path class="cls-1" d="M534.61,182.13a6.12,6.12,0,0,1-.52,2.58,4,4,0,0,1-1.49,1.71,4.37,4.37,0,0,1-4.42,0,3.86,3.86,0,0,1-1.5-1.69,5.75,5.75,0,0,1-.54-2.54v-.5a5.83,5.83,0,0,1,.53-2.58,3.93,3.93,0,0,1,1.49-1.72,4.37,4.37,0,0,1,4.42,0,4,4,0,0,1,1.5,1.72,6,6,0,0,1,.53,2.58Zm-2.08-.45a4.23,4.23,0,0,0-.56-2.38,1.83,1.83,0,0,0-1.6-.81,1.8,1.8,0,0,0-1.59.8,4.23,4.23,0,0,0-.57,2.36v.48a4.28,4.28,0,0,0,.56,2.37,1.83,1.83,0,0,0,1.62.84,1.81,1.81,0,0,0,1.58-.81,4.18,4.18,0,0,0,.56-2.36Z"/><path class="cls-1" d="M539.77,183.24h-1.63v3.64h-2v-9.95h3.7a4.22,4.22,0,0,1,2.72.78,2.75,2.75,0,0,1,1,2.23,2.78,2.78,0,0,1-1.77,2.78l2.15,4.07v.09h-2.2Zm-1.63-1.66h1.65a1.66,1.66,0,0,0,1.2-.4,1.4,1.4,0,0,0,.42-1.08A1.5,1.5,0,0,0,541,179a1.63,1.63,0,0,0-1.22-.4h-1.65Z"/><path class="cls-1" d="M553.19,182.13a6.12,6.12,0,0,1-.52,2.58,4,4,0,0,1-1.49,1.71,4.37,4.37,0,0,1-4.42,0,3.86,3.86,0,0,1-1.5-1.69,5.75,5.75,0,0,1-.54-2.54v-.5a5.83,5.83,0,0,1,.53-2.58,3.93,3.93,0,0,1,1.49-1.72,4.37,4.37,0,0,1,4.42,0,4,4,0,0,1,1.5,1.72,6,6,0,0,1,.53,2.58Zm-2.08-.45a4.23,4.23,0,0,0-.56-2.38,1.83,1.83,0,0,0-1.6-.81,1.8,1.8,0,0,0-1.59.8,4.23,4.23,0,0,0-.57,2.36v.48a4.28,4.28,0,0,0,.56,2.37,1.83,1.83,0,0,0,1.62.84,1.81,1.81,0,0,0,1.58-.81,4.18,4.18,0,0,0,.56-2.36Z"/><path class="cls-1" d="M504.84,203.68v-10h3.06a4.69,4.69,0,0,1,2.35.59,4,4,0,0,1,1.61,1.68,5.16,5.16,0,0,1,.58,2.48v.46a5.23,5.23,0,0,1-.57,2.47,4.11,4.11,0,0,1-1.61,1.67,4.58,4.58,0,0,1-2.34.6Zm2.05-8.29V202h1a2.25,2.25,0,0,0,1.84-.78,3.61,3.61,0,0,0,.65-2.25v-.53a3.6,3.6,0,0,0-.63-2.3,2.22,2.22,0,0,0-1.84-.78Z"/><path class="cls-1" d="M522.1,198.93a6,6,0,0,1-.52,2.58,3.9,3.9,0,0,1-1.49,1.71,4.37,4.37,0,0,1-4.42,0,4,4,0,0,1-1.5-1.69,6,6,0,0,1-.54-2.54v-.5a6,6,0,0,1,.53-2.58,3.89,3.89,0,0,1,1.5-1.72,4.35,4.35,0,0,1,4.41,0,3.89,3.89,0,0,1,1.5,1.72,6,6,0,0,1,.53,2.58Zm-2.08-.45a4.15,4.15,0,0,0-.56-2.38,2,2,0,0,0-3.19,0,4.15,4.15,0,0,0-.56,2.36v.48a4.2,4.2,0,0,0,.56,2.37,1.81,1.81,0,0,0,1.61.84,1.79,1.79,0,0,0,1.58-.81A4.19,4.19,0,0,0,520,199Z"/><path class="cls-1" d="M526.26,193.73l2.56,7.22,2.54-7.22h2.69v10H532V201l.21-4.7-2.69,7.42h-1.4l-2.68-7.41.21,4.69v2.72h-2v-10Z"/><path class="cls-1" d="M541.82,199.37h-3.93V202h4.61v1.65h-6.66v-10h6.65v1.66h-4.6v2.37h3.93Z"/></g><g id="arrival_station" data-name="arrival station"><path d="M12.76,100.49a2.27,2.27,0,0,1-3.42,0,3.13,3.13,0,0,1-.66-2.07A3.5,3.5,0,0,1,9,96.86a2.56,2.56,0,0,1,1-1.07,2.7,2.7,0,0,1,1.43-.38,2.44,2.44,0,0,1,2,1A4.14,4.14,0,0,1,14.17,99v.39a5.31,5.31,0,0,1-1,3.53,3.91,3.91,0,0,1-3.07,1.23H9.9v-1.18h.2a2.85,2.85,0,0,0,1.91-.61A2.54,2.54,0,0,0,12.76,100.49Zm-1.36-.36a1.44,1.44,0,0,0,.8-.24,1.66,1.66,0,0,0,.57-.68v-.56a2.76,2.76,0,0,0-.38-1.52,1.16,1.16,0,0,0-1-.57,1.12,1.12,0,0,0-1,.51,2.47,2.47,0,0,0,0,2.57A1.14,1.14,0,0,0,11.4,100.13Z"/><path d="M21,100.47a4.69,4.69,0,0,1-.68,2.77,2.39,2.39,0,0,1-2.07.94,2.44,2.44,0,0,1-2.06-.91,4.51,4.51,0,0,1-.71-2.7V99.09a4.61,4.61,0,0,1,.68-2.76,2.41,2.41,0,0,1,2.07-.92,2.42,2.42,0,0,1,2.07.9A4.49,4.49,0,0,1,21,99ZM19.6,98.88a3.77,3.77,0,0,0-.32-1.77,1.24,1.24,0,0,0-2.05,0,3.46,3.46,0,0,0-.34,1.66v1.93a3.8,3.8,0,0,0,.33,1.79,1.11,1.11,0,0,0,1,.58,1.09,1.09,0,0,0,1-.54,3.47,3.47,0,0,0,.34-1.7Z"/><path d="M25.07,101H22V99.86h3Z"/><path d="M30,104.06h-1.4V97.21l-2.07.71v-1.2l3.29-1.22H30Z"/><path d="M38.39,100.47a4.69,4.69,0,0,1-.68,2.77,2.4,2.4,0,0,1-2.08.94,2.46,2.46,0,0,1-2.06-.91,4.51,4.51,0,0,1-.7-2.7V99.09a4.61,4.61,0,0,1,.68-2.76,2.41,2.41,0,0,1,2.07-.92,2.43,2.43,0,0,1,2.07.9,4.56,4.56,0,0,1,.7,2.68ZM37,98.88a3.63,3.63,0,0,0-.33-1.77,1.23,1.23,0,0,0-2,0,3.35,3.35,0,0,0-.34,1.66v1.93a3.8,3.8,0,0,0,.33,1.79,1.21,1.21,0,0,0,2,0,3.59,3.59,0,0,0,.34-1.7Z"/><path d="M40,99.83l.46-4.3H45v1.23H41.64l-.24,2a2.58,2.58,0,0,1,1.33-.34,2.34,2.34,0,0,1,1.87.78,3.1,3.1,0,0,1,.67,2.1,2.9,2.9,0,0,1-.74,2.07,2.71,2.71,0,0,1-2,.77,2.79,2.79,0,0,1-1.92-.67,2.42,2.42,0,0,1-.82-1.75h1.36a1.49,1.49,0,0,0,.44.95,1.33,1.33,0,0,0,.94.33,1.21,1.21,0,0,0,1-.47,2,2,0,0,0,.36-1.28,1.79,1.79,0,0,0-.4-1.23,1.4,1.4,0,0,0-1.1-.45,1.81,1.81,0,0,0-.65.1,1.84,1.84,0,0,0-.58.4Z"/><path d="M50.74,97.72l0,.66a2.25,2.25,0,0,1,1.81-.78,1.73,1.73,0,0,1,1.72,1,2.22,2.22,0,0,1,1.92-1,2,2,0,0,1,1.55.58,2.59,2.59,0,0,1,.52,1.71v4.17H56.89V99.94a1.3,1.3,0,0,0-.26-.89,1.13,1.13,0,0,0-.86-.28A1.17,1.17,0,0,0,55,99a1.45,1.45,0,0,0-.43.68v4.35H53.15V99.89A1,1,0,0,0,52,98.77a1.24,1.24,0,0,0-1.2.7v4.59h-1.4V97.72Z"/><path d="M59.74,96.07a.75.75,0,0,1,.21-.54.76.76,0,0,1,.59-.22.77.77,0,0,1,.59.22.75.75,0,0,1,.21.54.73.73,0,0,1-.21.54.8.8,0,0,1-.59.21.79.79,0,0,1-.59-.21A.73.73,0,0,1,59.74,96.07Zm1.5,8H59.83V97.72h1.41Z"/><path d="M64.08,97.72l0,.73a2.25,2.25,0,0,1,1.82-.85c1.31,0,2,.76,2,2.27v4.19H66.53V100a1.31,1.31,0,0,0-.26-.89,1.08,1.08,0,0,0-.84-.29,1.36,1.36,0,0,0-1.27.78v4.51H62.75V97.72Z"/><path d="M72.88,102.34a.63.63,0,0,0-.31-.58,3,3,0,0,0-1-.35,5.53,5.53,0,0,1-1.19-.39,1.61,1.61,0,0,1-1.06-1.49A1.72,1.72,0,0,1,70,98.15a2.74,2.74,0,0,1,1.74-.55,2.77,2.77,0,0,1,1.82.57,1.78,1.78,0,0,1,.69,1.45H72.81a.88.88,0,0,0-.3-.68,1.16,1.16,0,0,0-.8-.27,1.17,1.17,0,0,0-.75.22.67.67,0,0,0-.3.58.57.57,0,0,0,.28.51,3.7,3.7,0,0,0,1.1.36,5.58,5.58,0,0,1,1.3.44,1.93,1.93,0,0,1,.7.61,1.61,1.61,0,0,1,.23.87,1.69,1.69,0,0,1-.7,1.39,3,3,0,0,1-1.84.53,3.32,3.32,0,0,1-1.37-.28,2.27,2.27,0,0,1-.94-.78,1.81,1.81,0,0,1-.34-1.06h1.37a1,1,0,0,0,.38.78,1.44,1.44,0,0,0,.92.27,1.41,1.41,0,0,0,.84-.21A.66.66,0,0,0,72.88,102.34Z"/><path d="M78.18,100.83a3.7,3.7,0,0,1,.37-1.68,2.72,2.72,0,0,1,1-1.15,3,3,0,0,1,1.52-.4,2.73,2.73,0,0,1,2.06.83,3.24,3.24,0,0,1,.85,2.19V101a3.76,3.76,0,0,1-.36,1.67,2.57,2.57,0,0,1-1,1.14,2.87,2.87,0,0,1-1.53.41,2.69,2.69,0,0,1-2.12-.9,3.44,3.44,0,0,1-.8-2.38Zm1.41.13a2.55,2.55,0,0,0,.4,1.53,1.3,1.3,0,0,0,1.11.55,1.28,1.28,0,0,0,1.11-.56,2.83,2.83,0,0,0,.4-1.65,2.54,2.54,0,0,0-.41-1.52,1.37,1.37,0,0,0-2.2,0A2.8,2.8,0,0,0,79.59,101Z"/><path d="M86.51,97.72l0,.73a2.25,2.25,0,0,1,1.82-.85c1.31,0,2,.76,2,2.27v4.19H89V100a1.31,1.31,0,0,0-.26-.89,1.08,1.08,0,0,0-.84-.29,1.36,1.36,0,0,0-1.27.78v4.51H85.18V97.72Z"/><path d="M98.5,104.06a2.08,2.08,0,0,1-.16-.59,2.2,2.2,0,0,1-1.65.71,2.17,2.17,0,0,1-1.54-.55,1.73,1.73,0,0,1-.6-1.34,1.8,1.8,0,0,1,.75-1.56,3.56,3.56,0,0,1,2.13-.54h.86v-.42A1.13,1.13,0,0,0,98,99a1.1,1.1,0,0,0-.83-.29,1.26,1.26,0,0,0-.79.24.77.77,0,0,0-.31.62h-1.4a1.6,1.6,0,0,1,.34-1,2.31,2.31,0,0,1,.93-.71,3.26,3.26,0,0,1,1.31-.26,2.65,2.65,0,0,1,1.76.56,2,2,0,0,1,.67,1.58v2.86a3.22,3.22,0,0,0,.24,1.36v.1ZM97,103a1.58,1.58,0,0,0,.79-.21,1.39,1.39,0,0,0,.55-.55v-1.2h-.76a2.06,2.06,0,0,0-1.17.28.88.88,0,0,0-.4.78.83.83,0,0,0,.27.65A1,1,0,0,0,97,103Z"/><path d="M101.17,96.07a.75.75,0,0,1,.21-.54.76.76,0,0,1,.59-.22.77.77,0,0,1,.59.22.75.75,0,0,1,.21.54.73.73,0,0,1-.21.54.8.8,0,0,1-.59.21.79.79,0,0,1-.59-.21A.73.73,0,0,1,101.17,96.07Zm1.5,8h-1.41V97.72h1.41Z"/><path d="M107.48,99a3.45,3.45,0,0,0-.57,0,1.28,1.28,0,0,0-1.3.75v4.34H104.2V97.72h1.34l0,.71A1.59,1.59,0,0,1,107,97.6a1.21,1.21,0,0,1,.5.09Z"/><path d="M113.86,101a3.78,3.78,0,0,1-.66,2.34,2.26,2.26,0,0,1-3.42.19v3h-1.41V97.72h1.3l.06.65a2,2,0,0,1,1.68-.77,2.11,2.11,0,0,1,1.8.87,3.91,3.91,0,0,1,.65,2.4Zm-1.4-.13a2.73,2.73,0,0,0-.37-1.5,1.22,1.22,0,0,0-1.07-.56,1.29,1.29,0,0,0-1.24.72v2.81A1.3,1.3,0,0,0,111,103a1.19,1.19,0,0,0,1-.55A3,3,0,0,0,112.46,100.83Z"/><path d="M116.55,104.06h-1.41v-9h1.41Z"/><path d="M121.83,104.06a2,2,0,0,1-.17-.59,2.33,2.33,0,0,1-3.18.16,1.73,1.73,0,0,1-.6-1.34,1.8,1.8,0,0,1,.75-1.56,3.55,3.55,0,0,1,2.12-.54h.87v-.42a1.13,1.13,0,0,0-.27-.79,1.12,1.12,0,0,0-.83-.29,1.24,1.24,0,0,0-.79.24.74.74,0,0,0-.31.62H118a1.61,1.61,0,0,1,.35-1,2.18,2.18,0,0,1,.93-.71,3.26,3.26,0,0,1,1.31-.26,2.61,2.61,0,0,1,1.75.56,2,2,0,0,1,.68,1.58v2.86a3.23,3.23,0,0,0,.23,1.36v.1Zm-1.55-1a1.52,1.52,0,0,0,.78-.21,1.41,1.41,0,0,0,.56-.55v-1.2h-.76a2.12,2.12,0,0,0-1.18.28.89.89,0,0,0-.39.78.83.83,0,0,0,.27.65A1,1,0,0,0,120.28,103Z"/><path d="M125.81,97.72l0,.73a2.25,2.25,0,0,1,1.82-.85c1.31,0,2,.76,2,2.27v4.19h-1.4V100a1.31,1.31,0,0,0-.26-.89,1.09,1.09,0,0,0-.85-.29,1.34,1.34,0,0,0-1.26.78v4.51h-1.41V97.72Z"/><path d="M133.86,104.18a2.92,2.92,0,0,1-2.17-.85,3.11,3.11,0,0,1-.83-2.28v-.17a3.89,3.89,0,0,1,.36-1.7,2.75,2.75,0,0,1,1-1.16,2.62,2.62,0,0,1,1.46-.42,2.43,2.43,0,0,1,2,.83,3.5,3.5,0,0,1,.7,2.34v.57h-4.09a1.84,1.84,0,0,0,.52,1.24,1.51,1.51,0,0,0,1.14.46,1.91,1.91,0,0,0,1.58-.79l.75.73a2.44,2.44,0,0,1-1,.88A3.11,3.11,0,0,1,133.86,104.18Zm-.17-5.43a1.17,1.17,0,0,0-.94.41,2.21,2.21,0,0,0-.45,1.14H135v-.11a1.76,1.76,0,0,0-.37-1.08A1.19,1.19,0,0,0,133.69,98.75Z"/><path class="cls-3" d="M17,86.8H15V82.53H11V86.8H9v-10h2v4h4v-4h2Z"/><path class="cls-3" d="M24.47,84.75H20.92l-.68,2H18.08l3.67-10h1.88l3.68,10H25.15Zm-3-1.66h2.46l-1.23-3.73Z"/><path class="cls-3" d="M36.23,86.8h-2l-3.94-6.55V86.8h-2v-10h2l3.95,6.56V76.85h2Z"/><path class="cls-3" d="M43.92,82.49H40v2.66H44.6V86.8H38v-10h6.58v1.66H40v2.37h3.89Z"/><path class="cls-3" d="M45.79,86.8v-10h3a4.54,4.54,0,0,1,2.33.59,4,4,0,0,1,1.59,1.68,5.16,5.16,0,0,1,.58,2.48v.45a5.2,5.2,0,0,1-.57,2.47,4,4,0,0,1-1.59,1.68,4.71,4.71,0,0,1-2.32.6Zm2-8.29v6.64h1a2.19,2.19,0,0,0,1.82-.78,3.61,3.61,0,0,0,.64-2.25v-.53a3.6,3.6,0,0,0-.62-2.3,2.18,2.18,0,0,0-1.82-.78Z"/><path class="cls-3" d="M60.34,84.75H56.78l-.67,2H54l3.66-10h1.88l3.69,10H61Zm-3-1.66h2.46l-1.24-3.73Z"/><path class="cls-3" d="M73.1,84.75H69.54l-.67,2H66.71l3.66-10h1.88l3.69,10H73.78Zm-3-1.66h2.46l-1.24-3.73Z"/><path class="cls-3" d="M79,86.8H77v-10h2Z"/><path class="cls-3" d="M84.53,83.16H82.92V86.8h-2v-10h3.66a4.15,4.15,0,0,1,2.69.78,2.74,2.74,0,0,1,.94,2.22,3,3,0,0,1-.44,1.7,3,3,0,0,1-1.32,1.09l2.13,4.06v.1H86.38Zm-1.61-1.67h1.63a1.69,1.69,0,0,0,1.19-.39A1.43,1.43,0,0,0,86.15,80a1.53,1.53,0,0,0-.39-1.11,1.64,1.64,0,0,0-1.21-.4H82.92Z"/><path class="cls-3" d="M91.75,83.29V86.8h-2v-10h3.84a4.31,4.31,0,0,1,2,.41,3,3,0,0,1,1.29,1.16,3.21,3.21,0,0,1,.46,1.72,2.88,2.88,0,0,1-1,2.31,4.12,4.12,0,0,1-2.74.84Zm0-1.66h1.81a1.79,1.79,0,0,0,1.23-.38,1.42,1.42,0,0,0,.42-1.1A1.63,1.63,0,0,0,94.78,79a1.56,1.56,0,0,0-1.17-.46H91.75Z"/><path class="cls-3" d="M106.73,82.05a6,6,0,0,1-.51,2.57,3.86,3.86,0,0,1-1.47,1.71,4,4,0,0,1-2.19.61,4,4,0,0,1-2.19-.6,3.91,3.91,0,0,1-1.48-1.7,5.82,5.82,0,0,1-.54-2.54v-.49A6.05,6.05,0,0,1,98.88,79a3.94,3.94,0,0,1,1.48-1.71,4,4,0,0,1,2.18-.6,4,4,0,0,1,2.19.6A3.94,3.94,0,0,1,106.21,79a6,6,0,0,1,.52,2.58Zm-2-.45a4.2,4.2,0,0,0-.56-2.38,1.93,1.93,0,0,0-3.15,0,4.12,4.12,0,0,0-.56,2.35v.49a4.27,4.27,0,0,0,.55,2.36,1.8,1.8,0,0,0,1.6.84,1.76,1.76,0,0,0,1.56-.81,4.24,4.24,0,0,0,.56-2.36Z"/><path class="cls-3" d="M111.85,83.16h-1.62V86.8h-2v-10h3.65a4.11,4.11,0,0,1,2.69.78,2.75,2.75,0,0,1,1,2.22,3.09,3.09,0,0,1-.44,1.7,3,3,0,0,1-1.32,1.09l2.13,4.06v.1h-2.18Zm-1.62-1.67h1.64a1.66,1.66,0,0,0,1.18-.39,1.4,1.4,0,0,0,.42-1.08,1.53,1.53,0,0,0-.39-1.11,1.65,1.65,0,0,0-1.22-.4h-1.63Z"/><path class="cls-3" d="M124.11,78.51h-3V86.8h-2V78.51h-3V76.85h8Z"/><path class="cls-3" d="M125.75,87.65H124.3l3.62-10.8h1.45Z"/><path class="cls-3" d="M141.88,86.8h-2l-4-6.55V86.8h-2v-10h2l4,6.56V76.85h2Z"/><path class="cls-3" d="M149.21,84.75h-3.56l-.67,2h-2.16l3.67-10h1.87l3.69,10h-2.16Zm-3-1.66h2.46l-1.24-3.73Z"/><path class="cls-3" d="M156.61,83.16H155V86.8h-2v-10h3.65a4.13,4.13,0,0,1,2.69.78,2.75,2.75,0,0,1,.95,2.22,3.09,3.09,0,0,1-.44,1.7,3,3,0,0,1-1.32,1.09l2.13,4.06v.1h-2.18ZM155,81.49h1.64a1.66,1.66,0,0,0,1.18-.39,1.4,1.4,0,0,0,.42-1.08,1.53,1.53,0,0,0-.39-1.11,1.65,1.65,0,0,0-1.22-.4H155Z"/><path class="cls-3" d="M164,86.8h-2v-10h2Z"/><path class="cls-3" d="M173.24,78.51h-3V86.8h-2V78.51h-3V76.85h8Z"/><path class="cls-3" d="M179.14,84.75h-3.55l-.68,2h-2.16l3.67-10h1.88l3.68,10h-2.16Zm-3-1.66h2.46l-1.23-3.73Z"/><path class="cls-3" d="M191.9,84.75h-3.55l-.68,2h-2.16l3.67-10h1.88l3.68,10h-2.16Zm-3-1.66h2.46l-1.23-3.73Z"/><path class="cls-3" d="M197.81,86.8h-2v-10h2Z"/><path class="cls-3" d="M203.34,83.16h-1.62V86.8h-2v-10h3.66a4.13,4.13,0,0,1,2.69.78,2.75,2.75,0,0,1,1,2.22,3.09,3.09,0,0,1-.44,1.7,3,3,0,0,1-1.32,1.09l2.13,4.06v.1h-2.18Zm-1.62-1.67h1.64a1.68,1.68,0,0,0,1.18-.39A1.4,1.4,0,0,0,205,80a1.5,1.5,0,0,0-.4-1.11,1.62,1.62,0,0,0-1.21-.4h-1.63Z"/><path class="cls-3" d="M210.55,83.29V86.8h-2v-10h3.83a4.31,4.31,0,0,1,1.95.41,3,3,0,0,1,1.3,1.16,3.29,3.29,0,0,1,.45,1.72,2.88,2.88,0,0,1-1,2.31,4.1,4.1,0,0,1-2.74.84Zm0-1.66h1.81a1.79,1.79,0,0,0,1.23-.38,1.42,1.42,0,0,0,.42-1.1,1.67,1.67,0,0,0-.42-1.18,1.6,1.6,0,0,0-1.18-.46h-1.86Z"/><path class="cls-3" d="M225.54,82.05a6,6,0,0,1-.52,2.57,3.86,3.86,0,0,1-1.47,1.71,4,4,0,0,1-2.19.61,4,4,0,0,1-2.18-.6,3.93,3.93,0,0,1-1.49-1.7,5.82,5.82,0,0,1-.53-2.54v-.49a6,6,0,0,1,.52-2.59,3.94,3.94,0,0,1,1.48-1.71,4,4,0,0,1,2.19-.6,4,4,0,0,1,2.18.6A3.94,3.94,0,0,1,225,79a6,6,0,0,1,.53,2.58Zm-2.06-.45a4.21,4.21,0,0,0-.55-2.38,1.94,1.94,0,0,0-3.16,0,4.2,4.2,0,0,0-.56,2.35v.49a4.36,4.36,0,0,0,.55,2.36,1.81,1.81,0,0,0,1.6.84,1.79,1.79,0,0,0,1.57-.81,4.24,4.24,0,0,0,.55-2.36Z"/><path class="cls-3" d="M230.65,83.16H229V86.8h-2v-10h3.66a4.13,4.13,0,0,1,2.69.78,2.74,2.74,0,0,1,.94,2.22,3.09,3.09,0,0,1-.43,1.7,3,3,0,0,1-1.32,1.09l2.12,4.06v.1H232.5ZM229,81.49h1.63a1.69,1.69,0,0,0,1.19-.39,1.4,1.4,0,0,0,.42-1.08,1.54,1.54,0,0,0-.4-1.11,1.62,1.62,0,0,0-1.21-.4H229Z"/><path class="cls-3" d="M242.91,78.51h-3V86.8h-2V78.51h-3V76.85h8Z"/></g><g id="arrival_station-2" data-name="arrival station"><path d="M269.1,168.06h-1.4v-6.85l-2.07.71v-1.2l3.29-1.22h.18Z"/><path d="M277.53,164.47a4.69,4.69,0,0,1-.68,2.77,2.37,2.37,0,0,1-2.07.94,2.44,2.44,0,0,1-2.06-.91,4.51,4.51,0,0,1-.71-2.7v-1.48a4.68,4.68,0,0,1,.68-2.76,2.81,2.81,0,0,1,4.14,0,4.42,4.42,0,0,1,.7,2.68Zm-1.41-1.59a3.64,3.64,0,0,0-.32-1.77,1.24,1.24,0,0,0-2.05,0,3.46,3.46,0,0,0-.34,1.66v1.93a3.8,3.8,0,0,0,.33,1.79,1.11,1.11,0,0,0,1,.58,1.08,1.08,0,0,0,1-.54,3.47,3.47,0,0,0,.34-1.7Z"/><path d="M283.14,161.72l0,.66a2.25,2.25,0,0,1,1.81-.78,1.73,1.73,0,0,1,1.72,1,2.23,2.23,0,0,1,1.93-1,2,2,0,0,1,1.54.58,2.59,2.59,0,0,1,.52,1.71v4.17h-1.41v-4.12a1.3,1.3,0,0,0-.26-.89,1.11,1.11,0,0,0-.86-.28,1.19,1.19,0,0,0-.79.26,1.36,1.36,0,0,0-.42.68v4.35h-1.41v-4.17a1,1,0,0,0-1.13-1.12,1.22,1.22,0,0,0-1.19.7v4.59h-1.41v-6.34Z"/><path d="M292.15,160.07a.78.78,0,0,1,.2-.54.9.9,0,0,1,1.18,0,.75.75,0,0,1,.21.54.73.73,0,0,1-.21.54.93.93,0,0,1-1.18,0A.77.77,0,0,1,292.15,160.07Zm1.49,8h-1.41v-6.34h1.41Z"/><path d="M296.48,161.72l0,.73a2.25,2.25,0,0,1,1.82-.85c1.31,0,2,.76,2,2.27v4.19h-1.41V164a1.31,1.31,0,0,0-.26-.89,1.08,1.08,0,0,0-.84-.29,1.36,1.36,0,0,0-1.27.78v4.51h-1.41v-6.34Z"/><path d="M305.28,166.34a.63.63,0,0,0-.31-.58,3,3,0,0,0-1-.35,5.45,5.45,0,0,1-1.2-.39,1.61,1.61,0,0,1-1.06-1.49,1.7,1.7,0,0,1,.69-1.38,2.69,2.69,0,0,1,1.73-.55,2.77,2.77,0,0,1,1.82.57,1.78,1.78,0,0,1,.69,1.45h-1.41a.88.88,0,0,0-.3-.68,1.14,1.14,0,0,0-.8-.27,1.19,1.19,0,0,0-.75.22.66.66,0,0,0-.29.58.58.58,0,0,0,.27.51,3.7,3.7,0,0,0,1.1.36,5.58,5.58,0,0,1,1.3.44,1.93,1.93,0,0,1,.7.61,1.61,1.61,0,0,1,.23.87,1.67,1.67,0,0,1-.7,1.39,3,3,0,0,1-1.84.53,3.32,3.32,0,0,1-1.37-.28,2.27,2.27,0,0,1-.94-.78,1.88,1.88,0,0,1-.34-1.06h1.37a1,1,0,0,0,.38.78,1.46,1.46,0,0,0,.92.27,1.41,1.41,0,0,0,.84-.21A.66.66,0,0,0,305.28,166.34Z"/><path d="M316.35,166.1l1-4.38h1.37L317,168.06h-1.15l-1.35-4.35-1.32,4.35H312l-1.71-6.34h1.37l1,4.33,1.29-4.33h1.06Z"/><path d="M323.41,168.06a2.08,2.08,0,0,1-.16-.59,2.2,2.2,0,0,1-1.65.71,2.17,2.17,0,0,1-1.54-.55,1.73,1.73,0,0,1-.6-1.34,1.8,1.8,0,0,1,.75-1.56,3.56,3.56,0,0,1,2.13-.54h.86v-.42a1.13,1.13,0,0,0-.27-.79,1.1,1.1,0,0,0-.83-.29,1.26,1.26,0,0,0-.79.24.76.76,0,0,0-.3.62H319.6a1.6,1.6,0,0,1,.34-1,2.31,2.31,0,0,1,.93-.71,3.26,3.26,0,0,1,1.31-.26,2.65,2.65,0,0,1,1.76.56,2,2,0,0,1,.67,1.58v2.86a3.22,3.22,0,0,0,.24,1.36v.1Zm-1.55-1a1.58,1.58,0,0,0,.79-.21,1.39,1.39,0,0,0,.55-.55v-1.2h-.76a2.06,2.06,0,0,0-1.17.28.88.88,0,0,0-.4.78.83.83,0,0,0,.27.65A1,1,0,0,0,321.86,167Z"/><path d="M327.58,168.06h-1.41v-9h1.41Z"/><path d="M331.15,165.34l-.63.65v2.07h-1.41v-9h1.41v5.19l.44-.55,1.73-2h1.7l-2.33,2.64,2.58,3.7H333Z"/><path class="cls-3" d="M242.44,146.73h-3.9v4.07h-2v-10h6.4v1.66h-4.38v2.57h3.9Z"/><path class="cls-3" d="M251.55,140.85v6.55a3.38,3.38,0,0,1-1,2.59,4.48,4.48,0,0,1-5.49,0,3.32,3.32,0,0,1-1-2.53v-6.63h2v6.57a1.94,1.94,0,0,0,.46,1.42,1.77,1.77,0,0,0,1.28.45c1.14,0,1.72-.61,1.74-1.82v-6.62Z"/><path class="cls-3" d="M256.29,146.81,255.24,148v2.84h-2v-10h2v4.51l.89-1.24,2.51-3.27h2.49l-3.49,4.42,3.59,5.53h-2.41Z"/><path class="cls-3" d="M269.44,140.85v6.55a3.38,3.38,0,0,1-1,2.59,4.49,4.49,0,0,1-5.5,0,3.31,3.31,0,0,1-1-2.53v-6.63h2v6.57a1.9,1.9,0,0,0,.46,1.42,1.77,1.77,0,0,0,1.28.45c1.14,0,1.72-.61,1.74-1.82v-6.62Z"/><path class="cls-3" d="M273.25,149.15h5v1.65h-7.49v-1.2l4.87-7.09h-4.86v-1.66h7.38V142Z"/><path class="cls-3" d="M286.94,140.85v6.55a3.41,3.41,0,0,1-1,2.59,4.49,4.49,0,0,1-5.5,0,3.31,3.31,0,0,1-1-2.53v-6.63h2v6.57a1.9,1.9,0,0,0,.47,1.42,1.75,1.75,0,0,0,1.28.45c1.14,0,1.72-.61,1.73-1.82v-6.62Z"/><path class="cls-3" d="M291.25,140.85l2.53,7.21,2.51-7.21H299v10h-2v-2.72l.2-4.7-2.65,7.42h-1.39l-2.65-7.41.2,4.69v2.72h-2v-10Z"/><path class="cls-3" d="M302.88,150.8h-2v-10h2Z"/><path class="cls-3" d="M313.31,148.19a1.08,1.08,0,0,0-.41-.9,5.44,5.44,0,0,0-1.46-.65,10.54,10.54,0,0,1-1.66-.68,2.76,2.76,0,0,1-1.68-2.47,2.42,2.42,0,0,1,.45-1.44,3,3,0,0,1,1.29-1,4.93,4.93,0,0,1,1.89-.35,4.36,4.36,0,0,1,1.88.39,3,3,0,0,1,1.28,1.09,2.9,2.9,0,0,1,.45,1.6h-2a1.37,1.37,0,0,0-.43-1.07,1.74,1.74,0,0,0-1.2-.38,1.85,1.85,0,0,0-1.15.32,1,1,0,0,0-.41.84,1,1,0,0,0,.48.81,5.36,5.36,0,0,0,1.42.62,6,6,0,0,1,2.52,1.3,2.61,2.61,0,0,1,.79,1.94,2.41,2.41,0,0,1-1,2,4.2,4.2,0,0,1-2.6.74,5.14,5.14,0,0,1-2.07-.42,3.4,3.4,0,0,1-1.43-1.16,3,3,0,0,1-.48-1.69h2q0,1.65,1.95,1.65a1.84,1.84,0,0,0,1.12-.3A1,1,0,0,0,313.31,148.19Z"/><path class="cls-3" d="M324.12,142.51h-3v8.29h-2v-8.29h-3v-1.66h8Z"/><path class="cls-3" d="M330,148.75h-3.55l-.68,2.05h-2.15l3.66-10h1.88l3.68,10h-2.15Zm-3-1.66h2.46l-1.24-3.73Z"/><path class="cls-3" d="M340.38,142.51h-3v8.29h-2v-8.29h-3v-1.66h8Z"/><path class="cls-3" d="M343.69,150.8h-2v-10h2Z"/><path class="cls-3" d="M353.65,146.05a6,6,0,0,1-.51,2.57,3.9,3.9,0,0,1-3.67,2.32,4,4,0,0,1-2.18-.6,3.93,3.93,0,0,1-1.49-1.7,5.82,5.82,0,0,1-.53-2.54v-.49a6,6,0,0,1,.52-2.59,4,4,0,0,1,7.34,0,6,6,0,0,1,.52,2.58Zm-2-.45a4.2,4.2,0,0,0-.56-2.38,1.94,1.94,0,0,0-3.16,0,4.28,4.28,0,0,0-.56,2.35v.49a4.27,4.27,0,0,0,.56,2.36,1.93,1.93,0,0,0,3.16,0,4.24,4.24,0,0,0,.56-2.36Z"/><path class="cls-3" d="M363.13,150.8h-2l-4-6.55v6.55h-2v-10h2l4,6.56v-6.56h2Z"/></g><g id="arrow_1" data-name="arrow 1"><line class="cls-4" x1="74.55" y1="113.13" x2="74.55" y2="124.35"/><polygon class="cls-5" points="68.9 123.36 80.2 123.36 74.21 129.35 68.9 123.36"/></g><g id="column_1" data-name="column 1"><path class="cls-3" d="M24.22,146.94A3.51,3.51,0,0,1,23,149.47a4.05,4.05,0,0,1-2.79.93,3.67,3.67,0,0,1-3-1.29,5.3,5.3,0,0,1-1.09-3.54V145a6.08,6.08,0,0,1,.5-2.53,3.82,3.82,0,0,1,1.43-1.68,4.06,4.06,0,0,1,2.16-.58,4,4,0,0,1,2.75.92,3.84,3.84,0,0,1,1.2,2.59h-2a2,2,0,0,0-.53-1.39,2,2,0,0,0-1.39-.44,1.74,1.74,0,0,0-1.52.74,4.22,4.22,0,0,0-.51,2.28v.75a4.5,4.5,0,0,0,.48,2.36,1.69,1.69,0,0,0,1.52.74,2,2,0,0,0,1.41-.43,2,2,0,0,0,.53-1.35Z"/><path class="cls-3" d="M33.55,150.26h-2V146h-4v4.27h-2v-9.95h2v4h4v-4h2Z"/><path class="cls-3" d="M37.48,150.26h-2v-9.95h2Z"/><path class="cls-3" d="M46.77,142h-3v8.29h-2V142h-3v-1.66h8Z"/><path class="cls-3" d="M55.82,145.51a6,6,0,0,1-.52,2.58,3.88,3.88,0,0,1-1.47,1.7,4,4,0,0,1-2.19.61,4,4,0,0,1-2.18-.6A3.88,3.88,0,0,1,48,148.1a5.82,5.82,0,0,1-.53-2.54v-.49a6,6,0,0,1,.52-2.59,3.94,3.94,0,0,1,1.48-1.71,4,4,0,0,1,2.19-.6,4,4,0,0,1,2.18.6,3.94,3.94,0,0,1,1.48,1.71,6,6,0,0,1,.53,2.58Zm-2.06-.45a4.21,4.21,0,0,0-.55-2.38,2,2,0,0,0-3.16,0,4.2,4.2,0,0,0-.56,2.35v.49a4.33,4.33,0,0,0,.55,2.36,1.81,1.81,0,0,0,1.6.84,1.77,1.77,0,0,0,1.57-.81,4.22,4.22,0,0,0,.55-2.36Z"/><path class="cls-3" d="M62.39,147.65a1,1,0,0,0-.4-.89,5.23,5.23,0,0,0-1.46-.66,10.31,10.31,0,0,1-1.67-.68A2.76,2.76,0,0,1,57.18,143a2.42,2.42,0,0,1,.45-1.44,2.89,2.89,0,0,1,1.29-1,4.75,4.75,0,0,1,1.89-.36,4.36,4.36,0,0,1,1.88.39A2.92,2.92,0,0,1,64,141.65a2.83,2.83,0,0,1,.46,1.6h-2a1.35,1.35,0,0,0-.43-1.07,1.73,1.73,0,0,0-1.19-.38,1.88,1.88,0,0,0-1.16.32,1,1,0,0,0-.41.84,1,1,0,0,0,.48.81,5.45,5.45,0,0,0,1.43.62,6.14,6.14,0,0,1,2.52,1.3,2.65,2.65,0,0,1,.79,1.94,2.39,2.39,0,0,1-1,2,4.18,4.18,0,0,1-2.6.74,5,5,0,0,1-2.07-.42,3.24,3.24,0,0,1-1.42-1.16,2.92,2.92,0,0,1-.49-1.69h2q0,1.65,2,1.65a1.87,1.87,0,0,0,1.13-.3A1,1,0,0,0,62.39,147.65Z"/><path class="cls-3" d="M71.72,146H67.83v2.66H72.4v1.65H65.8v-9.95h6.58V142H67.83v2.37h3.89Z"/><path class="cls-3" d="M82.59,148.21H79l-.67,2H76.2l3.66-9.95h1.88l3.68,9.95H83.27Zm-3-1.66H82l-1.24-3.73Z"/><path class="cls-3" d="M88.5,150.26h-2v-9.95h2Z"/><path class="cls-3" d="M94,146.62H92.41v3.64h-2v-9.95H94a4.11,4.11,0,0,1,2.69.78,2.72,2.72,0,0,1,1,2.22,3,3,0,0,1-.44,1.7,3,3,0,0,1-1.32,1.09L98,150.16v.1H95.87ZM92.41,145H94a1.67,1.67,0,0,0,1.18-.4,1.4,1.4,0,0,0,.42-1.08,1.53,1.53,0,0,0-.39-1.11A1.65,1.65,0,0,0,94,142H92.41Z"/><path class="cls-3" d="M101.24,146.75v3.51h-2v-9.95h3.84a4.31,4.31,0,0,1,2,.41,3,3,0,0,1,1.29,1.16,3.23,3.23,0,0,1,.46,1.72,2.87,2.87,0,0,1-1,2.31,4.12,4.12,0,0,1-2.74.84Zm0-1.66h1.81a1.81,1.81,0,0,0,1.23-.38,1.41,1.41,0,0,0,.42-1.09,1.64,1.64,0,0,0-.43-1.19,1.56,1.56,0,0,0-1.17-.46h-1.86Z"/><path class="cls-3" d="M116.22,145.51a6.12,6.12,0,0,1-.51,2.58,3.88,3.88,0,0,1-1.47,1.7,4,4,0,0,1-2.19.61,4,4,0,0,1-2.19-.6,3.86,3.86,0,0,1-1.48-1.7,5.82,5.82,0,0,1-.54-2.54v-.49a6.2,6.2,0,0,1,.52-2.59,3.92,3.92,0,0,1,3.67-2.31,4,4,0,0,1,2.19.6,3.94,3.94,0,0,1,1.48,1.71,6,6,0,0,1,.52,2.58Zm-2-.45a4.2,4.2,0,0,0-.56-2.38,1.94,1.94,0,0,0-3.15,0,4.12,4.12,0,0,0-.56,2.35v.49a4.25,4.25,0,0,0,.55,2.36,1.8,1.8,0,0,0,1.6.84,1.74,1.74,0,0,0,1.56-.81,4.21,4.21,0,0,0,.56-2.36Z"/><path class="cls-3" d="M121.34,146.62h-1.62v3.64h-2v-9.95h3.65a4.13,4.13,0,0,1,2.69.78,2.75,2.75,0,0,1,.95,2.22,3.09,3.09,0,0,1-.44,1.7,3,3,0,0,1-1.32,1.09l2.13,4.06v.1h-2.18ZM119.72,145h1.64a1.67,1.67,0,0,0,1.18-.4,1.4,1.4,0,0,0,.42-1.08,1.53,1.53,0,0,0-.39-1.11,1.65,1.65,0,0,0-1.22-.4h-1.63Z"/><path class="cls-3" d="M133.6,142h-3v8.29h-2V142h-3v-1.66h8Z"/><path d="M50.14,163.12v1.18H50a2.55,2.55,0,0,0-2.73,2.46A2.27,2.27,0,0,1,49,166a2.17,2.17,0,0,1,1.77.8,3.17,3.17,0,0,1,.64,2.06,2.91,2.91,0,0,1-.76,2.1,2.76,2.76,0,0,1-4-.13,3.78,3.78,0,0,1-.78-2.48v-.48a5.27,5.27,0,0,1,1.08-3.52A3.85,3.85,0,0,1,50,163.12Zm-1.51,4.07a1.46,1.46,0,0,0-.85.27,1.49,1.49,0,0,0-.56.7v.43a2.6,2.6,0,0,0,.39,1.51,1.2,1.2,0,0,0,1,.56,1.19,1.19,0,0,0,1-.47,2,2,0,0,0,.37-1.25,2,2,0,0,0-.38-1.26A1.15,1.15,0,0,0,48.63,167.19Z"/><path d="M56.32,171.69H54.91v-6.85l-2.06.71v-1.19l3.29-1.23h.18Z"/><path d="M63.62,165.35l0,.66a2.23,2.23,0,0,1,1.8-.78,1.72,1.72,0,0,1,1.72,1,2.23,2.23,0,0,1,1.93-1,2,2,0,0,1,1.54.58,2.6,2.6,0,0,1,.52,1.72v4.16H69.76v-4.12a1.25,1.25,0,0,0-.26-.89,1.11,1.11,0,0,0-.86-.28,1.21,1.21,0,0,0-.79.26,1.36,1.36,0,0,0-.42.68v4.35H66v-4.17a1,1,0,0,0-1.13-1.12,1.22,1.22,0,0,0-1.2.7v4.59H62.29v-6.34Z"/><path d="M72.62,163.71a.79.79,0,0,1,.2-.55.81.81,0,0,1,.59-.22.79.79,0,0,1,.59.22.75.75,0,0,1,.21.55.72.72,0,0,1-.21.53.79.79,0,0,1-.59.22.81.81,0,0,1-.59-.22A.76.76,0,0,1,72.62,163.71Zm1.49,8H72.7v-6.34h1.41Z"/><path d="M77,165.35l0,.73a2.26,2.26,0,0,1,1.83-.85c1.3,0,2,.76,2,2.27v4.19H79.4v-4.11a1.26,1.26,0,0,0-.26-.89,1.08,1.08,0,0,0-.84-.29,1.36,1.36,0,0,0-1.27.78v4.51H75.62v-6.34Z"/><path d="M85.76,170a.65.65,0,0,0-.31-.58,3.35,3.35,0,0,0-1-.35,5,5,0,0,1-1.2-.39,1.62,1.62,0,0,1-1.06-1.49,1.67,1.67,0,0,1,.69-1.37,2.65,2.65,0,0,1,1.74-.56,2.76,2.76,0,0,1,1.81.57,1.79,1.79,0,0,1,.69,1.46h-1.4a.89.89,0,0,0-.3-.69,1.17,1.17,0,0,0-.8-.27,1.2,1.2,0,0,0-.76.22.67.67,0,0,0-.29.58.58.58,0,0,0,.27.51,3.7,3.7,0,0,0,1.1.36,5.41,5.41,0,0,1,1.3.44,1.79,1.79,0,0,1,.7.62,1.55,1.55,0,0,1,.23.86,1.67,1.67,0,0,1-.7,1.39,3,3,0,0,1-1.84.53,3.32,3.32,0,0,1-1.37-.28,2.34,2.34,0,0,1-.94-.78,1.85,1.85,0,0,1-.33-1.06h1.36a1,1,0,0,0,.38.78,1.76,1.76,0,0,0,1.77.06A.67.67,0,0,0,85.76,170Z"/><path d="M91.06,168.46a3.83,3.83,0,0,1,.36-1.68,2.66,2.66,0,0,1,1-1.14,2.82,2.82,0,0,1,1.51-.41,2.71,2.71,0,0,1,2.06.83,3.24,3.24,0,0,1,.86,2.19v.34a3.9,3.9,0,0,1-.35,1.67,2.69,2.69,0,0,1-1,1.14,2.89,2.89,0,0,1-1.53.41,2.73,2.73,0,0,1-2.13-.89,3.46,3.46,0,0,1-.79-2.39Zm1.4.13a2.62,2.62,0,0,0,.4,1.53,1.3,1.3,0,0,0,1.12.55,1.27,1.27,0,0,0,1.1-.56,2.81,2.81,0,0,0,.4-1.65,2.47,2.47,0,0,0-.41-1.52,1.37,1.37,0,0,0-2.2,0A2.8,2.8,0,0,0,92.46,168.59Z"/><path d="M99.38,165.35l0,.73a2.26,2.26,0,0,1,1.83-.85c1.3,0,2,.76,2,2.27v4.19h-1.41v-4.11a1.31,1.31,0,0,0-.26-.89,1.08,1.08,0,0,0-.84-.29,1.36,1.36,0,0,0-1.27.78v4.51H98.05v-6.34Z"/><rect class="cls-3" x="5.94" y="177.99" width="137.21" height="31.54"/><path class="cls-1" d="M51.09,194.43a2.81,2.81,0,0,1-.91,1.95,3.42,3.42,0,0,1-3.75.26,3,3,0,0,1-1.08-1.26,4.54,4.54,0,0,1-.4-1.9v-.73a4.59,4.59,0,0,1,.39-1.95,3,3,0,0,1,1.11-1.3,3.11,3.11,0,0,1,1.68-.46,3,3,0,0,1,2.06.71,2.9,2.9,0,0,1,.9,2H49.76a2,2,0,0,0-.49-1.22,1.58,1.58,0,0,0-1.14-.37,1.56,1.56,0,0,0-1.35.65,3.3,3.3,0,0,0-.48,1.9v.69a3.48,3.48,0,0,0,.45,1.94,1.49,1.49,0,0,0,1.31.66,1.71,1.71,0,0,0,1.19-.36,1.83,1.83,0,0,0,.51-1.19Z"/><path class="cls-1" d="M53.44,191.79a2,2,0,0,1,1.6-.74c1.22,0,1.85.71,1.86,2.13V197H55.61v-3.75a1.17,1.17,0,0,0-.25-.85,1.1,1.1,0,0,0-.76-.25,1.26,1.26,0,0,0-1.16.7V197H52.15v-8.25h1.29Z"/><path class="cls-1" d="M58.21,189.65a.69.69,0,0,1,.19-.5.7.7,0,0,1,.54-.2.73.73,0,0,1,.54.2.69.69,0,0,1,.19.5.66.66,0,0,1-.19.49.73.73,0,0,1-.54.2.7.7,0,0,1-.54-.2A.66.66,0,0,1,58.21,189.65ZM59.58,197H58.29v-5.81h1.29Z"/><path class="cls-1" d="M62.6,189.75v1.41h1v1h-1v3.24a.71.71,0,0,0,.13.48.6.6,0,0,0,.47.15,2.48,2.48,0,0,0,.45-.05v1a3.28,3.28,0,0,1-.85.12c-1,0-1.49-.55-1.49-1.66v-3.29h-.94v-1h.94v-1.41Z"/><path class="cls-1" d="M64.2,194a3.51,3.51,0,0,1,.33-1.54,2.59,2.59,0,0,1,.94-1.05,2.7,2.7,0,0,1,1.39-.37,2.51,2.51,0,0,1,1.89.76,3,3,0,0,1,.79,2v.31a3.44,3.44,0,0,1-.33,1.53,2.38,2.38,0,0,1-.93,1.05,2.62,2.62,0,0,1-1.4.37,2.48,2.48,0,0,1-1.95-.82,3.14,3.14,0,0,1-.73-2.18Zm1.29.12a2.33,2.33,0,0,0,.37,1.4,1.18,1.18,0,0,0,1,.51,1.16,1.16,0,0,0,1-.52,2.53,2.53,0,0,0,.37-1.51,2.31,2.31,0,0,0-.38-1.39,1.25,1.25,0,0,0-2,0A2.54,2.54,0,0,0,65.49,194.13Z"/><path class="cls-1" d="M73.85,195.39a.59.59,0,0,0-.28-.53,3,3,0,0,0-.94-.32,4.75,4.75,0,0,1-1.1-.35,1.49,1.49,0,0,1-1-1.37,1.55,1.55,0,0,1,.63-1.26,2.45,2.45,0,0,1,1.59-.51,2.55,2.55,0,0,1,1.66.52,1.63,1.63,0,0,1,.64,1.34H73.79a.81.81,0,0,0-.28-.63,1,1,0,0,0-.73-.25,1.15,1.15,0,0,0-.69.2.62.62,0,0,0-.27.53.53.53,0,0,0,.25.47,3.4,3.4,0,0,0,1,.33,4.93,4.93,0,0,1,1.19.41,1.61,1.61,0,0,1,.64.56,1.43,1.43,0,0,1,.21.79,1.5,1.5,0,0,1-.64,1.27,2.68,2.68,0,0,1-1.68.49,3,3,0,0,1-1.26-.26,2,2,0,0,1-.86-.71,1.65,1.65,0,0,1-.31-1h1.25a.92.92,0,0,0,.35.71,1.29,1.29,0,0,0,.84.25,1.32,1.32,0,0,0,.78-.19A.64.64,0,0,0,73.85,195.39Z"/><path class="cls-1" d="M78.78,197.08a2.64,2.64,0,0,1-2-.78,2.86,2.86,0,0,1-.77-2.08v-.16a3.57,3.57,0,0,1,.34-1.56,2.47,2.47,0,0,1,.93-1.06,2.39,2.39,0,0,1,1.34-.39,2.26,2.26,0,0,1,1.81.76,3.22,3.22,0,0,1,.64,2.14v.53H77.33a1.7,1.7,0,0,0,.47,1.14,1.42,1.42,0,0,0,1,.42,1.72,1.72,0,0,0,1.44-.73l.7.67a2.33,2.33,0,0,1-.92.81A2.91,2.91,0,0,1,78.78,197.08Zm-.16-5a1.1,1.1,0,0,0-.86.38,2,2,0,0,0-.41,1h2.46v-.09a1.6,1.6,0,0,0-.35-1A1.05,1.05,0,0,0,78.62,192.1Z"/><path class="cls-1" d="M86.26,195.89h3.51V197H84.91v-7.82h1.35Z"/><path class="cls-1" d="M90.68,189.65a.66.66,0,0,1,.72-.7.69.69,0,0,1,.74.7.66.66,0,0,1-.2.49.7.7,0,0,1-.54.2.73.73,0,0,1-.54-.2A.69.69,0,0,1,90.68,189.65ZM92.05,197h-1.3v-5.81h1.3Z"/><path class="cls-1" d="M94.65,191.16l0,.67a2.08,2.08,0,0,1,1.68-.78c1.19,0,1.8.7,1.82,2.08V197H96.89v-3.76a1.25,1.25,0,0,0-.23-.82,1,1,0,0,0-.78-.27,1.24,1.24,0,0,0-1.16.72V197H93.43v-5.81Z"/><path class="cls-1" d="M102,197.08a2.66,2.66,0,0,1-2-.78,2.85,2.85,0,0,1-.76-2.08v-.16a3.57,3.57,0,0,1,.33-1.56,2.47,2.47,0,0,1,.93-1.06,2.41,2.41,0,0,1,1.34-.39,2.25,2.25,0,0,1,1.81.76,3.22,3.22,0,0,1,.64,2.14v.53h-3.75a1.8,1.8,0,0,0,.47,1.14,1.42,1.42,0,0,0,1,.42,1.75,1.75,0,0,0,1.45-.73l.69.67a2.33,2.33,0,0,1-.92.81A2.85,2.85,0,0,1,102,197.08Zm-.16-5a1.07,1.07,0,0,0-.85.38,1.94,1.94,0,0,0-.42,1h2.46v-.09a1.6,1.6,0,0,0-.35-1A1.05,1.05,0,0,0,101.87,192.1Z"/><rect class="cls-3" x="5.96" y="214.52" width="137.21" height="31.54"/><path class="cls-1" d="M33.86,225.6a.93.93,0,0,0-.36-.79,4.2,4.2,0,0,0-1.29-.57,6.46,6.46,0,0,1-1.49-.63,2,2,0,0,1-1.06-1.75,1.92,1.92,0,0,1,.77-1.56,3,3,0,0,1,2-.61,3.31,3.31,0,0,1,1.44.3,2.32,2.32,0,0,1,1,.85,2.25,2.25,0,0,1,.36,1.24H33.86a1.24,1.24,0,0,0-.38-1,1.57,1.57,0,0,0-1.09-.35,1.61,1.61,0,0,0-1,.29,1,1,0,0,0-.36.79.86.86,0,0,0,.39.72,4.55,4.55,0,0,0,1.3.56,6.07,6.07,0,0,1,1.45.61,2.44,2.44,0,0,1,.8.8,2.09,2.09,0,0,1,.25,1.05,1.84,1.84,0,0,1-.74,1.55,3.14,3.14,0,0,1-2,.58,3.72,3.72,0,0,1-1.54-.31,2.58,2.58,0,0,1-1.09-.87,2.19,2.19,0,0,1-.39-1.29h1.34a1.25,1.25,0,0,0,.43,1,1.87,1.87,0,0,0,1.25.37,1.67,1.67,0,0,0,1.06-.29A.94.94,0,0,0,33.86,225.6Z"/><path class="cls-1" d="M39.69,227.61a1.8,1.8,0,0,1-.15-.54,2.15,2.15,0,0,1-2.92.15,1.61,1.61,0,0,1-.55-1.23,1.66,1.66,0,0,1,.69-1.43,3.26,3.26,0,0,1,2-.5h.79v-.38a1,1,0,0,0-.25-.72,1,1,0,0,0-.76-.27,1.12,1.12,0,0,0-.72.22.69.69,0,0,0-.28.57H36.2a1.47,1.47,0,0,1,.31-.9,2.17,2.17,0,0,1,.85-.65,2.94,2.94,0,0,1,1.21-.23,2.38,2.38,0,0,1,1.6.51,1.83,1.83,0,0,1,.62,1.44v2.62a2.92,2.92,0,0,0,.22,1.25v.09Zm-1.42-.94a1.48,1.48,0,0,0,.72-.18,1.25,1.25,0,0,0,.51-.51v-1.09h-.7a1.86,1.86,0,0,0-1.07.25.82.82,0,0,0-.37.71.79.79,0,0,0,.25.6A1,1,0,0,0,38.27,226.67Z"/><path class="cls-1" d="M47.17,224.77a3.51,3.51,0,0,1-.6,2.15,2,2,0,0,1-1.63.8,1.93,1.93,0,0,1-1.51-.63v2.76H42.14v-8h1.19l.05.59a2.09,2.09,0,0,1,3.19.1,3.57,3.57,0,0,1,.6,2.2Zm-1.28-.11a2.46,2.46,0,0,0-.35-1.39,1.09,1.09,0,0,0-1-.51,1.19,1.19,0,0,0-1.14.66V226a1.19,1.19,0,0,0,1.15.68,1.11,1.11,0,0,0,1-.5A2.73,2.73,0,0,0,45.89,224.66Z"/><path class="cls-1" d="M53.29,224.77a3.51,3.51,0,0,1-.6,2.15,2.09,2.09,0,0,1-3.14.17v2.76H48.26v-8h1.19l0,.59a1.91,1.91,0,0,1,1.55-.69,2,2,0,0,1,1.65.79,3.57,3.57,0,0,1,.59,2.2ZM52,224.66a2.47,2.47,0,0,0-.34-1.39,1.12,1.12,0,0,0-1-.51,1.19,1.19,0,0,0-1.14.66V226a1.2,1.2,0,0,0,1.15.68,1.11,1.11,0,0,0,1-.5A2.73,2.73,0,0,0,52,224.66Z"/><path class="cls-1" d="M54.14,224.66a3.45,3.45,0,0,1,.34-1.54,2.43,2.43,0,0,1,.94-1.06,2.67,2.67,0,0,1,1.39-.36,2.53,2.53,0,0,1,1.89.75,3,3,0,0,1,.78,2v.31a3.44,3.44,0,0,1-.33,1.53,2.46,2.46,0,0,1-.94,1,2.59,2.59,0,0,1-1.4.37,2.48,2.48,0,0,1-2-.82,3.17,3.17,0,0,1-.73-2.18Zm1.29.11a2.38,2.38,0,0,0,.37,1.4,1.27,1.27,0,0,0,2,0,2.59,2.59,0,0,0,.36-1.5,2.33,2.33,0,0,0-.37-1.4,1.21,1.21,0,0,0-1-.52,1.16,1.16,0,0,0-1,.51A2.54,2.54,0,0,0,55.43,224.77Z"/><path class="cls-1" d="M63.58,223a3,3,0,0,0-.52-.05,1.19,1.19,0,0,0-1.2.69v4H60.57V221.8h1.24l0,.65a1.45,1.45,0,0,1,1.29-.75,1.2,1.2,0,0,1,.46.07Z"/><path class="cls-1" d="M64,224.66a3.45,3.45,0,0,1,.33-1.54,2.56,2.56,0,0,1,.94-1.06,2.69,2.69,0,0,1,1.39-.36,2.5,2.5,0,0,1,1.89.75,3,3,0,0,1,.78,2v.31A3.44,3.44,0,0,1,69,226.3a2.5,2.5,0,0,1-.93,1,2.65,2.65,0,0,1-1.41.37,2.45,2.45,0,0,1-1.94-.82,3.12,3.12,0,0,1-.73-2.18Zm1.29.11a2.38,2.38,0,0,0,.36,1.4,1.2,1.2,0,0,0,1,.51,1.16,1.16,0,0,0,1-.52,2.59,2.59,0,0,0,.36-1.5,2.33,2.33,0,0,0-.37-1.4,1.21,1.21,0,0,0-1-.52,1.18,1.18,0,0,0-1,.51A2.54,2.54,0,0,0,65.26,224.77Z"/><path class="cls-1" d="M75,219.79l2.23,6,2.23-6h1.74v7.82H79.83V225l.13-3.45-2.28,6h-1l-2.28-6,.13,3.45v2.57H73.23v-7.82Z"/><path class="cls-1" d="M86.11,227a2,2,0,0,1-1.62.68,1.76,1.76,0,0,1-1.41-.55,2.37,2.37,0,0,1-.48-1.6V221.8h1.29v3.75c0,.74.3,1.11.91,1.11a1.29,1.29,0,0,0,1.27-.68V221.8h1.29v5.81H86.14Z"/><path class="cls-1" d="M89.87,221.8l0,.67a2.06,2.06,0,0,1,1.67-.77c1.2,0,1.8.69,1.83,2.07v3.84h-1.3v-3.76a1.2,1.2,0,0,0-.23-.82,1,1,0,0,0-.77-.27,1.26,1.26,0,0,0-1.17.72v4.13H88.65V221.8Z"/><path class="cls-1" d="M94.72,220.29a.69.69,0,0,1,.19-.5.83.83,0,0,1,1.08,0,.75.75,0,0,1,0,1,.86.86,0,0,1-1.08,0A.69.69,0,0,1,94.72,220.29Zm1.37,7.32H94.8V221.8h1.29Z"/><path class="cls-1" d="M99.86,226.68a1.2,1.2,0,0,0,.8-.28,1,1,0,0,0,.34-.71h1.21a1.87,1.87,0,0,1-.33,1,2.21,2.21,0,0,1-.85.75,2.54,2.54,0,0,1-1.16.27,2.42,2.42,0,0,1-1.91-.79,3.14,3.14,0,0,1-.7-2.18v-.13a3.09,3.09,0,0,1,.7-2.13,2.4,2.4,0,0,1,1.91-.79,2.36,2.36,0,0,1,1.67.6,2.16,2.16,0,0,1,.67,1.59H101a1.21,1.21,0,0,0-.34-.82,1.06,1.06,0,0,0-.8-.33,1.16,1.16,0,0,0-1,.46,2.33,2.33,0,0,0-.34,1.4v.21a2.39,2.39,0,0,0,.33,1.4A1.14,1.14,0,0,0,99.86,226.68Z"/><path class="cls-1" d="M103.19,220.29a.69.69,0,0,1,.19-.5.83.83,0,0,1,1.08,0,.75.75,0,0,1,0,1,.86.86,0,0,1-1.08,0A.69.69,0,0,1,103.19,220.29Zm1.37,7.32h-1.29V221.8h1.29Z"/><path class="cls-1" d="M111,224.77a3.45,3.45,0,0,1-.61,2.15,1.93,1.93,0,0,1-1.62.8,2,2,0,0,1-1.52-.63v2.76H106v-8h1.19l.06.59a1.88,1.88,0,0,1,1.54-.69,2,2,0,0,1,1.65.79,3.57,3.57,0,0,1,.6,2.2Zm-1.29-.11a2.47,2.47,0,0,0-.34-1.39,1.11,1.11,0,0,0-1-.51,1.19,1.19,0,0,0-1.14.66V226a1.21,1.21,0,0,0,1.15.68,1.11,1.11,0,0,0,1-.5A2.65,2.65,0,0,0,109.71,224.66Z"/><path class="cls-1" d="M115.52,227.61a2.16,2.16,0,0,1-.15-.54,2.15,2.15,0,0,1-2.92.15,1.61,1.61,0,0,1-.55-1.23,1.66,1.66,0,0,1,.69-1.43,3.26,3.26,0,0,1,2-.5h.79v-.38a1,1,0,0,0-.25-.72,1,1,0,0,0-.76-.27,1.12,1.12,0,0,0-.72.22.69.69,0,0,0-.28.57H112a1.47,1.47,0,0,1,.31-.9,2.17,2.17,0,0,1,.85-.65,2.94,2.94,0,0,1,1.21-.23,2.38,2.38,0,0,1,1.6.51,1.83,1.83,0,0,1,.62,1.44v2.62a2.92,2.92,0,0,0,.22,1.25v.09Zm-1.42-.94a1.48,1.48,0,0,0,.72-.18,1.25,1.25,0,0,0,.51-.51v-1.09h-.7a1.86,1.86,0,0,0-1.07.25.81.81,0,0,0-.36.71.78.78,0,0,0,.24.6A1,1,0,0,0,114.1,226.67Z"/><path class="cls-1" d="M119.35,227.61h-1.3v-8.25h1.3Z"/><path class="cls-1" d="M33.2,238.8a.93.93,0,0,0-.36-.79,4.17,4.17,0,0,0-1.3-.57,6.36,6.36,0,0,1-1.48-.63A2,2,0,0,1,29,235.06a1.91,1.91,0,0,1,.76-1.56,3.06,3.06,0,0,1,2-.61,3.31,3.31,0,0,1,1.44.3,2.35,2.35,0,0,1,1,.85,2.27,2.27,0,0,1,.36,1.24H33.2a1.24,1.24,0,0,0-.38-1,1.59,1.59,0,0,0-1.09-.35,1.61,1.61,0,0,0-1,.29,1,1,0,0,0-.37.79.87.87,0,0,0,.4.72,4.47,4.47,0,0,0,1.29.56,5.9,5.9,0,0,1,1.45.61,2.35,2.35,0,0,1,.8.8,2.1,2.1,0,0,1,.26,1,1.87,1.87,0,0,1-.74,1.55,3.18,3.18,0,0,1-2,.58,3.69,3.69,0,0,1-1.54-.31,2.61,2.61,0,0,1-1.1-.87,2.19,2.19,0,0,1-.39-1.29h1.35a1.25,1.25,0,0,0,.43,1,1.87,1.87,0,0,0,1.25.37,1.62,1.62,0,0,0,1.05-.29A.92.92,0,0,0,33.2,238.8Z"/><path class="cls-1" d="M39.07,240.25a2,2,0,0,1-1.61.67,1.78,1.78,0,0,1-1.42-.55,2.37,2.37,0,0,1-.48-1.6V235h1.29v3.75c0,.74.31,1.11.91,1.11a1.28,1.28,0,0,0,1.27-.68V235h1.29v5.81H39.11Z"/><path class="cls-1" d="M46.68,238a3.49,3.49,0,0,1-.6,2.15,1.93,1.93,0,0,1-1.64.8,1.84,1.84,0,0,1-1.57-.73l-.07.62H41.63v-8.25h1.29v3a1.89,1.89,0,0,1,1.51-.66,2,2,0,0,1,1.65.79,3.55,3.55,0,0,1,.6,2.2Zm-1.29-.11a2.46,2.46,0,0,0-.33-1.42,1.09,1.09,0,0,0-1-.48,1.2,1.2,0,0,0-1.18.75v2.39a1.21,1.21,0,0,0,1.19.76,1.08,1.08,0,0,0,.94-.46,2.41,2.41,0,0,0,.34-1.38Z"/><path class="cls-1" d="M52.81,239l.91-4H55l-1.57,5.81H52.35l-1.23-4-1.21,4H48.84L47.27,235h1.26l.93,4,1.18-4h1Z"/><path class="cls-1" d="M59.27,240.81a2.71,2.71,0,0,1-.15-.54,2,2,0,0,1-1.5.65,2,2,0,0,1-1.42-.5,1.6,1.6,0,0,1-.54-1.23,1.65,1.65,0,0,1,.68-1.43,3.26,3.26,0,0,1,1.95-.5h.79v-.38a1,1,0,0,0-.25-.72,1,1,0,0,0-.76-.27,1.12,1.12,0,0,0-.72.22.69.69,0,0,0-.28.57H55.78a1.47,1.47,0,0,1,.31-.9,2.24,2.24,0,0,1,.85-.65,2.94,2.94,0,0,1,1.21-.23,2.41,2.41,0,0,1,1.61.51,1.82,1.82,0,0,1,.61,1.44v2.62a2.92,2.92,0,0,0,.22,1.25v.09Zm-1.41-.93a1.48,1.48,0,0,0,.71-.19,1.25,1.25,0,0,0,.51-.51v-1.09h-.69a1.87,1.87,0,0,0-1.08.25.83.83,0,0,0-.36.71.78.78,0,0,0,.24.6A1,1,0,0,0,57.86,239.88Z"/><path class="cls-1" d="M63.73,239,64.9,235h1.38L64,241.7a1.86,1.86,0,0,1-1.78,1.46,2.1,2.1,0,0,1-.62-.1v-1l.24,0a1.26,1.26,0,0,0,.74-.18,1.24,1.24,0,0,0,.39-.61l.19-.5-2-5.78h1.39Z"/><path class="cls-1" d="M69.74,237.63a8.24,8.24,0,0,1,.33-2.35,6.58,6.58,0,0,1,1-2,3.87,3.87,0,0,1,1.35-1.24l.25.77a4,4,0,0,0-1.21,1.75,8,8,0,0,0-.51,2.7v.46a8.66,8.66,0,0,0,.45,2.9,4.39,4.39,0,0,0,1.27,2l-.25.72A3.79,3.79,0,0,1,71,242.06a6.47,6.47,0,0,1-1-2A8.52,8.52,0,0,1,69.74,237.63Z"/><path class="cls-1" d="M79.23,234.09H76.82v6.72H75.49v-6.72H73.1V233h6.13Z"/><path class="cls-1" d="M78.77,237.86a3.35,3.35,0,0,1,.34-1.54,2.43,2.43,0,0,1,.94-1.06,2.64,2.64,0,0,1,1.39-.36,2.49,2.49,0,0,1,1.88.75,3,3,0,0,1,.79,2V238a3.58,3.58,0,0,1-.32,1.53,2.4,2.4,0,0,1-.94,1.05,2.59,2.59,0,0,1-1.4.37,2.48,2.48,0,0,1-2-.82,3.17,3.17,0,0,1-.73-2.18Zm1.29.11a2.31,2.31,0,0,0,.37,1.4,1.18,1.18,0,0,0,1,.51,1.16,1.16,0,0,0,1-.52,2.52,2.52,0,0,0,.37-1.5,2.33,2.33,0,0,0-.38-1.4,1.25,1.25,0,0,0-2,0A2.62,2.62,0,0,0,80.06,238Z"/><path class="cls-1" d="M86.48,235.64a2,2,0,0,1,1.59-.74c1.23,0,1.85.7,1.87,2.12v3.79H88.65v-3.74a1.18,1.18,0,0,0-.26-.86,1.07,1.07,0,0,0-.76-.25,1.24,1.24,0,0,0-1.15.7v4.15H85.19v-8.25h1.29Z"/><path class="cls-1" d="M91,237.86a3.48,3.48,0,0,1,.33-1.54,2.51,2.51,0,0,1,1-1.06,2.64,2.64,0,0,1,1.39-.36,2.49,2.49,0,0,1,1.88.75,3,3,0,0,1,.79,2V238A3.58,3.58,0,0,1,96,239.5a2.4,2.4,0,0,1-.94,1.05,2.59,2.59,0,0,1-1.4.37,2.48,2.48,0,0,1-2-.82,3.12,3.12,0,0,1-.73-2.18Zm1.29.11a2.31,2.31,0,0,0,.37,1.4,1.18,1.18,0,0,0,1,.51,1.16,1.16,0,0,0,1-.52,2.52,2.52,0,0,0,.37-1.5,2.33,2.33,0,0,0-.38-1.4,1.2,1.2,0,0,0-1-.52,1.18,1.18,0,0,0-1,.51A2.54,2.54,0,0,0,92.29,238Z"/><path class="cls-1" d="M101.51,240.81h-1.29v-8.25h1.29Z"/><path class="cls-1" d="M102.92,233.49a.69.69,0,0,1,.19-.5.72.72,0,0,1,.54-.2.73.73,0,0,1,.54.2.75.75,0,0,1,0,1,.73.73,0,0,1-.54.19.71.71,0,0,1-.54-.19A.69.69,0,0,1,102.92,233.49Zm1.37,7.32H103V235h1.29Z"/><path class="cls-1" d="M106.89,235l0,.67a2.08,2.08,0,0,1,1.67-.77q1.8,0,1.83,2.07v3.84h-1.29v-3.76a1.2,1.2,0,0,0-.24-.82,1,1,0,0,0-.77-.27,1.23,1.23,0,0,0-1.16.72v4.13h-1.29V235Z"/><path class="cls-1" d="M114.27,240.92a2.64,2.64,0,0,1-2-.78,2.84,2.84,0,0,1-.77-2.08v-.16a3.44,3.44,0,0,1,.34-1.56,2.53,2.53,0,0,1,.93-1.06,2.38,2.38,0,0,1,1.34-.38,2.25,2.25,0,0,1,1.81.75,3.28,3.28,0,0,1,.64,2.15v.52h-3.76a1.76,1.76,0,0,0,.48,1.14,1.42,1.42,0,0,0,1,.42,1.72,1.72,0,0,0,1.44-.73l.7.68a2.38,2.38,0,0,1-.92.8A2.79,2.79,0,0,1,114.27,240.92Zm-.15-5a1.1,1.1,0,0,0-.86.38,1.94,1.94,0,0,0-.41,1.05h2.45v-.1a1.54,1.54,0,0,0-.34-1A1.05,1.05,0,0,0,114.12,235.94Z"/><path class="cls-1" d="M120.07,237.72a8,8,0,0,1-.33,2.3,6.42,6.42,0,0,1-1,2,3.87,3.87,0,0,1-1.37,1.26l-.26-.72a4.15,4.15,0,0,0,1.26-1.91,8.52,8.52,0,0,0,.47-2.92v-.13a8.67,8.67,0,0,0-.41-2.72,4.77,4.77,0,0,0-1.15-2l-.17-.15.26-.74a3.86,3.86,0,0,1,1.31,1.19,6.29,6.29,0,0,1,1,1.89,8,8,0,0,1,.38,2.17Z"/></g><g id="Getting_There_Title" data-name="Getting There Title"><rect class="cls-2" x="0.65" y="0.13" width="599.35" height="65"/><path class="cls-1" d="M178.09,37.08a5.4,5.4,0,0,1-2.36,1.62,9.63,9.63,0,0,1-3.38.57,6.5,6.5,0,0,1-3.42-.89,5.84,5.84,0,0,1-2.28-2.57,9.47,9.47,0,0,1-.82-4V30.78a10,10,0,0,1,.76-4.05,5.81,5.81,0,0,1,2.19-2.62,7,7,0,0,1,7.53.42,5.74,5.74,0,0,1,1.78,3.86h-3a3.2,3.2,0,0,0-.91-2,2.87,2.87,0,0,0-1.95-.62,2.71,2.71,0,0,0-2.4,1.23,6.76,6.76,0,0,0-.84,3.68v1a6.32,6.32,0,0,0,.9,3.71,3,3,0,0,0,2.63,1.26,3.39,3.39,0,0,0,2.49-.77v-2.7h-2.82V30.84h5.91Z"/><path class="cls-1" d="M189.88,32.28h-5.95v4.19h7v2.58H180.84V23.41h10V26h-7v3.73h5.95Z"/><path class="cls-1" d="M204.53,26h-4.61v13h-3.09V26h-4.54V23.41h12.24Z"/><path class="cls-1" d="M218.13,26h-4.61v13h-3.09V26h-4.54V23.41h12.24Z"/><path class="cls-1" d="M223.14,39.05H220V23.41h3.1Z"/><path class="cls-1" d="M238.39,39.05h-3.1l-6-10.29V39.05h-3.09V23.41h3.09l6,10.32V23.41h3.09Z"/><path class="cls-1" d="M253.11,37.08a5.52,5.52,0,0,1-2.36,1.62,9.65,9.65,0,0,1-3.39.57,6.5,6.5,0,0,1-3.42-.89,5.82,5.82,0,0,1-2.27-2.57,9.32,9.32,0,0,1-.82-4V30.78a9.86,9.86,0,0,1,.76-4.05,5.69,5.69,0,0,1,2.19-2.62,6.93,6.93,0,0,1,7.52.42,5.74,5.74,0,0,1,1.79,3.86h-3a3.2,3.2,0,0,0-.92-2,2.86,2.86,0,0,0-1.94-.62A2.72,2.72,0,0,0,244.83,27a6.68,6.68,0,0,0-.83,3.68v1a6.41,6.41,0,0,0,.89,3.71,3,3,0,0,0,2.64,1.26,3.35,3.35,0,0,0,2.48-.77v-2.7H247.2V30.84h5.91Z"/><path class="cls-1" d="M272.4,26h-4.6v13h-3.1V26h-4.54V23.41H272.4Z"/><path class="cls-1" d="M286.25,31.59a9.82,9.82,0,0,1-.78,4.05,6.15,6.15,0,0,1-2.25,2.68,6.13,6.13,0,0,1-9-2.65,9.52,9.52,0,0,1-.82-4V30.9a9.74,9.74,0,0,1,.8-4.06,6.18,6.18,0,0,1,2.26-2.7,6.4,6.4,0,0,1,6.68,0,6.11,6.11,0,0,1,2.26,2.7,9.72,9.72,0,0,1,.8,4.05Zm-3.14-.71a6.84,6.84,0,0,0-.84-3.74,2.74,2.74,0,0,0-2.42-1.28,2.71,2.71,0,0,0-2.4,1.26,6.73,6.73,0,0,0-.86,3.71v.76a6.85,6.85,0,0,0,.85,3.72,2.89,2.89,0,0,0,4.83,0,6.81,6.81,0,0,0,.84-3.71Z"/><path class="cls-1" d="M305.29,26h-4.61v13h-3.09V26h-4.54V23.41h12.24Z"/><path class="cls-1" d="M319.33,39.05h-3.09v-6.7h-6v6.7h-3.1V23.41h3.1v6.34h6V23.41h3.09Z"/><path class="cls-1" d="M331.33,32.28h-5.95v4.19h7v2.58H322.28V23.41h10.06V26h-7v3.73h5.95Z"/><path class="cls-1" d="M347.44,35a1.66,1.66,0,0,0-.62-1.4,7.69,7.69,0,0,0-2.23-1A15.67,15.67,0,0,1,342,31.45a4.35,4.35,0,0,1-2.56-3.88,3.87,3.87,0,0,1,.69-2.26,4.49,4.49,0,0,1,2-1.55A7.23,7.23,0,0,1,345,23.2a6.47,6.47,0,0,1,2.87.61A4.55,4.55,0,0,1,350.55,28h-3.1a2.14,2.14,0,0,0-.65-1.67,2.58,2.58,0,0,0-1.83-.59,2.73,2.73,0,0,0-1.76.5,1.59,1.59,0,0,0-.63,1.31,1.52,1.52,0,0,0,.74,1.28,8.15,8.15,0,0,0,2.17,1,9.25,9.25,0,0,1,3.85,2.05,4.15,4.15,0,0,1,1.21,3.05,3.83,3.83,0,0,1-1.48,3.19,6.33,6.33,0,0,1-4,1.15,7.42,7.42,0,0,1-3.16-.66,5,5,0,0,1-2.17-1.81,4.79,4.79,0,0,1-.75-2.67h3.11c0,1.73,1,2.59,3,2.59a2.81,2.81,0,0,0,1.72-.46A1.53,1.53,0,0,0,347.44,35Z"/><path class="cls-1" d="M364.15,26h-4.6v13h-3.1V26h-4.54V23.41h12.24Z"/><path class="cls-1" d="M372.78,35.83h-5.43l-1,3.22H363l5.6-15.64h2.87l5.62,15.64h-3.29Zm-4.6-2.61h3.76l-1.89-5.85Z"/><path class="cls-1" d="M378.75,39.05V23.41h4.62a6.78,6.78,0,0,1,3.54.93A6.35,6.35,0,0,1,389.36,27a8.47,8.47,0,0,1,.87,3.89v.72a8.52,8.52,0,0,1-.86,3.88,6.25,6.25,0,0,1-2.43,2.63,6.84,6.84,0,0,1-3.54.94Zm3.09-13V36.47h1.5a3.31,3.31,0,0,0,2.77-1.24,5.77,5.77,0,0,0,1-3.53v-.83a5.88,5.88,0,0,0-1-3.62A3.31,3.31,0,0,0,383.37,26Z"/><path class="cls-1" d="M395.83,39.05h-3.1V23.41h3.1Z"/><path class="cls-1" d="M410.29,23.41V33.72a5.39,5.39,0,0,1-1.54,4.06,6.74,6.74,0,0,1-8.4,0,5.31,5.31,0,0,1-1.58-4V23.41h3.1V33.74a3.07,3.07,0,0,0,.71,2.24,2.63,2.63,0,0,0,1.95.7c1.74,0,2.63-1,2.66-2.86V23.41Z"/><path class="cls-1" d="M417.18,23.41,421,34.76l3.84-11.35h4.06V39.05h-3.1V34.78l.31-7.38-4.06,11.65H420l-4-11.64.31,7.37v4.27h-3.1V23.41Z"/></g></g><g id="arrow_2" data-name="arrow 2"><line class="cls-4" x1="377.18" y1="147.13" x2="428.51" y2="147.13"/><polygon class="cls-5" points="427.51 152.78 427.51 141.47 433.5 147.47 427.51 152.78"/></g><g id="arrow"><polyline class="cls-4" points="151.31 230.13 180.29 230.13 180.29 147.13 218.27 147.13"/><polygon class="cls-5" points="217.27 152.78 217.27 141.47 223.26 147.47 217.27 152.78"/></g></g></g></g></svg>