<svg xmlns="http://www.w3.org/2000/svg" viewBox="0 0 600 225"><defs><style>.cls-1{fill:#fff;}.cls-2{fill:#6678a8;}.cls-3{fill:none;stroke:#b4d9b9;stroke-miterlimit:10;stroke-width:2px;}.cls-4{fill:#b4d9b9;}.cls-5{fill:#65a4c3;}</style></defs><title>Shizuoka</title><g id="Layer_2" data-name="Layer 2"><g id="Layer_1-2" data-name="Layer 1"><g id="Shizuoka"><g id="box"><rect class="cls-1" width="599.7" height="225"/></g><g id="stadium"><rect class="cls-2" x="447.08" y="92.44" width="152.92" height="112"/><path class="cls-1" d="M536.84,117.55V114h.84a4.2,4.2,0,0,0,4.19-4.2.83.83,0,0,0-.84-.84h-5a.83.83,0,0,0-.84.84v7.33a57.91,57.91,0,0,0-8.76-1.25c-1.61-.12-3.26-.18-4.92-.2v-3.36h.84a4.2,4.2,0,0,0,4.19-4.2.83.83,0,0,0-.84-.84h-5a.83.83,0,0,0-.84.84v7.56c-1.66,0-3.32.08-4.92.2a58.05,58.05,0,0,0-8.77,1.25V114H507a4.2,4.2,0,0,0,4.2-4.2.84.84,0,0,0-.84-.84h-5a.83.83,0,0,0-.83.84v7.78c-3.51,1-5.29,2.38-5.29,4v15.12c0,1.28,1.14,2.39,3.39,3.32,3.62,1.48,9.07,2.15,13,2.4,1.66.11,3.38.16,5.09.16s3.42-.05,5.09-.16c3.89-.24,9.37-.91,13-2.4,2.25-.93,3.4-2,3.4-3.32V121.52C542.13,119.93,540.35,118.59,536.84,117.55Zm0-6.94h3.21a2.45,2.45,0,0,1-.59.94,2.54,2.54,0,0,1-1.78.74h-.84Zm-15.36-1.68h3.21a2.45,2.45,0,0,1-.59.94,2.54,2.54,0,0,1-1.78.74h-.84Zm-15.37,1.68h3.22a2.48,2.48,0,0,1-.6.94,2.5,2.5,0,0,1-1.78.74h-.84Zm20.69,7a54.64,54.64,0,0,1,7.45,1.06l-3.72,2.66c-1.73-.24-3.73-.41-5.87-.51Zm-6.16-.24c1.42,0,2.84,0,4.23.12l-2.18,3.27c-1.36,0-2.75,0-4.11,0l-2.18-3.27C517.8,117.36,519.21,117.32,520.64,117.32Zm-6.17.24,2.14,3.21c-2.14.1-4.13.27-5.87.51L507,118.62A54.87,54.87,0,0,1,514.47,117.56Zm-9.58,1.6,3.52,2.52a15.3,15.3,0,0,0-2,.53c-.75.27-1.73.72-1.93,1.55-2.85-.9-3.67-1.81-3.67-2.24S501.7,120.12,504.89,119.16ZM509.47,140c-6.28-1-8.64-2.58-8.64-3.37V134a10.27,10.27,0,0,0,1.73.88,32.06,32.06,0,0,0,6.91,1.75Zm0-5a30.7,30.7,0,0,1-6.27-1.6c-1.75-.72-2.37-1.39-2.37-1.76V129a10.41,10.41,0,0,0,1.71.88,32.12,32.12,0,0,0,6.93,1.75Zm0-5c-6.28-1-8.64-2.58-8.64-3.37V124a18.21,18.21,0,0,0,5.77,2.09c.9.2,1.86.38,2.87.53Zm5.29,10.69c-1.25-.09-2.45-.21-3.61-.36V136.9c1.16.15,2.37.27,3.61.37Zm.09-5c-1.28-.1-2.52-.23-3.7-.38v-3.34c1.74.22,3.58.38,5.48.47l-.09.08A5.9,5.9,0,0,0,514.85,135.59Zm-3.7-5.41v-3.35a76.14,76.14,0,0,0,8.65.57v3.36A73.4,73.4,0,0,1,511.15,130.18Zm13.68,10.55c-1.1.06-2.23.09-3.35.1v-2.51a.84.84,0,0,0-1.68,0v2.51c-1.13,0-2.25,0-3.36-.1v-4.22a4.2,4.2,0,0,1,8.39,0v4.22Zm5.29-.47c-1.15.15-2.36.27-3.61.36v-3.35c1.25-.1,2.45-.22,3.61-.37Zm0-5c-1.18.15-2.42.28-3.7.38a5.85,5.85,0,0,0-1.63-3.11l-.15-.14c1.9-.09,3.74-.25,5.48-.47v3.34Zm0-5a73.38,73.38,0,0,1-8.64.58V127.4a76,76,0,0,0,8.64-.57Zm-9.48-4.46a72.75,72.75,0,0,1-10.2-.68c-1.14-.16-2.21-.35-3.2-.56l-.15-.08a4.51,4.51,0,0,1-.73-.33c2.22-1.21,9.24-1.6,11.8-1.67,1.63-.05,3.33-.05,5,0a65.55,65.55,0,0,1,7.54.59,13.85,13.85,0,0,1,4.26,1.08,6.11,6.11,0,0,1-1,.44c-1,.2-2,.38-3,.53A72.75,72.75,0,0,1,520.64,125.72Zm19.81,10.92c0,.79-2.37,2.36-8.65,3.37v-3.35a32.06,32.06,0,0,0,6.91-1.75,10.81,10.81,0,0,0,1.74-.88Zm0-5c0,.37-.62,1-2.38,1.76a30.53,30.53,0,0,1-6.27,1.6v-3.33a32,32,0,0,0,6.93-1.75,11,11,0,0,0,1.72-.88Zm0-5c0,.79-2.37,2.36-8.65,3.37v-3.34c2.58-.4,6.47-1.2,8.65-2.62Zm-3.68-2.79c-.2-.85-1.21-1.3-2-1.57a15.37,15.37,0,0,0-1.93-.52l3.52-2.52c3.2,1,4.07,1.93,4.07,2.36S539.61,122.87,536.77,123.77Z"/><path class="cls-1" d="M493.73,161.36a1,1,0,0,0-.41-.89,5.18,5.18,0,0,0-1.47-.66,10.11,10.11,0,0,1-1.69-.68,2.75,2.75,0,0,1-1.69-2.46,2.42,2.42,0,0,1,.45-1.44,3,3,0,0,1,1.31-1,4.82,4.82,0,0,1,1.91-.36,4.45,4.45,0,0,1,1.9.39,3.07,3.07,0,0,1,1.29,1.09,2.83,2.83,0,0,1,.46,1.6h-2.05a1.33,1.33,0,0,0-.43-1.06,1.74,1.74,0,0,0-1.21-.38,1.85,1.85,0,0,0-1.17.32,1,1,0,0,0-.41.83,1,1,0,0,0,.49.82,5.33,5.33,0,0,0,1.43.61,6.16,6.16,0,0,1,2.55,1.31,2.6,2.6,0,0,1,.8,1.94,2.38,2.38,0,0,1-1,2,4.25,4.25,0,0,1-2.63.73,5.1,5.1,0,0,1-2.09-.42,3.28,3.28,0,0,1-1.44-1.15,3,3,0,0,1-.49-1.7h2.06c0,1.1.65,1.65,2,1.65a1.89,1.89,0,0,0,1.14-.3A.94.94,0,0,0,493.73,161.36Z"/><path class="cls-1" d="M505.27,164h-2v-4.26h-4V164h-2.05V154h2.05v4h4v-4h2Z"/><path class="cls-1" d="M509.24,164h-2.05V154h2.05Z"/><path class="cls-1" d="M513.32,162.33h5V164h-7.58v-1.2l4.92-7.09h-4.91V154h7.46v1.18Z"/><path class="cls-1" d="M527.15,154v6.56a3.34,3.34,0,0,1-1,2.58,4,4,0,0,1-2.79,1,4,4,0,0,1-2.77-.92,3.3,3.3,0,0,1-1-2.54V154h2.05v6.57a1.88,1.88,0,0,0,.47,1.43,1.82,1.82,0,0,0,1.29.44c1.15,0,1.74-.6,1.76-1.81V154Z"/><path class="cls-1" d="M537,159.22a6.12,6.12,0,0,1-.51,2.58,4,4,0,0,1-1.49,1.71,4.4,4.4,0,0,1-4.42,0,4,4,0,0,1-1.51-1.7,6,6,0,0,1-.54-2.54v-.49a6,6,0,0,1,.53-2.59,3.89,3.89,0,0,1,1.5-1.72,4.37,4.37,0,0,1,4.42,0,4,4,0,0,1,1.5,1.72,6,6,0,0,1,.52,2.58Zm-2.07-.45a4.25,4.25,0,0,0-.56-2.38,2,2,0,0,0-3.19,0,4.07,4.07,0,0,0-.57,2.36v.48a4.28,4.28,0,0,0,.56,2.37,2,2,0,0,0,3.2,0,4.26,4.26,0,0,0,.56-2.36Z"/><path class="cls-1" d="M541.61,160l-1.07,1.15V164h-2V154h2v4.51l.91-1.23L544,154h2.52L543,158.44,546.6,164h-2.43Z"/><path class="cls-1" d="M553,161.92H549.4l-.68,2.05h-2.18l3.7-9.95h1.9l3.72,9.95h-2.18Zm-3-1.66h2.49l-1.25-3.72Z"/><path class="cls-1" d="M475.64,178.16a1.07,1.07,0,0,0-.41-.89,5,5,0,0,0-1.48-.65,10.38,10.38,0,0,1-1.68-.69,2.76,2.76,0,0,1-1.7-2.46,2.36,2.36,0,0,1,.46-1.44,3,3,0,0,1,1.3-1,4.85,4.85,0,0,1,1.91-.36,4.45,4.45,0,0,1,1.9.39,3,3,0,0,1,1.29,1.09,2.84,2.84,0,0,1,.47,1.6h-2.05a1.35,1.35,0,0,0-.43-1.06,1.81,1.81,0,0,0-1.21-.38,1.85,1.85,0,0,0-1.17.32,1,1,0,0,0-.42.83,1,1,0,0,0,.49.82,5.28,5.28,0,0,0,1.44.61,6.29,6.29,0,0,1,2.55,1.31,2.62,2.62,0,0,1,.8,1.94,2.41,2.41,0,0,1-1,2,4.27,4.27,0,0,1-2.63.73,5.07,5.07,0,0,1-2.09-.42,3.28,3.28,0,0,1-1.44-1.15,3,3,0,0,1-.5-1.7h2.06c0,1.1.66,1.65,2,1.65a1.89,1.89,0,0,0,1.14-.3A1,1,0,0,0,475.64,178.16Z"/><path class="cls-1" d="M486.57,172.48h-3.05v8.29h-2v-8.29h-3v-1.66h8.1Z"/><path class="cls-1" d="M492.54,178.72h-3.6l-.68,2.05h-2.18l3.7-10h1.9l3.73,10h-2.18Zm-3-1.66H492l-1.25-3.72Z"/><path class="cls-1" d="M496.34,180.77v-10h3.06a4.67,4.67,0,0,1,2.34.59,4.23,4.23,0,0,1,1.62,1.68,5.19,5.19,0,0,1,.58,2.48V176a5.2,5.2,0,0,1-.57,2.47,4.05,4.05,0,0,1-1.61,1.67,4.58,4.58,0,0,1-2.34.6Zm2-8.29v6.65h1a2.19,2.19,0,0,0,1.83-.79,3.51,3.51,0,0,0,.65-2.25v-.52a3.58,3.58,0,0,0-.63-2.3,2.19,2.19,0,0,0-1.83-.79Z"/><path class="cls-1" d="M507.61,180.77h-2.05v-10h2.05Z"/><path class="cls-1" d="M517,170.82v6.56a3.34,3.34,0,0,1-1,2.58,4.6,4.6,0,0,1-5.56,0,3.31,3.31,0,0,1-1-2.54v-6.63h2v6.57a1.92,1.92,0,0,0,.47,1.43,1.83,1.83,0,0,0,1.3.44c1.15,0,1.73-.6,1.75-1.81v-6.63Z"/><path class="cls-1" d="M521.4,170.82,524,178l2.54-7.22h2.69v10h-2v-2.72l.2-4.69-2.68,7.41h-1.41l-2.68-7.41.21,4.69v2.72h-2v-10Z"/><path class="cls-1" d="M540.44,176.46h-3.93v2.67h4.62v1.64h-6.67v-10h6.65v1.66h-4.6v2.37h3.93Z"/><path class="cls-1" d="M550.14,177.46A3.55,3.55,0,0,1,549,180a4.22,4.22,0,0,1-2.82.92,3.73,3.73,0,0,1-3-1.29,5.3,5.3,0,0,1-1.1-3.54v-.6a5.92,5.92,0,0,1,.51-2.53,3.72,3.72,0,0,1,1.44-1.68,4.49,4.49,0,0,1,5,.34,3.74,3.74,0,0,1,1.21,2.59h-2a2.08,2.08,0,0,0-.53-1.4,2,2,0,0,0-1.41-.43,1.74,1.74,0,0,0-1.53.73,4.13,4.13,0,0,0-.52,2.28v.75a4.37,4.37,0,0,0,.49,2.36,1.69,1.69,0,0,0,1.54.75,2,2,0,0,0,1.41-.44,1.91,1.91,0,0,0,.54-1.34Z"/><path class="cls-1" d="M559.66,176a6.12,6.12,0,0,1-.52,2.58,3.9,3.9,0,0,1-1.49,1.71,4.09,4.09,0,0,1-2.21.6,4.2,4.2,0,0,1-2.21-.59,4,4,0,0,1-1.5-1.7,5.71,5.71,0,0,1-.54-2.54v-.49a5.88,5.88,0,0,1,.53-2.59,3.93,3.93,0,0,1,1.49-1.72,4.37,4.37,0,0,1,4.42,0,3.89,3.89,0,0,1,1.5,1.72,6,6,0,0,1,.53,2.58Zm-2.08-.45a4.25,4.25,0,0,0-.56-2.38,2,2,0,0,0-3.19,0,4.23,4.23,0,0,0-.57,2.36V176a4.28,4.28,0,0,0,.56,2.37,1.83,1.83,0,0,0,1.62.84,1.81,1.81,0,0,0,1.58-.81,4.18,4.18,0,0,0,.56-2.36Z"/><path class="cls-1" d="M563.2,177.27v3.5h-2.05v-10H565a4.56,4.56,0,0,1,2,.41,3,3,0,0,1,1.31,1.17,3.28,3.28,0,0,1,.46,1.72,2.87,2.87,0,0,1-1,2.3,4.16,4.16,0,0,1-2.78.85Zm0-1.66H565a1.79,1.79,0,0,0,1.24-.39,1.4,1.4,0,0,0,.43-1.09,1.66,1.66,0,0,0-.43-1.18,1.63,1.63,0,0,0-1.19-.47H563.2Z"/><path class="cls-1" d="M574.57,178.72H571l-.68,2.05h-2.18l3.7-10h1.9l3.72,10h-2.18Zm-3-1.66H574l-1.25-3.72Z"/></g><g id="arrow_2" data-name="arrow 2"><line class="cls-3" x1="358.14" y1="155.5" x2="419.11" y2="155.5"/><polygon class="cls-4" points="418.11 161.16 418.11 149.84 424.11 155.84 418.11 161.16"/></g><g id="arrival_station" data-name="arrival station"><path d="M269.11,174.44H267.7v-6.86l-2.06.71V167.1l3.29-1.22h.18Z"/><path d="M272.42,170.21l.46-4.31h4.53v1.23h-3.36l-.24,2a2.66,2.66,0,0,1,1.33-.34,2.34,2.34,0,0,1,1.87.78,3.1,3.1,0,0,1,.67,2.1,2.87,2.87,0,0,1-.74,2.07,2.68,2.68,0,0,1-2,.77,2.83,2.83,0,0,1-1.92-.66,2.41,2.41,0,0,1-.82-1.76h1.36a1.47,1.47,0,0,0,.44,1,1.29,1.29,0,0,0,.94.34,1.21,1.21,0,0,0,1-.47,2.07,2.07,0,0,0,.36-1.28,1.77,1.77,0,0,0-.4-1.23,1.37,1.37,0,0,0-1.1-.46,2.06,2.06,0,0,0-.65.1,1.89,1.89,0,0,0-.58.41Z"/><path d="M283.16,168.1l0,.66A2.24,2.24,0,0,1,285,168a1.72,1.72,0,0,1,1.72,1,2.2,2.2,0,0,1,1.92-1,2,2,0,0,1,1.55.58,2.59,2.59,0,0,1,.52,1.71v4.17h-1.41v-4.13a1.27,1.27,0,0,0-.26-.88,1.15,1.15,0,0,0-.87-.29,1.12,1.12,0,0,0-.78.27,1.31,1.31,0,0,0-.43.68v4.35h-1.41v-4.18a1,1,0,0,0-1.13-1.12,1.25,1.25,0,0,0-1.2.7v4.6h-1.41V168.1Z"/><path d="M292.17,166.45a.76.76,0,0,1,.2-.55.79.79,0,0,1,.59-.21.8.8,0,0,1,.59.21.81.81,0,0,1,0,1.09.8.8,0,0,1-.59.21.79.79,0,0,1-.59-.21A.76.76,0,0,1,292.17,166.45Zm1.49,8h-1.41V168.1h1.41Z"/><path d="M296.5,168.1l0,.73a2.24,2.24,0,0,1,1.83-.85c1.3,0,2,.75,2,2.27v4.19H299v-4.11a1.31,1.31,0,0,0-.26-.9,1.08,1.08,0,0,0-.84-.29,1.36,1.36,0,0,0-1.27.78v4.52h-1.41V168.1Z"/><path d="M305.31,172.71a.65.65,0,0,0-.31-.58,3.35,3.35,0,0,0-1-.35,5,5,0,0,1-1.2-.39,1.61,1.61,0,0,1-1-1.49,1.68,1.68,0,0,1,.68-1.37,2.69,2.69,0,0,1,1.74-.55,2.82,2.82,0,0,1,1.82.56,1.8,1.8,0,0,1,.69,1.46h-1.41a.88.88,0,0,0-.3-.68,1.16,1.16,0,0,0-.8-.28,1.29,1.29,0,0,0-.76.22.71.71,0,0,0-.29.58.58.58,0,0,0,.27.51,3.94,3.94,0,0,0,1.1.37,5.1,5.1,0,0,1,1.31.44,1.92,1.92,0,0,1,.7.61,1.61,1.61,0,0,1,.23.87A1.65,1.65,0,0,1,306,174a2.9,2.9,0,0,1-1.83.53,3.18,3.18,0,0,1-1.38-.28,2.32,2.32,0,0,1-.94-.77,1.87,1.87,0,0,1-.33-1.06h1.37a1,1,0,0,0,.37.77,1.4,1.4,0,0,0,.92.28,1.35,1.35,0,0,0,.85-.22A.67.67,0,0,0,305.31,172.71Z"/><path d="M316.39,172.47l1-4.37h1.38l-1.71,6.34h-1.16l-1.35-4.36-1.32,4.36h-1.16l-1.71-6.34h1.37l1,4.33L314,168.1h1.06Z"/><path d="M323.45,174.44a2.5,2.5,0,0,1-.17-.6,2.13,2.13,0,0,1-1.64.71,2.19,2.19,0,0,1-1.54-.54,1.76,1.76,0,0,1-.6-1.35,1.83,1.83,0,0,1,.74-1.56,3.6,3.6,0,0,1,2.13-.54h.87v-.41a1.13,1.13,0,0,0-.27-.79,1.08,1.08,0,0,0-.83-.3,1.19,1.19,0,0,0-.79.25.73.73,0,0,0-.31.61h-1.41a1.58,1.58,0,0,1,.35-1,2.21,2.21,0,0,1,.92-.71,3.14,3.14,0,0,1,1.32-.26,2.61,2.61,0,0,1,1.75.56,2,2,0,0,1,.68,1.57V173a3.45,3.45,0,0,0,.23,1.37v.1Zm-1.55-1a1.62,1.62,0,0,0,.78-.2,1.44,1.44,0,0,0,.56-.56v-1.19h-.76a2.1,2.1,0,0,0-1.18.27.91.91,0,0,0-.39.78.85.85,0,0,0,.27.66A1,1,0,0,0,321.9,173.41Z"/><path d="M327.62,174.44h-1.41v-9h1.41Z"/><path d="M331.19,171.72l-.63.65v2.07h-1.4v-9h1.4v5.19l.44-.56,1.74-2h1.69l-2.33,2.64,2.58,3.7h-1.63Z"/><path class="cls-5" d="M259.85,155.12H256.3l-.68,2h-2.16l3.67-9.95H259l3.68,9.95h-2.15Zm-3-1.66h2.46l-1.24-3.72Z"/><path class="cls-5" d="M265.77,157.17h-2v-9.95h2Z"/><path class="cls-5" d="M275.66,157.17h-2l-3.95-6.55v6.55h-2v-9.95h2l4,6.56v-6.56h2Z"/><path class="cls-5" d="M285.52,152.42A6,6,0,0,1,285,155a3.86,3.86,0,0,1-1.47,1.71,4.3,4.3,0,0,1-4.38,0,3.89,3.89,0,0,1-1.48-1.69,5.89,5.89,0,0,1-.54-2.54V152a6,6,0,0,1,.53-2.58,3.91,3.91,0,0,1,1.48-1.72,4,4,0,0,1,2.18-.6,4,4,0,0,1,2.19.6A3.91,3.91,0,0,1,285,149.4a6,6,0,0,1,.53,2.58Zm-2.06-.45a4.23,4.23,0,0,0-.55-2.38,2,2,0,0,0-3.16,0,4.15,4.15,0,0,0-.56,2.36v.48a4.28,4.28,0,0,0,.55,2.37,1.94,1.94,0,0,0,3.17,0,4.26,4.26,0,0,0,.55-2.36Z"/><path class="cls-5" d="M295.54,154.56a1.05,1.05,0,0,0-.4-.89,5.23,5.23,0,0,0-1.46-.66,9.81,9.81,0,0,1-1.67-.68,2.75,2.75,0,0,1-1.68-2.46,2.42,2.42,0,0,1,.45-1.44,3,3,0,0,1,1.29-1,4.75,4.75,0,0,1,1.89-.36,4.33,4.33,0,0,1,1.88.39,3,3,0,0,1,1.28,1.09,2.83,2.83,0,0,1,.46,1.6h-2a1.34,1.34,0,0,0-.42-1.06,1.73,1.73,0,0,0-1.2-.38,1.82,1.82,0,0,0-1.16.32,1,1,0,0,0-.41.83,1,1,0,0,0,.48.82,5.85,5.85,0,0,0,1.43.61,6.14,6.14,0,0,1,2.52,1.31,2.59,2.59,0,0,1,.79,1.94,2.4,2.4,0,0,1-1,2,4.25,4.25,0,0,1-2.6.73,5,5,0,0,1-2.07-.42,3.22,3.22,0,0,1-1.42-1.15A3,3,0,0,1,290,154h2q0,1.65,1.95,1.65a1.87,1.87,0,0,0,1.13-.3A1,1,0,0,0,295.54,154.56Z"/><path class="cls-5" d="M306.36,148.88h-3v8.29h-2v-8.29h-3v-1.66h8Z"/><path class="cls-5" d="M312.27,155.12h-3.56l-.68,2h-2.15l3.66-9.95h1.88l3.69,9.95H313Zm-3-1.66h2.46l-1.24-3.72Z"/><path class="cls-5" d="M322.63,148.88h-3v8.29h-2v-8.29h-3v-1.66h8Z"/><path class="cls-5" d="M325.94,157.17h-2v-9.95h2Z"/><path class="cls-5" d="M335.91,152.42a6,6,0,0,1-.52,2.58,3.86,3.86,0,0,1-1.47,1.71,4.3,4.3,0,0,1-4.38,0,3.89,3.89,0,0,1-1.48-1.69,5.89,5.89,0,0,1-.54-2.54V152a6,6,0,0,1,.53-2.58,3.91,3.91,0,0,1,1.48-1.72,4.28,4.28,0,0,1,4.37,0,3.91,3.91,0,0,1,1.48,1.72,6,6,0,0,1,.53,2.58Zm-2.06-.45a4.23,4.23,0,0,0-.55-2.38,2,2,0,0,0-3.16,0,4.15,4.15,0,0,0-.56,2.36v.48a4.28,4.28,0,0,0,.55,2.37,1.94,1.94,0,0,0,3.17,0,4.26,4.26,0,0,0,.55-2.36Z"/><path class="cls-5" d="M345.39,157.17h-2l-3.95-6.55v6.55h-2v-9.95h2l4,6.56v-6.56h2Z"/></g><g id="arrow_1" data-name="arrow 1"><line class="cls-3" x1="170.23" y1="155.5" x2="231.2" y2="155.5"/><polygon class="cls-4" points="230.2 161.16 230.2 149.84 236.2 155.84 230.2 161.16"/></g><g id="column_1" data-name="column 1"><path class="cls-5" d="M31.79,96.34h-3v8.29h-2V96.34h-3V94.68h8Z"/><path class="cls-5" d="M40.84,99.88a6.12,6.12,0,0,1-.51,2.58,3.86,3.86,0,0,1-1.47,1.71,4,4,0,0,1-2.19.6,4.13,4.13,0,0,1-2.19-.59,4.06,4.06,0,0,1-1.49-1.7,5.85,5.85,0,0,1-.53-2.54v-.49A6,6,0,0,1,33,96.86a4,4,0,0,1,1.48-1.72,4.3,4.3,0,0,1,4.38,0,3.91,3.91,0,0,1,1.48,1.72,6,6,0,0,1,.52,2.58Zm-2.05-.45a4.25,4.25,0,0,0-.56-2.38,1.94,1.94,0,0,0-3.15,0,4.15,4.15,0,0,0-.56,2.36v.48a4.28,4.28,0,0,0,.55,2.37,1.8,1.8,0,0,0,1.6.84,1.76,1.76,0,0,0,1.56-.81,4.26,4.26,0,0,0,.56-2.36Z"/><path class="cls-5" d="M45.4,100.64l-1,1.15v2.84h-2V94.68h2v4.51L45.24,98l2.51-3.28h2.49l-3.49,4.43,3.6,5.52H47.93Z"/><path class="cls-5" d="M54.5,99.17l2-4.49h2.22L55.54,101v3.6H53.48V101l-3.24-6.35h2.23Z"/><path class="cls-5" d="M67.56,99.88a6.12,6.12,0,0,1-.51,2.58,4,4,0,0,1-1.47,1.71,4.06,4.06,0,0,1-2.2.6,4.12,4.12,0,0,1-2.18-.59,4,4,0,0,1-1.49-1.7,5.85,5.85,0,0,1-.53-2.54v-.49a6,6,0,0,1,.52-2.59,3.91,3.91,0,0,1,1.48-1.72,4.3,4.3,0,0,1,4.38,0A4,4,0,0,1,67,96.86a6,6,0,0,1,.52,2.58Zm-2-.45A4.25,4.25,0,0,0,65,97.05a2,2,0,0,0-3.16,0,4.24,4.24,0,0,0-.56,2.36v.48a4.28,4.28,0,0,0,.56,2.37,1.93,1.93,0,0,0,3.16,0,4.26,4.26,0,0,0,.56-2.36Z"/><path class="cls-5" d="M77.59,102a1.07,1.07,0,0,0-.41-.89,5.13,5.13,0,0,0-1.46-.65,9.73,9.73,0,0,1-1.67-.69,2.75,2.75,0,0,1-1.68-2.46,2.42,2.42,0,0,1,.45-1.44,3,3,0,0,1,1.3-1A4.75,4.75,0,0,1,76,94.54a4.36,4.36,0,0,1,1.88.39A3,3,0,0,1,79.17,96a2.9,2.9,0,0,1,.45,1.6h-2a1.36,1.36,0,0,0-.43-1.06,1.74,1.74,0,0,0-1.2-.38,1.85,1.85,0,0,0-1.15.32,1,1,0,0,0-.42.83,1,1,0,0,0,.49.82,5.25,5.25,0,0,0,1.42.61,6.08,6.08,0,0,1,2.52,1.31,2.61,2.61,0,0,1,.79,1.94,2.42,2.42,0,0,1-1,2,4.23,4.23,0,0,1-2.61.73,5,5,0,0,1-2.07-.42,3.28,3.28,0,0,1-1.42-1.15,3,3,0,0,1-.49-1.7h2c0,1.1.65,1.65,1.94,1.65a1.85,1.85,0,0,0,1.13-.3A1,1,0,0,0,77.59,102Z"/><path class="cls-5" d="M88.41,96.34h-3v8.29h-2V96.34h-3V94.68h8Z"/><path class="cls-5" d="M94.31,102.58H90.75l-.67,2H87.92l3.67-9.95h1.88l3.68,9.95H95Zm-3-1.66h2.46L92.53,97.2Z"/><path class="cls-5" d="M104.67,96.34h-3v8.29h-2V96.34h-3V94.68h8Z"/><path class="cls-5" d="M108,104.63h-2V94.68h2Z"/><path class="cls-5" d="M118,99.88a6.12,6.12,0,0,1-.51,2.58,3.92,3.92,0,0,1-1.47,1.71,4.06,4.06,0,0,1-2.2.6,4.12,4.12,0,0,1-2.18-.59,4,4,0,0,1-1.49-1.7,5.85,5.85,0,0,1-.53-2.54v-.49a6,6,0,0,1,.52-2.59,3.91,3.91,0,0,1,1.48-1.72,4.3,4.3,0,0,1,4.38,0,4,4,0,0,1,1.48,1.72,6,6,0,0,1,.52,2.58Zm-2-.45a4.25,4.25,0,0,0-.56-2.38,2,2,0,0,0-3.16,0,4.24,4.24,0,0,0-.56,2.36v.48a4.28,4.28,0,0,0,.56,2.37,1.93,1.93,0,0,0,3.16,0,4.26,4.26,0,0,0,.56-2.36Z"/><path class="cls-5" d="M127.43,104.63h-2l-4-6.54v6.54h-2V94.68h2l4,6.56V94.68h2Z"/><path d="M38,130.07H32.34v-1l2.82-3.1a7.17,7.17,0,0,0,.86-1.15,1.86,1.86,0,0,0,.26-.92,1.38,1.38,0,0,0-.34-1,1.18,1.18,0,0,0-.91-.38A1.34,1.34,0,0,0,34,123a1.69,1.69,0,0,0-.38,1.16H32.18a2.89,2.89,0,0,1,.35-1.41,2.49,2.49,0,0,1,1-1,3.13,3.13,0,0,1,1.5-.34A2.88,2.88,0,0,1,37,122a2.2,2.2,0,0,1,.71,1.73,3,3,0,0,1-.36,1.34,8.12,8.12,0,0,1-1.17,1.59l-2.06,2.23H38Z"/><path d="M43.52,124.42a2.21,2.21,0,0,1,1.75-.81c1.34,0,2,.77,2,2.31v4.15H45.9V126a1.25,1.25,0,0,0-.29-.93,1.13,1.13,0,0,0-.82-.27,1.36,1.36,0,0,0-1.27.76v4.53h-1.4v-9h1.4Z"/><path d="M52,125a3.66,3.66,0,0,0-.57,0,1.3,1.3,0,0,0-1.31.75v4.34H48.72v-6.34h1.35l0,.71a1.58,1.58,0,0,1,1.42-.83,1.41,1.41,0,0,1,.5.08Z"/><path d="M56.42,128.34a.66.66,0,0,0-.32-.58,3.17,3.17,0,0,0-1-.35,5.48,5.48,0,0,1-1.2-.38,1.63,1.63,0,0,1-1.06-1.5,1.69,1.69,0,0,1,.69-1.37,2.64,2.64,0,0,1,1.73-.55,2.82,2.82,0,0,1,1.82.56,1.8,1.8,0,0,1,.69,1.46h-1.4A.86.86,0,0,0,56,125a1.14,1.14,0,0,0-.8-.27,1.23,1.23,0,0,0-.75.21.69.69,0,0,0-.3.58.59.59,0,0,0,.28.51,3.64,3.64,0,0,0,1.1.37,5,5,0,0,1,1.3.44,1.84,1.84,0,0,1,.7.61,1.61,1.61,0,0,1,.23.87,1.64,1.64,0,0,1-.7,1.38,2.93,2.93,0,0,1-1.84.53,3.17,3.17,0,0,1-1.37-.28,2.25,2.25,0,0,1-.94-.77,1.88,1.88,0,0,1-.34-1.06H54a1,1,0,0,0,.38.78,1.46,1.46,0,0,0,.92.27,1.39,1.39,0,0,0,.85-.22A.67.67,0,0,0,56.42,128.34Z"/><path d="M65.71,130.07H64.3v-6.86l-2.07.72v-1.2l3.3-1.22h.18Z"/><path d="M73,121.49v1.18h-.17a2.57,2.57,0,0,0-2.73,2.47,2.27,2.27,0,0,1,1.73-.72,2.13,2.13,0,0,1,1.76.79,3.14,3.14,0,0,1,.65,2.06,3,3,0,0,1-.75,2.11,2.6,2.6,0,0,1-2,.8,2.53,2.53,0,0,1-2-.94,3.75,3.75,0,0,1-.79-2.47v-.49a5.25,5.25,0,0,1,1.09-3.51,3.84,3.84,0,0,1,3.11-1.28Zm-1.51,4.08a1.45,1.45,0,0,0-.85.26,1.56,1.56,0,0,0-.57.7V127a2.62,2.62,0,0,0,.4,1.51,1.2,1.2,0,0,0,1,.56,1.17,1.17,0,0,0,1-.48,2.34,2.34,0,0,0,0-2.51A1.16,1.16,0,0,0,71.51,125.57Z"/><path d="M79.76,123.73l0,.66a2.23,2.23,0,0,1,1.8-.78,1.74,1.74,0,0,1,1.73,1,2.19,2.19,0,0,1,1.92-1,2,2,0,0,1,1.55.58,2.58,2.58,0,0,1,.51,1.71v4.17h-1.4v-4.13a1.22,1.22,0,0,0-.27-.88A1.38,1.38,0,0,0,84,125a1.31,1.31,0,0,0-.43.68v4.35H82.17v-4.18A1,1,0,0,0,81,124.78a1.23,1.23,0,0,0-1.2.69v4.6H78.43v-6.34Z"/><path d="M88.76,122.08a.73.73,0,0,1,.21-.54.76.76,0,0,1,.59-.22.77.77,0,0,1,.59.22.73.73,0,0,1,.21.54.76.76,0,0,1-.21.54.8.8,0,0,1-.59.21.79.79,0,0,1-.59-.21A.76.76,0,0,1,88.76,122.08Zm1.5,8H88.85v-6.34h1.41Z"/><path d="M93.1,123.73l0,.73a2.23,2.23,0,0,1,1.83-.85c1.3,0,2,.76,2,2.27v4.19H95.55V126a1.26,1.26,0,0,0-.26-.89,1,1,0,0,0-.84-.29,1.36,1.36,0,0,0-1.27.77v4.52H91.77v-6.34Z"/><path d="M101.91,128.34a.65.65,0,0,0-.31-.58,3.35,3.35,0,0,0-1-.35,5.48,5.48,0,0,1-1.2-.38,1.63,1.63,0,0,1-1.05-1.5,1.68,1.68,0,0,1,.68-1.37,2.69,2.69,0,0,1,1.74-.55,2.84,2.84,0,0,1,1.82.56,1.8,1.8,0,0,1,.69,1.46h-1.41a.88.88,0,0,0-.3-.68,1.16,1.16,0,0,0-.8-.27,1.29,1.29,0,0,0-.76.21.71.71,0,0,0-.29.58.58.58,0,0,0,.27.51,3.64,3.64,0,0,0,1.1.37,4.88,4.88,0,0,1,1.3.44,1.88,1.88,0,0,1,.71.61,1.61,1.61,0,0,1,.22.87,1.64,1.64,0,0,1-.7,1.38,2.9,2.9,0,0,1-1.83.53,3.18,3.18,0,0,1-1.38-.28,2.32,2.32,0,0,1-.94-.77,1.87,1.87,0,0,1-.33-1.06h1.37a1,1,0,0,0,.37.78,1.46,1.46,0,0,0,.92.27,1.37,1.37,0,0,0,.85-.22A.67.67,0,0,0,101.91,128.34Z"/><path d="M107.21,126.84a3.84,3.84,0,0,1,.37-1.68,2.66,2.66,0,0,1,1-1.15,2.85,2.85,0,0,1,1.52-.4,2.68,2.68,0,0,1,2.06.83,3.24,3.24,0,0,1,.86,2.19V127a3.8,3.8,0,0,1-.35,1.68,2.69,2.69,0,0,1-1,1.14,2.9,2.9,0,0,1-1.54.4,2.69,2.69,0,0,1-2.12-.89,3.44,3.44,0,0,1-.8-2.38Zm1.41.12a2.62,2.62,0,0,0,.4,1.53,1.3,1.3,0,0,0,1.11.56,1.27,1.27,0,0,0,1.11-.57,2.78,2.78,0,0,0,.4-1.64,2.52,2.52,0,0,0-.41-1.53,1.3,1.3,0,0,0-1.11-.56,1.28,1.28,0,0,0-1.09.56A2.79,2.79,0,0,0,108.62,127Z"/><path d="M115.54,123.73l0,.73a2.24,2.24,0,0,1,1.83-.85c1.3,0,2,.76,2,2.27v4.19H118V126a1.31,1.31,0,0,0-.25-.89,1.08,1.08,0,0,0-.85-.29,1.36,1.36,0,0,0-1.27.77v4.52h-1.41v-6.34Z"/><rect class="cls-5" x="7.27" y="136.31" width="137.29" height="31.54"/><path class="cls-1" d="M23.43,147.58h1.34v5.48a2.37,2.37,0,0,1-.69,1.79,2.57,2.57,0,0,1-1.83.66,2.66,2.66,0,0,1-1.88-.62,2.28,2.28,0,0,1-.65-1.72h1.34a1.31,1.31,0,0,0,.3.94,1.18,1.18,0,0,0,.89.31,1.1,1.1,0,0,0,.86-.36,1.48,1.48,0,0,0,.32-1Z"/><path class="cls-1" d="M29.15,152.39h-1.5v3H26.3v-7.82H29a3.1,3.1,0,0,1,2.07.61,2.14,2.14,0,0,1,.73,1.76,2.21,2.21,0,0,1-.38,1.31,2.37,2.37,0,0,1-1,.81l1.74,3.26v.07H30.7Zm-1.5-1.09H29a1.52,1.52,0,0,0,1.06-.35,1.21,1.21,0,0,0,.39-.95,1.28,1.28,0,0,0-.36-1,1.45,1.45,0,0,0-1.05-.35H27.65Z"/><path class="cls-1" d="M41.08,148.68H38.66v6.72H37.33v-6.72H34.94v-1.1h6.14Z"/><path class="cls-1" d="M40.62,152.44A3.51,3.51,0,0,1,41,150.9a2.53,2.53,0,0,1,.94-1.05,2.62,2.62,0,0,1,1.4-.37,2.46,2.46,0,0,1,1.88.76,3,3,0,0,1,.79,2v.3a3.59,3.59,0,0,1-.32,1.54,2.46,2.46,0,0,1-.94,1,2.68,2.68,0,0,1-1.4.37,2.5,2.5,0,0,1-1.95-.82,3.17,3.17,0,0,1-.73-2.19Zm1.29.11a2.34,2.34,0,0,0,.37,1.41,1.27,1.27,0,0,0,2,0,2.55,2.55,0,0,0,.37-1.51,2.35,2.35,0,0,0-.38-1.4,1.19,1.19,0,0,0-1-.51,1.18,1.18,0,0,0-1,.51A2.53,2.53,0,0,0,41.91,152.55Z"/><path class="cls-1" d="M48.92,152.91l-.57.59v1.9H47.06v-8.25h1.29v4.76l.4-.51,1.59-1.81h1.55L49.76,152l2.36,3.39H50.63Z"/><path class="cls-1" d="M56.17,155.4a1.8,1.8,0,0,1-.15-.54,2.15,2.15,0,0,1-2.92.15,1.61,1.61,0,0,1-.55-1.24,1.65,1.65,0,0,1,.68-1.42,3.32,3.32,0,0,1,2-.5H56v-.38a1,1,0,0,0-.25-.72,1,1,0,0,0-.76-.28,1.11,1.11,0,0,0-.72.23.69.69,0,0,0-.28.56h-1.3a1.47,1.47,0,0,1,.32-.89,2.08,2.08,0,0,1,.85-.65,2.92,2.92,0,0,1,1.2-.24,2.39,2.39,0,0,1,1.61.51,1.87,1.87,0,0,1,.62,1.45v2.62a2.92,2.92,0,0,0,.22,1.25v.09Zm-1.42-.94a1.39,1.39,0,0,0,.72-.19,1.17,1.17,0,0,0,.51-.5v-1.1h-.7a2,2,0,0,0-1.08.25.83.83,0,0,0-.36.72.79.79,0,0,0,.25.6A.94.94,0,0,0,54.75,154.46Z"/><path class="cls-1" d="M58.62,148.08a.72.72,0,0,1,.19-.5.73.73,0,0,1,.54-.2.7.7,0,0,1,.54.2.69.69,0,0,1,.2.5.66.66,0,0,1-.2.49.7.7,0,0,1-.54.2.73.73,0,0,1-.54-.2A.7.7,0,0,1,58.62,148.08ZM60,155.4H58.7v-5.81H60Z"/><path class="cls-1" d="M61.16,152.45a3.52,3.52,0,0,1,.61-2.16,2,2,0,0,1,1.66-.81,1.87,1.87,0,0,1,1.47.64v-3h1.3v8.25H65l-.07-.6a1.89,1.89,0,0,1-1.54.71,2,2,0,0,1-1.64-.82A3.68,3.68,0,0,1,61.16,152.45Zm1.29.11a2.42,2.42,0,0,0,.34,1.39,1.08,1.08,0,0,0,1,.49,1.2,1.2,0,0,0,1.15-.71v-2.48a1.18,1.18,0,0,0-1.14-.7,1.11,1.11,0,0,0-1,.5A2.7,2.7,0,0,0,62.45,152.56Z"/><path class="cls-1" d="M67.3,152.44a3.38,3.38,0,0,1,.34-1.54,2.4,2.4,0,0,1,.94-1.05,2.56,2.56,0,0,1,1.39-.37,2.5,2.5,0,0,1,1.89.76,3,3,0,0,1,.78,2v.3a3.45,3.45,0,0,1-.32,1.54,2.46,2.46,0,0,1-.94,1,2.68,2.68,0,0,1-1.4.37,2.51,2.51,0,0,1-2-.82,3.17,3.17,0,0,1-.73-2.19Zm1.29.11A2.34,2.34,0,0,0,69,154a1.17,1.17,0,0,0,1,.5,1.2,1.2,0,0,0,1-.51,2.63,2.63,0,0,0,.36-1.51A2.35,2.35,0,0,0,71,151a1.18,1.18,0,0,0-1-.51,1.19,1.19,0,0,0-1,.51A2.6,2.6,0,0,0,68.59,152.55Z"/><path class="cls-1" d="M80.62,153.39a1,1,0,0,0-.36-.8A4.2,4.2,0,0,0,79,152a5.78,5.78,0,0,1-1.48-.64,2,2,0,0,1-1.06-1.75,1.91,1.91,0,0,1,.76-1.56,3.12,3.12,0,0,1,2-.61,3.31,3.31,0,0,1,1.44.3,2.37,2.37,0,0,1,1,.86,2.21,2.21,0,0,1,.36,1.23H80.62a1.24,1.24,0,0,0-.38-1,1.58,1.58,0,0,0-1.09-.34,1.61,1.61,0,0,0-1,.28,1,1,0,0,0-.37.8.84.84,0,0,0,.4.71,4.47,4.47,0,0,0,1.29.56,5.88,5.88,0,0,1,1.45.62,2.32,2.32,0,0,1,.8.79,2.11,2.11,0,0,1,.26,1.06,1.88,1.88,0,0,1-.74,1.55,3.24,3.24,0,0,1-2,.58,3.77,3.77,0,0,1-1.55-.32,2.64,2.64,0,0,1-1.09-.86,2.19,2.19,0,0,1-.39-1.29h1.34a1.29,1.29,0,0,0,.44,1,1.92,1.92,0,0,0,1.25.36,1.63,1.63,0,0,0,1.05-.28A.94.94,0,0,0,80.62,153.39Z"/><path class="cls-1" d="M84.29,150.22a2,2,0,0,1,1.6-.74c1.22,0,1.84.71,1.86,2.12v3.8H86.46v-3.75a1.17,1.17,0,0,0-.26-.85,1,1,0,0,0-.76-.25,1.23,1.23,0,0,0-1.15.7v4.15H83v-8.25h1.29Z"/><path class="cls-1" d="M89.06,148.08a.68.68,0,0,1,.19-.5.7.7,0,0,1,.54-.2.73.73,0,0,1,.54.2.68.68,0,0,1,.19.5.66.66,0,0,1-.19.49.73.73,0,0,1-.54.2.7.7,0,0,1-.54-.2A.66.66,0,0,1,89.06,148.08Zm1.37,7.32H89.14v-5.81h1.29Z"/><path class="cls-1" d="M93,149.59l0,.67a2,2,0,0,1,1.67-.78c1.2,0,1.81.69,1.83,2.08v3.84H95.28v-3.77a1.17,1.17,0,0,0-.24-.81,1,1,0,0,0-.77-.27,1.24,1.24,0,0,0-1.16.71v4.14h-1.3v-5.81Z"/><path class="cls-1" d="M99.75,152.91l-.57.59v1.9H97.89v-8.25h1.29v4.76l.4-.51,1.59-1.81h1.55L100.59,152,103,155.4h-1.49Z"/><path class="cls-1" d="M107,155.4a1.8,1.8,0,0,1-.15-.54,2,2,0,0,1-1.51.65,2,2,0,0,1-1.41-.5,1.61,1.61,0,0,1-.55-1.24,1.65,1.65,0,0,1,.68-1.42,3.32,3.32,0,0,1,2-.5h.79v-.38a1,1,0,0,0-.25-.72,1,1,0,0,0-.76-.28,1.11,1.11,0,0,0-.72.23.69.69,0,0,0-.28.56h-1.3a1.47,1.47,0,0,1,.32-.89,2.08,2.08,0,0,1,.85-.65,2.92,2.92,0,0,1,1.2-.24,2.39,2.39,0,0,1,1.61.51,1.87,1.87,0,0,1,.62,1.45v2.62a2.92,2.92,0,0,0,.22,1.25v.09Zm-1.42-.94a1.39,1.39,0,0,0,.72-.19,1.17,1.17,0,0,0,.51-.5v-1.1h-.7a2,2,0,0,0-1.08.25.83.83,0,0,0-.36.72.79.79,0,0,0,.25.6A.94.94,0,0,0,105.58,154.46Z"/><path class="cls-1" d="M110.65,149.59l0,.67a2,2,0,0,1,1.67-.78c1.2,0,1.81.69,1.83,2.08v3.84H112.9v-3.77a1.17,1.17,0,0,0-.24-.81,1,1,0,0,0-.77-.27,1.26,1.26,0,0,0-1.17.71v4.14h-1.29v-5.81Z"/><path class="cls-1" d="M118.73,153.82a.6.6,0,0,0-.29-.53,3,3,0,0,0-.94-.32,4.73,4.73,0,0,1-1.1-.36,1.47,1.47,0,0,1-1-1.37,1.53,1.53,0,0,1,.63-1.25,2.45,2.45,0,0,1,1.59-.51,2.55,2.55,0,0,1,1.67.52,1.64,1.64,0,0,1,.63,1.33h-1.29a.81.81,0,0,0-.27-.62,1.05,1.05,0,0,0-.74-.25,1.15,1.15,0,0,0-.69.2.62.62,0,0,0-.27.53.54.54,0,0,0,.25.47,3.4,3.4,0,0,0,1,.33,5.28,5.28,0,0,1,1.19.4,1.75,1.75,0,0,1,.65.57,1.41,1.41,0,0,1,.21.79,1.52,1.52,0,0,1-.65,1.27,2.68,2.68,0,0,1-1.68.49,3,3,0,0,1-1.26-.26,2,2,0,0,1-.86-.71,1.65,1.65,0,0,1-.31-1h1.25a.94.94,0,0,0,.35.71,1.29,1.29,0,0,0,.84.25,1.32,1.32,0,0,0,.78-.2A.6.6,0,0,0,118.73,153.82Z"/><path class="cls-1" d="M123.65,155.51a2.66,2.66,0,0,1-2-.78,2.86,2.86,0,0,1-.76-2.09v-.16a3.5,3.5,0,0,1,.33-1.55,2.56,2.56,0,0,1,.93-1.07,2.49,2.49,0,0,1,1.34-.38,2.24,2.24,0,0,1,1.82.76,3.25,3.25,0,0,1,.64,2.14v.53H122.2a1.76,1.76,0,0,0,.48,1.14,1.39,1.39,0,0,0,1,.41,1.74,1.74,0,0,0,1.44-.72l.7.67a2.33,2.33,0,0,1-.92.81A2.92,2.92,0,0,1,123.65,155.51Zm-.15-5a1.08,1.08,0,0,0-.86.37,1.94,1.94,0,0,0-.42,1h2.46v-.09a1.65,1.65,0,0,0-.34-1A1.09,1.09,0,0,0,123.5,150.53Z"/><path class="cls-1" d="M128.16,149.59l0,.67a2.08,2.08,0,0,1,1.68-.78c1.19,0,1.8.69,1.83,2.08v3.84h-1.3v-3.77a1.17,1.17,0,0,0-.23-.81,1,1,0,0,0-.78-.27,1.25,1.25,0,0,0-1.16.71v4.14h-1.29v-5.81Z"/><rect class="cls-5" x="7.29" y="172.9" width="137.29" height="31.54"/><path class="cls-1" d="M53.09,178.17h1.34v5.48a2.37,2.37,0,0,1-.7,1.79,2.54,2.54,0,0,1-1.83.66,2.65,2.65,0,0,1-1.87-.62,2.25,2.25,0,0,1-.66-1.72h1.34a1.27,1.27,0,0,0,.31.94,1.17,1.17,0,0,0,.88.31,1.12,1.12,0,0,0,.87-.36,1.48,1.48,0,0,0,.32-1Z"/><path class="cls-1" d="M58.8,183H57.31v3H56v-7.82h2.72a3.14,3.14,0,0,1,2.07.61,2.16,2.16,0,0,1,.73,1.75,2.22,2.22,0,0,1-.38,1.32,2.43,2.43,0,0,1-1,.81l1.74,3.26V186H60.36Zm-1.49-1.09h1.38a1.54,1.54,0,0,0,1.06-.35,1.2,1.2,0,0,0,.38-.95,1.27,1.27,0,0,0-.35-1,1.52,1.52,0,0,0-1.06-.36H57.31Z"/><path class="cls-1" d="M70.73,179.26H68.32V186H67v-6.73H64.6v-1.09h6.13Z"/><path class="cls-1" d="M70.28,183a3.51,3.51,0,0,1,.33-1.54,2.41,2.41,0,0,1,.94-1.05,2.58,2.58,0,0,1,1.39-.37,2.47,2.47,0,0,1,1.89.76,3,3,0,0,1,.79,2v.3a3.48,3.48,0,0,1-.33,1.54,2.44,2.44,0,0,1-.93,1,2.74,2.74,0,0,1-1.41.37,2.48,2.48,0,0,1-1.94-.82,3.17,3.17,0,0,1-.73-2.19Zm1.29.11a2.41,2.41,0,0,0,.36,1.41,1.19,1.19,0,0,0,1,.5,1.18,1.18,0,0,0,1-.51,2.63,2.63,0,0,0,.36-1.51,2.35,2.35,0,0,0-.37-1.4,1.26,1.26,0,0,0-2,0A2.56,2.56,0,0,0,71.57,183.14Z"/><path class="cls-1" d="M78.58,183.5l-.57.59V186H76.72v-8.25H78v4.76l.4-.51L80,180.18h1.55l-2.14,2.42L81.78,186H80.29Z"/><path class="cls-1" d="M85.83,186a1.8,1.8,0,0,1-.15-.54,2.15,2.15,0,0,1-2.92.15,1.61,1.61,0,0,1-.55-1.24,1.65,1.65,0,0,1,.68-1.42,3.23,3.23,0,0,1,2-.5h.8v-.38a1.09,1.09,0,0,0-.25-.73,1,1,0,0,0-.76-.27,1.14,1.14,0,0,0-.73.23.7.7,0,0,0-.28.56H82.33a1.53,1.53,0,0,1,.31-.89,2,2,0,0,1,.86-.65,2.92,2.92,0,0,1,1.2-.24,2.41,2.41,0,0,1,1.61.51,1.87,1.87,0,0,1,.62,1.45v2.62a3.09,3.09,0,0,0,.21,1.25V186Zm-1.42-.94a1.44,1.44,0,0,0,.72-.19,1.29,1.29,0,0,0,.51-.5v-1.1h-.7a1.87,1.87,0,0,0-1.08.25.83.83,0,0,0-.36.72.76.76,0,0,0,.25.6A1,1,0,0,0,84.41,185.05Z"/><path class="cls-1" d="M88.28,178.67a.68.68,0,0,1,.19-.5.83.83,0,0,1,1.08,0,.68.68,0,0,1,.19.5.66.66,0,0,1-.19.49.83.83,0,0,1-1.08,0A.66.66,0,0,1,88.28,178.67ZM89.65,186H88.36v-5.81h1.29Z"/><path class="cls-1" d="M90.82,183a3.52,3.52,0,0,1,.61-2.16,2,2,0,0,1,1.65-.81,1.89,1.89,0,0,1,1.48.64v-3h1.29V186H94.68l-.06-.6a1.91,1.91,0,0,1-1.55.71,2,2,0,0,1-1.63-.82A3.61,3.61,0,0,1,90.82,183Zm1.29.11a2.51,2.51,0,0,0,.33,1.39,1.1,1.1,0,0,0,1,.49,1.22,1.22,0,0,0,1.16-.71v-2.48a1.2,1.2,0,0,0-1.15-.7,1.1,1.1,0,0,0-1,.5A2.7,2.7,0,0,0,92.11,183.15Z"/><path class="cls-1" d="M97,183a3.51,3.51,0,0,1,.33-1.54,2.47,2.47,0,0,1,.94-1.05,2.6,2.6,0,0,1,1.39-.37,2.47,2.47,0,0,1,1.89.76,3,3,0,0,1,.79,2v.3a3.62,3.62,0,0,1-.32,1.54,2.46,2.46,0,0,1-.94,1,2.68,2.68,0,0,1-1.4.37,2.5,2.5,0,0,1-2-.82,3.17,3.17,0,0,1-.73-2.19Zm1.29.11a2.41,2.41,0,0,0,.36,1.41,1.2,1.2,0,0,0,1,.5,1.17,1.17,0,0,0,1-.51A2.63,2.63,0,0,0,101,183a2.35,2.35,0,0,0-.38-1.4,1.26,1.26,0,0,0-2,0A2.56,2.56,0,0,0,98.25,183.14Z"/><path class="cls-1" d="M54.71,191.37l2.23,6,2.23-6H60.9v7.82H59.56v-2.58l.14-3.45-2.29,6h-1l-2.28-6,.13,3.44v2.58H53v-7.82Z"/><path class="cls-1" d="M65.8,199.19a2.71,2.71,0,0,1-.15-.54,2,2,0,0,1-1.51.65,2,2,0,0,1-1.41-.5,1.74,1.74,0,0,1,.14-2.66,3.19,3.19,0,0,1,1.95-.5h.79v-.38a1,1,0,0,0-.25-.72,1,1,0,0,0-.76-.28,1.13,1.13,0,0,0-.72.23.67.67,0,0,0-.28.56H62.31a1.44,1.44,0,0,1,.31-.89,2,2,0,0,1,.85-.65,2.94,2.94,0,0,1,1.21-.24,2.41,2.41,0,0,1,1.61.51,1.85,1.85,0,0,1,.61,1.45v2.62a2.92,2.92,0,0,0,.22,1.25v.09Zm-1.42-.94a1.39,1.39,0,0,0,.72-.19,1.17,1.17,0,0,0,.51-.5v-1.1h-.7a1.86,1.86,0,0,0-1.07.25.83.83,0,0,0-.36.72.78.78,0,0,0,.24.6A1,1,0,0,0,64.38,198.25Z"/><path class="cls-1" d="M68.26,191.87a.71.71,0,0,1,.18-.5.73.73,0,0,1,.54-.2.74.74,0,0,1,.55.2.72.72,0,0,1,.19.5.7.7,0,0,1-.19.49.74.74,0,0,1-.55.2.73.73,0,0,1-.54-.2A.69.69,0,0,1,68.26,191.87Zm1.37,7.32H68.34v-5.81h1.29Z"/><path class="cls-1" d="M72.23,193.38l0,.67a2,2,0,0,1,1.67-.78c1.2,0,1.81.69,1.83,2.08v3.84H74.48v-3.77a1.17,1.17,0,0,0-.24-.81,1,1,0,0,0-.77-.27,1.26,1.26,0,0,0-1.17.71v4.14H71v-5.81Z"/><path class="cls-1" d="M81.26,198.1h3.51v1.09H79.92v-7.82h1.34Z"/><path class="cls-1" d="M85.68,191.87a.72.72,0,0,1,.19-.5.73.73,0,0,1,.54-.2.72.72,0,0,1,.54.2.68.68,0,0,1,.19.5.66.66,0,0,1-.19.49.72.72,0,0,1-.54.2.73.73,0,0,1-.54-.2A.7.7,0,0,1,85.68,191.87Zm1.37,7.32H85.76v-5.81h1.29Z"/><path class="cls-1" d="M89.66,193.38l0,.67a2.08,2.08,0,0,1,1.68-.78c1.19,0,1.8.69,1.83,2.08v3.84H91.9v-3.77a1.17,1.17,0,0,0-.23-.81,1,1,0,0,0-.78-.27,1.25,1.25,0,0,0-1.16.71v4.14H88.44v-5.81Z"/><path class="cls-1" d="M97,199.3a2.66,2.66,0,0,1-2-.78,2.87,2.87,0,0,1-.76-2.09v-.16a3.5,3.5,0,0,1,.33-1.55,2.56,2.56,0,0,1,.93-1.07,2.49,2.49,0,0,1,1.34-.38,2.24,2.24,0,0,1,1.82.76,3.2,3.2,0,0,1,.64,2.14v.53H95.59a1.76,1.76,0,0,0,.48,1.14,1.4,1.4,0,0,0,1.05.41,1.74,1.74,0,0,0,1.44-.72l.7.67a2.33,2.33,0,0,1-.92.81A2.92,2.92,0,0,1,97,199.3Zm-.15-5a1.08,1.08,0,0,0-.86.37,1.94,1.94,0,0,0-.42,1.05h2.46v-.1a1.65,1.65,0,0,0-.34-1A1.08,1.08,0,0,0,96.89,194.32Z"/></g><g id="Getting_There_Title" data-name="Getting There Title"><rect class="cls-2" y="0.5" width="599.7" height="65"/><path class="cls-1" d="M177.55,37.45a5.33,5.33,0,0,1-2.37,1.62,9.55,9.55,0,0,1-3.38.57,6.56,6.56,0,0,1-3.43-.88,5.88,5.88,0,0,1-2.27-2.57,9.56,9.56,0,0,1-.82-4V31.16A9.94,9.94,0,0,1,166,27.1a5.86,5.86,0,0,1,2.19-2.62,7,7,0,0,1,7.53.42,5.76,5.76,0,0,1,1.79,3.86h-3a3.12,3.12,0,0,0-.91-2,2.82,2.82,0,0,0-2-.63,2.72,2.72,0,0,0-2.4,1.24,6.72,6.72,0,0,0-.84,3.67v1a6.38,6.38,0,0,0,.9,3.72A3,3,0,0,0,172,37.05a3.32,3.32,0,0,0,2.49-.77V33.59h-2.82V31.21h5.92Z"/><path class="cls-1" d="M189.34,32.65h-6v4.19h7v2.59H180.29V23.79h10.06V26.4h-7v3.73h6Z"/><path class="cls-1" d="M204,26.4h-4.61v13H196.3v-13h-4.55V23.79H204Z"/><path class="cls-1" d="M217.6,26.4H213v13h-3.1v-13h-4.54V23.79H217.6Z"/><path class="cls-1" d="M222.62,39.43h-3.1V23.79h3.1Z"/><path class="cls-1" d="M237.88,39.43h-3.1l-6-10.29V39.43h-3.1V23.79h3.1l6,10.31V23.79h3.09Z"/><path class="cls-1" d="M252.61,37.45a5.35,5.35,0,0,1-2.36,1.62,9.65,9.65,0,0,1-3.39.57,6.56,6.56,0,0,1-3.43-.88,5.88,5.88,0,0,1-2.27-2.57,9.56,9.56,0,0,1-.82-4V31.16a10.11,10.11,0,0,1,.76-4.06,5.86,5.86,0,0,1,2.19-2.62,7,7,0,0,1,7.53.42,5.76,5.76,0,0,1,1.79,3.86h-3a3.17,3.17,0,0,0-.92-2,2.82,2.82,0,0,0-2-.63,2.72,2.72,0,0,0-2.4,1.24,6.72,6.72,0,0,0-.84,3.67v1a6.38,6.38,0,0,0,.9,3.72A3,3,0,0,0,247,37.05a3.32,3.32,0,0,0,2.49-.77V33.59h-2.82V31.21h5.92Z"/><path class="cls-1" d="M271.91,26.4h-4.6v13h-3.1v-13h-4.54V23.79h12.24Z"/><path class="cls-1" d="M285.77,32a9.66,9.66,0,0,1-.79,4,6.11,6.11,0,0,1-11.2,0,9.51,9.51,0,0,1-.82-4v-.77a9.63,9.63,0,0,1,.81-4.07,6.21,6.21,0,0,1,8.94-2.7,6.17,6.17,0,0,1,2.26,2.7,9.74,9.74,0,0,1,.8,4.06Zm-3.14-.71a6.73,6.73,0,0,0-.85-3.73,2.71,2.71,0,0,0-2.41-1.28A2.74,2.74,0,0,0,277,27.5a6.78,6.78,0,0,0-.86,3.7V32a6.92,6.92,0,0,0,.85,3.72A2.74,2.74,0,0,0,279.39,37a2.67,2.67,0,0,0,2.39-1.27,6.85,6.85,0,0,0,.85-3.71Z"/><path class="cls-1" d="M304.82,26.4h-4.61v13h-3.1v-13h-4.54V23.79h12.25Z"/><path class="cls-1" d="M318.87,39.43h-3.1v-6.7h-6v6.7h-3.1V23.79h3.1v6.34h6V23.79h3.1Z"/><path class="cls-1" d="M330.87,32.65h-5.95v4.19h7v2.59H321.83V23.79h10.05V26.4h-7v3.73h5.95Z"/><path class="cls-1" d="M347,35.33a1.71,1.71,0,0,0-.62-1.41,8.27,8.27,0,0,0-2.23-1,14.93,14.93,0,0,1-2.55-1.07A4.34,4.34,0,0,1,339,28a3.9,3.9,0,0,1,.69-2.27,4.55,4.55,0,0,1,2-1.55,7.23,7.23,0,0,1,2.89-.56,6.61,6.61,0,0,1,2.87.61,4.75,4.75,0,0,1,2,1.71,4.67,4.67,0,0,1,.69,2.52H347a2.15,2.15,0,0,0-.65-1.67,2.62,2.62,0,0,0-1.83-.6,2.8,2.8,0,0,0-1.77.5,1.59,1.59,0,0,0-.63,1.32,1.52,1.52,0,0,0,.74,1.27,7.93,7.93,0,0,0,2.18,1,9.37,9.37,0,0,1,3.85,2.05,4.2,4.2,0,0,1,1.2,3,3.83,3.83,0,0,1-1.47,3.19,6.3,6.3,0,0,1-4,1.15,7.45,7.45,0,0,1-3.16-.66,5,5,0,0,1-2.17-1.81,4.74,4.74,0,0,1-.75-2.66h3.11c0,1.73,1,2.59,3,2.59a2.84,2.84,0,0,0,1.73-.47A1.55,1.55,0,0,0,347,35.33Z"/><path class="cls-1" d="M363.72,26.4h-4.61v13H356v-13h-4.54V23.79h12.25Z"/><path class="cls-1" d="M372.35,36.21h-5.43l-1,3.22h-3.29l5.6-15.64h2.87l5.62,15.64h-3.29Zm-4.6-2.61h3.76l-1.89-5.86Z"/><path class="cls-1" d="M378.32,39.43V23.79H383a6.78,6.78,0,0,1,3.54.93,6.39,6.39,0,0,1,2.45,2.64,8.47,8.47,0,0,1,.87,3.89V32a8.36,8.36,0,0,1-.86,3.88,6.25,6.25,0,0,1-2.43,2.63,6.84,6.84,0,0,1-3.54,1Zm3.1-13V36.84h1.5a3.3,3.3,0,0,0,2.77-1.23,5.76,5.76,0,0,0,1-3.54v-.83a5.85,5.85,0,0,0-.94-3.61A3.31,3.31,0,0,0,383,26.4Z"/><path class="cls-1" d="M395.41,39.43h-3.09V23.79h3.09Z"/><path class="cls-1" d="M409.89,23.79v10.3a5.38,5.38,0,0,1-1.55,4.06,5.79,5.79,0,0,1-4.22,1.49,5.86,5.86,0,0,1-4.18-1.45,5.27,5.27,0,0,1-1.58-4V23.79h3.1V34.11a3,3,0,0,0,.71,2.24,2.63,2.63,0,0,0,1.95.7c1.75,0,2.63-.95,2.66-2.85V23.79Z"/><path class="cls-1" d="M416.78,23.79l3.86,11.34,3.84-11.34h4.07V39.43h-3.11V35.15l.31-7.38-4.06,11.66h-2.13l-4-11.64.31,7.36v4.28h-3.1V23.79Z"/></g></g></g></g></svg>