<svg xmlns="http://www.w3.org/2000/svg" viewBox="0 0 600 479.77"><defs><style>.cls-1{fill:#fff;}.cls-2{fill:#6678a8;}.cls-3{fill:#65a4c3;}.cls-4,.cls-6{fill:none;}.cls-4{stroke:#b4d9b9;stroke-miterlimit:10;stroke-width:2px;}.cls-5{fill:#b4d9b9;}</style></defs><title>Tokyo</title><g id="Layer_2" data-name="Layer 2"><g id="Layer_1-2" data-name="Layer 1"><g id="Tokyo"><g id="box"><rect class="cls-1" x="0.67" width="598.68" height="479.44"/></g><g id="Name_of_Stadium" data-name="Name of Stadium"><rect class="cls-2" x="0.7" y="414.77" width="599.3" height="65"/><path class="cls-1" d="M167.14,438V433.5h1.05a5.14,5.14,0,0,0,3.7-1.56,5.29,5.29,0,0,0,1.54-3.74,1.05,1.05,0,0,0-1.05-1.06H166.1a1.05,1.05,0,0,0-1,1.06v9.26a69,69,0,0,0-10.93-1.59c-2-.14-4.07-.23-6.15-.25v-4.24H149a5.14,5.14,0,0,0,3.7-1.56,5.29,5.29,0,0,0,1.54-3.74,1.05,1.05,0,0,0-1-1.06h-6.28a1.05,1.05,0,0,0-1.05,1.06v9.54c-2.07,0-4.14.11-6.14.25a69,69,0,0,0-10.94,1.59v-4h1a5.16,5.16,0,0,0,3.71-1.56,5.32,5.32,0,0,0,1.53-3.74,1.05,1.05,0,0,0-1.05-1.06h-6.28a1.05,1.05,0,0,0-1.05,1.06V438c-4.38,1.31-6.6,3-6.6,5v19.08c0,1.61,1.43,3,4.24,4.18,4.51,1.87,11.31,2.72,16.23,3,2.08.14,4.21.2,6.35.2s4.27-.06,6.35-.2c4.85-.31,11.69-1.15,16.23-3,2.81-1.16,4.23-2.57,4.23-4.18V443C173.74,441,171.52,439.33,167.14,438Zm0-8.76h4a3.17,3.17,0,0,1-.74,1.19,3.09,3.09,0,0,1-2.22.93h-1.05ZM148,427.14h4a3.25,3.25,0,0,1-.75,1.19,3.09,3.09,0,0,1-2.22.93H148Zm-19.17,2.12h4a3.33,3.33,0,0,1-.75,1.19,3.09,3.09,0,0,1-2.22.93h-1ZM154.62,438a67.61,67.61,0,0,1,9.3,1.33l-4.65,3.36c-2.16-.3-4.65-.52-7.32-.64Zm-7.69-.31c1.77,0,3.54,0,5.28.15L149.49,442c-1.69,0-3.44,0-5.13,0l-2.72-4.12C143.38,437.78,145.15,437.73,146.93,437.73Zm-7.7.31,2.67,4c-2.66.12-5.16.33-7.32.64l-4.64-3.36A67.23,67.23,0,0,1,139.23,438Zm-11.95,2,4.39,3.17a19.16,19.16,0,0,0-2.48.67c-.92.34-2.15.9-2.4,2-3.55-1.14-4.58-2.29-4.58-2.83S123.29,441.26,127.28,440.06Zm5.71,26.3c-7.83-1.28-10.78-3.26-10.78-4.25v-3.3a13.1,13.1,0,0,0,2.16,1.11,40.32,40.32,0,0,0,8.62,2.21Zm0-6.38a36.94,36.94,0,0,1-7.82-2c-2.19-.9-3-1.75-3-2.21v-3.28a12.84,12.84,0,0,0,2.14,1.11,40.06,40.06,0,0,0,8.64,2.21Zm0-6.34c-7.83-1.28-10.78-3.26-10.78-4.25v-3.27a22.57,22.57,0,0,0,7.2,2.63c1.12.25,2.32.48,3.58.68Zm6.6,13.49c-1.55-.12-3.06-.27-4.5-.46v-4.24c1.44.19,2.95.35,4.5.46Zm.12-6.35c-1.6-.12-3.14-.29-4.62-.48v-4.21c2.17.28,4.47.48,6.84.59l-.11.11A7.37,7.37,0,0,0,139.71,460.78ZM135.09,454v-4.22a92.08,92.08,0,0,0,10.79.71v4.24A91.52,91.52,0,0,1,135.09,454Zm17.07,13.32c-1.38.07-2.78.11-4.19.13v-3.17a1,1,0,1,0-2.09,0v3.17c-1.41,0-2.81-.06-4.19-.13v-5.33a5.24,5.24,0,0,1,5.24-5.13,5.18,5.18,0,0,1,3.7,1.55,5.29,5.29,0,0,1,1.53,3.58v5.33Zm6.6-.6c-1.44.19-2.95.34-4.5.46v-4.24c1.55-.11,3.06-.27,4.5-.46Zm0-6.37c-1.47.19-3,.36-4.62.48a7.36,7.36,0,0,0-2-3.92l-.18-.18c2.36-.11,4.66-.31,6.83-.59v4.21Zm0-6.35a91.52,91.52,0,0,1-10.79.73v-4.24a91.93,91.93,0,0,0,10.79-.71Zm-11.83-5.62a91.11,91.11,0,0,1-12.73-.86c-1.41-.2-2.75-.44-4-.71l-.19-.1a5.23,5.23,0,0,1-.91-.41c2.78-1.53,11.53-2,14.73-2.11,2-.06,4.15-.06,6.17,0a79.32,79.32,0,0,1,9.41.75,16.85,16.85,0,0,1,5.32,1.36,6.85,6.85,0,0,1-1.29.55c-1.19.25-2.46.48-3.79.67A91.11,91.11,0,0,1,146.93,448.33Zm24.72,13.78c0,1-3,3-10.79,4.25v-4.23a40.32,40.32,0,0,0,8.62-2.21,13.23,13.23,0,0,0,2.17-1.11Zm0-6.36c0,.46-.78,1.31-3,2.21a37.22,37.22,0,0,1-7.83,2v-4.19a40.32,40.32,0,0,0,8.65-2.21,13.25,13.25,0,0,0,2.14-1.11Zm0-6.36c0,1-3,3-10.79,4.25v-4.21c3.21-.51,8.08-1.52,10.79-3.31Zm-4.59-3.53c-.25-1.07-1.51-1.64-2.47-2a20.28,20.28,0,0,0-2.41-.65l4.39-3.17c4,1.2,5.08,2.42,5.08,3S170.6,444.73,167.06,445.86Z"/><path class="cls-1" d="M195.57,446.74h-3.44v9.48h-2.32v-9.48h-3.4v-1.9h9.16Z"/><path class="cls-1" d="M205.91,450.79a6.77,6.77,0,0,1-.59,2.94,4.48,4.48,0,0,1-1.67,2,4.7,4.7,0,0,1-2.51.68,4.62,4.62,0,0,1-2.5-.68,4.55,4.55,0,0,1-1.7-1.94,6.68,6.68,0,0,1-.6-2.9v-.56a6.89,6.89,0,0,1,.59-3,4.73,4.73,0,0,1,6.69-2,4.52,4.52,0,0,1,1.69,2,6.88,6.88,0,0,1,.6,2.95Zm-2.35-.52a4.86,4.86,0,0,0-.63-2.72,2.05,2.05,0,0,0-1.81-.93,2.08,2.08,0,0,0-1.8.92,4.83,4.83,0,0,0-.64,2.69v.56a4.81,4.81,0,0,0,.64,2.7,2.2,2.2,0,0,0,3.61,0,4.81,4.81,0,0,0,.63-2.7Z"/><path class="cls-1" d="M211.12,451.66,209.91,453v3.25H207.6V444.84h2.31V450l1-1.42,2.87-3.74h2.85l-4,5.06,4.11,6.32H214Z"/><path class="cls-1" d="M221.51,450l2.34-5.13h2.54l-3.7,7.25v4.13h-2.35v-4.13l-3.69-7.25h2.54Z"/><path class="cls-1" d="M236.43,450.79a6.92,6.92,0,0,1-.59,2.94,4.43,4.43,0,0,1-1.68,2,4.67,4.67,0,0,1-2.51.68,4.56,4.56,0,0,1-2.49-.68,4.48,4.48,0,0,1-1.7-1.94,6.83,6.83,0,0,1-.61-2.9v-.56a6.89,6.89,0,0,1,.6-3,4.52,4.52,0,0,1,1.69-2,4.6,4.6,0,0,1,6.69,2,6.88,6.88,0,0,1,.6,2.95Zm-2.35-.52a4.77,4.77,0,0,0-.64-2.72,2.21,2.21,0,0,0-3.6,0,4.75,4.75,0,0,0-.64,2.69v.56a4.9,4.9,0,0,0,.63,2.7,2.2,2.2,0,0,0,3.61,0,4.89,4.89,0,0,0,.64-2.7Z"/><path class="cls-1" d="M247.88,453.23a1.21,1.21,0,0,0-.46-1,6.59,6.59,0,0,0-1.67-.75,11.86,11.86,0,0,1-1.91-.77,3.15,3.15,0,0,1-1.91-2.82,2.78,2.78,0,0,1,.51-1.65,3.34,3.34,0,0,1,1.47-1.13,5.51,5.51,0,0,1,2.16-.4,4.92,4.92,0,0,1,2.15.44,3.37,3.37,0,0,1,1.46,1.24,3.29,3.29,0,0,1,.52,1.83h-2.31a1.52,1.52,0,0,0-.49-1.21,2,2,0,0,0-1.37-.44,2.09,2.09,0,0,0-1.32.37,1.15,1.15,0,0,0-.47.95,1.12,1.12,0,0,0,.55.93,6.22,6.22,0,0,0,1.63.71A7,7,0,0,1,249.3,451a3,3,0,0,1,.9,2.22,2.73,2.73,0,0,1-1.1,2.31,4.8,4.8,0,0,1-3,.84,5.7,5.7,0,0,1-2.37-.48,3.75,3.75,0,0,1-1.62-1.31,3.37,3.37,0,0,1-.56-1.94h2.32c0,1.25.74,1.88,2.23,1.88a2.13,2.13,0,0,0,1.29-.34A1.09,1.09,0,0,0,247.88,453.23Z"/><path class="cls-1" d="M260.24,446.74h-3.45v9.48h-2.32v-9.48h-3.39v-1.9h9.16Z"/><path class="cls-1" d="M267,453.87h-4.06l-.78,2.35h-2.46l4.18-11.38H266l4.21,11.38h-2.46ZM263.54,452h2.81l-1.41-4.26Z"/><path class="cls-1" d="M271.27,456.22V444.84h3.46a5.17,5.17,0,0,1,2.65.68,4.65,4.65,0,0,1,1.83,1.92,5.94,5.94,0,0,1,.66,2.83v.53a6,6,0,0,1-.65,2.82,4.59,4.59,0,0,1-1.82,1.91,5.3,5.3,0,0,1-2.64.69Zm2.32-9.48v7.59h1.12a2.51,2.51,0,0,0,2.08-.89,4.09,4.09,0,0,0,.73-2.57v-.61a4.15,4.15,0,0,0-.71-2.62,2.49,2.49,0,0,0-2.08-.9Z"/><path class="cls-1" d="M284,456.22H281.7V444.84H284Z"/><path class="cls-1" d="M294.67,444.84v7.49a3.87,3.87,0,0,1-1.15,3,5.16,5.16,0,0,1-6.28,0,3.78,3.78,0,0,1-1.19-2.9v-7.58h2.32v7.51a2.19,2.19,0,0,0,.53,1.63,2,2,0,0,0,1.46.51c1.31,0,2-.69,2-2.08v-7.57Z"/><path class="cls-1" d="M299.6,444.84l2.89,8.25,2.87-8.25h3v11.38h-2.32v-3.11l.23-5.37-3,8.48h-1.59l-3-8.47.23,5.36v3.11h-2.32V444.84Z"/><path class="cls-1" d="M314.32,451.59a12.2,12.2,0,0,1,.47-3.4,9.23,9.23,0,0,1,1.39-2.87,5.29,5.29,0,0,1,2-1.73l.44,1.22a5.41,5.41,0,0,0-1.76,2.61,12,12,0,0,0-.64,4.13v.24a12.34,12.34,0,0,0,.63,4.14,5.56,5.56,0,0,0,1.77,2.65l-.44,1.19a5.12,5.12,0,0,1-1.95-1.68,8.79,8.79,0,0,1-1.39-2.79,12,12,0,0,1-.51-3.29Z"/><path class="cls-1" d="M326.27,453.87h-4.06l-.78,2.35H319l4.19-11.38h2.14l4.21,11.38h-2.46ZM322.83,452h2.81l-1.41-4.26Z"/><path class="cls-1" d="M335.1,444.84h2.31v7.88a3.9,3.9,0,0,1-.47,1.92,3.3,3.3,0,0,1-1.34,1.28,4.19,4.19,0,0,1-2,.45,4,4,0,0,1-2.78-.91,3.38,3.38,0,0,1-1-2.6h2.33a1.82,1.82,0,0,0,.35,1.23,1.35,1.35,0,0,0,1.09.4,1.3,1.3,0,0,0,1.06-.46,2,2,0,0,0,.4-1.31Z"/><path class="cls-1" d="M341.86,456.22h-2.32V444.84h2.32Z"/><path class="cls-1" d="M353.15,456.22h-2.32l-4.51-7.49v7.49H344V444.84h2.31l4.52,7.5v-7.5h2.31Z"/><path class="cls-1" d="M364.41,450.79a6.92,6.92,0,0,1-.58,2.94,4.56,4.56,0,0,1-1.68,2,4.7,4.7,0,0,1-2.51.68,4.56,4.56,0,0,1-2.49-.68,4.42,4.42,0,0,1-1.7-1.94,6.54,6.54,0,0,1-.61-2.9v-.56a6.89,6.89,0,0,1,.59-3,4.6,4.6,0,0,1,8.38,0,6.88,6.88,0,0,1,.6,2.95Zm-2.35-.52a4.86,4.86,0,0,0-.63-2.72,2.05,2.05,0,0,0-1.81-.93,2.08,2.08,0,0,0-1.8.92,4.83,4.83,0,0,0-.64,2.69v.56a4.81,4.81,0,0,0,.64,2.7,2.2,2.2,0,0,0,3.61,0,4.81,4.81,0,0,0,.63-2.7Z"/><path class="cls-1" d="M369.12,444.84l2.89,8.25,2.87-8.25h3.05v11.38H375.6v-3.11l.23-5.37-3,8.48h-1.59l-3-8.47.23,5.36v3.11H366.1V444.84Z"/><path class="cls-1" d="M389.19,450.79a6.92,6.92,0,0,1-.59,2.94,4.43,4.43,0,0,1-1.68,2,4.67,4.67,0,0,1-2.51.68,4.56,4.56,0,0,1-2.49-.68,4.48,4.48,0,0,1-1.7-1.94,6.83,6.83,0,0,1-.61-2.9v-.56a6.89,6.89,0,0,1,.6-3,4.52,4.52,0,0,1,1.69-2,4.94,4.94,0,0,1,5,0,4.52,4.52,0,0,1,1.69,2,6.88,6.88,0,0,1,.6,2.95Zm-2.35-.52a4.86,4.86,0,0,0-.63-2.72,2.22,2.22,0,0,0-3.61,0,4.75,4.75,0,0,0-.64,2.69v.56a4.9,4.9,0,0,0,.63,2.7,2.21,2.21,0,0,0,3.62,0,5,5,0,0,0,.63-2.7Z"/><path class="cls-1" d="M398.68,446.74h-3.45v9.48h-2.31v-9.48h-3.4v-1.9h9.16Z"/><path class="cls-1" d="M409,450.79a6.92,6.92,0,0,1-.59,2.94,4.43,4.43,0,0,1-1.68,2,4.94,4.94,0,0,1-5,0,4.55,4.55,0,0,1-1.7-1.94,6.83,6.83,0,0,1-.61-2.9v-.56a6.89,6.89,0,0,1,.6-3,4.73,4.73,0,0,1,6.69-2,4.52,4.52,0,0,1,1.69,2,6.88,6.88,0,0,1,.6,2.95Zm-2.35-.52a4.86,4.86,0,0,0-.63-2.72,2.22,2.22,0,0,0-3.61,0,4.83,4.83,0,0,0-.64,2.69v.56a4.81,4.81,0,0,0,.64,2.7,2.2,2.2,0,0,0,3.61,0,4.81,4.81,0,0,0,.63-2.7Z"/><path class="cls-1" d="M420.47,453.23a1.21,1.21,0,0,0-.46-1,6.42,6.42,0,0,0-1.67-.75,12.25,12.25,0,0,1-1.91-.77,3.16,3.16,0,0,1-1.91-2.82,2.78,2.78,0,0,1,.51-1.65,3.37,3.37,0,0,1,1.48-1.13,5.51,5.51,0,0,1,2.16-.4,4.87,4.87,0,0,1,2.14.44,3.45,3.45,0,0,1,1.47,1.24,3.37,3.37,0,0,1,.52,1.83h-2.32A1.52,1.52,0,0,0,420,447a2,2,0,0,0-1.36-.44,2.05,2.05,0,0,0-1.32.37,1.13,1.13,0,0,0-.47.95,1.09,1.09,0,0,0,.55.93,6.29,6.29,0,0,0,1.62.71,7,7,0,0,1,2.88,1.49,3,3,0,0,1,.91,2.22,2.74,2.74,0,0,1-1.11,2.31,4.76,4.76,0,0,1-3,.84,5.69,5.69,0,0,1-2.36-.48,3.78,3.78,0,0,1-1.63-1.31,3.45,3.45,0,0,1-.56-1.94h2.33c0,1.25.74,1.88,2.22,1.88a2.13,2.13,0,0,0,1.29-.34A1.09,1.09,0,0,0,420.47,453.23Z"/><path class="cls-1" d="M432.83,446.74h-3.44v9.48h-2.32v-9.48h-3.4v-1.9h9.16Z"/><path class="cls-1" d="M439.57,453.87h-4.06l-.77,2.35h-2.47l4.19-11.38h2.15l4.21,11.38h-2.47ZM436.14,452H439l-1.42-4.26Z"/><path class="cls-1" d="M443.87,456.22V444.84h3.46a5.2,5.2,0,0,1,2.65.68,4.71,4.71,0,0,1,1.83,1.92,6.05,6.05,0,0,1,.65,2.83v.53a6,6,0,0,1-.64,2.82,4.66,4.66,0,0,1-1.82,1.91,5.34,5.34,0,0,1-2.65.69Zm2.31-9.48v7.59h1.12a2.5,2.5,0,0,0,2.08-.89,4.09,4.09,0,0,0,.73-2.57v-.61a4.09,4.09,0,0,0-.71-2.62,2.47,2.47,0,0,0-2.07-.9Z"/><path class="cls-1" d="M456.61,456.22h-2.32V444.84h2.32Z"/><path class="cls-1" d="M467.27,444.84v7.49a3.88,3.88,0,0,1-1.16,3,4.43,4.43,0,0,1-3.15,1.08,4.49,4.49,0,0,1-3.13-1.05,3.78,3.78,0,0,1-1.18-2.9v-7.58H461v7.51a2.19,2.19,0,0,0,.52,1.63,2,2,0,0,0,1.47.51c1.3,0,2-.69,2-2.08v-7.57Z"/><path class="cls-1" d="M472.19,444.84l2.89,8.25,2.88-8.25h3v11.38h-2.33v-3.11l.24-5.37-3,8.48h-1.59l-3-8.47.23,5.36v3.11h-2.31V444.84Z"/><path class="cls-1" d="M486.72,451.77a11.33,11.33,0,0,1-.5,3.4,9.27,9.27,0,0,1-1.44,2.88,5.14,5.14,0,0,1-2,1.72l-.43-1.19a5.52,5.52,0,0,0,1.73-2.58,12,12,0,0,0,.65-4v-.41a12.34,12.34,0,0,0-.63-4.12,5.63,5.63,0,0,0-1.75-2.67l.43-1.2a5.3,5.3,0,0,1,2,1.67,9.4,9.4,0,0,1,1.45,2.82,11.38,11.38,0,0,1,.53,3.34Z"/></g><path d="M269.06,396.46l.46-4.3h4.53v1.23h-3.36l-.23,2a2.55,2.55,0,0,1,1.32-.34,2.32,2.32,0,0,1,1.87.78,3.05,3.05,0,0,1,.67,2.09,2.87,2.87,0,0,1-.74,2.07,2.65,2.65,0,0,1-2,.77,2.83,2.83,0,0,1-1.92-.66,2.4,2.4,0,0,1-.83-1.76h1.36a1.54,1.54,0,0,0,.44,1,1.35,1.35,0,0,0,.94.33,1.21,1.21,0,0,0,1-.47,2,2,0,0,0,.36-1.28,1.81,1.81,0,0,0-.39-1.23,1.42,1.42,0,0,0-1.11-.46,1.71,1.71,0,0,0-.64.11,1.73,1.73,0,0,0-.58.4Z"/><path d="M279.8,394.35l0,.66a2.23,2.23,0,0,1,1.8-.78,1.72,1.72,0,0,1,1.72,1,2.22,2.22,0,0,1,1.93-1,1.93,1.93,0,0,1,1.54.58,2.59,2.59,0,0,1,.52,1.71v4.17h-1.41v-4.13a1.24,1.24,0,0,0-.26-.88,1.11,1.11,0,0,0-.86-.28,1.16,1.16,0,0,0-.79.26,1.36,1.36,0,0,0-.42.68v4.35H282.2v-4.17a1,1,0,0,0-1.12-1.12,1.23,1.23,0,0,0-1.2.69v4.6h-1.41v-6.34Z"/><path d="M288.8,392.7a.72.72,0,0,1,.2-.54.77.77,0,0,1,.59-.22.76.76,0,0,1,.59.22.73.73,0,0,1,.21.54.75.75,0,0,1-.21.54.79.79,0,0,1-.59.21.8.8,0,0,1-.59-.21A.74.74,0,0,1,288.8,392.7Zm1.49,8h-1.41v-6.34h1.41Z"/><path d="M293.13,394.35l0,.73a2.22,2.22,0,0,1,1.82-.85c1.31,0,2,.76,2,2.27v4.19h-1.41v-4.11a1.31,1.31,0,0,0-.26-.89,1,1,0,0,0-.84-.29,1.36,1.36,0,0,0-1.27.78v4.51H291.8v-6.34Z"/><path d="M301.93,399a.65.65,0,0,0-.31-.58,3.27,3.27,0,0,0-1-.35,5.48,5.48,0,0,1-1.2-.38,1.63,1.63,0,0,1-1.06-1.5,1.7,1.7,0,0,1,.69-1.37,2.64,2.64,0,0,1,1.73-.55,2.82,2.82,0,0,1,1.82.56,1.8,1.8,0,0,1,.69,1.46h-1.41a.88.88,0,0,0-.3-.68,1.14,1.14,0,0,0-.8-.27,1.23,1.23,0,0,0-.75.21.68.68,0,0,0-.29.58.58.58,0,0,0,.27.51,3.64,3.64,0,0,0,1.1.37,5.14,5.14,0,0,1,1.3.44,1.84,1.84,0,0,1,.7.61,1.61,1.61,0,0,1,.23.87,1.66,1.66,0,0,1-.7,1.38,2.93,2.93,0,0,1-1.84.53,3.17,3.17,0,0,1-1.37-.28,2.18,2.18,0,0,1-.94-.77,1.88,1.88,0,0,1-.34-1.06h1.37a1,1,0,0,0,.38.78,1.46,1.46,0,0,0,.92.27,1.34,1.34,0,0,0,.84-.22A.63.63,0,0,0,301.93,399Z"/><path d="M313,398.72l1-4.37h1.37l-1.71,6.34H312.5l-1.34-4.36-1.32,4.36h-1.16L307,394.35h1.37l1,4.33,1.29-4.33h1.06Z"/><path d="M320.06,400.69a2.08,2.08,0,0,1-.16-.59,2.37,2.37,0,0,1-3.19.16,1.74,1.74,0,0,1-.6-1.35,1.8,1.8,0,0,1,.75-1.55,3.56,3.56,0,0,1,2.13-.55h.86v-.41a1.13,1.13,0,0,0-.27-.79,1.07,1.07,0,0,0-.83-.3,1.24,1.24,0,0,0-.79.25.77.77,0,0,0-.31.62h-1.4a1.58,1.58,0,0,1,.34-1,2.31,2.31,0,0,1,.93-.71,3.26,3.26,0,0,1,1.31-.26,2.61,2.61,0,0,1,1.75.56,2,2,0,0,1,.68,1.57v2.86a3.45,3.45,0,0,0,.23,1.37v.1Zm-1.55-1a1.68,1.68,0,0,0,.79-.2,1.39,1.39,0,0,0,.55-.55v-1.2h-.76a2,2,0,0,0-1.18.28.89.89,0,0,0-.39.78.83.83,0,0,0,.27.65A1,1,0,0,0,318.51,399.66Z"/><path d="M324.23,400.69h-1.41v-9h1.41Z"/><path d="M327.8,398l-.63.65v2.07h-1.41v-9h1.41v5.19l.44-.56,1.73-2H331L328.71,397l2.57,3.7h-1.63Z"/><path class="cls-3" d="M163.29,371.13h-3v8.29h-2v-8.29h-3v-1.66h8Z"/><path class="cls-3" d="M172.34,374.67a6,6,0,0,1-.52,2.58,3.9,3.9,0,0,1-1.46,1.71,4.06,4.06,0,0,1-2.2.6A4.12,4.12,0,0,1,166,379a4,4,0,0,1-1.49-1.7,5.85,5.85,0,0,1-.53-2.54v-.49a6,6,0,0,1,.52-2.59,3.91,3.91,0,0,1,1.48-1.72,4,4,0,0,1,2.19-.6,4,4,0,0,1,2.18.6,3.85,3.85,0,0,1,1.48,1.72,6,6,0,0,1,.53,2.58Zm-2.06-.45a4.25,4.25,0,0,0-.55-2.38,2,2,0,0,0-3.16,0,4.24,4.24,0,0,0-.56,2.36v.48a4.28,4.28,0,0,0,.56,2.37,1.93,1.93,0,0,0,3.16,0,4.18,4.18,0,0,0,.55-2.36Z"/><path class="cls-3" d="M173.81,379.42v-9.95h3.45a4.41,4.41,0,0,1,2.71.7,2.37,2.37,0,0,1,.93,2,2.25,2.25,0,0,1-.37,1.29,2.12,2.12,0,0,1-1,.81,2.08,2.08,0,0,1,1.2.78,2.28,2.28,0,0,1,.43,1.42,2.63,2.63,0,0,1-.9,2.17,4,4,0,0,1-2.58.75Zm2-5.78h1.5c1,0,1.53-.43,1.53-1.24a1.14,1.14,0,0,0-.39-1,2,2,0,0,0-1.22-.3h-1.42Zm0,1.45v2.69h1.73a1.65,1.65,0,0,0,1.12-.35,1.19,1.19,0,0,0,.41-.95,1.25,1.25,0,0,0-1.4-1.39Z"/><path class="cls-3" d="M184.8,379.42h-2v-9.95h2Z"/><path class="cls-3" d="M194.08,371.13h-3v8.29h-2v-8.29h-3v-1.66h8Z"/><path class="cls-3" d="M200,377.37h-3.55l-.68,2.05H193.6l3.66-9.95h1.88l3.68,9.95h-2.15Zm-3-1.66h2.46L198.2,372Z"/><path class="cls-3" d="M206.82,375.43l-1,1.15v2.84h-2v-9.95h2V374l.89-1.23,2.51-3.28h2.49l-3.49,4.42,3.59,5.53h-2.41Z"/><path class="cls-3" d="M215.92,374l2.05-4.49h2.21L217,375.82v3.6h-2.06v-3.6l-3.23-6.35h2.22Z"/><path class="cls-3" d="M227.88,369.47V376a3.37,3.37,0,0,1-1,2.58,3.84,3.84,0,0,1-2.76.95,4,4,0,0,1-2.74-.92,3.3,3.3,0,0,1-1-2.54v-6.63h2V376a1.92,1.92,0,0,0,.47,1.43,1.79,1.79,0,0,0,1.28.44c1.14,0,1.72-.6,1.74-1.81v-6.63Z"/><path class="cls-3" d="M233,375.38a10.37,10.37,0,0,1,.41-3,7.72,7.72,0,0,1,1.22-2.51,4.5,4.5,0,0,1,1.74-1.51l.38,1.06a4.81,4.81,0,0,0-1.54,2.29,10.65,10.65,0,0,0-.56,3.61v.21a10.72,10.72,0,0,0,.55,3.62,4.85,4.85,0,0,0,1.55,2.32l-.38,1.05a4.56,4.56,0,0,1-1.71-1.48,7.65,7.65,0,0,1-1.22-2.44,10.19,10.19,0,0,1-.44-2.88Z"/><path class="cls-3" d="M243.4,377.37h-3.55l-.68,2.05H237l3.66-9.95h1.88l3.68,9.95h-2.16Zm-3-1.66h2.46L241.62,372Z"/><path class="cls-3" d="M251.12,369.47h2v6.89a3.37,3.37,0,0,1-.41,1.68,2.86,2.86,0,0,1-1.18,1.13,3.64,3.64,0,0,1-1.7.39,3.48,3.48,0,0,1-2.44-.8,3,3,0,0,1-.87-2.27h2a1.6,1.6,0,0,0,.31,1.08,1.21,1.21,0,0,0,1,.34,1.15,1.15,0,0,0,.92-.4,1.72,1.72,0,0,0,.34-1.15Z"/><path class="cls-3" d="M257,379.42h-2v-9.95h2Z"/><path class="cls-3" d="M266.92,379.42h-2L261,372.88v6.54h-2v-9.95h2L264.9,376v-6.56h2Z"/><path class="cls-3" d="M276.78,374.67a6,6,0,0,1-.52,2.58,3.86,3.86,0,0,1-1.47,1.71,4,4,0,0,1-2.19.6,4.09,4.09,0,0,1-2.18-.59,4,4,0,0,1-1.49-1.7,5.85,5.85,0,0,1-.53-2.54v-.49a6,6,0,0,1,.52-2.59,3.91,3.91,0,0,1,1.48-1.72,4,4,0,0,1,2.19-.6,4,4,0,0,1,2.18.6,3.91,3.91,0,0,1,1.48,1.72,6,6,0,0,1,.53,2.58Zm-2.06-.45a4.25,4.25,0,0,0-.55-2.38,2,2,0,0,0-3.16,0,4.24,4.24,0,0,0-.56,2.36v.48A4.28,4.28,0,0,0,271,377a1.93,1.93,0,0,0,3.16,0,4.26,4.26,0,0,0,.55-2.36Z"/><path class="cls-3" d="M280.9,369.47l2.53,7.22,2.51-7.22h2.66v9.95h-2V376.7l.2-4.69-2.65,7.41h-1.4L280.07,372l.21,4.69v2.72h-2v-9.95Z"/><path class="cls-3" d="M298.46,374.67a6.12,6.12,0,0,1-.52,2.58,3.86,3.86,0,0,1-1.47,1.71,4,4,0,0,1-2.19.6,4.09,4.09,0,0,1-2.18-.59,4,4,0,0,1-1.49-1.7,5.85,5.85,0,0,1-.53-2.54v-.49a6,6,0,0,1,.52-2.59,3.91,3.91,0,0,1,1.48-1.72,4.28,4.28,0,0,1,4.37,0,3.91,3.91,0,0,1,1.48,1.72,6,6,0,0,1,.53,2.58Zm-2.06-.45a4.25,4.25,0,0,0-.55-2.38,2,2,0,0,0-3.16,0,4.15,4.15,0,0,0-.56,2.36v.48a4.37,4.37,0,0,0,.55,2.37,1.81,1.81,0,0,0,1.6.84,1.79,1.79,0,0,0,1.57-.81,4.26,4.26,0,0,0,.55-2.36Z"/><path class="cls-3" d="M306.76,371.13h-3v8.29h-2v-8.29h-3v-1.66h8Z"/><path class="cls-3" d="M315.81,374.67a6.12,6.12,0,0,1-.51,2.58,4,4,0,0,1-1.47,1.71,4.06,4.06,0,0,1-2.2.6,4.12,4.12,0,0,1-2.18-.59,4.06,4.06,0,0,1-1.49-1.7,5.85,5.85,0,0,1-.53-2.54v-.49a6,6,0,0,1,.52-2.59,4,4,0,0,1,1.48-1.72,4.3,4.3,0,0,1,4.38,0,3.89,3.89,0,0,1,1.47,1.72,6,6,0,0,1,.53,2.58Zm-2.06-.45a4.25,4.25,0,0,0-.55-2.38,2,2,0,0,0-3.16,0,4.32,4.32,0,0,0-.56,2.36v.48A4.28,4.28,0,0,0,310,377a1.93,1.93,0,0,0,3.16,0,4.18,4.18,0,0,0,.55-2.36Z"/><path class="cls-3" d="M325.83,376.81a1.06,1.06,0,0,0-.4-.89,5.7,5.7,0,0,0-1.46-.66,8.76,8.76,0,0,1-1.67-.68,2.75,2.75,0,0,1-1.68-2.46,2.42,2.42,0,0,1,.45-1.44,3,3,0,0,1,1.29-1,4.75,4.75,0,0,1,1.89-.36,4.36,4.36,0,0,1,1.88.39,3,3,0,0,1,1.28,1.09,2.9,2.9,0,0,1,.45,1.6h-2a1.33,1.33,0,0,0-.43-1.06,1.69,1.69,0,0,0-1.19-.38,1.86,1.86,0,0,0-1.16.32,1,1,0,0,0-.41.83,1,1,0,0,0,.48.82,5.39,5.39,0,0,0,1.42.61,6,6,0,0,1,2.52,1.31,2.61,2.61,0,0,1,.79,1.94,2.42,2.42,0,0,1-1,2,4.2,4.2,0,0,1-2.6.73,5,5,0,0,1-2.07-.42,3.22,3.22,0,0,1-1.42-1.15,3,3,0,0,1-.49-1.7h2q0,1.65,1.95,1.65a1.89,1.89,0,0,0,1.13-.3A1,1,0,0,0,325.83,376.81Z"/><path class="cls-3" d="M336.64,371.13h-3v8.29h-2v-8.29h-3v-1.66h8Z"/><path class="cls-3" d="M342.54,377.37H339l-.68,2.05h-2.16l3.67-9.95h1.88l3.68,9.95h-2.16Zm-3-1.66H342L340.76,372Z"/><path class="cls-3" d="M346.3,379.42v-9.95h3a4.6,4.6,0,0,1,2.32.59,4.21,4.21,0,0,1,1.6,1.69,5.23,5.23,0,0,1,.57,2.47v.46a5.32,5.32,0,0,1-.56,2.47,4,4,0,0,1-1.6,1.67,4.47,4.47,0,0,1-2.31.6Zm2-8.29v6.65h1a2.17,2.17,0,0,0,1.81-.79,3.57,3.57,0,0,0,.65-2.25v-.52a3.58,3.58,0,0,0-.63-2.3,2.15,2.15,0,0,0-1.81-.79Z"/><path class="cls-3" d="M357.45,379.42h-2v-9.95h2Z"/><path class="cls-3" d="M366.77,369.47V376a3.34,3.34,0,0,1-1,2.58,3.83,3.83,0,0,1-2.76.95,3.92,3.92,0,0,1-2.73-.92,3.34,3.34,0,0,1-1-2.54v-6.63h2V376a1.92,1.92,0,0,0,.46,1.43,1.81,1.81,0,0,0,1.28.44c1.14,0,1.72-.6,1.74-1.81v-6.63Z"/><path class="cls-3" d="M371.09,369.47l2.52,7.22,2.52-7.22h2.66v9.95h-2V376.7L377,372l-2.66,7.41h-1.39L370.26,372l.2,4.69v2.72h-2v-9.95Z"/><path class="cls-3" d="M383.8,375.54a10.12,10.12,0,0,1-.44,3,8.29,8.29,0,0,1-1.27,2.52,4.6,4.6,0,0,1-1.76,1.51l-.38-1.05a4.83,4.83,0,0,0,1.52-2.26,10.65,10.65,0,0,0,.57-3.5v-.37a10.72,10.72,0,0,0-.55-3.6,5,5,0,0,0-1.54-2.34l.38-1a4.52,4.52,0,0,1,1.73,1.46,7.91,7.91,0,0,1,1.27,2.47,10.19,10.19,0,0,1,.47,2.92Z"/><path class="cls-3" d="M394,376.81a1.07,1.07,0,0,0-.41-.89,5.54,5.54,0,0,0-1.46-.66,9,9,0,0,1-1.67-.68,2.76,2.76,0,0,1-1.67-2.46,2.42,2.42,0,0,1,.45-1.44,3,3,0,0,1,1.29-1,4.75,4.75,0,0,1,1.89-.36,4.31,4.31,0,0,1,1.87.39,3.07,3.07,0,0,1,1.29,1.09,2.9,2.9,0,0,1,.45,1.6h-2a1.36,1.36,0,0,0-.42-1.06,1.71,1.71,0,0,0-1.2-.38,1.85,1.85,0,0,0-1.15.32,1,1,0,0,0-.42.83,1,1,0,0,0,.49.82,5.25,5.25,0,0,0,1.42.61,6.14,6.14,0,0,1,2.52,1.31,2.61,2.61,0,0,1,.79,1.94,2.4,2.4,0,0,1-1,2,4.18,4.18,0,0,1-2.6.73,5,5,0,0,1-2.06-.42A3.25,3.25,0,0,1,389,378a3,3,0,0,1-.49-1.7h2c0,1.1.65,1.65,1.94,1.65a1.85,1.85,0,0,0,1.13-.3A1,1,0,0,0,394,376.81Z"/><path class="cls-3" d="M404.8,371.13h-3v8.29h-2v-8.29h-3v-1.66h8Z"/><path class="cls-3" d="M410.7,377.37h-3.56l-.67,2.05h-2.16l3.67-9.95h1.87l3.69,9.95h-2.16Zm-3-1.66h2.46L408.91,372Z"/><path class="cls-3" d="M421.05,371.13h-3v8.29h-2v-8.29h-3v-1.66h8Z"/><path class="cls-3" d="M424.36,379.42h-2v-9.95h2Z"/><path class="cls-3" d="M434.32,374.67a6.12,6.12,0,0,1-.51,2.58,3.86,3.86,0,0,1-1.47,1.71,4,4,0,0,1-2.19.6A4.13,4.13,0,0,1,428,379a4,4,0,0,1-1.48-1.7,6,6,0,0,1-.54-2.54v-.49a6,6,0,0,1,.53-2.59,3.91,3.91,0,0,1,1.48-1.72,4.28,4.28,0,0,1,4.37,0,3.91,3.91,0,0,1,1.48,1.72,6,6,0,0,1,.52,2.58Zm-2.05-.45a4.34,4.34,0,0,0-.55-2.38,2,2,0,0,0-3.16,0,4.15,4.15,0,0,0-.56,2.36v.48a4.28,4.28,0,0,0,.55,2.37,1.94,1.94,0,0,0,3.17,0,4.35,4.35,0,0,0,.55-2.36Z"/><path class="cls-3" d="M443.8,379.42h-2l-3.95-6.54v6.54h-2v-9.95h2l4,6.56v-6.56h2Z"/><g id="arrow"><polyline class="cls-4" points="74.92 200 74.86 339.72 523.86 339.72 523.39 304"/><line class="cls-4" x1="373.57" y1="304" x2="373.57" y2="339.09"/><line class="cls-4" x1="223.75" y1="160" x2="223.9" y2="339.09"/><line class="cls-4" x1="299.67" y1="339.72" x2="299.67" y2="354.86"/><polygon class="cls-5" points="293.12 351.08 307.23 351.08 299.75 358.65 293.12 351.08"/></g><g id="column_4" data-name="column 4"><rect class="cls-6" x="449.03" y="63.41" width="149.67" height="416.36"/><path class="cls-3" d="M477.79,82.21h-2l-3.95-6.55v6.55h-2v-10h2l4,6.56V72.25h2Z"/><path class="cls-3" d="M485.11,80.15h-3.55l-.68,2.06h-2.16l3.67-10h1.88l3.68,10h-2.16Zm-3-1.66h2.46l-1.23-3.72Z"/><path class="cls-3" d="M492.51,78.56H490.9v3.65h-2v-10h3.65a4.05,4.05,0,0,1,2.69.79,2.72,2.72,0,0,1,1,2.22,3.11,3.11,0,0,1-.44,1.7A3,3,0,0,1,494.4,78l2.13,4.07v.1h-2.17ZM490.9,76.9h1.63a1.66,1.66,0,0,0,1.18-.39,1.42,1.42,0,0,0,.42-1.09,1.51,1.51,0,0,0-.39-1.1,1.65,1.65,0,0,0-1.22-.41H490.9Z"/><path class="cls-3" d="M499.86,82.21h-2v-10h2Z"/><path class="cls-3" d="M509.14,73.91h-3v8.3h-2v-8.3h-3V72.25h8Z"/><path class="cls-3" d="M515,80.15h-3.55l-.68,2.06h-2.16l3.67-10h1.88l3.68,10h-2.16Zm-3-1.66h2.46l-1.23-3.72Z"/><path class="cls-3" d="M527.8,80.15h-3.56l-.67,2.06h-2.16l3.67-10H527l3.69,10h-2.16Zm-3-1.66h2.46L526,74.77Z"/><path class="cls-3" d="M533.71,82.21h-2v-10h2Z"/><path class="cls-3" d="M539.23,78.56h-1.61v3.65h-2v-10h3.66a4.07,4.07,0,0,1,2.69.79,2.71,2.71,0,0,1,.94,2.22,3.11,3.11,0,0,1-.43,1.7A3,3,0,0,1,541.13,78l2.12,4.07v.1h-2.17Zm-1.61-1.66h1.63a1.69,1.69,0,0,0,1.19-.39,1.42,1.42,0,0,0,.42-1.09,1.51,1.51,0,0,0-.4-1.1,1.62,1.62,0,0,0-1.21-.41h-1.63Z"/><path class="cls-3" d="M546.45,78.7v3.51h-2v-10h3.84a4.44,4.44,0,0,1,2,.41,3.08,3.08,0,0,1,1.3,1.17,3.27,3.27,0,0,1,.45,1.72,2.86,2.86,0,0,1-1,2.3,4.07,4.07,0,0,1-2.74.85Zm0-1.66h1.81a1.75,1.75,0,0,0,1.23-.39,1.39,1.39,0,0,0,.42-1.09,1.62,1.62,0,0,0-.43-1.18,1.57,1.57,0,0,0-1.17-.47h-1.86Z"/><path class="cls-3" d="M561.43,77.45a6.12,6.12,0,0,1-.51,2.58,3.86,3.86,0,0,1-1.47,1.71,4,4,0,0,1-2.19.6,4.13,4.13,0,0,1-2.19-.59,4,4,0,0,1-1.48-1.7,5.85,5.85,0,0,1-.54-2.54V77a6,6,0,0,1,.53-2.59,3.91,3.91,0,0,1,1.48-1.72,4,4,0,0,1,2.18-.59,4,4,0,0,1,2.19.59,3.91,3.91,0,0,1,1.48,1.72,6,6,0,0,1,.52,2.58Zm-2-.45a4.25,4.25,0,0,0-.56-2.38,1.94,1.94,0,0,0-3.15,0,4.15,4.15,0,0,0-.56,2.36v.48a4.28,4.28,0,0,0,.55,2.37,1.8,1.8,0,0,0,1.6.84,1.76,1.76,0,0,0,1.56-.81,4.26,4.26,0,0,0,.56-2.36Z"/><path class="cls-3" d="M566.55,78.56h-1.62v3.65h-2v-10h3.65a4.07,4.07,0,0,1,2.69.79,2.72,2.72,0,0,1,1,2.22,3.11,3.11,0,0,1-.44,1.7A3,3,0,0,1,568.44,78l2.13,4.07v.1h-2.18Zm-1.62-1.66h1.64a1.66,1.66,0,0,0,1.18-.39,1.42,1.42,0,0,0,.42-1.09,1.47,1.47,0,0,0-.4-1.1,1.61,1.61,0,0,0-1.21-.41h-1.63Z"/><path class="cls-3" d="M578.81,73.91h-3v8.3h-2v-8.3h-3V72.25h8Z"/><rect class="cls-3" x="455.26" y="262.76" width="137.2" height="31.54"/><path class="cls-1" d="M504.41,278.47l-.87.94v2.44h-1.35V274h1.35v3.67l.74-.93,2.26-2.74h1.63l-2.88,3.46,3,4.36h-1.59Z"/><path class="cls-1" d="M511.45,282a2.67,2.67,0,0,1-2-.78,2.92,2.92,0,0,1-.76-2.09v-.16a3.5,3.5,0,0,1,.33-1.55,2.65,2.65,0,0,1,.94-1.07,2.46,2.46,0,0,1,1.33-.38,2.24,2.24,0,0,1,1.82.76,3.25,3.25,0,0,1,.64,2.14v.53H510a1.76,1.76,0,0,0,.48,1.14,1.42,1.42,0,0,0,1,.42,1.75,1.75,0,0,0,1.44-.73l.7.67a2.33,2.33,0,0,1-.92.81A2.92,2.92,0,0,1,511.45,282Zm-.15-5a1.08,1.08,0,0,0-.86.37,1.94,1.94,0,0,0-.41,1h2.45v-.1a1.65,1.65,0,0,0-.34-1A1.08,1.08,0,0,0,511.3,277Z"/><path class="cls-1" d="M514.76,274.53a.68.68,0,0,1,.19-.5.7.7,0,0,1,.54-.2.73.73,0,0,1,.54.2.68.68,0,0,1,.19.5.66.66,0,0,1-.19.49.73.73,0,0,1-.54.2.7.7,0,0,1-.54-.2A.66.66,0,0,1,514.76,274.53Zm1.37,7.32h-1.29V276h1.29Z"/><path class="cls-1" d="M517.29,278.89a3.52,3.52,0,0,1,.34-1.54,2.35,2.35,0,0,1,.94-1.05,2.58,2.58,0,0,1,1.39-.37,2.5,2.5,0,0,1,1.89.76,3,3,0,0,1,.78,2v.3a3.45,3.45,0,0,1-.33,1.54,2.46,2.46,0,0,1-.94,1,2.68,2.68,0,0,1-1.4.37,2.51,2.51,0,0,1-2-.82,3.22,3.22,0,0,1-.73-2.19Zm1.29.11a2.41,2.41,0,0,0,.37,1.41,1.18,1.18,0,0,0,1,.51,1.2,1.2,0,0,0,1-.52,2.63,2.63,0,0,0,.36-1.51,2.35,2.35,0,0,0-.37-1.4,1.2,1.2,0,0,0-1-.51,1.16,1.16,0,0,0-1,.51A2.5,2.5,0,0,0,518.58,279Z"/><path class="cls-1" d="M527.9,280.76h3.51v1.09h-4.85V274h1.34Z"/><path class="cls-1" d="M532.32,274.53a.68.68,0,0,1,.19-.5.7.7,0,0,1,.54-.2.73.73,0,0,1,.54.2.68.68,0,0,1,.19.5.66.66,0,0,1-.19.49.73.73,0,0,1-.54.2.7.7,0,0,1-.54-.2A.66.66,0,0,1,532.32,274.53Zm1.37,7.32H532.4V276h1.29Z"/><path class="cls-1" d="M536.29,276l0,.67a2,2,0,0,1,1.67-.78c1.2,0,1.81.69,1.83,2.08v3.84h-1.29v-3.77a1.17,1.17,0,0,0-.24-.81,1,1,0,0,0-.77-.27,1.24,1.24,0,0,0-1.16.71v4.14h-1.29V276Z"/><path class="cls-1" d="M543.67,282a2.67,2.67,0,0,1-2-.78,2.92,2.92,0,0,1-.76-2.09v-.16a3.5,3.5,0,0,1,.33-1.55,2.65,2.65,0,0,1,.94-1.07,2.46,2.46,0,0,1,1.33-.38,2.24,2.24,0,0,1,1.82.76,3.25,3.25,0,0,1,.64,2.14v.53h-3.76a1.76,1.76,0,0,0,.48,1.14,1.42,1.42,0,0,0,1,.42,1.75,1.75,0,0,0,1.44-.73l.7.67a2.33,2.33,0,0,1-.92.81A2.92,2.92,0,0,1,543.67,282Zm-.15-5a1.08,1.08,0,0,0-.86.37,2,2,0,0,0-.42,1h2.46v-.1a1.65,1.65,0,0,0-.34-1A1.08,1.08,0,0,0,543.52,277Z"/><rect class="cls-3" x="455.26" y="224.91" width="137.2" height="31.54"/><path class="cls-1" d="M483.82,236.18h1.33v5.48a2.37,2.37,0,0,1-.69,1.79,2.54,2.54,0,0,1-1.83.66,2.65,2.65,0,0,1-1.87-.62,2.24,2.24,0,0,1-.65-1.72h1.33a1.31,1.31,0,0,0,.31.94,1.17,1.17,0,0,0,.88.31,1.12,1.12,0,0,0,.87-.36,1.48,1.48,0,0,0,.32-1Z"/><path class="cls-1" d="M489.53,241H488v3h-1.34v-7.82h2.72a3.09,3.09,0,0,1,2.06.61,2.13,2.13,0,0,1,.73,1.75,2.21,2.21,0,0,1-.37,1.32,2.4,2.4,0,0,1-1.05.81l1.74,3.26V244h-1.44ZM488,239.9h1.38a1.55,1.55,0,0,0,1.07-.35,1.23,1.23,0,0,0,.38-1,1.28,1.28,0,0,0-.36-1,1.48,1.48,0,0,0-1.05-.36H488Z"/><path class="cls-1" d="M498.7,239.88l1.78-3.7H502l-2.59,4.94V244H498v-2.88l-2.6-4.94h1.5Z"/><path class="cls-1" d="M505.78,244a2.71,2.71,0,0,1-.15-.54,2,2,0,0,1-1.5.65,2.05,2.05,0,0,1-1.42-.5,1.76,1.76,0,0,1,.14-2.66,3.19,3.19,0,0,1,1.95-.5h.79v-.38a1,1,0,0,0-.25-.73,1,1,0,0,0-.76-.27,1.13,1.13,0,0,0-.72.23.67.67,0,0,0-.28.56h-1.29a1.44,1.44,0,0,1,.31-.89,2.06,2.06,0,0,1,.85-.65,2.94,2.94,0,0,1,1.21-.24,2.41,2.41,0,0,1,1.61.51,1.86,1.86,0,0,1,.61,1.45v2.62a2.92,2.92,0,0,0,.22,1.25V244Zm-1.42-.94a1.39,1.39,0,0,0,.72-.19,1.17,1.17,0,0,0,.51-.5v-1.1h-.69a1.87,1.87,0,0,0-1.08.25.83.83,0,0,0-.36.72.78.78,0,0,0,.24.6A1,1,0,0,0,504.36,243.06Z"/><path class="cls-1" d="M509.45,238.19l0,.6a2.09,2.09,0,0,1,1.66-.71,1.6,1.6,0,0,1,1.58.89,2,2,0,0,1,1.76-.89,1.83,1.83,0,0,1,1.42.53,2.45,2.45,0,0,1,.47,1.57V244h-1.29v-3.78a1.15,1.15,0,0,0-.24-.81,1,1,0,0,0-.79-.26,1.08,1.08,0,0,0-.72.24,1.22,1.22,0,0,0-.39.62v4h-1.29v-3.83a.92.92,0,0,0-1-1,1.13,1.13,0,0,0-1.1.64V244h-1.29v-5.81Z"/><path class="cls-1" d="M521.13,244a1.8,1.8,0,0,1-.15-.54,2.15,2.15,0,0,1-2.92.15,1.61,1.61,0,0,1-.55-1.24,1.65,1.65,0,0,1,.68-1.42,3.25,3.25,0,0,1,2-.5h.79v-.38a1.09,1.09,0,0,0-.25-.73,1,1,0,0,0-.76-.27,1.09,1.09,0,0,0-.72.23.68.68,0,0,0-.29.56h-1.29A1.45,1.45,0,0,1,518,239a2,2,0,0,1,.85-.65,2.92,2.92,0,0,1,1.2-.24,2.41,2.41,0,0,1,1.61.51,1.87,1.87,0,0,1,.62,1.45v2.62a3.09,3.09,0,0,0,.21,1.25V244Zm-1.42-.94a1.44,1.44,0,0,0,.72-.19,1.29,1.29,0,0,0,.51-.5v-1.1h-.7a1.87,1.87,0,0,0-1.08.25.83.83,0,0,0-.36.72.76.76,0,0,0,.25.6A1,1,0,0,0,519.71,243.06Z"/><path class="cls-1" d="M524.78,238.19l0,.67a2.06,2.06,0,0,1,1.67-.78c1.2,0,1.81.69,1.83,2.08V244H527v-3.77a1.17,1.17,0,0,0-.24-.81,1,1,0,0,0-.77-.27,1.24,1.24,0,0,0-1.16.71V244h-1.29v-5.81Z"/><path class="cls-1" d="M529.38,241a3.52,3.52,0,0,1,.34-1.54,2.35,2.35,0,0,1,.94-1.05,2.58,2.58,0,0,1,1.39-.37,2.5,2.5,0,0,1,1.89.76,3,3,0,0,1,.78,2v.3a3.45,3.45,0,0,1-.33,1.54,2.46,2.46,0,0,1-.94,1.05,2.68,2.68,0,0,1-1.4.37,2.51,2.51,0,0,1-1.95-.82,3.22,3.22,0,0,1-.73-2.19Zm1.29.11a2.41,2.41,0,0,0,.37,1.41,1.17,1.17,0,0,0,1,.5,1.19,1.19,0,0,0,1-.51,2.63,2.63,0,0,0,.36-1.51,2.35,2.35,0,0,0-.37-1.4,1.2,1.2,0,0,0-1-.51,1.18,1.18,0,0,0-1,.5A2.56,2.56,0,0,0,530.67,241.15Z"/><path class="cls-1" d="M537.43,236.77v1.42h1v1h-1v3.25a.76.76,0,0,0,.13.48.62.62,0,0,0,.47.15,1.74,1.74,0,0,0,.45-.06v1a2.88,2.88,0,0,1-.85.13c-1,0-1.49-.56-1.49-1.66v-3.3h-.94v-1h.94v-1.42Z"/><path class="cls-1" d="M542,244.11a2.66,2.66,0,0,1-2-.78,2.92,2.92,0,0,1-.76-2.09v-.16a3.5,3.5,0,0,1,.33-1.55,2.65,2.65,0,0,1,.94-1.07,2.46,2.46,0,0,1,1.33-.38,2.24,2.24,0,0,1,1.82.76,3.25,3.25,0,0,1,.64,2.14v.53h-3.76a1.76,1.76,0,0,0,.48,1.14,1.44,1.44,0,0,0,1,.41,1.74,1.74,0,0,0,1.44-.72l.7.67a2.33,2.33,0,0,1-.92.81A2.92,2.92,0,0,1,542,244.11Zm-.15-5a1.08,1.08,0,0,0-.86.37,1.94,1.94,0,0,0-.42,1.05H543v-.1a1.65,1.65,0,0,0-.34-1A1.09,1.09,0,0,0,541.81,239.13Z"/><path class="cls-1" d="M549.44,242.91H553V244H548.1v-7.82h1.34Z"/><path class="cls-1" d="M553.86,236.68a.68.68,0,0,1,.19-.5.83.83,0,0,1,1.08,0,.68.68,0,0,1,.19.5.66.66,0,0,1-.19.49.83.83,0,0,1-1.08,0A.66.66,0,0,1,553.86,236.68Zm1.37,7.32h-1.29v-5.81h1.29Z"/><path class="cls-1" d="M557.83,238.19l0,.67a2,2,0,0,1,1.67-.78c1.2,0,1.81.69,1.83,2.08V244h-1.29v-3.77a1.17,1.17,0,0,0-.24-.81,1,1,0,0,0-.77-.27,1.24,1.24,0,0,0-1.16.71V244h-1.29v-5.81Z"/><path class="cls-1" d="M565.21,244.11a2.67,2.67,0,0,1-2-.78,2.92,2.92,0,0,1-.76-2.09v-.16a3.5,3.5,0,0,1,.33-1.55,2.65,2.65,0,0,1,.94-1.07,2.46,2.46,0,0,1,1.33-.38,2.24,2.24,0,0,1,1.82.76,3.25,3.25,0,0,1,.64,2.14v.53h-3.76a1.76,1.76,0,0,0,.48,1.14,1.46,1.46,0,0,0,1,.41,1.74,1.74,0,0,0,1.44-.72l.7.67a2.33,2.33,0,0,1-.92.81A2.92,2.92,0,0,1,565.21,244.11Zm-.15-5a1.08,1.08,0,0,0-.86.37,2,2,0,0,0-.42,1.05h2.46v-.1a1.65,1.65,0,0,0-.34-1A1.08,1.08,0,0,0,565.06,239.13Z"/><path d="M487,104.44a2.17,2.17,0,0,1-1.65.76,2.2,2.2,0,0,1-1.78-.79,3.1,3.1,0,0,1-.66-2.07,3.51,3.51,0,0,1,.34-1.53,2.49,2.49,0,0,1,1-1.07,2.7,2.7,0,0,1,1.43-.38,2.41,2.41,0,0,1,2,1,4.08,4.08,0,0,1,.75,2.58v.39a5.31,5.31,0,0,1-1,3.53,3.88,3.88,0,0,1-3.08,1.23h-.16v-1.18h.2a2.8,2.8,0,0,0,1.91-.61A2.58,2.58,0,0,0,487,104.44Zm-1.36-.35a1.48,1.48,0,0,0,.8-.25,1.67,1.67,0,0,0,.57-.68v-.56a2.7,2.7,0,0,0-.38-1.51,1.15,1.15,0,0,0-1-.58,1.12,1.12,0,0,0-1,.51,2.09,2.09,0,0,0-.37,1.28,2.12,2.12,0,0,0,.37,1.29A1.15,1.15,0,0,0,485.66,104.09Z"/><path d="M495.27,104.42a4.62,4.62,0,0,1-.69,2.77,2.37,2.37,0,0,1-2.07.94,2.43,2.43,0,0,1-2.06-.91,4.51,4.51,0,0,1-.7-2.7V103a4.61,4.61,0,0,1,.68-2.76,2.41,2.41,0,0,1,2.07-.92,2.43,2.43,0,0,1,2.07.9,4.56,4.56,0,0,1,.7,2.68Zm-1.41-1.59a3.58,3.58,0,0,0-.33-1.76,1.23,1.23,0,0,0-2,0,3.28,3.28,0,0,0-.34,1.65v1.93a3.77,3.77,0,0,0,.33,1.79,1.21,1.21,0,0,0,2,0,3.59,3.59,0,0,0,.34-1.7Z"/><path d="M499.33,105h-3v-1.15h3Z"/><path d="M504.21,108h-1.4v-6.85l-2.07.71v-1.19L504,99.45h.18Z"/><path d="M512.82,108h-5.67v-1l2.8-3.1a6.76,6.76,0,0,0,.87-1.14,1.92,1.92,0,0,0,.26-.92,1.4,1.4,0,0,0-.34-1,1.17,1.17,0,0,0-.91-.37,1.34,1.34,0,0,0-1.06.42,1.66,1.66,0,0,0-.38,1.15H507a2.82,2.82,0,0,1,.35-1.4,2.42,2.42,0,0,1,1-1,3.13,3.13,0,0,1,1.5-.35,2.83,2.83,0,0,1,1.94.63,2.17,2.17,0,0,1,.71,1.72,2.93,2.93,0,0,1-.36,1.34,7.57,7.57,0,0,1-1.17,1.59l-2.06,2.24h3.92Z"/><path d="M519.38,104.42a4.62,4.62,0,0,1-.68,2.77,2.37,2.37,0,0,1-2.07.94,2.43,2.43,0,0,1-2.06-.91,4.58,4.58,0,0,1-.71-2.7V103a4.6,4.6,0,0,1,.69-2.76,2.41,2.41,0,0,1,2.07-.92,2.44,2.44,0,0,1,2.07.9,4.49,4.49,0,0,1,.69,2.68Zm-1.4-1.59a3.58,3.58,0,0,0-.33-1.76,1.23,1.23,0,0,0-2,0,3.28,3.28,0,0,0-.34,1.65v1.93a3.77,3.77,0,0,0,.33,1.79,1.21,1.21,0,0,0,2,0,3.59,3.59,0,0,0,.34-1.7Z"/><path d="M525,101.67l0,.66a2.24,2.24,0,0,1,1.81-.78,1.74,1.74,0,0,1,1.72,1,2.2,2.2,0,0,1,1.92-1,2,2,0,0,1,1.54.58,2.6,2.6,0,0,1,.52,1.72V108h-1.41v-4.12a1.25,1.25,0,0,0-.26-.89,1.11,1.11,0,0,0-.86-.28,1.21,1.21,0,0,0-.79.26,1.41,1.41,0,0,0-.42.68V108h-1.4v-4.17a1,1,0,0,0-1.13-1.12,1.22,1.22,0,0,0-1.2.7V108h-1.41v-6.34Z"/><path d="M534,100a.79.79,0,0,1,.2-.55.81.81,0,0,1,.59-.22.79.79,0,0,1,.59.22.75.75,0,0,1,.21.55.72.72,0,0,1-.21.53.79.79,0,0,1-.59.22.81.81,0,0,1-.59-.22A.76.76,0,0,1,534,100Zm1.49,8h-1.4v-6.34h1.4Z"/><path d="M538.33,101.67l0,.73a2.27,2.27,0,0,1,1.83-.85c1.3,0,2,.76,2,2.27V108h-1.41V103.9a1.26,1.26,0,0,0-.26-.89,1.08,1.08,0,0,0-.84-.29,1.36,1.36,0,0,0-1.27.78V108H537v-6.34Z"/><path d="M547.14,106.29a.66.66,0,0,0-.31-.58,3.35,3.35,0,0,0-1-.35,5,5,0,0,1-1.2-.39,1.62,1.62,0,0,1-1.06-1.49,1.67,1.67,0,0,1,.69-1.37,2.65,2.65,0,0,1,1.74-.56,2.74,2.74,0,0,1,1.81.57,1.79,1.79,0,0,1,.69,1.46h-1.4a.9.9,0,0,0-.3-.69,1.16,1.16,0,0,0-.8-.27,1.2,1.2,0,0,0-.76.22.69.69,0,0,0-.29.58.58.58,0,0,0,.27.51,3.7,3.7,0,0,0,1.1.36,5.41,5.41,0,0,1,1.3.44,1.79,1.79,0,0,1,.7.62,1.55,1.55,0,0,1,.23.86,1.65,1.65,0,0,1-.7,1.39,3,3,0,0,1-1.84.53,3.17,3.17,0,0,1-1.37-.28,2.34,2.34,0,0,1-.94-.78,1.85,1.85,0,0,1-.33-1.06h1.36a1,1,0,0,0,.38.78,1.76,1.76,0,0,0,1.77.06A.67.67,0,0,0,547.14,106.29Z"/><path d="M552.44,104.78a3.83,3.83,0,0,1,.36-1.68,2.66,2.66,0,0,1,1-1.14,2.82,2.82,0,0,1,1.51-.41,2.71,2.71,0,0,1,2.06.83,3.29,3.29,0,0,1,.86,2.19v.34a3.9,3.9,0,0,1-.35,1.67,2.64,2.64,0,0,1-1,1.14,2.92,2.92,0,0,1-1.53.41,2.73,2.73,0,0,1-2.13-.89,3.46,3.46,0,0,1-.79-2.39Zm1.4.13a2.62,2.62,0,0,0,.4,1.53,1.3,1.3,0,0,0,1.12.55,1.27,1.27,0,0,0,1.1-.56,2.81,2.81,0,0,0,.4-1.65,2.47,2.47,0,0,0-.41-1.52,1.37,1.37,0,0,0-2.2,0A2.8,2.8,0,0,0,553.84,104.91Z"/><path d="M560.76,101.67l0,.73a2.25,2.25,0,0,1,1.82-.85c1.31,0,2,.76,2,2.27V108h-1.41V103.9A1.31,1.31,0,0,0,563,103a1.08,1.08,0,0,0-.84-.29,1.36,1.36,0,0,0-1.27.78V108h-1.41v-6.34Z"/><path class="cls-5" d="M514.25,204.88h-4.49l-.85,2.59h-2.72l4.62-12.56h2.37l4.65,12.56h-2.72Zm-3.8-2.09h3.1l-1.56-4.7Z"/><path class="cls-5" d="M529.08,207.47h-2.56l-5-8.26v8.26H519V194.91h2.55l5,8.28v-8.28h2.55Z"/><path class="cls-5" d="M531.32,207.47V194.91h3.81a5.7,5.7,0,0,1,2.93.75,5.17,5.17,0,0,1,2,2.12,6.66,6.66,0,0,1,.72,3.13v.57a6.58,6.58,0,0,1-.71,3.12,5.05,5.05,0,0,1-2,2.11,5.8,5.8,0,0,1-2.92.76ZM533.87,197v8.38h1.24a2.76,2.76,0,0,0,2.29-1,4.51,4.51,0,0,0,.81-2.84v-.66a4.58,4.58,0,0,0-.78-2.9,2.77,2.77,0,0,0-2.3-1Z"/><rect class="cls-3" x="536.66" y="116" width="55" height="68"/><rect class="cls-3" x="456.66" y="116" width="57" height="68"/><path class="cls-1" d="M479.79,131.15h1.33v5.48a2.37,2.37,0,0,1-.69,1.79,2.54,2.54,0,0,1-1.83.66,2.65,2.65,0,0,1-1.87-.62,2.24,2.24,0,0,1-.65-1.72h1.33a1.31,1.31,0,0,0,.31.94,1.17,1.17,0,0,0,.88.31,1.12,1.12,0,0,0,.87-.36,1.48,1.48,0,0,0,.32-1Z"/><path class="cls-1" d="M485.5,136H484v3h-1.34v-7.82h2.72a3.09,3.09,0,0,1,2.06.61,2.13,2.13,0,0,1,.73,1.75,2.21,2.21,0,0,1-.37,1.32,2.4,2.4,0,0,1-1.05.81l1.74,3.26V139h-1.44Zm-1.5-1.09h1.38a1.5,1.5,0,0,0,1.06-.35,1.21,1.21,0,0,0,.39-1,1.28,1.28,0,0,0-.36-1,1.43,1.43,0,0,0-1.05-.35H484Z"/><path class="cls-1" d="M475.67,152.17h-1.34l-3.45-5.55v5.55h-1.34v-7.82h1.34l3.46,5.57v-5.57h1.33Z"/><path class="cls-1" d="M480.57,152.17a1.8,1.8,0,0,1-.15-.54,2.15,2.15,0,0,1-2.92.15,1.61,1.61,0,0,1-.55-1.24,1.65,1.65,0,0,1,.68-1.42,3.3,3.3,0,0,1,1.95-.5h.79v-.38a1,1,0,0,0-.25-.72,1,1,0,0,0-.76-.28,1.13,1.13,0,0,0-.72.23.72.72,0,0,0-.28.56h-1.29a1.53,1.53,0,0,1,.31-.89,2.11,2.11,0,0,1,.86-.65,2.92,2.92,0,0,1,1.2-.24,2.41,2.41,0,0,1,1.61.51,1.86,1.86,0,0,1,.61,1.45v2.62a3.08,3.08,0,0,0,.22,1.25v.09Zm-1.42-.94a1.44,1.44,0,0,0,.72-.19,1.2,1.2,0,0,0,.5-.5v-1.1h-.69a2,2,0,0,0-1.08.25.83.83,0,0,0-.36.72.76.76,0,0,0,.25.6A.92.92,0,0,0,479.15,151.23Z"/><path class="cls-1" d="M486,147.55a3,3,0,0,0-.52,0,1.19,1.19,0,0,0-1.2.69v4H483v-5.81h1.24l0,.65a1.44,1.44,0,0,1,1.29-.76,1.19,1.19,0,0,1,.46.08Z"/><path class="cls-1" d="M486.84,144.85a.68.68,0,0,1,.19-.5.7.7,0,0,1,.54-.2.73.73,0,0,1,.54.2.68.68,0,0,1,.19.5.66.66,0,0,1-.19.49.73.73,0,0,1-.54.2.7.7,0,0,1-.54-.2A.66.66,0,0,1,486.84,144.85Zm1.37,7.32h-1.29v-5.81h1.29Z"/><path class="cls-1" d="M491.23,145v1.41h1v1h-1v3.24a.76.76,0,0,0,.13.48.6.6,0,0,0,.47.15,1.74,1.74,0,0,0,.45-.06v1a2.93,2.93,0,0,1-.85.13c-1,0-1.49-.56-1.49-1.66v-3.29H489v-1h.94V145Z"/><path class="cls-1" d="M496.66,152.17a2.25,2.25,0,0,1-.14-.54,2.16,2.16,0,0,1-2.93.15,1.64,1.64,0,0,1-.54-1.24,1.65,1.65,0,0,1,.68-1.42,3.3,3.3,0,0,1,1.95-.5h.79v-.38a1,1,0,0,0-.25-.72,1,1,0,0,0-.76-.28,1.13,1.13,0,0,0-.72.23.69.69,0,0,0-.28.56h-1.29a1.46,1.46,0,0,1,.31-.89,2.11,2.11,0,0,1,.86-.65,2.89,2.89,0,0,1,1.2-.24,2.41,2.41,0,0,1,1.61.51,1.86,1.86,0,0,1,.61,1.45v2.62a3.08,3.08,0,0,0,.22,1.25v.09Zm-1.41-.94A1.44,1.44,0,0,0,496,151a1.2,1.2,0,0,0,.5-.5v-1.1h-.69a2,2,0,0,0-1.08.25.83.83,0,0,0-.36.72.78.78,0,0,0,.24.6A1,1,0,0,0,495.25,151.23Z"/><path class="cls-1" d="M469.6,161.88h-3.18v2.4h3.71v1.09h-5.05v-7.82h5v1.1h-3.68v2.15h3.18Z"/><path class="cls-1" d="M473.16,161.47l1.1-1.91h1.43l-1.76,2.86,1.82,3h-1.42l-1.15-2-1.14,2h-1.43l1.81-3-1.75-2.86h1.42Z"/><path class="cls-1" d="M481.6,162.52a3.49,3.49,0,0,1-.6,2.15,2.08,2.08,0,0,1-3.14.18v2.75h-1.29v-8h1.19l.05.59a1.87,1.87,0,0,1,1.55-.7,1.92,1.92,0,0,1,1.64.79,3.57,3.57,0,0,1,.6,2.2Zm-1.28-.11A2.43,2.43,0,0,0,480,161a1.11,1.11,0,0,0-1-.51,1.18,1.18,0,0,0-1.13.66v2.58a1.19,1.19,0,0,0,1.14.68,1.11,1.11,0,0,0,1-.51A2.69,2.69,0,0,0,480.32,162.41Z"/><path class="cls-1" d="M485.7,160.75a3,3,0,0,0-.53,0,1.18,1.18,0,0,0-1.19.69v4h-1.29v-5.81h1.23l0,.65a1.45,1.45,0,0,1,1.3-.76,1.17,1.17,0,0,1,.45.08Z"/><path class="cls-1" d="M489.05,165.48a2.66,2.66,0,0,1-2-.78,2.88,2.88,0,0,1-.77-2.09v-.16a3.5,3.5,0,0,1,.34-1.55,2.56,2.56,0,0,1,.93-1.07,2.46,2.46,0,0,1,1.34-.38,2.23,2.23,0,0,1,1.81.76,3.2,3.2,0,0,1,.64,2.14v.53H487.6a1.7,1.7,0,0,0,.47,1.14,1.42,1.42,0,0,0,1.05.42,1.75,1.75,0,0,0,1.44-.73l.7.67a2.33,2.33,0,0,1-.92.81A2.91,2.91,0,0,1,489.05,165.48Zm-.16-5a1.09,1.09,0,0,0-.86.37,2,2,0,0,0-.41,1h2.45v-.1a1.58,1.58,0,0,0-.34-1A1.08,1.08,0,0,0,488.89,160.5Z"/><path class="cls-1" d="M495.57,163.79a.59.59,0,0,0-.28-.53,3,3,0,0,0-1-.32,4.89,4.89,0,0,1-1.1-.36,1.48,1.48,0,0,1-1-1.37,1.55,1.55,0,0,1,.62-1.25,2.45,2.45,0,0,1,1.6-.51,2.52,2.52,0,0,1,1.66.52,1.62,1.62,0,0,1,.64,1.33h-1.29a.8.8,0,0,0-.28-.62,1,1,0,0,0-.73-.25,1.05,1.05,0,0,0-.69.2.62.62,0,0,0-.27.53.53.53,0,0,0,.25.47,3.29,3.29,0,0,0,1,.33,5,5,0,0,1,1.19.4,1.71,1.71,0,0,1,.64.57,1.41,1.41,0,0,1,.21.79,1.51,1.51,0,0,1-.64,1.27,2.76,2.76,0,0,1-1.69.49,2.91,2.91,0,0,1-1.25-.26,2,2,0,0,1-.86-.71,1.65,1.65,0,0,1-.31-1h1.25a.91.91,0,0,0,.35.71,1.29,1.29,0,0,0,.84.25,1.32,1.32,0,0,0,.78-.2A.62.62,0,0,0,495.57,163.79Z"/><path class="cls-1" d="M501.18,163.79a.59.59,0,0,0-.28-.53,3,3,0,0,0-.94-.32,4.73,4.73,0,0,1-1.1-.36,1.47,1.47,0,0,1-1-1.37,1.53,1.53,0,0,1,.63-1.25,2.45,2.45,0,0,1,1.59-.51,2.55,2.55,0,0,1,1.67.52,1.64,1.64,0,0,1,.63,1.33h-1.29a.77.77,0,0,0-.28-.62,1,1,0,0,0-.73-.25,1.09,1.09,0,0,0-.69.2.62.62,0,0,0-.27.53.53.53,0,0,0,.25.47,3.4,3.4,0,0,0,1,.33,5,5,0,0,1,1.19.4,1.71,1.71,0,0,1,.64.57,1.41,1.41,0,0,1,.21.79,1.51,1.51,0,0,1-.64,1.27,2.75,2.75,0,0,1-1.68.49,3,3,0,0,1-1.26-.26,2,2,0,0,1-.86-.71,1.65,1.65,0,0,1-.31-1H499a.94.94,0,0,0,.35.71,1.29,1.29,0,0,0,.84.25,1.32,1.32,0,0,0,.78-.2A.62.62,0,0,0,501.18,163.79Z"/><path class="cls-1" d="M547.39,142.54l-1,1v2.66h-1.48V137.7h1.48v4l.82-1,2.5-3h1.79l-3.17,3.78,3.35,4.75H550Z"/><path class="cls-1" d="M555.16,146.34a3,3,0,0,1-2.2-.85,3.09,3.09,0,0,1-.84-2.27v-.17a3.86,3.86,0,0,1,.37-1.7,2.71,2.71,0,0,1,1-1.16,2.68,2.68,0,0,1,1.47-.42,2.5,2.5,0,0,1,2,.83,3.49,3.49,0,0,1,.7,2.33v.58h-4.14a1.91,1.91,0,0,0,.52,1.24,1.58,1.58,0,0,0,1.16.46,1.94,1.94,0,0,0,1.59-.79l.77.73a2.54,2.54,0,0,1-1,.88A3.19,3.19,0,0,1,555.16,146.34Zm-.17-5.43a1.22,1.22,0,0,0-1,.41,2.2,2.2,0,0,0-.46,1.15h2.72v-.11a1.72,1.72,0,0,0-.39-1.08A1.2,1.2,0,0,0,555,140.91Z"/><path class="cls-1" d="M558.81,138.24a.73.73,0,0,1,.21-.54.76.76,0,0,1,.59-.22.78.78,0,0,1,.6.22.73.73,0,0,1,.21.54.75.75,0,0,1-.21.54.81.81,0,0,1-.6.21.79.79,0,0,1-.59-.21A.75.75,0,0,1,558.81,138.24Zm1.51,8H558.9v-6.34h1.42Z"/><path class="cls-1" d="M565.42,144.5a.65.65,0,0,0-.31-.58,3.33,3.33,0,0,0-1-.35,5.59,5.59,0,0,1-1.21-.38,1.64,1.64,0,0,1-1.07-1.5,1.7,1.7,0,0,1,.69-1.37,2.72,2.72,0,0,1,1.76-.55,2.88,2.88,0,0,1,1.84.56,1.81,1.81,0,0,1,.7,1.46h-1.43a.88.88,0,0,0-.3-.68,1.17,1.17,0,0,0-.81-.27,1.27,1.27,0,0,0-.76.21.69.69,0,0,0-.3.58.57.57,0,0,0,.28.51,3.62,3.62,0,0,0,1.11.37,5,5,0,0,1,1.31.44,1.81,1.81,0,0,1,.71.61,1.53,1.53,0,0,1,.23.87,1.64,1.64,0,0,1-.7,1.38,3,3,0,0,1-1.86.53,3.26,3.26,0,0,1-1.39-.28,2.21,2.21,0,0,1-1-.77,1.81,1.81,0,0,1-.34-1.06H563a1,1,0,0,0,.38.78,1.52,1.52,0,0,0,.94.27,1.37,1.37,0,0,0,.85-.22A.63.63,0,0,0,565.42,144.5Z"/><path class="cls-1" d="M570.86,146.34a2.94,2.94,0,0,1-2.2-.85,3.09,3.09,0,0,1-.84-2.27v-.17a3.73,3.73,0,0,1,.37-1.7,2.65,2.65,0,0,1,1-1.16,2.68,2.68,0,0,1,1.47-.42,2.48,2.48,0,0,1,2,.83,3.49,3.49,0,0,1,.71,2.33v.58h-4.14a1.86,1.86,0,0,0,.52,1.24,1.56,1.56,0,0,0,1.16.46,1.94,1.94,0,0,0,1.59-.79l.77.73a2.5,2.5,0,0,1-1,.88A3.15,3.15,0,0,1,570.86,146.34Zm-.17-5.43a1.22,1.22,0,0,0-1,.41,2.2,2.2,0,0,0-.46,1.15H572v-.11a1.72,1.72,0,0,0-.38-1.08A1.2,1.2,0,0,0,570.69,140.91Z"/><path class="cls-1" d="M574.51,138.24a.77.77,0,0,1,.2-.54.93.93,0,0,1,1.2,0,.73.73,0,0,1,.21.54.75.75,0,0,1-.21.54,1,1,0,0,1-1.2,0A.78.78,0,0,1,574.51,138.24Zm1.51,8h-1.43v-6.34H576Z"/><path class="cls-1" d="M549.4,158.43a1,1,0,0,0-.4-.87,4.67,4.67,0,0,0-1.42-.61,7,7,0,0,1-1.64-.69,2.2,2.2,0,0,1-1.17-1.91,2.07,2.07,0,0,1,.84-1.7,3.38,3.38,0,0,1,2.18-.67,3.64,3.64,0,0,1,1.59.33,2.64,2.64,0,0,1,1.1.93,2.46,2.46,0,0,1,.4,1.35H549.4a1.33,1.33,0,0,0-.42-1.05,1.74,1.74,0,0,0-1.2-.38,1.87,1.87,0,0,0-1.13.31,1.06,1.06,0,0,0-.4.87.94.94,0,0,0,.44.78,5,5,0,0,0,1.43.61,6.56,6.56,0,0,1,1.6.68,2.59,2.59,0,0,1,.88.86,2.25,2.25,0,0,1,.28,1.15,2,2,0,0,1-.82,1.69,3.52,3.52,0,0,1-2.21.63,4.18,4.18,0,0,1-1.71-.34,2.86,2.86,0,0,1-1.2-.94,2.38,2.38,0,0,1-.43-1.41H546a1.37,1.37,0,0,0,.48,1.12,2.08,2.08,0,0,0,1.38.4,1.82,1.82,0,0,0,1.16-.31A1,1,0,0,0,549.4,158.43Z"/><path class="cls-1" d="M554.1,157.91l-.63.65v2.07h-1.42v-9h1.42v5.19l.45-.56,1.75-2h1.71L555,156.93l2.61,3.7H556Z"/><path class="cls-1" d="M560.53,158.59l1.29-4.3h1.51l-2.52,7.3a2,2,0,0,1-2,1.6,2.59,2.59,0,0,1-.68-.11V162h.27a1.38,1.38,0,0,0,.81-.19,1.27,1.27,0,0,0,.43-.66l.21-.55-2.23-6.3h1.53Z"/><path class="cls-1" d="M565.66,160.63h-1.42v-9h1.42Z"/><path class="cls-1" d="M567.22,152.64a.73.73,0,0,1,.21-.54.74.74,0,0,1,.59-.22.78.78,0,0,1,.6.22.73.73,0,0,1,.21.54.75.75,0,0,1-.21.54.81.81,0,0,1-.6.21.77.77,0,0,1-.59-.21A.75.75,0,0,1,567.22,152.64Zm1.51,8h-1.42v-6.34h1.42Z"/><path class="cls-1" d="M571.6,154.29l0,.73a2.28,2.28,0,0,1,1.85-.85c1.32,0,2,.76,2,2.27v4.19h-1.42v-4.11a1.31,1.31,0,0,0-.26-.89,1.08,1.08,0,0,0-.85-.29,1.37,1.37,0,0,0-1.29.78v4.51h-1.42v-6.34Z"/><path class="cls-1" d="M579.74,160.74a2.93,2.93,0,0,1-2.19-.85,3.09,3.09,0,0,1-.84-2.27v-.17a3.73,3.73,0,0,1,.37-1.7,2.69,2.69,0,0,1,1-1.16,2.74,2.74,0,0,1,1.48-.42,2.49,2.49,0,0,1,2,.83,3.49,3.49,0,0,1,.71,2.33v.58h-4.14a1.86,1.86,0,0,0,.52,1.24,1.56,1.56,0,0,0,1.16.46,1.94,1.94,0,0,0,1.59-.79l.77.73a2.57,2.57,0,0,1-1,.88A3.16,3.16,0,0,1,579.74,160.74Zm-.17-5.43a1.2,1.2,0,0,0-.94.41,2.12,2.12,0,0,0-.46,1.15h2.71v-.11a1.72,1.72,0,0,0-.38-1.08A1.2,1.2,0,0,0,579.57,155.31Z"/><path class="cls-1" d="M586.71,155.59a3.68,3.68,0,0,0-.58-.05,1.31,1.31,0,0,0-1.32.75v4.34h-1.42v-6.34h1.36l0,.71a1.62,1.62,0,0,1,1.43-.83,1.47,1.47,0,0,1,.51.08Z"/><path class="cls-5" d="M525,150.87a5.1,5.1,0,0,1-.44,2.21,3.31,3.31,0,0,1-1.26,1.47,3.7,3.7,0,0,1-3.75,0,3.34,3.34,0,0,1-1.27-1.45,5,5,0,0,1-.46-2.18v-.42a5.18,5.18,0,0,1,.45-2.22,3.34,3.34,0,0,1,1.27-1.47,3.68,3.68,0,0,1,3.74,0,3.34,3.34,0,0,1,1.27,1.47,5.16,5.16,0,0,1,.45,2.21Zm-1.76-.38a3.66,3.66,0,0,0-.47-2,1.67,1.67,0,0,0-2.71,0,3.52,3.52,0,0,0-.48,2v.41a3.63,3.63,0,0,0,.48,2,1.65,1.65,0,0,0,2.71,0,3.67,3.67,0,0,0,.47-2Z"/><path class="cls-5" d="M529.36,151.82H528V155h-1.74v-8.53h3.14a3.5,3.5,0,0,1,2.3.67,2.33,2.33,0,0,1,.81,1.9,2.64,2.64,0,0,1-.37,1.46,2.58,2.58,0,0,1-1.13.93l1.82,3.48V155h-1.86ZM528,150.4h1.4a1.41,1.41,0,0,0,1-.34,1.2,1.2,0,0,0,.36-.93,1.35,1.35,0,0,0-.34-.95,1.4,1.4,0,0,0-1-.34H528Z"/></g><g id="column_3" data-name="column 3"><rect class="cls-6" x="299.77" y="63.41" width="149.67" height="416.36"/><path class="cls-3" d="M325.5,82.21h-2V77.94h-4v4.27h-2v-10h2v4h4v-4h2Z"/><path class="cls-3" d="M333,80.16H329.4l-.68,2h-2.16l3.67-10h1.88l3.68,10h-2.16Zm-3-1.67h2.46l-1.23-3.72Z"/><path class="cls-3" d="M344.71,82.21h-2l-3.95-6.55v6.55h-2v-10h2l4,6.57V72.25h2Z"/><path class="cls-3" d="M352.4,77.89h-3.89v2.67h4.56v1.65h-6.59v-10h6.58v1.66h-4.55v2.38h3.89Z"/><path class="cls-3" d="M354.26,82.21v-10h3a4.57,4.57,0,0,1,2.32.59,4.08,4.08,0,0,1,1.6,1.69,5.23,5.23,0,0,1,.57,2.47v.46a5.2,5.2,0,0,1-.56,2.47,4.07,4.07,0,0,1-1.59,1.67,4.64,4.64,0,0,1-2.32.61Zm2-8.3v6.65h1a2.19,2.19,0,0,0,1.82-.79,3.57,3.57,0,0,0,.64-2.25V77a3.67,3.67,0,0,0-.62-2.3,2.17,2.17,0,0,0-1.82-.79Z"/><path class="cls-3" d="M368.81,80.16h-3.55l-.68,2h-2.15l3.66-10H368l3.68,10H369.5Zm-3-1.67h2.46L367,74.77Z"/><path class="cls-3" d="M381.57,80.16H378l-.68,2h-2.15l3.66-10h1.88l3.68,10h-2.16Zm-3-1.67H381l-1.23-3.72Z"/><path class="cls-3" d="M387.48,82.21h-2v-10h2Z"/><path class="cls-3" d="M393,78.56h-1.62v3.65h-2v-10H393a4.13,4.13,0,0,1,2.69.79,2.71,2.71,0,0,1,.94,2.22,3.09,3.09,0,0,1-.43,1.7A3,3,0,0,1,394.9,78L397,82.11v.1h-2.18Zm-1.62-1.66H393a1.68,1.68,0,0,0,1.18-.39,1.41,1.41,0,0,0,.42-1.09,1.49,1.49,0,0,0-.4-1.1,1.62,1.62,0,0,0-1.21-.41h-1.63Z"/><path class="cls-3" d="M400.22,78.7v3.51h-2v-10H402a4.44,4.44,0,0,1,2,.41,3.08,3.08,0,0,1,1.3,1.17,3.29,3.29,0,0,1,.45,1.72,2.86,2.86,0,0,1-1,2.3,4,4,0,0,1-2.74.85Zm0-1.66H402a1.79,1.79,0,0,0,1.23-.38,1.42,1.42,0,0,0,.42-1.1,1.65,1.65,0,0,0-.42-1.18,1.61,1.61,0,0,0-1.18-.47h-1.86Z"/><path class="cls-3" d="M415.2,77.46a6.08,6.08,0,0,1-.51,2.57,3.86,3.86,0,0,1-1.47,1.71,4.31,4.31,0,0,1-4.37,0,3.93,3.93,0,0,1-1.49-1.7,6,6,0,0,1-.54-2.54V77a6.05,6.05,0,0,1,.53-2.59,4,4,0,0,1,1.48-1.72,4.34,4.34,0,0,1,4.37,0,4,4,0,0,1,1.48,1.72A6,6,0,0,1,415.2,77ZM413.15,77a4.25,4.25,0,0,0-.55-2.38,2,2,0,0,0-3.16,0,4.18,4.18,0,0,0-.56,2.36v.49a4.27,4.27,0,0,0,.55,2.36,1.94,1.94,0,0,0,3.17,0,4.26,4.26,0,0,0,.55-2.36Z"/><path class="cls-3" d="M420.32,78.56h-1.61v3.65h-2v-10h3.65A4.11,4.11,0,0,1,423,73a2.72,2.72,0,0,1,1,2.22,3.09,3.09,0,0,1-.44,1.7A3,3,0,0,1,422.21,78l2.13,4.07v.1h-2.18Zm-1.61-1.66h1.63a1.66,1.66,0,0,0,1.18-.39,1.41,1.41,0,0,0,.42-1.09,1.52,1.52,0,0,0-.39-1.1,1.65,1.65,0,0,0-1.22-.41h-1.62Z"/><path class="cls-3" d="M432.58,73.91h-3v8.3h-2v-8.3h-3V72.25h8Z"/><path d="M351.44,100.27,348.07,108h-1.48l3.37-7.39h-4.37V99.48h5.85Z"/><path d="M352.94,103.78l.46-4.3h4.53v1.23h-3.36l-.23,2a2.55,2.55,0,0,1,1.32-.34,2.32,2.32,0,0,1,1.87.78,3.1,3.1,0,0,1,.67,2.1,2.86,2.86,0,0,1-.74,2.07,2.69,2.69,0,0,1-2,.77,2.79,2.79,0,0,1-1.92-.67,2.42,2.42,0,0,1-.83-1.75H354a1.6,1.6,0,0,0,.44,1,1.35,1.35,0,0,0,.94.33,1.17,1.17,0,0,0,1-.47,2,2,0,0,0,.37-1.27,1.86,1.86,0,0,0-.4-1.24,1.41,1.41,0,0,0-1.1-.45,1.74,1.74,0,0,0-.65.1,1.84,1.84,0,0,0-.58.4Z"/><path d="M363.68,101.67l0,.66a2.24,2.24,0,0,1,1.81-.78,1.72,1.72,0,0,1,1.71,1,2.23,2.23,0,0,1,1.93-1,2,2,0,0,1,1.54.58,2.6,2.6,0,0,1,.52,1.72V108h-1.41v-4.12a1.25,1.25,0,0,0-.26-.89,1.11,1.11,0,0,0-.86-.28,1.21,1.21,0,0,0-.79.26,1.41,1.41,0,0,0-.42.68V108h-1.4v-4.17a1,1,0,0,0-1.13-1.12,1.22,1.22,0,0,0-1.2.7V108h-1.41v-6.34Z"/><path d="M372.68,100a.79.79,0,0,1,.2-.55.81.81,0,0,1,.59-.22.79.79,0,0,1,.59.22.75.75,0,0,1,.21.55.72.72,0,0,1-.21.53.79.79,0,0,1-.59.22.81.81,0,0,1-.59-.22A.76.76,0,0,1,372.68,100Zm1.49,8h-1.4v-6.34h1.4Z"/><path d="M377,101.67l0,.73a2.27,2.27,0,0,1,1.83-.85c1.3,0,2,.76,2,2.27V108h-1.41V103.9a1.26,1.26,0,0,0-.26-.89,1.08,1.08,0,0,0-.84-.29,1.36,1.36,0,0,0-1.27.78V108h-1.4v-6.34Z"/><path d="M385.82,106.29a.66.66,0,0,0-.31-.58,3.35,3.35,0,0,0-1-.35,5,5,0,0,1-1.2-.39,1.62,1.62,0,0,1-1.06-1.49,1.67,1.67,0,0,1,.69-1.37,2.65,2.65,0,0,1,1.74-.56,2.74,2.74,0,0,1,1.81.57,1.79,1.79,0,0,1,.69,1.46h-1.4a.88.88,0,0,0-.31-.69,1.13,1.13,0,0,0-.79-.27,1.2,1.2,0,0,0-.76.22.67.67,0,0,0-.29.58.58.58,0,0,0,.27.51,3.7,3.7,0,0,0,1.1.36,5.41,5.41,0,0,1,1.3.44,1.79,1.79,0,0,1,.7.62,1.55,1.55,0,0,1,.23.86,1.65,1.65,0,0,1-.7,1.39,3,3,0,0,1-1.84.53,3.17,3.17,0,0,1-1.37-.28,2.34,2.34,0,0,1-.94-.78A1.85,1.85,0,0,1,382,106h1.36a1,1,0,0,0,.38.78,1.76,1.76,0,0,0,1.77.06A.67.67,0,0,0,385.82,106.29Z"/><path d="M391.12,104.78a3.83,3.83,0,0,1,.36-1.68,2.66,2.66,0,0,1,1-1.14,2.82,2.82,0,0,1,1.51-.41,2.71,2.71,0,0,1,2.06.83,3.29,3.29,0,0,1,.86,2.19v.34a3.9,3.9,0,0,1-.35,1.67,2.64,2.64,0,0,1-1,1.14,2.93,2.93,0,0,1-1.54.41,2.72,2.72,0,0,1-2.12-.89,3.46,3.46,0,0,1-.79-2.39Zm1.4.13a2.62,2.62,0,0,0,.4,1.53A1.3,1.3,0,0,0,394,107a1.28,1.28,0,0,0,1.11-.56,2.81,2.81,0,0,0,.4-1.65,2.54,2.54,0,0,0-.41-1.52,1.37,1.37,0,0,0-2.2,0A2.8,2.8,0,0,0,392.52,104.91Z"/><path d="M399.44,101.67l0,.73a2.25,2.25,0,0,1,1.82-.85c1.31,0,2,.76,2,2.27V108h-1.41V103.9a1.31,1.31,0,0,0-.26-.89,1.08,1.08,0,0,0-.84-.29,1.36,1.36,0,0,0-1.27.78V108h-1.41v-6.34Z"/><rect class="cls-3" x="305.38" y="262.13" width="137.2" height="31.54"/><path class="cls-1" d="M354.53,277.84l-.88.94v2.44h-1.34V273.4h1.34v3.67l.75-.93,2.26-2.74h1.62l-2.87,3.46,3,4.36h-1.59Z"/><path class="cls-1" d="M361.57,281.33a2.63,2.63,0,0,1-2-.79,2.83,2.83,0,0,1-.76-2.08v-.16a3.5,3.5,0,0,1,.33-1.55,2.56,2.56,0,0,1,.93-1.07,2.49,2.49,0,0,1,1.34-.38,2.22,2.22,0,0,1,1.81.76,3.2,3.2,0,0,1,.64,2.14v.53h-3.75a1.76,1.76,0,0,0,.48,1.14,1.42,1.42,0,0,0,1,.41,1.75,1.75,0,0,0,1.45-.72l.69.67a2.26,2.26,0,0,1-.92.81A2.85,2.85,0,0,1,361.57,281.33Zm-.15-5a1.08,1.08,0,0,0-.86.37,1.94,1.94,0,0,0-.42,1h2.46v-.1a1.59,1.59,0,0,0-.35-1A1.07,1.07,0,0,0,361.42,276.35Z"/><path class="cls-1" d="M364.88,273.9a.68.68,0,0,1,.19-.5.7.7,0,0,1,.54-.2.73.73,0,0,1,.54.2.74.74,0,0,1,0,1,.73.73,0,0,1-.54.2.7.7,0,0,1-.54-.2A.67.67,0,0,1,364.88,273.9Zm1.37,7.32H365v-5.81h1.29Z"/><path class="cls-1" d="M367.41,278.26a3.51,3.51,0,0,1,.33-1.54,2.47,2.47,0,0,1,.94-1.05,2.62,2.62,0,0,1,1.4-.37,2.46,2.46,0,0,1,1.88.76,3,3,0,0,1,.79,2v.3a3.62,3.62,0,0,1-.32,1.54,2.46,2.46,0,0,1-.94,1,2.68,2.68,0,0,1-1.4.37,2.51,2.51,0,0,1-1.95-.82,3.17,3.17,0,0,1-.73-2.19Zm1.29.11a2.34,2.34,0,0,0,.37,1.41,1.27,1.27,0,0,0,2,0,2.57,2.57,0,0,0,.37-1.51,2.35,2.35,0,0,0-.38-1.4,1.26,1.26,0,0,0-2,0A2.56,2.56,0,0,0,368.7,278.37Z"/><path class="cls-1" d="M378,280.13h3.51v1.09h-4.85V273.4H378Z"/><path class="cls-1" d="M382.44,273.9a.68.68,0,0,1,.19-.5.69.69,0,0,1,.53-.2.74.74,0,0,1,.55.2.74.74,0,0,1,0,1,.74.74,0,0,1-.55.2.69.69,0,0,1-.53-.2A.67.67,0,0,1,382.44,273.9Zm1.37,7.32h-1.29v-5.81h1.29Z"/><path class="cls-1" d="M386.41,275.41l0,.67a2,2,0,0,1,1.67-.78c1.2,0,1.8.69,1.82,2.08v3.84h-1.29v-3.77a1.2,1.2,0,0,0-.23-.82,1,1,0,0,0-.77-.26,1.26,1.26,0,0,0-1.17.71v4.14h-1.29v-5.81Z"/><path class="cls-1" d="M393.79,281.33a2.63,2.63,0,0,1-2-.79,2.83,2.83,0,0,1-.76-2.08v-.16a3.5,3.5,0,0,1,.33-1.55,2.56,2.56,0,0,1,.93-1.07,2.49,2.49,0,0,1,1.34-.38,2.22,2.22,0,0,1,1.81.76,3.2,3.2,0,0,1,.64,2.14v.53h-3.75a1.76,1.76,0,0,0,.48,1.14,1.42,1.42,0,0,0,1,.41,1.75,1.75,0,0,0,1.45-.72l.69.67a2.26,2.26,0,0,1-.92.81A2.85,2.85,0,0,1,393.79,281.33Zm-.15-5a1.08,1.08,0,0,0-.86.37,1.94,1.94,0,0,0-.42,1h2.46v-.1a1.59,1.59,0,0,0-.35-1A1.07,1.07,0,0,0,393.64,276.35Z"/><rect class="cls-3" x="306" y="224.8" width="137.2" height="31.54"/><path class="cls-1" d="M334.56,236.07h1.34v5.49a2.35,2.35,0,0,1-.7,1.78,2.54,2.54,0,0,1-1.83.66,2.65,2.65,0,0,1-1.87-.62,2.26,2.26,0,0,1-.65-1.72h1.33a1.31,1.31,0,0,0,.31.94,1.17,1.17,0,0,0,.88.32,1.13,1.13,0,0,0,.87-.37,1.46,1.46,0,0,0,.32-1Z"/><path class="cls-1" d="M340.27,240.89h-1.5v3h-1.34v-7.82h2.72a3.14,3.14,0,0,1,2.06.61,2.15,2.15,0,0,1,.73,1.76,2.2,2.2,0,0,1-.37,1.31,2.35,2.35,0,0,1-1.05.82l1.74,3.25v.07h-1.44Zm-1.5-1.1h1.38a1.55,1.55,0,0,0,1.07-.35,1.21,1.21,0,0,0,.38-.94,1.3,1.3,0,0,0-.36-1,1.47,1.47,0,0,0-1.05-.35h-1.42Z"/><path class="cls-1" d="M349.44,239.78l1.78-3.71h1.49L350.12,241v2.88h-1.35V241l-2.6-4.94h1.5Z"/><path class="cls-1" d="M356.52,243.89a2.71,2.71,0,0,1-.15-.54,2,2,0,0,1-1.5.65,2.05,2.05,0,0,1-1.42-.5,1.6,1.6,0,0,1-.54-1.23,1.65,1.65,0,0,1,.68-1.43,3.26,3.26,0,0,1,2-.5h.79V240a1,1,0,0,0-.25-.72,1,1,0,0,0-.76-.27,1.12,1.12,0,0,0-.72.22.69.69,0,0,0-.28.57H353a1.47,1.47,0,0,1,.31-.9,2.24,2.24,0,0,1,.85-.65,2.94,2.94,0,0,1,1.21-.24,2.41,2.41,0,0,1,1.61.52,1.82,1.82,0,0,1,.61,1.44v2.62a2.92,2.92,0,0,0,.22,1.25v.09Zm-1.41-.94a1.47,1.47,0,0,0,.71-.18,1.25,1.25,0,0,0,.51-.51v-1.09h-.69a1.87,1.87,0,0,0-1.08.25.81.81,0,0,0-.36.71.78.78,0,0,0,.24.6A1,1,0,0,0,355.11,243Z"/><path class="cls-1" d="M360.19,238.08l0,.61a2.07,2.07,0,0,1,1.66-.72,1.59,1.59,0,0,1,1.58.9,2,2,0,0,1,1.76-.9,1.8,1.8,0,0,1,1.42.54,2.4,2.4,0,0,1,.47,1.56v3.82h-1.29v-3.78a1.15,1.15,0,0,0-.24-.81,1,1,0,0,0-.79-.26,1.08,1.08,0,0,0-.72.24,1.21,1.21,0,0,0-.39.63v4H362.4v-3.82a.94.94,0,0,0-1-1,1.15,1.15,0,0,0-1.1.64v4.21H359v-5.81Z"/><path class="cls-1" d="M371.87,243.89a1.8,1.8,0,0,1-.15-.54,2.15,2.15,0,0,1-2.92.15,1.58,1.58,0,0,1-.55-1.23,1.67,1.67,0,0,1,.68-1.43,3.32,3.32,0,0,1,2-.5h.79V240a1,1,0,0,0-.25-.72,1,1,0,0,0-.76-.27,1.09,1.09,0,0,0-.72.22.7.7,0,0,0-.29.57h-1.29a1.48,1.48,0,0,1,.32-.9,2.17,2.17,0,0,1,.85-.65,2.92,2.92,0,0,1,1.2-.24,2.41,2.41,0,0,1,1.61.52,1.83,1.83,0,0,1,.62,1.44v2.62a3.09,3.09,0,0,0,.21,1.25v.09Zm-1.42-.94a1.54,1.54,0,0,0,.72-.18,1.39,1.39,0,0,0,.51-.51v-1.09H371a1.87,1.87,0,0,0-1.08.25.81.81,0,0,0-.36.71.76.76,0,0,0,.25.6A.92.92,0,0,0,370.45,243Z"/><path class="cls-1" d="M375.52,238.08l0,.67a2.06,2.06,0,0,1,1.68-.78c1.19,0,1.8.7,1.82,2.08v3.84h-1.29v-3.76a1.25,1.25,0,0,0-.23-.82,1,1,0,0,0-.78-.27,1.23,1.23,0,0,0-1.16.72v4.13H374.3v-5.81Z"/><path class="cls-1" d="M380.12,240.93a3.44,3.44,0,0,1,.34-1.53,2.43,2.43,0,0,1,.94-1.06,2.67,2.67,0,0,1,1.39-.37,2.52,2.52,0,0,1,1.89.76,3,3,0,0,1,.78,2v.31a3.44,3.44,0,0,1-.33,1.53,2.46,2.46,0,0,1-.94,1,2.59,2.59,0,0,1-1.4.37,2.48,2.48,0,0,1-1.95-.82,3.17,3.17,0,0,1-.73-2.18Zm1.29.12a2.38,2.38,0,0,0,.37,1.4,1.19,1.19,0,0,0,1,.51,1.17,1.17,0,0,0,1-.52,2.61,2.61,0,0,0,.36-1.51,2.31,2.31,0,0,0-.37-1.39,1.18,1.18,0,0,0-1-.52,1.16,1.16,0,0,0-1,.51A2.54,2.54,0,0,0,381.41,241.05Z"/><path class="cls-1" d="M388.17,236.67v1.41h1v1h-1v3.24a.73.73,0,0,0,.13.48.62.62,0,0,0,.47.15,2.3,2.3,0,0,0,.45,0v1a3.23,3.23,0,0,1-.85.12c-1,0-1.49-.55-1.49-1.66v-3.29h-.94v-1h.94v-1.41Z"/><path class="cls-1" d="M392.7,244a2.66,2.66,0,0,1-2-.78,2.89,2.89,0,0,1-.76-2.08V241a3.57,3.57,0,0,1,.33-1.56,2.62,2.62,0,0,1,.94-1.06,2.38,2.38,0,0,1,1.33-.39,2.27,2.27,0,0,1,1.82.76,3.28,3.28,0,0,1,.64,2.15v.52h-3.76a1.76,1.76,0,0,0,.48,1.14,1.42,1.42,0,0,0,1,.42,1.72,1.72,0,0,0,1.44-.73l.7.68a2.38,2.38,0,0,1-.92.8A2.79,2.79,0,0,1,392.7,244Zm-.15-5a1.09,1.09,0,0,0-.86.38,1.94,1.94,0,0,0-.42,1h2.46v-.1a1.6,1.6,0,0,0-.34-1A1.05,1.05,0,0,0,392.55,239Z"/><path class="cls-1" d="M400.18,242.81h3.51v1.08h-4.85v-7.82h1.34Z"/><path class="cls-1" d="M404.6,236.57a.69.69,0,0,1,.19-.5.83.83,0,0,1,1.08,0,.69.69,0,0,1,.19.5.66.66,0,0,1-.19.49.83.83,0,0,1-1.08,0A.66.66,0,0,1,404.6,236.57Zm1.37,7.32h-1.29v-5.81H406Z"/><path class="cls-1" d="M408.57,238.08l0,.67a2,2,0,0,1,1.67-.78c1.2,0,1.81.7,1.83,2.08v3.84h-1.29v-3.76a1.2,1.2,0,0,0-.24-.82,1,1,0,0,0-.77-.27,1.23,1.23,0,0,0-1.16.72v4.13h-1.29v-5.81Z"/><path class="cls-1" d="M416,244a2.67,2.67,0,0,1-2-.78,2.89,2.89,0,0,1-.76-2.08V241a3.57,3.57,0,0,1,.33-1.56,2.62,2.62,0,0,1,.94-1.06,2.38,2.38,0,0,1,1.33-.39,2.27,2.27,0,0,1,1.82.76,3.28,3.28,0,0,1,.64,2.15v.52H414.5a1.76,1.76,0,0,0,.48,1.14,1.42,1.42,0,0,0,1,.42,1.72,1.72,0,0,0,1.44-.73l.7.68a2.38,2.38,0,0,1-.92.8A2.79,2.79,0,0,1,416,244Zm-.15-5a1.09,1.09,0,0,0-.86.38,1.94,1.94,0,0,0-.41,1H417v-.1a1.6,1.6,0,0,0-.34-1A1.05,1.05,0,0,0,415.8,239Z"/><path class="cls-5" d="M364.58,206.36h-4.49l-.85,2.59h-2.72l4.62-12.56h2.37L368.16,209h-2.72Zm-3.8-2.1h3.11l-1.56-4.7Z"/><path class="cls-5" d="M379.41,209h-2.56l-5-8.27V209h-2.55V196.39h2.55l5,8.28v-8.28h2.55Z"/><path class="cls-5" d="M381.65,209V196.39h3.82a5.79,5.79,0,0,1,2.92.74,5.13,5.13,0,0,1,2,2.13,6.62,6.62,0,0,1,.73,3.12V203a6.52,6.52,0,0,1-.72,3.11,5.12,5.12,0,0,1-2,2.12,5.86,5.86,0,0,1-2.93.76Zm2.55-10.47v8.39h1.24a2.76,2.76,0,0,0,2.29-1,4.53,4.53,0,0,0,.81-2.84v-.67a4.62,4.62,0,0,0-.78-2.9,2.75,2.75,0,0,0-2.29-1Z"/><rect class="cls-3" x="387.66" y="114" width="55" height="68"/><rect class="cls-3" x="307.66" y="114" width="57" height="68"/><path class="cls-1" d="M320,133.59l-.87.94V137h-1.35v-7.82h1.35v3.67l.74-.93,2.26-2.74h1.63l-2.87,3.46,3,4.36h-1.59Z"/><path class="cls-1" d="M327.05,137.08a2.64,2.64,0,0,1-2-.78,2.88,2.88,0,0,1-.77-2.09v-.16a3.4,3.4,0,0,1,.34-1.55,2.56,2.56,0,0,1,.93-1.07,2.46,2.46,0,0,1,1.33-.38,2.24,2.24,0,0,1,1.82.76,3.2,3.2,0,0,1,.64,2.14v.53H325.6a1.76,1.76,0,0,0,.48,1.14,1.42,1.42,0,0,0,1.05.42,1.75,1.75,0,0,0,1.44-.73l.7.67a2.33,2.33,0,0,1-.92.81A2.92,2.92,0,0,1,327.05,137.08Zm-.15-5a1.09,1.09,0,0,0-.86.37,1.94,1.94,0,0,0-.41,1.05h2.45v-.1a1.58,1.58,0,0,0-.34-1A1.08,1.08,0,0,0,326.9,132.1Z"/><path class="cls-1" d="M330.36,129.65a.68.68,0,0,1,.19-.5.83.83,0,0,1,1.08,0,.68.68,0,0,1,.19.5.66.66,0,0,1-.19.49.83.83,0,0,1-1.08,0A.66.66,0,0,1,330.36,129.65Zm1.37,7.32h-1.29v-5.81h1.29Z"/><path class="cls-1" d="M335,134.48l-.57.59V137h-1.29v-8.25h1.29v4.76l.4-.51,1.59-1.81H338l-2.13,2.42L338.2,137h-1.49Z"/><path class="cls-1" d="M340.82,135.1l1.17-3.94h1.37l-2.28,6.69a1.86,1.86,0,0,1-1.78,1.47,2.42,2.42,0,0,1-.62-.1v-1h.24a1,1,0,0,0,1.13-.78l.18-.5-2-5.78h1.4Z"/><path class="cls-1" d="M347.59,136.4a2,2,0,0,1-1.62.68,1.77,1.77,0,0,1-1.41-.56,2.35,2.35,0,0,1-.48-1.6v-3.76h1.29v3.75c0,.74.3,1.1.91,1.1a1.26,1.26,0,0,0,1.26-.68v-4.17h1.29V137h-1.21Z"/><path class="cls-1" d="M321.43,148.35h-3l-.63,1.82h-1.39l2.92-7.82h1.2l2.93,7.82h-1.4Zm-2.61-1.1h2.24L319.94,144Z"/><path class="cls-1" d="M324.22,142.85a.68.68,0,0,1,.19-.5.83.83,0,0,1,1.08,0,.68.68,0,0,1,.19.5.66.66,0,0,1-.19.49.83.83,0,0,1-1.08,0A.66.66,0,0,1,324.22,142.85Zm1.37,7.32H324.3v-5.81h1.29Z"/><path class="cls-1" d="M330,145.55a3,3,0,0,0-.52,0,1.19,1.19,0,0,0-1.2.69v4H327v-5.81h1.24l0,.65a1.44,1.44,0,0,1,1.29-.76,1.19,1.19,0,0,1,.46.08Z"/><path class="cls-1" d="M335.85,147.32a3.43,3.43,0,0,1-.61,2.15,2.07,2.07,0,0,1-3.13.18v2.75h-1.29v-8H332l.05.59a1.87,1.87,0,0,1,1.54-.7,2,2,0,0,1,1.65.79,3.57,3.57,0,0,1,.6,2.2Zm-1.28-.11a2.43,2.43,0,0,0-.35-1.38,1.11,1.11,0,0,0-1-.51,1.18,1.18,0,0,0-1.13.66v2.58a1.19,1.19,0,0,0,1.14.68,1.12,1.12,0,0,0,1-.51A2.69,2.69,0,0,0,334.57,147.21Z"/><path class="cls-1" d="M336.7,147.21a3.51,3.51,0,0,1,.33-1.54,2.47,2.47,0,0,1,.94-1,2.6,2.6,0,0,1,1.39-.37,2.47,2.47,0,0,1,1.89.76,3,3,0,0,1,.79,2v.3a3.45,3.45,0,0,1-.33,1.54,2.38,2.38,0,0,1-.93,1,2.71,2.71,0,0,1-1.4.37,2.51,2.51,0,0,1-1.95-.82,3.17,3.17,0,0,1-.73-2.19Zm1.29.11a2.34,2.34,0,0,0,.37,1.41,1.26,1.26,0,0,0,2,0,2.63,2.63,0,0,0,.37-1.51,2.35,2.35,0,0,0-.38-1.4,1.2,1.2,0,0,0-1-.51,1.18,1.18,0,0,0-1,.51A2.51,2.51,0,0,0,338,147.32Z"/><path class="cls-1" d="M346.14,145.55a3.08,3.08,0,0,0-.53,0,1.17,1.17,0,0,0-1.19.69v4h-1.29v-5.81h1.23l0,.65a1.45,1.45,0,0,1,1.3-.76,1.17,1.17,0,0,1,.45.08Z"/><path class="cls-1" d="M348.84,143v1.41h1v1h-1v3.24a.71.71,0,0,0,.13.48.58.58,0,0,0,.46.15,1.74,1.74,0,0,0,.45-.06v1a2.83,2.83,0,0,1-.85.13c-1,0-1.48-.56-1.48-1.66v-3.29h-.95v-1h.95V143Z"/><path class="cls-1" d="M320.6,159.88h-3.18v2.4h3.71v1.09h-5.05v-7.82h5v1.1h-3.68v2.15h3.18Z"/><path class="cls-1" d="M324.16,159.47l1.1-1.91h1.43l-1.76,2.86,1.82,3h-1.42l-1.15-2-1.14,2h-1.43l1.81-3-1.75-2.86h1.42Z"/><path class="cls-1" d="M332.6,160.52a3.49,3.49,0,0,1-.6,2.15,2.08,2.08,0,0,1-3.14.18v2.75h-1.29v-8h1.19l.05.59a1.87,1.87,0,0,1,1.55-.7,1.92,1.92,0,0,1,1.64.79,3.57,3.57,0,0,1,.6,2.2Zm-1.28-.11A2.43,2.43,0,0,0,331,159a1.11,1.11,0,0,0-1-.51,1.18,1.18,0,0,0-1.13.66v2.58a1.19,1.19,0,0,0,1.14.68,1.11,1.11,0,0,0,1-.51A2.69,2.69,0,0,0,331.32,160.41Z"/><path class="cls-1" d="M336.7,158.75a3,3,0,0,0-.53,0,1.18,1.18,0,0,0-1.19.69v4h-1.29v-5.81h1.23l0,.65a1.45,1.45,0,0,1,1.3-.76,1.17,1.17,0,0,1,.45.08Z"/><path class="cls-1" d="M340.05,163.48a2.66,2.66,0,0,1-2-.78,2.88,2.88,0,0,1-.77-2.09v-.16a3.5,3.5,0,0,1,.34-1.55,2.56,2.56,0,0,1,.93-1.07,2.46,2.46,0,0,1,1.34-.38,2.23,2.23,0,0,1,1.81.76,3.2,3.2,0,0,1,.64,2.14v.53H338.6a1.7,1.7,0,0,0,.47,1.14,1.42,1.42,0,0,0,1.05.42,1.75,1.75,0,0,0,1.44-.73l.7.67a2.33,2.33,0,0,1-.92.81A2.91,2.91,0,0,1,340.05,163.48Zm-.16-5a1.09,1.09,0,0,0-.86.37,2,2,0,0,0-.41,1h2.45v-.1a1.58,1.58,0,0,0-.34-1A1.08,1.08,0,0,0,339.89,158.5Z"/><path class="cls-1" d="M346.57,161.79a.59.59,0,0,0-.28-.53,3,3,0,0,0-1-.32,4.89,4.89,0,0,1-1.1-.36,1.48,1.48,0,0,1-1-1.37,1.55,1.55,0,0,1,.62-1.25,2.45,2.45,0,0,1,1.6-.51,2.52,2.52,0,0,1,1.66.52,1.62,1.62,0,0,1,.64,1.33h-1.29a.8.8,0,0,0-.28-.62,1,1,0,0,0-.73-.25,1.05,1.05,0,0,0-.69.2.62.62,0,0,0-.27.53.53.53,0,0,0,.25.47,3.29,3.29,0,0,0,1,.33,5,5,0,0,1,1.19.4,1.71,1.71,0,0,1,.64.57,1.41,1.41,0,0,1,.21.79,1.51,1.51,0,0,1-.64,1.27,2.76,2.76,0,0,1-1.69.49,2.91,2.91,0,0,1-1.25-.26,2,2,0,0,1-.86-.71,1.65,1.65,0,0,1-.31-1h1.25a.91.91,0,0,0,.35.71,1.29,1.29,0,0,0,.84.25,1.32,1.32,0,0,0,.78-.2A.62.62,0,0,0,346.57,161.79Z"/><path class="cls-1" d="M352.18,161.79a.59.59,0,0,0-.28-.53,3,3,0,0,0-.94-.32,4.73,4.73,0,0,1-1.1-.36,1.47,1.47,0,0,1-1-1.37,1.53,1.53,0,0,1,.63-1.25,2.45,2.45,0,0,1,1.59-.51,2.55,2.55,0,0,1,1.67.52,1.64,1.64,0,0,1,.63,1.33h-1.29a.77.77,0,0,0-.28-.62,1,1,0,0,0-.73-.25,1.09,1.09,0,0,0-.69.2.62.62,0,0,0-.27.53.53.53,0,0,0,.25.47,3.4,3.4,0,0,0,1,.33,5,5,0,0,1,1.19.4,1.71,1.71,0,0,1,.64.57,1.41,1.41,0,0,1,.21.79,1.51,1.51,0,0,1-.64,1.27,2.75,2.75,0,0,1-1.68.49,3,3,0,0,1-1.26-.26,2,2,0,0,1-.86-.71,1.65,1.65,0,0,1-.31-1H350a.94.94,0,0,0,.35.71,1.29,1.29,0,0,0,.84.25,1.32,1.32,0,0,0,.78-.2A.62.62,0,0,0,352.18,161.79Z"/><path class="cls-1" d="M406.2,138.84h-2.41v6.73h-1.34v-6.73h-2.39v-1.09h6.14Z"/><path class="cls-1" d="M405.74,142.61a3.51,3.51,0,0,1,.33-1.54,2.47,2.47,0,0,1,.94-1,2.6,2.6,0,0,1,1.39-.37,2.47,2.47,0,0,1,1.89.76,3,3,0,0,1,.79,2v.3a3.48,3.48,0,0,1-.33,1.54,2.38,2.38,0,0,1-.93,1.05,2.71,2.71,0,0,1-1.4.37,2.51,2.51,0,0,1-1.95-.82,3.17,3.17,0,0,1-.73-2.19Zm1.29.11a2.34,2.34,0,0,0,.37,1.41,1.27,1.27,0,0,0,2,0,2.65,2.65,0,0,0,.37-1.51,2.35,2.35,0,0,0-.38-1.4,1.26,1.26,0,0,0-2,0A2.56,2.56,0,0,0,407,142.72Z"/><path class="cls-1" d="M414,143.08l-.57.59v1.9h-1.29v-8.25h1.29v4.76l.4-.51,1.59-1.81H417l-2.14,2.42,2.36,3.39h-1.49Z"/><path class="cls-1" d="M419.86,143.7l1.17-3.94h1.37l-2.28,6.69a1.87,1.87,0,0,1-1.79,1.47,2.56,2.56,0,0,1-.62-.1v-1l.25,0a1.23,1.23,0,0,0,.73-.18,1.13,1.13,0,0,0,.39-.6l.19-.5-2-5.78h1.39Z"/><path class="cls-1" d="M422.9,142.61a3.51,3.51,0,0,1,.33-1.54,2.47,2.47,0,0,1,.94-1,2.62,2.62,0,0,1,1.4-.37,2.46,2.46,0,0,1,1.88.76,3,3,0,0,1,.79,2v.3a3.62,3.62,0,0,1-.32,1.54,2.46,2.46,0,0,1-.94,1.05,2.68,2.68,0,0,1-1.4.37,2.51,2.51,0,0,1-1.95-.82,3.17,3.17,0,0,1-.73-2.19Zm1.29.11a2.34,2.34,0,0,0,.37,1.41,1.27,1.27,0,0,0,2,0,2.57,2.57,0,0,0,.37-1.51,2.35,2.35,0,0,0-.38-1.4,1.19,1.19,0,0,0-1-.51,1.21,1.21,0,0,0-1,.5A2.64,2.64,0,0,0,424.19,142.72Z"/><path class="cls-1" d="M396.6,151l2.23,6,2.23-6h1.74v7.82h-1.34v-2.58l.13-3.45-2.28,6h-1l-2.28-6,.13,3.44v2.58h-1.34V151Z"/><path class="cls-1" d="M404,155.81a3.51,3.51,0,0,1,.33-1.54,2.41,2.41,0,0,1,.94-1.05,2.58,2.58,0,0,1,1.39-.37,2.47,2.47,0,0,1,1.89.76,3,3,0,0,1,.78,2v.3a3.45,3.45,0,0,1-.33,1.54,2.5,2.5,0,0,1-.93,1,2.74,2.74,0,0,1-1.41.37,2.48,2.48,0,0,1-1.94-.82,3.17,3.17,0,0,1-.73-2.19Zm1.29.11a2.41,2.41,0,0,0,.36,1.41,1.19,1.19,0,0,0,1,.5,1.18,1.18,0,0,0,1-.51,2.63,2.63,0,0,0,.36-1.51,2.35,2.35,0,0,0-.37-1.4,1.26,1.26,0,0,0-2,0A2.56,2.56,0,0,0,405.31,155.92Z"/><path class="cls-1" d="M411.65,153l0,.67a2.08,2.08,0,0,1,1.68-.78c1.19,0,1.8.69,1.82,2.08v3.84h-1.29V155a1.22,1.22,0,0,0-.23-.81,1,1,0,0,0-.78-.27,1.25,1.25,0,0,0-1.16.71v4.14h-1.29V153Z"/><path class="cls-1" d="M416.26,155.81a3.51,3.51,0,0,1,.33-1.54,2.41,2.41,0,0,1,.94-1.05,2.58,2.58,0,0,1,1.39-.37,2.49,2.49,0,0,1,1.89.76,3,3,0,0,1,.78,2v.3a3.45,3.45,0,0,1-.33,1.54,2.5,2.5,0,0,1-.93,1,2.74,2.74,0,0,1-1.41.37,2.51,2.51,0,0,1-1.95-.82,3.21,3.21,0,0,1-.72-2.19Zm1.29.11a2.41,2.41,0,0,0,.36,1.41,1.19,1.19,0,0,0,1,.5,1.18,1.18,0,0,0,1-.51,2.63,2.63,0,0,0,.36-1.51,2.35,2.35,0,0,0-.37-1.4,1.2,1.2,0,0,0-1-.51,1.18,1.18,0,0,0-1,.5A2.56,2.56,0,0,0,417.55,155.92Z"/><path class="cls-1" d="M425.69,154.15a2.89,2.89,0,0,0-.52,0,1.2,1.2,0,0,0-1.2.68v4h-1.29V153h1.24l0,.65a1.44,1.44,0,0,1,1.29-.76,1.19,1.19,0,0,1,.46.08Z"/><path class="cls-1" d="M429.78,158.77a2.25,2.25,0,0,1-.14-.54,2.16,2.16,0,0,1-2.93.15,1.64,1.64,0,0,1-.54-1.24,1.65,1.65,0,0,1,.68-1.42,3.23,3.23,0,0,1,1.95-.5h.79v-.38a1,1,0,0,0-.25-.73,1,1,0,0,0-.76-.27,1.13,1.13,0,0,0-.72.23.67.67,0,0,0-.28.56h-1.29a1.44,1.44,0,0,1,.31-.89,2,2,0,0,1,.86-.65,2.92,2.92,0,0,1,1.2-.24,2.41,2.41,0,0,1,1.61.51,1.86,1.86,0,0,1,.61,1.45v2.62a3.08,3.08,0,0,0,.22,1.25v.09Zm-1.41-.94a1.44,1.44,0,0,0,.72-.19,1.2,1.2,0,0,0,.5-.5V156h-.69a1.87,1.87,0,0,0-1.08.25.83.83,0,0,0-.36.72.78.78,0,0,0,.24.6A1,1,0,0,0,428.37,157.83Z"/><path class="cls-1" d="M432.24,151.45a.68.68,0,0,1,.19-.5.69.69,0,0,1,.53-.2.74.74,0,0,1,.55.2.72.72,0,0,1,.19.5.7.7,0,0,1-.19.49.74.74,0,0,1-.55.2.69.69,0,0,1-.53-.2A.66.66,0,0,1,432.24,151.45Zm1.37,7.32h-1.29V153h1.29Z"/><path class="cls-1" d="M436.38,158.77h-1.29v-8.25h1.29Z"/><path class="cls-5" d="M376,148.87a5.1,5.1,0,0,1-.44,2.21,3.31,3.31,0,0,1-1.26,1.47,3.7,3.7,0,0,1-3.75,0,3.34,3.34,0,0,1-1.27-1.45,5,5,0,0,1-.46-2.18v-.42a5.18,5.18,0,0,1,.45-2.22,3.34,3.34,0,0,1,1.27-1.47,3.68,3.68,0,0,1,3.74,0,3.34,3.34,0,0,1,1.27,1.47,5.16,5.16,0,0,1,.45,2.21Zm-1.76-.38a3.66,3.66,0,0,0-.47-2,1.67,1.67,0,0,0-2.71,0,3.52,3.52,0,0,0-.48,2v.41a3.63,3.63,0,0,0,.48,2,1.65,1.65,0,0,0,2.71,0,3.67,3.67,0,0,0,.47-2Z"/><path class="cls-5" d="M380.36,149.82H379V153h-1.74v-8.53h3.14a3.5,3.5,0,0,1,2.3.67,2.33,2.33,0,0,1,.81,1.9,2.64,2.64,0,0,1-.37,1.46,2.58,2.58,0,0,1-1.13.93l1.82,3.48V153h-1.86ZM379,148.4h1.4a1.41,1.41,0,0,0,1-.34,1.2,1.2,0,0,0,.36-.93,1.35,1.35,0,0,0-.34-.95,1.4,1.4,0,0,0-1-.34H379Z"/></g><g id="column_2" data-name="column 2"><rect class="cls-6" x="149.26" y="63.41" width="149.67" height="416.36"/><path class="cls-3" d="M166.6,79.59a1.07,1.07,0,0,0-.41-.89,5.44,5.44,0,0,0-1.46-.65,10.71,10.71,0,0,1-1.67-.68,2.77,2.77,0,0,1-1.67-2.47,2.42,2.42,0,0,1,.45-1.44,3,3,0,0,1,1.29-1,4.75,4.75,0,0,1,1.89-.35,4.43,4.43,0,0,1,1.87.38,3.07,3.07,0,0,1,1.29,1.09,2.93,2.93,0,0,1,.45,1.6h-2a1.36,1.36,0,0,0-.42-1.06,1.76,1.76,0,0,0-1.2-.38,1.85,1.85,0,0,0-1.15.32,1,1,0,0,0-.42.84,1,1,0,0,0,.49.81,5.25,5.25,0,0,0,1.42.61,6.27,6.27,0,0,1,2.52,1.31,2.61,2.61,0,0,1,.79,1.94,2.42,2.42,0,0,1-1,2,4.23,4.23,0,0,1-2.61.73,5,5,0,0,1-2.06-.42,3.25,3.25,0,0,1-1.43-1.15,3,3,0,0,1-.49-1.69h2c0,1.09.65,1.64,1.94,1.64a1.92,1.92,0,0,0,1.13-.29A1,1,0,0,0,166.6,79.59Z"/><path class="cls-3" d="M178,82.21h-2V77.94H172v4.27h-2v-10h2v4H176v-4h2Z"/><path class="cls-3" d="M181.94,82.21h-2v-10h2Z"/><path class="cls-3" d="M191.82,82.21h-2l-3.95-6.55v6.55h-2v-10h2l4,6.57V72.25h2Z"/><path class="cls-3" d="M197.55,72.25h2v6.89a3.37,3.37,0,0,1-.41,1.68A2.86,2.86,0,0,1,198,82a3.65,3.65,0,0,1-1.71.39,3.43,3.43,0,0,1-2.43-.8,2.94,2.94,0,0,1-.87-2.27h2a1.66,1.66,0,0,0,.3,1.08,1.24,1.24,0,0,0,1,.35,1.16,1.16,0,0,0,.93-.41,1.72,1.72,0,0,0,.34-1.15Z"/><path class="cls-3" d="M208.77,72.25v6.56a3.34,3.34,0,0,1-1,2.58,3.83,3.83,0,0,1-2.76,1,3.87,3.87,0,0,1-2.73-.92,3.34,3.34,0,0,1-1-2.54V72.25h2v6.57a1.92,1.92,0,0,0,.46,1.43,1.77,1.77,0,0,0,1.28.45c1.14,0,1.72-.61,1.74-1.82V72.25Z"/><path class="cls-3" d="M213.51,78.21l-1.06,1.15v2.85h-2v-10h2v4.51l.9-1.23,2.5-3.28h2.5l-3.5,4.43,3.6,5.53H216Z"/><path class="cls-3" d="M226.66,72.25v6.56a3.37,3.37,0,0,1-1,2.58,3.83,3.83,0,0,1-2.76,1,3.9,3.9,0,0,1-2.74-.92,3.33,3.33,0,0,1-1-2.54V72.25h2v6.57a1.92,1.92,0,0,0,.46,1.43,1.75,1.75,0,0,0,1.28.45c1.14,0,1.72-.61,1.74-1.82V72.25Z"/><path class="cls-3" d="M236.87,79.59a1.07,1.07,0,0,0-.41-.89,5.49,5.49,0,0,0-1.45-.65,10.31,10.31,0,0,1-1.67-.68,2.77,2.77,0,0,1-1.68-2.47,2.42,2.42,0,0,1,.45-1.44,3,3,0,0,1,1.29-1,4.75,4.75,0,0,1,1.89-.35,4.51,4.51,0,0,1,1.88.38,3,3,0,0,1,1.28,1.09,2.93,2.93,0,0,1,.45,1.6h-2a1.36,1.36,0,0,0-.43-1.06,1.73,1.73,0,0,0-1.19-.38,1.86,1.86,0,0,0-1.16.32,1,1,0,0,0-.41.84,1,1,0,0,0,.48.81,5.39,5.39,0,0,0,1.42.61,6.13,6.13,0,0,1,2.52,1.31,2.61,2.61,0,0,1,.79,1.94,2.42,2.42,0,0,1-1,2,4.2,4.2,0,0,1-2.6.73,5,5,0,0,1-2.07-.42,3.22,3.22,0,0,1-1.42-1.15,2.94,2.94,0,0,1-.49-1.69h2c0,1.09.65,1.64,2,1.64a1.91,1.91,0,0,0,1.12-.29A1,1,0,0,0,236.87,79.59Z"/><path class="cls-3" d="M247.68,73.91h-3v8.3h-2v-8.3h-3V72.25h8Z"/><path class="cls-3" d="M253.58,80.16H250l-.68,2H247.2l3.66-10h1.88l3.68,10h-2.16Zm-3-1.67H253l-1.23-3.72Z"/><path class="cls-3" d="M263.94,73.91h-3v8.3h-2v-8.3h-3V72.25h8Z"/><path class="cls-3" d="M267.25,82.21h-2v-10h2Z"/><path class="cls-3" d="M277.21,77.46a6.08,6.08,0,0,1-.52,2.57,3.86,3.86,0,0,1-1.47,1.71,4,4,0,0,1-2.19.6,4.09,4.09,0,0,1-2.18-.59,3.93,3.93,0,0,1-1.49-1.7,5.85,5.85,0,0,1-.53-2.54V77a6,6,0,0,1,.52-2.59,4,4,0,0,1,1.48-1.72,4.13,4.13,0,0,1,2.19-.59,4.07,4.07,0,0,1,2.18.59,4,4,0,0,1,1.48,1.72,6,6,0,0,1,.53,2.58ZM275.15,77a4.25,4.25,0,0,0-.55-2.38,2,2,0,0,0-3.16,0,4.26,4.26,0,0,0-.56,2.36v.49a4.27,4.27,0,0,0,.56,2.36,1.93,1.93,0,0,0,3.16,0,4.26,4.26,0,0,0,.55-2.36Z"/><path class="cls-3" d="M286.68,82.21h-2l-3.94-6.55v6.55h-2v-10h2l4,6.57V72.25h2Z"/><rect class="cls-3" x="155.5" y="113.88" width="137.2" height="31.54"/><path class="cls-1" d="M204.65,129.59l-.88.94V133h-1.34v-7.82h1.34v3.67l.74-.93,2.27-2.74h1.62l-2.87,3.46,3,4.36H207Z"/><path class="cls-1" d="M211.69,133.08a2.66,2.66,0,0,1-2-.78,2.87,2.87,0,0,1-.76-2.09v-.16a3.53,3.53,0,0,1,.33-1.55,2.56,2.56,0,0,1,.93-1.07,2.49,2.49,0,0,1,1.34-.38,2.23,2.23,0,0,1,1.81.76A3.2,3.2,0,0,1,214,130v.53h-3.75a1.75,1.75,0,0,0,.47,1.14,1.42,1.42,0,0,0,1,.42,1.75,1.75,0,0,0,1.44-.73l.7.67a2.33,2.33,0,0,1-.92.81A2.88,2.88,0,0,1,211.69,133.08Zm-.16-5a1.06,1.06,0,0,0-.85.37,1.94,1.94,0,0,0-.42,1.05h2.46v-.1a1.65,1.65,0,0,0-.35-1A1.08,1.08,0,0,0,211.53,128.1Z"/><path class="cls-1" d="M215,125.65a.72.72,0,0,1,.19-.5.73.73,0,0,1,.54-.2.72.72,0,0,1,.54.2.68.68,0,0,1,.19.5.66.66,0,0,1-.19.49.72.72,0,0,1-.54.2.73.73,0,0,1-.54-.2A.7.7,0,0,1,215,125.65Zm1.37,7.32h-1.29v-5.81h1.29Z"/><path class="cls-1" d="M217.53,130a3.51,3.51,0,0,1,.33-1.54,2.41,2.41,0,0,1,.94-1,2.58,2.58,0,0,1,1.39-.37,2.47,2.47,0,0,1,1.89.76,3,3,0,0,1,.78,2v.3a3.45,3.45,0,0,1-.33,1.54,2.5,2.5,0,0,1-.93,1.05,2.74,2.74,0,0,1-1.41.37,2.48,2.48,0,0,1-1.94-.82,3.17,3.17,0,0,1-.73-2.19Zm1.29.11a2.41,2.41,0,0,0,.36,1.41,1.2,1.2,0,0,0,1,.51,1.18,1.18,0,0,0,1-.52,2.63,2.63,0,0,0,.36-1.51,2.35,2.35,0,0,0-.37-1.4,1.2,1.2,0,0,0-1-.51,1.18,1.18,0,0,0-1,.51A2.51,2.51,0,0,0,218.82,130.12Z"/><path class="cls-1" d="M228.14,131.88h3.51V133h-4.86v-7.82h1.35Z"/><path class="cls-1" d="M232.55,125.65a.72.72,0,0,1,.19-.5.83.83,0,0,1,1.08,0,.68.68,0,0,1,.19.5.66.66,0,0,1-.19.49.83.83,0,0,1-1.08,0A.7.7,0,0,1,232.55,125.65Zm1.37,7.32h-1.29v-5.81h1.29Z"/><path class="cls-1" d="M236.53,127.16l0,.67a2.06,2.06,0,0,1,1.67-.78c1.2,0,1.81.69,1.83,2.08V133h-1.29V129.2a1.17,1.17,0,0,0-.24-.81,1,1,0,0,0-.77-.27,1.24,1.24,0,0,0-1.16.71V133h-1.29v-5.81Z"/><path class="cls-1" d="M243.9,133.08a2.64,2.64,0,0,1-2-.78,2.88,2.88,0,0,1-.77-2.09v-.16a3.53,3.53,0,0,1,.34-1.55,2.56,2.56,0,0,1,.93-1.07,2.46,2.46,0,0,1,1.34-.38,2.23,2.23,0,0,1,1.81.76,3.2,3.2,0,0,1,.64,2.14v.53h-3.75a1.7,1.7,0,0,0,.47,1.14,1.42,1.42,0,0,0,1,.42,1.75,1.75,0,0,0,1.44-.73l.7.67a2.33,2.33,0,0,1-.92.81A2.92,2.92,0,0,1,243.9,133.08Zm-.15-5a1.09,1.09,0,0,0-.86.37,2,2,0,0,0-.41,1.05h2.46v-.1a1.65,1.65,0,0,0-.35-1A1.08,1.08,0,0,0,243.75,128.1Z"/><path d="M201,108h-5.67v-1l2.81-3.1a7.17,7.17,0,0,0,.86-1.14,1.82,1.82,0,0,0,.26-.92,1.4,1.4,0,0,0-.34-1,1.16,1.16,0,0,0-.91-.37,1.34,1.34,0,0,0-1.06.42,1.66,1.66,0,0,0-.38,1.15h-1.4a2.72,2.72,0,0,1,.35-1.4,2.34,2.34,0,0,1,1-1,3.13,3.13,0,0,1,1.5-.35A2.81,2.81,0,0,1,200,100a2.17,2.17,0,0,1,.71,1.72,2.93,2.93,0,0,1-.36,1.34,7.14,7.14,0,0,1-1.16,1.59l-2.07,2.24H201Z"/><path d="M202.44,103.78l.46-4.3h4.53v1.23h-3.36l-.24,2a2.55,2.55,0,0,1,1.32-.34,2.34,2.34,0,0,1,1.88.78,3.15,3.15,0,0,1,.67,2.1,2.9,2.9,0,0,1-.74,2.07,2.73,2.73,0,0,1-2,.77,2.79,2.79,0,0,1-1.92-.67,2.37,2.37,0,0,1-.82-1.75h1.36a1.49,1.49,0,0,0,.44,1,1.33,1.33,0,0,0,.94.33,1.19,1.19,0,0,0,1-.47,2,2,0,0,0,.36-1.27,1.81,1.81,0,0,0-.4-1.24,1.4,1.4,0,0,0-1.1-.45,1.78,1.78,0,0,0-.65.1,1.84,1.84,0,0,0-.58.4Z"/><path d="M213.17,101.67l0,.66a2.24,2.24,0,0,1,1.81-.78,1.73,1.73,0,0,1,1.72,1,2.21,2.21,0,0,1,1.92-1,2,2,0,0,1,1.55.58,2.6,2.6,0,0,1,.51,1.72V108h-1.4v-4.12a1.3,1.3,0,0,0-.26-.89,1.15,1.15,0,0,0-.87-.28,1.17,1.17,0,0,0-.78.26,1.35,1.35,0,0,0-.43.68V108h-1.41v-4.17a1,1,0,0,0-1.13-1.12,1.24,1.24,0,0,0-1.2.7V108h-1.41v-6.34Z"/><path d="M222.17,100a.75.75,0,0,1,.21-.55.79.79,0,0,1,.59-.22.81.81,0,0,1,.59.22.8.8,0,0,1,.21.55.77.77,0,0,1-.21.53.81.81,0,0,1-.59.22.79.79,0,0,1-.59-.22A.72.72,0,0,1,222.17,100Zm1.5,8h-1.41v-6.34h1.41Z"/><path d="M226.5,101.67l0,.73a2.29,2.29,0,0,1,1.83-.85c1.31,0,2,.76,2,2.27V108H229V103.9a1.31,1.31,0,0,0-.25-.89,1.1,1.1,0,0,0-.85-.29,1.34,1.34,0,0,0-1.26.78V108h-1.41v-6.34Z"/><path d="M235.31,106.29a.66.66,0,0,0-.31-.58,3.35,3.35,0,0,0-1-.35,5,5,0,0,1-1.2-.39,1.61,1.61,0,0,1-1.05-1.49,1.66,1.66,0,0,1,.68-1.37,2.69,2.69,0,0,1,1.74-.56,2.74,2.74,0,0,1,1.81.57,1.77,1.77,0,0,1,.7,1.46h-1.41a.9.9,0,0,0-.3-.69,1.16,1.16,0,0,0-.8-.27,1.22,1.22,0,0,0-.76.22.69.69,0,0,0-.29.58.58.58,0,0,0,.27.51,3.7,3.7,0,0,0,1.1.36,5.26,5.26,0,0,1,1.3.44,1.79,1.79,0,0,1,.7.62,1.47,1.47,0,0,1,.23.86,1.65,1.65,0,0,1-.7,1.39,3,3,0,0,1-1.83.53,3.21,3.21,0,0,1-1.38-.28,2.24,2.24,0,0,1-.93-.78,1.78,1.78,0,0,1-.34-1.06h1.37a1,1,0,0,0,.37.78,1.46,1.46,0,0,0,.92.27,1.44,1.44,0,0,0,.85-.21A.67.67,0,0,0,235.31,106.29Z"/><path d="M240.61,104.78a3.83,3.83,0,0,1,.36-1.68,2.72,2.72,0,0,1,1-1.14,2.83,2.83,0,0,1,1.52-.41,2.74,2.74,0,0,1,2.06.83,3.28,3.28,0,0,1,.85,2.19v.34a3.76,3.76,0,0,1-.36,1.67,2.64,2.64,0,0,1-1,1.14,2.87,2.87,0,0,1-1.53.41,2.74,2.74,0,0,1-2.13-.89,3.46,3.46,0,0,1-.79-2.39Zm1.41.13a2.55,2.55,0,0,0,.4,1.53,1.27,1.27,0,0,0,1.11.55,1.3,1.3,0,0,0,1.11-.56,2.89,2.89,0,0,0,.39-1.65,2.54,2.54,0,0,0-.4-1.52,1.3,1.3,0,0,0-1.11-.56,1.29,1.29,0,0,0-1.1.55A2.8,2.8,0,0,0,242,104.91Z"/><path d="M248.93,101.67l0,.73a2.27,2.27,0,0,1,1.83-.85c1.3,0,2,.76,2,2.27V108h-1.41V103.9a1.26,1.26,0,0,0-.26-.89,1.08,1.08,0,0,0-.84-.29,1.36,1.36,0,0,0-1.27.78V108h-1.4v-6.34Z"/></g><g id="column_1" data-name="column 1"><rect class="cls-6" y="63.41" width="149.67" height="416.36"/><path class="cls-3" d="M30.74,73.91h-3v8.3h-2v-8.3h-3V72.25h8Z"/><path class="cls-3" d="M39.79,77.45A6.12,6.12,0,0,1,39.28,80a4,4,0,0,1-1.47,1.71,4.06,4.06,0,0,1-2.2.6,4.12,4.12,0,0,1-2.18-.59,4.06,4.06,0,0,1-1.49-1.7,6,6,0,0,1-.53-2.54V77a6,6,0,0,1,.53-2.59,3.89,3.89,0,0,1,1.47-1.72,4.36,4.36,0,0,1,4.38,0,4,4,0,0,1,1.48,1.72A6,6,0,0,1,39.79,77Zm-2-.45a4.25,4.25,0,0,0-.56-2.38,1.94,1.94,0,0,0-3.15,0A4.23,4.23,0,0,0,33.46,77v.48A4.28,4.28,0,0,0,34,79.82a1.93,1.93,0,0,0,3.16,0,4.26,4.26,0,0,0,.56-2.36Z"/><path class="cls-3" d="M44.34,78.21l-1.05,1.15v2.85h-2v-10h2v4.51l.89-1.23,2.51-3.28h2.49l-3.49,4.42,3.59,5.54H46.87Z"/><path class="cls-3" d="M53.44,76.74l2.05-4.49H57.7L54.47,78.6v3.61H52.41V78.6l-3.23-6.35h2.23Z"/><path class="cls-3" d="M66.49,77.45A6.12,6.12,0,0,1,66,80a4,4,0,0,1-1.47,1.71,4.06,4.06,0,0,1-2.2.6,4.12,4.12,0,0,1-2.18-.59,4.06,4.06,0,0,1-1.49-1.7,5.85,5.85,0,0,1-.53-2.54V77a6,6,0,0,1,.52-2.59,4,4,0,0,1,1.48-1.72,4.36,4.36,0,0,1,4.38,0A4,4,0,0,1,66,74.43,6,6,0,0,1,66.49,77Zm-2-.45a4.25,4.25,0,0,0-.56-2.38,1.94,1.94,0,0,0-3.15,0A4.23,4.23,0,0,0,60.16,77v.48a4.28,4.28,0,0,0,.56,2.37,1.93,1.93,0,0,0,3.16,0,4.26,4.26,0,0,0,.56-2.36Z"/><path class="cls-3" d="M76.51,79.59a1.06,1.06,0,0,0-.4-.89,5.27,5.27,0,0,0-1.46-.65A10.31,10.31,0,0,1,73,77.37,2.78,2.78,0,0,1,71.3,74.9a2.42,2.42,0,0,1,.45-1.44,3,3,0,0,1,1.29-1,4.75,4.75,0,0,1,1.89-.35,4.36,4.36,0,0,1,1.88.38,3,3,0,0,1,1.28,1.09,2.9,2.9,0,0,1,.45,1.6h-2a1.33,1.33,0,0,0-.43-1.06,1.73,1.73,0,0,0-1.19-.38,1.82,1.82,0,0,0-1.16.32,1,1,0,0,0-.41.83,1,1,0,0,0,.48.82,5.39,5.39,0,0,0,1.42.61,6,6,0,0,1,2.52,1.31,2.61,2.61,0,0,1,.79,1.94,2.42,2.42,0,0,1-1,2,4.2,4.2,0,0,1-2.6.73,5,5,0,0,1-2.07-.42,3.22,3.22,0,0,1-1.42-1.15,3,3,0,0,1-.49-1.7h2q0,1.65,2,1.65a1.87,1.87,0,0,0,1.13-.3A1,1,0,0,0,76.51,79.59Z"/><path class="cls-3" d="M87.32,73.91h-3v8.3h-2v-8.3h-3V72.25h8Z"/><path class="cls-3" d="M93.22,80.15H89.67L89,82.21H86.84l3.66-10h1.88l3.68,10H93.9Zm-3-1.66h2.46l-1.24-3.72Z"/><path class="cls-3" d="M103.58,73.91h-3v8.3h-2v-8.3h-3V72.25h8Z"/><path class="cls-3" d="M106.89,82.21h-2v-10h2Z"/><path class="cls-3" d="M116.85,77.45a6,6,0,0,1-.52,2.58,3.86,3.86,0,0,1-1.47,1.71,4,4,0,0,1-2.19.6,4.12,4.12,0,0,1-2.18-.59,4,4,0,0,1-1.49-1.7,5.85,5.85,0,0,1-.53-2.54V77a6,6,0,0,1,.52-2.59,3.91,3.91,0,0,1,1.48-1.72,4,4,0,0,1,2.19-.59,4,4,0,0,1,2.18.59,3.91,3.91,0,0,1,1.48,1.72,6,6,0,0,1,.53,2.58ZM114.79,77a4.25,4.25,0,0,0-.55-2.38,2,2,0,0,0-3.16,0,4.24,4.24,0,0,0-.56,2.36v.48a4.28,4.28,0,0,0,.56,2.37,1.93,1.93,0,0,0,3.16,0,4.26,4.26,0,0,0,.55-2.36Z"/><path class="cls-3" d="M126.32,82.21h-2l-3.94-6.55v6.55h-2v-10h2l4,6.56V72.25h2Z"/><path d="M50.82,104.6h1v1.14h-1v1.9H49.41v-1.9H45.77l0-.87,3.64-5.76h1.45Zm-3.61,0h2.2V101l-.1.19Z"/><path d="M53.18,103.41l.46-4.3h4.53v1.23H54.81l-.24,2a2.55,2.55,0,0,1,1.32-.34,2.34,2.34,0,0,1,1.88.77,3.15,3.15,0,0,1,.67,2.1A2.87,2.87,0,0,1,57.7,107a2.69,2.69,0,0,1-2,.77,2.83,2.83,0,0,1-1.92-.66,2.39,2.39,0,0,1-.82-1.76h1.36a1.49,1.49,0,0,0,.44,1,1.33,1.33,0,0,0,.94.33,1.21,1.21,0,0,0,1-.47,2,2,0,0,0,.36-1.28,1.77,1.77,0,0,0-.4-1.23,1.37,1.37,0,0,0-1.1-.46,1.8,1.8,0,0,0-.65.11,1.68,1.68,0,0,0-.58.4Z"/><path d="M63.91,101.3l0,.66a2.24,2.24,0,0,1,1.81-.78,1.72,1.72,0,0,1,1.72,1,2.22,2.22,0,0,1,1.92-1,2,2,0,0,1,1.55.58,2.58,2.58,0,0,1,.51,1.71v4.17h-1.4v-4.13a1.27,1.27,0,0,0-.26-.88,1.15,1.15,0,0,0-.87-.28,1.12,1.12,0,0,0-.78.26,1.31,1.31,0,0,0-.43.68v4.35H66.32v-4.18a1,1,0,0,0-1.13-1.11A1.25,1.25,0,0,0,64,103v4.6H62.58V101.3Z"/><path d="M72.91,99.65a.73.73,0,0,1,.21-.54.76.76,0,0,1,.59-.22.77.77,0,0,1,.59.22.73.73,0,0,1,.21.54.75.75,0,0,1-.21.54.8.8,0,0,1-.59.21.79.79,0,0,1-.59-.21A.75.75,0,0,1,72.91,99.65Zm1.5,8H73V101.3h1.41Z"/><path d="M77.24,101.3l0,.73a2.26,2.26,0,0,1,1.83-.85c1.31,0,2,.76,2,2.27v4.19H79.69v-4.11a1.31,1.31,0,0,0-.25-.89,1.07,1.07,0,0,0-.85-.29,1.35,1.35,0,0,0-1.26.77v4.52H75.92V101.3Z"/><path d="M86.05,105.91a.67.67,0,0,0-.31-.58,3.35,3.35,0,0,0-1-.35,5.48,5.48,0,0,1-1.2-.38,1.63,1.63,0,0,1-1.05-1.5,1.7,1.7,0,0,1,.68-1.37,2.69,2.69,0,0,1,1.74-.55,2.8,2.8,0,0,1,1.81.56,1.78,1.78,0,0,1,.7,1.46H86a.88.88,0,0,0-.3-.68,1.16,1.16,0,0,0-.8-.27,1.29,1.29,0,0,0-.76.21.71.71,0,0,0-.29.58.58.58,0,0,0,.27.51,3.64,3.64,0,0,0,1.1.37,4.88,4.88,0,0,1,1.3.44,1.77,1.77,0,0,1,.7.61,1.53,1.53,0,0,1,.23.87,1.64,1.64,0,0,1-.7,1.38,2.9,2.9,0,0,1-1.83.53,3.21,3.21,0,0,1-1.38-.28,2.15,2.15,0,0,1-.93-.77,1.81,1.81,0,0,1-.34-1.06h1.37a1,1,0,0,0,.37.78,1.46,1.46,0,0,0,.92.27,1.37,1.37,0,0,0,.85-.22A.67.67,0,0,0,86.05,105.91Z"/><path d="M91.35,104.41a3.83,3.83,0,0,1,.36-1.68,2.75,2.75,0,0,1,1-1.15,2.85,2.85,0,0,1,1.52-.4,2.74,2.74,0,0,1,2.06.83,3.28,3.28,0,0,1,.85,2.19v.33a3.8,3.8,0,0,1-.36,1.68,2.69,2.69,0,0,1-1,1.14,2.86,2.86,0,0,1-1.53.4,2.67,2.67,0,0,1-2.12-.89,3.41,3.41,0,0,1-.8-2.38Zm1.41.12a2.55,2.55,0,0,0,.4,1.53,1.37,1.37,0,0,0,2.22,0,2.86,2.86,0,0,0,.39-1.64,2.59,2.59,0,0,0-.4-1.53,1.33,1.33,0,0,0-1.11-.56,1.3,1.3,0,0,0-1.1.56A2.79,2.79,0,0,0,92.76,104.53Z"/><path d="M99.67,101.3l0,.73a2.24,2.24,0,0,1,1.83-.85c1.3,0,2,.76,2,2.27v4.19h-1.41v-4.11a1.26,1.26,0,0,0-.26-.89,1,1,0,0,0-.84-.29,1.36,1.36,0,0,0-1.27.77v4.52h-1.4V101.3Z"/><rect class="cls-3" x="6.24" y="113.88" width="137.2" height="31.54"/><path class="cls-1" d="M46.71,125.15h1.34v5.48a2.37,2.37,0,0,1-.69,1.79,2.57,2.57,0,0,1-1.83.66,2.64,2.64,0,0,1-1.87-.62,2.25,2.25,0,0,1-.66-1.72h1.34a1.31,1.31,0,0,0,.3.94,1.19,1.19,0,0,0,.89.31,1.09,1.09,0,0,0,.86-.36,1.48,1.48,0,0,0,.32-1Z"/><path class="cls-1" d="M52.42,130H50.93v3H49.58v-7.82H52.3a3.14,3.14,0,0,1,2.07.61,2.16,2.16,0,0,1,.72,1.75,2.21,2.21,0,0,1-.37,1.32,2.43,2.43,0,0,1-1,.81l1.73,3.26V133H54Zm-1.49-1.09h1.38a1.54,1.54,0,0,0,1.06-.35,1.23,1.23,0,0,0,.38-1,1.31,1.31,0,0,0-.35-1,1.47,1.47,0,0,0-1.06-.35H50.93Z"/><path class="cls-1" d="M65,130.42a2.87,2.87,0,0,1-.92,2,3.13,3.13,0,0,1-2.12.7,2.92,2.92,0,0,1-1.62-.45,2.87,2.87,0,0,1-1.09-1.26,4.61,4.61,0,0,1-.4-1.89v-.73a4.59,4.59,0,0,1,.39-2,3,3,0,0,1,1.11-1.3A3,3,0,0,1,62,125a2.75,2.75,0,0,1,3,2.69H63.64a2,2,0,0,0-.49-1.22,1.58,1.58,0,0,0-1.14-.37,1.54,1.54,0,0,0-1.35.65,3.3,3.3,0,0,0-.48,1.9v.69a3.42,3.42,0,0,0,.45,1.93,1.48,1.48,0,0,0,1.31.67,1.71,1.71,0,0,0,1.19-.36,1.86,1.86,0,0,0,.51-1.2Z"/><path class="cls-1" d="M67.32,127.79a2,2,0,0,1,1.6-.74c1.22,0,1.85.71,1.86,2.12V133H69.49v-3.75a1.17,1.17,0,0,0-.25-.85,1.06,1.06,0,0,0-.76-.25,1.24,1.24,0,0,0-1.16.7V133H66v-8.25h1.29Z"/><path class="cls-1" d="M75.57,132.4a2,2,0,0,1-1.62.68,1.77,1.77,0,0,1-1.41-.56,2.35,2.35,0,0,1-.48-1.6v-3.76h1.29v3.75c0,.74.3,1.1.91,1.1a1.27,1.27,0,0,0,1.27-.68v-4.17h1.29V133H75.6Z"/><path class="cls-1" d="M77.89,130a3.51,3.51,0,0,1,.33-1.54,2.47,2.47,0,0,1,.94-1,2.6,2.6,0,0,1,1.39-.37,2.47,2.47,0,0,1,1.89.76,3,3,0,0,1,.78,2v.3a3.45,3.45,0,0,1-.33,1.54,2.44,2.44,0,0,1-.93,1.05,2.72,2.72,0,0,1-1.41.37,2.49,2.49,0,0,1-1.94-.82,3.17,3.17,0,0,1-.73-2.19Zm1.29.11a2.41,2.41,0,0,0,.36,1.41,1.2,1.2,0,0,0,1,.51,1.18,1.18,0,0,0,1-.52,2.63,2.63,0,0,0,.36-1.51,2.35,2.35,0,0,0-.37-1.4,1.2,1.2,0,0,0-1-.51,1.18,1.18,0,0,0-1,.51A2.51,2.51,0,0,0,79.18,130.12Z"/><path class="cls-1" d="M88.5,131.88H92V133H87.15v-7.82H88.5Z"/><path class="cls-1" d="M92.91,125.65a.72.72,0,0,1,.19-.5.73.73,0,0,1,.54-.2.72.72,0,0,1,.54.2.68.68,0,0,1,.19.5.66.66,0,0,1-.19.49.72.72,0,0,1-.54.2.73.73,0,0,1-.54-.2A.7.7,0,0,1,92.91,125.65ZM94.28,133H93v-5.81h1.29Z"/><path class="cls-1" d="M96.89,127.16l0,.67a2.08,2.08,0,0,1,1.68-.78c1.19,0,1.8.69,1.82,2.08V133H99.13V129.2a1.22,1.22,0,0,0-.23-.81,1,1,0,0,0-.78-.27,1.24,1.24,0,0,0-1.16.71V133H95.67v-5.81Z"/><path class="cls-1" d="M104.27,133.08a2.66,2.66,0,0,1-2-.78,2.87,2.87,0,0,1-.76-2.09v-.16a3.53,3.53,0,0,1,.33-1.55,2.56,2.56,0,0,1,.93-1.07,2.49,2.49,0,0,1,1.34-.38,2.23,2.23,0,0,1,1.81.76,3.2,3.2,0,0,1,.64,2.14v.53h-3.75a1.75,1.75,0,0,0,.47,1.14,1.42,1.42,0,0,0,1,.42,1.75,1.75,0,0,0,1.44-.73l.7.67a2.33,2.33,0,0,1-.92.81A2.88,2.88,0,0,1,104.27,133.08Zm-.16-5a1.06,1.06,0,0,0-.85.37,1.94,1.94,0,0,0-.42,1.05h2.46v-.1a1.65,1.65,0,0,0-.35-1A1.08,1.08,0,0,0,104.11,128.1Z"/><rect class="cls-3" x="6.26" y="150.47" width="137.2" height="31.54"/><path class="cls-1" d="M55.41,166.18l-.88.94v2.44H53.19v-7.82h1.34v3.67l.75-.93,2.26-2.74h1.62l-2.87,3.46,3,4.36h-1.6Z"/><path class="cls-1" d="M62.45,169.67a2.66,2.66,0,0,1-2-.78,2.87,2.87,0,0,1-.76-2.09v-.16a3.5,3.5,0,0,1,.33-1.55A2.56,2.56,0,0,1,61,164a2.49,2.49,0,0,1,1.34-.38,2.22,2.22,0,0,1,1.81.76,3.2,3.2,0,0,1,.64,2.14v.53H61a1.75,1.75,0,0,0,.47,1.14,1.46,1.46,0,0,0,1.05.41A1.77,1.77,0,0,0,64,167.9l.69.67a2.33,2.33,0,0,1-.92.81A2.85,2.85,0,0,1,62.45,169.67Zm-.16-5a1.06,1.06,0,0,0-.85.37,1.94,1.94,0,0,0-.42,1.05h2.46V166a1.65,1.65,0,0,0-.35-1A1.08,1.08,0,0,0,62.29,164.69Z"/><path class="cls-1" d="M65.76,162.24a.71.71,0,0,1,.18-.5.73.73,0,0,1,.54-.2.74.74,0,0,1,.55.2.72.72,0,0,1,.19.5.7.7,0,0,1-.19.49.74.74,0,0,1-.55.2.73.73,0,0,1-.54-.2A.69.69,0,0,1,65.76,162.24Zm1.37,7.32H65.84v-5.81h1.29Z"/><path class="cls-1" d="M68.29,166.6a3.51,3.51,0,0,1,.33-1.54,2.47,2.47,0,0,1,.94-1.05,2.6,2.6,0,0,1,1.39-.37,2.47,2.47,0,0,1,1.89.76,3,3,0,0,1,.78,2v.3a3.45,3.45,0,0,1-.33,1.54,2.44,2.44,0,0,1-.93,1.05,2.72,2.72,0,0,1-1.41.37,2.49,2.49,0,0,1-1.94-.82,3.17,3.17,0,0,1-.73-2.19Zm1.29.11a2.41,2.41,0,0,0,.36,1.41,1.19,1.19,0,0,0,1,.5,1.18,1.18,0,0,0,1-.51,2.63,2.63,0,0,0,.37-1.51,2.35,2.35,0,0,0-.38-1.4,1.26,1.26,0,0,0-2,0A2.56,2.56,0,0,0,69.58,166.71Z"/><path class="cls-1" d="M78.9,168.47h3.51v1.09H77.55v-7.82H78.9Z"/><path class="cls-1" d="M83.31,162.24a.72.72,0,0,1,.19-.5.73.73,0,0,1,.54-.2.7.7,0,0,1,.54.2.69.69,0,0,1,.2.5.66.66,0,0,1-.2.49.7.7,0,0,1-.54.2.73.73,0,0,1-.54-.2A.7.7,0,0,1,83.31,162.24Zm1.37,7.32H83.39v-5.81h1.29Z"/><path class="cls-1" d="M87.29,163.75l0,.67a2.08,2.08,0,0,1,1.68-.78c1.19,0,1.8.69,1.82,2.08v3.84H89.53v-3.77a1.22,1.22,0,0,0-.23-.81,1,1,0,0,0-.78-.27,1.24,1.24,0,0,0-1.16.71v4.14H86.07v-5.81Z"/><path class="cls-1" d="M94.67,169.67a2.66,2.66,0,0,1-2-.78,2.87,2.87,0,0,1-.76-2.09v-.16a3.5,3.5,0,0,1,.33-1.55,2.56,2.56,0,0,1,.93-1.07,2.49,2.49,0,0,1,1.34-.38,2.23,2.23,0,0,1,1.81.76,3.2,3.2,0,0,1,.64,2.14v.53H93.22a1.75,1.75,0,0,0,.47,1.14,1.46,1.46,0,0,0,1,.41,1.77,1.77,0,0,0,1.45-.72l.69.67a2.33,2.33,0,0,1-.92.81A2.91,2.91,0,0,1,94.67,169.67Zm-.16-5a1.09,1.09,0,0,0-.86.37,2,2,0,0,0-.41,1.05H95.7V166a1.65,1.65,0,0,0-.35-1A1.08,1.08,0,0,0,94.51,164.69Z"/></g><g id="Getting_There_Title" data-name="Getting There Title"><rect class="cls-2" x="0.36" width="599.3" height="65"/><path class="cls-1" d="M177.79,37a5.33,5.33,0,0,1-2.37,1.62,9.59,9.59,0,0,1-3.38.57,6.5,6.5,0,0,1-3.42-.88,5.82,5.82,0,0,1-2.27-2.57,9.25,9.25,0,0,1-.82-4V30.66a10.11,10.11,0,0,1,.75-4.06A5.86,5.86,0,0,1,168.47,24a7,7,0,0,1,7.53.42,5.76,5.76,0,0,1,1.79,3.86h-3a3.17,3.17,0,0,0-.91-2,2.82,2.82,0,0,0-2-.63,2.72,2.72,0,0,0-2.4,1.24,6.72,6.72,0,0,0-.84,3.67v1a6.38,6.38,0,0,0,.9,3.72,3,3,0,0,0,2.63,1.26,3.33,3.33,0,0,0,2.49-.78V33.09h-2.82V30.71h5.92Z"/><path class="cls-1" d="M189.57,32.15h-5.95v4.19h7v2.59H180.53V23.29h10.05V25.9h-7v3.73h5.95Z"/><path class="cls-1" d="M204.21,25.9h-4.6v13h-3.09v-13H192V23.29h12.23Z"/><path class="cls-1" d="M217.81,25.9h-4.6v13h-3.1v-13h-4.54V23.29h12.24Z"/><path class="cls-1" d="M222.82,38.93h-3.09V23.29h3.09Z"/><path class="cls-1" d="M238.07,38.93H235l-6-10.29V38.93h-3.1V23.29H229l6,10.31V23.29h3.08Z"/><path class="cls-1" d="M252.79,37a5.3,5.3,0,0,1-2.36,1.62,9.65,9.65,0,0,1-3.39.57,6.5,6.5,0,0,1-3.42-.88,5.88,5.88,0,0,1-2.27-2.57,9.56,9.56,0,0,1-.82-4V30.66a9.94,9.94,0,0,1,.76-4.06A5.86,5.86,0,0,1,243.48,24a7,7,0,0,1,7.53.42,5.76,5.76,0,0,1,1.78,3.86h-3a3.17,3.17,0,0,0-.91-2,2.84,2.84,0,0,0-2-.63,2.72,2.72,0,0,0-2.4,1.24,6.72,6.72,0,0,0-.84,3.67v1a6.38,6.38,0,0,0,.9,3.72,3,3,0,0,0,2.63,1.26,3.35,3.35,0,0,0,2.49-.78V33.09h-2.82V30.71h5.91Z"/><path class="cls-1" d="M272.09,25.9h-4.61v13h-3.09v-13h-4.54V23.29h12.24Z"/><path class="cls-1" d="M285.93,31.46a9.82,9.82,0,0,1-.78,4,6.17,6.17,0,0,1-2.25,2.69,6,6,0,0,1-3.35.94,5.95,5.95,0,0,1-5.6-3.6,9.51,9.51,0,0,1-.82-4v-.77a9.79,9.79,0,0,1,.8-4.07,6.23,6.23,0,0,1,2.26-2.7,6.09,6.09,0,0,1,8.94,2.7,9.74,9.74,0,0,1,.8,4.06Zm-3.14-.71A6.8,6.8,0,0,0,282,27a2.92,2.92,0,0,0-4.82,0,6.7,6.7,0,0,0-.86,3.7v.76a6.83,6.83,0,0,0,.85,3.72,2.9,2.9,0,0,0,4.83,0,6.86,6.86,0,0,0,.84-3.71Z"/><path class="cls-1" d="M305,25.9h-4.6v13h-3.09v-13h-4.55V23.29H305Z"/><path class="cls-1" d="M319,38.93h-3.1v-6.7h-6v6.7h-3.1V23.29h3.1v6.34h6V23.29H319Z"/><path class="cls-1" d="M331,32.15h-5.94v4.19h7v2.59H322V23.29H332V25.9h-6.95v3.73H331Z"/><path class="cls-1" d="M347.11,34.83a1.7,1.7,0,0,0-.61-1.41,8.27,8.27,0,0,0-2.23-1,14.93,14.93,0,0,1-2.55-1.07,4.33,4.33,0,0,1-2.56-3.87,4,4,0,0,1,.68-2.27,4.52,4.52,0,0,1,2-1.55,7.15,7.15,0,0,1,2.88-.56,6.61,6.61,0,0,1,2.87.61,4.66,4.66,0,0,1,1.95,1.71,4.6,4.6,0,0,1,.7,2.52h-3.09a2.15,2.15,0,0,0-.65-1.67,2.62,2.62,0,0,0-1.83-.6,2.8,2.8,0,0,0-1.77.5,1.59,1.59,0,0,0-.63,1.32,1.51,1.51,0,0,0,.74,1.27,8,8,0,0,0,2.17,1A9.24,9.24,0,0,1,349,31.75a4.17,4.17,0,0,1,1.21,3A3.83,3.83,0,0,1,348.75,38a6.3,6.3,0,0,1-4,1.15,7.45,7.45,0,0,1-3.16-.66,5,5,0,0,1-2.17-1.81,4.74,4.74,0,0,1-.75-2.66h3.11c0,1.73,1,2.59,3,2.59a2.84,2.84,0,0,0,1.73-.47A1.54,1.54,0,0,0,347.11,34.83Z"/><path class="cls-1" d="M363.82,25.9h-4.6v13h-3.09v-13h-4.54V23.29h12.23Z"/><path class="cls-1" d="M372.45,35.71H367l-1,3.22H362.7l5.59-15.64h2.87l5.62,15.64h-3.29Zm-4.59-2.61h3.75l-1.89-5.86Z"/><path class="cls-1" d="M378.42,38.93V23.29H383a6.84,6.84,0,0,1,3.55.93A6.43,6.43,0,0,1,389,26.86a8.47,8.47,0,0,1,.87,3.89v.72a8.36,8.36,0,0,1-.86,3.88A6.25,6.25,0,0,1,386.61,38a6.79,6.79,0,0,1-3.54,1Zm3.09-13V36.34H383a3.3,3.3,0,0,0,2.78-1.24,5.77,5.77,0,0,0,1-3.53v-.83a5.84,5.84,0,0,0-.95-3.61A3.31,3.31,0,0,0,383,25.9Z"/><path class="cls-1" d="M395.5,38.93h-3.1V23.29h3.1Z"/><path class="cls-1" d="M410,23.29v10.3a5.37,5.37,0,0,1-1.54,4.06,5.8,5.8,0,0,1-4.22,1.49A5.87,5.87,0,0,1,400,37.69a5.31,5.31,0,0,1-1.58-4V23.29h3.1V33.61a3.05,3.05,0,0,0,.71,2.24,2.64,2.64,0,0,0,1.95.71c1.74,0,2.63-1,2.66-2.86V23.29Z"/><path class="cls-1" d="M416.85,23.29l3.86,11.34,3.84-11.34h4.06V38.93h-3.1V34.65l.31-7.38-4.06,11.66h-2.13l-4-11.65.31,7.37v4.28h-3.1V23.29Z"/></g></g></g></g></svg>