<svg xmlns="http://www.w3.org/2000/svg" viewBox="0 0 120 100"><defs><style>.cls-1{fill:#e50013;}.cls-2{fill:#231916;}</style></defs><title>Asset 37</title><g id="Layer_2" data-name="Layer 2"><g id="Website_Compo" data-name="Website Compo"><path class="cls-1" d="M118.9,81.24H3.08a1.29,1.29,0,0,1,0-2.56H118.9a1.29,1.29,0,0,1,0,2.56Z"/><path class="cls-2" d="M16.64,37.45c3.19-1.17,3.58-2.77,3.51-3.65V29.93a3.5,3.5,0,0,0-1-2.66,3.55,3.55,0,0,0-2.49-.91h-13a3.57,3.57,0,0,0-2.53.91A3.5,3.5,0,0,0,0,29.93v3.9c0,.68.26,2.38,3.5,3.61,1.87.72,2.44.93,2.44,4.13v26.1a5,5,0,0,0,1.13,3.5,3.92,3.92,0,0,0,3,1.25,3.87,3.87,0,0,0,3-1.25,4.88,4.88,0,0,0,1.13-3.45V41.57C14.21,38.34,14.83,38.11,16.64,37.45Zm-4,4.12v26.2a3.39,3.39,0,0,1-.7,2.3,2.35,2.35,0,0,1-1.82.71,2.33,2.33,0,0,1-1.82-.71,3.47,3.47,0,0,1-.71-2.35V41.57c0-4.13-1.19-4.78-3.49-5.66s-2.45-1.9-2.45-2V29.93a2,2,0,0,1,.54-1.47A2,2,0,0,1,3.47,28H16.64a2,2,0,0,1,1.36.47,1.91,1.91,0,0,1,.54,1.47v3.9a.22.22,0,0,0,0,.08c0,.49-.58,1.31-2.46,2C13.66,36.8,12.6,37.61,12.6,41.57Z"/><path class="cls-2" d="M59.08,58.6a25.22,25.22,0,0,1,3.62-.16,3.94,3.94,0,0,0,3-1.32c1.74-1.95,1.43-5.25,1.39-5.56,0-.53-.63-12.87-8.14-12.92-.93,0-5.7.12-8.31,9-.07.23-.13.46-.19.69v-1c0-.09,0-.35,0-.68C50.42,43,47.91,39,44.58,39a7.18,7.18,0,0,0-4.93,2.55,4.18,4.18,0,0,0-4.1-2.44,7.35,7.35,0,0,0-3.83,1.78,3.54,3.54,0,0,0-3.15-1.93,3.94,3.94,0,0,0-3,1.24,4.89,4.89,0,0,0-1.13,3.45V67.67a4.93,4.93,0,0,0,1.13,3.5,4.24,4.24,0,0,0,6,0,4.87,4.87,0,0,0,1.13-3.42V54a15.24,15.24,0,0,1,.37-4.22A15.54,15.54,0,0,1,33.51,54a1.27,1.27,0,0,0,0,.2V67.73a5.12,5.12,0,0,0,1.06,3.43,3.91,3.91,0,0,0,5.75,0,5.1,5.1,0,0,0,1.06-3.45V54.14a1.34,1.34,0,0,0,0-.2,15,15,0,0,1,.36-4.22A15.42,15.42,0,0,1,42.19,54a1.27,1.27,0,0,0,0,.2V67.67a4.93,4.93,0,0,0,1.13,3.5,3.87,3.87,0,0,0,3,1.25,3.92,3.92,0,0,0,3-1.25,4.88,4.88,0,0,0,1.13-3.45V63.24c.18.72.33,1.15.35,1.22.1.33,2.62,8,8.14,8a7.6,7.6,0,0,0,7.19-5.65,4.06,4.06,0,0,0-.9-4.1,3,3,0,0,0-4.2-.1,3.36,3.36,0,0,1-1.33.88c-1.11,0-1.29-1.8-1.29-2.6,0-1.57.4-2.08.52-2.21ZM48.15,70.07a2.69,2.69,0,0,1-3.64,0,3.45,3.45,0,0,1-.7-2.35V54.11a.86.86,0,0,0,0-.16c0-3.11-.38-5.1-1.14-5.9a1.17,1.17,0,0,0-.84-.38,1.36,1.36,0,0,0-1,.44c-.92,1-1.07,3.72-1,5.89a.38.38,0,0,0,0,.1V67.72s0,0,0,0v0a3.59,3.59,0,0,1-.67,2.32,2.06,2.06,0,0,1-1.65.69,2.08,2.08,0,0,1-1.66-.69,3.55,3.55,0,0,1-.67-2.3V54.17a.86.86,0,0,0,0-.16c0-3.11-.38-5.1-1.14-5.89a1.13,1.13,0,0,0-.84-.39,1.34,1.34,0,0,0-1,.44c-.93,1-1.08,3.72-1,5.89V67.8a3.28,3.28,0,0,1-.71,2.27,2.32,2.32,0,0,1-1.82.71,2.31,2.31,0,0,1-1.81-.71,3.42,3.42,0,0,1-.71-2.35V43.55a3.34,3.34,0,0,1,.71-2.29,2.31,2.31,0,0,1,1.81-.72,2,2,0,0,1,1.87,1.34s0,.08,0,.09.08.17.11.26a.8.8,0,0,0,.13.22l.06.07a.85.85,0,0,0,.45.23,2.15,2.15,0,0,0,1.42-.57,5.82,5.82,0,0,1,3-1.49,2.69,2.69,0,0,1,2.72,2,3.82,3.82,0,0,0,.41.79.81.81,0,0,0,.72.32.78.78,0,0,0,.59-.35c.12-.17,2.12-2.87,4.45-2.87s4.25,3.33,4.27,6.08v.06c0,.25,0,.44,0,.54V67.77A3.42,3.42,0,0,1,48.15,70.07Zm10.38-13a.85.85,0,0,0-.24.08c-.46.23-1.47,1-1.47,3.71,0,4,2.23,4.24,2.9,4.24a4.26,4.26,0,0,0,2.38-1.27,1.45,1.45,0,0,1,2,0,2.43,2.43,0,0,1,.48,2.44A6,6,0,0,1,59,70.78c-4.35,0-6.58-6.75-6.61-6.84a28.54,28.54,0,0,1-.14-15.86c2.18-7.39,5.79-7.81,6.6-7.81h.11c2.45,0,4.29,1.82,5.47,5.35a24.47,24.47,0,0,1,1.11,6.06s.31,2.9-1,4.35a2.32,2.32,0,0,1-1.82.78,22.67,22.67,0,0,0-4,.21Z"/><path class="cls-2" d="M23.46,43.65a4.94,4.94,0,0,0-1.13-3.5,3.91,3.91,0,0,0-3-1.24,4,4,0,0,0-3,1.24,4.94,4.94,0,0,0-1.13,3.45V67.67a4.93,4.93,0,0,0,1.13,3.5,3.92,3.92,0,0,0,3,1.25,3.87,3.87,0,0,0,3-1.25,5,5,0,0,0,1.14-3.45ZM21.15,70.07a2.35,2.35,0,0,1-1.82.71,2.33,2.33,0,0,1-1.82-.71,3.47,3.47,0,0,1-.71-2.35V43.55a3.4,3.4,0,0,1,.71-2.29,2.33,2.33,0,0,1,1.82-.72,2.35,2.35,0,0,1,1.82.72,3.43,3.43,0,0,1,.7,2.34V67.77A3.39,3.39,0,0,1,21.15,70.07Z"/><path class="cls-2" d="M79.48,63.27h0a1.92,1.92,0,0,1-1.75-1.13c-1-2.17-1.52-6.28-1.52-11.9,0-7.44.81-11,1.48-12.59a1.94,1.94,0,0,1,3.58,0c.67,1.64,1.48,5.15,1.48,12.59,0,5.61-.52,9.72-1.5,11.89a2,2,0,0,1-1.76,1.14Zm0-25.14a.3.3,0,0,0-.26.17c-.61,1.49-1.35,4.78-1.35,11.94s.86,10.08,1.36,11.19a.28.28,0,0,0,.25.16h0a.28.28,0,0,0,.25-.16c.5-1.12,1.35-4,1.35-11.19s-.74-10.45-1.35-11.94A.3.3,0,0,0,79.47,38.13Z"/><path class="cls-2" d="M58.68,46.23s-1.9,0-1.9,2.94c0,2.77,1.9,2.6,1.9,2.6s1.89.17,1.89-2.6C60.57,46.24,58.68,46.23,58.68,46.23Zm0,3.91h0c-.29,0-.27-.34-.27-1.26s.27-1,.27-1h0s.27,0,.27,1S59,50.14,58.69,50.14Z"/><path class="cls-2" d="M117.52,64.44c-.17,0-1.63-.37-1.64-3.21V47.37a.43.43,0,0,0,0,0,4.18,4.18,0,0,0,0-8.2V33.37a4.93,4.93,0,0,0-1.13-3.5,3.87,3.87,0,0,0-3-1.25,3.92,3.92,0,0,0-3,1.25,4.93,4.93,0,0,0-1.13,3.45v5c0,.1,0,.2,0,.3l0,.92A3.73,3.73,0,0,0,105.93,41a4.18,4.18,0,0,0-6.6-.87A4.89,4.89,0,0,0,98.2,43.6V58.9a2.09,2.09,0,0,0,0,.26v.73h0c0,.27,0,.49,0,.69v.14c0,.58-.15,1.05-.33,1.05s-.33-.47-.33-1.05l0-.78v0h0c0-.48,0-.94,0-1.25s0-.92,0-1.27V43.65a5,5,0,0,0-1.14-3.5,4.25,4.25,0,0,0-6,0,4.14,4.14,0,0,0-.83,1.39c-.8-5.64-2.5-9.66-5.07-12a7.11,7.11,0,0,0-5-2,6.93,6.93,0,0,0-4.92,1.95c-3.74,3.34-5.64,10.27-5.64,20.59,0,10.13,1.89,17,5.6,20.33a7.25,7.25,0,0,0,4.79,2h.18a7.17,7.17,0,0,0,5-2.11c2.27-2.08,3.85-5.44,4.73-10v3.3c0,.85,0,5.23,2.16,7.48a4.1,4.1,0,0,0,3,1.31,5.61,5.61,0,0,0,4.54-1.86,4.19,4.19,0,0,0,6.49.65,4.88,4.88,0,0,0,1.13-3.45V46.12a4.12,4.12,0,0,0,1.14.81V62.11a4.71,4.71,0,0,0,0,.93c.64,8.65,5.93,9.32,7.52,9.32h.14a6,6,0,0,0,2.32-.46,3.64,3.64,0,0,0,2.29-3.47C119.92,65.11,118.21,64.53,117.52,64.44ZM83.37,69.12a5.56,5.56,0,0,1-3.86,1.68h-.08a5.59,5.59,0,0,1-3.84-1.62c-3.36-3-5.06-9.46-5.06-19.11,0-9.83,1.71-16.35,5.08-19.36a5.51,5.51,0,0,1,3.64-1.55h.3a5.38,5.38,0,0,1,3.79,1.6c3.37,3.05,5.07,9.55,5.07,19.31C88.41,59.63,86.72,66,83.37,69.12Zm20.79.95a2.39,2.39,0,0,1-1.82.71,2.28,2.28,0,0,1-2.41-1.86.79.79,0,0,0-.58-.58.69.69,0,0,0-.2,0,.8.8,0,0,0-.59.27l-.11.11a4.78,4.78,0,0,1-4,2.06h-.07a2.56,2.56,0,0,1-1.87-.82c-1.42-1.48-1.73-4.66-1.69-6.32V43.55a3.37,3.37,0,0,1,.7-2.29,2.66,2.66,0,0,1,3.64,0,3.38,3.38,0,0,1,.7,2.34V57.41c0,.36,0,.79,0,1.25s0,.81,0,1.14v1.25a2,2,0,1,0,3.91,0v-.8c0-.23,0-.48,0-.73v-.46a.41.41,0,0,0,0-.11V43.55a3.4,3.4,0,0,1,.71-2.29,2.32,2.32,0,0,1,1.82-.72,2.35,2.35,0,0,1,1.82.72,3.43,3.43,0,0,1,.7,2.34V67.77A3.39,3.39,0,0,1,104.16,70.07Zm12.83.34a4.66,4.66,0,0,1-1.67.32h-.14c-5,0-5.79-6-5.93-7.86a5.24,5.24,0,0,1,0-.71V47a1.9,1.9,0,0,0-.33-1.21,1.05,1.05,0,0,0-.39-.27A2.27,2.27,0,0,1,107,43.21a2.3,2.3,0,0,1,1.67-2.39.8.8,0,0,0,.55-.65,1.21,1.21,0,0,0,0-.25l0-1.39a.55.55,0,0,0,0-.18V33.27a3.42,3.42,0,0,1,.71-2.3,2.69,2.69,0,0,1,3.64,0,3.45,3.45,0,0,1,.7,2.35v6.52a.81.81,0,0,0,.77.81,2.48,2.48,0,0,1,2.6,2.56,2.33,2.33,0,0,1-2.33,2.53.84.84,0,0,0-.41.11c-.52.31-.61,1.12-.63,1.48v13.9c0,4.16,2.66,4.76,3,4.82.65.09,1,1,1,2.38A2,2,0,0,1,117,70.41Z"/><path class="cls-2" d="M43.26,89.32H41.34V87.41H47.4v1.91H45.48V99.76H43.26Z"/><path class="cls-2" d="M52.29,87.17c2,0,3.25,1.54,3.25,6.41S54.26,100,52.29,100,49,98.46,49,93.58,50.32,87.17,52.29,87.17Zm-.83,7.71c0,2.67.31,3.21.83,3.21s.82-.54.82-3.21v-2.6c0-2.67-.31-3.2-.82-3.2s-.83.53-.83,3.2Z"/><path class="cls-2" d="M58.06,87.41h2.23v5.17h0l1.86-5.17h2L62.5,91.56l2,8.2H62.36l-1.23-5.53h0l-.81,1.94v3.59H58.06Z"/><path class="cls-2" d="M67.8,95l-2-7.58H68L69,92.25h0l1.14-4.84h1.86l-2,7.37v5H67.8Z"/><path class="cls-2" d="M76.83,87.17c2,0,3.25,1.54,3.25,6.41S78.8,100,76.83,100s-3.26-1.54-3.26-6.42S74.86,87.17,76.83,87.17ZM76,94.88c0,2.67.3,3.21.82,3.21s.82-.54.82-3.21v-2.6c0-2.67-.31-3.2-.82-3.2s-.82.53-.82,3.2Z"/><path d="M22.27,0c1.31,0,2.57.07,3.44,1a4,4,0,0,1,1,2.72,3.76,3.76,0,0,1-1.37,3.06,5.42,5.42,0,0,1-3,.63h-1v4.74h-2V0Zm-1,1.55V5.81h1c.91,0,2.32,0,2.32-2.13a2.59,2.59,0,0,0-.41-1.49c-.46-.64-1.05-.64-1.91-.64Z"/><path d="M29.73,3.17v2C29.91,4.63,30.47,3,32,3a1.47,1.47,0,0,1,.32,0V4.94C30.38,4.74,30,6.19,30,7.58v4.57H28.11v-9Z"/><path d="M39.58,7.56c0,2.1-.49,4.81-3.51,4.81-2.76,0-3.48-2.39-3.48-4.72,0-2.17.6-4.7,3.51-4.7S39.58,5.37,39.58,7.56Zm-5,.11c0,2.35.52,3.3,1.55,3.3s1.54-.91,1.54-3.32-.5-3.3-1.54-3.3S34.54,5.48,34.54,7.67Z"/><path d="M47.75,0V12.15H46.06V10.78a2.23,2.23,0,0,1-2.24,1.53c-2.5,0-3-2.87-3-4.6,0-3.08,1.28-4.7,3-4.7a2.06,2.06,0,0,1,2,1.2V0ZM45.93,6.87a3,3,0,0,0-.38-1.75,1.52,1.52,0,0,0-1.22-.75C43,4.37,42.8,6.1,42.8,7.54s.16,3.37,1.55,3.37a1.42,1.42,0,0,0,1.2-.71,3,3,0,0,0,.38-1.78Z"/><path d="M51.67,3.17v5.7c0,1.26,0,2,1,2,1.48,0,1.48-1.73,1.48-3.39V3.17H56v9H54.32V10.8a2.29,2.29,0,0,1-2.26,1.57c-2.23,0-2.23-2-2.23-3.46V3.17Z"/><path d="M62.54,6.38c-.13-1.06-.31-1.95-1.33-1.95-1.26,0-1.57,1.25-1.57,3.42,0,.8,0,3,1.57,3,1.13,0,1.26-1.18,1.33-1.95l1.76.16c-.14,1.12-.45,3.32-3.24,3.32s-3.35-2.79-3.35-4.68c0-2.1.58-4.74,3.48-4.74,2.64,0,3,2.28,3.11,3.24Z"/><path d="M67,7.94c0,1,0,3,1.71,3,1.19,0,1.43-1,1.57-1.68l1.66.24a3.24,3.24,0,0,1-3.28,2.84c-2.63,0-3.53-2.22-3.53-4.57C65.09,4.48,66.66,3,68.64,3a3,3,0,0,1,2.68,1.57A7.36,7.36,0,0,1,72,7.94Zm3.15-1.25A4,4,0,0,0,70,5.41a1.44,1.44,0,0,0-1.37-1.09c-1.11,0-1.49,1.15-1.58,2.37Z"/><path d="M79.94,0V12.15H78.25V10.78A2.22,2.22,0,0,1,76,12.31c-2.51,0-3-2.87-3-4.6,0-3.08,1.28-4.7,3-4.7a2,2,0,0,1,2,1.2V0ZM78.12,6.87a3,3,0,0,0-.38-1.75,1.5,1.5,0,0,0-1.22-.75C75.17,4.37,75,6.1,75,7.54s.16,3.37,1.55,3.37a1.42,1.42,0,0,0,1.2-.71,3,3,0,0,0,.38-1.78Z"/><path d="M88.38,0V4.19A2.32,2.32,0,0,1,90.45,3c2.46,0,3,2.71,3,4.55,0,1-.14,3.52-1.76,4.41a3.08,3.08,0,0,1-1.51.36A2.09,2.09,0,0,1,88,10.93a6.66,6.66,0,0,0-.4,1.22h-1V0Zm0,8.34c0,.59,0,2.59,1.56,2.59,1.17,0,1.57-1.11,1.57-3.41,0-1.84-.27-3.15-1.53-3.15a1.29,1.29,0,0,0-1,.49,2.62,2.62,0,0,0-.57,1.81Z"/><path d="M95.92,3.17l1.54,6.16,1.59-6.16h1.66l-2.89,9.55c-.43,1.4-.82,2.66-2.57,2.66a4.51,4.51,0,0,1-1-.11v-1.5a3.16,3.16,0,0,0,.64.06c1,0,1.23-.37,1.66-2L94.08,3.17Z"/></g></g></svg>